G04 #@! TF.FileFunction,Copper,L2,Inr,Mixed*
%FSLAX46Y46*%
G04 Gerber Fmt 4.6, Leading zero omitted, Abs format (unit mm)*
G04 Created by KiCad (PCBNEW 4.0.7) date Wednesday, May 02, 2018 'PMt' 05:51:31 PM*
%MOMM*%
%LPD*%
G01*
G04 APERTURE LIST*
%ADD10C,0.100000*%
%ADD11C,0.600000*%
%ADD12C,5.400000*%
%ADD13C,2.500000*%
%ADD14C,3.000000*%
%ADD15R,2.080000X3.600000*%
%ADD16O,2.080000X3.600000*%
%ADD17C,0.970000*%
%ADD18R,1.700000X1.700000*%
%ADD19O,1.700000X1.700000*%
%ADD20R,2.200000X2.200000*%
%ADD21O,2.200000X2.200000*%
%ADD22R,1.700000X1.100000*%
%ADD23O,1.700000X1.100000*%
%ADD24O,3.900000X1.600000*%
%ADD25C,1.000000*%
%ADD26C,0.700000*%
%ADD27C,0.500000*%
%ADD28C,0.200000*%
%ADD29C,2.000000*%
%ADD30C,0.254000*%
G04 APERTURE END LIST*
D10*
D11*
X104950000Y-122650000D03*
D12*
X190790000Y-91850000D03*
D11*
X134366000Y-125984000D03*
X135382000Y-123698000D03*
X133350000Y-123698000D03*
X147955000Y-118745000D03*
X149225000Y-114935000D03*
X155575000Y-112395000D03*
X155575000Y-114935000D03*
X155575000Y-121285000D03*
X153035000Y-121285000D03*
X104902000Y-116332000D03*
X170053000Y-111252000D03*
X168529000Y-112776000D03*
X166878000Y-114427000D03*
X165227000Y-116078000D03*
X162814000Y-121920000D03*
X162814000Y-124460000D03*
X169164000Y-118364000D03*
X167894000Y-124460000D03*
X175260000Y-115697000D03*
X177800000Y-115697000D03*
X167894000Y-121920000D03*
X167894000Y-119761000D03*
X170688000Y-116840000D03*
X172720000Y-115697000D03*
X180340000Y-115697000D03*
X182880000Y-115697000D03*
D13*
X183954000Y-109616000D03*
D14*
X171754000Y-109616000D03*
X171704000Y-121666000D03*
D13*
X183954000Y-121616000D03*
D14*
X185904000Y-115666000D03*
D11*
X109790000Y-99350000D03*
X116790000Y-99350000D03*
X113290000Y-99350000D03*
X109790000Y-102850000D03*
X116790000Y-102850000D03*
X116790000Y-113350000D03*
X116790000Y-109850000D03*
X109790000Y-109850000D03*
X109790000Y-113350000D03*
X113290000Y-113350000D03*
X113290000Y-109850000D03*
X113290000Y-102850000D03*
X116790000Y-106350000D03*
X109790000Y-106350000D03*
X113290000Y-106350000D03*
X140335000Y-84455000D03*
X140335000Y-87630000D03*
X107490000Y-80740000D03*
X118920000Y-80740000D03*
X131445000Y-102235000D03*
X134620000Y-99060000D03*
X98600000Y-109950000D03*
X156845000Y-97155000D03*
X153035000Y-97155000D03*
X149860000Y-97155000D03*
X156845000Y-94615000D03*
X153035000Y-94615000D03*
X149860000Y-94615000D03*
X156845000Y-92075000D03*
X153035000Y-92075000D03*
X138430000Y-109220000D03*
X138430000Y-111125000D03*
X138430000Y-113030000D03*
X135255000Y-109220000D03*
X135255000Y-111125000D03*
X135255000Y-113030000D03*
X132080000Y-109220000D03*
X132080000Y-111125000D03*
X132080000Y-113030000D03*
X122730000Y-88360000D03*
X126540000Y-84550000D03*
X122730000Y-84550000D03*
X118920000Y-84550000D03*
X137160000Y-104775000D03*
X140335000Y-104775000D03*
X122555000Y-110490000D03*
X144145000Y-99060000D03*
X126540000Y-88360000D03*
X115110000Y-84550000D03*
X126540000Y-80740000D03*
X122730000Y-80740000D03*
X111300000Y-88360000D03*
X122730000Y-92170000D03*
X115110000Y-88360000D03*
X118920000Y-88360000D03*
X115110000Y-80740000D03*
X98600000Y-113760000D03*
X98600000Y-117570000D03*
X97330000Y-126460000D03*
X140335000Y-90805000D03*
X140335000Y-81280000D03*
X107490000Y-84550000D03*
X111300000Y-84550000D03*
X111300000Y-80740000D03*
X102410000Y-109950000D03*
X98600000Y-106140000D03*
X116290000Y-121850000D03*
X117650000Y-120110000D03*
X112570000Y-120110000D03*
X112570000Y-121380000D03*
X115110000Y-122650000D03*
X115110000Y-125190000D03*
X113665000Y-127635000D03*
X111300000Y-126460000D03*
X101140000Y-126460000D03*
X112570000Y-123920000D03*
X104950000Y-126460000D03*
X117650000Y-121380000D03*
X112570000Y-122650000D03*
X111300000Y-122650000D03*
X111300000Y-120110000D03*
X111300000Y-121380000D03*
X111300000Y-127730000D03*
X108760000Y-127730000D03*
X108760000Y-126460000D03*
X108760000Y-125190000D03*
X108760000Y-123920000D03*
X108760000Y-122650000D03*
X108760000Y-121380000D03*
X108760000Y-120110000D03*
X115110000Y-123920000D03*
X104902000Y-115189000D03*
X103886000Y-115189000D03*
X103886000Y-116332000D03*
X104902000Y-117475000D03*
X103886000Y-117475000D03*
X157226000Y-106680000D03*
X155956000Y-106680000D03*
X102410000Y-95980000D03*
X98600000Y-95980000D03*
X105346500Y-132207000D03*
D15*
X137390000Y-126619000D03*
D16*
X142470000Y-126619000D03*
X147550000Y-126619000D03*
X152630000Y-126619000D03*
X157710000Y-126619000D03*
X162790000Y-126619000D03*
X167870000Y-126619000D03*
X172950000Y-126619000D03*
D17*
X105015000Y-129116000D03*
X113775000Y-129116000D03*
D18*
X146812000Y-87249000D03*
D19*
X149352000Y-87249000D03*
D18*
X178610000Y-80740000D03*
D19*
X181150000Y-80740000D03*
X183690000Y-80740000D03*
D18*
X186230000Y-87090000D03*
D19*
X186230000Y-89630000D03*
X186230000Y-92170000D03*
X186230000Y-94710000D03*
X186230000Y-97250000D03*
D11*
X149860000Y-92075000D03*
X181102000Y-103632000D03*
X181102000Y-101600000D03*
X181102000Y-105664000D03*
X179324000Y-101600000D03*
X179324000Y-103632000D03*
X179324000Y-105664000D03*
X182880000Y-101600000D03*
X182880000Y-103632000D03*
X182880000Y-105664000D03*
D20*
X154813000Y-81661000D03*
D21*
X144653000Y-81661000D03*
D22*
X105712000Y-90036000D03*
D23*
X103112000Y-89236000D03*
X105712000Y-88436000D03*
X103112000Y-87636000D03*
X105712000Y-86836000D03*
D24*
X104412000Y-92086000D03*
X104412000Y-84786000D03*
D12*
X98790000Y-121850000D03*
X190790000Y-121850000D03*
X190790000Y-91850000D03*
X98790000Y-91850000D03*
D11*
X172974000Y-124460000D03*
X172974000Y-123190000D03*
X165318000Y-89245000D03*
X178773292Y-88565593D03*
X153415361Y-111149103D03*
X144379061Y-108662165D03*
X169545000Y-96012000D03*
X160655000Y-96012000D03*
X160655000Y-87249000D03*
X166370000Y-85852000D03*
X128016000Y-108902500D03*
X158369000Y-106680000D03*
X154686000Y-106680000D03*
X122785598Y-102002193D03*
X122728574Y-98717709D03*
X163830000Y-112522000D03*
X173863000Y-84963000D03*
X173863000Y-86741000D03*
X173863000Y-88519000D03*
X173863000Y-90297000D03*
X173863000Y-92075000D03*
X139446000Y-96520000D03*
X168402000Y-93472000D03*
X163322179Y-94995912D03*
X161800167Y-94488574D03*
X154940000Y-88198000D03*
X139446000Y-99695000D03*
X122682000Y-114046000D03*
X116139462Y-90033893D03*
X111188500Y-91376500D03*
X189738000Y-100203000D03*
X159384145Y-89981173D03*
X183761444Y-87405276D03*
X170340576Y-101351960D03*
X103147177Y-104220949D03*
X132588000Y-84074000D03*
X104065717Y-103119878D03*
X135128000Y-84074000D03*
X105039551Y-102015949D03*
X137668000Y-86487000D03*
X105045494Y-100931574D03*
X137668000Y-84074000D03*
X102235000Y-105410000D03*
X141097000Y-96520000D03*
X122682000Y-107442000D03*
X122682000Y-106426000D03*
X122682000Y-105537000D03*
X122682000Y-104648000D03*
X167640000Y-81915000D03*
D25*
X103886000Y-116332000D02*
X127952500Y-116332000D01*
X127952500Y-116332000D02*
X145034000Y-116332000D01*
D26*
X128016000Y-108902500D02*
X128016000Y-116268500D01*
X128016000Y-116268500D02*
X127952500Y-116332000D01*
D25*
X145034000Y-116332000D02*
X154686000Y-106680000D01*
D27*
X168402660Y-93471340D02*
X176901669Y-93471340D01*
X176901669Y-93471340D02*
X181128191Y-89244818D01*
X181128191Y-89244818D02*
X181128191Y-80708674D01*
D28*
X168402000Y-93472000D02*
X168402660Y-93471340D01*
D27*
X163322179Y-94995912D02*
X180820393Y-94995912D01*
X180820393Y-94995912D02*
X186204148Y-89612157D01*
X161800167Y-94488574D02*
X161800167Y-95792083D01*
X161800167Y-95792083D02*
X163035816Y-97027732D01*
X163035816Y-97027732D02*
X181338549Y-97027732D01*
X181338549Y-97027732D02*
X186204148Y-92162133D01*
D29*
X162790000Y-118580000D02*
X171754000Y-109616000D01*
X162790000Y-126619000D02*
X162790000Y-118580000D01*
X172950000Y-122912000D02*
X171704000Y-121666000D01*
X172950000Y-126619000D02*
X172950000Y-122912000D01*
X171870488Y-115666000D02*
X183782680Y-115666000D01*
X183782680Y-115666000D02*
X185904000Y-115666000D01*
X167870000Y-119666488D02*
X171870488Y-115666000D01*
X167870000Y-126619000D02*
X167870000Y-119666488D01*
D26*
X154940000Y-88198000D02*
X154940000Y-99053356D01*
X154940000Y-99053356D02*
X160524909Y-104638265D01*
X160524909Y-104638265D02*
X160524909Y-108800872D01*
X160524909Y-108800872D02*
X157710000Y-111615781D01*
X157710000Y-111615781D02*
X157710000Y-126619000D01*
D28*
X163957998Y-100203000D02*
X189738000Y-100203000D01*
X159384145Y-89981173D02*
X159384145Y-95629147D01*
X159384145Y-95629147D02*
X163957998Y-100203000D01*
D30*
G36*
X105537000Y-117729000D02*
X103251000Y-117729000D01*
X103251000Y-114935000D01*
X105537000Y-114935000D01*
X105537000Y-117729000D01*
X105537000Y-117729000D01*
G37*
X105537000Y-117729000D02*
X103251000Y-117729000D01*
X103251000Y-114935000D01*
X105537000Y-114935000D01*
X105537000Y-117729000D01*
G36*
X158750000Y-107188000D02*
X154305000Y-107188000D01*
X154305000Y-106172000D01*
X158750000Y-106172000D01*
X158750000Y-107188000D01*
X158750000Y-107188000D01*
G37*
X158750000Y-107188000D02*
X154305000Y-107188000D01*
X154305000Y-106172000D01*
X158750000Y-106172000D01*
X158750000Y-107188000D01*
G36*
X194359000Y-106723000D02*
X170290000Y-106723000D01*
X170240590Y-106733006D01*
X170200197Y-106760197D01*
X164511064Y-112449330D01*
X164511118Y-112387135D01*
X164407661Y-112136748D01*
X164216259Y-111945013D01*
X163966054Y-111841118D01*
X163695135Y-111840882D01*
X163444748Y-111944339D01*
X163253013Y-112135741D01*
X163149118Y-112385946D01*
X163148882Y-112656865D01*
X163252339Y-112907252D01*
X163443741Y-113098987D01*
X163693946Y-113202882D01*
X163757457Y-113202937D01*
X160700197Y-116260197D01*
X160672334Y-116302211D01*
X160663000Y-116350000D01*
X160663000Y-129350000D01*
X160673006Y-129399410D01*
X160701447Y-129441035D01*
X160743841Y-129468315D01*
X160790000Y-129477000D01*
X186790000Y-129477000D01*
X186839410Y-129466994D01*
X186881035Y-129438553D01*
X186908315Y-129396159D01*
X186917000Y-129350000D01*
X186917000Y-122402606D01*
X190842606Y-118477000D01*
X194359000Y-118477000D01*
X194359000Y-134919000D01*
X95221000Y-134919000D01*
X95221000Y-131519572D01*
X95408414Y-131519572D01*
X95922056Y-132762681D01*
X96872317Y-133714601D01*
X98114527Y-134230412D01*
X99459572Y-134231586D01*
X100702681Y-133717944D01*
X101654601Y-132767683D01*
X102170412Y-131525473D01*
X102170417Y-131519572D01*
X187408414Y-131519572D01*
X187922056Y-132762681D01*
X188872317Y-133714601D01*
X190114527Y-134230412D01*
X191459572Y-134231586D01*
X192702681Y-133717944D01*
X193654601Y-132767683D01*
X194170412Y-131525473D01*
X194171586Y-130180428D01*
X193657944Y-128937319D01*
X192707683Y-127985399D01*
X191465473Y-127469588D01*
X190120428Y-127468414D01*
X188877319Y-127982056D01*
X187925399Y-128932317D01*
X187409588Y-130174527D01*
X187408414Y-131519572D01*
X102170417Y-131519572D01*
X102171586Y-130180428D01*
X102053733Y-129895200D01*
X104415405Y-129895200D01*
X104450692Y-130108768D01*
X104873564Y-130249149D01*
X105317968Y-130217018D01*
X105579308Y-130108768D01*
X105614595Y-129895200D01*
X113175405Y-129895200D01*
X113210692Y-130108768D01*
X113633564Y-130249149D01*
X114077968Y-130217018D01*
X114339308Y-130108768D01*
X114374595Y-129895200D01*
X113775000Y-129295605D01*
X113175405Y-129895200D01*
X105614595Y-129895200D01*
X105015000Y-129295605D01*
X104415405Y-129895200D01*
X102053733Y-129895200D01*
X101673334Y-128974564D01*
X103881851Y-128974564D01*
X103913982Y-129418968D01*
X104022232Y-129680308D01*
X104235800Y-129715595D01*
X104835395Y-129116000D01*
X105194605Y-129116000D01*
X105794200Y-129715595D01*
X106007768Y-129680308D01*
X106148149Y-129257436D01*
X106127697Y-128974564D01*
X112641851Y-128974564D01*
X112673982Y-129418968D01*
X112782232Y-129680308D01*
X112995800Y-129715595D01*
X113595395Y-129116000D01*
X113954605Y-129116000D01*
X114554200Y-129715595D01*
X114767768Y-129680308D01*
X114908149Y-129257436D01*
X114876018Y-128813032D01*
X114767768Y-128551692D01*
X114554200Y-128516405D01*
X113954605Y-129116000D01*
X113595395Y-129116000D01*
X112995800Y-128516405D01*
X112782232Y-128551692D01*
X112641851Y-128974564D01*
X106127697Y-128974564D01*
X106116018Y-128813032D01*
X106007768Y-128551692D01*
X105794200Y-128516405D01*
X105194605Y-129116000D01*
X104835395Y-129116000D01*
X104235800Y-128516405D01*
X104022232Y-128551692D01*
X103881851Y-128974564D01*
X101673334Y-128974564D01*
X101657944Y-128937319D01*
X101058472Y-128336800D01*
X104415405Y-128336800D01*
X105015000Y-128936395D01*
X105614595Y-128336800D01*
X113175405Y-128336800D01*
X113775000Y-128936395D01*
X114374595Y-128336800D01*
X114339308Y-128123232D01*
X113916436Y-127982851D01*
X113472032Y-128014982D01*
X113210692Y-128123232D01*
X113175405Y-128336800D01*
X105614595Y-128336800D01*
X105579308Y-128123232D01*
X105156436Y-127982851D01*
X104712032Y-128014982D01*
X104450692Y-128123232D01*
X104415405Y-128336800D01*
X101058472Y-128336800D01*
X100707683Y-127985399D01*
X99465473Y-127469588D01*
X98120428Y-127468414D01*
X96877319Y-127982056D01*
X95925399Y-128932317D01*
X95409588Y-130174527D01*
X95408414Y-131519572D01*
X95221000Y-131519572D01*
X95221000Y-124819000D01*
X135961536Y-124819000D01*
X135961536Y-128419000D01*
X135988103Y-128560190D01*
X136071546Y-128689865D01*
X136198866Y-128776859D01*
X136350000Y-128807464D01*
X138430000Y-128807464D01*
X138571190Y-128780897D01*
X138700865Y-128697454D01*
X138787859Y-128570134D01*
X138818464Y-128419000D01*
X138818464Y-125816272D01*
X141049000Y-125816272D01*
X141049000Y-127421728D01*
X141157167Y-127965521D01*
X141465201Y-128426527D01*
X141926207Y-128734561D01*
X142470000Y-128842728D01*
X143013793Y-128734561D01*
X143474799Y-128426527D01*
X143782833Y-127965521D01*
X143891000Y-127421728D01*
X143891000Y-125816272D01*
X146129000Y-125816272D01*
X146129000Y-127421728D01*
X146237167Y-127965521D01*
X146545201Y-128426527D01*
X147006207Y-128734561D01*
X147550000Y-128842728D01*
X148093793Y-128734561D01*
X148554799Y-128426527D01*
X148862833Y-127965521D01*
X148971000Y-127421728D01*
X148971000Y-126746000D01*
X150955000Y-126746000D01*
X150955000Y-127506000D01*
X151131103Y-128137327D01*
X151535399Y-128653206D01*
X152106338Y-128975099D01*
X152243290Y-129008748D01*
X152503000Y-128889922D01*
X152503000Y-126746000D01*
X152757000Y-126746000D01*
X152757000Y-128889922D01*
X153016710Y-129008748D01*
X153153662Y-128975099D01*
X153724601Y-128653206D01*
X154128897Y-128137327D01*
X154305000Y-127506000D01*
X154305000Y-126746000D01*
X152757000Y-126746000D01*
X152503000Y-126746000D01*
X150955000Y-126746000D01*
X148971000Y-126746000D01*
X148971000Y-125816272D01*
X148954238Y-125732000D01*
X150955000Y-125732000D01*
X150955000Y-126492000D01*
X152503000Y-126492000D01*
X152503000Y-124348078D01*
X152757000Y-124348078D01*
X152757000Y-126492000D01*
X154305000Y-126492000D01*
X154305000Y-125732000D01*
X154128897Y-125100673D01*
X153724601Y-124584794D01*
X153153662Y-124262901D01*
X153016710Y-124229252D01*
X152757000Y-124348078D01*
X152503000Y-124348078D01*
X152243290Y-124229252D01*
X152106338Y-124262901D01*
X151535399Y-124584794D01*
X151131103Y-125100673D01*
X150955000Y-125732000D01*
X148954238Y-125732000D01*
X148862833Y-125272479D01*
X148554799Y-124811473D01*
X148093793Y-124503439D01*
X147550000Y-124395272D01*
X147006207Y-124503439D01*
X146545201Y-124811473D01*
X146237167Y-125272479D01*
X146129000Y-125816272D01*
X143891000Y-125816272D01*
X143782833Y-125272479D01*
X143474799Y-124811473D01*
X143013793Y-124503439D01*
X142470000Y-124395272D01*
X141926207Y-124503439D01*
X141465201Y-124811473D01*
X141157167Y-125272479D01*
X141049000Y-125816272D01*
X138818464Y-125816272D01*
X138818464Y-124819000D01*
X138791897Y-124677810D01*
X138708454Y-124548135D01*
X138581134Y-124461141D01*
X138430000Y-124430536D01*
X136350000Y-124430536D01*
X136208810Y-124457103D01*
X136079135Y-124540546D01*
X135992141Y-124667866D01*
X135961536Y-124819000D01*
X95221000Y-124819000D01*
X95221000Y-114808000D01*
X102743000Y-114808000D01*
X102743000Y-117856000D01*
X102769056Y-117994477D01*
X102850896Y-118121660D01*
X102975770Y-118206983D01*
X103124000Y-118237000D01*
X105664000Y-118237000D01*
X105802477Y-118210944D01*
X105929660Y-118129104D01*
X106014983Y-118004230D01*
X106045000Y-117856000D01*
X106045000Y-117213000D01*
X145034000Y-117213000D01*
X145371144Y-117145938D01*
X145656961Y-116954961D01*
X151327954Y-111283968D01*
X152734243Y-111283968D01*
X152837700Y-111534355D01*
X153029102Y-111726090D01*
X153279307Y-111829985D01*
X153550226Y-111830221D01*
X153800613Y-111726764D01*
X153992348Y-111535362D01*
X154096243Y-111285157D01*
X154096479Y-111014238D01*
X153993022Y-110763851D01*
X153801620Y-110572116D01*
X153551415Y-110468221D01*
X153280496Y-110467985D01*
X153030109Y-110571442D01*
X152838374Y-110762844D01*
X152734479Y-111013049D01*
X152734243Y-111283968D01*
X151327954Y-111283968D01*
X154915922Y-107696000D01*
X158877000Y-107696000D01*
X159015477Y-107669944D01*
X159142660Y-107588104D01*
X159227983Y-107463230D01*
X159258000Y-107315000D01*
X159258000Y-106045000D01*
X159231944Y-105906523D01*
X159150104Y-105779340D01*
X159025230Y-105694017D01*
X158877000Y-105664000D01*
X154178000Y-105664000D01*
X154039523Y-105690056D01*
X153912340Y-105771896D01*
X153827017Y-105896770D01*
X153797000Y-106045000D01*
X153797000Y-106323078D01*
X144669078Y-115451000D01*
X128747000Y-115451000D01*
X128747000Y-108902500D01*
X128726021Y-108797030D01*
X143697943Y-108797030D01*
X143801400Y-109047417D01*
X143992802Y-109239152D01*
X144243007Y-109343047D01*
X144513926Y-109343283D01*
X144764313Y-109239826D01*
X144956048Y-109048424D01*
X145059943Y-108798219D01*
X145060179Y-108527300D01*
X144956722Y-108276913D01*
X144765320Y-108085178D01*
X144515115Y-107981283D01*
X144244196Y-107981047D01*
X143993809Y-108084504D01*
X143802074Y-108275906D01*
X143698179Y-108526111D01*
X143697943Y-108797030D01*
X128726021Y-108797030D01*
X128691356Y-108622758D01*
X128532895Y-108385605D01*
X128295742Y-108227144D01*
X128016000Y-108171500D01*
X127736258Y-108227144D01*
X127499105Y-108385605D01*
X127340644Y-108622758D01*
X127285000Y-108902500D01*
X127285000Y-115451000D01*
X106045000Y-115451000D01*
X106045000Y-114808000D01*
X106018944Y-114669523D01*
X105937104Y-114542340D01*
X105812230Y-114457017D01*
X105664000Y-114427000D01*
X103124000Y-114427000D01*
X102985523Y-114453056D01*
X102858340Y-114534896D01*
X102773017Y-114659770D01*
X102743000Y-114808000D01*
X95221000Y-114808000D01*
X95221000Y-114180865D01*
X122000882Y-114180865D01*
X122104339Y-114431252D01*
X122295741Y-114622987D01*
X122545946Y-114726882D01*
X122816865Y-114727118D01*
X123067252Y-114623661D01*
X123258987Y-114432259D01*
X123362882Y-114182054D01*
X123363118Y-113911135D01*
X123259661Y-113660748D01*
X123068259Y-113469013D01*
X122818054Y-113365118D01*
X122547135Y-113364882D01*
X122296748Y-113468339D01*
X122105013Y-113659741D01*
X122001118Y-113909946D01*
X122000882Y-114180865D01*
X95221000Y-114180865D01*
X95221000Y-105544865D01*
X101553882Y-105544865D01*
X101657339Y-105795252D01*
X101848741Y-105986987D01*
X102098946Y-106090882D01*
X102369865Y-106091118D01*
X102620252Y-105987661D01*
X102811987Y-105796259D01*
X102915882Y-105546054D01*
X102916118Y-105275135D01*
X102812661Y-105024748D01*
X102621259Y-104833013D01*
X102371054Y-104729118D01*
X102100135Y-104728882D01*
X101849748Y-104832339D01*
X101658013Y-105023741D01*
X101554118Y-105273946D01*
X101553882Y-105544865D01*
X95221000Y-105544865D01*
X95221000Y-104355814D01*
X102466059Y-104355814D01*
X102569516Y-104606201D01*
X102760918Y-104797936D01*
X103011123Y-104901831D01*
X103282042Y-104902067D01*
X103532429Y-104798610D01*
X103548201Y-104782865D01*
X122000882Y-104782865D01*
X122104339Y-105033252D01*
X122163420Y-105092436D01*
X122105013Y-105150741D01*
X122001118Y-105400946D01*
X122000882Y-105671865D01*
X122104339Y-105922252D01*
X122163420Y-105981436D01*
X122105013Y-106039741D01*
X122001118Y-106289946D01*
X122000882Y-106560865D01*
X122104339Y-106811252D01*
X122226920Y-106934046D01*
X122105013Y-107055741D01*
X122001118Y-107305946D01*
X122000882Y-107576865D01*
X122104339Y-107827252D01*
X122295741Y-108018987D01*
X122545946Y-108122882D01*
X122816865Y-108123118D01*
X123067252Y-108019661D01*
X123258987Y-107828259D01*
X123362882Y-107578054D01*
X123363118Y-107307135D01*
X123259661Y-107056748D01*
X123137080Y-106933954D01*
X123258987Y-106812259D01*
X123362882Y-106562054D01*
X123363118Y-106291135D01*
X123259661Y-106040748D01*
X123200580Y-105981564D01*
X123258987Y-105923259D01*
X123362882Y-105673054D01*
X123363118Y-105402135D01*
X123259661Y-105151748D01*
X123200580Y-105092564D01*
X123258987Y-105034259D01*
X123362882Y-104784054D01*
X123363118Y-104513135D01*
X123259661Y-104262748D01*
X123068259Y-104071013D01*
X122818054Y-103967118D01*
X122547135Y-103966882D01*
X122296748Y-104070339D01*
X122105013Y-104261741D01*
X122001118Y-104511946D01*
X122000882Y-104782865D01*
X103548201Y-104782865D01*
X103724164Y-104607208D01*
X103828059Y-104357003D01*
X103828295Y-104086084D01*
X103724838Y-103835697D01*
X103533436Y-103643962D01*
X103283231Y-103540067D01*
X103012312Y-103539831D01*
X102761925Y-103643288D01*
X102570190Y-103834690D01*
X102466295Y-104084895D01*
X102466059Y-104355814D01*
X95221000Y-104355814D01*
X95221000Y-103254743D01*
X103384599Y-103254743D01*
X103488056Y-103505130D01*
X103679458Y-103696865D01*
X103929663Y-103800760D01*
X104200582Y-103800996D01*
X104450969Y-103697539D01*
X104642704Y-103506137D01*
X104746599Y-103255932D01*
X104746835Y-102985013D01*
X104643378Y-102734626D01*
X104451976Y-102542891D01*
X104201771Y-102438996D01*
X103930852Y-102438760D01*
X103680465Y-102542217D01*
X103488730Y-102733619D01*
X103384835Y-102983824D01*
X103384599Y-103254743D01*
X95221000Y-103254743D01*
X95221000Y-102150814D01*
X104358433Y-102150814D01*
X104461890Y-102401201D01*
X104653292Y-102592936D01*
X104903497Y-102696831D01*
X105174416Y-102697067D01*
X105424803Y-102593610D01*
X105616538Y-102402208D01*
X105720433Y-102152003D01*
X105720446Y-102137058D01*
X122104480Y-102137058D01*
X122207937Y-102387445D01*
X122399339Y-102579180D01*
X122649544Y-102683075D01*
X122920463Y-102683311D01*
X123170850Y-102579854D01*
X123362585Y-102388452D01*
X123466480Y-102138247D01*
X123466716Y-101867328D01*
X123363259Y-101616941D01*
X123171857Y-101425206D01*
X122921652Y-101321311D01*
X122650733Y-101321075D01*
X122400346Y-101424532D01*
X122208611Y-101615934D01*
X122104716Y-101866139D01*
X122104480Y-102137058D01*
X105720446Y-102137058D01*
X105720669Y-101881084D01*
X105617212Y-101630697D01*
X105463410Y-101476628D01*
X105622481Y-101317833D01*
X105726376Y-101067628D01*
X105726612Y-100796709D01*
X105623155Y-100546322D01*
X105431753Y-100354587D01*
X105181548Y-100250692D01*
X104910629Y-100250456D01*
X104660242Y-100353913D01*
X104468507Y-100545315D01*
X104364612Y-100795520D01*
X104364376Y-101066439D01*
X104467833Y-101316826D01*
X104621635Y-101470895D01*
X104462564Y-101629690D01*
X104358669Y-101879895D01*
X104358433Y-102150814D01*
X95221000Y-102150814D01*
X95221000Y-99829865D01*
X138764882Y-99829865D01*
X138868339Y-100080252D01*
X139059741Y-100271987D01*
X139309946Y-100375882D01*
X139580865Y-100376118D01*
X139831252Y-100272661D01*
X140022987Y-100081259D01*
X140126882Y-99831054D01*
X140127118Y-99560135D01*
X140023661Y-99309748D01*
X139832259Y-99118013D01*
X139582054Y-99014118D01*
X139311135Y-99013882D01*
X139060748Y-99117339D01*
X138869013Y-99308741D01*
X138765118Y-99558946D01*
X138764882Y-99829865D01*
X95221000Y-99829865D01*
X95221000Y-98852574D01*
X122047456Y-98852574D01*
X122150913Y-99102961D01*
X122342315Y-99294696D01*
X122592520Y-99398591D01*
X122863439Y-99398827D01*
X123113826Y-99295370D01*
X123305561Y-99103968D01*
X123409456Y-98853763D01*
X123409692Y-98582844D01*
X123306235Y-98332457D01*
X123114833Y-98140722D01*
X122864628Y-98036827D01*
X122593709Y-98036591D01*
X122343322Y-98140048D01*
X122151587Y-98331450D01*
X122047692Y-98581655D01*
X122047456Y-98852574D01*
X95221000Y-98852574D01*
X95221000Y-96654865D01*
X138764882Y-96654865D01*
X138868339Y-96905252D01*
X139059741Y-97096987D01*
X139309946Y-97200882D01*
X139580865Y-97201118D01*
X139831252Y-97097661D01*
X140022987Y-96906259D01*
X140126882Y-96656054D01*
X140126883Y-96654865D01*
X140415882Y-96654865D01*
X140519339Y-96905252D01*
X140710741Y-97096987D01*
X140960946Y-97200882D01*
X141231865Y-97201118D01*
X141482252Y-97097661D01*
X141673987Y-96906259D01*
X141777882Y-96656054D01*
X141778118Y-96385135D01*
X141674661Y-96134748D01*
X141483259Y-95943013D01*
X141233054Y-95839118D01*
X140962135Y-95838882D01*
X140711748Y-95942339D01*
X140520013Y-96133741D01*
X140416118Y-96383946D01*
X140415882Y-96654865D01*
X140126883Y-96654865D01*
X140127118Y-96385135D01*
X140023661Y-96134748D01*
X139832259Y-95943013D01*
X139582054Y-95839118D01*
X139311135Y-95838882D01*
X139060748Y-95942339D01*
X138869013Y-96133741D01*
X138765118Y-96383946D01*
X138764882Y-96654865D01*
X95221000Y-96654865D01*
X95221000Y-92435039D01*
X101870096Y-92435039D01*
X101887633Y-92517819D01*
X102157500Y-93010896D01*
X102595517Y-93363166D01*
X103135000Y-93521000D01*
X104285000Y-93521000D01*
X104285000Y-92213000D01*
X104539000Y-92213000D01*
X104539000Y-93521000D01*
X105689000Y-93521000D01*
X106228483Y-93363166D01*
X106666500Y-93010896D01*
X106936367Y-92517819D01*
X106953904Y-92435039D01*
X106831915Y-92213000D01*
X104539000Y-92213000D01*
X104285000Y-92213000D01*
X101992085Y-92213000D01*
X101870096Y-92435039D01*
X95221000Y-92435039D01*
X95221000Y-91736961D01*
X101870096Y-91736961D01*
X101992085Y-91959000D01*
X104285000Y-91959000D01*
X104285000Y-90651000D01*
X103135000Y-90651000D01*
X102595517Y-90808834D01*
X102157500Y-91161104D01*
X101887633Y-91654181D01*
X101870096Y-91736961D01*
X95221000Y-91736961D01*
X95221000Y-87636000D01*
X101856883Y-87636000D01*
X101927751Y-87992278D01*
X102129567Y-88294316D01*
X102341611Y-88436000D01*
X102129567Y-88577684D01*
X101927751Y-88879722D01*
X101856883Y-89236000D01*
X101927751Y-89592278D01*
X102129567Y-89894316D01*
X102431605Y-90096132D01*
X102787883Y-90167000D01*
X103436117Y-90167000D01*
X103792395Y-90096132D01*
X104094433Y-89894316D01*
X104296249Y-89592278D01*
X104367117Y-89236000D01*
X104296249Y-88879722D01*
X104094433Y-88577684D01*
X103882389Y-88436000D01*
X104094433Y-88294316D01*
X104296249Y-87992278D01*
X104367117Y-87636000D01*
X104296249Y-87279722D01*
X104206728Y-87145744D01*
X104268197Y-87145744D01*
X104268602Y-87172146D01*
X104484276Y-87584118D01*
X104724725Y-87784931D01*
X104527751Y-88079722D01*
X104456883Y-88436000D01*
X104527751Y-88792278D01*
X104729567Y-89094316D01*
X104762427Y-89116272D01*
X104720810Y-89124103D01*
X104591135Y-89207546D01*
X104504141Y-89334866D01*
X104473536Y-89486000D01*
X104473536Y-90586000D01*
X104500103Y-90727190D01*
X104539000Y-90787638D01*
X104539000Y-91959000D01*
X106831915Y-91959000D01*
X106953904Y-91736961D01*
X106936367Y-91654181D01*
X106858203Y-91511365D01*
X110507382Y-91511365D01*
X110610839Y-91761752D01*
X110802241Y-91953487D01*
X111052446Y-92057382D01*
X111323365Y-92057618D01*
X111573752Y-91954161D01*
X111765487Y-91762759D01*
X111869382Y-91512554D01*
X111869618Y-91241635D01*
X111766161Y-90991248D01*
X111574759Y-90799513D01*
X111324554Y-90695618D01*
X111053635Y-90695382D01*
X110803248Y-90798839D01*
X110611513Y-90990241D01*
X110507618Y-91240446D01*
X110507382Y-91511365D01*
X106858203Y-91511365D01*
X106666500Y-91161104D01*
X106434429Y-90974464D01*
X106562000Y-90974464D01*
X106703190Y-90947897D01*
X106832865Y-90864454D01*
X106919859Y-90737134D01*
X106950464Y-90586000D01*
X106950464Y-90168758D01*
X115458344Y-90168758D01*
X115561801Y-90419145D01*
X115753203Y-90610880D01*
X116003408Y-90714775D01*
X116274327Y-90715011D01*
X116524714Y-90611554D01*
X116716449Y-90420152D01*
X116820344Y-90169947D01*
X116820580Y-89899028D01*
X116717123Y-89648641D01*
X116525721Y-89456906D01*
X116275516Y-89353011D01*
X116004597Y-89352775D01*
X115754210Y-89456232D01*
X115562475Y-89647634D01*
X115458580Y-89897839D01*
X115458344Y-90168758D01*
X106950464Y-90168758D01*
X106950464Y-89486000D01*
X106923897Y-89344810D01*
X106840454Y-89215135D01*
X106713134Y-89128141D01*
X106659934Y-89117368D01*
X106694433Y-89094316D01*
X106896249Y-88792278D01*
X106967117Y-88436000D01*
X106896249Y-88079722D01*
X106699275Y-87784931D01*
X106939724Y-87584118D01*
X107155398Y-87172146D01*
X107155803Y-87145744D01*
X107030361Y-86963000D01*
X105839000Y-86963000D01*
X105839000Y-86983000D01*
X105585000Y-86983000D01*
X105585000Y-86963000D01*
X104393639Y-86963000D01*
X104268197Y-87145744D01*
X104206728Y-87145744D01*
X104094433Y-86977684D01*
X103792395Y-86775868D01*
X103436117Y-86705000D01*
X102787883Y-86705000D01*
X102431605Y-86775868D01*
X102129567Y-86977684D01*
X101927751Y-87279722D01*
X101856883Y-87636000D01*
X95221000Y-87636000D01*
X95221000Y-86526256D01*
X104268197Y-86526256D01*
X104393639Y-86709000D01*
X105585000Y-86709000D01*
X105585000Y-86689000D01*
X105839000Y-86689000D01*
X105839000Y-86709000D01*
X107030361Y-86709000D01*
X107090173Y-86621865D01*
X136986882Y-86621865D01*
X137090339Y-86872252D01*
X137281741Y-87063987D01*
X137531946Y-87167882D01*
X137802865Y-87168118D01*
X138053252Y-87064661D01*
X138244987Y-86873259D01*
X138348882Y-86623054D01*
X138349077Y-86399000D01*
X145573536Y-86399000D01*
X145573536Y-88099000D01*
X145600103Y-88240190D01*
X145683546Y-88369865D01*
X145810866Y-88456859D01*
X145962000Y-88487464D01*
X147662000Y-88487464D01*
X147803190Y-88460897D01*
X147932865Y-88377454D01*
X148019859Y-88250134D01*
X148050464Y-88099000D01*
X148050464Y-87224883D01*
X148121000Y-87224883D01*
X148121000Y-87273117D01*
X148214704Y-87744200D01*
X148481552Y-88143565D01*
X148880917Y-88410413D01*
X149352000Y-88504117D01*
X149823083Y-88410413D01*
X150140980Y-88198000D01*
X154209000Y-88198000D01*
X154209000Y-99053356D01*
X154264644Y-99333098D01*
X154415551Y-99558946D01*
X154423105Y-99570251D01*
X159793909Y-104941055D01*
X159793909Y-108498082D01*
X157193105Y-111098886D01*
X157034644Y-111336039D01*
X156979000Y-111615781D01*
X156979000Y-124628527D01*
X156705201Y-124811473D01*
X156397167Y-125272479D01*
X156289000Y-125816272D01*
X156289000Y-127421728D01*
X156397167Y-127965521D01*
X156705201Y-128426527D01*
X157166207Y-128734561D01*
X157710000Y-128842728D01*
X158253793Y-128734561D01*
X158714799Y-128426527D01*
X159022833Y-127965521D01*
X159131000Y-127421728D01*
X159131000Y-125816272D01*
X159022833Y-125272479D01*
X158714799Y-124811473D01*
X158441000Y-124628527D01*
X158441000Y-111918571D01*
X161041804Y-109317767D01*
X161200265Y-109080614D01*
X161255909Y-108800872D01*
X161255909Y-104638265D01*
X161200265Y-104358523D01*
X161041804Y-104121370D01*
X155671000Y-98750566D01*
X155671000Y-90116038D01*
X158703027Y-90116038D01*
X158806484Y-90366425D01*
X158903145Y-90463254D01*
X158903145Y-95629147D01*
X158912623Y-95676794D01*
X158939759Y-95813218D01*
X159044027Y-95969265D01*
X163617880Y-100543118D01*
X163773927Y-100647386D01*
X163957998Y-100684000D01*
X170173866Y-100684000D01*
X169955324Y-100774299D01*
X169763589Y-100965701D01*
X169659694Y-101215906D01*
X169659458Y-101486825D01*
X169762915Y-101737212D01*
X169954317Y-101928947D01*
X170204522Y-102032842D01*
X170475441Y-102033078D01*
X170725828Y-101929621D01*
X170917563Y-101738219D01*
X171021458Y-101488014D01*
X171021694Y-101217095D01*
X170918237Y-100966708D01*
X170726835Y-100774973D01*
X170507749Y-100684000D01*
X189255921Y-100684000D01*
X189351741Y-100779987D01*
X189601946Y-100883882D01*
X189872865Y-100884118D01*
X190123252Y-100780661D01*
X190314987Y-100589259D01*
X190418882Y-100339054D01*
X190419118Y-100068135D01*
X190315661Y-99817748D01*
X190124259Y-99626013D01*
X189874054Y-99522118D01*
X189603135Y-99521882D01*
X189352748Y-99625339D01*
X189255919Y-99722000D01*
X164157234Y-99722000D01*
X161029385Y-96594151D01*
X161040252Y-96589661D01*
X161231987Y-96398259D01*
X161319717Y-96186984D01*
X161353983Y-96238267D01*
X162589632Y-97473917D01*
X162794343Y-97610700D01*
X163035816Y-97658732D01*
X181338549Y-97658732D01*
X181580022Y-97610700D01*
X181585724Y-97606890D01*
X184788524Y-97606890D01*
X184958355Y-98016924D01*
X185348642Y-98445183D01*
X185873108Y-98691486D01*
X186103000Y-98570819D01*
X186103000Y-97377000D01*
X186357000Y-97377000D01*
X186357000Y-98570819D01*
X186586892Y-98691486D01*
X187111358Y-98445183D01*
X187501645Y-98016924D01*
X187671476Y-97606890D01*
X187550155Y-97377000D01*
X186357000Y-97377000D01*
X186103000Y-97377000D01*
X184909845Y-97377000D01*
X184788524Y-97606890D01*
X181585724Y-97606890D01*
X181784733Y-97473916D01*
X185166966Y-94091683D01*
X185068587Y-94238917D01*
X184974883Y-94710000D01*
X185068587Y-95181083D01*
X185335435Y-95580448D01*
X185734800Y-95847296D01*
X185773947Y-95855083D01*
X185348642Y-96054817D01*
X184958355Y-96483076D01*
X184788524Y-96893110D01*
X184909845Y-97123000D01*
X186103000Y-97123000D01*
X186103000Y-97103000D01*
X186357000Y-97103000D01*
X186357000Y-97123000D01*
X187550155Y-97123000D01*
X187671476Y-96893110D01*
X187501645Y-96483076D01*
X187111358Y-96054817D01*
X186686053Y-95855083D01*
X186725200Y-95847296D01*
X187124565Y-95580448D01*
X187391413Y-95181083D01*
X187485117Y-94710000D01*
X187391413Y-94238917D01*
X187124565Y-93839552D01*
X186725200Y-93572704D01*
X186254117Y-93479000D01*
X186205883Y-93479000D01*
X185734800Y-93572704D01*
X185587566Y-93671083D01*
X185915425Y-93343224D01*
X186205883Y-93401000D01*
X186254117Y-93401000D01*
X186725200Y-93307296D01*
X187124565Y-93040448D01*
X187391413Y-92641083D01*
X187485117Y-92170000D01*
X187391413Y-91698917D01*
X187124565Y-91299552D01*
X186725200Y-91032704D01*
X186254117Y-90939000D01*
X186205883Y-90939000D01*
X185734800Y-91032704D01*
X185557504Y-91151170D01*
X185907104Y-90801569D01*
X186205883Y-90861000D01*
X186254117Y-90861000D01*
X186725200Y-90767296D01*
X187124565Y-90500448D01*
X187391413Y-90101083D01*
X187485117Y-89630000D01*
X187391413Y-89158917D01*
X187124565Y-88759552D01*
X186725200Y-88492704D01*
X186254117Y-88399000D01*
X186205883Y-88399000D01*
X185734800Y-88492704D01*
X185335435Y-88759552D01*
X185068587Y-89158917D01*
X184974883Y-89630000D01*
X185027817Y-89896119D01*
X180559025Y-94364912D01*
X163578361Y-94364912D01*
X163458233Y-94315030D01*
X163187314Y-94314794D01*
X162936927Y-94418251D01*
X162745192Y-94609653D01*
X162641297Y-94859858D01*
X162641061Y-95130777D01*
X162744518Y-95381164D01*
X162935920Y-95572899D01*
X163186125Y-95676794D01*
X163457044Y-95677030D01*
X163578340Y-95626912D01*
X168967527Y-95626912D01*
X168864118Y-95875946D01*
X168863882Y-96146865D01*
X168967124Y-96396732D01*
X163297185Y-96396732D01*
X162431167Y-95530715D01*
X162431167Y-94744756D01*
X162481049Y-94624628D01*
X162481285Y-94353709D01*
X162377828Y-94103322D01*
X162186426Y-93911587D01*
X161936221Y-93807692D01*
X161665302Y-93807456D01*
X161414915Y-93910913D01*
X161223180Y-94102315D01*
X161119285Y-94352520D01*
X161119049Y-94623439D01*
X161169167Y-94744735D01*
X161169167Y-95563144D01*
X161041259Y-95435013D01*
X160791054Y-95331118D01*
X160520135Y-95330882D01*
X160269748Y-95434339D01*
X160078013Y-95625741D01*
X160073014Y-95637780D01*
X159865145Y-95429911D01*
X159865145Y-93606865D01*
X167720882Y-93606865D01*
X167824339Y-93857252D01*
X168015741Y-94048987D01*
X168265946Y-94152882D01*
X168536865Y-94153118D01*
X168659758Y-94102340D01*
X176901669Y-94102340D01*
X177143142Y-94054308D01*
X177347853Y-93917524D01*
X181574376Y-89691002D01*
X181711159Y-89486291D01*
X181759191Y-89244818D01*
X181759191Y-87540141D01*
X183080326Y-87540141D01*
X183183783Y-87790528D01*
X183375185Y-87982263D01*
X183625390Y-88086158D01*
X183896309Y-88086394D01*
X184146696Y-87982937D01*
X184338431Y-87791535D01*
X184442326Y-87541330D01*
X184442562Y-87270411D01*
X184339105Y-87020024D01*
X184147703Y-86828289D01*
X183897498Y-86724394D01*
X183626579Y-86724158D01*
X183376192Y-86827615D01*
X183184457Y-87019017D01*
X183080562Y-87269222D01*
X183080326Y-87540141D01*
X181759191Y-87540141D01*
X181759191Y-86240000D01*
X184991536Y-86240000D01*
X184991536Y-87940000D01*
X185018103Y-88081190D01*
X185101546Y-88210865D01*
X185228866Y-88297859D01*
X185380000Y-88328464D01*
X187080000Y-88328464D01*
X187221190Y-88301897D01*
X187350865Y-88218454D01*
X187437859Y-88091134D01*
X187468464Y-87940000D01*
X187468464Y-86240000D01*
X187441897Y-86098810D01*
X187358454Y-85969135D01*
X187231134Y-85882141D01*
X187080000Y-85851536D01*
X185380000Y-85851536D01*
X185238810Y-85878103D01*
X185109135Y-85961546D01*
X185022141Y-86088866D01*
X184991536Y-86240000D01*
X181759191Y-86240000D01*
X181759191Y-83519572D01*
X187408414Y-83519572D01*
X187922056Y-84762681D01*
X188872317Y-85714601D01*
X190114527Y-86230412D01*
X191459572Y-86231586D01*
X192702681Y-85717944D01*
X193654601Y-84767683D01*
X194170412Y-83525473D01*
X194171586Y-82180428D01*
X193657944Y-80937319D01*
X192707683Y-79985399D01*
X191465473Y-79469588D01*
X190120428Y-79468414D01*
X188877319Y-79982056D01*
X187925399Y-80932317D01*
X187409588Y-82174527D01*
X187408414Y-83519572D01*
X181759191Y-83519572D01*
X181759191Y-81809132D01*
X182020448Y-81634565D01*
X182287296Y-81235200D01*
X182295083Y-81196053D01*
X182494817Y-81621358D01*
X182923076Y-82011645D01*
X183333110Y-82181476D01*
X183563000Y-82060155D01*
X183563000Y-80867000D01*
X183817000Y-80867000D01*
X183817000Y-82060155D01*
X184046890Y-82181476D01*
X184456924Y-82011645D01*
X184885183Y-81621358D01*
X185131486Y-81096892D01*
X185010819Y-80867000D01*
X183817000Y-80867000D01*
X183563000Y-80867000D01*
X183543000Y-80867000D01*
X183543000Y-80613000D01*
X183563000Y-80613000D01*
X183563000Y-79419845D01*
X183817000Y-79419845D01*
X183817000Y-80613000D01*
X185010819Y-80613000D01*
X185131486Y-80383108D01*
X184885183Y-79858642D01*
X184456924Y-79468355D01*
X184046890Y-79298524D01*
X183817000Y-79419845D01*
X183563000Y-79419845D01*
X183333110Y-79298524D01*
X182923076Y-79468355D01*
X182494817Y-79858642D01*
X182295083Y-80283947D01*
X182287296Y-80244800D01*
X182020448Y-79845435D01*
X181621083Y-79578587D01*
X181150000Y-79484883D01*
X180678917Y-79578587D01*
X180279552Y-79845435D01*
X180012704Y-80244800D01*
X179919000Y-80715883D01*
X179919000Y-80764117D01*
X180012704Y-81235200D01*
X180279552Y-81634565D01*
X180497191Y-81779987D01*
X180497191Y-88983449D01*
X176640301Y-92840340D01*
X168656593Y-92840340D01*
X168538054Y-92791118D01*
X168267135Y-92790882D01*
X168016748Y-92894339D01*
X167825013Y-93085741D01*
X167721118Y-93335946D01*
X167720882Y-93606865D01*
X159865145Y-93606865D01*
X159865145Y-92209865D01*
X173181882Y-92209865D01*
X173285339Y-92460252D01*
X173476741Y-92651987D01*
X173726946Y-92755882D01*
X173997865Y-92756118D01*
X174248252Y-92652661D01*
X174439987Y-92461259D01*
X174543882Y-92211054D01*
X174544118Y-91940135D01*
X174440661Y-91689748D01*
X174249259Y-91498013D01*
X173999054Y-91394118D01*
X173728135Y-91393882D01*
X173477748Y-91497339D01*
X173286013Y-91688741D01*
X173182118Y-91938946D01*
X173181882Y-92209865D01*
X159865145Y-92209865D01*
X159865145Y-90463252D01*
X159896586Y-90431865D01*
X173181882Y-90431865D01*
X173285339Y-90682252D01*
X173476741Y-90873987D01*
X173726946Y-90977882D01*
X173997865Y-90978118D01*
X174248252Y-90874661D01*
X174439987Y-90683259D01*
X174543882Y-90433054D01*
X174544118Y-90162135D01*
X174440661Y-89911748D01*
X174249259Y-89720013D01*
X173999054Y-89616118D01*
X173728135Y-89615882D01*
X173477748Y-89719339D01*
X173286013Y-89910741D01*
X173182118Y-90160946D01*
X173181882Y-90431865D01*
X159896586Y-90431865D01*
X159961132Y-90367432D01*
X160065027Y-90117227D01*
X160065263Y-89846308D01*
X159961806Y-89595921D01*
X159770404Y-89404186D01*
X159711833Y-89379865D01*
X164636882Y-89379865D01*
X164740339Y-89630252D01*
X164931741Y-89821987D01*
X165181946Y-89925882D01*
X165452865Y-89926118D01*
X165703252Y-89822661D01*
X165894987Y-89631259D01*
X165998882Y-89381054D01*
X165999118Y-89110135D01*
X165895661Y-88859748D01*
X165704259Y-88668013D01*
X165670188Y-88653865D01*
X173181882Y-88653865D01*
X173285339Y-88904252D01*
X173476741Y-89095987D01*
X173726946Y-89199882D01*
X173997865Y-89200118D01*
X174248252Y-89096661D01*
X174439987Y-88905259D01*
X174525028Y-88700458D01*
X178092174Y-88700458D01*
X178195631Y-88950845D01*
X178387033Y-89142580D01*
X178637238Y-89246475D01*
X178908157Y-89246711D01*
X179158544Y-89143254D01*
X179350279Y-88951852D01*
X179454174Y-88701647D01*
X179454410Y-88430728D01*
X179350953Y-88180341D01*
X179159551Y-87988606D01*
X178909346Y-87884711D01*
X178638427Y-87884475D01*
X178388040Y-87987932D01*
X178196305Y-88179334D01*
X178092410Y-88429539D01*
X178092174Y-88700458D01*
X174525028Y-88700458D01*
X174543882Y-88655054D01*
X174544118Y-88384135D01*
X174440661Y-88133748D01*
X174249259Y-87942013D01*
X173999054Y-87838118D01*
X173728135Y-87837882D01*
X173477748Y-87941339D01*
X173286013Y-88132741D01*
X173182118Y-88382946D01*
X173181882Y-88653865D01*
X165670188Y-88653865D01*
X165454054Y-88564118D01*
X165183135Y-88563882D01*
X164932748Y-88667339D01*
X164741013Y-88858741D01*
X164637118Y-89108946D01*
X164636882Y-89379865D01*
X159711833Y-89379865D01*
X159520199Y-89300291D01*
X159249280Y-89300055D01*
X158998893Y-89403512D01*
X158807158Y-89594914D01*
X158703263Y-89845119D01*
X158703027Y-90116038D01*
X155671000Y-90116038D01*
X155671000Y-88198000D01*
X155615356Y-87918258D01*
X155456895Y-87681105D01*
X155219742Y-87522644D01*
X154940000Y-87467000D01*
X154660258Y-87522644D01*
X154423105Y-87681105D01*
X154264644Y-87918258D01*
X154209000Y-88198000D01*
X150140980Y-88198000D01*
X150222448Y-88143565D01*
X150489296Y-87744200D01*
X150560970Y-87383865D01*
X159973882Y-87383865D01*
X160077339Y-87634252D01*
X160268741Y-87825987D01*
X160518946Y-87929882D01*
X160789865Y-87930118D01*
X161040252Y-87826661D01*
X161231987Y-87635259D01*
X161335882Y-87385054D01*
X161336118Y-87114135D01*
X161237668Y-86875865D01*
X173181882Y-86875865D01*
X173285339Y-87126252D01*
X173476741Y-87317987D01*
X173726946Y-87421882D01*
X173997865Y-87422118D01*
X174248252Y-87318661D01*
X174439987Y-87127259D01*
X174543882Y-86877054D01*
X174544118Y-86606135D01*
X174440661Y-86355748D01*
X174249259Y-86164013D01*
X173999054Y-86060118D01*
X173728135Y-86059882D01*
X173477748Y-86163339D01*
X173286013Y-86354741D01*
X173182118Y-86604946D01*
X173181882Y-86875865D01*
X161237668Y-86875865D01*
X161232661Y-86863748D01*
X161041259Y-86672013D01*
X160791054Y-86568118D01*
X160520135Y-86567882D01*
X160269748Y-86671339D01*
X160078013Y-86862741D01*
X159974118Y-87112946D01*
X159973882Y-87383865D01*
X150560970Y-87383865D01*
X150583000Y-87273117D01*
X150583000Y-87224883D01*
X150489296Y-86753800D01*
X150222448Y-86354435D01*
X149823083Y-86087587D01*
X149352000Y-85993883D01*
X148880917Y-86087587D01*
X148481552Y-86354435D01*
X148214704Y-86753800D01*
X148121000Y-87224883D01*
X148050464Y-87224883D01*
X148050464Y-86399000D01*
X148023897Y-86257810D01*
X147940454Y-86128135D01*
X147813134Y-86041141D01*
X147662000Y-86010536D01*
X145962000Y-86010536D01*
X145820810Y-86037103D01*
X145691135Y-86120546D01*
X145604141Y-86247866D01*
X145573536Y-86399000D01*
X138349077Y-86399000D01*
X138349118Y-86352135D01*
X138245661Y-86101748D01*
X138130978Y-85986865D01*
X165688882Y-85986865D01*
X165792339Y-86237252D01*
X165983741Y-86428987D01*
X166233946Y-86532882D01*
X166504865Y-86533118D01*
X166755252Y-86429661D01*
X166946987Y-86238259D01*
X167050882Y-85988054D01*
X167051118Y-85717135D01*
X166947661Y-85466748D01*
X166756259Y-85275013D01*
X166506054Y-85171118D01*
X166235135Y-85170882D01*
X165984748Y-85274339D01*
X165793013Y-85465741D01*
X165689118Y-85715946D01*
X165688882Y-85986865D01*
X138130978Y-85986865D01*
X138054259Y-85910013D01*
X137804054Y-85806118D01*
X137533135Y-85805882D01*
X137282748Y-85909339D01*
X137091013Y-86100741D01*
X136987118Y-86350946D01*
X136986882Y-86621865D01*
X107090173Y-86621865D01*
X107155803Y-86526256D01*
X107155398Y-86499854D01*
X106939724Y-86087882D01*
X106582813Y-85789804D01*
X106572425Y-85786555D01*
X106666500Y-85710896D01*
X106936367Y-85217819D01*
X106953904Y-85135039D01*
X106933481Y-85097865D01*
X173181882Y-85097865D01*
X173285339Y-85348252D01*
X173476741Y-85539987D01*
X173726946Y-85643882D01*
X173997865Y-85644118D01*
X174248252Y-85540661D01*
X174439987Y-85349259D01*
X174543882Y-85099054D01*
X174544118Y-84828135D01*
X174440661Y-84577748D01*
X174249259Y-84386013D01*
X173999054Y-84282118D01*
X173728135Y-84281882D01*
X173477748Y-84385339D01*
X173286013Y-84576741D01*
X173182118Y-84826946D01*
X173181882Y-85097865D01*
X106933481Y-85097865D01*
X106831915Y-84913000D01*
X104539000Y-84913000D01*
X104539000Y-86042179D01*
X104484276Y-86087882D01*
X104268602Y-86499854D01*
X104268197Y-86526256D01*
X95221000Y-86526256D01*
X95221000Y-83519572D01*
X95408414Y-83519572D01*
X95922056Y-84762681D01*
X96872317Y-85714601D01*
X98114527Y-86230412D01*
X99459572Y-86231586D01*
X100702681Y-85717944D01*
X101286603Y-85135039D01*
X101870096Y-85135039D01*
X101887633Y-85217819D01*
X102157500Y-85710896D01*
X102595517Y-86063166D01*
X103135000Y-86221000D01*
X104285000Y-86221000D01*
X104285000Y-84913000D01*
X101992085Y-84913000D01*
X101870096Y-85135039D01*
X101286603Y-85135039D01*
X101654601Y-84767683D01*
X101791928Y-84436961D01*
X101870096Y-84436961D01*
X101992085Y-84659000D01*
X104285000Y-84659000D01*
X104285000Y-83351000D01*
X104539000Y-83351000D01*
X104539000Y-84659000D01*
X106831915Y-84659000D01*
X106953904Y-84436961D01*
X106936367Y-84354181D01*
X106856834Y-84208865D01*
X131906882Y-84208865D01*
X132010339Y-84459252D01*
X132201741Y-84650987D01*
X132451946Y-84754882D01*
X132722865Y-84755118D01*
X132973252Y-84651661D01*
X133164987Y-84460259D01*
X133268882Y-84210054D01*
X133268883Y-84208865D01*
X134446882Y-84208865D01*
X134550339Y-84459252D01*
X134741741Y-84650987D01*
X134991946Y-84754882D01*
X135262865Y-84755118D01*
X135513252Y-84651661D01*
X135704987Y-84460259D01*
X135808882Y-84210054D01*
X135808883Y-84208865D01*
X136986882Y-84208865D01*
X137090339Y-84459252D01*
X137281741Y-84650987D01*
X137531946Y-84754882D01*
X137802865Y-84755118D01*
X138053252Y-84651661D01*
X138244987Y-84460259D01*
X138348882Y-84210054D01*
X138349118Y-83939135D01*
X138245661Y-83688748D01*
X138054259Y-83497013D01*
X137804054Y-83393118D01*
X137533135Y-83392882D01*
X137282748Y-83496339D01*
X137091013Y-83687741D01*
X136987118Y-83937946D01*
X136986882Y-84208865D01*
X135808883Y-84208865D01*
X135809118Y-83939135D01*
X135705661Y-83688748D01*
X135514259Y-83497013D01*
X135264054Y-83393118D01*
X134993135Y-83392882D01*
X134742748Y-83496339D01*
X134551013Y-83687741D01*
X134447118Y-83937946D01*
X134446882Y-84208865D01*
X133268883Y-84208865D01*
X133269118Y-83939135D01*
X133165661Y-83688748D01*
X132974259Y-83497013D01*
X132724054Y-83393118D01*
X132453135Y-83392882D01*
X132202748Y-83496339D01*
X132011013Y-83687741D01*
X131907118Y-83937946D01*
X131906882Y-84208865D01*
X106856834Y-84208865D01*
X106666500Y-83861104D01*
X106228483Y-83508834D01*
X105689000Y-83351000D01*
X104539000Y-83351000D01*
X104285000Y-83351000D01*
X103135000Y-83351000D01*
X102595517Y-83508834D01*
X102157500Y-83861104D01*
X101887633Y-84354181D01*
X101870096Y-84436961D01*
X101791928Y-84436961D01*
X102170412Y-83525473D01*
X102171586Y-82180428D01*
X102120638Y-82057122D01*
X142963825Y-82057122D01*
X143178466Y-82575332D01*
X143640608Y-83070012D01*
X144256877Y-83350183D01*
X144526000Y-83232604D01*
X144526000Y-81788000D01*
X144780000Y-81788000D01*
X144780000Y-83232604D01*
X145049123Y-83350183D01*
X145665392Y-83070012D01*
X146127534Y-82575332D01*
X146342175Y-82057122D01*
X146224125Y-81788000D01*
X144780000Y-81788000D01*
X144526000Y-81788000D01*
X143081875Y-81788000D01*
X142963825Y-82057122D01*
X102120638Y-82057122D01*
X101793289Y-81264878D01*
X142963825Y-81264878D01*
X143081875Y-81534000D01*
X144526000Y-81534000D01*
X144526000Y-80089396D01*
X144780000Y-80089396D01*
X144780000Y-81534000D01*
X146224125Y-81534000D01*
X146342175Y-81264878D01*
X146127534Y-80746668D01*
X145954079Y-80561000D01*
X153324536Y-80561000D01*
X153324536Y-82761000D01*
X153351103Y-82902190D01*
X153434546Y-83031865D01*
X153561866Y-83118859D01*
X153713000Y-83149464D01*
X155913000Y-83149464D01*
X156054190Y-83122897D01*
X156183865Y-83039454D01*
X156270859Y-82912134D01*
X156301464Y-82761000D01*
X156301464Y-82049865D01*
X166958882Y-82049865D01*
X167062339Y-82300252D01*
X167253741Y-82491987D01*
X167503946Y-82595882D01*
X167774865Y-82596118D01*
X168025252Y-82492661D01*
X168216987Y-82301259D01*
X168320882Y-82051054D01*
X168321118Y-81780135D01*
X168217661Y-81529748D01*
X168026259Y-81338013D01*
X167776054Y-81234118D01*
X167505135Y-81233882D01*
X167254748Y-81337339D01*
X167063013Y-81528741D01*
X166959118Y-81778946D01*
X166958882Y-82049865D01*
X156301464Y-82049865D01*
X156301464Y-80561000D01*
X156274897Y-80419810D01*
X156191454Y-80290135D01*
X156064134Y-80203141D01*
X155913000Y-80172536D01*
X153713000Y-80172536D01*
X153571810Y-80199103D01*
X153442135Y-80282546D01*
X153355141Y-80409866D01*
X153324536Y-80561000D01*
X145954079Y-80561000D01*
X145665392Y-80251988D01*
X145049123Y-79971817D01*
X144780000Y-80089396D01*
X144526000Y-80089396D01*
X144256877Y-79971817D01*
X143640608Y-80251988D01*
X143178466Y-80746668D01*
X142963825Y-81264878D01*
X101793289Y-81264878D01*
X101657944Y-80937319D01*
X100707683Y-79985399D01*
X100477937Y-79890000D01*
X177371536Y-79890000D01*
X177371536Y-81590000D01*
X177398103Y-81731190D01*
X177481546Y-81860865D01*
X177608866Y-81947859D01*
X177760000Y-81978464D01*
X179460000Y-81978464D01*
X179601190Y-81951897D01*
X179730865Y-81868454D01*
X179817859Y-81741134D01*
X179848464Y-81590000D01*
X179848464Y-79890000D01*
X179821897Y-79748810D01*
X179738454Y-79619135D01*
X179611134Y-79532141D01*
X179460000Y-79501536D01*
X177760000Y-79501536D01*
X177618810Y-79528103D01*
X177489135Y-79611546D01*
X177402141Y-79738866D01*
X177371536Y-79890000D01*
X100477937Y-79890000D01*
X99465473Y-79469588D01*
X98120428Y-79468414D01*
X96877319Y-79982056D01*
X95925399Y-80932317D01*
X95409588Y-82174527D01*
X95408414Y-83519572D01*
X95221000Y-83519572D01*
X95221000Y-78781000D01*
X194359000Y-78781000D01*
X194359000Y-106723000D01*
X194359000Y-106723000D01*
G37*
X194359000Y-106723000D02*
X170290000Y-106723000D01*
X170240590Y-106733006D01*
X170200197Y-106760197D01*
X164511064Y-112449330D01*
X164511118Y-112387135D01*
X164407661Y-112136748D01*
X164216259Y-111945013D01*
X163966054Y-111841118D01*
X163695135Y-111840882D01*
X163444748Y-111944339D01*
X163253013Y-112135741D01*
X163149118Y-112385946D01*
X163148882Y-112656865D01*
X163252339Y-112907252D01*
X163443741Y-113098987D01*
X163693946Y-113202882D01*
X163757457Y-113202937D01*
X160700197Y-116260197D01*
X160672334Y-116302211D01*
X160663000Y-116350000D01*
X160663000Y-129350000D01*
X160673006Y-129399410D01*
X160701447Y-129441035D01*
X160743841Y-129468315D01*
X160790000Y-129477000D01*
X186790000Y-129477000D01*
X186839410Y-129466994D01*
X186881035Y-129438553D01*
X186908315Y-129396159D01*
X186917000Y-129350000D01*
X186917000Y-122402606D01*
X190842606Y-118477000D01*
X194359000Y-118477000D01*
X194359000Y-134919000D01*
X95221000Y-134919000D01*
X95221000Y-131519572D01*
X95408414Y-131519572D01*
X95922056Y-132762681D01*
X96872317Y-133714601D01*
X98114527Y-134230412D01*
X99459572Y-134231586D01*
X100702681Y-133717944D01*
X101654601Y-132767683D01*
X102170412Y-131525473D01*
X102170417Y-131519572D01*
X187408414Y-131519572D01*
X187922056Y-132762681D01*
X188872317Y-133714601D01*
X190114527Y-134230412D01*
X191459572Y-134231586D01*
X192702681Y-133717944D01*
X193654601Y-132767683D01*
X194170412Y-131525473D01*
X194171586Y-130180428D01*
X193657944Y-128937319D01*
X192707683Y-127985399D01*
X191465473Y-127469588D01*
X190120428Y-127468414D01*
X188877319Y-127982056D01*
X187925399Y-128932317D01*
X187409588Y-130174527D01*
X187408414Y-131519572D01*
X102170417Y-131519572D01*
X102171586Y-130180428D01*
X102053733Y-129895200D01*
X104415405Y-129895200D01*
X104450692Y-130108768D01*
X104873564Y-130249149D01*
X105317968Y-130217018D01*
X105579308Y-130108768D01*
X105614595Y-129895200D01*
X113175405Y-129895200D01*
X113210692Y-130108768D01*
X113633564Y-130249149D01*
X114077968Y-130217018D01*
X114339308Y-130108768D01*
X114374595Y-129895200D01*
X113775000Y-129295605D01*
X113175405Y-129895200D01*
X105614595Y-129895200D01*
X105015000Y-129295605D01*
X104415405Y-129895200D01*
X102053733Y-129895200D01*
X101673334Y-128974564D01*
X103881851Y-128974564D01*
X103913982Y-129418968D01*
X104022232Y-129680308D01*
X104235800Y-129715595D01*
X104835395Y-129116000D01*
X105194605Y-129116000D01*
X105794200Y-129715595D01*
X106007768Y-129680308D01*
X106148149Y-129257436D01*
X106127697Y-128974564D01*
X112641851Y-128974564D01*
X112673982Y-129418968D01*
X112782232Y-129680308D01*
X112995800Y-129715595D01*
X113595395Y-129116000D01*
X113954605Y-129116000D01*
X114554200Y-129715595D01*
X114767768Y-129680308D01*
X114908149Y-129257436D01*
X114876018Y-128813032D01*
X114767768Y-128551692D01*
X114554200Y-128516405D01*
X113954605Y-129116000D01*
X113595395Y-129116000D01*
X112995800Y-128516405D01*
X112782232Y-128551692D01*
X112641851Y-128974564D01*
X106127697Y-128974564D01*
X106116018Y-128813032D01*
X106007768Y-128551692D01*
X105794200Y-128516405D01*
X105194605Y-129116000D01*
X104835395Y-129116000D01*
X104235800Y-128516405D01*
X104022232Y-128551692D01*
X103881851Y-128974564D01*
X101673334Y-128974564D01*
X101657944Y-128937319D01*
X101058472Y-128336800D01*
X104415405Y-128336800D01*
X105015000Y-128936395D01*
X105614595Y-128336800D01*
X113175405Y-128336800D01*
X113775000Y-128936395D01*
X114374595Y-128336800D01*
X114339308Y-128123232D01*
X113916436Y-127982851D01*
X113472032Y-128014982D01*
X113210692Y-128123232D01*
X113175405Y-128336800D01*
X105614595Y-128336800D01*
X105579308Y-128123232D01*
X105156436Y-127982851D01*
X104712032Y-128014982D01*
X104450692Y-128123232D01*
X104415405Y-128336800D01*
X101058472Y-128336800D01*
X100707683Y-127985399D01*
X99465473Y-127469588D01*
X98120428Y-127468414D01*
X96877319Y-127982056D01*
X95925399Y-128932317D01*
X95409588Y-130174527D01*
X95408414Y-131519572D01*
X95221000Y-131519572D01*
X95221000Y-124819000D01*
X135961536Y-124819000D01*
X135961536Y-128419000D01*
X135988103Y-128560190D01*
X136071546Y-128689865D01*
X136198866Y-128776859D01*
X136350000Y-128807464D01*
X138430000Y-128807464D01*
X138571190Y-128780897D01*
X138700865Y-128697454D01*
X138787859Y-128570134D01*
X138818464Y-128419000D01*
X138818464Y-125816272D01*
X141049000Y-125816272D01*
X141049000Y-127421728D01*
X141157167Y-127965521D01*
X141465201Y-128426527D01*
X141926207Y-128734561D01*
X142470000Y-128842728D01*
X143013793Y-128734561D01*
X143474799Y-128426527D01*
X143782833Y-127965521D01*
X143891000Y-127421728D01*
X143891000Y-125816272D01*
X146129000Y-125816272D01*
X146129000Y-127421728D01*
X146237167Y-127965521D01*
X146545201Y-128426527D01*
X147006207Y-128734561D01*
X147550000Y-128842728D01*
X148093793Y-128734561D01*
X148554799Y-128426527D01*
X148862833Y-127965521D01*
X148971000Y-127421728D01*
X148971000Y-126746000D01*
X150955000Y-126746000D01*
X150955000Y-127506000D01*
X151131103Y-128137327D01*
X151535399Y-128653206D01*
X152106338Y-128975099D01*
X152243290Y-129008748D01*
X152503000Y-128889922D01*
X152503000Y-126746000D01*
X152757000Y-126746000D01*
X152757000Y-128889922D01*
X153016710Y-129008748D01*
X153153662Y-128975099D01*
X153724601Y-128653206D01*
X154128897Y-128137327D01*
X154305000Y-127506000D01*
X154305000Y-126746000D01*
X152757000Y-126746000D01*
X152503000Y-126746000D01*
X150955000Y-126746000D01*
X148971000Y-126746000D01*
X148971000Y-125816272D01*
X148954238Y-125732000D01*
X150955000Y-125732000D01*
X150955000Y-126492000D01*
X152503000Y-126492000D01*
X152503000Y-124348078D01*
X152757000Y-124348078D01*
X152757000Y-126492000D01*
X154305000Y-126492000D01*
X154305000Y-125732000D01*
X154128897Y-125100673D01*
X153724601Y-124584794D01*
X153153662Y-124262901D01*
X153016710Y-124229252D01*
X152757000Y-124348078D01*
X152503000Y-124348078D01*
X152243290Y-124229252D01*
X152106338Y-124262901D01*
X151535399Y-124584794D01*
X151131103Y-125100673D01*
X150955000Y-125732000D01*
X148954238Y-125732000D01*
X148862833Y-125272479D01*
X148554799Y-124811473D01*
X148093793Y-124503439D01*
X147550000Y-124395272D01*
X147006207Y-124503439D01*
X146545201Y-124811473D01*
X146237167Y-125272479D01*
X146129000Y-125816272D01*
X143891000Y-125816272D01*
X143782833Y-125272479D01*
X143474799Y-124811473D01*
X143013793Y-124503439D01*
X142470000Y-124395272D01*
X141926207Y-124503439D01*
X141465201Y-124811473D01*
X141157167Y-125272479D01*
X141049000Y-125816272D01*
X138818464Y-125816272D01*
X138818464Y-124819000D01*
X138791897Y-124677810D01*
X138708454Y-124548135D01*
X138581134Y-124461141D01*
X138430000Y-124430536D01*
X136350000Y-124430536D01*
X136208810Y-124457103D01*
X136079135Y-124540546D01*
X135992141Y-124667866D01*
X135961536Y-124819000D01*
X95221000Y-124819000D01*
X95221000Y-114808000D01*
X102743000Y-114808000D01*
X102743000Y-117856000D01*
X102769056Y-117994477D01*
X102850896Y-118121660D01*
X102975770Y-118206983D01*
X103124000Y-118237000D01*
X105664000Y-118237000D01*
X105802477Y-118210944D01*
X105929660Y-118129104D01*
X106014983Y-118004230D01*
X106045000Y-117856000D01*
X106045000Y-117213000D01*
X145034000Y-117213000D01*
X145371144Y-117145938D01*
X145656961Y-116954961D01*
X151327954Y-111283968D01*
X152734243Y-111283968D01*
X152837700Y-111534355D01*
X153029102Y-111726090D01*
X153279307Y-111829985D01*
X153550226Y-111830221D01*
X153800613Y-111726764D01*
X153992348Y-111535362D01*
X154096243Y-111285157D01*
X154096479Y-111014238D01*
X153993022Y-110763851D01*
X153801620Y-110572116D01*
X153551415Y-110468221D01*
X153280496Y-110467985D01*
X153030109Y-110571442D01*
X152838374Y-110762844D01*
X152734479Y-111013049D01*
X152734243Y-111283968D01*
X151327954Y-111283968D01*
X154915922Y-107696000D01*
X158877000Y-107696000D01*
X159015477Y-107669944D01*
X159142660Y-107588104D01*
X159227983Y-107463230D01*
X159258000Y-107315000D01*
X159258000Y-106045000D01*
X159231944Y-105906523D01*
X159150104Y-105779340D01*
X159025230Y-105694017D01*
X158877000Y-105664000D01*
X154178000Y-105664000D01*
X154039523Y-105690056D01*
X153912340Y-105771896D01*
X153827017Y-105896770D01*
X153797000Y-106045000D01*
X153797000Y-106323078D01*
X144669078Y-115451000D01*
X128747000Y-115451000D01*
X128747000Y-108902500D01*
X128726021Y-108797030D01*
X143697943Y-108797030D01*
X143801400Y-109047417D01*
X143992802Y-109239152D01*
X144243007Y-109343047D01*
X144513926Y-109343283D01*
X144764313Y-109239826D01*
X144956048Y-109048424D01*
X145059943Y-108798219D01*
X145060179Y-108527300D01*
X144956722Y-108276913D01*
X144765320Y-108085178D01*
X144515115Y-107981283D01*
X144244196Y-107981047D01*
X143993809Y-108084504D01*
X143802074Y-108275906D01*
X143698179Y-108526111D01*
X143697943Y-108797030D01*
X128726021Y-108797030D01*
X128691356Y-108622758D01*
X128532895Y-108385605D01*
X128295742Y-108227144D01*
X128016000Y-108171500D01*
X127736258Y-108227144D01*
X127499105Y-108385605D01*
X127340644Y-108622758D01*
X127285000Y-108902500D01*
X127285000Y-115451000D01*
X106045000Y-115451000D01*
X106045000Y-114808000D01*
X106018944Y-114669523D01*
X105937104Y-114542340D01*
X105812230Y-114457017D01*
X105664000Y-114427000D01*
X103124000Y-114427000D01*
X102985523Y-114453056D01*
X102858340Y-114534896D01*
X102773017Y-114659770D01*
X102743000Y-114808000D01*
X95221000Y-114808000D01*
X95221000Y-114180865D01*
X122000882Y-114180865D01*
X122104339Y-114431252D01*
X122295741Y-114622987D01*
X122545946Y-114726882D01*
X122816865Y-114727118D01*
X123067252Y-114623661D01*
X123258987Y-114432259D01*
X123362882Y-114182054D01*
X123363118Y-113911135D01*
X123259661Y-113660748D01*
X123068259Y-113469013D01*
X122818054Y-113365118D01*
X122547135Y-113364882D01*
X122296748Y-113468339D01*
X122105013Y-113659741D01*
X122001118Y-113909946D01*
X122000882Y-114180865D01*
X95221000Y-114180865D01*
X95221000Y-105544865D01*
X101553882Y-105544865D01*
X101657339Y-105795252D01*
X101848741Y-105986987D01*
X102098946Y-106090882D01*
X102369865Y-106091118D01*
X102620252Y-105987661D01*
X102811987Y-105796259D01*
X102915882Y-105546054D01*
X102916118Y-105275135D01*
X102812661Y-105024748D01*
X102621259Y-104833013D01*
X102371054Y-104729118D01*
X102100135Y-104728882D01*
X101849748Y-104832339D01*
X101658013Y-105023741D01*
X101554118Y-105273946D01*
X101553882Y-105544865D01*
X95221000Y-105544865D01*
X95221000Y-104355814D01*
X102466059Y-104355814D01*
X102569516Y-104606201D01*
X102760918Y-104797936D01*
X103011123Y-104901831D01*
X103282042Y-104902067D01*
X103532429Y-104798610D01*
X103548201Y-104782865D01*
X122000882Y-104782865D01*
X122104339Y-105033252D01*
X122163420Y-105092436D01*
X122105013Y-105150741D01*
X122001118Y-105400946D01*
X122000882Y-105671865D01*
X122104339Y-105922252D01*
X122163420Y-105981436D01*
X122105013Y-106039741D01*
X122001118Y-106289946D01*
X122000882Y-106560865D01*
X122104339Y-106811252D01*
X122226920Y-106934046D01*
X122105013Y-107055741D01*
X122001118Y-107305946D01*
X122000882Y-107576865D01*
X122104339Y-107827252D01*
X122295741Y-108018987D01*
X122545946Y-108122882D01*
X122816865Y-108123118D01*
X123067252Y-108019661D01*
X123258987Y-107828259D01*
X123362882Y-107578054D01*
X123363118Y-107307135D01*
X123259661Y-107056748D01*
X123137080Y-106933954D01*
X123258987Y-106812259D01*
X123362882Y-106562054D01*
X123363118Y-106291135D01*
X123259661Y-106040748D01*
X123200580Y-105981564D01*
X123258987Y-105923259D01*
X123362882Y-105673054D01*
X123363118Y-105402135D01*
X123259661Y-105151748D01*
X123200580Y-105092564D01*
X123258987Y-105034259D01*
X123362882Y-104784054D01*
X123363118Y-104513135D01*
X123259661Y-104262748D01*
X123068259Y-104071013D01*
X122818054Y-103967118D01*
X122547135Y-103966882D01*
X122296748Y-104070339D01*
X122105013Y-104261741D01*
X122001118Y-104511946D01*
X122000882Y-104782865D01*
X103548201Y-104782865D01*
X103724164Y-104607208D01*
X103828059Y-104357003D01*
X103828295Y-104086084D01*
X103724838Y-103835697D01*
X103533436Y-103643962D01*
X103283231Y-103540067D01*
X103012312Y-103539831D01*
X102761925Y-103643288D01*
X102570190Y-103834690D01*
X102466295Y-104084895D01*
X102466059Y-104355814D01*
X95221000Y-104355814D01*
X95221000Y-103254743D01*
X103384599Y-103254743D01*
X103488056Y-103505130D01*
X103679458Y-103696865D01*
X103929663Y-103800760D01*
X104200582Y-103800996D01*
X104450969Y-103697539D01*
X104642704Y-103506137D01*
X104746599Y-103255932D01*
X104746835Y-102985013D01*
X104643378Y-102734626D01*
X104451976Y-102542891D01*
X104201771Y-102438996D01*
X103930852Y-102438760D01*
X103680465Y-102542217D01*
X103488730Y-102733619D01*
X103384835Y-102983824D01*
X103384599Y-103254743D01*
X95221000Y-103254743D01*
X95221000Y-102150814D01*
X104358433Y-102150814D01*
X104461890Y-102401201D01*
X104653292Y-102592936D01*
X104903497Y-102696831D01*
X105174416Y-102697067D01*
X105424803Y-102593610D01*
X105616538Y-102402208D01*
X105720433Y-102152003D01*
X105720446Y-102137058D01*
X122104480Y-102137058D01*
X122207937Y-102387445D01*
X122399339Y-102579180D01*
X122649544Y-102683075D01*
X122920463Y-102683311D01*
X123170850Y-102579854D01*
X123362585Y-102388452D01*
X123466480Y-102138247D01*
X123466716Y-101867328D01*
X123363259Y-101616941D01*
X123171857Y-101425206D01*
X122921652Y-101321311D01*
X122650733Y-101321075D01*
X122400346Y-101424532D01*
X122208611Y-101615934D01*
X122104716Y-101866139D01*
X122104480Y-102137058D01*
X105720446Y-102137058D01*
X105720669Y-101881084D01*
X105617212Y-101630697D01*
X105463410Y-101476628D01*
X105622481Y-101317833D01*
X105726376Y-101067628D01*
X105726612Y-100796709D01*
X105623155Y-100546322D01*
X105431753Y-100354587D01*
X105181548Y-100250692D01*
X104910629Y-100250456D01*
X104660242Y-100353913D01*
X104468507Y-100545315D01*
X104364612Y-100795520D01*
X104364376Y-101066439D01*
X104467833Y-101316826D01*
X104621635Y-101470895D01*
X104462564Y-101629690D01*
X104358669Y-101879895D01*
X104358433Y-102150814D01*
X95221000Y-102150814D01*
X95221000Y-99829865D01*
X138764882Y-99829865D01*
X138868339Y-100080252D01*
X139059741Y-100271987D01*
X139309946Y-100375882D01*
X139580865Y-100376118D01*
X139831252Y-100272661D01*
X140022987Y-100081259D01*
X140126882Y-99831054D01*
X140127118Y-99560135D01*
X140023661Y-99309748D01*
X139832259Y-99118013D01*
X139582054Y-99014118D01*
X139311135Y-99013882D01*
X139060748Y-99117339D01*
X138869013Y-99308741D01*
X138765118Y-99558946D01*
X138764882Y-99829865D01*
X95221000Y-99829865D01*
X95221000Y-98852574D01*
X122047456Y-98852574D01*
X122150913Y-99102961D01*
X122342315Y-99294696D01*
X122592520Y-99398591D01*
X122863439Y-99398827D01*
X123113826Y-99295370D01*
X123305561Y-99103968D01*
X123409456Y-98853763D01*
X123409692Y-98582844D01*
X123306235Y-98332457D01*
X123114833Y-98140722D01*
X122864628Y-98036827D01*
X122593709Y-98036591D01*
X122343322Y-98140048D01*
X122151587Y-98331450D01*
X122047692Y-98581655D01*
X122047456Y-98852574D01*
X95221000Y-98852574D01*
X95221000Y-96654865D01*
X138764882Y-96654865D01*
X138868339Y-96905252D01*
X139059741Y-97096987D01*
X139309946Y-97200882D01*
X139580865Y-97201118D01*
X139831252Y-97097661D01*
X140022987Y-96906259D01*
X140126882Y-96656054D01*
X140126883Y-96654865D01*
X140415882Y-96654865D01*
X140519339Y-96905252D01*
X140710741Y-97096987D01*
X140960946Y-97200882D01*
X141231865Y-97201118D01*
X141482252Y-97097661D01*
X141673987Y-96906259D01*
X141777882Y-96656054D01*
X141778118Y-96385135D01*
X141674661Y-96134748D01*
X141483259Y-95943013D01*
X141233054Y-95839118D01*
X140962135Y-95838882D01*
X140711748Y-95942339D01*
X140520013Y-96133741D01*
X140416118Y-96383946D01*
X140415882Y-96654865D01*
X140126883Y-96654865D01*
X140127118Y-96385135D01*
X140023661Y-96134748D01*
X139832259Y-95943013D01*
X139582054Y-95839118D01*
X139311135Y-95838882D01*
X139060748Y-95942339D01*
X138869013Y-96133741D01*
X138765118Y-96383946D01*
X138764882Y-96654865D01*
X95221000Y-96654865D01*
X95221000Y-92435039D01*
X101870096Y-92435039D01*
X101887633Y-92517819D01*
X102157500Y-93010896D01*
X102595517Y-93363166D01*
X103135000Y-93521000D01*
X104285000Y-93521000D01*
X104285000Y-92213000D01*
X104539000Y-92213000D01*
X104539000Y-93521000D01*
X105689000Y-93521000D01*
X106228483Y-93363166D01*
X106666500Y-93010896D01*
X106936367Y-92517819D01*
X106953904Y-92435039D01*
X106831915Y-92213000D01*
X104539000Y-92213000D01*
X104285000Y-92213000D01*
X101992085Y-92213000D01*
X101870096Y-92435039D01*
X95221000Y-92435039D01*
X95221000Y-91736961D01*
X101870096Y-91736961D01*
X101992085Y-91959000D01*
X104285000Y-91959000D01*
X104285000Y-90651000D01*
X103135000Y-90651000D01*
X102595517Y-90808834D01*
X102157500Y-91161104D01*
X101887633Y-91654181D01*
X101870096Y-91736961D01*
X95221000Y-91736961D01*
X95221000Y-87636000D01*
X101856883Y-87636000D01*
X101927751Y-87992278D01*
X102129567Y-88294316D01*
X102341611Y-88436000D01*
X102129567Y-88577684D01*
X101927751Y-88879722D01*
X101856883Y-89236000D01*
X101927751Y-89592278D01*
X102129567Y-89894316D01*
X102431605Y-90096132D01*
X102787883Y-90167000D01*
X103436117Y-90167000D01*
X103792395Y-90096132D01*
X104094433Y-89894316D01*
X104296249Y-89592278D01*
X104367117Y-89236000D01*
X104296249Y-88879722D01*
X104094433Y-88577684D01*
X103882389Y-88436000D01*
X104094433Y-88294316D01*
X104296249Y-87992278D01*
X104367117Y-87636000D01*
X104296249Y-87279722D01*
X104206728Y-87145744D01*
X104268197Y-87145744D01*
X104268602Y-87172146D01*
X104484276Y-87584118D01*
X104724725Y-87784931D01*
X104527751Y-88079722D01*
X104456883Y-88436000D01*
X104527751Y-88792278D01*
X104729567Y-89094316D01*
X104762427Y-89116272D01*
X104720810Y-89124103D01*
X104591135Y-89207546D01*
X104504141Y-89334866D01*
X104473536Y-89486000D01*
X104473536Y-90586000D01*
X104500103Y-90727190D01*
X104539000Y-90787638D01*
X104539000Y-91959000D01*
X106831915Y-91959000D01*
X106953904Y-91736961D01*
X106936367Y-91654181D01*
X106858203Y-91511365D01*
X110507382Y-91511365D01*
X110610839Y-91761752D01*
X110802241Y-91953487D01*
X111052446Y-92057382D01*
X111323365Y-92057618D01*
X111573752Y-91954161D01*
X111765487Y-91762759D01*
X111869382Y-91512554D01*
X111869618Y-91241635D01*
X111766161Y-90991248D01*
X111574759Y-90799513D01*
X111324554Y-90695618D01*
X111053635Y-90695382D01*
X110803248Y-90798839D01*
X110611513Y-90990241D01*
X110507618Y-91240446D01*
X110507382Y-91511365D01*
X106858203Y-91511365D01*
X106666500Y-91161104D01*
X106434429Y-90974464D01*
X106562000Y-90974464D01*
X106703190Y-90947897D01*
X106832865Y-90864454D01*
X106919859Y-90737134D01*
X106950464Y-90586000D01*
X106950464Y-90168758D01*
X115458344Y-90168758D01*
X115561801Y-90419145D01*
X115753203Y-90610880D01*
X116003408Y-90714775D01*
X116274327Y-90715011D01*
X116524714Y-90611554D01*
X116716449Y-90420152D01*
X116820344Y-90169947D01*
X116820580Y-89899028D01*
X116717123Y-89648641D01*
X116525721Y-89456906D01*
X116275516Y-89353011D01*
X116004597Y-89352775D01*
X115754210Y-89456232D01*
X115562475Y-89647634D01*
X115458580Y-89897839D01*
X115458344Y-90168758D01*
X106950464Y-90168758D01*
X106950464Y-89486000D01*
X106923897Y-89344810D01*
X106840454Y-89215135D01*
X106713134Y-89128141D01*
X106659934Y-89117368D01*
X106694433Y-89094316D01*
X106896249Y-88792278D01*
X106967117Y-88436000D01*
X106896249Y-88079722D01*
X106699275Y-87784931D01*
X106939724Y-87584118D01*
X107155398Y-87172146D01*
X107155803Y-87145744D01*
X107030361Y-86963000D01*
X105839000Y-86963000D01*
X105839000Y-86983000D01*
X105585000Y-86983000D01*
X105585000Y-86963000D01*
X104393639Y-86963000D01*
X104268197Y-87145744D01*
X104206728Y-87145744D01*
X104094433Y-86977684D01*
X103792395Y-86775868D01*
X103436117Y-86705000D01*
X102787883Y-86705000D01*
X102431605Y-86775868D01*
X102129567Y-86977684D01*
X101927751Y-87279722D01*
X101856883Y-87636000D01*
X95221000Y-87636000D01*
X95221000Y-86526256D01*
X104268197Y-86526256D01*
X104393639Y-86709000D01*
X105585000Y-86709000D01*
X105585000Y-86689000D01*
X105839000Y-86689000D01*
X105839000Y-86709000D01*
X107030361Y-86709000D01*
X107090173Y-86621865D01*
X136986882Y-86621865D01*
X137090339Y-86872252D01*
X137281741Y-87063987D01*
X137531946Y-87167882D01*
X137802865Y-87168118D01*
X138053252Y-87064661D01*
X138244987Y-86873259D01*
X138348882Y-86623054D01*
X138349077Y-86399000D01*
X145573536Y-86399000D01*
X145573536Y-88099000D01*
X145600103Y-88240190D01*
X145683546Y-88369865D01*
X145810866Y-88456859D01*
X145962000Y-88487464D01*
X147662000Y-88487464D01*
X147803190Y-88460897D01*
X147932865Y-88377454D01*
X148019859Y-88250134D01*
X148050464Y-88099000D01*
X148050464Y-87224883D01*
X148121000Y-87224883D01*
X148121000Y-87273117D01*
X148214704Y-87744200D01*
X148481552Y-88143565D01*
X148880917Y-88410413D01*
X149352000Y-88504117D01*
X149823083Y-88410413D01*
X150140980Y-88198000D01*
X154209000Y-88198000D01*
X154209000Y-99053356D01*
X154264644Y-99333098D01*
X154415551Y-99558946D01*
X154423105Y-99570251D01*
X159793909Y-104941055D01*
X159793909Y-108498082D01*
X157193105Y-111098886D01*
X157034644Y-111336039D01*
X156979000Y-111615781D01*
X156979000Y-124628527D01*
X156705201Y-124811473D01*
X156397167Y-125272479D01*
X156289000Y-125816272D01*
X156289000Y-127421728D01*
X156397167Y-127965521D01*
X156705201Y-128426527D01*
X157166207Y-128734561D01*
X157710000Y-128842728D01*
X158253793Y-128734561D01*
X158714799Y-128426527D01*
X159022833Y-127965521D01*
X159131000Y-127421728D01*
X159131000Y-125816272D01*
X159022833Y-125272479D01*
X158714799Y-124811473D01*
X158441000Y-124628527D01*
X158441000Y-111918571D01*
X161041804Y-109317767D01*
X161200265Y-109080614D01*
X161255909Y-108800872D01*
X161255909Y-104638265D01*
X161200265Y-104358523D01*
X161041804Y-104121370D01*
X155671000Y-98750566D01*
X155671000Y-90116038D01*
X158703027Y-90116038D01*
X158806484Y-90366425D01*
X158903145Y-90463254D01*
X158903145Y-95629147D01*
X158912623Y-95676794D01*
X158939759Y-95813218D01*
X159044027Y-95969265D01*
X163617880Y-100543118D01*
X163773927Y-100647386D01*
X163957998Y-100684000D01*
X170173866Y-100684000D01*
X169955324Y-100774299D01*
X169763589Y-100965701D01*
X169659694Y-101215906D01*
X169659458Y-101486825D01*
X169762915Y-101737212D01*
X169954317Y-101928947D01*
X170204522Y-102032842D01*
X170475441Y-102033078D01*
X170725828Y-101929621D01*
X170917563Y-101738219D01*
X171021458Y-101488014D01*
X171021694Y-101217095D01*
X170918237Y-100966708D01*
X170726835Y-100774973D01*
X170507749Y-100684000D01*
X189255921Y-100684000D01*
X189351741Y-100779987D01*
X189601946Y-100883882D01*
X189872865Y-100884118D01*
X190123252Y-100780661D01*
X190314987Y-100589259D01*
X190418882Y-100339054D01*
X190419118Y-100068135D01*
X190315661Y-99817748D01*
X190124259Y-99626013D01*
X189874054Y-99522118D01*
X189603135Y-99521882D01*
X189352748Y-99625339D01*
X189255919Y-99722000D01*
X164157234Y-99722000D01*
X161029385Y-96594151D01*
X161040252Y-96589661D01*
X161231987Y-96398259D01*
X161319717Y-96186984D01*
X161353983Y-96238267D01*
X162589632Y-97473917D01*
X162794343Y-97610700D01*
X163035816Y-97658732D01*
X181338549Y-97658732D01*
X181580022Y-97610700D01*
X181585724Y-97606890D01*
X184788524Y-97606890D01*
X184958355Y-98016924D01*
X185348642Y-98445183D01*
X185873108Y-98691486D01*
X186103000Y-98570819D01*
X186103000Y-97377000D01*
X186357000Y-97377000D01*
X186357000Y-98570819D01*
X186586892Y-98691486D01*
X187111358Y-98445183D01*
X187501645Y-98016924D01*
X187671476Y-97606890D01*
X187550155Y-97377000D01*
X186357000Y-97377000D01*
X186103000Y-97377000D01*
X184909845Y-97377000D01*
X184788524Y-97606890D01*
X181585724Y-97606890D01*
X181784733Y-97473916D01*
X185166966Y-94091683D01*
X185068587Y-94238917D01*
X184974883Y-94710000D01*
X185068587Y-95181083D01*
X185335435Y-95580448D01*
X185734800Y-95847296D01*
X185773947Y-95855083D01*
X185348642Y-96054817D01*
X184958355Y-96483076D01*
X184788524Y-96893110D01*
X184909845Y-97123000D01*
X186103000Y-97123000D01*
X186103000Y-97103000D01*
X186357000Y-97103000D01*
X186357000Y-97123000D01*
X187550155Y-97123000D01*
X187671476Y-96893110D01*
X187501645Y-96483076D01*
X187111358Y-96054817D01*
X186686053Y-95855083D01*
X186725200Y-95847296D01*
X187124565Y-95580448D01*
X187391413Y-95181083D01*
X187485117Y-94710000D01*
X187391413Y-94238917D01*
X187124565Y-93839552D01*
X186725200Y-93572704D01*
X186254117Y-93479000D01*
X186205883Y-93479000D01*
X185734800Y-93572704D01*
X185587566Y-93671083D01*
X185915425Y-93343224D01*
X186205883Y-93401000D01*
X186254117Y-93401000D01*
X186725200Y-93307296D01*
X187124565Y-93040448D01*
X187391413Y-92641083D01*
X187485117Y-92170000D01*
X187391413Y-91698917D01*
X187124565Y-91299552D01*
X186725200Y-91032704D01*
X186254117Y-90939000D01*
X186205883Y-90939000D01*
X185734800Y-91032704D01*
X185557504Y-91151170D01*
X185907104Y-90801569D01*
X186205883Y-90861000D01*
X186254117Y-90861000D01*
X186725200Y-90767296D01*
X187124565Y-90500448D01*
X187391413Y-90101083D01*
X187485117Y-89630000D01*
X187391413Y-89158917D01*
X187124565Y-88759552D01*
X186725200Y-88492704D01*
X186254117Y-88399000D01*
X186205883Y-88399000D01*
X185734800Y-88492704D01*
X185335435Y-88759552D01*
X185068587Y-89158917D01*
X184974883Y-89630000D01*
X185027817Y-89896119D01*
X180559025Y-94364912D01*
X163578361Y-94364912D01*
X163458233Y-94315030D01*
X163187314Y-94314794D01*
X162936927Y-94418251D01*
X162745192Y-94609653D01*
X162641297Y-94859858D01*
X162641061Y-95130777D01*
X162744518Y-95381164D01*
X162935920Y-95572899D01*
X163186125Y-95676794D01*
X163457044Y-95677030D01*
X163578340Y-95626912D01*
X168967527Y-95626912D01*
X168864118Y-95875946D01*
X168863882Y-96146865D01*
X168967124Y-96396732D01*
X163297185Y-96396732D01*
X162431167Y-95530715D01*
X162431167Y-94744756D01*
X162481049Y-94624628D01*
X162481285Y-94353709D01*
X162377828Y-94103322D01*
X162186426Y-93911587D01*
X161936221Y-93807692D01*
X161665302Y-93807456D01*
X161414915Y-93910913D01*
X161223180Y-94102315D01*
X161119285Y-94352520D01*
X161119049Y-94623439D01*
X161169167Y-94744735D01*
X161169167Y-95563144D01*
X161041259Y-95435013D01*
X160791054Y-95331118D01*
X160520135Y-95330882D01*
X160269748Y-95434339D01*
X160078013Y-95625741D01*
X160073014Y-95637780D01*
X159865145Y-95429911D01*
X159865145Y-93606865D01*
X167720882Y-93606865D01*
X167824339Y-93857252D01*
X168015741Y-94048987D01*
X168265946Y-94152882D01*
X168536865Y-94153118D01*
X168659758Y-94102340D01*
X176901669Y-94102340D01*
X177143142Y-94054308D01*
X177347853Y-93917524D01*
X181574376Y-89691002D01*
X181711159Y-89486291D01*
X181759191Y-89244818D01*
X181759191Y-87540141D01*
X183080326Y-87540141D01*
X183183783Y-87790528D01*
X183375185Y-87982263D01*
X183625390Y-88086158D01*
X183896309Y-88086394D01*
X184146696Y-87982937D01*
X184338431Y-87791535D01*
X184442326Y-87541330D01*
X184442562Y-87270411D01*
X184339105Y-87020024D01*
X184147703Y-86828289D01*
X183897498Y-86724394D01*
X183626579Y-86724158D01*
X183376192Y-86827615D01*
X183184457Y-87019017D01*
X183080562Y-87269222D01*
X183080326Y-87540141D01*
X181759191Y-87540141D01*
X181759191Y-86240000D01*
X184991536Y-86240000D01*
X184991536Y-87940000D01*
X185018103Y-88081190D01*
X185101546Y-88210865D01*
X185228866Y-88297859D01*
X185380000Y-88328464D01*
X187080000Y-88328464D01*
X187221190Y-88301897D01*
X187350865Y-88218454D01*
X187437859Y-88091134D01*
X187468464Y-87940000D01*
X187468464Y-86240000D01*
X187441897Y-86098810D01*
X187358454Y-85969135D01*
X187231134Y-85882141D01*
X187080000Y-85851536D01*
X185380000Y-85851536D01*
X185238810Y-85878103D01*
X185109135Y-85961546D01*
X185022141Y-86088866D01*
X184991536Y-86240000D01*
X181759191Y-86240000D01*
X181759191Y-83519572D01*
X187408414Y-83519572D01*
X187922056Y-84762681D01*
X188872317Y-85714601D01*
X190114527Y-86230412D01*
X191459572Y-86231586D01*
X192702681Y-85717944D01*
X193654601Y-84767683D01*
X194170412Y-83525473D01*
X194171586Y-82180428D01*
X193657944Y-80937319D01*
X192707683Y-79985399D01*
X191465473Y-79469588D01*
X190120428Y-79468414D01*
X188877319Y-79982056D01*
X187925399Y-80932317D01*
X187409588Y-82174527D01*
X187408414Y-83519572D01*
X181759191Y-83519572D01*
X181759191Y-81809132D01*
X182020448Y-81634565D01*
X182287296Y-81235200D01*
X182295083Y-81196053D01*
X182494817Y-81621358D01*
X182923076Y-82011645D01*
X183333110Y-82181476D01*
X183563000Y-82060155D01*
X183563000Y-80867000D01*
X183817000Y-80867000D01*
X183817000Y-82060155D01*
X184046890Y-82181476D01*
X184456924Y-82011645D01*
X184885183Y-81621358D01*
X185131486Y-81096892D01*
X185010819Y-80867000D01*
X183817000Y-80867000D01*
X183563000Y-80867000D01*
X183543000Y-80867000D01*
X183543000Y-80613000D01*
X183563000Y-80613000D01*
X183563000Y-79419845D01*
X183817000Y-79419845D01*
X183817000Y-80613000D01*
X185010819Y-80613000D01*
X185131486Y-80383108D01*
X184885183Y-79858642D01*
X184456924Y-79468355D01*
X184046890Y-79298524D01*
X183817000Y-79419845D01*
X183563000Y-79419845D01*
X183333110Y-79298524D01*
X182923076Y-79468355D01*
X182494817Y-79858642D01*
X182295083Y-80283947D01*
X182287296Y-80244800D01*
X182020448Y-79845435D01*
X181621083Y-79578587D01*
X181150000Y-79484883D01*
X180678917Y-79578587D01*
X180279552Y-79845435D01*
X180012704Y-80244800D01*
X179919000Y-80715883D01*
X179919000Y-80764117D01*
X180012704Y-81235200D01*
X180279552Y-81634565D01*
X180497191Y-81779987D01*
X180497191Y-88983449D01*
X176640301Y-92840340D01*
X168656593Y-92840340D01*
X168538054Y-92791118D01*
X168267135Y-92790882D01*
X168016748Y-92894339D01*
X167825013Y-93085741D01*
X167721118Y-93335946D01*
X167720882Y-93606865D01*
X159865145Y-93606865D01*
X159865145Y-92209865D01*
X173181882Y-92209865D01*
X173285339Y-92460252D01*
X173476741Y-92651987D01*
X173726946Y-92755882D01*
X173997865Y-92756118D01*
X174248252Y-92652661D01*
X174439987Y-92461259D01*
X174543882Y-92211054D01*
X174544118Y-91940135D01*
X174440661Y-91689748D01*
X174249259Y-91498013D01*
X173999054Y-91394118D01*
X173728135Y-91393882D01*
X173477748Y-91497339D01*
X173286013Y-91688741D01*
X173182118Y-91938946D01*
X173181882Y-92209865D01*
X159865145Y-92209865D01*
X159865145Y-90463252D01*
X159896586Y-90431865D01*
X173181882Y-90431865D01*
X173285339Y-90682252D01*
X173476741Y-90873987D01*
X173726946Y-90977882D01*
X173997865Y-90978118D01*
X174248252Y-90874661D01*
X174439987Y-90683259D01*
X174543882Y-90433054D01*
X174544118Y-90162135D01*
X174440661Y-89911748D01*
X174249259Y-89720013D01*
X173999054Y-89616118D01*
X173728135Y-89615882D01*
X173477748Y-89719339D01*
X173286013Y-89910741D01*
X173182118Y-90160946D01*
X173181882Y-90431865D01*
X159896586Y-90431865D01*
X159961132Y-90367432D01*
X160065027Y-90117227D01*
X160065263Y-89846308D01*
X159961806Y-89595921D01*
X159770404Y-89404186D01*
X159711833Y-89379865D01*
X164636882Y-89379865D01*
X164740339Y-89630252D01*
X164931741Y-89821987D01*
X165181946Y-89925882D01*
X165452865Y-89926118D01*
X165703252Y-89822661D01*
X165894987Y-89631259D01*
X165998882Y-89381054D01*
X165999118Y-89110135D01*
X165895661Y-88859748D01*
X165704259Y-88668013D01*
X165670188Y-88653865D01*
X173181882Y-88653865D01*
X173285339Y-88904252D01*
X173476741Y-89095987D01*
X173726946Y-89199882D01*
X173997865Y-89200118D01*
X174248252Y-89096661D01*
X174439987Y-88905259D01*
X174525028Y-88700458D01*
X178092174Y-88700458D01*
X178195631Y-88950845D01*
X178387033Y-89142580D01*
X178637238Y-89246475D01*
X178908157Y-89246711D01*
X179158544Y-89143254D01*
X179350279Y-88951852D01*
X179454174Y-88701647D01*
X179454410Y-88430728D01*
X179350953Y-88180341D01*
X179159551Y-87988606D01*
X178909346Y-87884711D01*
X178638427Y-87884475D01*
X178388040Y-87987932D01*
X178196305Y-88179334D01*
X178092410Y-88429539D01*
X178092174Y-88700458D01*
X174525028Y-88700458D01*
X174543882Y-88655054D01*
X174544118Y-88384135D01*
X174440661Y-88133748D01*
X174249259Y-87942013D01*
X173999054Y-87838118D01*
X173728135Y-87837882D01*
X173477748Y-87941339D01*
X173286013Y-88132741D01*
X173182118Y-88382946D01*
X173181882Y-88653865D01*
X165670188Y-88653865D01*
X165454054Y-88564118D01*
X165183135Y-88563882D01*
X164932748Y-88667339D01*
X164741013Y-88858741D01*
X164637118Y-89108946D01*
X164636882Y-89379865D01*
X159711833Y-89379865D01*
X159520199Y-89300291D01*
X159249280Y-89300055D01*
X158998893Y-89403512D01*
X158807158Y-89594914D01*
X158703263Y-89845119D01*
X158703027Y-90116038D01*
X155671000Y-90116038D01*
X155671000Y-88198000D01*
X155615356Y-87918258D01*
X155456895Y-87681105D01*
X155219742Y-87522644D01*
X154940000Y-87467000D01*
X154660258Y-87522644D01*
X154423105Y-87681105D01*
X154264644Y-87918258D01*
X154209000Y-88198000D01*
X150140980Y-88198000D01*
X150222448Y-88143565D01*
X150489296Y-87744200D01*
X150560970Y-87383865D01*
X159973882Y-87383865D01*
X160077339Y-87634252D01*
X160268741Y-87825987D01*
X160518946Y-87929882D01*
X160789865Y-87930118D01*
X161040252Y-87826661D01*
X161231987Y-87635259D01*
X161335882Y-87385054D01*
X161336118Y-87114135D01*
X161237668Y-86875865D01*
X173181882Y-86875865D01*
X173285339Y-87126252D01*
X173476741Y-87317987D01*
X173726946Y-87421882D01*
X173997865Y-87422118D01*
X174248252Y-87318661D01*
X174439987Y-87127259D01*
X174543882Y-86877054D01*
X174544118Y-86606135D01*
X174440661Y-86355748D01*
X174249259Y-86164013D01*
X173999054Y-86060118D01*
X173728135Y-86059882D01*
X173477748Y-86163339D01*
X173286013Y-86354741D01*
X173182118Y-86604946D01*
X173181882Y-86875865D01*
X161237668Y-86875865D01*
X161232661Y-86863748D01*
X161041259Y-86672013D01*
X160791054Y-86568118D01*
X160520135Y-86567882D01*
X160269748Y-86671339D01*
X160078013Y-86862741D01*
X159974118Y-87112946D01*
X159973882Y-87383865D01*
X150560970Y-87383865D01*
X150583000Y-87273117D01*
X150583000Y-87224883D01*
X150489296Y-86753800D01*
X150222448Y-86354435D01*
X149823083Y-86087587D01*
X149352000Y-85993883D01*
X148880917Y-86087587D01*
X148481552Y-86354435D01*
X148214704Y-86753800D01*
X148121000Y-87224883D01*
X148050464Y-87224883D01*
X148050464Y-86399000D01*
X148023897Y-86257810D01*
X147940454Y-86128135D01*
X147813134Y-86041141D01*
X147662000Y-86010536D01*
X145962000Y-86010536D01*
X145820810Y-86037103D01*
X145691135Y-86120546D01*
X145604141Y-86247866D01*
X145573536Y-86399000D01*
X138349077Y-86399000D01*
X138349118Y-86352135D01*
X138245661Y-86101748D01*
X138130978Y-85986865D01*
X165688882Y-85986865D01*
X165792339Y-86237252D01*
X165983741Y-86428987D01*
X166233946Y-86532882D01*
X166504865Y-86533118D01*
X166755252Y-86429661D01*
X166946987Y-86238259D01*
X167050882Y-85988054D01*
X167051118Y-85717135D01*
X166947661Y-85466748D01*
X166756259Y-85275013D01*
X166506054Y-85171118D01*
X166235135Y-85170882D01*
X165984748Y-85274339D01*
X165793013Y-85465741D01*
X165689118Y-85715946D01*
X165688882Y-85986865D01*
X138130978Y-85986865D01*
X138054259Y-85910013D01*
X137804054Y-85806118D01*
X137533135Y-85805882D01*
X137282748Y-85909339D01*
X137091013Y-86100741D01*
X136987118Y-86350946D01*
X136986882Y-86621865D01*
X107090173Y-86621865D01*
X107155803Y-86526256D01*
X107155398Y-86499854D01*
X106939724Y-86087882D01*
X106582813Y-85789804D01*
X106572425Y-85786555D01*
X106666500Y-85710896D01*
X106936367Y-85217819D01*
X106953904Y-85135039D01*
X106933481Y-85097865D01*
X173181882Y-85097865D01*
X173285339Y-85348252D01*
X173476741Y-85539987D01*
X173726946Y-85643882D01*
X173997865Y-85644118D01*
X174248252Y-85540661D01*
X174439987Y-85349259D01*
X174543882Y-85099054D01*
X174544118Y-84828135D01*
X174440661Y-84577748D01*
X174249259Y-84386013D01*
X173999054Y-84282118D01*
X173728135Y-84281882D01*
X173477748Y-84385339D01*
X173286013Y-84576741D01*
X173182118Y-84826946D01*
X173181882Y-85097865D01*
X106933481Y-85097865D01*
X106831915Y-84913000D01*
X104539000Y-84913000D01*
X104539000Y-86042179D01*
X104484276Y-86087882D01*
X104268602Y-86499854D01*
X104268197Y-86526256D01*
X95221000Y-86526256D01*
X95221000Y-83519572D01*
X95408414Y-83519572D01*
X95922056Y-84762681D01*
X96872317Y-85714601D01*
X98114527Y-86230412D01*
X99459572Y-86231586D01*
X100702681Y-85717944D01*
X101286603Y-85135039D01*
X101870096Y-85135039D01*
X101887633Y-85217819D01*
X102157500Y-85710896D01*
X102595517Y-86063166D01*
X103135000Y-86221000D01*
X104285000Y-86221000D01*
X104285000Y-84913000D01*
X101992085Y-84913000D01*
X101870096Y-85135039D01*
X101286603Y-85135039D01*
X101654601Y-84767683D01*
X101791928Y-84436961D01*
X101870096Y-84436961D01*
X101992085Y-84659000D01*
X104285000Y-84659000D01*
X104285000Y-83351000D01*
X104539000Y-83351000D01*
X104539000Y-84659000D01*
X106831915Y-84659000D01*
X106953904Y-84436961D01*
X106936367Y-84354181D01*
X106856834Y-84208865D01*
X131906882Y-84208865D01*
X132010339Y-84459252D01*
X132201741Y-84650987D01*
X132451946Y-84754882D01*
X132722865Y-84755118D01*
X132973252Y-84651661D01*
X133164987Y-84460259D01*
X133268882Y-84210054D01*
X133268883Y-84208865D01*
X134446882Y-84208865D01*
X134550339Y-84459252D01*
X134741741Y-84650987D01*
X134991946Y-84754882D01*
X135262865Y-84755118D01*
X135513252Y-84651661D01*
X135704987Y-84460259D01*
X135808882Y-84210054D01*
X135808883Y-84208865D01*
X136986882Y-84208865D01*
X137090339Y-84459252D01*
X137281741Y-84650987D01*
X137531946Y-84754882D01*
X137802865Y-84755118D01*
X138053252Y-84651661D01*
X138244987Y-84460259D01*
X138348882Y-84210054D01*
X138349118Y-83939135D01*
X138245661Y-83688748D01*
X138054259Y-83497013D01*
X137804054Y-83393118D01*
X137533135Y-83392882D01*
X137282748Y-83496339D01*
X137091013Y-83687741D01*
X136987118Y-83937946D01*
X136986882Y-84208865D01*
X135808883Y-84208865D01*
X135809118Y-83939135D01*
X135705661Y-83688748D01*
X135514259Y-83497013D01*
X135264054Y-83393118D01*
X134993135Y-83392882D01*
X134742748Y-83496339D01*
X134551013Y-83687741D01*
X134447118Y-83937946D01*
X134446882Y-84208865D01*
X133268883Y-84208865D01*
X133269118Y-83939135D01*
X133165661Y-83688748D01*
X132974259Y-83497013D01*
X132724054Y-83393118D01*
X132453135Y-83392882D01*
X132202748Y-83496339D01*
X132011013Y-83687741D01*
X131907118Y-83937946D01*
X131906882Y-84208865D01*
X106856834Y-84208865D01*
X106666500Y-83861104D01*
X106228483Y-83508834D01*
X105689000Y-83351000D01*
X104539000Y-83351000D01*
X104285000Y-83351000D01*
X103135000Y-83351000D01*
X102595517Y-83508834D01*
X102157500Y-83861104D01*
X101887633Y-84354181D01*
X101870096Y-84436961D01*
X101791928Y-84436961D01*
X102170412Y-83525473D01*
X102171586Y-82180428D01*
X102120638Y-82057122D01*
X142963825Y-82057122D01*
X143178466Y-82575332D01*
X143640608Y-83070012D01*
X144256877Y-83350183D01*
X144526000Y-83232604D01*
X144526000Y-81788000D01*
X144780000Y-81788000D01*
X144780000Y-83232604D01*
X145049123Y-83350183D01*
X145665392Y-83070012D01*
X146127534Y-82575332D01*
X146342175Y-82057122D01*
X146224125Y-81788000D01*
X144780000Y-81788000D01*
X144526000Y-81788000D01*
X143081875Y-81788000D01*
X142963825Y-82057122D01*
X102120638Y-82057122D01*
X101793289Y-81264878D01*
X142963825Y-81264878D01*
X143081875Y-81534000D01*
X144526000Y-81534000D01*
X144526000Y-80089396D01*
X144780000Y-80089396D01*
X144780000Y-81534000D01*
X146224125Y-81534000D01*
X146342175Y-81264878D01*
X146127534Y-80746668D01*
X145954079Y-80561000D01*
X153324536Y-80561000D01*
X153324536Y-82761000D01*
X153351103Y-82902190D01*
X153434546Y-83031865D01*
X153561866Y-83118859D01*
X153713000Y-83149464D01*
X155913000Y-83149464D01*
X156054190Y-83122897D01*
X156183865Y-83039454D01*
X156270859Y-82912134D01*
X156301464Y-82761000D01*
X156301464Y-82049865D01*
X166958882Y-82049865D01*
X167062339Y-82300252D01*
X167253741Y-82491987D01*
X167503946Y-82595882D01*
X167774865Y-82596118D01*
X168025252Y-82492661D01*
X168216987Y-82301259D01*
X168320882Y-82051054D01*
X168321118Y-81780135D01*
X168217661Y-81529748D01*
X168026259Y-81338013D01*
X167776054Y-81234118D01*
X167505135Y-81233882D01*
X167254748Y-81337339D01*
X167063013Y-81528741D01*
X166959118Y-81778946D01*
X166958882Y-82049865D01*
X156301464Y-82049865D01*
X156301464Y-80561000D01*
X156274897Y-80419810D01*
X156191454Y-80290135D01*
X156064134Y-80203141D01*
X155913000Y-80172536D01*
X153713000Y-80172536D01*
X153571810Y-80199103D01*
X153442135Y-80282546D01*
X153355141Y-80409866D01*
X153324536Y-80561000D01*
X145954079Y-80561000D01*
X145665392Y-80251988D01*
X145049123Y-79971817D01*
X144780000Y-80089396D01*
X144526000Y-80089396D01*
X144256877Y-79971817D01*
X143640608Y-80251988D01*
X143178466Y-80746668D01*
X142963825Y-81264878D01*
X101793289Y-81264878D01*
X101657944Y-80937319D01*
X100707683Y-79985399D01*
X100477937Y-79890000D01*
X177371536Y-79890000D01*
X177371536Y-81590000D01*
X177398103Y-81731190D01*
X177481546Y-81860865D01*
X177608866Y-81947859D01*
X177760000Y-81978464D01*
X179460000Y-81978464D01*
X179601190Y-81951897D01*
X179730865Y-81868454D01*
X179817859Y-81741134D01*
X179848464Y-81590000D01*
X179848464Y-79890000D01*
X179821897Y-79748810D01*
X179738454Y-79619135D01*
X179611134Y-79532141D01*
X179460000Y-79501536D01*
X177760000Y-79501536D01*
X177618810Y-79528103D01*
X177489135Y-79611546D01*
X177402141Y-79738866D01*
X177371536Y-79890000D01*
X100477937Y-79890000D01*
X99465473Y-79469588D01*
X98120428Y-79468414D01*
X96877319Y-79982056D01*
X95925399Y-80932317D01*
X95409588Y-82174527D01*
X95408414Y-83519572D01*
X95221000Y-83519572D01*
X95221000Y-78781000D01*
X194359000Y-78781000D01*
X194359000Y-106723000D01*
M02*
