G04 #@! TF.FileFunction,Copper,L4,Bot,Mixed*
%FSLAX46Y46*%
G04 Gerber Fmt 4.6, Leading zero omitted, Abs format (unit mm)*
G04 Created by KiCad (PCBNEW 4.0.7) date Wednesday, April 18, 2018 'PMt' 12:45:26 PM*
%MOMM*%
%LPD*%
G01*
G04 APERTURE LIST*
%ADD10C,0.100000*%
%ADD11R,1.950000X1.500000*%
%ADD12C,0.600000*%
%ADD13C,2.500000*%
%ADD14C,3.000000*%
%ADD15R,2.080000X3.600000*%
%ADD16O,2.080000X3.600000*%
%ADD17R,5.080000X2.420000*%
%ADD18C,0.970000*%
%ADD19R,0.890000X0.460000*%
%ADD20R,0.750000X0.800000*%
%ADD21R,0.800000X0.750000*%
%ADD22R,0.800000X0.600000*%
%ADD23R,0.900000X0.800000*%
%ADD24R,0.500000X0.900000*%
%ADD25R,0.900000X0.500000*%
%ADD26R,0.250000X1.300000*%
%ADD27R,1.300000X0.250000*%
%ADD28R,2.200000X1.200000*%
%ADD29R,6.400000X5.800000*%
%ADD30R,3.050000X2.750000*%
%ADD31R,1.400000X1.200000*%
%ADD32R,1.000000X1.800000*%
%ADD33R,3.800000X2.000000*%
%ADD34R,1.500000X2.000000*%
%ADD35R,1.700000X1.700000*%
%ADD36O,1.700000X1.700000*%
%ADD37C,1.000000*%
%ADD38R,2.200000X2.200000*%
%ADD39O,2.200000X2.200000*%
%ADD40R,1.700000X1.100000*%
%ADD41O,1.700000X1.100000*%
%ADD42O,3.900000X1.600000*%
%ADD43C,5.400000*%
%ADD44C,0.200000*%
%ADD45C,0.700000*%
%ADD46C,0.500000*%
%ADD47C,2.000000*%
%ADD48C,0.254000*%
G04 APERTURE END LIST*
D10*
D11*
X152759000Y-108712000D03*
X150009000Y-108712000D03*
D12*
X134366000Y-125984000D03*
X135382000Y-123698000D03*
X133350000Y-123698000D03*
X147955000Y-118745000D03*
X149225000Y-114935000D03*
X155575000Y-112395000D03*
X155575000Y-114935000D03*
X155575000Y-121285000D03*
X153035000Y-121285000D03*
X104902000Y-116332000D03*
X170053000Y-111252000D03*
X168529000Y-112776000D03*
X166878000Y-114427000D03*
X165227000Y-116078000D03*
X162814000Y-121920000D03*
X162814000Y-124460000D03*
X169164000Y-118364000D03*
X167894000Y-124460000D03*
X175260000Y-115697000D03*
X177800000Y-115697000D03*
X167894000Y-121920000D03*
X167894000Y-119761000D03*
X170688000Y-116840000D03*
X172720000Y-115697000D03*
X180340000Y-115697000D03*
X182880000Y-115697000D03*
D13*
X183954000Y-109616000D03*
D14*
X171754000Y-109616000D03*
X171704000Y-121666000D03*
D13*
X183954000Y-121616000D03*
D14*
X185904000Y-115666000D03*
D12*
X109790000Y-99350000D03*
X116790000Y-99350000D03*
X113290000Y-99350000D03*
X109790000Y-102850000D03*
X116790000Y-102850000D03*
X116790000Y-113350000D03*
X116790000Y-109850000D03*
X109790000Y-109850000D03*
X109790000Y-113350000D03*
X113290000Y-113350000D03*
X113290000Y-109850000D03*
X113290000Y-102850000D03*
X116790000Y-106350000D03*
X109790000Y-106350000D03*
X113290000Y-106350000D03*
X140335000Y-84455000D03*
X140335000Y-87630000D03*
X99695000Y-81280000D03*
X118745000Y-81280000D03*
X131445000Y-102235000D03*
X134620000Y-99060000D03*
X99695000Y-109855000D03*
X156845000Y-97155000D03*
X153035000Y-97155000D03*
X149860000Y-97155000D03*
X156845000Y-94615000D03*
X153035000Y-94615000D03*
X149860000Y-94615000D03*
X156845000Y-92075000D03*
X153035000Y-92075000D03*
X138430000Y-109220000D03*
X138430000Y-111125000D03*
X138430000Y-113030000D03*
X135255000Y-109220000D03*
X135255000Y-111125000D03*
X135255000Y-113030000D03*
X132080000Y-109220000D03*
X132080000Y-111125000D03*
X132080000Y-113030000D03*
X121920000Y-87630000D03*
X125095000Y-84455000D03*
X121920000Y-84455000D03*
X118745000Y-84455000D03*
X137160000Y-104775000D03*
X140335000Y-104775000D03*
X122555000Y-110490000D03*
X144145000Y-99060000D03*
X125095000Y-87630000D03*
X115570000Y-84455000D03*
X125095000Y-81280000D03*
X121920000Y-81280000D03*
X112395000Y-87630000D03*
X121920000Y-90805000D03*
X115570000Y-87630000D03*
X118745000Y-87630000D03*
X115570000Y-81280000D03*
X99695000Y-113665000D03*
X99695000Y-117475000D03*
X99695000Y-132080000D03*
X140335000Y-90805000D03*
X140335000Y-81280000D03*
X108585000Y-86995000D03*
X106045000Y-84455000D03*
X102870000Y-81280000D03*
X103505000Y-109855000D03*
X99695000Y-106045000D03*
X114935000Y-121920000D03*
X118110000Y-120015000D03*
X117475000Y-121920000D03*
X113030000Y-121920000D03*
X114935000Y-123190000D03*
X116205000Y-121920000D03*
X113665000Y-127635000D03*
X112395000Y-127254000D03*
X104521000Y-125730000D03*
X112395000Y-124460000D03*
X104521000Y-123190000D03*
X118110000Y-121031000D03*
X113030000Y-123190000D03*
X111125000Y-123190000D03*
X111125000Y-120650000D03*
X111125000Y-121920000D03*
X106045000Y-127635000D03*
X107442000Y-127381000D03*
X106045000Y-125730000D03*
X106045000Y-123190000D03*
X107315000Y-123190000D03*
X108585000Y-123190000D03*
X108585000Y-121920000D03*
X108585000Y-120650000D03*
X115570000Y-124460000D03*
X104902000Y-115189000D03*
X103886000Y-115189000D03*
X103886000Y-116332000D03*
X104902000Y-117475000D03*
X103886000Y-117475000D03*
X157226000Y-106680000D03*
X155956000Y-106680000D03*
X104140000Y-95885000D03*
X99695000Y-95885000D03*
X103505000Y-132080000D03*
D15*
X137390000Y-126619000D03*
D16*
X142470000Y-126619000D03*
X147550000Y-126619000D03*
X152630000Y-126619000D03*
X157710000Y-126619000D03*
X162790000Y-126619000D03*
X167870000Y-126619000D03*
X172950000Y-126619000D03*
D17*
X100584000Y-120272000D03*
X100584000Y-129032000D03*
D18*
X104024000Y-120272000D03*
X104024000Y-129032000D03*
D19*
X103574000Y-120272000D03*
X103574000Y-129032000D03*
D20*
X163957000Y-81673000D03*
X163957000Y-83173000D03*
D21*
X165469000Y-80264000D03*
X163969000Y-80264000D03*
D20*
X156845000Y-81685000D03*
X156845000Y-83185000D03*
X158242000Y-81685000D03*
X158242000Y-83185000D03*
D21*
X157619000Y-87249000D03*
X159119000Y-87249000D03*
D20*
X166370000Y-83578000D03*
X166370000Y-85078000D03*
X160655000Y-99175000D03*
X160655000Y-97675000D03*
D21*
X172581000Y-96012000D03*
X171081000Y-96012000D03*
D20*
X126238000Y-111010000D03*
X126238000Y-112510000D03*
X132588000Y-81685000D03*
X132588000Y-83185000D03*
D21*
X129782000Y-100965000D03*
X128282000Y-100965000D03*
X129782000Y-92456000D03*
X128282000Y-92456000D03*
D22*
X131064000Y-81573000D03*
X131064000Y-83273000D03*
X135128000Y-81612000D03*
X135128000Y-83312000D03*
X137668000Y-89076000D03*
X137668000Y-87376000D03*
X137668000Y-81636500D03*
X137668000Y-83336500D03*
X141097000Y-99148000D03*
X141097000Y-97448000D03*
X137795000Y-99148000D03*
X137795000Y-97448000D03*
D23*
X130302000Y-97536000D03*
X130302000Y-99436000D03*
X128302000Y-98486000D03*
X130302000Y-93985000D03*
X130302000Y-95885000D03*
X128302000Y-94935000D03*
D24*
X164707000Y-84709000D03*
X163207000Y-84709000D03*
X172847000Y-84963000D03*
X171347000Y-84963000D03*
X172847000Y-86741000D03*
X171347000Y-86741000D03*
X172847000Y-88519000D03*
X171347000Y-88519000D03*
X172847000Y-90297000D03*
X171347000Y-90297000D03*
X172847000Y-92075000D03*
X171347000Y-92075000D03*
X123825000Y-114046000D03*
X125325000Y-114046000D03*
D25*
X124460000Y-112522000D03*
X124460000Y-111022000D03*
D24*
X124865000Y-107442000D03*
X126365000Y-107442000D03*
X127532000Y-106426000D03*
X129032000Y-106426000D03*
X130199000Y-105537000D03*
X131699000Y-105537000D03*
X127532000Y-104648000D03*
X129032000Y-104648000D03*
D25*
X139446000Y-97421000D03*
X139446000Y-98921000D03*
D24*
X133084000Y-97536000D03*
X131584000Y-97536000D03*
X133084000Y-93980000D03*
X131584000Y-93980000D03*
X112978500Y-90424000D03*
X114478500Y-90424000D03*
X106819000Y-91376500D03*
X108319000Y-91376500D03*
D26*
X162318000Y-87356000D03*
X162818000Y-87356000D03*
X163318000Y-87356000D03*
X163818000Y-87356000D03*
X164318000Y-87356000D03*
X164818000Y-87356000D03*
X165318000Y-87356000D03*
X165818000Y-87356000D03*
X166318000Y-87356000D03*
X166818000Y-87356000D03*
X167318000Y-87356000D03*
X167818000Y-87356000D03*
D27*
X169418000Y-88956000D03*
X169418000Y-89456000D03*
X169418000Y-89956000D03*
X169418000Y-90456000D03*
X169418000Y-90956000D03*
X169418000Y-91456000D03*
X169418000Y-91956000D03*
X169418000Y-92456000D03*
X169418000Y-92956000D03*
X169418000Y-93456000D03*
X169418000Y-93956000D03*
X169418000Y-94456000D03*
D26*
X167818000Y-96056000D03*
X167318000Y-96056000D03*
X166818000Y-96056000D03*
X166318000Y-96056000D03*
X165818000Y-96056000D03*
X165318000Y-96056000D03*
X164818000Y-96056000D03*
X164318000Y-96056000D03*
X163818000Y-96056000D03*
X163318000Y-96056000D03*
X162818000Y-96056000D03*
X162318000Y-96056000D03*
D27*
X160718000Y-94456000D03*
X160718000Y-93956000D03*
X160718000Y-93456000D03*
X160718000Y-92956000D03*
X160718000Y-92456000D03*
X160718000Y-91956000D03*
X160718000Y-91456000D03*
X160718000Y-90956000D03*
X160718000Y-90456000D03*
X160718000Y-89956000D03*
X160718000Y-89456000D03*
X160718000Y-88956000D03*
D28*
X174752000Y-105912000D03*
X174752000Y-101352000D03*
D29*
X181052000Y-103632000D03*
D30*
X182727000Y-102107000D03*
X179377000Y-105157000D03*
X182727000Y-105157000D03*
X179377000Y-102107000D03*
D31*
X160020000Y-81319000D03*
X162220000Y-81319000D03*
X162220000Y-83019000D03*
X160020000Y-83019000D03*
D32*
X156992000Y-85090000D03*
X159492000Y-85090000D03*
D33*
X152781000Y-111125000D03*
D34*
X152781000Y-117425000D03*
X150481000Y-117425000D03*
X155081000Y-117425000D03*
D33*
X144399000Y-111150000D03*
D34*
X144399000Y-117450000D03*
X142099000Y-117450000D03*
X146699000Y-117450000D03*
D11*
X142113000Y-121158000D03*
X144863000Y-121158000D03*
D21*
X143625000Y-119380000D03*
X142125000Y-119380000D03*
D11*
X150473000Y-121158000D03*
X147723000Y-121158000D03*
D21*
X148983000Y-119380000D03*
X150483000Y-119380000D03*
D35*
X146812000Y-87249000D03*
D36*
X149352000Y-87249000D03*
D35*
X184531000Y-83185000D03*
D36*
X187071000Y-83185000D03*
X189611000Y-83185000D03*
D35*
X188976000Y-87630000D03*
D36*
X188976000Y-90170000D03*
X188976000Y-92710000D03*
X188976000Y-95250000D03*
X188976000Y-97790000D03*
D37*
X122785598Y-102002193D03*
X122728574Y-98717709D03*
X122682000Y-114046000D03*
X123964000Y-104648000D03*
X125857000Y-105537000D03*
D12*
X149860000Y-92075000D03*
X181102000Y-103632000D03*
X181102000Y-101600000D03*
X181102000Y-105664000D03*
X179324000Y-101600000D03*
X179324000Y-103632000D03*
X179324000Y-105664000D03*
X182880000Y-101600000D03*
X182880000Y-103632000D03*
X182880000Y-105664000D03*
D11*
X144421000Y-108712000D03*
X147171000Y-108712000D03*
D38*
X154813000Y-81661000D03*
D39*
X144653000Y-81661000D03*
D40*
X103505000Y-90436500D03*
D41*
X100905000Y-89636500D03*
X103505000Y-88836500D03*
X100905000Y-88036500D03*
X103505000Y-87236500D03*
D42*
X102205000Y-92486500D03*
X102205000Y-85186500D03*
D43*
X109790000Y-130350000D03*
X179790000Y-130350000D03*
X179790000Y-82350000D03*
X109790000Y-82350000D03*
D12*
X172974000Y-124460000D03*
X172974000Y-123190000D03*
X165318000Y-89245000D03*
X153415361Y-111149103D03*
X179197000Y-88646000D03*
X144379061Y-108662165D03*
X169545000Y-96012000D03*
X160655000Y-96012000D03*
X160655000Y-87249000D03*
X166370000Y-85852000D03*
X128016000Y-108902500D03*
X158369000Y-106680000D03*
X154686000Y-106680000D03*
X122785598Y-102002193D03*
X122728574Y-98717709D03*
X163830000Y-112522000D03*
X173863000Y-84963000D03*
X173863000Y-86741000D03*
X173863000Y-88519000D03*
X173863000Y-90297000D03*
X173863000Y-92075000D03*
X139446000Y-96520000D03*
X168402000Y-93472000D03*
X163322179Y-94995912D03*
X161800167Y-94488574D03*
X154940000Y-88198000D03*
X139446000Y-99695000D03*
X122682000Y-114046000D03*
X116141500Y-90424000D03*
X109855000Y-88836500D03*
X111188500Y-91376500D03*
X189738000Y-100203000D03*
X159384145Y-89981173D03*
X183578500Y-90805000D03*
X170340576Y-101351960D03*
X103147177Y-104220949D03*
X132588000Y-84074000D03*
X104065717Y-103119878D03*
X135128000Y-84074000D03*
X105039551Y-102015949D03*
X137668000Y-86487000D03*
X105045494Y-100931574D03*
X137668000Y-84074000D03*
X102235000Y-105410000D03*
X141097000Y-96520000D03*
X122682000Y-107442000D03*
X122682000Y-106426000D03*
X122682000Y-105537000D03*
X122682000Y-104648000D03*
X167640000Y-81915000D03*
D44*
X162818000Y-96056000D02*
X162818000Y-97587000D01*
X162818000Y-97587000D02*
X161230000Y-99175000D01*
X161230000Y-99175000D02*
X160655000Y-99175000D01*
X169418000Y-93956000D02*
X171100000Y-93956000D01*
X171100000Y-93956000D02*
X172581000Y-95437000D01*
X172581000Y-95437000D02*
X172581000Y-96012000D01*
X160718000Y-89456000D02*
X164640998Y-89456000D01*
X164640998Y-89456000D02*
X165029999Y-89845001D01*
X165029999Y-89845001D02*
X165606001Y-89845001D01*
X165606001Y-89845001D02*
X165989000Y-89462002D01*
X165989000Y-89462002D02*
X165989000Y-88377000D01*
X165989000Y-88377000D02*
X165818000Y-88206000D01*
X165818000Y-88206000D02*
X165818000Y-87356000D01*
X157619000Y-87249000D02*
X157661000Y-87249000D01*
X157661000Y-87249000D02*
X159868000Y-89456000D01*
X159868000Y-89456000D02*
X160718000Y-89456000D01*
X165318000Y-87356000D02*
X165318000Y-89245000D01*
X163957000Y-83173000D02*
X163195000Y-83173000D01*
X163195000Y-83173000D02*
X162374000Y-83173000D01*
X163207000Y-83185000D02*
X163195000Y-83173000D01*
X163207000Y-84709000D02*
X163207000Y-83185000D01*
X162374000Y-83173000D02*
X162220000Y-83019000D01*
X163969000Y-80264000D02*
X160275000Y-80264000D01*
X160275000Y-80264000D02*
X160020000Y-80519000D01*
X160020000Y-80519000D02*
X160020000Y-81319000D01*
X160020000Y-81319000D02*
X160160002Y-81319000D01*
X160160002Y-81319000D02*
X161219999Y-82378997D01*
X161219999Y-83859001D02*
X162900944Y-85539946D01*
X161219999Y-82378997D02*
X161219999Y-83859001D01*
X162900944Y-85539946D02*
X163517946Y-85539946D01*
X163517946Y-85539946D02*
X164318000Y-86340000D01*
X164318000Y-86340000D02*
X164318000Y-86506000D01*
X164318000Y-86506000D02*
X164318000Y-87356000D01*
X156845000Y-83185000D02*
X156845000Y-84943000D01*
X156845000Y-84943000D02*
X156992000Y-85090000D01*
X156992000Y-85090000D02*
X156992000Y-85490000D01*
X156992000Y-85490000D02*
X157846353Y-86344353D01*
X157846353Y-86344353D02*
X163090655Y-86344353D01*
X163322000Y-87352000D02*
X163318000Y-87356000D01*
X163090655Y-86344353D02*
X163322000Y-86575698D01*
X163322000Y-86575698D02*
X163322000Y-87352000D01*
X159492000Y-85090000D02*
X160341956Y-85939956D01*
X160341956Y-85939956D02*
X163251956Y-85939956D01*
X163251956Y-85939956D02*
X163818000Y-86506000D01*
X163818000Y-86506000D02*
X163818000Y-87356000D01*
X158242000Y-83185000D02*
X158242000Y-84540000D01*
X158242000Y-84540000D02*
X158792000Y-85090000D01*
X158792000Y-85090000D02*
X159492000Y-85090000D01*
D45*
X152781000Y-111783464D02*
X153115362Y-111449102D01*
X153115362Y-110849104D02*
X153415361Y-111149103D01*
X152759000Y-110492742D02*
X153115362Y-110849104D01*
X152759000Y-108712000D02*
X152759000Y-110492742D01*
X153115362Y-111449102D02*
X153415361Y-111149103D01*
X152781000Y-117425000D02*
X152781000Y-111783464D01*
X144399000Y-111150000D02*
X144399000Y-117450000D01*
X144379061Y-108662165D02*
X144379061Y-111130061D01*
D46*
X144379061Y-111130061D02*
X144399000Y-111150000D01*
D45*
X144379061Y-108670061D02*
X144379061Y-108662165D01*
X144421000Y-108712000D02*
X144379061Y-108670061D01*
X144399000Y-108682104D02*
X144379061Y-108662165D01*
D44*
X166318000Y-87356000D02*
X166318000Y-85904000D01*
X166318000Y-85904000D02*
X166370000Y-85852000D01*
X162318000Y-87356000D02*
X162159000Y-87356000D01*
X162159000Y-87356000D02*
X162052000Y-87249000D01*
X160718000Y-88956000D02*
X160718000Y-88836000D01*
X160718000Y-88836000D02*
X160655000Y-88773000D01*
D46*
X160655000Y-87249000D02*
X162052000Y-87249000D01*
X160655000Y-87249000D02*
X160655000Y-88773000D01*
D44*
X169418000Y-94456000D02*
X169418000Y-94488000D01*
X169418000Y-94488000D02*
X169545000Y-94615000D01*
D46*
X169545000Y-96012000D02*
X169545000Y-94615000D01*
D44*
X162318000Y-96056000D02*
X162223000Y-96056000D01*
X162223000Y-96056000D02*
X162179000Y-96012000D01*
D46*
X160655000Y-96012000D02*
X162179000Y-96012000D01*
D45*
X160655000Y-96012000D02*
X160655000Y-97675000D01*
X169545000Y-96012000D02*
X171081000Y-96012000D01*
X160655000Y-87249000D02*
X159119000Y-87249000D01*
D46*
X166370000Y-85078000D02*
X166370000Y-85852000D01*
D44*
X124460000Y-112522000D02*
X125349000Y-112522000D01*
X125349000Y-112522000D02*
X126226000Y-112522000D01*
X125325000Y-114046000D02*
X125325000Y-112546000D01*
X125325000Y-112546000D02*
X125349000Y-112522000D01*
X126226000Y-112522000D02*
X126238000Y-112510000D01*
X126238000Y-112485000D02*
X126238418Y-112484582D01*
X162643938Y-103224070D02*
X168643011Y-97224997D01*
X126238418Y-112484582D02*
X127615538Y-112484582D01*
X168568000Y-91456000D02*
X169418000Y-91456000D01*
X127615538Y-112484582D02*
X136876050Y-103224070D01*
X136876050Y-103224070D02*
X162643938Y-103224070D01*
X168643011Y-97224997D02*
X168643011Y-94996013D01*
X168643011Y-94996013D02*
X167801999Y-94155001D01*
X167801999Y-94155001D02*
X167801999Y-92222001D01*
X167801999Y-92222001D02*
X168568000Y-91456000D01*
X123085597Y-101702194D02*
X122785598Y-102002193D01*
X126301791Y-98486000D02*
X123085597Y-101702194D01*
X128302000Y-98486000D02*
X126301791Y-98486000D01*
X128282000Y-100965000D02*
X128282000Y-98506000D01*
X128282000Y-98506000D02*
X128302000Y-98486000D01*
X123028573Y-98417710D02*
X122728574Y-98717709D01*
X126511283Y-94935000D02*
X123028573Y-98417710D01*
X128302000Y-94935000D02*
X126511283Y-94935000D01*
X128282000Y-92456000D02*
X128282000Y-94915000D01*
X128282000Y-94915000D02*
X128302000Y-94935000D01*
D45*
X163830000Y-112522000D02*
X170440000Y-105912000D01*
X170440000Y-105912000D02*
X174752000Y-105912000D01*
D44*
X172847000Y-84963000D02*
X173863000Y-84963000D01*
X172847000Y-86741000D02*
X173863000Y-86741000D01*
X172847000Y-88519000D02*
X173863000Y-88519000D01*
X173863000Y-90297000D02*
X172847000Y-90297000D01*
X172847000Y-92075000D02*
X173863000Y-92075000D01*
X137795000Y-97448000D02*
X139419000Y-97448000D01*
X139419000Y-97448000D02*
X139446000Y-97421000D01*
X139446000Y-97421000D02*
X139446000Y-96520000D01*
X168552000Y-93472000D02*
X168402000Y-93472000D01*
X169418000Y-93456000D02*
X168568000Y-93456000D01*
X168568000Y-93456000D02*
X168552000Y-93472000D01*
X163318000Y-95000091D02*
X163322179Y-94995912D01*
X163318000Y-96056000D02*
X163318000Y-95000091D01*
X161767593Y-94456000D02*
X161800167Y-94488574D01*
X160718000Y-94456000D02*
X161767593Y-94456000D01*
X103505000Y-90436500D02*
X112966000Y-90436500D01*
X112966000Y-90436500D02*
X112978500Y-90424000D01*
X106819000Y-91376500D02*
X101895000Y-91376500D01*
X101895000Y-91376500D02*
X100905000Y-90386500D01*
X100905000Y-90386500D02*
X100905000Y-89636500D01*
D47*
X162790000Y-126619000D02*
X162790000Y-124484000D01*
D46*
X162790000Y-124484000D02*
X162814000Y-124460000D01*
D47*
X166878000Y-114427000D02*
X165227000Y-116078000D01*
X168529000Y-112776000D02*
X166878000Y-114427000D01*
X170053000Y-111252000D02*
X168529000Y-112776000D01*
X171754000Y-109616000D02*
X171689000Y-109616000D01*
X171689000Y-109616000D02*
X170053000Y-111252000D01*
X165227000Y-116078000D02*
X165292000Y-116078000D01*
X165292000Y-116078000D02*
X171754000Y-109616000D01*
X162790000Y-126619000D02*
X162790000Y-121944000D01*
X162790000Y-121944000D02*
X162814000Y-121920000D01*
X162790000Y-126619000D02*
X162790000Y-118580000D01*
X162790000Y-118580000D02*
X171754000Y-109616000D01*
X172974000Y-123190000D02*
X172974000Y-122936000D01*
X172974000Y-122936000D02*
X171704000Y-121666000D01*
X172974000Y-124460000D02*
X172974000Y-123190000D01*
X172950000Y-126619000D02*
X172950000Y-124484000D01*
X172950000Y-124484000D02*
X172974000Y-124460000D01*
X172950000Y-126619000D02*
X172950000Y-122912000D01*
X172950000Y-122912000D02*
X171704000Y-121666000D01*
X182880000Y-115697000D02*
X185873000Y-115697000D01*
X185873000Y-115697000D02*
X185904000Y-115666000D01*
X180340000Y-115697000D02*
X182880000Y-115697000D01*
X177800000Y-115697000D02*
X180340000Y-115697000D01*
X175260000Y-115697000D02*
X177800000Y-115697000D01*
X172720000Y-115697000D02*
X175260000Y-115697000D01*
X171862000Y-115666000D02*
X171893000Y-115697000D01*
X171893000Y-115697000D02*
X172720000Y-115697000D01*
X170688000Y-116840000D02*
X171862000Y-115666000D01*
X171862000Y-115666000D02*
X171870488Y-115666000D01*
X169164000Y-118364000D02*
X170688000Y-116840000D01*
X167894000Y-119761000D02*
X167894000Y-119634000D01*
X167894000Y-119634000D02*
X169164000Y-118364000D01*
X167894000Y-121920000D02*
X167894000Y-119761000D01*
X167894000Y-124460000D02*
X167894000Y-121920000D01*
X167870000Y-126619000D02*
X167870000Y-124484000D01*
X167870000Y-124484000D02*
X167894000Y-124460000D01*
X167870000Y-126619000D02*
X167870000Y-119666488D01*
X167870000Y-119666488D02*
X171870488Y-115666000D01*
X183782680Y-115666000D02*
X185904000Y-115666000D01*
X171870488Y-115666000D02*
X183782680Y-115666000D01*
D44*
X131584000Y-97536000D02*
X130302000Y-97536000D01*
X131584000Y-93980000D02*
X130307000Y-93980000D01*
X130307000Y-93980000D02*
X130302000Y-93985000D01*
X164818000Y-87356000D02*
X164818000Y-84820000D01*
X164818000Y-84820000D02*
X164707000Y-84709000D01*
X171347000Y-84963000D02*
X168861000Y-84963000D01*
X168861000Y-84963000D02*
X167318000Y-86506000D01*
X167318000Y-86506000D02*
X167318000Y-87356000D01*
X167818000Y-87356000D02*
X167818000Y-86831000D01*
X167818000Y-86831000D02*
X167897613Y-86751387D01*
X167897613Y-86751387D02*
X171361500Y-86751387D01*
X169418000Y-88956000D02*
X170910000Y-88956000D01*
X170910000Y-88956000D02*
X171347000Y-88519000D01*
X169418000Y-89456000D02*
X170706000Y-89456000D01*
X170706000Y-89456000D02*
X171347000Y-90097000D01*
X171347000Y-90097000D02*
X171347000Y-90297000D01*
X169418000Y-89956000D02*
X170233002Y-89956000D01*
X170233002Y-89956000D02*
X170796999Y-90519997D01*
X170796999Y-90519997D02*
X170796999Y-91802999D01*
X170796999Y-91802999D02*
X171069000Y-92075000D01*
X171069000Y-92075000D02*
X171347000Y-92075000D01*
X171347000Y-91875000D02*
X171347000Y-92075000D01*
X139446000Y-98921000D02*
X139446000Y-99695000D01*
X123825000Y-114046000D02*
X122682000Y-114046000D01*
X163818000Y-96906000D02*
X163818000Y-96056000D01*
X163818000Y-99787209D02*
X163818000Y-96906000D01*
X161981182Y-101624027D02*
X163818000Y-99787209D01*
X126365000Y-107442000D02*
X126365000Y-107642000D01*
X122081999Y-104359999D02*
X122593999Y-103847999D01*
X136213295Y-101624027D02*
X161981182Y-101624027D01*
X133989323Y-103847999D02*
X136213295Y-101624027D01*
X122081999Y-107730001D02*
X122081999Y-104359999D01*
X122543999Y-108192001D02*
X122081999Y-107730001D01*
X125814999Y-108192001D02*
X122543999Y-108192001D01*
X126365000Y-107642000D02*
X125814999Y-108192001D01*
X122593999Y-103847999D02*
X133989323Y-103847999D01*
X129032000Y-106426000D02*
X133108422Y-106426000D01*
X133108422Y-106426000D02*
X136710362Y-102824060D01*
X164418001Y-95105999D02*
X164318000Y-95206000D01*
X168243001Y-97059308D02*
X168243001Y-95165999D01*
X162478249Y-102824060D02*
X168243001Y-97059308D01*
X136710362Y-102824060D02*
X162478249Y-102824060D01*
X168243001Y-95165999D02*
X168183001Y-95105999D01*
X168183001Y-95105999D02*
X164418001Y-95105999D01*
X164318000Y-95206000D02*
X164318000Y-96056000D01*
X136544673Y-102424049D02*
X162312560Y-102424049D01*
X162312560Y-102424049D02*
X165318000Y-99418609D01*
X165318000Y-96906000D02*
X165318000Y-96056000D01*
X131699000Y-105537000D02*
X133431722Y-105537000D01*
X165318000Y-99418609D02*
X165318000Y-96906000D01*
X133431722Y-105537000D02*
X136544673Y-102424049D01*
X164818000Y-96906000D02*
X164818000Y-96056000D01*
X164818000Y-99352909D02*
X164818000Y-96906000D01*
X136378984Y-102024038D02*
X162146871Y-102024038D01*
X129032000Y-104648000D02*
X133755022Y-104648000D01*
X162146871Y-102024038D02*
X164818000Y-99352909D01*
X133755022Y-104648000D02*
X136378984Y-102024038D01*
X160718000Y-93456000D02*
X136964000Y-93456000D01*
X136964000Y-93456000D02*
X133084000Y-97336000D01*
X133084000Y-97336000D02*
X133084000Y-97536000D01*
X133084000Y-93980000D02*
X133534000Y-93980000D01*
X133534000Y-93980000D02*
X134558000Y-92956000D01*
X134558000Y-92956000D02*
X159868000Y-92956000D01*
X159868000Y-92956000D02*
X160718000Y-92956000D01*
X114478500Y-90424000D02*
X116141500Y-90424000D01*
X108319000Y-91376500D02*
X111188500Y-91376500D01*
X160718000Y-90456000D02*
X159858972Y-90456000D01*
X159858972Y-90456000D02*
X159384145Y-89981173D01*
X183578500Y-90805000D02*
X183578500Y-91422603D01*
X181752998Y-92956000D02*
X169418000Y-92956000D01*
X183578500Y-91422603D02*
X182045103Y-92956000D01*
X182045103Y-92956000D02*
X181752998Y-92956000D01*
D45*
X150473000Y-121285000D02*
X150473000Y-122840000D01*
X150473000Y-122840000D02*
X150495000Y-122862000D01*
X150483000Y-119380000D02*
X150483000Y-121275000D01*
X150483000Y-121275000D02*
X150473000Y-121285000D01*
X150481000Y-117425000D02*
X150481000Y-119378000D01*
X150481000Y-119378000D02*
X150483000Y-119380000D01*
X142240000Y-122862000D02*
X150495000Y-122862000D01*
X150495000Y-122862000D02*
X157072002Y-122862000D01*
X142125000Y-119380000D02*
X142125000Y-117476000D01*
X142125000Y-117476000D02*
X142099000Y-117450000D01*
X142113000Y-121285000D02*
X142113000Y-119392000D01*
X142113000Y-119392000D02*
X142125000Y-119380000D01*
X142113000Y-121285000D02*
X142113000Y-122735000D01*
X142113000Y-122735000D02*
X142240000Y-122862000D01*
X160274000Y-111418536D02*
X170340576Y-101351960D01*
X157072002Y-122862000D02*
X160274000Y-119660002D01*
X160274000Y-119660002D02*
X160274000Y-111418536D01*
X174752000Y-101352000D02*
X170340536Y-101352000D01*
D44*
X149352000Y-87249000D02*
X153059000Y-90956000D01*
X153059000Y-90956000D02*
X159995413Y-90956000D01*
X159995413Y-90956000D02*
X160718000Y-90956000D01*
X131064000Y-83273000D02*
X132500000Y-83273000D01*
X132500000Y-83273000D02*
X132588000Y-83185000D01*
X132588000Y-84074000D02*
X132588000Y-83185000D01*
X135128000Y-84074000D02*
X135128000Y-83312000D01*
X137668000Y-86487000D02*
X137668000Y-87376000D01*
X137668000Y-84074000D02*
X137668000Y-83336500D01*
X141097000Y-97448000D02*
X141097000Y-96520000D01*
X122682000Y-107442000D02*
X124865000Y-107442000D01*
X122682000Y-106426000D02*
X127532000Y-106426000D01*
X125857000Y-105537000D02*
X122682000Y-105537000D01*
X130199000Y-105537000D02*
X125857000Y-105537000D01*
X127532000Y-104648000D02*
X123964000Y-104648000D01*
X123964000Y-104648000D02*
X122682000Y-104648000D01*
X167640000Y-85470002D02*
X167640000Y-81915000D01*
X166818000Y-87356000D02*
X166818000Y-86292002D01*
X166818000Y-86292002D02*
X167640000Y-85470002D01*
D48*
G36*
X105537000Y-117729000D02*
X103251000Y-117729000D01*
X103251000Y-114935000D01*
X105537000Y-114935000D01*
X105537000Y-117729000D01*
X105537000Y-117729000D01*
G37*
X105537000Y-117729000D02*
X103251000Y-117729000D01*
X103251000Y-114935000D01*
X105537000Y-114935000D01*
X105537000Y-117729000D01*
G36*
X158750000Y-107188000D02*
X154305000Y-107188000D01*
X154305000Y-106172000D01*
X158750000Y-106172000D01*
X158750000Y-107188000D01*
X158750000Y-107188000D01*
G37*
X158750000Y-107188000D02*
X154305000Y-107188000D01*
X154305000Y-106172000D01*
X158750000Y-106172000D01*
X158750000Y-107188000D01*
G36*
X107589414Y-79969809D02*
X109790000Y-82170395D01*
X111990586Y-79969809D01*
X111860280Y-79781000D01*
X163202406Y-79781000D01*
X163202001Y-79783000D01*
X160275000Y-79783000D01*
X160090929Y-79819614D01*
X159934881Y-79923882D01*
X159679882Y-80178882D01*
X159578549Y-80330536D01*
X159320000Y-80330536D01*
X159178810Y-80357103D01*
X159049135Y-80440546D01*
X158962141Y-80567866D01*
X158931536Y-80719000D01*
X158931536Y-81919000D01*
X158958103Y-82060190D01*
X159041546Y-82189865D01*
X159168866Y-82276859D01*
X159320000Y-82307464D01*
X160468230Y-82307464D01*
X160738999Y-82578233D01*
X160738999Y-83859001D01*
X160766727Y-83998397D01*
X160775613Y-84043072D01*
X160879881Y-84199119D01*
X162139717Y-85458956D01*
X160541193Y-85458956D01*
X160380464Y-85298227D01*
X160380464Y-84190000D01*
X160353897Y-84048810D01*
X160270454Y-83919135D01*
X160143134Y-83832141D01*
X159992000Y-83801536D01*
X158992000Y-83801536D01*
X158921050Y-83814886D01*
X158974859Y-83736134D01*
X159005464Y-83585000D01*
X159005464Y-82785000D01*
X158978897Y-82643810D01*
X158895454Y-82514135D01*
X158768134Y-82427141D01*
X158617000Y-82396536D01*
X157867000Y-82396536D01*
X157725810Y-82423103D01*
X157596135Y-82506546D01*
X157543315Y-82583851D01*
X157498454Y-82514135D01*
X157371134Y-82427141D01*
X157220000Y-82396536D01*
X156470000Y-82396536D01*
X156328810Y-82423103D01*
X156301464Y-82440700D01*
X156301464Y-80561000D01*
X156274897Y-80419810D01*
X156191454Y-80290135D01*
X156064134Y-80203141D01*
X155913000Y-80172536D01*
X153713000Y-80172536D01*
X153571810Y-80199103D01*
X153442135Y-80282546D01*
X153355141Y-80409866D01*
X153324536Y-80561000D01*
X153324536Y-82761000D01*
X153351103Y-82902190D01*
X153434546Y-83031865D01*
X153561866Y-83118859D01*
X153713000Y-83149464D01*
X155913000Y-83149464D01*
X156054190Y-83122897D01*
X156081536Y-83105300D01*
X156081536Y-83585000D01*
X156108103Y-83726190D01*
X156191546Y-83855865D01*
X156247865Y-83894346D01*
X156221135Y-83911546D01*
X156134141Y-84038866D01*
X156103536Y-84190000D01*
X156103536Y-85990000D01*
X156130103Y-86131190D01*
X156213546Y-86260865D01*
X156340866Y-86347859D01*
X156492000Y-86378464D01*
X157200227Y-86378464D01*
X157506235Y-86684472D01*
X157590836Y-86741000D01*
X157662282Y-86788739D01*
X157846353Y-86825353D01*
X158340387Y-86825353D01*
X158330536Y-86874000D01*
X158330536Y-87624000D01*
X158357103Y-87765190D01*
X158440546Y-87894865D01*
X158567866Y-87981859D01*
X158719000Y-88012464D01*
X159519000Y-88012464D01*
X159660190Y-87985897D01*
X159669354Y-87980000D01*
X160024000Y-87980000D01*
X160024000Y-88450815D01*
X159926810Y-88469103D01*
X159797135Y-88552546D01*
X159710141Y-88679866D01*
X159679536Y-88831000D01*
X159679536Y-89081000D01*
X159706103Y-89222190D01*
X159789546Y-89351865D01*
X159916866Y-89438859D01*
X159999072Y-89455506D01*
X159926810Y-89469103D01*
X159871036Y-89504993D01*
X159770404Y-89404186D01*
X159520199Y-89300291D01*
X159249280Y-89300055D01*
X158998893Y-89403512D01*
X158807158Y-89594914D01*
X158703263Y-89845119D01*
X158703027Y-90116038D01*
X158806484Y-90366425D01*
X158914870Y-90475000D01*
X153258237Y-90475000D01*
X151116102Y-88332865D01*
X154258882Y-88332865D01*
X154362339Y-88583252D01*
X154553741Y-88774987D01*
X154803946Y-88878882D01*
X155074865Y-88879118D01*
X155325252Y-88775661D01*
X155516987Y-88584259D01*
X155620882Y-88334054D01*
X155621118Y-88063135D01*
X155517661Y-87812748D01*
X155326259Y-87621013D01*
X155076054Y-87517118D01*
X154805135Y-87516882D01*
X154554748Y-87620339D01*
X154363013Y-87811741D01*
X154259118Y-88061946D01*
X154258882Y-88332865D01*
X151116102Y-88332865D01*
X150495624Y-87712388D01*
X150583000Y-87273117D01*
X150583000Y-87224883D01*
X150489296Y-86753800D01*
X150222448Y-86354435D01*
X149823083Y-86087587D01*
X149352000Y-85993883D01*
X148880917Y-86087587D01*
X148481552Y-86354435D01*
X148214704Y-86753800D01*
X148121000Y-87224883D01*
X148121000Y-87273117D01*
X148214704Y-87744200D01*
X148481552Y-88143565D01*
X148880917Y-88410413D01*
X149352000Y-88504117D01*
X149823083Y-88410413D01*
X149829134Y-88406370D01*
X152718882Y-91296119D01*
X152802313Y-91351865D01*
X152874929Y-91400386D01*
X153059000Y-91437000D01*
X159679536Y-91437000D01*
X159679536Y-91581000D01*
X159703920Y-91710588D01*
X159679536Y-91831000D01*
X159679536Y-92081000D01*
X159703920Y-92210588D01*
X159679536Y-92331000D01*
X159679536Y-92475000D01*
X134558000Y-92475000D01*
X134373929Y-92511614D01*
X134353896Y-92525000D01*
X134217882Y-92615881D01*
X133589983Y-93243781D01*
X133485134Y-93172141D01*
X133334000Y-93141536D01*
X132834000Y-93141536D01*
X132692810Y-93168103D01*
X132563135Y-93251546D01*
X132476141Y-93378866D01*
X132445536Y-93530000D01*
X132445536Y-94430000D01*
X132472103Y-94571190D01*
X132555546Y-94700865D01*
X132682866Y-94787859D01*
X132834000Y-94818464D01*
X133334000Y-94818464D01*
X133475190Y-94791897D01*
X133604865Y-94708454D01*
X133691859Y-94581134D01*
X133722464Y-94430000D01*
X133722464Y-94421451D01*
X133874118Y-94320118D01*
X134757237Y-93437000D01*
X136302763Y-93437000D01*
X133042228Y-96697536D01*
X132834000Y-96697536D01*
X132692810Y-96724103D01*
X132563135Y-96807546D01*
X132476141Y-96934866D01*
X132445536Y-97086000D01*
X132445536Y-97986000D01*
X132472103Y-98127190D01*
X132555546Y-98256865D01*
X132682866Y-98343859D01*
X132834000Y-98374464D01*
X133334000Y-98374464D01*
X133475190Y-98347897D01*
X133604865Y-98264454D01*
X133691859Y-98137134D01*
X133722464Y-97986000D01*
X133722464Y-97377772D01*
X133952236Y-97148000D01*
X137006536Y-97148000D01*
X137006536Y-97748000D01*
X137033103Y-97889190D01*
X137116546Y-98018865D01*
X137243866Y-98105859D01*
X137395000Y-98136464D01*
X138195000Y-98136464D01*
X138336190Y-98109897D01*
X138465865Y-98026454D01*
X138532452Y-97929000D01*
X138709268Y-97929000D01*
X138717546Y-97941865D01*
X138844866Y-98028859D01*
X138996000Y-98059464D01*
X139896000Y-98059464D01*
X140037190Y-98032897D01*
X140166865Y-97949454D01*
X140253859Y-97822134D01*
X140284464Y-97671000D01*
X140284464Y-97171000D01*
X140280137Y-97148000D01*
X140308536Y-97148000D01*
X140308536Y-97748000D01*
X140335103Y-97889190D01*
X140418546Y-98018865D01*
X140545866Y-98105859D01*
X140697000Y-98136464D01*
X141497000Y-98136464D01*
X141638190Y-98109897D01*
X141767865Y-98026454D01*
X141854859Y-97899134D01*
X141885464Y-97748000D01*
X141885464Y-97148000D01*
X141858897Y-97006810D01*
X141775454Y-96877135D01*
X141705833Y-96829565D01*
X141777882Y-96656054D01*
X141778118Y-96385135D01*
X141674661Y-96134748D01*
X141483259Y-95943013D01*
X141233054Y-95839118D01*
X140962135Y-95838882D01*
X140711748Y-95942339D01*
X140520013Y-96133741D01*
X140416118Y-96383946D01*
X140415882Y-96654865D01*
X140488108Y-96829668D01*
X140426135Y-96869546D01*
X140339141Y-96996866D01*
X140308536Y-97148000D01*
X140280137Y-97148000D01*
X140257897Y-97029810D01*
X140174454Y-96900135D01*
X140058444Y-96820869D01*
X140126882Y-96656054D01*
X140127118Y-96385135D01*
X140023661Y-96134748D01*
X139832259Y-95943013D01*
X139582054Y-95839118D01*
X139311135Y-95838882D01*
X139060748Y-95942339D01*
X138869013Y-96133741D01*
X138765118Y-96383946D01*
X138764882Y-96654865D01*
X138834114Y-96822420D01*
X138725135Y-96892546D01*
X138674263Y-96967000D01*
X138531280Y-96967000D01*
X138473454Y-96877135D01*
X138346134Y-96790141D01*
X138195000Y-96759536D01*
X137395000Y-96759536D01*
X137253810Y-96786103D01*
X137124135Y-96869546D01*
X137037141Y-96996866D01*
X137006536Y-97148000D01*
X133952236Y-97148000D01*
X137163237Y-93937000D01*
X159679536Y-93937000D01*
X159679536Y-94081000D01*
X159703920Y-94210588D01*
X159679536Y-94331000D01*
X159679536Y-94581000D01*
X159706103Y-94722190D01*
X159789546Y-94851865D01*
X159916866Y-94938859D01*
X160068000Y-94969464D01*
X161317978Y-94969464D01*
X161413908Y-95065561D01*
X161664113Y-95169456D01*
X161893363Y-95169656D01*
X161835141Y-95254866D01*
X161809599Y-95381000D01*
X161001125Y-95381000D01*
X160934742Y-95336644D01*
X160655000Y-95281000D01*
X160375258Y-95336644D01*
X160138105Y-95495105D01*
X159979644Y-95732258D01*
X159924000Y-96012000D01*
X159924000Y-97121145D01*
X159922141Y-97123866D01*
X159891536Y-97275000D01*
X159891536Y-98075000D01*
X159918103Y-98216190D01*
X160001546Y-98345865D01*
X160128866Y-98432859D01*
X160280000Y-98463464D01*
X161030000Y-98463464D01*
X161171190Y-98436897D01*
X161300865Y-98353454D01*
X161387859Y-98226134D01*
X161418464Y-98075000D01*
X161418464Y-97275000D01*
X161391897Y-97133810D01*
X161386000Y-97124646D01*
X161386000Y-96643000D01*
X161804536Y-96643000D01*
X161804536Y-96706000D01*
X161831103Y-96847190D01*
X161914546Y-96976865D01*
X162041866Y-97063859D01*
X162193000Y-97094464D01*
X162443000Y-97094464D01*
X162584190Y-97067897D01*
X162713865Y-96984454D01*
X162800859Y-96857134D01*
X162817506Y-96774928D01*
X162831103Y-96847190D01*
X162914546Y-96976865D01*
X163041866Y-97063859D01*
X163193000Y-97094464D01*
X163337000Y-97094464D01*
X163337000Y-99587973D01*
X161781946Y-101143027D01*
X136213295Y-101143027D01*
X136029224Y-101179641D01*
X135873176Y-101283909D01*
X133790087Y-103366999D01*
X122593999Y-103366999D01*
X122409928Y-103403613D01*
X122253880Y-103507881D01*
X121741881Y-104019881D01*
X121637613Y-104175928D01*
X121600999Y-104359999D01*
X121600999Y-107730001D01*
X121620544Y-107828259D01*
X121637613Y-107914072D01*
X121741881Y-108070119D01*
X122203881Y-108532120D01*
X122297425Y-108594623D01*
X122359928Y-108636387D01*
X122543999Y-108673001D01*
X125814999Y-108673001D01*
X125999070Y-108636387D01*
X126155117Y-108532119D01*
X126406772Y-108280464D01*
X126615000Y-108280464D01*
X126756190Y-108253897D01*
X126885865Y-108170454D01*
X126972859Y-108043134D01*
X127003464Y-107892000D01*
X127003464Y-107146738D01*
X127003546Y-107146865D01*
X127130866Y-107233859D01*
X127282000Y-107264464D01*
X127782000Y-107264464D01*
X127923190Y-107237897D01*
X128052865Y-107154454D01*
X128139859Y-107027134D01*
X128170464Y-106876000D01*
X128170464Y-106018000D01*
X128393536Y-106018000D01*
X128393536Y-106876000D01*
X128420103Y-107017190D01*
X128503546Y-107146865D01*
X128630866Y-107233859D01*
X128782000Y-107264464D01*
X129282000Y-107264464D01*
X129423190Y-107237897D01*
X129552865Y-107154454D01*
X129639859Y-107027134D01*
X129664186Y-106907000D01*
X132512883Y-106907000D01*
X127416302Y-112003582D01*
X126981440Y-112003582D01*
X126974897Y-111968810D01*
X126891454Y-111839135D01*
X126764134Y-111752141D01*
X126613000Y-111721536D01*
X125863000Y-111721536D01*
X125721810Y-111748103D01*
X125592135Y-111831546D01*
X125505141Y-111958866D01*
X125488509Y-112041000D01*
X125214106Y-112041000D01*
X125188454Y-112001135D01*
X125061134Y-111914141D01*
X124910000Y-111883536D01*
X124010000Y-111883536D01*
X123868810Y-111910103D01*
X123739135Y-111993546D01*
X123652141Y-112120866D01*
X123621536Y-112272000D01*
X123621536Y-112772000D01*
X123648103Y-112913190D01*
X123731546Y-113042865D01*
X123858866Y-113129859D01*
X124010000Y-113160464D01*
X124844000Y-113160464D01*
X124844000Y-113291894D01*
X124804135Y-113317546D01*
X124717141Y-113444866D01*
X124686536Y-113596000D01*
X124686536Y-114496000D01*
X124713103Y-114637190D01*
X124796546Y-114766865D01*
X124923866Y-114853859D01*
X125075000Y-114884464D01*
X125575000Y-114884464D01*
X125716190Y-114857897D01*
X125845865Y-114774454D01*
X125932859Y-114647134D01*
X125963464Y-114496000D01*
X125963464Y-113596000D01*
X125936897Y-113454810D01*
X125853454Y-113325135D01*
X125806000Y-113292711D01*
X125806000Y-113286921D01*
X125863000Y-113298464D01*
X126613000Y-113298464D01*
X126754190Y-113271897D01*
X126883865Y-113188454D01*
X126970859Y-113061134D01*
X126990209Y-112965582D01*
X127615538Y-112965582D01*
X127799609Y-112928968D01*
X127955656Y-112824700D01*
X130630356Y-110150000D01*
X142110536Y-110150000D01*
X142110536Y-112150000D01*
X142137103Y-112291190D01*
X142220546Y-112420865D01*
X142347866Y-112507859D01*
X142499000Y-112538464D01*
X143668000Y-112538464D01*
X143668000Y-116061536D01*
X143649000Y-116061536D01*
X143507810Y-116088103D01*
X143378135Y-116171546D01*
X143291141Y-116298866D01*
X143260536Y-116450000D01*
X143260536Y-118450000D01*
X143287103Y-118591190D01*
X143370546Y-118720865D01*
X143497866Y-118807859D01*
X143649000Y-118838464D01*
X145149000Y-118838464D01*
X145290190Y-118811897D01*
X145419865Y-118728454D01*
X145506859Y-118601134D01*
X145537464Y-118450000D01*
X145537464Y-116450000D01*
X145510897Y-116308810D01*
X145427454Y-116179135D01*
X145300134Y-116092141D01*
X145149000Y-116061536D01*
X145130000Y-116061536D01*
X145130000Y-112538464D01*
X146299000Y-112538464D01*
X146440190Y-112511897D01*
X146569865Y-112428454D01*
X146656859Y-112301134D01*
X146687464Y-112150000D01*
X146687464Y-110150000D01*
X146682760Y-110125000D01*
X150492536Y-110125000D01*
X150492536Y-112125000D01*
X150519103Y-112266190D01*
X150602546Y-112395865D01*
X150729866Y-112482859D01*
X150881000Y-112513464D01*
X152050000Y-112513464D01*
X152050000Y-116036536D01*
X152031000Y-116036536D01*
X151889810Y-116063103D01*
X151760135Y-116146546D01*
X151673141Y-116273866D01*
X151642536Y-116425000D01*
X151642536Y-118425000D01*
X151669103Y-118566190D01*
X151752546Y-118695865D01*
X151879866Y-118782859D01*
X152031000Y-118813464D01*
X153531000Y-118813464D01*
X153672190Y-118786897D01*
X153801865Y-118703454D01*
X153888859Y-118576134D01*
X153919464Y-118425000D01*
X153919464Y-116425000D01*
X153892897Y-116283810D01*
X153809454Y-116154135D01*
X153682134Y-116067141D01*
X153531000Y-116036536D01*
X153512000Y-116036536D01*
X153512000Y-112513464D01*
X154681000Y-112513464D01*
X154822190Y-112486897D01*
X154951865Y-112403454D01*
X155038859Y-112276134D01*
X155069464Y-112125000D01*
X155069464Y-110125000D01*
X155042897Y-109983810D01*
X154959454Y-109854135D01*
X154832134Y-109767141D01*
X154681000Y-109736536D01*
X154007542Y-109736536D01*
X154091859Y-109613134D01*
X154122464Y-109462000D01*
X154122464Y-107962000D01*
X154095897Y-107820810D01*
X154012454Y-107691135D01*
X153885134Y-107604141D01*
X153734000Y-107573536D01*
X151784000Y-107573536D01*
X151642810Y-107600103D01*
X151513135Y-107683546D01*
X151426141Y-107810866D01*
X151395536Y-107962000D01*
X151395536Y-109462000D01*
X151422103Y-109603190D01*
X151505546Y-109732865D01*
X151510919Y-109736536D01*
X150881000Y-109736536D01*
X150739810Y-109763103D01*
X150610135Y-109846546D01*
X150523141Y-109973866D01*
X150492536Y-110125000D01*
X146682760Y-110125000D01*
X146660897Y-110008810D01*
X146577454Y-109879135D01*
X146450134Y-109792141D01*
X146299000Y-109761536D01*
X145634102Y-109761536D01*
X145666865Y-109740454D01*
X145753859Y-109613134D01*
X145784464Y-109462000D01*
X145784464Y-107962000D01*
X145757897Y-107820810D01*
X145674454Y-107691135D01*
X145547134Y-107604141D01*
X145396000Y-107573536D01*
X143446000Y-107573536D01*
X143304810Y-107600103D01*
X143175135Y-107683546D01*
X143088141Y-107810866D01*
X143057536Y-107962000D01*
X143057536Y-109462000D01*
X143084103Y-109603190D01*
X143167546Y-109732865D01*
X143209507Y-109761536D01*
X142499000Y-109761536D01*
X142357810Y-109788103D01*
X142228135Y-109871546D01*
X142141141Y-109998866D01*
X142110536Y-110150000D01*
X130630356Y-110150000D01*
X134735356Y-106045000D01*
X153797000Y-106045000D01*
X153797000Y-107315000D01*
X153823056Y-107453477D01*
X153904896Y-107580660D01*
X154029770Y-107665983D01*
X154178000Y-107696000D01*
X158877000Y-107696000D01*
X159015477Y-107669944D01*
X159142660Y-107588104D01*
X159227983Y-107463230D01*
X159258000Y-107315000D01*
X159258000Y-106045000D01*
X159231944Y-105906523D01*
X159150104Y-105779340D01*
X159025230Y-105694017D01*
X158877000Y-105664000D01*
X154178000Y-105664000D01*
X154039523Y-105690056D01*
X153912340Y-105771896D01*
X153827017Y-105896770D01*
X153797000Y-106045000D01*
X134735356Y-106045000D01*
X137075287Y-103705070D01*
X162643938Y-103705070D01*
X162828009Y-103668456D01*
X162984056Y-103564188D01*
X166210379Y-100337865D01*
X189056882Y-100337865D01*
X189160339Y-100588252D01*
X189351741Y-100779987D01*
X189601946Y-100883882D01*
X189872865Y-100884118D01*
X190123252Y-100780661D01*
X190314987Y-100589259D01*
X190418882Y-100339054D01*
X190419118Y-100068135D01*
X190315661Y-99817748D01*
X190124259Y-99626013D01*
X189874054Y-99522118D01*
X189603135Y-99521882D01*
X189352748Y-99625339D01*
X189161013Y-99816741D01*
X189057118Y-100066946D01*
X189056882Y-100337865D01*
X166210379Y-100337865D01*
X168401354Y-98146890D01*
X187534524Y-98146890D01*
X187704355Y-98556924D01*
X188094642Y-98985183D01*
X188619108Y-99231486D01*
X188849000Y-99110819D01*
X188849000Y-97917000D01*
X189103000Y-97917000D01*
X189103000Y-99110819D01*
X189332892Y-99231486D01*
X189857358Y-98985183D01*
X190247645Y-98556924D01*
X190417476Y-98146890D01*
X190296155Y-97917000D01*
X189103000Y-97917000D01*
X188849000Y-97917000D01*
X187655845Y-97917000D01*
X187534524Y-98146890D01*
X168401354Y-98146890D01*
X168983129Y-97565116D01*
X169071332Y-97433110D01*
X187534524Y-97433110D01*
X187655845Y-97663000D01*
X188849000Y-97663000D01*
X188849000Y-97643000D01*
X189103000Y-97643000D01*
X189103000Y-97663000D01*
X190296155Y-97663000D01*
X190417476Y-97433110D01*
X190247645Y-97023076D01*
X189857358Y-96594817D01*
X189432053Y-96395083D01*
X189471200Y-96387296D01*
X189870565Y-96120448D01*
X190137413Y-95721083D01*
X190231117Y-95250000D01*
X190137413Y-94778917D01*
X189870565Y-94379552D01*
X189471200Y-94112704D01*
X189000117Y-94019000D01*
X188951883Y-94019000D01*
X188480800Y-94112704D01*
X188081435Y-94379552D01*
X187814587Y-94778917D01*
X187720883Y-95250000D01*
X187814587Y-95721083D01*
X188081435Y-96120448D01*
X188480800Y-96387296D01*
X188519947Y-96395083D01*
X188094642Y-96594817D01*
X187704355Y-97023076D01*
X187534524Y-97433110D01*
X169071332Y-97433110D01*
X169087397Y-97409068D01*
X169089315Y-97399426D01*
X169124011Y-97224997D01*
X169124011Y-96592978D01*
X169265258Y-96687356D01*
X169545000Y-96743000D01*
X170527145Y-96743000D01*
X170529866Y-96744859D01*
X170681000Y-96775464D01*
X171481000Y-96775464D01*
X171622190Y-96748897D01*
X171751865Y-96665454D01*
X171838859Y-96538134D01*
X171869464Y-96387000D01*
X171869464Y-95637000D01*
X171842897Y-95495810D01*
X171759454Y-95366135D01*
X171632134Y-95279141D01*
X171481000Y-95248536D01*
X170681000Y-95248536D01*
X170539810Y-95275103D01*
X170530646Y-95281000D01*
X170176000Y-95281000D01*
X170176000Y-94949142D01*
X170209190Y-94942897D01*
X170338865Y-94859454D01*
X170425859Y-94732134D01*
X170456464Y-94581000D01*
X170456464Y-94331000D01*
X170429897Y-94189810D01*
X170346454Y-94060135D01*
X170219134Y-93973141D01*
X170136928Y-93956494D01*
X170209190Y-93942897D01*
X170338865Y-93859454D01*
X170425859Y-93732134D01*
X170456464Y-93581000D01*
X170456464Y-93437000D01*
X182045103Y-93437000D01*
X182229174Y-93400386D01*
X182385221Y-93296118D01*
X182971339Y-92710000D01*
X187720883Y-92710000D01*
X187814587Y-93181083D01*
X188081435Y-93580448D01*
X188480800Y-93847296D01*
X188951883Y-93941000D01*
X189000117Y-93941000D01*
X189471200Y-93847296D01*
X189870565Y-93580448D01*
X190137413Y-93181083D01*
X190231117Y-92710000D01*
X190137413Y-92238917D01*
X189870565Y-91839552D01*
X189471200Y-91572704D01*
X189000117Y-91479000D01*
X188951883Y-91479000D01*
X188480800Y-91572704D01*
X188081435Y-91839552D01*
X187814587Y-92238917D01*
X187720883Y-92710000D01*
X182971339Y-92710000D01*
X183918618Y-91762721D01*
X183933131Y-91741001D01*
X184022886Y-91606674D01*
X184059500Y-91422603D01*
X184059500Y-91287079D01*
X184155487Y-91191259D01*
X184259382Y-90941054D01*
X184259618Y-90670135D01*
X184156161Y-90419748D01*
X183964759Y-90228013D01*
X183825050Y-90170000D01*
X187720883Y-90170000D01*
X187814587Y-90641083D01*
X188081435Y-91040448D01*
X188480800Y-91307296D01*
X188951883Y-91401000D01*
X189000117Y-91401000D01*
X189471200Y-91307296D01*
X189870565Y-91040448D01*
X190137413Y-90641083D01*
X190231117Y-90170000D01*
X190137413Y-89698917D01*
X189870565Y-89299552D01*
X189471200Y-89032704D01*
X189000117Y-88939000D01*
X188951883Y-88939000D01*
X188480800Y-89032704D01*
X188081435Y-89299552D01*
X187814587Y-89698917D01*
X187720883Y-90170000D01*
X183825050Y-90170000D01*
X183714554Y-90124118D01*
X183443635Y-90123882D01*
X183193248Y-90227339D01*
X183001513Y-90418741D01*
X182897618Y-90668946D01*
X182897382Y-90939865D01*
X183000839Y-91190252D01*
X183065671Y-91255196D01*
X181845867Y-92475000D01*
X174426222Y-92475000D01*
X174439987Y-92461259D01*
X174543882Y-92211054D01*
X174544118Y-91940135D01*
X174440661Y-91689748D01*
X174249259Y-91498013D01*
X173999054Y-91394118D01*
X173728135Y-91393882D01*
X173477748Y-91497339D01*
X173464021Y-91511042D01*
X173458897Y-91483810D01*
X173375454Y-91354135D01*
X173248134Y-91267141D01*
X173097000Y-91236536D01*
X172597000Y-91236536D01*
X172455810Y-91263103D01*
X172326135Y-91346546D01*
X172239141Y-91473866D01*
X172208536Y-91625000D01*
X172208536Y-92475000D01*
X171985464Y-92475000D01*
X171985464Y-91625000D01*
X171958897Y-91483810D01*
X171875454Y-91354135D01*
X171748134Y-91267141D01*
X171597000Y-91236536D01*
X171277999Y-91236536D01*
X171277999Y-91135464D01*
X171597000Y-91135464D01*
X171738190Y-91108897D01*
X171867865Y-91025454D01*
X171954859Y-90898134D01*
X171985464Y-90747000D01*
X171985464Y-89847000D01*
X172208536Y-89847000D01*
X172208536Y-90747000D01*
X172235103Y-90888190D01*
X172318546Y-91017865D01*
X172445866Y-91104859D01*
X172597000Y-91135464D01*
X173097000Y-91135464D01*
X173238190Y-91108897D01*
X173367865Y-91025454D01*
X173454859Y-90898134D01*
X173462614Y-90859836D01*
X173476741Y-90873987D01*
X173726946Y-90977882D01*
X173997865Y-90978118D01*
X174248252Y-90874661D01*
X174439987Y-90683259D01*
X174543882Y-90433054D01*
X174544118Y-90162135D01*
X174440661Y-89911748D01*
X174249259Y-89720013D01*
X173999054Y-89616118D01*
X173728135Y-89615882D01*
X173477748Y-89719339D01*
X173464021Y-89733042D01*
X173458897Y-89705810D01*
X173375454Y-89576135D01*
X173248134Y-89489141D01*
X173097000Y-89458536D01*
X172597000Y-89458536D01*
X172455810Y-89485103D01*
X172326135Y-89568546D01*
X172239141Y-89695866D01*
X172208536Y-89847000D01*
X171985464Y-89847000D01*
X171958897Y-89705810D01*
X171875454Y-89576135D01*
X171748134Y-89489141D01*
X171597000Y-89458536D01*
X171388772Y-89458536D01*
X171287700Y-89357464D01*
X171597000Y-89357464D01*
X171738190Y-89330897D01*
X171867865Y-89247454D01*
X171954859Y-89120134D01*
X171985464Y-88969000D01*
X171985464Y-88069000D01*
X172208536Y-88069000D01*
X172208536Y-88969000D01*
X172235103Y-89110190D01*
X172318546Y-89239865D01*
X172445866Y-89326859D01*
X172597000Y-89357464D01*
X173097000Y-89357464D01*
X173238190Y-89330897D01*
X173367865Y-89247454D01*
X173454859Y-89120134D01*
X173462614Y-89081836D01*
X173476741Y-89095987D01*
X173726946Y-89199882D01*
X173997865Y-89200118D01*
X174248252Y-89096661D01*
X174439987Y-88905259D01*
X174491640Y-88780865D01*
X178515882Y-88780865D01*
X178619339Y-89031252D01*
X178810741Y-89222987D01*
X179060946Y-89326882D01*
X179331865Y-89327118D01*
X179582252Y-89223661D01*
X179773987Y-89032259D01*
X179877882Y-88782054D01*
X179878118Y-88511135D01*
X179774661Y-88260748D01*
X179583259Y-88069013D01*
X179333054Y-87965118D01*
X179062135Y-87964882D01*
X178811748Y-88068339D01*
X178620013Y-88259741D01*
X178516118Y-88509946D01*
X178515882Y-88780865D01*
X174491640Y-88780865D01*
X174543882Y-88655054D01*
X174544118Y-88384135D01*
X174440661Y-88133748D01*
X174249259Y-87942013D01*
X173999054Y-87838118D01*
X173728135Y-87837882D01*
X173477748Y-87941339D01*
X173464021Y-87955042D01*
X173458897Y-87927810D01*
X173375454Y-87798135D01*
X173248134Y-87711141D01*
X173097000Y-87680536D01*
X172597000Y-87680536D01*
X172455810Y-87707103D01*
X172326135Y-87790546D01*
X172239141Y-87917866D01*
X172208536Y-88069000D01*
X171985464Y-88069000D01*
X171958897Y-87927810D01*
X171875454Y-87798135D01*
X171748134Y-87711141D01*
X171597000Y-87680536D01*
X171097000Y-87680536D01*
X170955810Y-87707103D01*
X170826135Y-87790546D01*
X170739141Y-87917866D01*
X170708536Y-88069000D01*
X170708536Y-88475000D01*
X170221855Y-88475000D01*
X170219134Y-88473141D01*
X170068000Y-88442536D01*
X168768000Y-88442536D01*
X168626810Y-88469103D01*
X168497135Y-88552546D01*
X168410141Y-88679866D01*
X168379536Y-88831000D01*
X168379536Y-89081000D01*
X168403920Y-89210588D01*
X168379536Y-89331000D01*
X168379536Y-89581000D01*
X168403920Y-89710588D01*
X168379536Y-89831000D01*
X168379536Y-90081000D01*
X168403920Y-90210588D01*
X168379536Y-90331000D01*
X168379536Y-90581000D01*
X168403920Y-90710588D01*
X168379536Y-90831000D01*
X168379536Y-91014549D01*
X168227882Y-91115882D01*
X167461881Y-91881883D01*
X167357613Y-92037930D01*
X167320999Y-92222001D01*
X167320999Y-94155001D01*
X167344845Y-94274882D01*
X167357613Y-94339072D01*
X167461881Y-94495119D01*
X167591761Y-94624999D01*
X164418001Y-94624999D01*
X164233930Y-94661613D01*
X164218279Y-94672071D01*
X164077883Y-94765880D01*
X163997280Y-94846484D01*
X163899840Y-94610660D01*
X163708438Y-94418925D01*
X163458233Y-94315030D01*
X163187314Y-94314794D01*
X162936927Y-94418251D01*
X162745192Y-94609653D01*
X162641297Y-94859858D01*
X162641105Y-95080235D01*
X162594134Y-95048141D01*
X162443000Y-95017536D01*
X162234203Y-95017536D01*
X162377154Y-94874833D01*
X162481049Y-94624628D01*
X162481285Y-94353709D01*
X162377828Y-94103322D01*
X162186426Y-93911587D01*
X161936221Y-93807692D01*
X161752048Y-93807532D01*
X161732080Y-93701412D01*
X161756464Y-93581000D01*
X161756464Y-93331000D01*
X161732080Y-93201412D01*
X161756464Y-93081000D01*
X161756464Y-92831000D01*
X161732080Y-92701412D01*
X161756464Y-92581000D01*
X161756464Y-92331000D01*
X161732080Y-92201412D01*
X161756464Y-92081000D01*
X161756464Y-91831000D01*
X161732080Y-91701412D01*
X161756464Y-91581000D01*
X161756464Y-91331000D01*
X161732080Y-91201412D01*
X161756464Y-91081000D01*
X161756464Y-90831000D01*
X161732080Y-90701412D01*
X161756464Y-90581000D01*
X161756464Y-90331000D01*
X161732080Y-90201412D01*
X161756464Y-90081000D01*
X161756464Y-89831000D01*
X161729897Y-89689810D01*
X161646454Y-89560135D01*
X161519134Y-89473141D01*
X161436928Y-89456494D01*
X161509190Y-89442897D01*
X161638865Y-89359454D01*
X161725859Y-89232134D01*
X161756464Y-89081000D01*
X161756464Y-88831000D01*
X161729897Y-88689810D01*
X161646454Y-88560135D01*
X161519134Y-88473141D01*
X161368000Y-88442536D01*
X161286000Y-88442536D01*
X161286000Y-87880000D01*
X161804536Y-87880000D01*
X161804536Y-88006000D01*
X161831103Y-88147190D01*
X161914546Y-88276865D01*
X162041866Y-88363859D01*
X162193000Y-88394464D01*
X162443000Y-88394464D01*
X162572588Y-88370080D01*
X162693000Y-88394464D01*
X162943000Y-88394464D01*
X163072588Y-88370080D01*
X163193000Y-88394464D01*
X163443000Y-88394464D01*
X163572588Y-88370080D01*
X163693000Y-88394464D01*
X163943000Y-88394464D01*
X164072588Y-88370080D01*
X164193000Y-88394464D01*
X164443000Y-88394464D01*
X164572588Y-88370080D01*
X164693000Y-88394464D01*
X164837000Y-88394464D01*
X164837000Y-88762921D01*
X164741013Y-88858741D01*
X164637118Y-89108946D01*
X164636882Y-89379865D01*
X164740339Y-89630252D01*
X164931741Y-89821987D01*
X165181946Y-89925882D01*
X165452865Y-89926118D01*
X165703252Y-89822661D01*
X165894987Y-89631259D01*
X165998882Y-89381054D01*
X165999118Y-89110135D01*
X165895661Y-88859748D01*
X165799000Y-88762919D01*
X165799000Y-88159855D01*
X165800859Y-88157134D01*
X165817506Y-88074928D01*
X165831103Y-88147190D01*
X165914546Y-88276865D01*
X166041866Y-88363859D01*
X166193000Y-88394464D01*
X166443000Y-88394464D01*
X166572588Y-88370080D01*
X166693000Y-88394464D01*
X166943000Y-88394464D01*
X167072588Y-88370080D01*
X167193000Y-88394464D01*
X167443000Y-88394464D01*
X167572588Y-88370080D01*
X167693000Y-88394464D01*
X167943000Y-88394464D01*
X168084190Y-88367897D01*
X168213865Y-88284454D01*
X168300859Y-88157134D01*
X168331464Y-88006000D01*
X168331464Y-87232387D01*
X170716324Y-87232387D01*
X170735103Y-87332190D01*
X170818546Y-87461865D01*
X170945866Y-87548859D01*
X171097000Y-87579464D01*
X171597000Y-87579464D01*
X171738190Y-87552897D01*
X171867865Y-87469454D01*
X171954859Y-87342134D01*
X171985464Y-87191000D01*
X171985464Y-86291000D01*
X172208536Y-86291000D01*
X172208536Y-87191000D01*
X172235103Y-87332190D01*
X172318546Y-87461865D01*
X172445866Y-87548859D01*
X172597000Y-87579464D01*
X173097000Y-87579464D01*
X173238190Y-87552897D01*
X173367865Y-87469454D01*
X173454859Y-87342134D01*
X173462614Y-87303836D01*
X173476741Y-87317987D01*
X173726946Y-87421882D01*
X173997865Y-87422118D01*
X174248252Y-87318661D01*
X174439987Y-87127259D01*
X174543882Y-86877054D01*
X174543966Y-86780000D01*
X187737536Y-86780000D01*
X187737536Y-88480000D01*
X187764103Y-88621190D01*
X187847546Y-88750865D01*
X187974866Y-88837859D01*
X188126000Y-88868464D01*
X189826000Y-88868464D01*
X189967190Y-88841897D01*
X190096865Y-88758454D01*
X190183859Y-88631134D01*
X190214464Y-88480000D01*
X190214464Y-86780000D01*
X190187897Y-86638810D01*
X190104454Y-86509135D01*
X189977134Y-86422141D01*
X189826000Y-86391536D01*
X188126000Y-86391536D01*
X187984810Y-86418103D01*
X187855135Y-86501546D01*
X187768141Y-86628866D01*
X187737536Y-86780000D01*
X174543966Y-86780000D01*
X174544118Y-86606135D01*
X174440661Y-86355748D01*
X174249259Y-86164013D01*
X173999054Y-86060118D01*
X173728135Y-86059882D01*
X173477748Y-86163339D01*
X173464021Y-86177042D01*
X173458897Y-86149810D01*
X173375454Y-86020135D01*
X173248134Y-85933141D01*
X173097000Y-85902536D01*
X172597000Y-85902536D01*
X172455810Y-85929103D01*
X172326135Y-86012546D01*
X172239141Y-86139866D01*
X172208536Y-86291000D01*
X171985464Y-86291000D01*
X171958897Y-86149810D01*
X171875454Y-86020135D01*
X171748134Y-85933141D01*
X171597000Y-85902536D01*
X171097000Y-85902536D01*
X170955810Y-85929103D01*
X170826135Y-86012546D01*
X170739141Y-86139866D01*
X170712710Y-86270387D01*
X168233849Y-86270387D01*
X169060237Y-85444000D01*
X170714369Y-85444000D01*
X170735103Y-85554190D01*
X170818546Y-85683865D01*
X170945866Y-85770859D01*
X171097000Y-85801464D01*
X171597000Y-85801464D01*
X171738190Y-85774897D01*
X171867865Y-85691454D01*
X171954859Y-85564134D01*
X171985464Y-85413000D01*
X171985464Y-84513000D01*
X172208536Y-84513000D01*
X172208536Y-85413000D01*
X172235103Y-85554190D01*
X172318546Y-85683865D01*
X172445866Y-85770859D01*
X172597000Y-85801464D01*
X173097000Y-85801464D01*
X173238190Y-85774897D01*
X173367865Y-85691454D01*
X173454859Y-85564134D01*
X173462614Y-85525836D01*
X173476741Y-85539987D01*
X173726946Y-85643882D01*
X173997865Y-85644118D01*
X174248252Y-85540661D01*
X174439987Y-85349259D01*
X174543882Y-85099054D01*
X174544118Y-84828135D01*
X174503649Y-84730191D01*
X177589414Y-84730191D01*
X177895472Y-85173659D01*
X179120252Y-85683725D01*
X180446995Y-85686262D01*
X181673716Y-85180883D01*
X181684528Y-85173659D01*
X181990586Y-84730191D01*
X179790000Y-82529605D01*
X177589414Y-84730191D01*
X174503649Y-84730191D01*
X174440661Y-84577748D01*
X174249259Y-84386013D01*
X173999054Y-84282118D01*
X173728135Y-84281882D01*
X173477748Y-84385339D01*
X173464021Y-84399042D01*
X173458897Y-84371810D01*
X173375454Y-84242135D01*
X173248134Y-84155141D01*
X173097000Y-84124536D01*
X172597000Y-84124536D01*
X172455810Y-84151103D01*
X172326135Y-84234546D01*
X172239141Y-84361866D01*
X172208536Y-84513000D01*
X171985464Y-84513000D01*
X171958897Y-84371810D01*
X171875454Y-84242135D01*
X171748134Y-84155141D01*
X171597000Y-84124536D01*
X171097000Y-84124536D01*
X170955810Y-84151103D01*
X170826135Y-84234546D01*
X170739141Y-84361866D01*
X170714814Y-84482000D01*
X168861000Y-84482000D01*
X168676930Y-84518613D01*
X168520882Y-84622881D01*
X168121000Y-85022763D01*
X168121000Y-83006995D01*
X176453738Y-83006995D01*
X176959117Y-84233716D01*
X176966341Y-84244528D01*
X177409809Y-84550586D01*
X179610395Y-82350000D01*
X179969605Y-82350000D01*
X182170191Y-84550586D01*
X182613659Y-84244528D01*
X183123725Y-83019748D01*
X183125034Y-82335000D01*
X183292536Y-82335000D01*
X183292536Y-84035000D01*
X183319103Y-84176190D01*
X183402546Y-84305865D01*
X183529866Y-84392859D01*
X183681000Y-84423464D01*
X185381000Y-84423464D01*
X185522190Y-84396897D01*
X185651865Y-84313454D01*
X185738859Y-84186134D01*
X185769464Y-84035000D01*
X185769464Y-83160883D01*
X185840000Y-83160883D01*
X185840000Y-83209117D01*
X185933704Y-83680200D01*
X186200552Y-84079565D01*
X186599917Y-84346413D01*
X187071000Y-84440117D01*
X187542083Y-84346413D01*
X187941448Y-84079565D01*
X188208296Y-83680200D01*
X188216083Y-83641053D01*
X188415817Y-84066358D01*
X188844076Y-84456645D01*
X189254110Y-84626476D01*
X189484000Y-84505155D01*
X189484000Y-83312000D01*
X189738000Y-83312000D01*
X189738000Y-84505155D01*
X189967890Y-84626476D01*
X190377924Y-84456645D01*
X190806183Y-84066358D01*
X191052486Y-83541892D01*
X190931819Y-83312000D01*
X189738000Y-83312000D01*
X189484000Y-83312000D01*
X189464000Y-83312000D01*
X189464000Y-83058000D01*
X189484000Y-83058000D01*
X189484000Y-81864845D01*
X189738000Y-81864845D01*
X189738000Y-83058000D01*
X190931819Y-83058000D01*
X191052486Y-82828108D01*
X190806183Y-82303642D01*
X190377924Y-81913355D01*
X189967890Y-81743524D01*
X189738000Y-81864845D01*
X189484000Y-81864845D01*
X189254110Y-81743524D01*
X188844076Y-81913355D01*
X188415817Y-82303642D01*
X188216083Y-82728947D01*
X188208296Y-82689800D01*
X187941448Y-82290435D01*
X187542083Y-82023587D01*
X187071000Y-81929883D01*
X186599917Y-82023587D01*
X186200552Y-82290435D01*
X185933704Y-82689800D01*
X185840000Y-83160883D01*
X185769464Y-83160883D01*
X185769464Y-82335000D01*
X185742897Y-82193810D01*
X185659454Y-82064135D01*
X185532134Y-81977141D01*
X185381000Y-81946536D01*
X183681000Y-81946536D01*
X183539810Y-81973103D01*
X183410135Y-82056546D01*
X183323141Y-82183866D01*
X183292536Y-82335000D01*
X183125034Y-82335000D01*
X183126262Y-81693005D01*
X182620883Y-80466284D01*
X182613659Y-80455472D01*
X182170191Y-80149414D01*
X179969605Y-82350000D01*
X179610395Y-82350000D01*
X177409809Y-80149414D01*
X176966341Y-80455472D01*
X176456275Y-81680252D01*
X176453738Y-83006995D01*
X168121000Y-83006995D01*
X168121000Y-82397079D01*
X168216987Y-82301259D01*
X168320882Y-82051054D01*
X168321118Y-81780135D01*
X168217661Y-81529748D01*
X168026259Y-81338013D01*
X167776054Y-81234118D01*
X167505135Y-81233882D01*
X167254748Y-81337339D01*
X167063013Y-81528741D01*
X166959118Y-81778946D01*
X166958882Y-82049865D01*
X167062339Y-82300252D01*
X167159000Y-82397081D01*
X167159000Y-85270765D01*
X167133464Y-85296301D01*
X167133464Y-84678000D01*
X167106897Y-84536810D01*
X167023454Y-84407135D01*
X166896134Y-84320141D01*
X166745000Y-84289536D01*
X165995000Y-84289536D01*
X165853810Y-84316103D01*
X165724135Y-84399546D01*
X165637141Y-84526866D01*
X165606536Y-84678000D01*
X165606536Y-85478000D01*
X165633103Y-85619190D01*
X165691567Y-85710047D01*
X165689118Y-85715946D01*
X165688882Y-85986865D01*
X165792339Y-86237252D01*
X165837000Y-86281991D01*
X165837000Y-86552145D01*
X165835141Y-86554866D01*
X165818494Y-86637072D01*
X165804897Y-86564810D01*
X165721454Y-86435135D01*
X165594134Y-86348141D01*
X165443000Y-86317536D01*
X165299000Y-86317536D01*
X165299000Y-85333344D01*
X165314859Y-85310134D01*
X165345464Y-85159000D01*
X165345464Y-84259000D01*
X165318897Y-84117810D01*
X165235454Y-83988135D01*
X165108134Y-83901141D01*
X164957000Y-83870536D01*
X164573211Y-83870536D01*
X164602865Y-83851454D01*
X164689859Y-83724134D01*
X164720464Y-83573000D01*
X164720464Y-82773000D01*
X164693897Y-82631810D01*
X164610454Y-82502135D01*
X164483134Y-82415141D01*
X164332000Y-82384536D01*
X163582000Y-82384536D01*
X163440810Y-82411103D01*
X163311135Y-82494546D01*
X163308464Y-82498455D01*
X163308464Y-82419000D01*
X163281897Y-82277810D01*
X163198454Y-82148135D01*
X163071134Y-82061141D01*
X162920000Y-82030536D01*
X161551774Y-82030536D01*
X161108464Y-81587226D01*
X161108464Y-80745000D01*
X163200481Y-80745000D01*
X163207103Y-80780190D01*
X163290546Y-80909865D01*
X163417866Y-80996859D01*
X163569000Y-81027464D01*
X164369000Y-81027464D01*
X164510190Y-81000897D01*
X164639865Y-80917454D01*
X164726859Y-80790134D01*
X164757464Y-80639000D01*
X164757464Y-79889000D01*
X164737142Y-79781000D01*
X177719720Y-79781000D01*
X177589414Y-79969809D01*
X179790000Y-82170395D01*
X181990586Y-79969809D01*
X181860280Y-79781000D01*
X191359000Y-79781000D01*
X191359000Y-106723000D01*
X176168954Y-106723000D01*
X176209859Y-106663134D01*
X176240464Y-106512000D01*
X176240464Y-105312000D01*
X176213897Y-105170810D01*
X176130454Y-105041135D01*
X176003134Y-104954141D01*
X175852000Y-104923536D01*
X173652000Y-104923536D01*
X173510810Y-104950103D01*
X173381135Y-105033546D01*
X173294141Y-105160866D01*
X173290064Y-105181000D01*
X170440000Y-105181000D01*
X170160259Y-105236643D01*
X169923105Y-105395105D01*
X163313105Y-112005105D01*
X163154644Y-112242259D01*
X163099000Y-112522000D01*
X163154644Y-112801741D01*
X163313105Y-113038895D01*
X163550259Y-113197356D01*
X163727736Y-113232658D01*
X161005000Y-115955394D01*
X161005000Y-111721326D01*
X170643326Y-102083000D01*
X173288186Y-102083000D01*
X173290103Y-102093190D01*
X173373546Y-102222865D01*
X173500866Y-102309859D01*
X173652000Y-102340464D01*
X175852000Y-102340464D01*
X175993190Y-102313897D01*
X176122865Y-102230454D01*
X176209859Y-102103134D01*
X176240464Y-101952000D01*
X176240464Y-100752000D01*
X176213897Y-100610810D01*
X176130454Y-100481135D01*
X176003134Y-100394141D01*
X175852000Y-100363536D01*
X173652000Y-100363536D01*
X173510810Y-100390103D01*
X173381135Y-100473546D01*
X173294141Y-100600866D01*
X173290064Y-100621000D01*
X170340777Y-100621000D01*
X170340576Y-100620960D01*
X170060834Y-100676604D01*
X169823681Y-100835065D01*
X159757105Y-110901641D01*
X159598644Y-111138794D01*
X159543000Y-111418536D01*
X159543000Y-119357212D01*
X156769212Y-122131000D01*
X151756755Y-122131000D01*
X151805859Y-122059134D01*
X151836464Y-121908000D01*
X151836464Y-120408000D01*
X151809897Y-120266810D01*
X151726454Y-120137135D01*
X151599134Y-120050141D01*
X151448000Y-120019536D01*
X151214000Y-120019536D01*
X151214000Y-119945443D01*
X151240859Y-119906134D01*
X151271464Y-119755000D01*
X151271464Y-119005000D01*
X151244897Y-118863810D01*
X151212500Y-118813464D01*
X151231000Y-118813464D01*
X151372190Y-118786897D01*
X151501865Y-118703454D01*
X151588859Y-118576134D01*
X151619464Y-118425000D01*
X151619464Y-116425000D01*
X151592897Y-116283810D01*
X151509454Y-116154135D01*
X151382134Y-116067141D01*
X151231000Y-116036536D01*
X149731000Y-116036536D01*
X149589810Y-116063103D01*
X149460135Y-116146546D01*
X149373141Y-116273866D01*
X149342536Y-116425000D01*
X149342536Y-118425000D01*
X149369103Y-118566190D01*
X149452546Y-118695865D01*
X149579866Y-118782859D01*
X149731000Y-118813464D01*
X149750000Y-118813464D01*
X149750000Y-118817484D01*
X149725141Y-118853866D01*
X149694536Y-119005000D01*
X149694536Y-119755000D01*
X149721103Y-119896190D01*
X149752000Y-119944206D01*
X149752000Y-120019536D01*
X149498000Y-120019536D01*
X149356810Y-120046103D01*
X149227135Y-120129546D01*
X149140141Y-120256866D01*
X149109536Y-120408000D01*
X149109536Y-121908000D01*
X149136103Y-122049190D01*
X149188746Y-122131000D01*
X143396755Y-122131000D01*
X143445859Y-122059134D01*
X143476464Y-121908000D01*
X143476464Y-120408000D01*
X143449897Y-120266810D01*
X143366454Y-120137135D01*
X143239134Y-120050141D01*
X143088000Y-120019536D01*
X142844000Y-120019536D01*
X142844000Y-119963006D01*
X142882859Y-119906134D01*
X142913464Y-119755000D01*
X142913464Y-119005000D01*
X142886897Y-118863810D01*
X142868256Y-118834841D01*
X142990190Y-118811897D01*
X143119865Y-118728454D01*
X143206859Y-118601134D01*
X143237464Y-118450000D01*
X143237464Y-116450000D01*
X143210897Y-116308810D01*
X143127454Y-116179135D01*
X143000134Y-116092141D01*
X142849000Y-116061536D01*
X141349000Y-116061536D01*
X141207810Y-116088103D01*
X141078135Y-116171546D01*
X140991141Y-116298866D01*
X140960536Y-116450000D01*
X140960536Y-118450000D01*
X140987103Y-118591190D01*
X141070546Y-118720865D01*
X141197866Y-118807859D01*
X141349000Y-118838464D01*
X141377665Y-118838464D01*
X141367141Y-118853866D01*
X141336536Y-119005000D01*
X141336536Y-119755000D01*
X141363103Y-119896190D01*
X141382000Y-119925557D01*
X141382000Y-120019536D01*
X141138000Y-120019536D01*
X140996810Y-120046103D01*
X140867135Y-120129546D01*
X140780141Y-120256866D01*
X140749536Y-120408000D01*
X140749536Y-121908000D01*
X140776103Y-122049190D01*
X140859546Y-122178865D01*
X140986866Y-122265859D01*
X141138000Y-122296464D01*
X141382000Y-122296464D01*
X141382000Y-122735000D01*
X141437644Y-123014742D01*
X141593023Y-123247282D01*
X141596105Y-123251895D01*
X141723105Y-123378895D01*
X141960258Y-123537356D01*
X142240000Y-123593000D01*
X157072002Y-123593000D01*
X157351744Y-123537356D01*
X157588897Y-123378895D01*
X160663000Y-120304792D01*
X160663000Y-129350000D01*
X160673006Y-129399410D01*
X160701447Y-129441035D01*
X160743841Y-129468315D01*
X160790000Y-129477000D01*
X176540920Y-129477000D01*
X176456275Y-129680252D01*
X176453738Y-131006995D01*
X176959117Y-132233716D01*
X176966341Y-132244528D01*
X177409809Y-132550586D01*
X179610395Y-130350000D01*
X179596253Y-130335858D01*
X179775858Y-130156253D01*
X179790000Y-130170395D01*
X179804143Y-130156253D01*
X179983748Y-130335858D01*
X179969605Y-130350000D01*
X182170191Y-132550586D01*
X182613659Y-132244528D01*
X183123725Y-131019748D01*
X183126262Y-129693005D01*
X183037273Y-129477000D01*
X191359000Y-129477000D01*
X191359000Y-132919000D01*
X181860280Y-132919000D01*
X181990586Y-132730191D01*
X179790000Y-130529605D01*
X177589414Y-132730191D01*
X177719720Y-132919000D01*
X111860280Y-132919000D01*
X111990586Y-132730191D01*
X109790000Y-130529605D01*
X107589414Y-132730191D01*
X107719720Y-132919000D01*
X98221000Y-132919000D01*
X98221000Y-131006995D01*
X106453738Y-131006995D01*
X106959117Y-132233716D01*
X106966341Y-132244528D01*
X107409809Y-132550586D01*
X109610395Y-130350000D01*
X109969605Y-130350000D01*
X112170191Y-132550586D01*
X112613659Y-132244528D01*
X113123725Y-131019748D01*
X113126262Y-129693005D01*
X112620883Y-128466284D01*
X112613659Y-128455472D01*
X112170191Y-128149414D01*
X109969605Y-130350000D01*
X109610395Y-130350000D01*
X107409809Y-128149414D01*
X106966341Y-128455472D01*
X106456275Y-129680252D01*
X106453738Y-131006995D01*
X98221000Y-131006995D01*
X98221000Y-129811200D01*
X103424405Y-129811200D01*
X103459692Y-130024768D01*
X103882564Y-130165149D01*
X104326968Y-130133018D01*
X104588308Y-130024768D01*
X104623595Y-129811200D01*
X104024000Y-129211605D01*
X103424405Y-129811200D01*
X98221000Y-129811200D01*
X98221000Y-128890564D01*
X102890851Y-128890564D01*
X102922982Y-129334968D01*
X103031232Y-129596308D01*
X103244800Y-129631595D01*
X103844395Y-129032000D01*
X104203605Y-129032000D01*
X104803200Y-129631595D01*
X105016768Y-129596308D01*
X105157149Y-129173436D01*
X105125018Y-128729032D01*
X105016768Y-128467692D01*
X104803200Y-128432405D01*
X104203605Y-129032000D01*
X103844395Y-129032000D01*
X103244800Y-128432405D01*
X103031232Y-128467692D01*
X102890851Y-128890564D01*
X98221000Y-128890564D01*
X98221000Y-128252800D01*
X103424405Y-128252800D01*
X104024000Y-128852395D01*
X104623595Y-128252800D01*
X104588308Y-128039232D01*
X104379184Y-127969809D01*
X107589414Y-127969809D01*
X109790000Y-130170395D01*
X111990586Y-127969809D01*
X111684528Y-127526341D01*
X110459748Y-127016275D01*
X109133005Y-127013738D01*
X107906284Y-127519117D01*
X107895472Y-127526341D01*
X107589414Y-127969809D01*
X104379184Y-127969809D01*
X104165436Y-127898851D01*
X103721032Y-127930982D01*
X103459692Y-128039232D01*
X103424405Y-128252800D01*
X98221000Y-128252800D01*
X98221000Y-124819000D01*
X135961536Y-124819000D01*
X135961536Y-128419000D01*
X135988103Y-128560190D01*
X136071546Y-128689865D01*
X136198866Y-128776859D01*
X136350000Y-128807464D01*
X138430000Y-128807464D01*
X138571190Y-128780897D01*
X138700865Y-128697454D01*
X138787859Y-128570134D01*
X138818464Y-128419000D01*
X138818464Y-125816272D01*
X141049000Y-125816272D01*
X141049000Y-127421728D01*
X141157167Y-127965521D01*
X141465201Y-128426527D01*
X141926207Y-128734561D01*
X142470000Y-128842728D01*
X143013793Y-128734561D01*
X143474799Y-128426527D01*
X143782833Y-127965521D01*
X143891000Y-127421728D01*
X143891000Y-125816272D01*
X146129000Y-125816272D01*
X146129000Y-127421728D01*
X146237167Y-127965521D01*
X146545201Y-128426527D01*
X147006207Y-128734561D01*
X147550000Y-128842728D01*
X148093793Y-128734561D01*
X148554799Y-128426527D01*
X148862833Y-127965521D01*
X148971000Y-127421728D01*
X148971000Y-126746000D01*
X150955000Y-126746000D01*
X150955000Y-127506000D01*
X151131103Y-128137327D01*
X151535399Y-128653206D01*
X152106338Y-128975099D01*
X152243290Y-129008748D01*
X152503000Y-128889922D01*
X152503000Y-126746000D01*
X152757000Y-126746000D01*
X152757000Y-128889922D01*
X153016710Y-129008748D01*
X153153662Y-128975099D01*
X153724601Y-128653206D01*
X154128897Y-128137327D01*
X154305000Y-127506000D01*
X154305000Y-126746000D01*
X152757000Y-126746000D01*
X152503000Y-126746000D01*
X150955000Y-126746000D01*
X148971000Y-126746000D01*
X148971000Y-125816272D01*
X148954238Y-125732000D01*
X150955000Y-125732000D01*
X150955000Y-126492000D01*
X152503000Y-126492000D01*
X152503000Y-124348078D01*
X152757000Y-124348078D01*
X152757000Y-126492000D01*
X154305000Y-126492000D01*
X154305000Y-125816272D01*
X156289000Y-125816272D01*
X156289000Y-127421728D01*
X156397167Y-127965521D01*
X156705201Y-128426527D01*
X157166207Y-128734561D01*
X157710000Y-128842728D01*
X158253793Y-128734561D01*
X158714799Y-128426527D01*
X159022833Y-127965521D01*
X159131000Y-127421728D01*
X159131000Y-125816272D01*
X159022833Y-125272479D01*
X158714799Y-124811473D01*
X158253793Y-124503439D01*
X157710000Y-124395272D01*
X157166207Y-124503439D01*
X156705201Y-124811473D01*
X156397167Y-125272479D01*
X156289000Y-125816272D01*
X154305000Y-125816272D01*
X154305000Y-125732000D01*
X154128897Y-125100673D01*
X153724601Y-124584794D01*
X153153662Y-124262901D01*
X153016710Y-124229252D01*
X152757000Y-124348078D01*
X152503000Y-124348078D01*
X152243290Y-124229252D01*
X152106338Y-124262901D01*
X151535399Y-124584794D01*
X151131103Y-125100673D01*
X150955000Y-125732000D01*
X148954238Y-125732000D01*
X148862833Y-125272479D01*
X148554799Y-124811473D01*
X148093793Y-124503439D01*
X147550000Y-124395272D01*
X147006207Y-124503439D01*
X146545201Y-124811473D01*
X146237167Y-125272479D01*
X146129000Y-125816272D01*
X143891000Y-125816272D01*
X143782833Y-125272479D01*
X143474799Y-124811473D01*
X143013793Y-124503439D01*
X142470000Y-124395272D01*
X141926207Y-124503439D01*
X141465201Y-124811473D01*
X141157167Y-125272479D01*
X141049000Y-125816272D01*
X138818464Y-125816272D01*
X138818464Y-124819000D01*
X138791897Y-124677810D01*
X138708454Y-124548135D01*
X138581134Y-124461141D01*
X138430000Y-124430536D01*
X136350000Y-124430536D01*
X136208810Y-124457103D01*
X136079135Y-124540546D01*
X135992141Y-124667866D01*
X135961536Y-124819000D01*
X98221000Y-124819000D01*
X98221000Y-121051200D01*
X103424405Y-121051200D01*
X103459692Y-121264768D01*
X103882564Y-121405149D01*
X104326968Y-121373018D01*
X104588308Y-121264768D01*
X104623595Y-121051200D01*
X104024000Y-120451605D01*
X103424405Y-121051200D01*
X98221000Y-121051200D01*
X98221000Y-120130564D01*
X102890851Y-120130564D01*
X102922982Y-120574968D01*
X103031232Y-120836308D01*
X103244800Y-120871595D01*
X103844395Y-120272000D01*
X104203605Y-120272000D01*
X104803200Y-120871595D01*
X105016768Y-120836308D01*
X105157149Y-120413436D01*
X105125018Y-119969032D01*
X105016768Y-119707692D01*
X104803200Y-119672405D01*
X104203605Y-120272000D01*
X103844395Y-120272000D01*
X103244800Y-119672405D01*
X103031232Y-119707692D01*
X102890851Y-120130564D01*
X98221000Y-120130564D01*
X98221000Y-119492800D01*
X103424405Y-119492800D01*
X104024000Y-120092395D01*
X104623595Y-119492800D01*
X104588308Y-119279232D01*
X104165436Y-119138851D01*
X103721032Y-119170982D01*
X103459692Y-119279232D01*
X103424405Y-119492800D01*
X98221000Y-119492800D01*
X98221000Y-114808000D01*
X102743000Y-114808000D01*
X102743000Y-117856000D01*
X102769056Y-117994477D01*
X102850896Y-118121660D01*
X102975770Y-118206983D01*
X103124000Y-118237000D01*
X105664000Y-118237000D01*
X105802477Y-118210944D01*
X105929660Y-118129104D01*
X106014983Y-118004230D01*
X106045000Y-117856000D01*
X106045000Y-114808000D01*
X106018944Y-114669523D01*
X105937104Y-114542340D01*
X105812230Y-114457017D01*
X105664000Y-114427000D01*
X103124000Y-114427000D01*
X102985523Y-114453056D01*
X102858340Y-114534896D01*
X102773017Y-114659770D01*
X102743000Y-114808000D01*
X98221000Y-114808000D01*
X98221000Y-114220473D01*
X121800847Y-114220473D01*
X121934689Y-114544395D01*
X122182302Y-114792440D01*
X122505989Y-114926847D01*
X122856473Y-114927153D01*
X123180395Y-114793311D01*
X123261479Y-114712369D01*
X123296546Y-114766865D01*
X123423866Y-114853859D01*
X123575000Y-114884464D01*
X124075000Y-114884464D01*
X124216190Y-114857897D01*
X124345865Y-114774454D01*
X124432859Y-114647134D01*
X124463464Y-114496000D01*
X124463464Y-113596000D01*
X124436897Y-113454810D01*
X124353454Y-113325135D01*
X124226134Y-113238141D01*
X124075000Y-113207536D01*
X123575000Y-113207536D01*
X123433810Y-113234103D01*
X123304135Y-113317546D01*
X123261680Y-113379681D01*
X123181698Y-113299560D01*
X122858011Y-113165153D01*
X122507527Y-113164847D01*
X122183605Y-113298689D01*
X121935560Y-113546302D01*
X121801153Y-113869989D01*
X121800847Y-114220473D01*
X98221000Y-114220473D01*
X98221000Y-109037365D01*
X127334882Y-109037365D01*
X127438339Y-109287752D01*
X127629741Y-109479487D01*
X127879946Y-109583382D01*
X128150865Y-109583618D01*
X128401252Y-109480161D01*
X128592987Y-109288759D01*
X128696882Y-109038554D01*
X128697118Y-108767635D01*
X128593661Y-108517248D01*
X128402259Y-108325513D01*
X128152054Y-108221618D01*
X127881135Y-108221382D01*
X127630748Y-108324839D01*
X127439013Y-108516241D01*
X127335118Y-108766446D01*
X127334882Y-109037365D01*
X98221000Y-109037365D01*
X98221000Y-105544865D01*
X101553882Y-105544865D01*
X101657339Y-105795252D01*
X101848741Y-105986987D01*
X102098946Y-106090882D01*
X102369865Y-106091118D01*
X102620252Y-105987661D01*
X102811987Y-105796259D01*
X102915882Y-105546054D01*
X102916118Y-105275135D01*
X102812661Y-105024748D01*
X102621259Y-104833013D01*
X102371054Y-104729118D01*
X102100135Y-104728882D01*
X101849748Y-104832339D01*
X101658013Y-105023741D01*
X101554118Y-105273946D01*
X101553882Y-105544865D01*
X98221000Y-105544865D01*
X98221000Y-104355814D01*
X102466059Y-104355814D01*
X102569516Y-104606201D01*
X102760918Y-104797936D01*
X103011123Y-104901831D01*
X103282042Y-104902067D01*
X103532429Y-104798610D01*
X103724164Y-104607208D01*
X103828059Y-104357003D01*
X103828295Y-104086084D01*
X103724838Y-103835697D01*
X103533436Y-103643962D01*
X103283231Y-103540067D01*
X103012312Y-103539831D01*
X102761925Y-103643288D01*
X102570190Y-103834690D01*
X102466295Y-104084895D01*
X102466059Y-104355814D01*
X98221000Y-104355814D01*
X98221000Y-103254743D01*
X103384599Y-103254743D01*
X103488056Y-103505130D01*
X103679458Y-103696865D01*
X103929663Y-103800760D01*
X104200582Y-103800996D01*
X104450969Y-103697539D01*
X104642704Y-103506137D01*
X104746599Y-103255932D01*
X104746835Y-102985013D01*
X104643378Y-102734626D01*
X104451976Y-102542891D01*
X104201771Y-102438996D01*
X103930852Y-102438760D01*
X103680465Y-102542217D01*
X103488730Y-102733619D01*
X103384835Y-102983824D01*
X103384599Y-103254743D01*
X98221000Y-103254743D01*
X98221000Y-102150814D01*
X104358433Y-102150814D01*
X104461890Y-102401201D01*
X104653292Y-102592936D01*
X104903497Y-102696831D01*
X105174416Y-102697067D01*
X105424803Y-102593610D01*
X105616538Y-102402208D01*
X105710191Y-102176666D01*
X121904445Y-102176666D01*
X122038287Y-102500588D01*
X122285900Y-102748633D01*
X122609587Y-102883040D01*
X122960071Y-102883346D01*
X123283993Y-102749504D01*
X123532038Y-102501891D01*
X123666445Y-102178204D01*
X123666751Y-101827720D01*
X123659019Y-101809008D01*
X126501027Y-98967000D01*
X127478777Y-98967000D01*
X127490103Y-99027190D01*
X127573546Y-99156865D01*
X127700866Y-99243859D01*
X127801000Y-99264136D01*
X127801000Y-100216777D01*
X127740810Y-100228103D01*
X127611135Y-100311546D01*
X127524141Y-100438866D01*
X127493536Y-100590000D01*
X127493536Y-101340000D01*
X127520103Y-101481190D01*
X127603546Y-101610865D01*
X127730866Y-101697859D01*
X127882000Y-101728464D01*
X128682000Y-101728464D01*
X128823190Y-101701897D01*
X128952865Y-101618454D01*
X129039859Y-101491134D01*
X129070464Y-101340000D01*
X129070464Y-100590000D01*
X129043897Y-100448810D01*
X128960454Y-100319135D01*
X128833134Y-100232141D01*
X128763000Y-100217939D01*
X128763000Y-99272394D01*
X128893190Y-99247897D01*
X129022865Y-99164454D01*
X129109859Y-99037134D01*
X129140464Y-98886000D01*
X129140464Y-98671000D01*
X138607536Y-98671000D01*
X138607536Y-99171000D01*
X138634103Y-99312190D01*
X138717546Y-99441865D01*
X138792476Y-99493062D01*
X138765118Y-99558946D01*
X138764882Y-99829865D01*
X138868339Y-100080252D01*
X139059741Y-100271987D01*
X139309946Y-100375882D01*
X139580865Y-100376118D01*
X139831252Y-100272661D01*
X140022987Y-100081259D01*
X140126882Y-99831054D01*
X140127118Y-99560135D01*
X140099339Y-99492905D01*
X140166865Y-99449454D01*
X140253859Y-99322134D01*
X140284464Y-99171000D01*
X140284464Y-98671000D01*
X140257897Y-98529810D01*
X140174454Y-98400135D01*
X140047134Y-98313141D01*
X139896000Y-98282536D01*
X138996000Y-98282536D01*
X138854810Y-98309103D01*
X138725135Y-98392546D01*
X138638141Y-98519866D01*
X138607536Y-98671000D01*
X129140464Y-98671000D01*
X129140464Y-98086000D01*
X129113897Y-97944810D01*
X129030454Y-97815135D01*
X128903134Y-97728141D01*
X128752000Y-97697536D01*
X127852000Y-97697536D01*
X127710810Y-97724103D01*
X127581135Y-97807546D01*
X127494141Y-97934866D01*
X127479939Y-98005000D01*
X126301791Y-98005000D01*
X126117720Y-98041614D01*
X125961673Y-98145882D01*
X122978991Y-101128564D01*
X122961609Y-101121346D01*
X122611125Y-101121040D01*
X122287203Y-101254882D01*
X122039158Y-101502495D01*
X121904751Y-101826182D01*
X121904445Y-102176666D01*
X105710191Y-102176666D01*
X105720433Y-102152003D01*
X105720669Y-101881084D01*
X105617212Y-101630697D01*
X105463410Y-101476628D01*
X105622481Y-101317833D01*
X105726376Y-101067628D01*
X105726612Y-100796709D01*
X105623155Y-100546322D01*
X105431753Y-100354587D01*
X105181548Y-100250692D01*
X104910629Y-100250456D01*
X104660242Y-100353913D01*
X104468507Y-100545315D01*
X104364612Y-100795520D01*
X104364376Y-101066439D01*
X104467833Y-101316826D01*
X104621635Y-101470895D01*
X104462564Y-101629690D01*
X104358669Y-101879895D01*
X104358433Y-102150814D01*
X98221000Y-102150814D01*
X98221000Y-98892182D01*
X121847421Y-98892182D01*
X121981263Y-99216104D01*
X122228876Y-99464149D01*
X122552563Y-99598556D01*
X122903047Y-99598862D01*
X123226969Y-99465020D01*
X123475014Y-99217407D01*
X123609421Y-98893720D01*
X123609727Y-98543236D01*
X123601995Y-98524524D01*
X124990519Y-97136000D01*
X129463536Y-97136000D01*
X129463536Y-97936000D01*
X129490103Y-98077190D01*
X129573546Y-98206865D01*
X129700866Y-98293859D01*
X129852000Y-98324464D01*
X130752000Y-98324464D01*
X130893190Y-98297897D01*
X131022865Y-98214454D01*
X131025641Y-98210391D01*
X131055546Y-98256865D01*
X131182866Y-98343859D01*
X131334000Y-98374464D01*
X131834000Y-98374464D01*
X131975190Y-98347897D01*
X132104865Y-98264454D01*
X132191859Y-98137134D01*
X132222464Y-97986000D01*
X132222464Y-97086000D01*
X132195897Y-96944810D01*
X132112454Y-96815135D01*
X131985134Y-96728141D01*
X131834000Y-96697536D01*
X131334000Y-96697536D01*
X131192810Y-96724103D01*
X131063135Y-96807546D01*
X131025908Y-96862029D01*
X130903134Y-96778141D01*
X130752000Y-96747536D01*
X129852000Y-96747536D01*
X129710810Y-96774103D01*
X129581135Y-96857546D01*
X129494141Y-96984866D01*
X129463536Y-97136000D01*
X124990519Y-97136000D01*
X126710520Y-95416000D01*
X127478777Y-95416000D01*
X127490103Y-95476190D01*
X127573546Y-95605865D01*
X127700866Y-95692859D01*
X127852000Y-95723464D01*
X128752000Y-95723464D01*
X128893190Y-95696897D01*
X129022865Y-95613454D01*
X129109859Y-95486134D01*
X129140464Y-95335000D01*
X129140464Y-94535000D01*
X129113897Y-94393810D01*
X129030454Y-94264135D01*
X128903134Y-94177141D01*
X128763000Y-94148764D01*
X128763000Y-93585000D01*
X129463536Y-93585000D01*
X129463536Y-94385000D01*
X129490103Y-94526190D01*
X129573546Y-94655865D01*
X129700866Y-94742859D01*
X129852000Y-94773464D01*
X130752000Y-94773464D01*
X130893190Y-94746897D01*
X131022865Y-94663454D01*
X131027298Y-94656966D01*
X131055546Y-94700865D01*
X131182866Y-94787859D01*
X131334000Y-94818464D01*
X131834000Y-94818464D01*
X131975190Y-94791897D01*
X132104865Y-94708454D01*
X132191859Y-94581134D01*
X132222464Y-94430000D01*
X132222464Y-93530000D01*
X132195897Y-93388810D01*
X132112454Y-93259135D01*
X131985134Y-93172141D01*
X131834000Y-93141536D01*
X131334000Y-93141536D01*
X131192810Y-93168103D01*
X131063135Y-93251546D01*
X131023579Y-93309438D01*
X130903134Y-93227141D01*
X130752000Y-93196536D01*
X129852000Y-93196536D01*
X129710810Y-93223103D01*
X129581135Y-93306546D01*
X129494141Y-93433866D01*
X129463536Y-93585000D01*
X128763000Y-93585000D01*
X128763000Y-93204223D01*
X128823190Y-93192897D01*
X128952865Y-93109454D01*
X129039859Y-92982134D01*
X129070464Y-92831000D01*
X129070464Y-92081000D01*
X129043897Y-91939810D01*
X128960454Y-91810135D01*
X128833134Y-91723141D01*
X128682000Y-91692536D01*
X127882000Y-91692536D01*
X127740810Y-91719103D01*
X127611135Y-91802546D01*
X127524141Y-91929866D01*
X127493536Y-92081000D01*
X127493536Y-92831000D01*
X127520103Y-92972190D01*
X127603546Y-93101865D01*
X127730866Y-93188859D01*
X127801000Y-93203061D01*
X127801000Y-94156132D01*
X127710810Y-94173103D01*
X127581135Y-94256546D01*
X127494141Y-94383866D01*
X127479939Y-94454000D01*
X126511283Y-94454000D01*
X126327212Y-94490614D01*
X126273969Y-94526190D01*
X126171165Y-94594881D01*
X122921967Y-97844080D01*
X122904585Y-97836862D01*
X122554101Y-97836556D01*
X122230179Y-97970398D01*
X121982134Y-98218011D01*
X121847727Y-98541698D01*
X121847421Y-98892182D01*
X98221000Y-98892182D01*
X98221000Y-92835539D01*
X99663096Y-92835539D01*
X99680633Y-92918319D01*
X99950500Y-93411396D01*
X100388517Y-93763666D01*
X100928000Y-93921500D01*
X102078000Y-93921500D01*
X102078000Y-92613500D01*
X102332000Y-92613500D01*
X102332000Y-93921500D01*
X103482000Y-93921500D01*
X104021483Y-93763666D01*
X104459500Y-93411396D01*
X104729367Y-92918319D01*
X104746904Y-92835539D01*
X104624915Y-92613500D01*
X102332000Y-92613500D01*
X102078000Y-92613500D01*
X99785085Y-92613500D01*
X99663096Y-92835539D01*
X98221000Y-92835539D01*
X98221000Y-88036500D01*
X99649883Y-88036500D01*
X99720751Y-88392778D01*
X99922567Y-88694816D01*
X100134611Y-88836500D01*
X99922567Y-88978184D01*
X99720751Y-89280222D01*
X99649883Y-89636500D01*
X99720751Y-89992778D01*
X99922567Y-90294816D01*
X100224605Y-90496632D01*
X100455024Y-90542465D01*
X100460614Y-90570571D01*
X100564882Y-90726618D01*
X100898418Y-91060155D01*
X100388517Y-91209334D01*
X99950500Y-91561604D01*
X99680633Y-92054681D01*
X99663096Y-92137461D01*
X99785085Y-92359500D01*
X102078000Y-92359500D01*
X102078000Y-92339500D01*
X102332000Y-92339500D01*
X102332000Y-92359500D01*
X104624915Y-92359500D01*
X104746904Y-92137461D01*
X104729367Y-92054681D01*
X104621447Y-91857500D01*
X106186369Y-91857500D01*
X106207103Y-91967690D01*
X106290546Y-92097365D01*
X106417866Y-92184359D01*
X106569000Y-92214964D01*
X107069000Y-92214964D01*
X107210190Y-92188397D01*
X107339865Y-92104954D01*
X107426859Y-91977634D01*
X107457464Y-91826500D01*
X107457464Y-90926500D01*
X107455771Y-90917500D01*
X107682359Y-90917500D01*
X107680536Y-90926500D01*
X107680536Y-91826500D01*
X107707103Y-91967690D01*
X107790546Y-92097365D01*
X107917866Y-92184359D01*
X108069000Y-92214964D01*
X108569000Y-92214964D01*
X108710190Y-92188397D01*
X108839865Y-92104954D01*
X108926859Y-91977634D01*
X108951186Y-91857500D01*
X110706421Y-91857500D01*
X110802241Y-91953487D01*
X111052446Y-92057382D01*
X111323365Y-92057618D01*
X111573752Y-91954161D01*
X111765487Y-91762759D01*
X111869382Y-91512554D01*
X111869618Y-91241635D01*
X111766161Y-90991248D01*
X111692541Y-90917500D01*
X112348221Y-90917500D01*
X112366603Y-91015190D01*
X112450046Y-91144865D01*
X112577366Y-91231859D01*
X112728500Y-91262464D01*
X113228500Y-91262464D01*
X113369690Y-91235897D01*
X113499365Y-91152454D01*
X113586359Y-91025134D01*
X113616964Y-90874000D01*
X113616964Y-89974000D01*
X113840036Y-89974000D01*
X113840036Y-90874000D01*
X113866603Y-91015190D01*
X113950046Y-91144865D01*
X114077366Y-91231859D01*
X114228500Y-91262464D01*
X114728500Y-91262464D01*
X114869690Y-91235897D01*
X114999365Y-91152454D01*
X115086359Y-91025134D01*
X115110686Y-90905000D01*
X115659421Y-90905000D01*
X115755241Y-91000987D01*
X116005446Y-91104882D01*
X116276365Y-91105118D01*
X116526752Y-91001661D01*
X116718487Y-90810259D01*
X116822382Y-90560054D01*
X116822618Y-90289135D01*
X116719161Y-90038748D01*
X116527759Y-89847013D01*
X116277554Y-89743118D01*
X116006635Y-89742882D01*
X115756248Y-89846339D01*
X115659419Y-89943000D01*
X115111131Y-89943000D01*
X115090397Y-89832810D01*
X115006954Y-89703135D01*
X114879634Y-89616141D01*
X114728500Y-89585536D01*
X114228500Y-89585536D01*
X114087310Y-89612103D01*
X113957635Y-89695546D01*
X113870641Y-89822866D01*
X113840036Y-89974000D01*
X113616964Y-89974000D01*
X113590397Y-89832810D01*
X113506954Y-89703135D01*
X113379634Y-89616141D01*
X113228500Y-89585536D01*
X112728500Y-89585536D01*
X112587310Y-89612103D01*
X112457635Y-89695546D01*
X112370641Y-89822866D01*
X112343782Y-89955500D01*
X104743464Y-89955500D01*
X104743464Y-89886500D01*
X104716897Y-89745310D01*
X104633454Y-89615635D01*
X104506134Y-89528641D01*
X104452934Y-89517868D01*
X104487433Y-89494816D01*
X104689249Y-89192778D01*
X104733290Y-88971365D01*
X109173882Y-88971365D01*
X109277339Y-89221752D01*
X109468741Y-89413487D01*
X109718946Y-89517382D01*
X109989865Y-89517618D01*
X110240252Y-89414161D01*
X110431987Y-89222759D01*
X110535882Y-88972554D01*
X110536118Y-88701635D01*
X110432661Y-88451248D01*
X110241259Y-88259513D01*
X109991054Y-88155618D01*
X109720135Y-88155382D01*
X109469748Y-88258839D01*
X109278013Y-88450241D01*
X109174118Y-88700446D01*
X109173882Y-88971365D01*
X104733290Y-88971365D01*
X104760117Y-88836500D01*
X104689249Y-88480222D01*
X104492275Y-88185431D01*
X104732724Y-87984618D01*
X104948398Y-87572646D01*
X104948803Y-87546244D01*
X104823361Y-87363500D01*
X103632000Y-87363500D01*
X103632000Y-87383500D01*
X103378000Y-87383500D01*
X103378000Y-87363500D01*
X102186639Y-87363500D01*
X102061197Y-87546244D01*
X102061602Y-87572646D01*
X102277276Y-87984618D01*
X102517725Y-88185431D01*
X102320751Y-88480222D01*
X102249883Y-88836500D01*
X102320751Y-89192778D01*
X102522567Y-89494816D01*
X102555427Y-89516772D01*
X102513810Y-89524603D01*
X102384135Y-89608046D01*
X102297141Y-89735366D01*
X102266536Y-89886500D01*
X102266536Y-90895500D01*
X102094237Y-90895500D01*
X101651319Y-90452583D01*
X101887433Y-90294816D01*
X102089249Y-89992778D01*
X102160117Y-89636500D01*
X102089249Y-89280222D01*
X101887433Y-88978184D01*
X101675389Y-88836500D01*
X101887433Y-88694816D01*
X102089249Y-88392778D01*
X102160117Y-88036500D01*
X102089249Y-87680222D01*
X101887433Y-87378184D01*
X101585395Y-87176368D01*
X101229117Y-87105500D01*
X100580883Y-87105500D01*
X100224605Y-87176368D01*
X99922567Y-87378184D01*
X99720751Y-87680222D01*
X99649883Y-88036500D01*
X98221000Y-88036500D01*
X98221000Y-86926756D01*
X102061197Y-86926756D01*
X102186639Y-87109500D01*
X103378000Y-87109500D01*
X103378000Y-87089500D01*
X103632000Y-87089500D01*
X103632000Y-87109500D01*
X104823361Y-87109500D01*
X104846356Y-87076000D01*
X136879536Y-87076000D01*
X136879536Y-87676000D01*
X136906103Y-87817190D01*
X136989546Y-87946865D01*
X137116866Y-88033859D01*
X137268000Y-88064464D01*
X138068000Y-88064464D01*
X138209190Y-88037897D01*
X138338865Y-87954454D01*
X138425859Y-87827134D01*
X138456464Y-87676000D01*
X138456464Y-87076000D01*
X138429897Y-86934810D01*
X138346454Y-86805135D01*
X138289448Y-86766185D01*
X138348882Y-86623054D01*
X138349077Y-86399000D01*
X145573536Y-86399000D01*
X145573536Y-88099000D01*
X145600103Y-88240190D01*
X145683546Y-88369865D01*
X145810866Y-88456859D01*
X145962000Y-88487464D01*
X147662000Y-88487464D01*
X147803190Y-88460897D01*
X147932865Y-88377454D01*
X148019859Y-88250134D01*
X148050464Y-88099000D01*
X148050464Y-86399000D01*
X148023897Y-86257810D01*
X147940454Y-86128135D01*
X147813134Y-86041141D01*
X147662000Y-86010536D01*
X145962000Y-86010536D01*
X145820810Y-86037103D01*
X145691135Y-86120546D01*
X145604141Y-86247866D01*
X145573536Y-86399000D01*
X138349077Y-86399000D01*
X138349118Y-86352135D01*
X138245661Y-86101748D01*
X138054259Y-85910013D01*
X137804054Y-85806118D01*
X137533135Y-85805882D01*
X137282748Y-85909339D01*
X137091013Y-86100741D01*
X136987118Y-86350946D01*
X136986882Y-86621865D01*
X137046379Y-86765859D01*
X136997135Y-86797546D01*
X136910141Y-86924866D01*
X136879536Y-87076000D01*
X104846356Y-87076000D01*
X104948803Y-86926756D01*
X104948398Y-86900354D01*
X104732724Y-86488382D01*
X104375813Y-86190304D01*
X104365425Y-86187055D01*
X104459500Y-86111396D01*
X104729367Y-85618319D01*
X104746904Y-85535539D01*
X104624915Y-85313500D01*
X102332000Y-85313500D01*
X102332000Y-86442679D01*
X102277276Y-86488382D01*
X102061602Y-86900354D01*
X102061197Y-86926756D01*
X98221000Y-86926756D01*
X98221000Y-85535539D01*
X99663096Y-85535539D01*
X99680633Y-85618319D01*
X99950500Y-86111396D01*
X100388517Y-86463666D01*
X100928000Y-86621500D01*
X102078000Y-86621500D01*
X102078000Y-85313500D01*
X99785085Y-85313500D01*
X99663096Y-85535539D01*
X98221000Y-85535539D01*
X98221000Y-84837461D01*
X99663096Y-84837461D01*
X99785085Y-85059500D01*
X102078000Y-85059500D01*
X102078000Y-83751500D01*
X102332000Y-83751500D01*
X102332000Y-85059500D01*
X104624915Y-85059500D01*
X104746904Y-84837461D01*
X104729367Y-84754681D01*
X104715964Y-84730191D01*
X107589414Y-84730191D01*
X107895472Y-85173659D01*
X109120252Y-85683725D01*
X110446995Y-85686262D01*
X111673716Y-85180883D01*
X111684528Y-85173659D01*
X111990586Y-84730191D01*
X109790000Y-82529605D01*
X107589414Y-84730191D01*
X104715964Y-84730191D01*
X104459500Y-84261604D01*
X104021483Y-83909334D01*
X103482000Y-83751500D01*
X102332000Y-83751500D01*
X102078000Y-83751500D01*
X100928000Y-83751500D01*
X100388517Y-83909334D01*
X99950500Y-84261604D01*
X99680633Y-84754681D01*
X99663096Y-84837461D01*
X98221000Y-84837461D01*
X98221000Y-83006995D01*
X106453738Y-83006995D01*
X106959117Y-84233716D01*
X106966341Y-84244528D01*
X107409809Y-84550586D01*
X109610395Y-82350000D01*
X109969605Y-82350000D01*
X112170191Y-84550586D01*
X112613659Y-84244528D01*
X113123725Y-83019748D01*
X113123814Y-82973000D01*
X130275536Y-82973000D01*
X130275536Y-83573000D01*
X130302103Y-83714190D01*
X130385546Y-83843865D01*
X130512866Y-83930859D01*
X130664000Y-83961464D01*
X131464000Y-83961464D01*
X131605190Y-83934897D01*
X131734865Y-83851454D01*
X131801452Y-83754000D01*
X131868998Y-83754000D01*
X131934546Y-83855865D01*
X131939730Y-83859407D01*
X131907118Y-83937946D01*
X131906882Y-84208865D01*
X132010339Y-84459252D01*
X132201741Y-84650987D01*
X132451946Y-84754882D01*
X132722865Y-84755118D01*
X132973252Y-84651661D01*
X133164987Y-84460259D01*
X133268882Y-84210054D01*
X133269118Y-83939135D01*
X133236347Y-83859822D01*
X133320859Y-83736134D01*
X133351464Y-83585000D01*
X133351464Y-83012000D01*
X134339536Y-83012000D01*
X134339536Y-83612000D01*
X134366103Y-83753190D01*
X134449546Y-83882865D01*
X134465471Y-83893746D01*
X134447118Y-83937946D01*
X134446882Y-84208865D01*
X134550339Y-84459252D01*
X134741741Y-84650987D01*
X134991946Y-84754882D01*
X135262865Y-84755118D01*
X135513252Y-84651661D01*
X135704987Y-84460259D01*
X135808882Y-84210054D01*
X135809118Y-83939135D01*
X135791075Y-83895467D01*
X135798865Y-83890454D01*
X135885859Y-83763134D01*
X135916464Y-83612000D01*
X135916464Y-83036500D01*
X136879536Y-83036500D01*
X136879536Y-83636500D01*
X136906103Y-83777690D01*
X136989546Y-83907365D01*
X136997547Y-83912832D01*
X136987118Y-83937946D01*
X136986882Y-84208865D01*
X137090339Y-84459252D01*
X137281741Y-84650987D01*
X137531946Y-84754882D01*
X137802865Y-84755118D01*
X138053252Y-84651661D01*
X138244987Y-84460259D01*
X138348882Y-84210054D01*
X138349118Y-83939135D01*
X138339028Y-83914715D01*
X138425859Y-83787634D01*
X138456464Y-83636500D01*
X138456464Y-83036500D01*
X138429897Y-82895310D01*
X138346454Y-82765635D01*
X138219134Y-82678641D01*
X138068000Y-82648036D01*
X137268000Y-82648036D01*
X137126810Y-82674603D01*
X136997135Y-82758046D01*
X136910141Y-82885366D01*
X136879536Y-83036500D01*
X135916464Y-83036500D01*
X135916464Y-83012000D01*
X135889897Y-82870810D01*
X135806454Y-82741135D01*
X135679134Y-82654141D01*
X135528000Y-82623536D01*
X134728000Y-82623536D01*
X134586810Y-82650103D01*
X134457135Y-82733546D01*
X134370141Y-82860866D01*
X134339536Y-83012000D01*
X133351464Y-83012000D01*
X133351464Y-82785000D01*
X133324897Y-82643810D01*
X133241454Y-82514135D01*
X133114134Y-82427141D01*
X132963000Y-82396536D01*
X132213000Y-82396536D01*
X132071810Y-82423103D01*
X131942135Y-82506546D01*
X131855141Y-82633866D01*
X131824536Y-82785000D01*
X131824536Y-82792000D01*
X131800280Y-82792000D01*
X131742454Y-82702135D01*
X131615134Y-82615141D01*
X131464000Y-82584536D01*
X130664000Y-82584536D01*
X130522810Y-82611103D01*
X130393135Y-82694546D01*
X130306141Y-82821866D01*
X130275536Y-82973000D01*
X113123814Y-82973000D01*
X113125565Y-82057122D01*
X142963825Y-82057122D01*
X143178466Y-82575332D01*
X143640608Y-83070012D01*
X144256877Y-83350183D01*
X144526000Y-83232604D01*
X144526000Y-81788000D01*
X144780000Y-81788000D01*
X144780000Y-83232604D01*
X145049123Y-83350183D01*
X145665392Y-83070012D01*
X146127534Y-82575332D01*
X146342175Y-82057122D01*
X146224125Y-81788000D01*
X144780000Y-81788000D01*
X144526000Y-81788000D01*
X143081875Y-81788000D01*
X142963825Y-82057122D01*
X113125565Y-82057122D01*
X113126262Y-81693005D01*
X112949885Y-81264878D01*
X142963825Y-81264878D01*
X143081875Y-81534000D01*
X144526000Y-81534000D01*
X144526000Y-80089396D01*
X144780000Y-80089396D01*
X144780000Y-81534000D01*
X146224125Y-81534000D01*
X146342175Y-81264878D01*
X146127534Y-80746668D01*
X145665392Y-80251988D01*
X145049123Y-79971817D01*
X144780000Y-80089396D01*
X144526000Y-80089396D01*
X144256877Y-79971817D01*
X143640608Y-80251988D01*
X143178466Y-80746668D01*
X142963825Y-81264878D01*
X112949885Y-81264878D01*
X112620883Y-80466284D01*
X112613659Y-80455472D01*
X112170191Y-80149414D01*
X109969605Y-82350000D01*
X109610395Y-82350000D01*
X107409809Y-80149414D01*
X106966341Y-80455472D01*
X106456275Y-81680252D01*
X106453738Y-83006995D01*
X98221000Y-83006995D01*
X98221000Y-79781000D01*
X107719720Y-79781000D01*
X107589414Y-79969809D01*
X107589414Y-79969809D01*
G37*
X107589414Y-79969809D02*
X109790000Y-82170395D01*
X111990586Y-79969809D01*
X111860280Y-79781000D01*
X163202406Y-79781000D01*
X163202001Y-79783000D01*
X160275000Y-79783000D01*
X160090929Y-79819614D01*
X159934881Y-79923882D01*
X159679882Y-80178882D01*
X159578549Y-80330536D01*
X159320000Y-80330536D01*
X159178810Y-80357103D01*
X159049135Y-80440546D01*
X158962141Y-80567866D01*
X158931536Y-80719000D01*
X158931536Y-81919000D01*
X158958103Y-82060190D01*
X159041546Y-82189865D01*
X159168866Y-82276859D01*
X159320000Y-82307464D01*
X160468230Y-82307464D01*
X160738999Y-82578233D01*
X160738999Y-83859001D01*
X160766727Y-83998397D01*
X160775613Y-84043072D01*
X160879881Y-84199119D01*
X162139717Y-85458956D01*
X160541193Y-85458956D01*
X160380464Y-85298227D01*
X160380464Y-84190000D01*
X160353897Y-84048810D01*
X160270454Y-83919135D01*
X160143134Y-83832141D01*
X159992000Y-83801536D01*
X158992000Y-83801536D01*
X158921050Y-83814886D01*
X158974859Y-83736134D01*
X159005464Y-83585000D01*
X159005464Y-82785000D01*
X158978897Y-82643810D01*
X158895454Y-82514135D01*
X158768134Y-82427141D01*
X158617000Y-82396536D01*
X157867000Y-82396536D01*
X157725810Y-82423103D01*
X157596135Y-82506546D01*
X157543315Y-82583851D01*
X157498454Y-82514135D01*
X157371134Y-82427141D01*
X157220000Y-82396536D01*
X156470000Y-82396536D01*
X156328810Y-82423103D01*
X156301464Y-82440700D01*
X156301464Y-80561000D01*
X156274897Y-80419810D01*
X156191454Y-80290135D01*
X156064134Y-80203141D01*
X155913000Y-80172536D01*
X153713000Y-80172536D01*
X153571810Y-80199103D01*
X153442135Y-80282546D01*
X153355141Y-80409866D01*
X153324536Y-80561000D01*
X153324536Y-82761000D01*
X153351103Y-82902190D01*
X153434546Y-83031865D01*
X153561866Y-83118859D01*
X153713000Y-83149464D01*
X155913000Y-83149464D01*
X156054190Y-83122897D01*
X156081536Y-83105300D01*
X156081536Y-83585000D01*
X156108103Y-83726190D01*
X156191546Y-83855865D01*
X156247865Y-83894346D01*
X156221135Y-83911546D01*
X156134141Y-84038866D01*
X156103536Y-84190000D01*
X156103536Y-85990000D01*
X156130103Y-86131190D01*
X156213546Y-86260865D01*
X156340866Y-86347859D01*
X156492000Y-86378464D01*
X157200227Y-86378464D01*
X157506235Y-86684472D01*
X157590836Y-86741000D01*
X157662282Y-86788739D01*
X157846353Y-86825353D01*
X158340387Y-86825353D01*
X158330536Y-86874000D01*
X158330536Y-87624000D01*
X158357103Y-87765190D01*
X158440546Y-87894865D01*
X158567866Y-87981859D01*
X158719000Y-88012464D01*
X159519000Y-88012464D01*
X159660190Y-87985897D01*
X159669354Y-87980000D01*
X160024000Y-87980000D01*
X160024000Y-88450815D01*
X159926810Y-88469103D01*
X159797135Y-88552546D01*
X159710141Y-88679866D01*
X159679536Y-88831000D01*
X159679536Y-89081000D01*
X159706103Y-89222190D01*
X159789546Y-89351865D01*
X159916866Y-89438859D01*
X159999072Y-89455506D01*
X159926810Y-89469103D01*
X159871036Y-89504993D01*
X159770404Y-89404186D01*
X159520199Y-89300291D01*
X159249280Y-89300055D01*
X158998893Y-89403512D01*
X158807158Y-89594914D01*
X158703263Y-89845119D01*
X158703027Y-90116038D01*
X158806484Y-90366425D01*
X158914870Y-90475000D01*
X153258237Y-90475000D01*
X151116102Y-88332865D01*
X154258882Y-88332865D01*
X154362339Y-88583252D01*
X154553741Y-88774987D01*
X154803946Y-88878882D01*
X155074865Y-88879118D01*
X155325252Y-88775661D01*
X155516987Y-88584259D01*
X155620882Y-88334054D01*
X155621118Y-88063135D01*
X155517661Y-87812748D01*
X155326259Y-87621013D01*
X155076054Y-87517118D01*
X154805135Y-87516882D01*
X154554748Y-87620339D01*
X154363013Y-87811741D01*
X154259118Y-88061946D01*
X154258882Y-88332865D01*
X151116102Y-88332865D01*
X150495624Y-87712388D01*
X150583000Y-87273117D01*
X150583000Y-87224883D01*
X150489296Y-86753800D01*
X150222448Y-86354435D01*
X149823083Y-86087587D01*
X149352000Y-85993883D01*
X148880917Y-86087587D01*
X148481552Y-86354435D01*
X148214704Y-86753800D01*
X148121000Y-87224883D01*
X148121000Y-87273117D01*
X148214704Y-87744200D01*
X148481552Y-88143565D01*
X148880917Y-88410413D01*
X149352000Y-88504117D01*
X149823083Y-88410413D01*
X149829134Y-88406370D01*
X152718882Y-91296119D01*
X152802313Y-91351865D01*
X152874929Y-91400386D01*
X153059000Y-91437000D01*
X159679536Y-91437000D01*
X159679536Y-91581000D01*
X159703920Y-91710588D01*
X159679536Y-91831000D01*
X159679536Y-92081000D01*
X159703920Y-92210588D01*
X159679536Y-92331000D01*
X159679536Y-92475000D01*
X134558000Y-92475000D01*
X134373929Y-92511614D01*
X134353896Y-92525000D01*
X134217882Y-92615881D01*
X133589983Y-93243781D01*
X133485134Y-93172141D01*
X133334000Y-93141536D01*
X132834000Y-93141536D01*
X132692810Y-93168103D01*
X132563135Y-93251546D01*
X132476141Y-93378866D01*
X132445536Y-93530000D01*
X132445536Y-94430000D01*
X132472103Y-94571190D01*
X132555546Y-94700865D01*
X132682866Y-94787859D01*
X132834000Y-94818464D01*
X133334000Y-94818464D01*
X133475190Y-94791897D01*
X133604865Y-94708454D01*
X133691859Y-94581134D01*
X133722464Y-94430000D01*
X133722464Y-94421451D01*
X133874118Y-94320118D01*
X134757237Y-93437000D01*
X136302763Y-93437000D01*
X133042228Y-96697536D01*
X132834000Y-96697536D01*
X132692810Y-96724103D01*
X132563135Y-96807546D01*
X132476141Y-96934866D01*
X132445536Y-97086000D01*
X132445536Y-97986000D01*
X132472103Y-98127190D01*
X132555546Y-98256865D01*
X132682866Y-98343859D01*
X132834000Y-98374464D01*
X133334000Y-98374464D01*
X133475190Y-98347897D01*
X133604865Y-98264454D01*
X133691859Y-98137134D01*
X133722464Y-97986000D01*
X133722464Y-97377772D01*
X133952236Y-97148000D01*
X137006536Y-97148000D01*
X137006536Y-97748000D01*
X137033103Y-97889190D01*
X137116546Y-98018865D01*
X137243866Y-98105859D01*
X137395000Y-98136464D01*
X138195000Y-98136464D01*
X138336190Y-98109897D01*
X138465865Y-98026454D01*
X138532452Y-97929000D01*
X138709268Y-97929000D01*
X138717546Y-97941865D01*
X138844866Y-98028859D01*
X138996000Y-98059464D01*
X139896000Y-98059464D01*
X140037190Y-98032897D01*
X140166865Y-97949454D01*
X140253859Y-97822134D01*
X140284464Y-97671000D01*
X140284464Y-97171000D01*
X140280137Y-97148000D01*
X140308536Y-97148000D01*
X140308536Y-97748000D01*
X140335103Y-97889190D01*
X140418546Y-98018865D01*
X140545866Y-98105859D01*
X140697000Y-98136464D01*
X141497000Y-98136464D01*
X141638190Y-98109897D01*
X141767865Y-98026454D01*
X141854859Y-97899134D01*
X141885464Y-97748000D01*
X141885464Y-97148000D01*
X141858897Y-97006810D01*
X141775454Y-96877135D01*
X141705833Y-96829565D01*
X141777882Y-96656054D01*
X141778118Y-96385135D01*
X141674661Y-96134748D01*
X141483259Y-95943013D01*
X141233054Y-95839118D01*
X140962135Y-95838882D01*
X140711748Y-95942339D01*
X140520013Y-96133741D01*
X140416118Y-96383946D01*
X140415882Y-96654865D01*
X140488108Y-96829668D01*
X140426135Y-96869546D01*
X140339141Y-96996866D01*
X140308536Y-97148000D01*
X140280137Y-97148000D01*
X140257897Y-97029810D01*
X140174454Y-96900135D01*
X140058444Y-96820869D01*
X140126882Y-96656054D01*
X140127118Y-96385135D01*
X140023661Y-96134748D01*
X139832259Y-95943013D01*
X139582054Y-95839118D01*
X139311135Y-95838882D01*
X139060748Y-95942339D01*
X138869013Y-96133741D01*
X138765118Y-96383946D01*
X138764882Y-96654865D01*
X138834114Y-96822420D01*
X138725135Y-96892546D01*
X138674263Y-96967000D01*
X138531280Y-96967000D01*
X138473454Y-96877135D01*
X138346134Y-96790141D01*
X138195000Y-96759536D01*
X137395000Y-96759536D01*
X137253810Y-96786103D01*
X137124135Y-96869546D01*
X137037141Y-96996866D01*
X137006536Y-97148000D01*
X133952236Y-97148000D01*
X137163237Y-93937000D01*
X159679536Y-93937000D01*
X159679536Y-94081000D01*
X159703920Y-94210588D01*
X159679536Y-94331000D01*
X159679536Y-94581000D01*
X159706103Y-94722190D01*
X159789546Y-94851865D01*
X159916866Y-94938859D01*
X160068000Y-94969464D01*
X161317978Y-94969464D01*
X161413908Y-95065561D01*
X161664113Y-95169456D01*
X161893363Y-95169656D01*
X161835141Y-95254866D01*
X161809599Y-95381000D01*
X161001125Y-95381000D01*
X160934742Y-95336644D01*
X160655000Y-95281000D01*
X160375258Y-95336644D01*
X160138105Y-95495105D01*
X159979644Y-95732258D01*
X159924000Y-96012000D01*
X159924000Y-97121145D01*
X159922141Y-97123866D01*
X159891536Y-97275000D01*
X159891536Y-98075000D01*
X159918103Y-98216190D01*
X160001546Y-98345865D01*
X160128866Y-98432859D01*
X160280000Y-98463464D01*
X161030000Y-98463464D01*
X161171190Y-98436897D01*
X161300865Y-98353454D01*
X161387859Y-98226134D01*
X161418464Y-98075000D01*
X161418464Y-97275000D01*
X161391897Y-97133810D01*
X161386000Y-97124646D01*
X161386000Y-96643000D01*
X161804536Y-96643000D01*
X161804536Y-96706000D01*
X161831103Y-96847190D01*
X161914546Y-96976865D01*
X162041866Y-97063859D01*
X162193000Y-97094464D01*
X162443000Y-97094464D01*
X162584190Y-97067897D01*
X162713865Y-96984454D01*
X162800859Y-96857134D01*
X162817506Y-96774928D01*
X162831103Y-96847190D01*
X162914546Y-96976865D01*
X163041866Y-97063859D01*
X163193000Y-97094464D01*
X163337000Y-97094464D01*
X163337000Y-99587973D01*
X161781946Y-101143027D01*
X136213295Y-101143027D01*
X136029224Y-101179641D01*
X135873176Y-101283909D01*
X133790087Y-103366999D01*
X122593999Y-103366999D01*
X122409928Y-103403613D01*
X122253880Y-103507881D01*
X121741881Y-104019881D01*
X121637613Y-104175928D01*
X121600999Y-104359999D01*
X121600999Y-107730001D01*
X121620544Y-107828259D01*
X121637613Y-107914072D01*
X121741881Y-108070119D01*
X122203881Y-108532120D01*
X122297425Y-108594623D01*
X122359928Y-108636387D01*
X122543999Y-108673001D01*
X125814999Y-108673001D01*
X125999070Y-108636387D01*
X126155117Y-108532119D01*
X126406772Y-108280464D01*
X126615000Y-108280464D01*
X126756190Y-108253897D01*
X126885865Y-108170454D01*
X126972859Y-108043134D01*
X127003464Y-107892000D01*
X127003464Y-107146738D01*
X127003546Y-107146865D01*
X127130866Y-107233859D01*
X127282000Y-107264464D01*
X127782000Y-107264464D01*
X127923190Y-107237897D01*
X128052865Y-107154454D01*
X128139859Y-107027134D01*
X128170464Y-106876000D01*
X128170464Y-106018000D01*
X128393536Y-106018000D01*
X128393536Y-106876000D01*
X128420103Y-107017190D01*
X128503546Y-107146865D01*
X128630866Y-107233859D01*
X128782000Y-107264464D01*
X129282000Y-107264464D01*
X129423190Y-107237897D01*
X129552865Y-107154454D01*
X129639859Y-107027134D01*
X129664186Y-106907000D01*
X132512883Y-106907000D01*
X127416302Y-112003582D01*
X126981440Y-112003582D01*
X126974897Y-111968810D01*
X126891454Y-111839135D01*
X126764134Y-111752141D01*
X126613000Y-111721536D01*
X125863000Y-111721536D01*
X125721810Y-111748103D01*
X125592135Y-111831546D01*
X125505141Y-111958866D01*
X125488509Y-112041000D01*
X125214106Y-112041000D01*
X125188454Y-112001135D01*
X125061134Y-111914141D01*
X124910000Y-111883536D01*
X124010000Y-111883536D01*
X123868810Y-111910103D01*
X123739135Y-111993546D01*
X123652141Y-112120866D01*
X123621536Y-112272000D01*
X123621536Y-112772000D01*
X123648103Y-112913190D01*
X123731546Y-113042865D01*
X123858866Y-113129859D01*
X124010000Y-113160464D01*
X124844000Y-113160464D01*
X124844000Y-113291894D01*
X124804135Y-113317546D01*
X124717141Y-113444866D01*
X124686536Y-113596000D01*
X124686536Y-114496000D01*
X124713103Y-114637190D01*
X124796546Y-114766865D01*
X124923866Y-114853859D01*
X125075000Y-114884464D01*
X125575000Y-114884464D01*
X125716190Y-114857897D01*
X125845865Y-114774454D01*
X125932859Y-114647134D01*
X125963464Y-114496000D01*
X125963464Y-113596000D01*
X125936897Y-113454810D01*
X125853454Y-113325135D01*
X125806000Y-113292711D01*
X125806000Y-113286921D01*
X125863000Y-113298464D01*
X126613000Y-113298464D01*
X126754190Y-113271897D01*
X126883865Y-113188454D01*
X126970859Y-113061134D01*
X126990209Y-112965582D01*
X127615538Y-112965582D01*
X127799609Y-112928968D01*
X127955656Y-112824700D01*
X130630356Y-110150000D01*
X142110536Y-110150000D01*
X142110536Y-112150000D01*
X142137103Y-112291190D01*
X142220546Y-112420865D01*
X142347866Y-112507859D01*
X142499000Y-112538464D01*
X143668000Y-112538464D01*
X143668000Y-116061536D01*
X143649000Y-116061536D01*
X143507810Y-116088103D01*
X143378135Y-116171546D01*
X143291141Y-116298866D01*
X143260536Y-116450000D01*
X143260536Y-118450000D01*
X143287103Y-118591190D01*
X143370546Y-118720865D01*
X143497866Y-118807859D01*
X143649000Y-118838464D01*
X145149000Y-118838464D01*
X145290190Y-118811897D01*
X145419865Y-118728454D01*
X145506859Y-118601134D01*
X145537464Y-118450000D01*
X145537464Y-116450000D01*
X145510897Y-116308810D01*
X145427454Y-116179135D01*
X145300134Y-116092141D01*
X145149000Y-116061536D01*
X145130000Y-116061536D01*
X145130000Y-112538464D01*
X146299000Y-112538464D01*
X146440190Y-112511897D01*
X146569865Y-112428454D01*
X146656859Y-112301134D01*
X146687464Y-112150000D01*
X146687464Y-110150000D01*
X146682760Y-110125000D01*
X150492536Y-110125000D01*
X150492536Y-112125000D01*
X150519103Y-112266190D01*
X150602546Y-112395865D01*
X150729866Y-112482859D01*
X150881000Y-112513464D01*
X152050000Y-112513464D01*
X152050000Y-116036536D01*
X152031000Y-116036536D01*
X151889810Y-116063103D01*
X151760135Y-116146546D01*
X151673141Y-116273866D01*
X151642536Y-116425000D01*
X151642536Y-118425000D01*
X151669103Y-118566190D01*
X151752546Y-118695865D01*
X151879866Y-118782859D01*
X152031000Y-118813464D01*
X153531000Y-118813464D01*
X153672190Y-118786897D01*
X153801865Y-118703454D01*
X153888859Y-118576134D01*
X153919464Y-118425000D01*
X153919464Y-116425000D01*
X153892897Y-116283810D01*
X153809454Y-116154135D01*
X153682134Y-116067141D01*
X153531000Y-116036536D01*
X153512000Y-116036536D01*
X153512000Y-112513464D01*
X154681000Y-112513464D01*
X154822190Y-112486897D01*
X154951865Y-112403454D01*
X155038859Y-112276134D01*
X155069464Y-112125000D01*
X155069464Y-110125000D01*
X155042897Y-109983810D01*
X154959454Y-109854135D01*
X154832134Y-109767141D01*
X154681000Y-109736536D01*
X154007542Y-109736536D01*
X154091859Y-109613134D01*
X154122464Y-109462000D01*
X154122464Y-107962000D01*
X154095897Y-107820810D01*
X154012454Y-107691135D01*
X153885134Y-107604141D01*
X153734000Y-107573536D01*
X151784000Y-107573536D01*
X151642810Y-107600103D01*
X151513135Y-107683546D01*
X151426141Y-107810866D01*
X151395536Y-107962000D01*
X151395536Y-109462000D01*
X151422103Y-109603190D01*
X151505546Y-109732865D01*
X151510919Y-109736536D01*
X150881000Y-109736536D01*
X150739810Y-109763103D01*
X150610135Y-109846546D01*
X150523141Y-109973866D01*
X150492536Y-110125000D01*
X146682760Y-110125000D01*
X146660897Y-110008810D01*
X146577454Y-109879135D01*
X146450134Y-109792141D01*
X146299000Y-109761536D01*
X145634102Y-109761536D01*
X145666865Y-109740454D01*
X145753859Y-109613134D01*
X145784464Y-109462000D01*
X145784464Y-107962000D01*
X145757897Y-107820810D01*
X145674454Y-107691135D01*
X145547134Y-107604141D01*
X145396000Y-107573536D01*
X143446000Y-107573536D01*
X143304810Y-107600103D01*
X143175135Y-107683546D01*
X143088141Y-107810866D01*
X143057536Y-107962000D01*
X143057536Y-109462000D01*
X143084103Y-109603190D01*
X143167546Y-109732865D01*
X143209507Y-109761536D01*
X142499000Y-109761536D01*
X142357810Y-109788103D01*
X142228135Y-109871546D01*
X142141141Y-109998866D01*
X142110536Y-110150000D01*
X130630356Y-110150000D01*
X134735356Y-106045000D01*
X153797000Y-106045000D01*
X153797000Y-107315000D01*
X153823056Y-107453477D01*
X153904896Y-107580660D01*
X154029770Y-107665983D01*
X154178000Y-107696000D01*
X158877000Y-107696000D01*
X159015477Y-107669944D01*
X159142660Y-107588104D01*
X159227983Y-107463230D01*
X159258000Y-107315000D01*
X159258000Y-106045000D01*
X159231944Y-105906523D01*
X159150104Y-105779340D01*
X159025230Y-105694017D01*
X158877000Y-105664000D01*
X154178000Y-105664000D01*
X154039523Y-105690056D01*
X153912340Y-105771896D01*
X153827017Y-105896770D01*
X153797000Y-106045000D01*
X134735356Y-106045000D01*
X137075287Y-103705070D01*
X162643938Y-103705070D01*
X162828009Y-103668456D01*
X162984056Y-103564188D01*
X166210379Y-100337865D01*
X189056882Y-100337865D01*
X189160339Y-100588252D01*
X189351741Y-100779987D01*
X189601946Y-100883882D01*
X189872865Y-100884118D01*
X190123252Y-100780661D01*
X190314987Y-100589259D01*
X190418882Y-100339054D01*
X190419118Y-100068135D01*
X190315661Y-99817748D01*
X190124259Y-99626013D01*
X189874054Y-99522118D01*
X189603135Y-99521882D01*
X189352748Y-99625339D01*
X189161013Y-99816741D01*
X189057118Y-100066946D01*
X189056882Y-100337865D01*
X166210379Y-100337865D01*
X168401354Y-98146890D01*
X187534524Y-98146890D01*
X187704355Y-98556924D01*
X188094642Y-98985183D01*
X188619108Y-99231486D01*
X188849000Y-99110819D01*
X188849000Y-97917000D01*
X189103000Y-97917000D01*
X189103000Y-99110819D01*
X189332892Y-99231486D01*
X189857358Y-98985183D01*
X190247645Y-98556924D01*
X190417476Y-98146890D01*
X190296155Y-97917000D01*
X189103000Y-97917000D01*
X188849000Y-97917000D01*
X187655845Y-97917000D01*
X187534524Y-98146890D01*
X168401354Y-98146890D01*
X168983129Y-97565116D01*
X169071332Y-97433110D01*
X187534524Y-97433110D01*
X187655845Y-97663000D01*
X188849000Y-97663000D01*
X188849000Y-97643000D01*
X189103000Y-97643000D01*
X189103000Y-97663000D01*
X190296155Y-97663000D01*
X190417476Y-97433110D01*
X190247645Y-97023076D01*
X189857358Y-96594817D01*
X189432053Y-96395083D01*
X189471200Y-96387296D01*
X189870565Y-96120448D01*
X190137413Y-95721083D01*
X190231117Y-95250000D01*
X190137413Y-94778917D01*
X189870565Y-94379552D01*
X189471200Y-94112704D01*
X189000117Y-94019000D01*
X188951883Y-94019000D01*
X188480800Y-94112704D01*
X188081435Y-94379552D01*
X187814587Y-94778917D01*
X187720883Y-95250000D01*
X187814587Y-95721083D01*
X188081435Y-96120448D01*
X188480800Y-96387296D01*
X188519947Y-96395083D01*
X188094642Y-96594817D01*
X187704355Y-97023076D01*
X187534524Y-97433110D01*
X169071332Y-97433110D01*
X169087397Y-97409068D01*
X169089315Y-97399426D01*
X169124011Y-97224997D01*
X169124011Y-96592978D01*
X169265258Y-96687356D01*
X169545000Y-96743000D01*
X170527145Y-96743000D01*
X170529866Y-96744859D01*
X170681000Y-96775464D01*
X171481000Y-96775464D01*
X171622190Y-96748897D01*
X171751865Y-96665454D01*
X171838859Y-96538134D01*
X171869464Y-96387000D01*
X171869464Y-95637000D01*
X171842897Y-95495810D01*
X171759454Y-95366135D01*
X171632134Y-95279141D01*
X171481000Y-95248536D01*
X170681000Y-95248536D01*
X170539810Y-95275103D01*
X170530646Y-95281000D01*
X170176000Y-95281000D01*
X170176000Y-94949142D01*
X170209190Y-94942897D01*
X170338865Y-94859454D01*
X170425859Y-94732134D01*
X170456464Y-94581000D01*
X170456464Y-94331000D01*
X170429897Y-94189810D01*
X170346454Y-94060135D01*
X170219134Y-93973141D01*
X170136928Y-93956494D01*
X170209190Y-93942897D01*
X170338865Y-93859454D01*
X170425859Y-93732134D01*
X170456464Y-93581000D01*
X170456464Y-93437000D01*
X182045103Y-93437000D01*
X182229174Y-93400386D01*
X182385221Y-93296118D01*
X182971339Y-92710000D01*
X187720883Y-92710000D01*
X187814587Y-93181083D01*
X188081435Y-93580448D01*
X188480800Y-93847296D01*
X188951883Y-93941000D01*
X189000117Y-93941000D01*
X189471200Y-93847296D01*
X189870565Y-93580448D01*
X190137413Y-93181083D01*
X190231117Y-92710000D01*
X190137413Y-92238917D01*
X189870565Y-91839552D01*
X189471200Y-91572704D01*
X189000117Y-91479000D01*
X188951883Y-91479000D01*
X188480800Y-91572704D01*
X188081435Y-91839552D01*
X187814587Y-92238917D01*
X187720883Y-92710000D01*
X182971339Y-92710000D01*
X183918618Y-91762721D01*
X183933131Y-91741001D01*
X184022886Y-91606674D01*
X184059500Y-91422603D01*
X184059500Y-91287079D01*
X184155487Y-91191259D01*
X184259382Y-90941054D01*
X184259618Y-90670135D01*
X184156161Y-90419748D01*
X183964759Y-90228013D01*
X183825050Y-90170000D01*
X187720883Y-90170000D01*
X187814587Y-90641083D01*
X188081435Y-91040448D01*
X188480800Y-91307296D01*
X188951883Y-91401000D01*
X189000117Y-91401000D01*
X189471200Y-91307296D01*
X189870565Y-91040448D01*
X190137413Y-90641083D01*
X190231117Y-90170000D01*
X190137413Y-89698917D01*
X189870565Y-89299552D01*
X189471200Y-89032704D01*
X189000117Y-88939000D01*
X188951883Y-88939000D01*
X188480800Y-89032704D01*
X188081435Y-89299552D01*
X187814587Y-89698917D01*
X187720883Y-90170000D01*
X183825050Y-90170000D01*
X183714554Y-90124118D01*
X183443635Y-90123882D01*
X183193248Y-90227339D01*
X183001513Y-90418741D01*
X182897618Y-90668946D01*
X182897382Y-90939865D01*
X183000839Y-91190252D01*
X183065671Y-91255196D01*
X181845867Y-92475000D01*
X174426222Y-92475000D01*
X174439987Y-92461259D01*
X174543882Y-92211054D01*
X174544118Y-91940135D01*
X174440661Y-91689748D01*
X174249259Y-91498013D01*
X173999054Y-91394118D01*
X173728135Y-91393882D01*
X173477748Y-91497339D01*
X173464021Y-91511042D01*
X173458897Y-91483810D01*
X173375454Y-91354135D01*
X173248134Y-91267141D01*
X173097000Y-91236536D01*
X172597000Y-91236536D01*
X172455810Y-91263103D01*
X172326135Y-91346546D01*
X172239141Y-91473866D01*
X172208536Y-91625000D01*
X172208536Y-92475000D01*
X171985464Y-92475000D01*
X171985464Y-91625000D01*
X171958897Y-91483810D01*
X171875454Y-91354135D01*
X171748134Y-91267141D01*
X171597000Y-91236536D01*
X171277999Y-91236536D01*
X171277999Y-91135464D01*
X171597000Y-91135464D01*
X171738190Y-91108897D01*
X171867865Y-91025454D01*
X171954859Y-90898134D01*
X171985464Y-90747000D01*
X171985464Y-89847000D01*
X172208536Y-89847000D01*
X172208536Y-90747000D01*
X172235103Y-90888190D01*
X172318546Y-91017865D01*
X172445866Y-91104859D01*
X172597000Y-91135464D01*
X173097000Y-91135464D01*
X173238190Y-91108897D01*
X173367865Y-91025454D01*
X173454859Y-90898134D01*
X173462614Y-90859836D01*
X173476741Y-90873987D01*
X173726946Y-90977882D01*
X173997865Y-90978118D01*
X174248252Y-90874661D01*
X174439987Y-90683259D01*
X174543882Y-90433054D01*
X174544118Y-90162135D01*
X174440661Y-89911748D01*
X174249259Y-89720013D01*
X173999054Y-89616118D01*
X173728135Y-89615882D01*
X173477748Y-89719339D01*
X173464021Y-89733042D01*
X173458897Y-89705810D01*
X173375454Y-89576135D01*
X173248134Y-89489141D01*
X173097000Y-89458536D01*
X172597000Y-89458536D01*
X172455810Y-89485103D01*
X172326135Y-89568546D01*
X172239141Y-89695866D01*
X172208536Y-89847000D01*
X171985464Y-89847000D01*
X171958897Y-89705810D01*
X171875454Y-89576135D01*
X171748134Y-89489141D01*
X171597000Y-89458536D01*
X171388772Y-89458536D01*
X171287700Y-89357464D01*
X171597000Y-89357464D01*
X171738190Y-89330897D01*
X171867865Y-89247454D01*
X171954859Y-89120134D01*
X171985464Y-88969000D01*
X171985464Y-88069000D01*
X172208536Y-88069000D01*
X172208536Y-88969000D01*
X172235103Y-89110190D01*
X172318546Y-89239865D01*
X172445866Y-89326859D01*
X172597000Y-89357464D01*
X173097000Y-89357464D01*
X173238190Y-89330897D01*
X173367865Y-89247454D01*
X173454859Y-89120134D01*
X173462614Y-89081836D01*
X173476741Y-89095987D01*
X173726946Y-89199882D01*
X173997865Y-89200118D01*
X174248252Y-89096661D01*
X174439987Y-88905259D01*
X174491640Y-88780865D01*
X178515882Y-88780865D01*
X178619339Y-89031252D01*
X178810741Y-89222987D01*
X179060946Y-89326882D01*
X179331865Y-89327118D01*
X179582252Y-89223661D01*
X179773987Y-89032259D01*
X179877882Y-88782054D01*
X179878118Y-88511135D01*
X179774661Y-88260748D01*
X179583259Y-88069013D01*
X179333054Y-87965118D01*
X179062135Y-87964882D01*
X178811748Y-88068339D01*
X178620013Y-88259741D01*
X178516118Y-88509946D01*
X178515882Y-88780865D01*
X174491640Y-88780865D01*
X174543882Y-88655054D01*
X174544118Y-88384135D01*
X174440661Y-88133748D01*
X174249259Y-87942013D01*
X173999054Y-87838118D01*
X173728135Y-87837882D01*
X173477748Y-87941339D01*
X173464021Y-87955042D01*
X173458897Y-87927810D01*
X173375454Y-87798135D01*
X173248134Y-87711141D01*
X173097000Y-87680536D01*
X172597000Y-87680536D01*
X172455810Y-87707103D01*
X172326135Y-87790546D01*
X172239141Y-87917866D01*
X172208536Y-88069000D01*
X171985464Y-88069000D01*
X171958897Y-87927810D01*
X171875454Y-87798135D01*
X171748134Y-87711141D01*
X171597000Y-87680536D01*
X171097000Y-87680536D01*
X170955810Y-87707103D01*
X170826135Y-87790546D01*
X170739141Y-87917866D01*
X170708536Y-88069000D01*
X170708536Y-88475000D01*
X170221855Y-88475000D01*
X170219134Y-88473141D01*
X170068000Y-88442536D01*
X168768000Y-88442536D01*
X168626810Y-88469103D01*
X168497135Y-88552546D01*
X168410141Y-88679866D01*
X168379536Y-88831000D01*
X168379536Y-89081000D01*
X168403920Y-89210588D01*
X168379536Y-89331000D01*
X168379536Y-89581000D01*
X168403920Y-89710588D01*
X168379536Y-89831000D01*
X168379536Y-90081000D01*
X168403920Y-90210588D01*
X168379536Y-90331000D01*
X168379536Y-90581000D01*
X168403920Y-90710588D01*
X168379536Y-90831000D01*
X168379536Y-91014549D01*
X168227882Y-91115882D01*
X167461881Y-91881883D01*
X167357613Y-92037930D01*
X167320999Y-92222001D01*
X167320999Y-94155001D01*
X167344845Y-94274882D01*
X167357613Y-94339072D01*
X167461881Y-94495119D01*
X167591761Y-94624999D01*
X164418001Y-94624999D01*
X164233930Y-94661613D01*
X164218279Y-94672071D01*
X164077883Y-94765880D01*
X163997280Y-94846484D01*
X163899840Y-94610660D01*
X163708438Y-94418925D01*
X163458233Y-94315030D01*
X163187314Y-94314794D01*
X162936927Y-94418251D01*
X162745192Y-94609653D01*
X162641297Y-94859858D01*
X162641105Y-95080235D01*
X162594134Y-95048141D01*
X162443000Y-95017536D01*
X162234203Y-95017536D01*
X162377154Y-94874833D01*
X162481049Y-94624628D01*
X162481285Y-94353709D01*
X162377828Y-94103322D01*
X162186426Y-93911587D01*
X161936221Y-93807692D01*
X161752048Y-93807532D01*
X161732080Y-93701412D01*
X161756464Y-93581000D01*
X161756464Y-93331000D01*
X161732080Y-93201412D01*
X161756464Y-93081000D01*
X161756464Y-92831000D01*
X161732080Y-92701412D01*
X161756464Y-92581000D01*
X161756464Y-92331000D01*
X161732080Y-92201412D01*
X161756464Y-92081000D01*
X161756464Y-91831000D01*
X161732080Y-91701412D01*
X161756464Y-91581000D01*
X161756464Y-91331000D01*
X161732080Y-91201412D01*
X161756464Y-91081000D01*
X161756464Y-90831000D01*
X161732080Y-90701412D01*
X161756464Y-90581000D01*
X161756464Y-90331000D01*
X161732080Y-90201412D01*
X161756464Y-90081000D01*
X161756464Y-89831000D01*
X161729897Y-89689810D01*
X161646454Y-89560135D01*
X161519134Y-89473141D01*
X161436928Y-89456494D01*
X161509190Y-89442897D01*
X161638865Y-89359454D01*
X161725859Y-89232134D01*
X161756464Y-89081000D01*
X161756464Y-88831000D01*
X161729897Y-88689810D01*
X161646454Y-88560135D01*
X161519134Y-88473141D01*
X161368000Y-88442536D01*
X161286000Y-88442536D01*
X161286000Y-87880000D01*
X161804536Y-87880000D01*
X161804536Y-88006000D01*
X161831103Y-88147190D01*
X161914546Y-88276865D01*
X162041866Y-88363859D01*
X162193000Y-88394464D01*
X162443000Y-88394464D01*
X162572588Y-88370080D01*
X162693000Y-88394464D01*
X162943000Y-88394464D01*
X163072588Y-88370080D01*
X163193000Y-88394464D01*
X163443000Y-88394464D01*
X163572588Y-88370080D01*
X163693000Y-88394464D01*
X163943000Y-88394464D01*
X164072588Y-88370080D01*
X164193000Y-88394464D01*
X164443000Y-88394464D01*
X164572588Y-88370080D01*
X164693000Y-88394464D01*
X164837000Y-88394464D01*
X164837000Y-88762921D01*
X164741013Y-88858741D01*
X164637118Y-89108946D01*
X164636882Y-89379865D01*
X164740339Y-89630252D01*
X164931741Y-89821987D01*
X165181946Y-89925882D01*
X165452865Y-89926118D01*
X165703252Y-89822661D01*
X165894987Y-89631259D01*
X165998882Y-89381054D01*
X165999118Y-89110135D01*
X165895661Y-88859748D01*
X165799000Y-88762919D01*
X165799000Y-88159855D01*
X165800859Y-88157134D01*
X165817506Y-88074928D01*
X165831103Y-88147190D01*
X165914546Y-88276865D01*
X166041866Y-88363859D01*
X166193000Y-88394464D01*
X166443000Y-88394464D01*
X166572588Y-88370080D01*
X166693000Y-88394464D01*
X166943000Y-88394464D01*
X167072588Y-88370080D01*
X167193000Y-88394464D01*
X167443000Y-88394464D01*
X167572588Y-88370080D01*
X167693000Y-88394464D01*
X167943000Y-88394464D01*
X168084190Y-88367897D01*
X168213865Y-88284454D01*
X168300859Y-88157134D01*
X168331464Y-88006000D01*
X168331464Y-87232387D01*
X170716324Y-87232387D01*
X170735103Y-87332190D01*
X170818546Y-87461865D01*
X170945866Y-87548859D01*
X171097000Y-87579464D01*
X171597000Y-87579464D01*
X171738190Y-87552897D01*
X171867865Y-87469454D01*
X171954859Y-87342134D01*
X171985464Y-87191000D01*
X171985464Y-86291000D01*
X172208536Y-86291000D01*
X172208536Y-87191000D01*
X172235103Y-87332190D01*
X172318546Y-87461865D01*
X172445866Y-87548859D01*
X172597000Y-87579464D01*
X173097000Y-87579464D01*
X173238190Y-87552897D01*
X173367865Y-87469454D01*
X173454859Y-87342134D01*
X173462614Y-87303836D01*
X173476741Y-87317987D01*
X173726946Y-87421882D01*
X173997865Y-87422118D01*
X174248252Y-87318661D01*
X174439987Y-87127259D01*
X174543882Y-86877054D01*
X174543966Y-86780000D01*
X187737536Y-86780000D01*
X187737536Y-88480000D01*
X187764103Y-88621190D01*
X187847546Y-88750865D01*
X187974866Y-88837859D01*
X188126000Y-88868464D01*
X189826000Y-88868464D01*
X189967190Y-88841897D01*
X190096865Y-88758454D01*
X190183859Y-88631134D01*
X190214464Y-88480000D01*
X190214464Y-86780000D01*
X190187897Y-86638810D01*
X190104454Y-86509135D01*
X189977134Y-86422141D01*
X189826000Y-86391536D01*
X188126000Y-86391536D01*
X187984810Y-86418103D01*
X187855135Y-86501546D01*
X187768141Y-86628866D01*
X187737536Y-86780000D01*
X174543966Y-86780000D01*
X174544118Y-86606135D01*
X174440661Y-86355748D01*
X174249259Y-86164013D01*
X173999054Y-86060118D01*
X173728135Y-86059882D01*
X173477748Y-86163339D01*
X173464021Y-86177042D01*
X173458897Y-86149810D01*
X173375454Y-86020135D01*
X173248134Y-85933141D01*
X173097000Y-85902536D01*
X172597000Y-85902536D01*
X172455810Y-85929103D01*
X172326135Y-86012546D01*
X172239141Y-86139866D01*
X172208536Y-86291000D01*
X171985464Y-86291000D01*
X171958897Y-86149810D01*
X171875454Y-86020135D01*
X171748134Y-85933141D01*
X171597000Y-85902536D01*
X171097000Y-85902536D01*
X170955810Y-85929103D01*
X170826135Y-86012546D01*
X170739141Y-86139866D01*
X170712710Y-86270387D01*
X168233849Y-86270387D01*
X169060237Y-85444000D01*
X170714369Y-85444000D01*
X170735103Y-85554190D01*
X170818546Y-85683865D01*
X170945866Y-85770859D01*
X171097000Y-85801464D01*
X171597000Y-85801464D01*
X171738190Y-85774897D01*
X171867865Y-85691454D01*
X171954859Y-85564134D01*
X171985464Y-85413000D01*
X171985464Y-84513000D01*
X172208536Y-84513000D01*
X172208536Y-85413000D01*
X172235103Y-85554190D01*
X172318546Y-85683865D01*
X172445866Y-85770859D01*
X172597000Y-85801464D01*
X173097000Y-85801464D01*
X173238190Y-85774897D01*
X173367865Y-85691454D01*
X173454859Y-85564134D01*
X173462614Y-85525836D01*
X173476741Y-85539987D01*
X173726946Y-85643882D01*
X173997865Y-85644118D01*
X174248252Y-85540661D01*
X174439987Y-85349259D01*
X174543882Y-85099054D01*
X174544118Y-84828135D01*
X174503649Y-84730191D01*
X177589414Y-84730191D01*
X177895472Y-85173659D01*
X179120252Y-85683725D01*
X180446995Y-85686262D01*
X181673716Y-85180883D01*
X181684528Y-85173659D01*
X181990586Y-84730191D01*
X179790000Y-82529605D01*
X177589414Y-84730191D01*
X174503649Y-84730191D01*
X174440661Y-84577748D01*
X174249259Y-84386013D01*
X173999054Y-84282118D01*
X173728135Y-84281882D01*
X173477748Y-84385339D01*
X173464021Y-84399042D01*
X173458897Y-84371810D01*
X173375454Y-84242135D01*
X173248134Y-84155141D01*
X173097000Y-84124536D01*
X172597000Y-84124536D01*
X172455810Y-84151103D01*
X172326135Y-84234546D01*
X172239141Y-84361866D01*
X172208536Y-84513000D01*
X171985464Y-84513000D01*
X171958897Y-84371810D01*
X171875454Y-84242135D01*
X171748134Y-84155141D01*
X171597000Y-84124536D01*
X171097000Y-84124536D01*
X170955810Y-84151103D01*
X170826135Y-84234546D01*
X170739141Y-84361866D01*
X170714814Y-84482000D01*
X168861000Y-84482000D01*
X168676930Y-84518613D01*
X168520882Y-84622881D01*
X168121000Y-85022763D01*
X168121000Y-83006995D01*
X176453738Y-83006995D01*
X176959117Y-84233716D01*
X176966341Y-84244528D01*
X177409809Y-84550586D01*
X179610395Y-82350000D01*
X179969605Y-82350000D01*
X182170191Y-84550586D01*
X182613659Y-84244528D01*
X183123725Y-83019748D01*
X183125034Y-82335000D01*
X183292536Y-82335000D01*
X183292536Y-84035000D01*
X183319103Y-84176190D01*
X183402546Y-84305865D01*
X183529866Y-84392859D01*
X183681000Y-84423464D01*
X185381000Y-84423464D01*
X185522190Y-84396897D01*
X185651865Y-84313454D01*
X185738859Y-84186134D01*
X185769464Y-84035000D01*
X185769464Y-83160883D01*
X185840000Y-83160883D01*
X185840000Y-83209117D01*
X185933704Y-83680200D01*
X186200552Y-84079565D01*
X186599917Y-84346413D01*
X187071000Y-84440117D01*
X187542083Y-84346413D01*
X187941448Y-84079565D01*
X188208296Y-83680200D01*
X188216083Y-83641053D01*
X188415817Y-84066358D01*
X188844076Y-84456645D01*
X189254110Y-84626476D01*
X189484000Y-84505155D01*
X189484000Y-83312000D01*
X189738000Y-83312000D01*
X189738000Y-84505155D01*
X189967890Y-84626476D01*
X190377924Y-84456645D01*
X190806183Y-84066358D01*
X191052486Y-83541892D01*
X190931819Y-83312000D01*
X189738000Y-83312000D01*
X189484000Y-83312000D01*
X189464000Y-83312000D01*
X189464000Y-83058000D01*
X189484000Y-83058000D01*
X189484000Y-81864845D01*
X189738000Y-81864845D01*
X189738000Y-83058000D01*
X190931819Y-83058000D01*
X191052486Y-82828108D01*
X190806183Y-82303642D01*
X190377924Y-81913355D01*
X189967890Y-81743524D01*
X189738000Y-81864845D01*
X189484000Y-81864845D01*
X189254110Y-81743524D01*
X188844076Y-81913355D01*
X188415817Y-82303642D01*
X188216083Y-82728947D01*
X188208296Y-82689800D01*
X187941448Y-82290435D01*
X187542083Y-82023587D01*
X187071000Y-81929883D01*
X186599917Y-82023587D01*
X186200552Y-82290435D01*
X185933704Y-82689800D01*
X185840000Y-83160883D01*
X185769464Y-83160883D01*
X185769464Y-82335000D01*
X185742897Y-82193810D01*
X185659454Y-82064135D01*
X185532134Y-81977141D01*
X185381000Y-81946536D01*
X183681000Y-81946536D01*
X183539810Y-81973103D01*
X183410135Y-82056546D01*
X183323141Y-82183866D01*
X183292536Y-82335000D01*
X183125034Y-82335000D01*
X183126262Y-81693005D01*
X182620883Y-80466284D01*
X182613659Y-80455472D01*
X182170191Y-80149414D01*
X179969605Y-82350000D01*
X179610395Y-82350000D01*
X177409809Y-80149414D01*
X176966341Y-80455472D01*
X176456275Y-81680252D01*
X176453738Y-83006995D01*
X168121000Y-83006995D01*
X168121000Y-82397079D01*
X168216987Y-82301259D01*
X168320882Y-82051054D01*
X168321118Y-81780135D01*
X168217661Y-81529748D01*
X168026259Y-81338013D01*
X167776054Y-81234118D01*
X167505135Y-81233882D01*
X167254748Y-81337339D01*
X167063013Y-81528741D01*
X166959118Y-81778946D01*
X166958882Y-82049865D01*
X167062339Y-82300252D01*
X167159000Y-82397081D01*
X167159000Y-85270765D01*
X167133464Y-85296301D01*
X167133464Y-84678000D01*
X167106897Y-84536810D01*
X167023454Y-84407135D01*
X166896134Y-84320141D01*
X166745000Y-84289536D01*
X165995000Y-84289536D01*
X165853810Y-84316103D01*
X165724135Y-84399546D01*
X165637141Y-84526866D01*
X165606536Y-84678000D01*
X165606536Y-85478000D01*
X165633103Y-85619190D01*
X165691567Y-85710047D01*
X165689118Y-85715946D01*
X165688882Y-85986865D01*
X165792339Y-86237252D01*
X165837000Y-86281991D01*
X165837000Y-86552145D01*
X165835141Y-86554866D01*
X165818494Y-86637072D01*
X165804897Y-86564810D01*
X165721454Y-86435135D01*
X165594134Y-86348141D01*
X165443000Y-86317536D01*
X165299000Y-86317536D01*
X165299000Y-85333344D01*
X165314859Y-85310134D01*
X165345464Y-85159000D01*
X165345464Y-84259000D01*
X165318897Y-84117810D01*
X165235454Y-83988135D01*
X165108134Y-83901141D01*
X164957000Y-83870536D01*
X164573211Y-83870536D01*
X164602865Y-83851454D01*
X164689859Y-83724134D01*
X164720464Y-83573000D01*
X164720464Y-82773000D01*
X164693897Y-82631810D01*
X164610454Y-82502135D01*
X164483134Y-82415141D01*
X164332000Y-82384536D01*
X163582000Y-82384536D01*
X163440810Y-82411103D01*
X163311135Y-82494546D01*
X163308464Y-82498455D01*
X163308464Y-82419000D01*
X163281897Y-82277810D01*
X163198454Y-82148135D01*
X163071134Y-82061141D01*
X162920000Y-82030536D01*
X161551774Y-82030536D01*
X161108464Y-81587226D01*
X161108464Y-80745000D01*
X163200481Y-80745000D01*
X163207103Y-80780190D01*
X163290546Y-80909865D01*
X163417866Y-80996859D01*
X163569000Y-81027464D01*
X164369000Y-81027464D01*
X164510190Y-81000897D01*
X164639865Y-80917454D01*
X164726859Y-80790134D01*
X164757464Y-80639000D01*
X164757464Y-79889000D01*
X164737142Y-79781000D01*
X177719720Y-79781000D01*
X177589414Y-79969809D01*
X179790000Y-82170395D01*
X181990586Y-79969809D01*
X181860280Y-79781000D01*
X191359000Y-79781000D01*
X191359000Y-106723000D01*
X176168954Y-106723000D01*
X176209859Y-106663134D01*
X176240464Y-106512000D01*
X176240464Y-105312000D01*
X176213897Y-105170810D01*
X176130454Y-105041135D01*
X176003134Y-104954141D01*
X175852000Y-104923536D01*
X173652000Y-104923536D01*
X173510810Y-104950103D01*
X173381135Y-105033546D01*
X173294141Y-105160866D01*
X173290064Y-105181000D01*
X170440000Y-105181000D01*
X170160259Y-105236643D01*
X169923105Y-105395105D01*
X163313105Y-112005105D01*
X163154644Y-112242259D01*
X163099000Y-112522000D01*
X163154644Y-112801741D01*
X163313105Y-113038895D01*
X163550259Y-113197356D01*
X163727736Y-113232658D01*
X161005000Y-115955394D01*
X161005000Y-111721326D01*
X170643326Y-102083000D01*
X173288186Y-102083000D01*
X173290103Y-102093190D01*
X173373546Y-102222865D01*
X173500866Y-102309859D01*
X173652000Y-102340464D01*
X175852000Y-102340464D01*
X175993190Y-102313897D01*
X176122865Y-102230454D01*
X176209859Y-102103134D01*
X176240464Y-101952000D01*
X176240464Y-100752000D01*
X176213897Y-100610810D01*
X176130454Y-100481135D01*
X176003134Y-100394141D01*
X175852000Y-100363536D01*
X173652000Y-100363536D01*
X173510810Y-100390103D01*
X173381135Y-100473546D01*
X173294141Y-100600866D01*
X173290064Y-100621000D01*
X170340777Y-100621000D01*
X170340576Y-100620960D01*
X170060834Y-100676604D01*
X169823681Y-100835065D01*
X159757105Y-110901641D01*
X159598644Y-111138794D01*
X159543000Y-111418536D01*
X159543000Y-119357212D01*
X156769212Y-122131000D01*
X151756755Y-122131000D01*
X151805859Y-122059134D01*
X151836464Y-121908000D01*
X151836464Y-120408000D01*
X151809897Y-120266810D01*
X151726454Y-120137135D01*
X151599134Y-120050141D01*
X151448000Y-120019536D01*
X151214000Y-120019536D01*
X151214000Y-119945443D01*
X151240859Y-119906134D01*
X151271464Y-119755000D01*
X151271464Y-119005000D01*
X151244897Y-118863810D01*
X151212500Y-118813464D01*
X151231000Y-118813464D01*
X151372190Y-118786897D01*
X151501865Y-118703454D01*
X151588859Y-118576134D01*
X151619464Y-118425000D01*
X151619464Y-116425000D01*
X151592897Y-116283810D01*
X151509454Y-116154135D01*
X151382134Y-116067141D01*
X151231000Y-116036536D01*
X149731000Y-116036536D01*
X149589810Y-116063103D01*
X149460135Y-116146546D01*
X149373141Y-116273866D01*
X149342536Y-116425000D01*
X149342536Y-118425000D01*
X149369103Y-118566190D01*
X149452546Y-118695865D01*
X149579866Y-118782859D01*
X149731000Y-118813464D01*
X149750000Y-118813464D01*
X149750000Y-118817484D01*
X149725141Y-118853866D01*
X149694536Y-119005000D01*
X149694536Y-119755000D01*
X149721103Y-119896190D01*
X149752000Y-119944206D01*
X149752000Y-120019536D01*
X149498000Y-120019536D01*
X149356810Y-120046103D01*
X149227135Y-120129546D01*
X149140141Y-120256866D01*
X149109536Y-120408000D01*
X149109536Y-121908000D01*
X149136103Y-122049190D01*
X149188746Y-122131000D01*
X143396755Y-122131000D01*
X143445859Y-122059134D01*
X143476464Y-121908000D01*
X143476464Y-120408000D01*
X143449897Y-120266810D01*
X143366454Y-120137135D01*
X143239134Y-120050141D01*
X143088000Y-120019536D01*
X142844000Y-120019536D01*
X142844000Y-119963006D01*
X142882859Y-119906134D01*
X142913464Y-119755000D01*
X142913464Y-119005000D01*
X142886897Y-118863810D01*
X142868256Y-118834841D01*
X142990190Y-118811897D01*
X143119865Y-118728454D01*
X143206859Y-118601134D01*
X143237464Y-118450000D01*
X143237464Y-116450000D01*
X143210897Y-116308810D01*
X143127454Y-116179135D01*
X143000134Y-116092141D01*
X142849000Y-116061536D01*
X141349000Y-116061536D01*
X141207810Y-116088103D01*
X141078135Y-116171546D01*
X140991141Y-116298866D01*
X140960536Y-116450000D01*
X140960536Y-118450000D01*
X140987103Y-118591190D01*
X141070546Y-118720865D01*
X141197866Y-118807859D01*
X141349000Y-118838464D01*
X141377665Y-118838464D01*
X141367141Y-118853866D01*
X141336536Y-119005000D01*
X141336536Y-119755000D01*
X141363103Y-119896190D01*
X141382000Y-119925557D01*
X141382000Y-120019536D01*
X141138000Y-120019536D01*
X140996810Y-120046103D01*
X140867135Y-120129546D01*
X140780141Y-120256866D01*
X140749536Y-120408000D01*
X140749536Y-121908000D01*
X140776103Y-122049190D01*
X140859546Y-122178865D01*
X140986866Y-122265859D01*
X141138000Y-122296464D01*
X141382000Y-122296464D01*
X141382000Y-122735000D01*
X141437644Y-123014742D01*
X141593023Y-123247282D01*
X141596105Y-123251895D01*
X141723105Y-123378895D01*
X141960258Y-123537356D01*
X142240000Y-123593000D01*
X157072002Y-123593000D01*
X157351744Y-123537356D01*
X157588897Y-123378895D01*
X160663000Y-120304792D01*
X160663000Y-129350000D01*
X160673006Y-129399410D01*
X160701447Y-129441035D01*
X160743841Y-129468315D01*
X160790000Y-129477000D01*
X176540920Y-129477000D01*
X176456275Y-129680252D01*
X176453738Y-131006995D01*
X176959117Y-132233716D01*
X176966341Y-132244528D01*
X177409809Y-132550586D01*
X179610395Y-130350000D01*
X179596253Y-130335858D01*
X179775858Y-130156253D01*
X179790000Y-130170395D01*
X179804143Y-130156253D01*
X179983748Y-130335858D01*
X179969605Y-130350000D01*
X182170191Y-132550586D01*
X182613659Y-132244528D01*
X183123725Y-131019748D01*
X183126262Y-129693005D01*
X183037273Y-129477000D01*
X191359000Y-129477000D01*
X191359000Y-132919000D01*
X181860280Y-132919000D01*
X181990586Y-132730191D01*
X179790000Y-130529605D01*
X177589414Y-132730191D01*
X177719720Y-132919000D01*
X111860280Y-132919000D01*
X111990586Y-132730191D01*
X109790000Y-130529605D01*
X107589414Y-132730191D01*
X107719720Y-132919000D01*
X98221000Y-132919000D01*
X98221000Y-131006995D01*
X106453738Y-131006995D01*
X106959117Y-132233716D01*
X106966341Y-132244528D01*
X107409809Y-132550586D01*
X109610395Y-130350000D01*
X109969605Y-130350000D01*
X112170191Y-132550586D01*
X112613659Y-132244528D01*
X113123725Y-131019748D01*
X113126262Y-129693005D01*
X112620883Y-128466284D01*
X112613659Y-128455472D01*
X112170191Y-128149414D01*
X109969605Y-130350000D01*
X109610395Y-130350000D01*
X107409809Y-128149414D01*
X106966341Y-128455472D01*
X106456275Y-129680252D01*
X106453738Y-131006995D01*
X98221000Y-131006995D01*
X98221000Y-129811200D01*
X103424405Y-129811200D01*
X103459692Y-130024768D01*
X103882564Y-130165149D01*
X104326968Y-130133018D01*
X104588308Y-130024768D01*
X104623595Y-129811200D01*
X104024000Y-129211605D01*
X103424405Y-129811200D01*
X98221000Y-129811200D01*
X98221000Y-128890564D01*
X102890851Y-128890564D01*
X102922982Y-129334968D01*
X103031232Y-129596308D01*
X103244800Y-129631595D01*
X103844395Y-129032000D01*
X104203605Y-129032000D01*
X104803200Y-129631595D01*
X105016768Y-129596308D01*
X105157149Y-129173436D01*
X105125018Y-128729032D01*
X105016768Y-128467692D01*
X104803200Y-128432405D01*
X104203605Y-129032000D01*
X103844395Y-129032000D01*
X103244800Y-128432405D01*
X103031232Y-128467692D01*
X102890851Y-128890564D01*
X98221000Y-128890564D01*
X98221000Y-128252800D01*
X103424405Y-128252800D01*
X104024000Y-128852395D01*
X104623595Y-128252800D01*
X104588308Y-128039232D01*
X104379184Y-127969809D01*
X107589414Y-127969809D01*
X109790000Y-130170395D01*
X111990586Y-127969809D01*
X111684528Y-127526341D01*
X110459748Y-127016275D01*
X109133005Y-127013738D01*
X107906284Y-127519117D01*
X107895472Y-127526341D01*
X107589414Y-127969809D01*
X104379184Y-127969809D01*
X104165436Y-127898851D01*
X103721032Y-127930982D01*
X103459692Y-128039232D01*
X103424405Y-128252800D01*
X98221000Y-128252800D01*
X98221000Y-124819000D01*
X135961536Y-124819000D01*
X135961536Y-128419000D01*
X135988103Y-128560190D01*
X136071546Y-128689865D01*
X136198866Y-128776859D01*
X136350000Y-128807464D01*
X138430000Y-128807464D01*
X138571190Y-128780897D01*
X138700865Y-128697454D01*
X138787859Y-128570134D01*
X138818464Y-128419000D01*
X138818464Y-125816272D01*
X141049000Y-125816272D01*
X141049000Y-127421728D01*
X141157167Y-127965521D01*
X141465201Y-128426527D01*
X141926207Y-128734561D01*
X142470000Y-128842728D01*
X143013793Y-128734561D01*
X143474799Y-128426527D01*
X143782833Y-127965521D01*
X143891000Y-127421728D01*
X143891000Y-125816272D01*
X146129000Y-125816272D01*
X146129000Y-127421728D01*
X146237167Y-127965521D01*
X146545201Y-128426527D01*
X147006207Y-128734561D01*
X147550000Y-128842728D01*
X148093793Y-128734561D01*
X148554799Y-128426527D01*
X148862833Y-127965521D01*
X148971000Y-127421728D01*
X148971000Y-126746000D01*
X150955000Y-126746000D01*
X150955000Y-127506000D01*
X151131103Y-128137327D01*
X151535399Y-128653206D01*
X152106338Y-128975099D01*
X152243290Y-129008748D01*
X152503000Y-128889922D01*
X152503000Y-126746000D01*
X152757000Y-126746000D01*
X152757000Y-128889922D01*
X153016710Y-129008748D01*
X153153662Y-128975099D01*
X153724601Y-128653206D01*
X154128897Y-128137327D01*
X154305000Y-127506000D01*
X154305000Y-126746000D01*
X152757000Y-126746000D01*
X152503000Y-126746000D01*
X150955000Y-126746000D01*
X148971000Y-126746000D01*
X148971000Y-125816272D01*
X148954238Y-125732000D01*
X150955000Y-125732000D01*
X150955000Y-126492000D01*
X152503000Y-126492000D01*
X152503000Y-124348078D01*
X152757000Y-124348078D01*
X152757000Y-126492000D01*
X154305000Y-126492000D01*
X154305000Y-125816272D01*
X156289000Y-125816272D01*
X156289000Y-127421728D01*
X156397167Y-127965521D01*
X156705201Y-128426527D01*
X157166207Y-128734561D01*
X157710000Y-128842728D01*
X158253793Y-128734561D01*
X158714799Y-128426527D01*
X159022833Y-127965521D01*
X159131000Y-127421728D01*
X159131000Y-125816272D01*
X159022833Y-125272479D01*
X158714799Y-124811473D01*
X158253793Y-124503439D01*
X157710000Y-124395272D01*
X157166207Y-124503439D01*
X156705201Y-124811473D01*
X156397167Y-125272479D01*
X156289000Y-125816272D01*
X154305000Y-125816272D01*
X154305000Y-125732000D01*
X154128897Y-125100673D01*
X153724601Y-124584794D01*
X153153662Y-124262901D01*
X153016710Y-124229252D01*
X152757000Y-124348078D01*
X152503000Y-124348078D01*
X152243290Y-124229252D01*
X152106338Y-124262901D01*
X151535399Y-124584794D01*
X151131103Y-125100673D01*
X150955000Y-125732000D01*
X148954238Y-125732000D01*
X148862833Y-125272479D01*
X148554799Y-124811473D01*
X148093793Y-124503439D01*
X147550000Y-124395272D01*
X147006207Y-124503439D01*
X146545201Y-124811473D01*
X146237167Y-125272479D01*
X146129000Y-125816272D01*
X143891000Y-125816272D01*
X143782833Y-125272479D01*
X143474799Y-124811473D01*
X143013793Y-124503439D01*
X142470000Y-124395272D01*
X141926207Y-124503439D01*
X141465201Y-124811473D01*
X141157167Y-125272479D01*
X141049000Y-125816272D01*
X138818464Y-125816272D01*
X138818464Y-124819000D01*
X138791897Y-124677810D01*
X138708454Y-124548135D01*
X138581134Y-124461141D01*
X138430000Y-124430536D01*
X136350000Y-124430536D01*
X136208810Y-124457103D01*
X136079135Y-124540546D01*
X135992141Y-124667866D01*
X135961536Y-124819000D01*
X98221000Y-124819000D01*
X98221000Y-121051200D01*
X103424405Y-121051200D01*
X103459692Y-121264768D01*
X103882564Y-121405149D01*
X104326968Y-121373018D01*
X104588308Y-121264768D01*
X104623595Y-121051200D01*
X104024000Y-120451605D01*
X103424405Y-121051200D01*
X98221000Y-121051200D01*
X98221000Y-120130564D01*
X102890851Y-120130564D01*
X102922982Y-120574968D01*
X103031232Y-120836308D01*
X103244800Y-120871595D01*
X103844395Y-120272000D01*
X104203605Y-120272000D01*
X104803200Y-120871595D01*
X105016768Y-120836308D01*
X105157149Y-120413436D01*
X105125018Y-119969032D01*
X105016768Y-119707692D01*
X104803200Y-119672405D01*
X104203605Y-120272000D01*
X103844395Y-120272000D01*
X103244800Y-119672405D01*
X103031232Y-119707692D01*
X102890851Y-120130564D01*
X98221000Y-120130564D01*
X98221000Y-119492800D01*
X103424405Y-119492800D01*
X104024000Y-120092395D01*
X104623595Y-119492800D01*
X104588308Y-119279232D01*
X104165436Y-119138851D01*
X103721032Y-119170982D01*
X103459692Y-119279232D01*
X103424405Y-119492800D01*
X98221000Y-119492800D01*
X98221000Y-114808000D01*
X102743000Y-114808000D01*
X102743000Y-117856000D01*
X102769056Y-117994477D01*
X102850896Y-118121660D01*
X102975770Y-118206983D01*
X103124000Y-118237000D01*
X105664000Y-118237000D01*
X105802477Y-118210944D01*
X105929660Y-118129104D01*
X106014983Y-118004230D01*
X106045000Y-117856000D01*
X106045000Y-114808000D01*
X106018944Y-114669523D01*
X105937104Y-114542340D01*
X105812230Y-114457017D01*
X105664000Y-114427000D01*
X103124000Y-114427000D01*
X102985523Y-114453056D01*
X102858340Y-114534896D01*
X102773017Y-114659770D01*
X102743000Y-114808000D01*
X98221000Y-114808000D01*
X98221000Y-114220473D01*
X121800847Y-114220473D01*
X121934689Y-114544395D01*
X122182302Y-114792440D01*
X122505989Y-114926847D01*
X122856473Y-114927153D01*
X123180395Y-114793311D01*
X123261479Y-114712369D01*
X123296546Y-114766865D01*
X123423866Y-114853859D01*
X123575000Y-114884464D01*
X124075000Y-114884464D01*
X124216190Y-114857897D01*
X124345865Y-114774454D01*
X124432859Y-114647134D01*
X124463464Y-114496000D01*
X124463464Y-113596000D01*
X124436897Y-113454810D01*
X124353454Y-113325135D01*
X124226134Y-113238141D01*
X124075000Y-113207536D01*
X123575000Y-113207536D01*
X123433810Y-113234103D01*
X123304135Y-113317546D01*
X123261680Y-113379681D01*
X123181698Y-113299560D01*
X122858011Y-113165153D01*
X122507527Y-113164847D01*
X122183605Y-113298689D01*
X121935560Y-113546302D01*
X121801153Y-113869989D01*
X121800847Y-114220473D01*
X98221000Y-114220473D01*
X98221000Y-109037365D01*
X127334882Y-109037365D01*
X127438339Y-109287752D01*
X127629741Y-109479487D01*
X127879946Y-109583382D01*
X128150865Y-109583618D01*
X128401252Y-109480161D01*
X128592987Y-109288759D01*
X128696882Y-109038554D01*
X128697118Y-108767635D01*
X128593661Y-108517248D01*
X128402259Y-108325513D01*
X128152054Y-108221618D01*
X127881135Y-108221382D01*
X127630748Y-108324839D01*
X127439013Y-108516241D01*
X127335118Y-108766446D01*
X127334882Y-109037365D01*
X98221000Y-109037365D01*
X98221000Y-105544865D01*
X101553882Y-105544865D01*
X101657339Y-105795252D01*
X101848741Y-105986987D01*
X102098946Y-106090882D01*
X102369865Y-106091118D01*
X102620252Y-105987661D01*
X102811987Y-105796259D01*
X102915882Y-105546054D01*
X102916118Y-105275135D01*
X102812661Y-105024748D01*
X102621259Y-104833013D01*
X102371054Y-104729118D01*
X102100135Y-104728882D01*
X101849748Y-104832339D01*
X101658013Y-105023741D01*
X101554118Y-105273946D01*
X101553882Y-105544865D01*
X98221000Y-105544865D01*
X98221000Y-104355814D01*
X102466059Y-104355814D01*
X102569516Y-104606201D01*
X102760918Y-104797936D01*
X103011123Y-104901831D01*
X103282042Y-104902067D01*
X103532429Y-104798610D01*
X103724164Y-104607208D01*
X103828059Y-104357003D01*
X103828295Y-104086084D01*
X103724838Y-103835697D01*
X103533436Y-103643962D01*
X103283231Y-103540067D01*
X103012312Y-103539831D01*
X102761925Y-103643288D01*
X102570190Y-103834690D01*
X102466295Y-104084895D01*
X102466059Y-104355814D01*
X98221000Y-104355814D01*
X98221000Y-103254743D01*
X103384599Y-103254743D01*
X103488056Y-103505130D01*
X103679458Y-103696865D01*
X103929663Y-103800760D01*
X104200582Y-103800996D01*
X104450969Y-103697539D01*
X104642704Y-103506137D01*
X104746599Y-103255932D01*
X104746835Y-102985013D01*
X104643378Y-102734626D01*
X104451976Y-102542891D01*
X104201771Y-102438996D01*
X103930852Y-102438760D01*
X103680465Y-102542217D01*
X103488730Y-102733619D01*
X103384835Y-102983824D01*
X103384599Y-103254743D01*
X98221000Y-103254743D01*
X98221000Y-102150814D01*
X104358433Y-102150814D01*
X104461890Y-102401201D01*
X104653292Y-102592936D01*
X104903497Y-102696831D01*
X105174416Y-102697067D01*
X105424803Y-102593610D01*
X105616538Y-102402208D01*
X105710191Y-102176666D01*
X121904445Y-102176666D01*
X122038287Y-102500588D01*
X122285900Y-102748633D01*
X122609587Y-102883040D01*
X122960071Y-102883346D01*
X123283993Y-102749504D01*
X123532038Y-102501891D01*
X123666445Y-102178204D01*
X123666751Y-101827720D01*
X123659019Y-101809008D01*
X126501027Y-98967000D01*
X127478777Y-98967000D01*
X127490103Y-99027190D01*
X127573546Y-99156865D01*
X127700866Y-99243859D01*
X127801000Y-99264136D01*
X127801000Y-100216777D01*
X127740810Y-100228103D01*
X127611135Y-100311546D01*
X127524141Y-100438866D01*
X127493536Y-100590000D01*
X127493536Y-101340000D01*
X127520103Y-101481190D01*
X127603546Y-101610865D01*
X127730866Y-101697859D01*
X127882000Y-101728464D01*
X128682000Y-101728464D01*
X128823190Y-101701897D01*
X128952865Y-101618454D01*
X129039859Y-101491134D01*
X129070464Y-101340000D01*
X129070464Y-100590000D01*
X129043897Y-100448810D01*
X128960454Y-100319135D01*
X128833134Y-100232141D01*
X128763000Y-100217939D01*
X128763000Y-99272394D01*
X128893190Y-99247897D01*
X129022865Y-99164454D01*
X129109859Y-99037134D01*
X129140464Y-98886000D01*
X129140464Y-98671000D01*
X138607536Y-98671000D01*
X138607536Y-99171000D01*
X138634103Y-99312190D01*
X138717546Y-99441865D01*
X138792476Y-99493062D01*
X138765118Y-99558946D01*
X138764882Y-99829865D01*
X138868339Y-100080252D01*
X139059741Y-100271987D01*
X139309946Y-100375882D01*
X139580865Y-100376118D01*
X139831252Y-100272661D01*
X140022987Y-100081259D01*
X140126882Y-99831054D01*
X140127118Y-99560135D01*
X140099339Y-99492905D01*
X140166865Y-99449454D01*
X140253859Y-99322134D01*
X140284464Y-99171000D01*
X140284464Y-98671000D01*
X140257897Y-98529810D01*
X140174454Y-98400135D01*
X140047134Y-98313141D01*
X139896000Y-98282536D01*
X138996000Y-98282536D01*
X138854810Y-98309103D01*
X138725135Y-98392546D01*
X138638141Y-98519866D01*
X138607536Y-98671000D01*
X129140464Y-98671000D01*
X129140464Y-98086000D01*
X129113897Y-97944810D01*
X129030454Y-97815135D01*
X128903134Y-97728141D01*
X128752000Y-97697536D01*
X127852000Y-97697536D01*
X127710810Y-97724103D01*
X127581135Y-97807546D01*
X127494141Y-97934866D01*
X127479939Y-98005000D01*
X126301791Y-98005000D01*
X126117720Y-98041614D01*
X125961673Y-98145882D01*
X122978991Y-101128564D01*
X122961609Y-101121346D01*
X122611125Y-101121040D01*
X122287203Y-101254882D01*
X122039158Y-101502495D01*
X121904751Y-101826182D01*
X121904445Y-102176666D01*
X105710191Y-102176666D01*
X105720433Y-102152003D01*
X105720669Y-101881084D01*
X105617212Y-101630697D01*
X105463410Y-101476628D01*
X105622481Y-101317833D01*
X105726376Y-101067628D01*
X105726612Y-100796709D01*
X105623155Y-100546322D01*
X105431753Y-100354587D01*
X105181548Y-100250692D01*
X104910629Y-100250456D01*
X104660242Y-100353913D01*
X104468507Y-100545315D01*
X104364612Y-100795520D01*
X104364376Y-101066439D01*
X104467833Y-101316826D01*
X104621635Y-101470895D01*
X104462564Y-101629690D01*
X104358669Y-101879895D01*
X104358433Y-102150814D01*
X98221000Y-102150814D01*
X98221000Y-98892182D01*
X121847421Y-98892182D01*
X121981263Y-99216104D01*
X122228876Y-99464149D01*
X122552563Y-99598556D01*
X122903047Y-99598862D01*
X123226969Y-99465020D01*
X123475014Y-99217407D01*
X123609421Y-98893720D01*
X123609727Y-98543236D01*
X123601995Y-98524524D01*
X124990519Y-97136000D01*
X129463536Y-97136000D01*
X129463536Y-97936000D01*
X129490103Y-98077190D01*
X129573546Y-98206865D01*
X129700866Y-98293859D01*
X129852000Y-98324464D01*
X130752000Y-98324464D01*
X130893190Y-98297897D01*
X131022865Y-98214454D01*
X131025641Y-98210391D01*
X131055546Y-98256865D01*
X131182866Y-98343859D01*
X131334000Y-98374464D01*
X131834000Y-98374464D01*
X131975190Y-98347897D01*
X132104865Y-98264454D01*
X132191859Y-98137134D01*
X132222464Y-97986000D01*
X132222464Y-97086000D01*
X132195897Y-96944810D01*
X132112454Y-96815135D01*
X131985134Y-96728141D01*
X131834000Y-96697536D01*
X131334000Y-96697536D01*
X131192810Y-96724103D01*
X131063135Y-96807546D01*
X131025908Y-96862029D01*
X130903134Y-96778141D01*
X130752000Y-96747536D01*
X129852000Y-96747536D01*
X129710810Y-96774103D01*
X129581135Y-96857546D01*
X129494141Y-96984866D01*
X129463536Y-97136000D01*
X124990519Y-97136000D01*
X126710520Y-95416000D01*
X127478777Y-95416000D01*
X127490103Y-95476190D01*
X127573546Y-95605865D01*
X127700866Y-95692859D01*
X127852000Y-95723464D01*
X128752000Y-95723464D01*
X128893190Y-95696897D01*
X129022865Y-95613454D01*
X129109859Y-95486134D01*
X129140464Y-95335000D01*
X129140464Y-94535000D01*
X129113897Y-94393810D01*
X129030454Y-94264135D01*
X128903134Y-94177141D01*
X128763000Y-94148764D01*
X128763000Y-93585000D01*
X129463536Y-93585000D01*
X129463536Y-94385000D01*
X129490103Y-94526190D01*
X129573546Y-94655865D01*
X129700866Y-94742859D01*
X129852000Y-94773464D01*
X130752000Y-94773464D01*
X130893190Y-94746897D01*
X131022865Y-94663454D01*
X131027298Y-94656966D01*
X131055546Y-94700865D01*
X131182866Y-94787859D01*
X131334000Y-94818464D01*
X131834000Y-94818464D01*
X131975190Y-94791897D01*
X132104865Y-94708454D01*
X132191859Y-94581134D01*
X132222464Y-94430000D01*
X132222464Y-93530000D01*
X132195897Y-93388810D01*
X132112454Y-93259135D01*
X131985134Y-93172141D01*
X131834000Y-93141536D01*
X131334000Y-93141536D01*
X131192810Y-93168103D01*
X131063135Y-93251546D01*
X131023579Y-93309438D01*
X130903134Y-93227141D01*
X130752000Y-93196536D01*
X129852000Y-93196536D01*
X129710810Y-93223103D01*
X129581135Y-93306546D01*
X129494141Y-93433866D01*
X129463536Y-93585000D01*
X128763000Y-93585000D01*
X128763000Y-93204223D01*
X128823190Y-93192897D01*
X128952865Y-93109454D01*
X129039859Y-92982134D01*
X129070464Y-92831000D01*
X129070464Y-92081000D01*
X129043897Y-91939810D01*
X128960454Y-91810135D01*
X128833134Y-91723141D01*
X128682000Y-91692536D01*
X127882000Y-91692536D01*
X127740810Y-91719103D01*
X127611135Y-91802546D01*
X127524141Y-91929866D01*
X127493536Y-92081000D01*
X127493536Y-92831000D01*
X127520103Y-92972190D01*
X127603546Y-93101865D01*
X127730866Y-93188859D01*
X127801000Y-93203061D01*
X127801000Y-94156132D01*
X127710810Y-94173103D01*
X127581135Y-94256546D01*
X127494141Y-94383866D01*
X127479939Y-94454000D01*
X126511283Y-94454000D01*
X126327212Y-94490614D01*
X126273969Y-94526190D01*
X126171165Y-94594881D01*
X122921967Y-97844080D01*
X122904585Y-97836862D01*
X122554101Y-97836556D01*
X122230179Y-97970398D01*
X121982134Y-98218011D01*
X121847727Y-98541698D01*
X121847421Y-98892182D01*
X98221000Y-98892182D01*
X98221000Y-92835539D01*
X99663096Y-92835539D01*
X99680633Y-92918319D01*
X99950500Y-93411396D01*
X100388517Y-93763666D01*
X100928000Y-93921500D01*
X102078000Y-93921500D01*
X102078000Y-92613500D01*
X102332000Y-92613500D01*
X102332000Y-93921500D01*
X103482000Y-93921500D01*
X104021483Y-93763666D01*
X104459500Y-93411396D01*
X104729367Y-92918319D01*
X104746904Y-92835539D01*
X104624915Y-92613500D01*
X102332000Y-92613500D01*
X102078000Y-92613500D01*
X99785085Y-92613500D01*
X99663096Y-92835539D01*
X98221000Y-92835539D01*
X98221000Y-88036500D01*
X99649883Y-88036500D01*
X99720751Y-88392778D01*
X99922567Y-88694816D01*
X100134611Y-88836500D01*
X99922567Y-88978184D01*
X99720751Y-89280222D01*
X99649883Y-89636500D01*
X99720751Y-89992778D01*
X99922567Y-90294816D01*
X100224605Y-90496632D01*
X100455024Y-90542465D01*
X100460614Y-90570571D01*
X100564882Y-90726618D01*
X100898418Y-91060155D01*
X100388517Y-91209334D01*
X99950500Y-91561604D01*
X99680633Y-92054681D01*
X99663096Y-92137461D01*
X99785085Y-92359500D01*
X102078000Y-92359500D01*
X102078000Y-92339500D01*
X102332000Y-92339500D01*
X102332000Y-92359500D01*
X104624915Y-92359500D01*
X104746904Y-92137461D01*
X104729367Y-92054681D01*
X104621447Y-91857500D01*
X106186369Y-91857500D01*
X106207103Y-91967690D01*
X106290546Y-92097365D01*
X106417866Y-92184359D01*
X106569000Y-92214964D01*
X107069000Y-92214964D01*
X107210190Y-92188397D01*
X107339865Y-92104954D01*
X107426859Y-91977634D01*
X107457464Y-91826500D01*
X107457464Y-90926500D01*
X107455771Y-90917500D01*
X107682359Y-90917500D01*
X107680536Y-90926500D01*
X107680536Y-91826500D01*
X107707103Y-91967690D01*
X107790546Y-92097365D01*
X107917866Y-92184359D01*
X108069000Y-92214964D01*
X108569000Y-92214964D01*
X108710190Y-92188397D01*
X108839865Y-92104954D01*
X108926859Y-91977634D01*
X108951186Y-91857500D01*
X110706421Y-91857500D01*
X110802241Y-91953487D01*
X111052446Y-92057382D01*
X111323365Y-92057618D01*
X111573752Y-91954161D01*
X111765487Y-91762759D01*
X111869382Y-91512554D01*
X111869618Y-91241635D01*
X111766161Y-90991248D01*
X111692541Y-90917500D01*
X112348221Y-90917500D01*
X112366603Y-91015190D01*
X112450046Y-91144865D01*
X112577366Y-91231859D01*
X112728500Y-91262464D01*
X113228500Y-91262464D01*
X113369690Y-91235897D01*
X113499365Y-91152454D01*
X113586359Y-91025134D01*
X113616964Y-90874000D01*
X113616964Y-89974000D01*
X113840036Y-89974000D01*
X113840036Y-90874000D01*
X113866603Y-91015190D01*
X113950046Y-91144865D01*
X114077366Y-91231859D01*
X114228500Y-91262464D01*
X114728500Y-91262464D01*
X114869690Y-91235897D01*
X114999365Y-91152454D01*
X115086359Y-91025134D01*
X115110686Y-90905000D01*
X115659421Y-90905000D01*
X115755241Y-91000987D01*
X116005446Y-91104882D01*
X116276365Y-91105118D01*
X116526752Y-91001661D01*
X116718487Y-90810259D01*
X116822382Y-90560054D01*
X116822618Y-90289135D01*
X116719161Y-90038748D01*
X116527759Y-89847013D01*
X116277554Y-89743118D01*
X116006635Y-89742882D01*
X115756248Y-89846339D01*
X115659419Y-89943000D01*
X115111131Y-89943000D01*
X115090397Y-89832810D01*
X115006954Y-89703135D01*
X114879634Y-89616141D01*
X114728500Y-89585536D01*
X114228500Y-89585536D01*
X114087310Y-89612103D01*
X113957635Y-89695546D01*
X113870641Y-89822866D01*
X113840036Y-89974000D01*
X113616964Y-89974000D01*
X113590397Y-89832810D01*
X113506954Y-89703135D01*
X113379634Y-89616141D01*
X113228500Y-89585536D01*
X112728500Y-89585536D01*
X112587310Y-89612103D01*
X112457635Y-89695546D01*
X112370641Y-89822866D01*
X112343782Y-89955500D01*
X104743464Y-89955500D01*
X104743464Y-89886500D01*
X104716897Y-89745310D01*
X104633454Y-89615635D01*
X104506134Y-89528641D01*
X104452934Y-89517868D01*
X104487433Y-89494816D01*
X104689249Y-89192778D01*
X104733290Y-88971365D01*
X109173882Y-88971365D01*
X109277339Y-89221752D01*
X109468741Y-89413487D01*
X109718946Y-89517382D01*
X109989865Y-89517618D01*
X110240252Y-89414161D01*
X110431987Y-89222759D01*
X110535882Y-88972554D01*
X110536118Y-88701635D01*
X110432661Y-88451248D01*
X110241259Y-88259513D01*
X109991054Y-88155618D01*
X109720135Y-88155382D01*
X109469748Y-88258839D01*
X109278013Y-88450241D01*
X109174118Y-88700446D01*
X109173882Y-88971365D01*
X104733290Y-88971365D01*
X104760117Y-88836500D01*
X104689249Y-88480222D01*
X104492275Y-88185431D01*
X104732724Y-87984618D01*
X104948398Y-87572646D01*
X104948803Y-87546244D01*
X104823361Y-87363500D01*
X103632000Y-87363500D01*
X103632000Y-87383500D01*
X103378000Y-87383500D01*
X103378000Y-87363500D01*
X102186639Y-87363500D01*
X102061197Y-87546244D01*
X102061602Y-87572646D01*
X102277276Y-87984618D01*
X102517725Y-88185431D01*
X102320751Y-88480222D01*
X102249883Y-88836500D01*
X102320751Y-89192778D01*
X102522567Y-89494816D01*
X102555427Y-89516772D01*
X102513810Y-89524603D01*
X102384135Y-89608046D01*
X102297141Y-89735366D01*
X102266536Y-89886500D01*
X102266536Y-90895500D01*
X102094237Y-90895500D01*
X101651319Y-90452583D01*
X101887433Y-90294816D01*
X102089249Y-89992778D01*
X102160117Y-89636500D01*
X102089249Y-89280222D01*
X101887433Y-88978184D01*
X101675389Y-88836500D01*
X101887433Y-88694816D01*
X102089249Y-88392778D01*
X102160117Y-88036500D01*
X102089249Y-87680222D01*
X101887433Y-87378184D01*
X101585395Y-87176368D01*
X101229117Y-87105500D01*
X100580883Y-87105500D01*
X100224605Y-87176368D01*
X99922567Y-87378184D01*
X99720751Y-87680222D01*
X99649883Y-88036500D01*
X98221000Y-88036500D01*
X98221000Y-86926756D01*
X102061197Y-86926756D01*
X102186639Y-87109500D01*
X103378000Y-87109500D01*
X103378000Y-87089500D01*
X103632000Y-87089500D01*
X103632000Y-87109500D01*
X104823361Y-87109500D01*
X104846356Y-87076000D01*
X136879536Y-87076000D01*
X136879536Y-87676000D01*
X136906103Y-87817190D01*
X136989546Y-87946865D01*
X137116866Y-88033859D01*
X137268000Y-88064464D01*
X138068000Y-88064464D01*
X138209190Y-88037897D01*
X138338865Y-87954454D01*
X138425859Y-87827134D01*
X138456464Y-87676000D01*
X138456464Y-87076000D01*
X138429897Y-86934810D01*
X138346454Y-86805135D01*
X138289448Y-86766185D01*
X138348882Y-86623054D01*
X138349077Y-86399000D01*
X145573536Y-86399000D01*
X145573536Y-88099000D01*
X145600103Y-88240190D01*
X145683546Y-88369865D01*
X145810866Y-88456859D01*
X145962000Y-88487464D01*
X147662000Y-88487464D01*
X147803190Y-88460897D01*
X147932865Y-88377454D01*
X148019859Y-88250134D01*
X148050464Y-88099000D01*
X148050464Y-86399000D01*
X148023897Y-86257810D01*
X147940454Y-86128135D01*
X147813134Y-86041141D01*
X147662000Y-86010536D01*
X145962000Y-86010536D01*
X145820810Y-86037103D01*
X145691135Y-86120546D01*
X145604141Y-86247866D01*
X145573536Y-86399000D01*
X138349077Y-86399000D01*
X138349118Y-86352135D01*
X138245661Y-86101748D01*
X138054259Y-85910013D01*
X137804054Y-85806118D01*
X137533135Y-85805882D01*
X137282748Y-85909339D01*
X137091013Y-86100741D01*
X136987118Y-86350946D01*
X136986882Y-86621865D01*
X137046379Y-86765859D01*
X136997135Y-86797546D01*
X136910141Y-86924866D01*
X136879536Y-87076000D01*
X104846356Y-87076000D01*
X104948803Y-86926756D01*
X104948398Y-86900354D01*
X104732724Y-86488382D01*
X104375813Y-86190304D01*
X104365425Y-86187055D01*
X104459500Y-86111396D01*
X104729367Y-85618319D01*
X104746904Y-85535539D01*
X104624915Y-85313500D01*
X102332000Y-85313500D01*
X102332000Y-86442679D01*
X102277276Y-86488382D01*
X102061602Y-86900354D01*
X102061197Y-86926756D01*
X98221000Y-86926756D01*
X98221000Y-85535539D01*
X99663096Y-85535539D01*
X99680633Y-85618319D01*
X99950500Y-86111396D01*
X100388517Y-86463666D01*
X100928000Y-86621500D01*
X102078000Y-86621500D01*
X102078000Y-85313500D01*
X99785085Y-85313500D01*
X99663096Y-85535539D01*
X98221000Y-85535539D01*
X98221000Y-84837461D01*
X99663096Y-84837461D01*
X99785085Y-85059500D01*
X102078000Y-85059500D01*
X102078000Y-83751500D01*
X102332000Y-83751500D01*
X102332000Y-85059500D01*
X104624915Y-85059500D01*
X104746904Y-84837461D01*
X104729367Y-84754681D01*
X104715964Y-84730191D01*
X107589414Y-84730191D01*
X107895472Y-85173659D01*
X109120252Y-85683725D01*
X110446995Y-85686262D01*
X111673716Y-85180883D01*
X111684528Y-85173659D01*
X111990586Y-84730191D01*
X109790000Y-82529605D01*
X107589414Y-84730191D01*
X104715964Y-84730191D01*
X104459500Y-84261604D01*
X104021483Y-83909334D01*
X103482000Y-83751500D01*
X102332000Y-83751500D01*
X102078000Y-83751500D01*
X100928000Y-83751500D01*
X100388517Y-83909334D01*
X99950500Y-84261604D01*
X99680633Y-84754681D01*
X99663096Y-84837461D01*
X98221000Y-84837461D01*
X98221000Y-83006995D01*
X106453738Y-83006995D01*
X106959117Y-84233716D01*
X106966341Y-84244528D01*
X107409809Y-84550586D01*
X109610395Y-82350000D01*
X109969605Y-82350000D01*
X112170191Y-84550586D01*
X112613659Y-84244528D01*
X113123725Y-83019748D01*
X113123814Y-82973000D01*
X130275536Y-82973000D01*
X130275536Y-83573000D01*
X130302103Y-83714190D01*
X130385546Y-83843865D01*
X130512866Y-83930859D01*
X130664000Y-83961464D01*
X131464000Y-83961464D01*
X131605190Y-83934897D01*
X131734865Y-83851454D01*
X131801452Y-83754000D01*
X131868998Y-83754000D01*
X131934546Y-83855865D01*
X131939730Y-83859407D01*
X131907118Y-83937946D01*
X131906882Y-84208865D01*
X132010339Y-84459252D01*
X132201741Y-84650987D01*
X132451946Y-84754882D01*
X132722865Y-84755118D01*
X132973252Y-84651661D01*
X133164987Y-84460259D01*
X133268882Y-84210054D01*
X133269118Y-83939135D01*
X133236347Y-83859822D01*
X133320859Y-83736134D01*
X133351464Y-83585000D01*
X133351464Y-83012000D01*
X134339536Y-83012000D01*
X134339536Y-83612000D01*
X134366103Y-83753190D01*
X134449546Y-83882865D01*
X134465471Y-83893746D01*
X134447118Y-83937946D01*
X134446882Y-84208865D01*
X134550339Y-84459252D01*
X134741741Y-84650987D01*
X134991946Y-84754882D01*
X135262865Y-84755118D01*
X135513252Y-84651661D01*
X135704987Y-84460259D01*
X135808882Y-84210054D01*
X135809118Y-83939135D01*
X135791075Y-83895467D01*
X135798865Y-83890454D01*
X135885859Y-83763134D01*
X135916464Y-83612000D01*
X135916464Y-83036500D01*
X136879536Y-83036500D01*
X136879536Y-83636500D01*
X136906103Y-83777690D01*
X136989546Y-83907365D01*
X136997547Y-83912832D01*
X136987118Y-83937946D01*
X136986882Y-84208865D01*
X137090339Y-84459252D01*
X137281741Y-84650987D01*
X137531946Y-84754882D01*
X137802865Y-84755118D01*
X138053252Y-84651661D01*
X138244987Y-84460259D01*
X138348882Y-84210054D01*
X138349118Y-83939135D01*
X138339028Y-83914715D01*
X138425859Y-83787634D01*
X138456464Y-83636500D01*
X138456464Y-83036500D01*
X138429897Y-82895310D01*
X138346454Y-82765635D01*
X138219134Y-82678641D01*
X138068000Y-82648036D01*
X137268000Y-82648036D01*
X137126810Y-82674603D01*
X136997135Y-82758046D01*
X136910141Y-82885366D01*
X136879536Y-83036500D01*
X135916464Y-83036500D01*
X135916464Y-83012000D01*
X135889897Y-82870810D01*
X135806454Y-82741135D01*
X135679134Y-82654141D01*
X135528000Y-82623536D01*
X134728000Y-82623536D01*
X134586810Y-82650103D01*
X134457135Y-82733546D01*
X134370141Y-82860866D01*
X134339536Y-83012000D01*
X133351464Y-83012000D01*
X133351464Y-82785000D01*
X133324897Y-82643810D01*
X133241454Y-82514135D01*
X133114134Y-82427141D01*
X132963000Y-82396536D01*
X132213000Y-82396536D01*
X132071810Y-82423103D01*
X131942135Y-82506546D01*
X131855141Y-82633866D01*
X131824536Y-82785000D01*
X131824536Y-82792000D01*
X131800280Y-82792000D01*
X131742454Y-82702135D01*
X131615134Y-82615141D01*
X131464000Y-82584536D01*
X130664000Y-82584536D01*
X130522810Y-82611103D01*
X130393135Y-82694546D01*
X130306141Y-82821866D01*
X130275536Y-82973000D01*
X113123814Y-82973000D01*
X113125565Y-82057122D01*
X142963825Y-82057122D01*
X143178466Y-82575332D01*
X143640608Y-83070012D01*
X144256877Y-83350183D01*
X144526000Y-83232604D01*
X144526000Y-81788000D01*
X144780000Y-81788000D01*
X144780000Y-83232604D01*
X145049123Y-83350183D01*
X145665392Y-83070012D01*
X146127534Y-82575332D01*
X146342175Y-82057122D01*
X146224125Y-81788000D01*
X144780000Y-81788000D01*
X144526000Y-81788000D01*
X143081875Y-81788000D01*
X142963825Y-82057122D01*
X113125565Y-82057122D01*
X113126262Y-81693005D01*
X112949885Y-81264878D01*
X142963825Y-81264878D01*
X143081875Y-81534000D01*
X144526000Y-81534000D01*
X144526000Y-80089396D01*
X144780000Y-80089396D01*
X144780000Y-81534000D01*
X146224125Y-81534000D01*
X146342175Y-81264878D01*
X146127534Y-80746668D01*
X145665392Y-80251988D01*
X145049123Y-79971817D01*
X144780000Y-80089396D01*
X144526000Y-80089396D01*
X144256877Y-79971817D01*
X143640608Y-80251988D01*
X143178466Y-80746668D01*
X142963825Y-81264878D01*
X112949885Y-81264878D01*
X112620883Y-80466284D01*
X112613659Y-80455472D01*
X112170191Y-80149414D01*
X109969605Y-82350000D01*
X109610395Y-82350000D01*
X107409809Y-80149414D01*
X106966341Y-80455472D01*
X106456275Y-81680252D01*
X106453738Y-83006995D01*
X98221000Y-83006995D01*
X98221000Y-79781000D01*
X107719720Y-79781000D01*
X107589414Y-79969809D01*
M02*
