G04 #@! TF.FileFunction,Legend,Top*
%FSLAX46Y46*%
G04 Gerber Fmt 4.6, Leading zero omitted, Abs format (unit mm)*
G04 Created by KiCad (PCBNEW 4.0.7) date Monday, May 07, 2018 'PMt' 12:32:40 PM*
%MOMM*%
%LPD*%
G01*
G04 APERTURE LIST*
%ADD10C,0.100000*%
%ADD11C,0.250000*%
%ADD12C,0.120000*%
%ADD13C,0.150000*%
G04 APERTURE END LIST*
D10*
D11*
X111697666Y-81639143D02*
X112364333Y-81639143D01*
X112650047Y-82686762D02*
X111697666Y-82686762D01*
X111697666Y-80686762D01*
X112650047Y-80686762D01*
X113507190Y-82686762D02*
X113507190Y-80686762D01*
X114364333Y-82591524D02*
X114650048Y-82686762D01*
X115126238Y-82686762D01*
X115316714Y-82591524D01*
X115411952Y-82496286D01*
X115507191Y-82305810D01*
X115507191Y-82115333D01*
X115411952Y-81924857D01*
X115316714Y-81829619D01*
X115126238Y-81734381D01*
X114745286Y-81639143D01*
X114554810Y-81543905D01*
X114459571Y-81448667D01*
X114364333Y-81258190D01*
X114364333Y-81067714D01*
X114459571Y-80877238D01*
X114554810Y-80782000D01*
X114745286Y-80686762D01*
X115221476Y-80686762D01*
X115507191Y-80782000D01*
X116269095Y-82591524D02*
X116554810Y-82686762D01*
X117031000Y-82686762D01*
X117221476Y-82591524D01*
X117316714Y-82496286D01*
X117411953Y-82305810D01*
X117411953Y-82115333D01*
X117316714Y-81924857D01*
X117221476Y-81829619D01*
X117031000Y-81734381D01*
X116650048Y-81639143D01*
X116459572Y-81543905D01*
X116364333Y-81448667D01*
X116269095Y-81258190D01*
X116269095Y-81067714D01*
X116364333Y-80877238D01*
X116459572Y-80782000D01*
X116650048Y-80686762D01*
X117126238Y-80686762D01*
X117411953Y-80782000D01*
X119126238Y-82591524D02*
X118935762Y-82686762D01*
X118554810Y-82686762D01*
X118364334Y-82591524D01*
X118269095Y-82496286D01*
X118173857Y-82305810D01*
X118173857Y-81734381D01*
X118269095Y-81543905D01*
X118364334Y-81448667D01*
X118554810Y-81353429D01*
X118935762Y-81353429D01*
X119126238Y-81448667D01*
X120840524Y-81353429D02*
X120840524Y-82686762D01*
X119983381Y-81353429D02*
X119983381Y-82401048D01*
X120078620Y-82591524D01*
X120269096Y-82686762D01*
X120554810Y-82686762D01*
X120745286Y-82591524D01*
X120840524Y-82496286D01*
X121792905Y-82686762D02*
X121792905Y-80686762D01*
X121792905Y-81448667D02*
X121983382Y-81353429D01*
X122364334Y-81353429D01*
X122554810Y-81448667D01*
X122650048Y-81543905D01*
X122745286Y-81734381D01*
X122745286Y-82305810D01*
X122650048Y-82496286D01*
X122554810Y-82591524D01*
X122364334Y-82686762D01*
X121983382Y-82686762D01*
X121792905Y-82591524D01*
X124364334Y-82591524D02*
X124173858Y-82686762D01*
X123792906Y-82686762D01*
X123602429Y-82591524D01*
X123507191Y-82401048D01*
X123507191Y-81639143D01*
X123602429Y-81448667D01*
X123792906Y-81353429D01*
X124173858Y-81353429D01*
X124364334Y-81448667D01*
X124459572Y-81639143D01*
X124459572Y-81829619D01*
X123507191Y-82020095D01*
X112602427Y-85936762D02*
X111650046Y-85936762D01*
X111650046Y-83936762D01*
X112983380Y-83936762D02*
X114126237Y-83936762D01*
X113554809Y-85936762D02*
X113554809Y-83936762D01*
X114792904Y-84889143D02*
X115459571Y-84889143D01*
X115745285Y-85936762D02*
X114792904Y-85936762D01*
X114792904Y-83936762D01*
X115745285Y-83936762D01*
X117935762Y-84603429D02*
X118411953Y-85936762D01*
X118888143Y-84603429D01*
X119650048Y-85746286D02*
X119745287Y-85841524D01*
X119650048Y-85936762D01*
X119554810Y-85841524D01*
X119650048Y-85746286D01*
X119650048Y-85936762D01*
X120411953Y-83936762D02*
X121650049Y-83936762D01*
X120983382Y-84698667D01*
X121269096Y-84698667D01*
X121459572Y-84793905D01*
X121554810Y-84889143D01*
X121650049Y-85079619D01*
X121650049Y-85555810D01*
X121554810Y-85746286D01*
X121459572Y-85841524D01*
X121269096Y-85936762D01*
X120697668Y-85936762D01*
X120507191Y-85841524D01*
X120411953Y-85746286D01*
X122507191Y-85746286D02*
X122602430Y-85841524D01*
X122507191Y-85936762D01*
X122411953Y-85841524D01*
X122507191Y-85746286D01*
X122507191Y-85936762D01*
X123840525Y-83936762D02*
X124031001Y-83936762D01*
X124221477Y-84032000D01*
X124316715Y-84127238D01*
X124411953Y-84317714D01*
X124507192Y-84698667D01*
X124507192Y-85174857D01*
X124411953Y-85555810D01*
X124316715Y-85746286D01*
X124221477Y-85841524D01*
X124031001Y-85936762D01*
X123840525Y-85936762D01*
X123650049Y-85841524D01*
X123554811Y-85746286D01*
X123459572Y-85555810D01*
X123364334Y-85174857D01*
X123364334Y-84698667D01*
X123459572Y-84317714D01*
X123554811Y-84127238D01*
X123650049Y-84032000D01*
X123840525Y-83936762D01*
D12*
X108510000Y-89167000D02*
X107510000Y-89167000D01*
X107510000Y-87807000D02*
X108510000Y-87807000D01*
X110645500Y-121316000D02*
X110645500Y-122016000D01*
X109445500Y-122016000D02*
X109445500Y-121316000D01*
X147106000Y-109859000D02*
X149106000Y-109859000D01*
X149106000Y-107819000D02*
X147106000Y-107819000D01*
X187304000Y-114466000D02*
X187304000Y-107866000D01*
X187304000Y-123466000D02*
X187304000Y-116866000D01*
X187304000Y-123466000D02*
X167504000Y-123466000D01*
X167504000Y-123466000D02*
X167504000Y-107866000D01*
X167504000Y-107866000D02*
X187304000Y-107866000D01*
X171754000Y-111466000D02*
X171754000Y-113916000D01*
X171754000Y-119866000D02*
X171754000Y-117366000D01*
X182354000Y-109616000D02*
X179854000Y-109616000D01*
X183254000Y-115616000D02*
X184054000Y-115616000D01*
X179854000Y-121616000D02*
X182354000Y-121616000D01*
X176454000Y-115616000D02*
X174954000Y-115616000D01*
X174954000Y-115616000D02*
X170354000Y-118116000D01*
X176454000Y-112016000D02*
X183254000Y-112016000D01*
X176454000Y-115616000D02*
X176454000Y-112016000D01*
X183254000Y-115616000D02*
X183254000Y-112016000D01*
X179854000Y-121616000D02*
X179854000Y-117416000D01*
X179854000Y-113816000D02*
X179854000Y-109616000D01*
X177854000Y-113816000D02*
X181854000Y-117416000D01*
X181854000Y-113816000D02*
X181854000Y-117416000D01*
X181854000Y-117416000D02*
X177854000Y-117416000D01*
X177854000Y-117416000D02*
X177854000Y-113816000D01*
X177854000Y-113816000D02*
X181854000Y-113816000D01*
X163747000Y-107910000D02*
X163747000Y-109910000D01*
X165787000Y-109910000D02*
X165787000Y-107910000D01*
X133715000Y-126666000D02*
X133715000Y-138826000D01*
X133715000Y-138826000D02*
X176515000Y-138826000D01*
X176515000Y-138826000D02*
X176515000Y-126666000D01*
X176515000Y-126666000D02*
X133715000Y-126666000D01*
X133715000Y-137326000D02*
X133715000Y-135526000D01*
X133715000Y-135526000D02*
X176515000Y-135526000D01*
X176515000Y-135526000D02*
X176515000Y-137326000D01*
X176515000Y-137326000D02*
X133715000Y-137326000D01*
X136335000Y-138826000D02*
X138335000Y-138826000D01*
X138335000Y-138826000D02*
X138085000Y-137326000D01*
X138085000Y-137326000D02*
X136585000Y-137326000D01*
X136585000Y-137326000D02*
X136335000Y-138826000D01*
X141415000Y-138826000D02*
X143415000Y-138826000D01*
X143415000Y-138826000D02*
X143165000Y-137326000D01*
X143165000Y-137326000D02*
X141665000Y-137326000D01*
X141665000Y-137326000D02*
X141415000Y-138826000D01*
X146495000Y-138826000D02*
X148495000Y-138826000D01*
X148495000Y-138826000D02*
X148245000Y-137326000D01*
X148245000Y-137326000D02*
X146745000Y-137326000D01*
X146745000Y-137326000D02*
X146495000Y-138826000D01*
X151575000Y-138826000D02*
X153575000Y-138826000D01*
X153575000Y-138826000D02*
X153325000Y-137326000D01*
X153325000Y-137326000D02*
X151825000Y-137326000D01*
X151825000Y-137326000D02*
X151575000Y-138826000D01*
X156655000Y-138826000D02*
X158655000Y-138826000D01*
X158655000Y-138826000D02*
X158405000Y-137326000D01*
X158405000Y-137326000D02*
X156905000Y-137326000D01*
X156905000Y-137326000D02*
X156655000Y-138826000D01*
X161735000Y-138826000D02*
X163735000Y-138826000D01*
X163735000Y-138826000D02*
X163485000Y-137326000D01*
X163485000Y-137326000D02*
X161985000Y-137326000D01*
X161985000Y-137326000D02*
X161735000Y-138826000D01*
X166815000Y-138826000D02*
X168815000Y-138826000D01*
X168815000Y-138826000D02*
X168565000Y-137326000D01*
X168565000Y-137326000D02*
X167065000Y-137326000D01*
X167065000Y-137326000D02*
X166815000Y-138826000D01*
X171895000Y-138826000D02*
X173895000Y-138826000D01*
X173895000Y-138826000D02*
X173645000Y-137326000D01*
X173645000Y-137326000D02*
X172145000Y-137326000D01*
X172145000Y-137326000D02*
X171895000Y-138826000D01*
X137635000Y-125866000D02*
X137335000Y-126466000D01*
X137335000Y-126466000D02*
X137035000Y-125866000D01*
X137035000Y-125866000D02*
X137635000Y-125866000D01*
X166770000Y-88681000D02*
X167470000Y-88681000D01*
X167470000Y-89881000D02*
X166770000Y-89881000D01*
X146212000Y-90901000D02*
X146212000Y-90201000D01*
X147412000Y-90201000D02*
X147412000Y-90901000D01*
X110376000Y-126364000D02*
X110376000Y-127064000D01*
X109176000Y-127064000D02*
X109176000Y-126364000D01*
X114582500Y-125253000D02*
X114582500Y-125953000D01*
X113382500Y-125953000D02*
X113382500Y-125253000D01*
X102012000Y-112684000D02*
X102712000Y-112684000D01*
X102712000Y-113884000D02*
X102012000Y-113884000D01*
X102012000Y-114081000D02*
X102712000Y-114081000D01*
X102712000Y-115281000D02*
X102012000Y-115281000D01*
X102012000Y-115478000D02*
X102712000Y-115478000D01*
X102712000Y-116678000D02*
X102012000Y-116678000D01*
X102024000Y-116875000D02*
X102724000Y-116875000D01*
X102724000Y-118075000D02*
X102024000Y-118075000D01*
X102012000Y-111287000D02*
X102712000Y-111287000D01*
X102712000Y-112487000D02*
X102012000Y-112487000D01*
X100488000Y-103540000D02*
X101188000Y-103540000D01*
X101188000Y-104740000D02*
X100488000Y-104740000D01*
X100488000Y-102016000D02*
X101188000Y-102016000D01*
X101188000Y-103216000D02*
X100488000Y-103216000D01*
X100488000Y-100492000D02*
X101188000Y-100492000D01*
X101188000Y-101692000D02*
X100488000Y-101692000D01*
X100488000Y-98968000D02*
X101188000Y-98968000D01*
X101188000Y-100168000D02*
X100488000Y-100168000D01*
X123414000Y-106688000D02*
X123414000Y-107688000D01*
X123414000Y-107688000D02*
X125514000Y-107688000D01*
X123414000Y-106688000D02*
X125514000Y-106688000D01*
X132802000Y-130770000D02*
X133002000Y-130770000D01*
X133002000Y-130770000D02*
X133002000Y-124770000D01*
X127802000Y-130770000D02*
X127602000Y-130770000D01*
X127602000Y-130770000D02*
X127602000Y-125770000D01*
X127602000Y-125770000D02*
X127802000Y-125770000D01*
X131802000Y-130770000D02*
X128802000Y-130770000D01*
X128802000Y-125770000D02*
X131802000Y-125770000D01*
X126618000Y-115472000D02*
X123318000Y-115472000D01*
X123318000Y-115472000D02*
X123318000Y-120872000D01*
X126618000Y-115472000D02*
X126618000Y-120872000D01*
X110915000Y-128066000D02*
X111915000Y-128066000D01*
X111915000Y-129426000D02*
X110915000Y-129426000D01*
X111307500Y-125013000D02*
X110307500Y-125013000D01*
X110307500Y-123653000D02*
X111307500Y-123653000D01*
X123454000Y-105392000D02*
X124384000Y-105392000D01*
X126614000Y-105392000D02*
X125684000Y-105392000D01*
X126614000Y-105392000D02*
X126614000Y-103232000D01*
X123454000Y-105392000D02*
X123454000Y-103932000D01*
X164203000Y-89961000D02*
X163203000Y-89961000D01*
X163203000Y-88601000D02*
X164203000Y-88601000D01*
X152572000Y-86590000D02*
X152572000Y-87590000D01*
X151212000Y-87590000D02*
X151212000Y-86590000D01*
X116451000Y-121393500D02*
X115451000Y-121393500D01*
X115451000Y-120033500D02*
X116451000Y-120033500D01*
X103460000Y-106672000D02*
X103460000Y-105672000D01*
X104820000Y-105672000D02*
X104820000Y-106672000D01*
X126738000Y-109582500D02*
X125738000Y-109582500D01*
X125738000Y-108222500D02*
X126738000Y-108222500D01*
X125304000Y-102100000D02*
X125304000Y-101100000D01*
X126664000Y-101100000D02*
X126664000Y-102100000D01*
X159340000Y-106418000D02*
X159340000Y-105418000D01*
X160700000Y-105418000D02*
X160700000Y-106418000D01*
X159340000Y-103370000D02*
X159340000Y-102370000D01*
X160700000Y-102370000D02*
X160700000Y-103370000D01*
X176480000Y-100190000D02*
X176480000Y-100160000D01*
X176480000Y-93730000D02*
X176480000Y-93760000D01*
X182940000Y-93730000D02*
X182940000Y-93760000D01*
X182940000Y-100160000D02*
X182940000Y-100190000D01*
X176480000Y-98260000D02*
X176480000Y-95660000D01*
X182940000Y-100190000D02*
X176480000Y-100190000D01*
X182940000Y-98260000D02*
X182940000Y-95660000D01*
X182940000Y-93730000D02*
X176480000Y-93730000D01*
X182050000Y-85480000D02*
X180250000Y-85480000D01*
X180250000Y-88700000D02*
X182700000Y-88700000D01*
X129693000Y-115938000D02*
X129693000Y-117438000D01*
X129693000Y-117438000D02*
X130643000Y-117438000D01*
X130643000Y-117438000D02*
X130643000Y-122563000D01*
X140093000Y-115938000D02*
X140093000Y-117438000D01*
X140093000Y-117438000D02*
X139143000Y-117438000D01*
X139143000Y-117438000D02*
X139143000Y-118538000D01*
X147786000Y-99053000D02*
X147786000Y-100553000D01*
X147786000Y-100553000D02*
X148736000Y-100553000D01*
X148736000Y-100553000D02*
X148736000Y-105678000D01*
X158186000Y-99053000D02*
X158186000Y-100553000D01*
X158186000Y-100553000D02*
X157236000Y-100553000D01*
X157236000Y-100553000D02*
X157236000Y-101653000D01*
X126304000Y-132212000D02*
X126304000Y-129322000D01*
X126304000Y-123312000D02*
X126304000Y-126202000D01*
X115884000Y-122552000D02*
X115884000Y-126202000D01*
X115884000Y-132972000D02*
X115884000Y-129322000D01*
X115884000Y-122552000D02*
X125544000Y-122552000D01*
X125544000Y-122552000D02*
X126304000Y-123312000D01*
X126304000Y-132212000D02*
X125544000Y-132972000D01*
X125544000Y-132972000D02*
X115884000Y-132972000D01*
X163240000Y-113140000D02*
X160350000Y-113140000D01*
X154340000Y-113140000D02*
X157230000Y-113140000D01*
X153580000Y-123560000D02*
X157230000Y-123560000D01*
X164000000Y-123560000D02*
X160350000Y-123560000D01*
X153580000Y-123560000D02*
X153580000Y-113900000D01*
X153580000Y-113900000D02*
X154340000Y-113140000D01*
X163240000Y-113140000D02*
X164000000Y-113900000D01*
X164000000Y-113900000D02*
X164000000Y-123560000D01*
X153433000Y-107789000D02*
X157683000Y-107789000D01*
X153433000Y-109889000D02*
X157683000Y-109889000D01*
X153433000Y-107789000D02*
X153433000Y-109889000D01*
X165817000Y-101331000D02*
X165817000Y-105581000D01*
X163717000Y-101331000D02*
X163717000Y-105581000D01*
X165817000Y-101331000D02*
X163717000Y-101331000D01*
X150682000Y-89182000D02*
X150682000Y-86522000D01*
X148082000Y-89182000D02*
X150682000Y-89182000D01*
X148082000Y-86522000D02*
X150682000Y-86522000D01*
X148082000Y-89182000D02*
X148082000Y-86522000D01*
X146812000Y-89182000D02*
X145482000Y-89182000D01*
X145482000Y-89182000D02*
X145482000Y-87852000D01*
X185020000Y-82070000D02*
X185020000Y-79410000D01*
X179880000Y-82070000D02*
X185020000Y-82070000D01*
X179880000Y-79410000D02*
X185020000Y-79410000D01*
X179880000Y-82070000D02*
X179880000Y-79410000D01*
X178610000Y-82070000D02*
X177280000Y-82070000D01*
X177280000Y-82070000D02*
X177280000Y-80740000D01*
X184900000Y-88360000D02*
X184900000Y-98580000D01*
X184900000Y-98580000D02*
X187560000Y-98580000D01*
X187560000Y-98580000D02*
X187560000Y-88360000D01*
X187560000Y-88360000D02*
X184900000Y-88360000D01*
X184900000Y-87090000D02*
X184900000Y-85760000D01*
X184900000Y-85760000D02*
X186230000Y-85760000D01*
X111888500Y-91376500D02*
G75*
G03X111888500Y-91376500I-700000J0D01*
G01*
X110603000Y-88487000D02*
G75*
G03X110603000Y-88487000I-700000J0D01*
G01*
X116841500Y-90011000D02*
G75*
G03X116841500Y-90011000I-700000J0D01*
G01*
X147072000Y-105790000D02*
X142522000Y-105790000D01*
X147072000Y-102490000D02*
X142522000Y-102490000D01*
X147072000Y-105790000D02*
X147072000Y-102490000D01*
X152393000Y-83071000D02*
X152393000Y-80251000D01*
X152393000Y-80251000D02*
X147073000Y-80251000D01*
X147073000Y-80251000D02*
X147073000Y-83071000D01*
X147073000Y-83071000D02*
X152393000Y-83071000D01*
X153533000Y-81661000D02*
X152393000Y-81661000D01*
X145933000Y-81661000D02*
X147073000Y-81661000D01*
X151553000Y-83071000D02*
X151553000Y-80251000D01*
X158382000Y-80342000D02*
X156682000Y-80342000D01*
X163182000Y-83742000D02*
X163182000Y-84042000D01*
X163182000Y-84042000D02*
X158382000Y-84042000D01*
X158382000Y-84042000D02*
X158382000Y-83742000D01*
X158382000Y-80342000D02*
X158382000Y-80042000D01*
X158382000Y-80042000D02*
X163182000Y-80042000D01*
X163182000Y-80042000D02*
X163182000Y-80342000D01*
X156010000Y-84598000D02*
X156010000Y-86598000D01*
X153870000Y-86598000D02*
X153870000Y-84598000D01*
D13*
X102562000Y-93086000D02*
X102087000Y-93086000D01*
X102087000Y-93086000D02*
X102087000Y-83836000D01*
X102087000Y-83836000D02*
X102562000Y-83836000D01*
X106262000Y-93086000D02*
X106737000Y-93086000D01*
X106737000Y-93086000D02*
X106737000Y-83836000D01*
X106724500Y-83836000D02*
X106249500Y-83836000D01*
X107012000Y-91061000D02*
X107012000Y-89061000D01*
D12*
X141970500Y-78962000D02*
X140256000Y-78962000D01*
X128191000Y-78962000D02*
X130096000Y-78962000D01*
X142796000Y-92807000D02*
X142796000Y-91535000D01*
X140891000Y-95345000D02*
X142163500Y-95345000D01*
X127683000Y-95350000D02*
X127683000Y-93440000D01*
X129461000Y-95345000D02*
X127683000Y-95345000D01*
X142796000Y-83915000D02*
X142796000Y-82010000D01*
X127683000Y-83915000D02*
X127683000Y-82010000D01*
D13*
X105368000Y-119424000D02*
X121368000Y-119424000D01*
X121368000Y-119424000D02*
X121368000Y-93424000D01*
X121368000Y-93424000D02*
X105368000Y-93424000D01*
X105368000Y-93424000D02*
X105368000Y-119424000D01*
D12*
X129036000Y-121142000D02*
X129036000Y-119142000D01*
X126996000Y-119142000D02*
X126996000Y-121142000D01*
X112907000Y-120363500D02*
X113407000Y-120363500D01*
X112907000Y-121063500D02*
X113407000Y-121063500D01*
X144887000Y-122140000D02*
X141687000Y-122140000D01*
X141687000Y-122140000D02*
X141687000Y-111540000D01*
X141687000Y-111540000D02*
X144887000Y-111540000D01*
X149087000Y-111540000D02*
X152287000Y-111540000D01*
X152287000Y-111540000D02*
X152287000Y-122140000D01*
X152287000Y-122140000D02*
X149087000Y-122140000D01*
D13*
X107863143Y-87542381D02*
X107529809Y-87066190D01*
X107291714Y-87542381D02*
X107291714Y-86542381D01*
X107672667Y-86542381D01*
X107767905Y-86590000D01*
X107815524Y-86637619D01*
X107863143Y-86732857D01*
X107863143Y-86875714D01*
X107815524Y-86970952D01*
X107767905Y-87018571D01*
X107672667Y-87066190D01*
X107291714Y-87066190D01*
X108244095Y-86637619D02*
X108291714Y-86590000D01*
X108386952Y-86542381D01*
X108625048Y-86542381D01*
X108720286Y-86590000D01*
X108767905Y-86637619D01*
X108815524Y-86732857D01*
X108815524Y-86828095D01*
X108767905Y-86970952D01*
X108196476Y-87542381D01*
X108815524Y-87542381D01*
X109672667Y-86875714D02*
X109672667Y-87542381D01*
X109434571Y-86494762D02*
X109196476Y-87209048D01*
X109815524Y-87209048D01*
X107101143Y-121991143D02*
X107053524Y-122038762D01*
X106910667Y-122086381D01*
X106815429Y-122086381D01*
X106672571Y-122038762D01*
X106577333Y-121943524D01*
X106529714Y-121848286D01*
X106482095Y-121657810D01*
X106482095Y-121514952D01*
X106529714Y-121324476D01*
X106577333Y-121229238D01*
X106672571Y-121134000D01*
X106815429Y-121086381D01*
X106910667Y-121086381D01*
X107053524Y-121134000D01*
X107101143Y-121181619D01*
X108053524Y-122086381D02*
X107482095Y-122086381D01*
X107767809Y-122086381D02*
X107767809Y-121086381D01*
X107672571Y-121229238D01*
X107577333Y-121324476D01*
X107482095Y-121372095D01*
X108910667Y-121419714D02*
X108910667Y-122086381D01*
X108672571Y-121038762D02*
X108434476Y-121753048D01*
X109053524Y-121753048D01*
X143653143Y-109259643D02*
X143605524Y-109307262D01*
X143462667Y-109354881D01*
X143367429Y-109354881D01*
X143224571Y-109307262D01*
X143129333Y-109212024D01*
X143081714Y-109116786D01*
X143034095Y-108926310D01*
X143034095Y-108783452D01*
X143081714Y-108592976D01*
X143129333Y-108497738D01*
X143224571Y-108402500D01*
X143367429Y-108354881D01*
X143462667Y-108354881D01*
X143605524Y-108402500D01*
X143653143Y-108450119D01*
X143986476Y-108354881D02*
X144605524Y-108354881D01*
X144272190Y-108735833D01*
X144415048Y-108735833D01*
X144510286Y-108783452D01*
X144557905Y-108831071D01*
X144605524Y-108926310D01*
X144605524Y-109164405D01*
X144557905Y-109259643D01*
X144510286Y-109307262D01*
X144415048Y-109354881D01*
X144129333Y-109354881D01*
X144034095Y-109307262D01*
X143986476Y-109259643D01*
X144938857Y-108354881D02*
X145557905Y-108354881D01*
X145224571Y-108735833D01*
X145367429Y-108735833D01*
X145462667Y-108783452D01*
X145510286Y-108831071D01*
X145557905Y-108926310D01*
X145557905Y-109164405D01*
X145510286Y-109259643D01*
X145462667Y-109307262D01*
X145367429Y-109354881D01*
X145081714Y-109354881D01*
X144986476Y-109307262D01*
X144938857Y-109259643D01*
X176236405Y-107449881D02*
X176236405Y-106449881D01*
X176807834Y-107449881D02*
X176379262Y-106878452D01*
X176807834Y-106449881D02*
X176236405Y-107021310D01*
X177760215Y-107449881D02*
X177188786Y-107449881D01*
X177474500Y-107449881D02*
X177474500Y-106449881D01*
X177379262Y-106592738D01*
X177284024Y-106687976D01*
X177188786Y-106735595D01*
X167092643Y-109489357D02*
X167140262Y-109536976D01*
X167187881Y-109679833D01*
X167187881Y-109775071D01*
X167140262Y-109917929D01*
X167045024Y-110013167D01*
X166949786Y-110060786D01*
X166759310Y-110108405D01*
X166616452Y-110108405D01*
X166425976Y-110060786D01*
X166330738Y-110013167D01*
X166235500Y-109917929D01*
X166187881Y-109775071D01*
X166187881Y-109679833D01*
X166235500Y-109536976D01*
X166283119Y-109489357D01*
X166187881Y-109156024D02*
X166187881Y-108536976D01*
X166568833Y-108870310D01*
X166568833Y-108727452D01*
X166616452Y-108632214D01*
X166664071Y-108584595D01*
X166759310Y-108536976D01*
X166997405Y-108536976D01*
X167092643Y-108584595D01*
X167140262Y-108632214D01*
X167187881Y-108727452D01*
X167187881Y-109013167D01*
X167140262Y-109108405D01*
X167092643Y-109156024D01*
X166187881Y-107679833D02*
X166187881Y-107870310D01*
X166235500Y-107965548D01*
X166283119Y-108013167D01*
X166425976Y-108108405D01*
X166616452Y-108156024D01*
X166997405Y-108156024D01*
X167092643Y-108108405D01*
X167140262Y-108060786D01*
X167187881Y-107965548D01*
X167187881Y-107775071D01*
X167140262Y-107679833D01*
X167092643Y-107632214D01*
X166997405Y-107584595D01*
X166759310Y-107584595D01*
X166664071Y-107632214D01*
X166616452Y-107679833D01*
X166568833Y-107775071D01*
X166568833Y-107965548D01*
X166616452Y-108060786D01*
X166664071Y-108108405D01*
X166759310Y-108156024D01*
X154908667Y-125023381D02*
X154908667Y-125737667D01*
X154861047Y-125880524D01*
X154765809Y-125975762D01*
X154622952Y-126023381D01*
X154527714Y-126023381D01*
X155813429Y-125023381D02*
X155622952Y-125023381D01*
X155527714Y-125071000D01*
X155480095Y-125118619D01*
X155384857Y-125261476D01*
X155337238Y-125451952D01*
X155337238Y-125832905D01*
X155384857Y-125928143D01*
X155432476Y-125975762D01*
X155527714Y-126023381D01*
X155718191Y-126023381D01*
X155813429Y-125975762D01*
X155861048Y-125928143D01*
X155908667Y-125832905D01*
X155908667Y-125594810D01*
X155861048Y-125499571D01*
X155813429Y-125451952D01*
X155718191Y-125404333D01*
X155527714Y-125404333D01*
X155432476Y-125451952D01*
X155384857Y-125499571D01*
X155337238Y-125594810D01*
X102005333Y-126753667D02*
X102481524Y-126753667D01*
X101910095Y-127039381D02*
X102243428Y-126039381D01*
X102576762Y-127039381D01*
X102910095Y-126515571D02*
X103243429Y-126515571D01*
X103386286Y-127039381D02*
X102910095Y-127039381D01*
X102910095Y-126039381D01*
X103386286Y-126039381D01*
X104338667Y-127039381D02*
X103767238Y-127039381D01*
X104052952Y-127039381D02*
X104052952Y-126039381D01*
X103957714Y-126182238D01*
X103862476Y-126277476D01*
X103767238Y-126325095D01*
X166965334Y-91162143D02*
X166917715Y-91209762D01*
X166774858Y-91257381D01*
X166679620Y-91257381D01*
X166536762Y-91209762D01*
X166441524Y-91114524D01*
X166393905Y-91019286D01*
X166346286Y-90828810D01*
X166346286Y-90685952D01*
X166393905Y-90495476D01*
X166441524Y-90400238D01*
X166536762Y-90305000D01*
X166679620Y-90257381D01*
X166774858Y-90257381D01*
X166917715Y-90305000D01*
X166965334Y-90352619D01*
X167917715Y-91257381D02*
X167346286Y-91257381D01*
X167632000Y-91257381D02*
X167632000Y-90257381D01*
X167536762Y-90400238D01*
X167441524Y-90495476D01*
X167346286Y-90543095D01*
X145772143Y-90781166D02*
X145819762Y-90828785D01*
X145867381Y-90971642D01*
X145867381Y-91066880D01*
X145819762Y-91209738D01*
X145724524Y-91304976D01*
X145629286Y-91352595D01*
X145438810Y-91400214D01*
X145295952Y-91400214D01*
X145105476Y-91352595D01*
X145010238Y-91304976D01*
X144915000Y-91209738D01*
X144867381Y-91066880D01*
X144867381Y-90971642D01*
X144915000Y-90828785D01*
X144962619Y-90781166D01*
X145295952Y-90209738D02*
X145248333Y-90304976D01*
X145200714Y-90352595D01*
X145105476Y-90400214D01*
X145057857Y-90400214D01*
X144962619Y-90352595D01*
X144915000Y-90304976D01*
X144867381Y-90209738D01*
X144867381Y-90019261D01*
X144915000Y-89924023D01*
X144962619Y-89876404D01*
X145057857Y-89828785D01*
X145105476Y-89828785D01*
X145200714Y-89876404D01*
X145248333Y-89924023D01*
X145295952Y-90019261D01*
X145295952Y-90209738D01*
X145343571Y-90304976D01*
X145391190Y-90352595D01*
X145486429Y-90400214D01*
X145676905Y-90400214D01*
X145772143Y-90352595D01*
X145819762Y-90304976D01*
X145867381Y-90209738D01*
X145867381Y-90019261D01*
X145819762Y-89924023D01*
X145772143Y-89876404D01*
X145676905Y-89828785D01*
X145486429Y-89828785D01*
X145391190Y-89876404D01*
X145343571Y-89924023D01*
X145295952Y-90019261D01*
X106847143Y-127071143D02*
X106799524Y-127118762D01*
X106656667Y-127166381D01*
X106561429Y-127166381D01*
X106418571Y-127118762D01*
X106323333Y-127023524D01*
X106275714Y-126928286D01*
X106228095Y-126737810D01*
X106228095Y-126594952D01*
X106275714Y-126404476D01*
X106323333Y-126309238D01*
X106418571Y-126214000D01*
X106561429Y-126166381D01*
X106656667Y-126166381D01*
X106799524Y-126214000D01*
X106847143Y-126261619D01*
X107799524Y-127166381D02*
X107228095Y-127166381D01*
X107513809Y-127166381D02*
X107513809Y-126166381D01*
X107418571Y-126309238D01*
X107323333Y-126404476D01*
X107228095Y-126452095D01*
X108180476Y-126261619D02*
X108228095Y-126214000D01*
X108323333Y-126166381D01*
X108561429Y-126166381D01*
X108656667Y-126214000D01*
X108704286Y-126261619D01*
X108751905Y-126356857D01*
X108751905Y-126452095D01*
X108704286Y-126594952D01*
X108132857Y-127166381D01*
X108751905Y-127166381D01*
X114324143Y-124181857D02*
X114371762Y-124229476D01*
X114419381Y-124372333D01*
X114419381Y-124467571D01*
X114371762Y-124610429D01*
X114276524Y-124705667D01*
X114181286Y-124753286D01*
X113990810Y-124800905D01*
X113847952Y-124800905D01*
X113657476Y-124753286D01*
X113562238Y-124705667D01*
X113467000Y-124610429D01*
X113419381Y-124467571D01*
X113419381Y-124372333D01*
X113467000Y-124229476D01*
X113514619Y-124181857D01*
X114419381Y-123229476D02*
X114419381Y-123800905D01*
X114419381Y-123515191D02*
X113419381Y-123515191D01*
X113562238Y-123610429D01*
X113657476Y-123705667D01*
X113705095Y-123800905D01*
X113419381Y-122896143D02*
X113419381Y-122277095D01*
X113800333Y-122610429D01*
X113800333Y-122467571D01*
X113847952Y-122372333D01*
X113895571Y-122324714D01*
X113990810Y-122277095D01*
X114228905Y-122277095D01*
X114324143Y-122324714D01*
X114371762Y-122372333D01*
X114419381Y-122467571D01*
X114419381Y-122753286D01*
X114371762Y-122848524D01*
X114324143Y-122896143D01*
X98798143Y-113641143D02*
X98750524Y-113688762D01*
X98607667Y-113736381D01*
X98512429Y-113736381D01*
X98369571Y-113688762D01*
X98274333Y-113593524D01*
X98226714Y-113498286D01*
X98179095Y-113307810D01*
X98179095Y-113164952D01*
X98226714Y-112974476D01*
X98274333Y-112879238D01*
X98369571Y-112784000D01*
X98512429Y-112736381D01*
X98607667Y-112736381D01*
X98750524Y-112784000D01*
X98798143Y-112831619D01*
X99750524Y-113736381D02*
X99179095Y-113736381D01*
X99464809Y-113736381D02*
X99464809Y-112736381D01*
X99369571Y-112879238D01*
X99274333Y-112974476D01*
X99179095Y-113022095D01*
X100655286Y-112736381D02*
X100179095Y-112736381D01*
X100131476Y-113212571D01*
X100179095Y-113164952D01*
X100274333Y-113117333D01*
X100512429Y-113117333D01*
X100607667Y-113164952D01*
X100655286Y-113212571D01*
X100702905Y-113307810D01*
X100702905Y-113545905D01*
X100655286Y-113641143D01*
X100607667Y-113688762D01*
X100512429Y-113736381D01*
X100274333Y-113736381D01*
X100179095Y-113688762D01*
X100131476Y-113641143D01*
X98786143Y-115038143D02*
X98738524Y-115085762D01*
X98595667Y-115133381D01*
X98500429Y-115133381D01*
X98357571Y-115085762D01*
X98262333Y-114990524D01*
X98214714Y-114895286D01*
X98167095Y-114704810D01*
X98167095Y-114561952D01*
X98214714Y-114371476D01*
X98262333Y-114276238D01*
X98357571Y-114181000D01*
X98500429Y-114133381D01*
X98595667Y-114133381D01*
X98738524Y-114181000D01*
X98786143Y-114228619D01*
X99738524Y-115133381D02*
X99167095Y-115133381D01*
X99452809Y-115133381D02*
X99452809Y-114133381D01*
X99357571Y-114276238D01*
X99262333Y-114371476D01*
X99167095Y-114419095D01*
X100595667Y-114133381D02*
X100405190Y-114133381D01*
X100309952Y-114181000D01*
X100262333Y-114228619D01*
X100167095Y-114371476D01*
X100119476Y-114561952D01*
X100119476Y-114942905D01*
X100167095Y-115038143D01*
X100214714Y-115085762D01*
X100309952Y-115133381D01*
X100500429Y-115133381D01*
X100595667Y-115085762D01*
X100643286Y-115038143D01*
X100690905Y-114942905D01*
X100690905Y-114704810D01*
X100643286Y-114609571D01*
X100595667Y-114561952D01*
X100500429Y-114514333D01*
X100309952Y-114514333D01*
X100214714Y-114561952D01*
X100167095Y-114609571D01*
X100119476Y-114704810D01*
X98798143Y-116435143D02*
X98750524Y-116482762D01*
X98607667Y-116530381D01*
X98512429Y-116530381D01*
X98369571Y-116482762D01*
X98274333Y-116387524D01*
X98226714Y-116292286D01*
X98179095Y-116101810D01*
X98179095Y-115958952D01*
X98226714Y-115768476D01*
X98274333Y-115673238D01*
X98369571Y-115578000D01*
X98512429Y-115530381D01*
X98607667Y-115530381D01*
X98750524Y-115578000D01*
X98798143Y-115625619D01*
X99750524Y-116530381D02*
X99179095Y-116530381D01*
X99464809Y-116530381D02*
X99464809Y-115530381D01*
X99369571Y-115673238D01*
X99274333Y-115768476D01*
X99179095Y-115816095D01*
X100083857Y-115530381D02*
X100750524Y-115530381D01*
X100321952Y-116530381D01*
X98798143Y-117832143D02*
X98750524Y-117879762D01*
X98607667Y-117927381D01*
X98512429Y-117927381D01*
X98369571Y-117879762D01*
X98274333Y-117784524D01*
X98226714Y-117689286D01*
X98179095Y-117498810D01*
X98179095Y-117355952D01*
X98226714Y-117165476D01*
X98274333Y-117070238D01*
X98369571Y-116975000D01*
X98512429Y-116927381D01*
X98607667Y-116927381D01*
X98750524Y-116975000D01*
X98798143Y-117022619D01*
X99750524Y-117927381D02*
X99179095Y-117927381D01*
X99464809Y-117927381D02*
X99464809Y-116927381D01*
X99369571Y-117070238D01*
X99274333Y-117165476D01*
X99179095Y-117213095D01*
X100321952Y-117355952D02*
X100226714Y-117308333D01*
X100179095Y-117260714D01*
X100131476Y-117165476D01*
X100131476Y-117117857D01*
X100179095Y-117022619D01*
X100226714Y-116975000D01*
X100321952Y-116927381D01*
X100512429Y-116927381D01*
X100607667Y-116975000D01*
X100655286Y-117022619D01*
X100702905Y-117117857D01*
X100702905Y-117165476D01*
X100655286Y-117260714D01*
X100607667Y-117308333D01*
X100512429Y-117355952D01*
X100321952Y-117355952D01*
X100226714Y-117403571D01*
X100179095Y-117451190D01*
X100131476Y-117546429D01*
X100131476Y-117736905D01*
X100179095Y-117832143D01*
X100226714Y-117879762D01*
X100321952Y-117927381D01*
X100512429Y-117927381D01*
X100607667Y-117879762D01*
X100655286Y-117832143D01*
X100702905Y-117736905D01*
X100702905Y-117546429D01*
X100655286Y-117451190D01*
X100607667Y-117403571D01*
X100512429Y-117355952D01*
X98786143Y-112244143D02*
X98738524Y-112291762D01*
X98595667Y-112339381D01*
X98500429Y-112339381D01*
X98357571Y-112291762D01*
X98262333Y-112196524D01*
X98214714Y-112101286D01*
X98167095Y-111910810D01*
X98167095Y-111767952D01*
X98214714Y-111577476D01*
X98262333Y-111482238D01*
X98357571Y-111387000D01*
X98500429Y-111339381D01*
X98595667Y-111339381D01*
X98738524Y-111387000D01*
X98786143Y-111434619D01*
X99738524Y-112339381D02*
X99167095Y-112339381D01*
X99452809Y-112339381D02*
X99452809Y-111339381D01*
X99357571Y-111482238D01*
X99262333Y-111577476D01*
X99167095Y-111625095D01*
X100214714Y-112339381D02*
X100405190Y-112339381D01*
X100500429Y-112291762D01*
X100548048Y-112244143D01*
X100643286Y-112101286D01*
X100690905Y-111910810D01*
X100690905Y-111529857D01*
X100643286Y-111434619D01*
X100595667Y-111387000D01*
X100500429Y-111339381D01*
X100309952Y-111339381D01*
X100214714Y-111387000D01*
X100167095Y-111434619D01*
X100119476Y-111529857D01*
X100119476Y-111767952D01*
X100167095Y-111863190D01*
X100214714Y-111910810D01*
X100309952Y-111958429D01*
X100500429Y-111958429D01*
X100595667Y-111910810D01*
X100643286Y-111863190D01*
X100690905Y-111767952D01*
X97322143Y-104592143D02*
X97274524Y-104639762D01*
X97131667Y-104687381D01*
X97036429Y-104687381D01*
X96893571Y-104639762D01*
X96798333Y-104544524D01*
X96750714Y-104449286D01*
X96703095Y-104258810D01*
X96703095Y-104115952D01*
X96750714Y-103925476D01*
X96798333Y-103830238D01*
X96893571Y-103735000D01*
X97036429Y-103687381D01*
X97131667Y-103687381D01*
X97274524Y-103735000D01*
X97322143Y-103782619D01*
X97703095Y-103782619D02*
X97750714Y-103735000D01*
X97845952Y-103687381D01*
X98084048Y-103687381D01*
X98179286Y-103735000D01*
X98226905Y-103782619D01*
X98274524Y-103877857D01*
X98274524Y-103973095D01*
X98226905Y-104115952D01*
X97655476Y-104687381D01*
X98274524Y-104687381D01*
X98655476Y-103782619D02*
X98703095Y-103735000D01*
X98798333Y-103687381D01*
X99036429Y-103687381D01*
X99131667Y-103735000D01*
X99179286Y-103782619D01*
X99226905Y-103877857D01*
X99226905Y-103973095D01*
X99179286Y-104115952D01*
X98607857Y-104687381D01*
X99226905Y-104687381D01*
X97322143Y-102973143D02*
X97274524Y-103020762D01*
X97131667Y-103068381D01*
X97036429Y-103068381D01*
X96893571Y-103020762D01*
X96798333Y-102925524D01*
X96750714Y-102830286D01*
X96703095Y-102639810D01*
X96703095Y-102496952D01*
X96750714Y-102306476D01*
X96798333Y-102211238D01*
X96893571Y-102116000D01*
X97036429Y-102068381D01*
X97131667Y-102068381D01*
X97274524Y-102116000D01*
X97322143Y-102163619D01*
X97703095Y-102163619D02*
X97750714Y-102116000D01*
X97845952Y-102068381D01*
X98084048Y-102068381D01*
X98179286Y-102116000D01*
X98226905Y-102163619D01*
X98274524Y-102258857D01*
X98274524Y-102354095D01*
X98226905Y-102496952D01*
X97655476Y-103068381D01*
X98274524Y-103068381D01*
X98607857Y-102068381D02*
X99226905Y-102068381D01*
X98893571Y-102449333D01*
X99036429Y-102449333D01*
X99131667Y-102496952D01*
X99179286Y-102544571D01*
X99226905Y-102639810D01*
X99226905Y-102877905D01*
X99179286Y-102973143D01*
X99131667Y-103020762D01*
X99036429Y-103068381D01*
X98750714Y-103068381D01*
X98655476Y-103020762D01*
X98607857Y-102973143D01*
X97322143Y-101417143D02*
X97274524Y-101464762D01*
X97131667Y-101512381D01*
X97036429Y-101512381D01*
X96893571Y-101464762D01*
X96798333Y-101369524D01*
X96750714Y-101274286D01*
X96703095Y-101083810D01*
X96703095Y-100940952D01*
X96750714Y-100750476D01*
X96798333Y-100655238D01*
X96893571Y-100560000D01*
X97036429Y-100512381D01*
X97131667Y-100512381D01*
X97274524Y-100560000D01*
X97322143Y-100607619D01*
X97703095Y-100607619D02*
X97750714Y-100560000D01*
X97845952Y-100512381D01*
X98084048Y-100512381D01*
X98179286Y-100560000D01*
X98226905Y-100607619D01*
X98274524Y-100702857D01*
X98274524Y-100798095D01*
X98226905Y-100940952D01*
X97655476Y-101512381D01*
X98274524Y-101512381D01*
X99131667Y-100845714D02*
X99131667Y-101512381D01*
X98893571Y-100464762D02*
X98655476Y-101179048D01*
X99274524Y-101179048D01*
X97322143Y-99925143D02*
X97274524Y-99972762D01*
X97131667Y-100020381D01*
X97036429Y-100020381D01*
X96893571Y-99972762D01*
X96798333Y-99877524D01*
X96750714Y-99782286D01*
X96703095Y-99591810D01*
X96703095Y-99448952D01*
X96750714Y-99258476D01*
X96798333Y-99163238D01*
X96893571Y-99068000D01*
X97036429Y-99020381D01*
X97131667Y-99020381D01*
X97274524Y-99068000D01*
X97322143Y-99115619D01*
X97703095Y-99115619D02*
X97750714Y-99068000D01*
X97845952Y-99020381D01*
X98084048Y-99020381D01*
X98179286Y-99068000D01*
X98226905Y-99115619D01*
X98274524Y-99210857D01*
X98274524Y-99306095D01*
X98226905Y-99448952D01*
X97655476Y-100020381D01*
X98274524Y-100020381D01*
X99179286Y-99020381D02*
X98703095Y-99020381D01*
X98655476Y-99496571D01*
X98703095Y-99448952D01*
X98798333Y-99401333D01*
X99036429Y-99401333D01*
X99131667Y-99448952D01*
X99179286Y-99496571D01*
X99226905Y-99591810D01*
X99226905Y-99829905D01*
X99179286Y-99925143D01*
X99131667Y-99972762D01*
X99036429Y-100020381D01*
X98798333Y-100020381D01*
X98703095Y-99972762D01*
X98655476Y-99925143D01*
X126357214Y-107640381D02*
X126357214Y-106640381D01*
X126595309Y-106640381D01*
X126738167Y-106688000D01*
X126833405Y-106783238D01*
X126881024Y-106878476D01*
X126928643Y-107068952D01*
X126928643Y-107211810D01*
X126881024Y-107402286D01*
X126833405Y-107497524D01*
X126738167Y-107592762D01*
X126595309Y-107640381D01*
X126357214Y-107640381D01*
X127881024Y-107640381D02*
X127309595Y-107640381D01*
X127595309Y-107640381D02*
X127595309Y-106640381D01*
X127500071Y-106783238D01*
X127404833Y-106878476D01*
X127309595Y-106926095D01*
X128214357Y-106640381D02*
X128833405Y-106640381D01*
X128500071Y-107021333D01*
X128642929Y-107021333D01*
X128738167Y-107068952D01*
X128785786Y-107116571D01*
X128833405Y-107211810D01*
X128833405Y-107449905D01*
X128785786Y-107545143D01*
X128738167Y-107592762D01*
X128642929Y-107640381D01*
X128357214Y-107640381D01*
X128261976Y-107592762D01*
X128214357Y-107545143D01*
X129151214Y-132722881D02*
X129151214Y-131722881D01*
X129389309Y-131722881D01*
X129532167Y-131770500D01*
X129627405Y-131865738D01*
X129675024Y-131960976D01*
X129722643Y-132151452D01*
X129722643Y-132294310D01*
X129675024Y-132484786D01*
X129627405Y-132580024D01*
X129532167Y-132675262D01*
X129389309Y-132722881D01*
X129151214Y-132722881D01*
X130675024Y-132722881D02*
X130103595Y-132722881D01*
X130389309Y-132722881D02*
X130389309Y-131722881D01*
X130294071Y-131865738D01*
X130198833Y-131960976D01*
X130103595Y-132008595D01*
X131532167Y-132056214D02*
X131532167Y-132722881D01*
X131294071Y-131675262D02*
X131055976Y-132389548D01*
X131675024Y-132389548D01*
X125356881Y-115006286D02*
X124356881Y-115006286D01*
X124356881Y-114768191D01*
X124404500Y-114625333D01*
X124499738Y-114530095D01*
X124594976Y-114482476D01*
X124785452Y-114434857D01*
X124928310Y-114434857D01*
X125118786Y-114482476D01*
X125214024Y-114530095D01*
X125309262Y-114625333D01*
X125356881Y-114768191D01*
X125356881Y-115006286D01*
X125356881Y-113482476D02*
X125356881Y-114053905D01*
X125356881Y-113768191D02*
X124356881Y-113768191D01*
X124499738Y-113863429D01*
X124594976Y-113958667D01*
X124642595Y-114053905D01*
X124356881Y-112577714D02*
X124356881Y-113053905D01*
X124833071Y-113101524D01*
X124785452Y-113053905D01*
X124737833Y-112958667D01*
X124737833Y-112720571D01*
X124785452Y-112625333D01*
X124833071Y-112577714D01*
X124928310Y-112530095D01*
X125166405Y-112530095D01*
X125261643Y-112577714D01*
X125309262Y-112625333D01*
X125356881Y-112720571D01*
X125356881Y-112958667D01*
X125309262Y-113053905D01*
X125261643Y-113101524D01*
X109736334Y-129198381D02*
X109260143Y-129198381D01*
X109260143Y-128198381D01*
X110593477Y-129198381D02*
X110022048Y-129198381D01*
X110307762Y-129198381D02*
X110307762Y-128198381D01*
X110212524Y-128341238D01*
X110117286Y-128436476D01*
X110022048Y-128484095D01*
X109101334Y-124753381D02*
X108625143Y-124753381D01*
X108625143Y-123753381D01*
X109387048Y-123848619D02*
X109434667Y-123801000D01*
X109529905Y-123753381D01*
X109768001Y-123753381D01*
X109863239Y-123801000D01*
X109910858Y-123848619D01*
X109958477Y-123943857D01*
X109958477Y-124039095D01*
X109910858Y-124181952D01*
X109339429Y-124753381D01*
X109958477Y-124753381D01*
X127666762Y-105195619D02*
X127571524Y-105148000D01*
X127476286Y-105052762D01*
X127333429Y-104909905D01*
X127238190Y-104862286D01*
X127142952Y-104862286D01*
X127190571Y-105100381D02*
X127095333Y-105052762D01*
X127000095Y-104957524D01*
X126952476Y-104767048D01*
X126952476Y-104433714D01*
X127000095Y-104243238D01*
X127095333Y-104148000D01*
X127190571Y-104100381D01*
X127381048Y-104100381D01*
X127476286Y-104148000D01*
X127571524Y-104243238D01*
X127619143Y-104433714D01*
X127619143Y-104767048D01*
X127571524Y-104957524D01*
X127476286Y-105052762D01*
X127381048Y-105100381D01*
X127190571Y-105100381D01*
X128476286Y-104433714D02*
X128476286Y-105100381D01*
X128238190Y-104052762D02*
X128000095Y-104767048D01*
X128619143Y-104767048D01*
X163536334Y-91320881D02*
X163203000Y-90844690D01*
X162964905Y-91320881D02*
X162964905Y-90320881D01*
X163345858Y-90320881D01*
X163441096Y-90368500D01*
X163488715Y-90416119D01*
X163536334Y-90511357D01*
X163536334Y-90654214D01*
X163488715Y-90749452D01*
X163441096Y-90797071D01*
X163345858Y-90844690D01*
X162964905Y-90844690D01*
X164488715Y-91320881D02*
X163917286Y-91320881D01*
X164203000Y-91320881D02*
X164203000Y-90320881D01*
X164107762Y-90463738D01*
X164012524Y-90558976D01*
X163917286Y-90606595D01*
X152407881Y-85097666D02*
X151931690Y-85431000D01*
X152407881Y-85669095D02*
X151407881Y-85669095D01*
X151407881Y-85288142D01*
X151455500Y-85192904D01*
X151503119Y-85145285D01*
X151598357Y-85097666D01*
X151741214Y-85097666D01*
X151836452Y-85145285D01*
X151884071Y-85192904D01*
X151931690Y-85288142D01*
X151931690Y-85669095D01*
X151407881Y-84764333D02*
X151407881Y-84145285D01*
X151788833Y-84478619D01*
X151788833Y-84335761D01*
X151836452Y-84240523D01*
X151884071Y-84192904D01*
X151979310Y-84145285D01*
X152217405Y-84145285D01*
X152312643Y-84192904D01*
X152360262Y-84240523D01*
X152407881Y-84335761D01*
X152407881Y-84621476D01*
X152360262Y-84716714D01*
X152312643Y-84764333D01*
X117769143Y-121165881D02*
X117435809Y-120689690D01*
X117197714Y-121165881D02*
X117197714Y-120165881D01*
X117578667Y-120165881D01*
X117673905Y-120213500D01*
X117721524Y-120261119D01*
X117769143Y-120356357D01*
X117769143Y-120499214D01*
X117721524Y-120594452D01*
X117673905Y-120642071D01*
X117578667Y-120689690D01*
X117197714Y-120689690D01*
X118721524Y-121165881D02*
X118150095Y-121165881D01*
X118435809Y-121165881D02*
X118435809Y-120165881D01*
X118340571Y-120308738D01*
X118245333Y-120403976D01*
X118150095Y-120451595D01*
X119102476Y-120261119D02*
X119150095Y-120213500D01*
X119245333Y-120165881D01*
X119483429Y-120165881D01*
X119578667Y-120213500D01*
X119626286Y-120261119D01*
X119673905Y-120356357D01*
X119673905Y-120451595D01*
X119626286Y-120594452D01*
X119054857Y-121165881D01*
X119673905Y-121165881D01*
X104513381Y-109068857D02*
X104037190Y-109402191D01*
X104513381Y-109640286D02*
X103513381Y-109640286D01*
X103513381Y-109259333D01*
X103561000Y-109164095D01*
X103608619Y-109116476D01*
X103703857Y-109068857D01*
X103846714Y-109068857D01*
X103941952Y-109116476D01*
X103989571Y-109164095D01*
X104037190Y-109259333D01*
X104037190Y-109640286D01*
X104513381Y-108116476D02*
X104513381Y-108687905D01*
X104513381Y-108402191D02*
X103513381Y-108402191D01*
X103656238Y-108497429D01*
X103751476Y-108592667D01*
X103799095Y-108687905D01*
X103513381Y-107259333D02*
X103513381Y-107449810D01*
X103561000Y-107545048D01*
X103608619Y-107592667D01*
X103751476Y-107687905D01*
X103941952Y-107735524D01*
X104322905Y-107735524D01*
X104418143Y-107687905D01*
X104465762Y-107640286D01*
X104513381Y-107545048D01*
X104513381Y-107354571D01*
X104465762Y-107259333D01*
X104418143Y-107211714D01*
X104322905Y-107164095D01*
X104084810Y-107164095D01*
X103989571Y-107211714D01*
X103941952Y-107259333D01*
X103894333Y-107354571D01*
X103894333Y-107545048D01*
X103941952Y-107640286D01*
X103989571Y-107687905D01*
X104084810Y-107735524D01*
X125658643Y-110878881D02*
X125325309Y-110402690D01*
X125087214Y-110878881D02*
X125087214Y-109878881D01*
X125468167Y-109878881D01*
X125563405Y-109926500D01*
X125611024Y-109974119D01*
X125658643Y-110069357D01*
X125658643Y-110212214D01*
X125611024Y-110307452D01*
X125563405Y-110355071D01*
X125468167Y-110402690D01*
X125087214Y-110402690D01*
X126039595Y-109974119D02*
X126087214Y-109926500D01*
X126182452Y-109878881D01*
X126420548Y-109878881D01*
X126515786Y-109926500D01*
X126563405Y-109974119D01*
X126611024Y-110069357D01*
X126611024Y-110164595D01*
X126563405Y-110307452D01*
X125991976Y-110878881D01*
X126611024Y-110878881D01*
X127515786Y-109878881D02*
X127039595Y-109878881D01*
X126991976Y-110355071D01*
X127039595Y-110307452D01*
X127134833Y-110259833D01*
X127372929Y-110259833D01*
X127468167Y-110307452D01*
X127515786Y-110355071D01*
X127563405Y-110450310D01*
X127563405Y-110688405D01*
X127515786Y-110783643D01*
X127468167Y-110831262D01*
X127372929Y-110878881D01*
X127134833Y-110878881D01*
X127039595Y-110831262D01*
X126991976Y-110783643D01*
X126499881Y-99575857D02*
X126023690Y-99909191D01*
X126499881Y-100147286D02*
X125499881Y-100147286D01*
X125499881Y-99766333D01*
X125547500Y-99671095D01*
X125595119Y-99623476D01*
X125690357Y-99575857D01*
X125833214Y-99575857D01*
X125928452Y-99623476D01*
X125976071Y-99671095D01*
X126023690Y-99766333D01*
X126023690Y-100147286D01*
X125595119Y-99194905D02*
X125547500Y-99147286D01*
X125499881Y-99052048D01*
X125499881Y-98813952D01*
X125547500Y-98718714D01*
X125595119Y-98671095D01*
X125690357Y-98623476D01*
X125785595Y-98623476D01*
X125928452Y-98671095D01*
X126499881Y-99242524D01*
X126499881Y-98623476D01*
X125499881Y-98290143D02*
X125499881Y-97623476D01*
X126499881Y-98052048D01*
X161663143Y-106382381D02*
X161329809Y-105906190D01*
X161091714Y-106382381D02*
X161091714Y-105382381D01*
X161472667Y-105382381D01*
X161567905Y-105430000D01*
X161615524Y-105477619D01*
X161663143Y-105572857D01*
X161663143Y-105715714D01*
X161615524Y-105810952D01*
X161567905Y-105858571D01*
X161472667Y-105906190D01*
X161091714Y-105906190D01*
X161996476Y-105382381D02*
X162615524Y-105382381D01*
X162282190Y-105763333D01*
X162425048Y-105763333D01*
X162520286Y-105810952D01*
X162567905Y-105858571D01*
X162615524Y-105953810D01*
X162615524Y-106191905D01*
X162567905Y-106287143D01*
X162520286Y-106334762D01*
X162425048Y-106382381D01*
X162139333Y-106382381D01*
X162044095Y-106334762D01*
X161996476Y-106287143D01*
X163234571Y-105382381D02*
X163329810Y-105382381D01*
X163425048Y-105430000D01*
X163472667Y-105477619D01*
X163520286Y-105572857D01*
X163567905Y-105763333D01*
X163567905Y-106001429D01*
X163520286Y-106191905D01*
X163472667Y-106287143D01*
X163425048Y-106334762D01*
X163329810Y-106382381D01*
X163234571Y-106382381D01*
X163139333Y-106334762D01*
X163091714Y-106287143D01*
X163044095Y-106191905D01*
X162996476Y-106001429D01*
X162996476Y-105763333D01*
X163044095Y-105572857D01*
X163091714Y-105477619D01*
X163139333Y-105430000D01*
X163234571Y-105382381D01*
X161663143Y-103322381D02*
X161329809Y-102846190D01*
X161091714Y-103322381D02*
X161091714Y-102322381D01*
X161472667Y-102322381D01*
X161567905Y-102370000D01*
X161615524Y-102417619D01*
X161663143Y-102512857D01*
X161663143Y-102655714D01*
X161615524Y-102750952D01*
X161567905Y-102798571D01*
X161472667Y-102846190D01*
X161091714Y-102846190D01*
X161996476Y-102322381D02*
X162615524Y-102322381D01*
X162282190Y-102703333D01*
X162425048Y-102703333D01*
X162520286Y-102750952D01*
X162567905Y-102798571D01*
X162615524Y-102893810D01*
X162615524Y-103131905D01*
X162567905Y-103227143D01*
X162520286Y-103274762D01*
X162425048Y-103322381D01*
X162139333Y-103322381D01*
X162044095Y-103274762D01*
X161996476Y-103227143D01*
X163567905Y-103322381D02*
X162996476Y-103322381D01*
X163282190Y-103322381D02*
X163282190Y-102322381D01*
X163186952Y-102465238D01*
X163091714Y-102560476D01*
X162996476Y-102608095D01*
X173466667Y-97400762D02*
X173609524Y-97448381D01*
X173847620Y-97448381D01*
X173942858Y-97400762D01*
X173990477Y-97353143D01*
X174038096Y-97257905D01*
X174038096Y-97162667D01*
X173990477Y-97067429D01*
X173942858Y-97019810D01*
X173847620Y-96972190D01*
X173657143Y-96924571D01*
X173561905Y-96876952D01*
X173514286Y-96829333D01*
X173466667Y-96734095D01*
X173466667Y-96638857D01*
X173514286Y-96543619D01*
X173561905Y-96496000D01*
X173657143Y-96448381D01*
X173895239Y-96448381D01*
X174038096Y-96496000D01*
X174371429Y-96448381D02*
X174609524Y-97448381D01*
X174800001Y-96734095D01*
X174990477Y-97448381D01*
X175228572Y-96448381D01*
X176133334Y-97448381D02*
X175561905Y-97448381D01*
X175847619Y-97448381D02*
X175847619Y-96448381D01*
X175752381Y-96591238D01*
X175657143Y-96686476D01*
X175561905Y-96734095D01*
X178102095Y-85653381D02*
X178102095Y-86462905D01*
X178149714Y-86558143D01*
X178197333Y-86605762D01*
X178292571Y-86653381D01*
X178483048Y-86653381D01*
X178578286Y-86605762D01*
X178625905Y-86558143D01*
X178673524Y-86462905D01*
X178673524Y-85653381D01*
X179102095Y-85748619D02*
X179149714Y-85701000D01*
X179244952Y-85653381D01*
X179483048Y-85653381D01*
X179578286Y-85701000D01*
X179625905Y-85748619D01*
X179673524Y-85843857D01*
X179673524Y-85939095D01*
X179625905Y-86081952D01*
X179054476Y-86653381D01*
X179673524Y-86653381D01*
X134287095Y-105237381D02*
X134287095Y-106046905D01*
X134334714Y-106142143D01*
X134382333Y-106189762D01*
X134477571Y-106237381D01*
X134668048Y-106237381D01*
X134763286Y-106189762D01*
X134810905Y-106142143D01*
X134858524Y-106046905D01*
X134858524Y-105237381D01*
X135763286Y-105570714D02*
X135763286Y-106237381D01*
X135525190Y-105189762D02*
X135287095Y-105904048D01*
X135906143Y-105904048D01*
X145478595Y-94067381D02*
X145478595Y-94876905D01*
X145526214Y-94972143D01*
X145573833Y-95019762D01*
X145669071Y-95067381D01*
X145859548Y-95067381D01*
X145954786Y-95019762D01*
X146002405Y-94972143D01*
X146050024Y-94876905D01*
X146050024Y-94067381D01*
X147002405Y-94067381D02*
X146526214Y-94067381D01*
X146478595Y-94543571D01*
X146526214Y-94495952D01*
X146621452Y-94448333D01*
X146859548Y-94448333D01*
X146954786Y-94495952D01*
X147002405Y-94543571D01*
X147050024Y-94638810D01*
X147050024Y-94876905D01*
X147002405Y-94972143D01*
X146954786Y-95019762D01*
X146859548Y-95067381D01*
X146621452Y-95067381D01*
X146526214Y-95019762D01*
X146478595Y-94972143D01*
X128198643Y-124118643D02*
X128151024Y-124166262D01*
X128008167Y-124213881D01*
X127912929Y-124213881D01*
X127770071Y-124166262D01*
X127674833Y-124071024D01*
X127627214Y-123975786D01*
X127579595Y-123785310D01*
X127579595Y-123642452D01*
X127627214Y-123451976D01*
X127674833Y-123356738D01*
X127770071Y-123261500D01*
X127912929Y-123213881D01*
X128008167Y-123213881D01*
X128151024Y-123261500D01*
X128198643Y-123309119D01*
X128579595Y-123309119D02*
X128627214Y-123261500D01*
X128722452Y-123213881D01*
X128960548Y-123213881D01*
X129055786Y-123261500D01*
X129103405Y-123309119D01*
X129151024Y-123404357D01*
X129151024Y-123499595D01*
X129103405Y-123642452D01*
X128531976Y-124213881D01*
X129151024Y-124213881D01*
X129722452Y-123642452D02*
X129627214Y-123594833D01*
X129579595Y-123547214D01*
X129531976Y-123451976D01*
X129531976Y-123404357D01*
X129579595Y-123309119D01*
X129627214Y-123261500D01*
X129722452Y-123213881D01*
X129912929Y-123213881D01*
X130008167Y-123261500D01*
X130055786Y-123309119D01*
X130103405Y-123404357D01*
X130103405Y-123451976D01*
X130055786Y-123547214D01*
X130008167Y-123594833D01*
X129912929Y-123642452D01*
X129722452Y-123642452D01*
X129627214Y-123690071D01*
X129579595Y-123737690D01*
X129531976Y-123832929D01*
X129531976Y-124023405D01*
X129579595Y-124118643D01*
X129627214Y-124166262D01*
X129722452Y-124213881D01*
X129912929Y-124213881D01*
X130008167Y-124166262D01*
X130055786Y-124118643D01*
X130103405Y-124023405D01*
X130103405Y-123832929D01*
X130055786Y-123737690D01*
X130008167Y-123690071D01*
X129912929Y-123642452D01*
X126493048Y-122863429D02*
X127254953Y-122863429D01*
X126874001Y-123244381D02*
X126874001Y-122482476D01*
X165632143Y-118974857D02*
X165679762Y-119022476D01*
X165727381Y-119165333D01*
X165727381Y-119260571D01*
X165679762Y-119403429D01*
X165584524Y-119498667D01*
X165489286Y-119546286D01*
X165298810Y-119593905D01*
X165155952Y-119593905D01*
X164965476Y-119546286D01*
X164870238Y-119498667D01*
X164775000Y-119403429D01*
X164727381Y-119260571D01*
X164727381Y-119165333D01*
X164775000Y-119022476D01*
X164822619Y-118974857D01*
X164727381Y-118641524D02*
X164727381Y-118022476D01*
X165108333Y-118355810D01*
X165108333Y-118212952D01*
X165155952Y-118117714D01*
X165203571Y-118070095D01*
X165298810Y-118022476D01*
X165536905Y-118022476D01*
X165632143Y-118070095D01*
X165679762Y-118117714D01*
X165727381Y-118212952D01*
X165727381Y-118498667D01*
X165679762Y-118593905D01*
X165632143Y-118641524D01*
X164727381Y-117403429D02*
X164727381Y-117308190D01*
X164775000Y-117212952D01*
X164822619Y-117165333D01*
X164917857Y-117117714D01*
X165108333Y-117070095D01*
X165346429Y-117070095D01*
X165536905Y-117117714D01*
X165632143Y-117165333D01*
X165679762Y-117212952D01*
X165727381Y-117308190D01*
X165727381Y-117403429D01*
X165679762Y-117498667D01*
X165632143Y-117546286D01*
X165536905Y-117593905D01*
X165346429Y-117641524D01*
X165108333Y-117641524D01*
X164917857Y-117593905D01*
X164822619Y-117546286D01*
X164775000Y-117498667D01*
X164727381Y-117403429D01*
X153891429Y-112950952D02*
X153891429Y-112189047D01*
X154272381Y-112569999D02*
X153510476Y-112569999D01*
X159504143Y-109196143D02*
X159456524Y-109243762D01*
X159313667Y-109291381D01*
X159218429Y-109291381D01*
X159075571Y-109243762D01*
X158980333Y-109148524D01*
X158932714Y-109053286D01*
X158885095Y-108862810D01*
X158885095Y-108719952D01*
X158932714Y-108529476D01*
X158980333Y-108434238D01*
X159075571Y-108339000D01*
X159218429Y-108291381D01*
X159313667Y-108291381D01*
X159456524Y-108339000D01*
X159504143Y-108386619D01*
X159837476Y-108291381D02*
X160456524Y-108291381D01*
X160123190Y-108672333D01*
X160266048Y-108672333D01*
X160361286Y-108719952D01*
X160408905Y-108767571D01*
X160456524Y-108862810D01*
X160456524Y-109100905D01*
X160408905Y-109196143D01*
X160361286Y-109243762D01*
X160266048Y-109291381D01*
X159980333Y-109291381D01*
X159885095Y-109243762D01*
X159837476Y-109196143D01*
X161313667Y-108624714D02*
X161313667Y-109291381D01*
X161075571Y-108243762D02*
X160837476Y-108958048D01*
X161456524Y-108958048D01*
X167156143Y-105004857D02*
X167203762Y-105052476D01*
X167251381Y-105195333D01*
X167251381Y-105290571D01*
X167203762Y-105433429D01*
X167108524Y-105528667D01*
X167013286Y-105576286D01*
X166822810Y-105623905D01*
X166679952Y-105623905D01*
X166489476Y-105576286D01*
X166394238Y-105528667D01*
X166299000Y-105433429D01*
X166251381Y-105290571D01*
X166251381Y-105195333D01*
X166299000Y-105052476D01*
X166346619Y-105004857D01*
X166251381Y-104671524D02*
X166251381Y-104052476D01*
X166632333Y-104385810D01*
X166632333Y-104242952D01*
X166679952Y-104147714D01*
X166727571Y-104100095D01*
X166822810Y-104052476D01*
X167060905Y-104052476D01*
X167156143Y-104100095D01*
X167203762Y-104147714D01*
X167251381Y-104242952D01*
X167251381Y-104528667D01*
X167203762Y-104623905D01*
X167156143Y-104671524D01*
X166251381Y-103719143D02*
X166251381Y-103052476D01*
X167251381Y-103481048D01*
X145716667Y-84827881D02*
X145716667Y-85542167D01*
X145669047Y-85685024D01*
X145573809Y-85780262D01*
X145430952Y-85827881D01*
X145335714Y-85827881D01*
X146716667Y-85827881D02*
X146145238Y-85827881D01*
X146430952Y-85827881D02*
X146430952Y-84827881D01*
X146335714Y-84970738D01*
X146240476Y-85065976D01*
X146145238Y-85113595D01*
X180816667Y-82859381D02*
X180816667Y-83573667D01*
X180769047Y-83716524D01*
X180673809Y-83811762D01*
X180530952Y-83859381D01*
X180435714Y-83859381D01*
X181245238Y-82954619D02*
X181292857Y-82907000D01*
X181388095Y-82859381D01*
X181626191Y-82859381D01*
X181721429Y-82907000D01*
X181769048Y-82954619D01*
X181816667Y-83049857D01*
X181816667Y-83145095D01*
X181769048Y-83287952D01*
X181197619Y-83859381D01*
X181816667Y-83859381D01*
X188690667Y-91622381D02*
X188690667Y-92336667D01*
X188643047Y-92479524D01*
X188547809Y-92574762D01*
X188404952Y-92622381D01*
X188309714Y-92622381D01*
X189071619Y-91622381D02*
X189690667Y-91622381D01*
X189357333Y-92003333D01*
X189500191Y-92003333D01*
X189595429Y-92050952D01*
X189643048Y-92098571D01*
X189690667Y-92193810D01*
X189690667Y-92431905D01*
X189643048Y-92527143D01*
X189595429Y-92574762D01*
X189500191Y-92622381D01*
X189214476Y-92622381D01*
X189119238Y-92574762D01*
X189071619Y-92527143D01*
X112212595Y-90828881D02*
X112784024Y-90828881D01*
X112498309Y-91828881D02*
X112498309Y-90828881D01*
X113117357Y-91828881D02*
X113117357Y-90828881D01*
X113498310Y-90828881D01*
X113593548Y-90876500D01*
X113641167Y-90924119D01*
X113688786Y-91019357D01*
X113688786Y-91162214D01*
X113641167Y-91257452D01*
X113593548Y-91305071D01*
X113498310Y-91352690D01*
X113117357Y-91352690D01*
X114545929Y-90828881D02*
X114355452Y-90828881D01*
X114260214Y-90876500D01*
X114212595Y-90924119D01*
X114117357Y-91066976D01*
X114069738Y-91257452D01*
X114069738Y-91638405D01*
X114117357Y-91733643D01*
X114164976Y-91781262D01*
X114260214Y-91828881D01*
X114450691Y-91828881D01*
X114545929Y-91781262D01*
X114593548Y-91733643D01*
X114641167Y-91638405D01*
X114641167Y-91400310D01*
X114593548Y-91305071D01*
X114545929Y-91257452D01*
X114450691Y-91209833D01*
X114260214Y-91209833D01*
X114164976Y-91257452D01*
X114117357Y-91305071D01*
X114069738Y-91400310D01*
X110927095Y-87939381D02*
X111498524Y-87939381D01*
X111212809Y-88939381D02*
X111212809Y-87939381D01*
X111831857Y-88939381D02*
X111831857Y-87939381D01*
X112212810Y-87939381D01*
X112308048Y-87987000D01*
X112355667Y-88034619D01*
X112403286Y-88129857D01*
X112403286Y-88272714D01*
X112355667Y-88367952D01*
X112308048Y-88415571D01*
X112212810Y-88463190D01*
X111831857Y-88463190D01*
X112736619Y-87939381D02*
X113403286Y-87939381D01*
X112974714Y-88939381D01*
X117023095Y-89336381D02*
X117594524Y-89336381D01*
X117308809Y-90336381D02*
X117308809Y-89336381D01*
X117927857Y-90336381D02*
X117927857Y-89336381D01*
X118308810Y-89336381D01*
X118404048Y-89384000D01*
X118451667Y-89431619D01*
X118499286Y-89526857D01*
X118499286Y-89669714D01*
X118451667Y-89764952D01*
X118404048Y-89812571D01*
X118308810Y-89860190D01*
X117927857Y-89860190D01*
X119070714Y-89764952D02*
X118975476Y-89717333D01*
X118927857Y-89669714D01*
X118880238Y-89574476D01*
X118880238Y-89526857D01*
X118927857Y-89431619D01*
X118975476Y-89384000D01*
X119070714Y-89336381D01*
X119261191Y-89336381D01*
X119356429Y-89384000D01*
X119404048Y-89431619D01*
X119451667Y-89526857D01*
X119451667Y-89574476D01*
X119404048Y-89669714D01*
X119356429Y-89717333D01*
X119261191Y-89764952D01*
X119070714Y-89764952D01*
X118975476Y-89812571D01*
X118927857Y-89860190D01*
X118880238Y-89955429D01*
X118880238Y-90145905D01*
X118927857Y-90241143D01*
X118975476Y-90288762D01*
X119070714Y-90336381D01*
X119261191Y-90336381D01*
X119356429Y-90288762D01*
X119404048Y-90241143D01*
X119451667Y-90145905D01*
X119451667Y-89955429D01*
X119404048Y-89860190D01*
X119356429Y-89812571D01*
X119261191Y-89764952D01*
X143565643Y-102020643D02*
X143518024Y-102068262D01*
X143375167Y-102115881D01*
X143279929Y-102115881D01*
X143137071Y-102068262D01*
X143041833Y-101973024D01*
X142994214Y-101877786D01*
X142946595Y-101687310D01*
X142946595Y-101544452D01*
X142994214Y-101353976D01*
X143041833Y-101258738D01*
X143137071Y-101163500D01*
X143279929Y-101115881D01*
X143375167Y-101115881D01*
X143518024Y-101163500D01*
X143565643Y-101211119D01*
X143898976Y-101115881D02*
X144518024Y-101115881D01*
X144184690Y-101496833D01*
X144327548Y-101496833D01*
X144422786Y-101544452D01*
X144470405Y-101592071D01*
X144518024Y-101687310D01*
X144518024Y-101925405D01*
X144470405Y-102020643D01*
X144422786Y-102068262D01*
X144327548Y-102115881D01*
X144041833Y-102115881D01*
X143946595Y-102068262D01*
X143898976Y-102020643D01*
X144898976Y-101211119D02*
X144946595Y-101163500D01*
X145041833Y-101115881D01*
X145279929Y-101115881D01*
X145375167Y-101163500D01*
X145422786Y-101211119D01*
X145470405Y-101306357D01*
X145470405Y-101401595D01*
X145422786Y-101544452D01*
X144851357Y-102115881D01*
X145470405Y-102115881D01*
X148328214Y-84526381D02*
X148328214Y-83526381D01*
X148566309Y-83526381D01*
X148709167Y-83574000D01*
X148804405Y-83669238D01*
X148852024Y-83764476D01*
X148899643Y-83954952D01*
X148899643Y-84097810D01*
X148852024Y-84288286D01*
X148804405Y-84383524D01*
X148709167Y-84478762D01*
X148566309Y-84526381D01*
X148328214Y-84526381D01*
X149852024Y-84526381D02*
X149280595Y-84526381D01*
X149566309Y-84526381D02*
X149566309Y-83526381D01*
X149471071Y-83669238D01*
X149375833Y-83764476D01*
X149280595Y-83812095D01*
X150423452Y-83954952D02*
X150328214Y-83907333D01*
X150280595Y-83859714D01*
X150232976Y-83764476D01*
X150232976Y-83716857D01*
X150280595Y-83621619D01*
X150328214Y-83574000D01*
X150423452Y-83526381D01*
X150613929Y-83526381D01*
X150709167Y-83574000D01*
X150756786Y-83621619D01*
X150804405Y-83716857D01*
X150804405Y-83764476D01*
X150756786Y-83859714D01*
X150709167Y-83907333D01*
X150613929Y-83954952D01*
X150423452Y-83954952D01*
X150328214Y-84002571D01*
X150280595Y-84050190D01*
X150232976Y-84145429D01*
X150232976Y-84335905D01*
X150280595Y-84431143D01*
X150328214Y-84478762D01*
X150423452Y-84526381D01*
X150613929Y-84526381D01*
X150709167Y-84478762D01*
X150756786Y-84431143D01*
X150804405Y-84335905D01*
X150804405Y-84145429D01*
X150756786Y-84050190D01*
X150709167Y-84002571D01*
X150613929Y-83954952D01*
X160083595Y-84288381D02*
X160083595Y-85097905D01*
X160131214Y-85193143D01*
X160178833Y-85240762D01*
X160274071Y-85288381D01*
X160464548Y-85288381D01*
X160559786Y-85240762D01*
X160607405Y-85193143D01*
X160655024Y-85097905D01*
X160655024Y-84288381D01*
X161178833Y-85288381D02*
X161369309Y-85288381D01*
X161464548Y-85240762D01*
X161512167Y-85193143D01*
X161607405Y-85050286D01*
X161655024Y-84859810D01*
X161655024Y-84478857D01*
X161607405Y-84383619D01*
X161559786Y-84336000D01*
X161464548Y-84288381D01*
X161274071Y-84288381D01*
X161178833Y-84336000D01*
X161131214Y-84383619D01*
X161083595Y-84478857D01*
X161083595Y-84716952D01*
X161131214Y-84812190D01*
X161178833Y-84859810D01*
X161274071Y-84907429D01*
X161464548Y-84907429D01*
X161559786Y-84859810D01*
X161607405Y-84812190D01*
X161655024Y-84716952D01*
X155392381Y-88812666D02*
X154916190Y-89146000D01*
X155392381Y-89384095D02*
X154392381Y-89384095D01*
X154392381Y-89003142D01*
X154440000Y-88907904D01*
X154487619Y-88860285D01*
X154582857Y-88812666D01*
X154725714Y-88812666D01*
X154820952Y-88860285D01*
X154868571Y-88907904D01*
X154916190Y-89003142D01*
X154916190Y-89384095D01*
X154487619Y-88431714D02*
X154440000Y-88384095D01*
X154392381Y-88288857D01*
X154392381Y-88050761D01*
X154440000Y-87955523D01*
X154487619Y-87907904D01*
X154582857Y-87860285D01*
X154678095Y-87860285D01*
X154820952Y-87907904D01*
X155392381Y-88479333D01*
X155392381Y-87860285D01*
X100552667Y-87812381D02*
X100552667Y-88526667D01*
X100505047Y-88669524D01*
X100409809Y-88764762D01*
X100266952Y-88812381D01*
X100171714Y-88812381D01*
X101505048Y-87812381D02*
X101028857Y-87812381D01*
X100981238Y-88288571D01*
X101028857Y-88240952D01*
X101124095Y-88193333D01*
X101362191Y-88193333D01*
X101457429Y-88240952D01*
X101505048Y-88288571D01*
X101552667Y-88383810D01*
X101552667Y-88621905D01*
X101505048Y-88717143D01*
X101457429Y-88764762D01*
X101362191Y-88812381D01*
X101124095Y-88812381D01*
X101028857Y-88764762D01*
X100981238Y-88717143D01*
X134842667Y-95749881D02*
X134842667Y-96464167D01*
X134795047Y-96607024D01*
X134699809Y-96702262D01*
X134556952Y-96749881D01*
X134461714Y-96749881D01*
X135747429Y-96083214D02*
X135747429Y-96749881D01*
X135509333Y-95702262D02*
X135271238Y-96416548D01*
X135890286Y-96416548D01*
X120571095Y-120197381D02*
X120571095Y-121006905D01*
X120618714Y-121102143D01*
X120666333Y-121149762D01*
X120761571Y-121197381D01*
X120952048Y-121197381D01*
X121047286Y-121149762D01*
X121094905Y-121102143D01*
X121142524Y-121006905D01*
X121142524Y-120197381D01*
X121523476Y-120197381D02*
X122142524Y-120197381D01*
X121809190Y-120578333D01*
X121952048Y-120578333D01*
X122047286Y-120625952D01*
X122094905Y-120673571D01*
X122142524Y-120768810D01*
X122142524Y-121006905D01*
X122094905Y-121102143D01*
X122047286Y-121149762D01*
X121952048Y-121197381D01*
X121666333Y-121197381D01*
X121571095Y-121149762D01*
X121523476Y-121102143D01*
X128373143Y-116974857D02*
X128420762Y-117022476D01*
X128468381Y-117165333D01*
X128468381Y-117260571D01*
X128420762Y-117403429D01*
X128325524Y-117498667D01*
X128230286Y-117546286D01*
X128039810Y-117593905D01*
X127896952Y-117593905D01*
X127706476Y-117546286D01*
X127611238Y-117498667D01*
X127516000Y-117403429D01*
X127468381Y-117260571D01*
X127468381Y-117165333D01*
X127516000Y-117022476D01*
X127563619Y-116974857D01*
X127563619Y-116593905D02*
X127516000Y-116546286D01*
X127468381Y-116451048D01*
X127468381Y-116212952D01*
X127516000Y-116117714D01*
X127563619Y-116070095D01*
X127658857Y-116022476D01*
X127754095Y-116022476D01*
X127896952Y-116070095D01*
X128468381Y-116641524D01*
X128468381Y-116022476D01*
X128468381Y-115546286D02*
X128468381Y-115355810D01*
X128420762Y-115260571D01*
X128373143Y-115212952D01*
X128230286Y-115117714D01*
X128039810Y-115070095D01*
X127658857Y-115070095D01*
X127563619Y-115117714D01*
X127516000Y-115165333D01*
X127468381Y-115260571D01*
X127468381Y-115451048D01*
X127516000Y-115546286D01*
X127563619Y-115593905D01*
X127658857Y-115641524D01*
X127896952Y-115641524D01*
X127992190Y-115593905D01*
X128039810Y-115546286D01*
X128087429Y-115451048D01*
X128087429Y-115260571D01*
X128039810Y-115165333D01*
X127992190Y-115117714D01*
X127896952Y-115070095D01*
X111069905Y-121197381D02*
X111069905Y-120197381D01*
X111308000Y-120197381D01*
X111450858Y-120245000D01*
X111546096Y-120340238D01*
X111593715Y-120435476D01*
X111641334Y-120625952D01*
X111641334Y-120768810D01*
X111593715Y-120959286D01*
X111546096Y-121054524D01*
X111450858Y-121149762D01*
X111308000Y-121197381D01*
X111069905Y-121197381D01*
X112498477Y-120197381D02*
X112308000Y-120197381D01*
X112212762Y-120245000D01*
X112165143Y-120292619D01*
X112069905Y-120435476D01*
X112022286Y-120625952D01*
X112022286Y-121006905D01*
X112069905Y-121102143D01*
X112117524Y-121149762D01*
X112212762Y-121197381D01*
X112403239Y-121197381D01*
X112498477Y-121149762D01*
X112546096Y-121102143D01*
X112593715Y-121006905D01*
X112593715Y-120768810D01*
X112546096Y-120673571D01*
X112498477Y-120625952D01*
X112403239Y-120578333D01*
X112212762Y-120578333D01*
X112117524Y-120625952D01*
X112069905Y-120673571D01*
X112022286Y-120768810D01*
X146566334Y-123864381D02*
X146090143Y-123864381D01*
X146090143Y-122864381D01*
X146804429Y-122864381D02*
X147423477Y-122864381D01*
X147090143Y-123245333D01*
X147233001Y-123245333D01*
X147328239Y-123292952D01*
X147375858Y-123340571D01*
X147423477Y-123435810D01*
X147423477Y-123673905D01*
X147375858Y-123769143D01*
X147328239Y-123816762D01*
X147233001Y-123864381D01*
X146947286Y-123864381D01*
X146852048Y-123816762D01*
X146804429Y-123769143D01*
M02*
