G04 #@! TF.FileFunction,Soldermask,Bot*
%FSLAX46Y46*%
G04 Gerber Fmt 4.6, Leading zero omitted, Abs format (unit mm)*
G04 Created by KiCad (PCBNEW 4.0.7) date Wednesday, April 18, 2018 'PMt' 12:45:26 PM*
%MOMM*%
%LPD*%
G01*
G04 APERTURE LIST*
%ADD10C,0.100000*%
%ADD11R,1.950000X1.500000*%
%ADD12C,2.500000*%
%ADD13C,3.000000*%
%ADD14R,2.080000X3.600000*%
%ADD15O,2.080000X3.600000*%
%ADD16R,5.080000X2.420000*%
%ADD17R,0.750000X0.800000*%
%ADD18R,0.800000X0.750000*%
%ADD19R,0.800000X0.600000*%
%ADD20R,0.900000X0.800000*%
%ADD21R,0.500000X0.900000*%
%ADD22R,0.900000X0.500000*%
%ADD23R,0.250000X1.300000*%
%ADD24R,1.300000X0.250000*%
%ADD25R,2.200000X1.200000*%
%ADD26R,6.400000X5.800000*%
%ADD27R,1.400000X1.200000*%
%ADD28R,1.000000X1.800000*%
%ADD29R,3.800000X2.000000*%
%ADD30R,1.500000X2.000000*%
%ADD31R,1.700000X1.700000*%
%ADD32O,1.700000X1.700000*%
%ADD33C,1.000000*%
%ADD34R,2.200000X2.200000*%
%ADD35O,2.200000X2.200000*%
%ADD36R,1.700000X1.100000*%
%ADD37O,1.700000X1.100000*%
%ADD38O,3.900000X1.600000*%
%ADD39C,5.400000*%
G04 APERTURE END LIST*
D10*
D11*
X152759000Y-108712000D03*
X150009000Y-108712000D03*
D12*
X183954000Y-109616000D03*
D13*
X171754000Y-109616000D03*
X171704000Y-121666000D03*
D12*
X183954000Y-121616000D03*
D13*
X185904000Y-115666000D03*
D14*
X137390000Y-126619000D03*
D15*
X142470000Y-126619000D03*
X147550000Y-126619000D03*
X152630000Y-126619000D03*
X157710000Y-126619000D03*
X162790000Y-126619000D03*
X167870000Y-126619000D03*
X172950000Y-126619000D03*
D16*
X100584000Y-120272000D03*
X100584000Y-129032000D03*
D17*
X163957000Y-81673000D03*
X163957000Y-83173000D03*
D18*
X165469000Y-80264000D03*
X163969000Y-80264000D03*
D17*
X156845000Y-81685000D03*
X156845000Y-83185000D03*
X158242000Y-81685000D03*
X158242000Y-83185000D03*
D18*
X157619000Y-87249000D03*
X159119000Y-87249000D03*
D17*
X166370000Y-83578000D03*
X166370000Y-85078000D03*
X160655000Y-99175000D03*
X160655000Y-97675000D03*
D18*
X172581000Y-96012000D03*
X171081000Y-96012000D03*
D17*
X126238000Y-111010000D03*
X126238000Y-112510000D03*
X132588000Y-81685000D03*
X132588000Y-83185000D03*
D18*
X129782000Y-100965000D03*
X128282000Y-100965000D03*
X129782000Y-92456000D03*
X128282000Y-92456000D03*
D19*
X131064000Y-81573000D03*
X131064000Y-83273000D03*
X135128000Y-81612000D03*
X135128000Y-83312000D03*
X137668000Y-89076000D03*
X137668000Y-87376000D03*
X137668000Y-81636500D03*
X137668000Y-83336500D03*
X141097000Y-99148000D03*
X141097000Y-97448000D03*
X137795000Y-99148000D03*
X137795000Y-97448000D03*
D20*
X130302000Y-97536000D03*
X130302000Y-99436000D03*
X128302000Y-98486000D03*
X130302000Y-93985000D03*
X130302000Y-95885000D03*
X128302000Y-94935000D03*
D21*
X164707000Y-84709000D03*
X163207000Y-84709000D03*
X172847000Y-84963000D03*
X171347000Y-84963000D03*
X172847000Y-86741000D03*
X171347000Y-86741000D03*
X172847000Y-88519000D03*
X171347000Y-88519000D03*
X172847000Y-90297000D03*
X171347000Y-90297000D03*
X172847000Y-92075000D03*
X171347000Y-92075000D03*
X123825000Y-114046000D03*
X125325000Y-114046000D03*
D22*
X124460000Y-112522000D03*
X124460000Y-111022000D03*
D21*
X124865000Y-107442000D03*
X126365000Y-107442000D03*
X127532000Y-106426000D03*
X129032000Y-106426000D03*
X130199000Y-105537000D03*
X131699000Y-105537000D03*
X127532000Y-104648000D03*
X129032000Y-104648000D03*
D22*
X139446000Y-97421000D03*
X139446000Y-98921000D03*
D21*
X133084000Y-97536000D03*
X131584000Y-97536000D03*
X133084000Y-93980000D03*
X131584000Y-93980000D03*
X112978500Y-90424000D03*
X114478500Y-90424000D03*
X106819000Y-91376500D03*
X108319000Y-91376500D03*
D23*
X162318000Y-87356000D03*
X162818000Y-87356000D03*
X163318000Y-87356000D03*
X163818000Y-87356000D03*
X164318000Y-87356000D03*
X164818000Y-87356000D03*
X165318000Y-87356000D03*
X165818000Y-87356000D03*
X166318000Y-87356000D03*
X166818000Y-87356000D03*
X167318000Y-87356000D03*
X167818000Y-87356000D03*
D24*
X169418000Y-88956000D03*
X169418000Y-89456000D03*
X169418000Y-89956000D03*
X169418000Y-90456000D03*
X169418000Y-90956000D03*
X169418000Y-91456000D03*
X169418000Y-91956000D03*
X169418000Y-92456000D03*
X169418000Y-92956000D03*
X169418000Y-93456000D03*
X169418000Y-93956000D03*
X169418000Y-94456000D03*
D23*
X167818000Y-96056000D03*
X167318000Y-96056000D03*
X166818000Y-96056000D03*
X166318000Y-96056000D03*
X165818000Y-96056000D03*
X165318000Y-96056000D03*
X164818000Y-96056000D03*
X164318000Y-96056000D03*
X163818000Y-96056000D03*
X163318000Y-96056000D03*
X162818000Y-96056000D03*
X162318000Y-96056000D03*
D24*
X160718000Y-94456000D03*
X160718000Y-93956000D03*
X160718000Y-93456000D03*
X160718000Y-92956000D03*
X160718000Y-92456000D03*
X160718000Y-91956000D03*
X160718000Y-91456000D03*
X160718000Y-90956000D03*
X160718000Y-90456000D03*
X160718000Y-89956000D03*
X160718000Y-89456000D03*
X160718000Y-88956000D03*
D25*
X174752000Y-105912000D03*
X174752000Y-101352000D03*
D26*
X181052000Y-103632000D03*
D27*
X160020000Y-81319000D03*
X162220000Y-81319000D03*
X162220000Y-83019000D03*
X160020000Y-83019000D03*
D28*
X156992000Y-85090000D03*
X159492000Y-85090000D03*
D29*
X152781000Y-111125000D03*
D30*
X152781000Y-117425000D03*
X150481000Y-117425000D03*
X155081000Y-117425000D03*
D29*
X144399000Y-111150000D03*
D30*
X144399000Y-117450000D03*
X142099000Y-117450000D03*
X146699000Y-117450000D03*
D11*
X142113000Y-121158000D03*
X144863000Y-121158000D03*
D18*
X143625000Y-119380000D03*
X142125000Y-119380000D03*
D11*
X150473000Y-121158000D03*
X147723000Y-121158000D03*
D18*
X148983000Y-119380000D03*
X150483000Y-119380000D03*
D31*
X146812000Y-87249000D03*
D32*
X149352000Y-87249000D03*
D31*
X184531000Y-83185000D03*
D32*
X187071000Y-83185000D03*
X189611000Y-83185000D03*
D31*
X188976000Y-87630000D03*
D32*
X188976000Y-90170000D03*
X188976000Y-92710000D03*
X188976000Y-95250000D03*
X188976000Y-97790000D03*
D33*
X122785598Y-102002193D03*
X122728574Y-98717709D03*
X122682000Y-114046000D03*
X123964000Y-104648000D03*
X125857000Y-105537000D03*
D11*
X144421000Y-108712000D03*
X147171000Y-108712000D03*
D34*
X154813000Y-81661000D03*
D35*
X144653000Y-81661000D03*
D36*
X103505000Y-90436500D03*
D37*
X100905000Y-89636500D03*
X103505000Y-88836500D03*
X100905000Y-88036500D03*
X103505000Y-87236500D03*
D38*
X102205000Y-92486500D03*
X102205000Y-85186500D03*
D39*
X109790000Y-130350000D03*
X179790000Y-130350000D03*
X179790000Y-82350000D03*
X109790000Y-82350000D03*
M02*
