G04 #@! TF.FileFunction,Paste,Bot*
%FSLAX46Y46*%
G04 Gerber Fmt 4.6, Leading zero omitted, Abs format (unit mm)*
G04 Created by KiCad (PCBNEW 4.0.7) date Wednesday, April 25, 2018 'PMt' 02:03:55 PM*
%MOMM*%
%LPD*%
G01*
G04 APERTURE LIST*
%ADD10C,0.100000*%
%ADD11R,1.950000X1.500000*%
%ADD12R,5.080000X2.420000*%
%ADD13R,0.750000X0.800000*%
%ADD14R,0.800000X0.750000*%
%ADD15R,0.800000X0.600000*%
%ADD16R,0.900000X0.800000*%
%ADD17R,0.500000X0.900000*%
%ADD18R,0.900000X0.500000*%
%ADD19R,0.250000X1.300000*%
%ADD20R,1.300000X0.250000*%
%ADD21R,2.200000X1.200000*%
%ADD22R,3.050000X2.750000*%
%ADD23R,1.400000X1.200000*%
%ADD24R,1.000000X1.800000*%
%ADD25R,3.800000X2.000000*%
%ADD26R,1.500000X2.000000*%
G04 APERTURE END LIST*
D10*
D11*
X152759000Y-108712000D03*
X150009000Y-108712000D03*
D12*
X100790000Y-119970000D03*
X100790000Y-128730000D03*
D13*
X163957000Y-81673000D03*
X163957000Y-83173000D03*
D14*
X165469000Y-80264000D03*
X163969000Y-80264000D03*
D13*
X156845000Y-81685000D03*
X156845000Y-83185000D03*
X158242000Y-81685000D03*
X158242000Y-83185000D03*
D14*
X157619000Y-87249000D03*
X159119000Y-87249000D03*
D13*
X166370000Y-83578000D03*
X166370000Y-85078000D03*
X160655000Y-99175000D03*
X160655000Y-97675000D03*
D14*
X172581000Y-96012000D03*
X171081000Y-96012000D03*
D13*
X126238000Y-111010000D03*
X126238000Y-112510000D03*
X132588000Y-81685000D03*
X132588000Y-83185000D03*
D14*
X129782000Y-100965000D03*
X128282000Y-100965000D03*
X129782000Y-92456000D03*
X128282000Y-92456000D03*
D15*
X131064000Y-81573000D03*
X131064000Y-83273000D03*
X135128000Y-81612000D03*
X135128000Y-83312000D03*
X137668000Y-89076000D03*
X137668000Y-87376000D03*
X137668000Y-81636500D03*
X137668000Y-83336500D03*
X141097000Y-99148000D03*
X141097000Y-97448000D03*
X137795000Y-99148000D03*
X137795000Y-97448000D03*
D16*
X130302000Y-97536000D03*
X130302000Y-99436000D03*
X128302000Y-98486000D03*
X130302000Y-93985000D03*
X130302000Y-95885000D03*
X128302000Y-94935000D03*
D17*
X164707000Y-84709000D03*
X163207000Y-84709000D03*
X172847000Y-84963000D03*
X171347000Y-84963000D03*
X172847000Y-86741000D03*
X171347000Y-86741000D03*
X172847000Y-88519000D03*
X171347000Y-88519000D03*
X172847000Y-90297000D03*
X171347000Y-90297000D03*
X172847000Y-92075000D03*
X171347000Y-92075000D03*
X123825000Y-114046000D03*
X125325000Y-114046000D03*
D18*
X124460000Y-112522000D03*
X124460000Y-111022000D03*
D17*
X124865000Y-107442000D03*
X126365000Y-107442000D03*
X127532000Y-106426000D03*
X129032000Y-106426000D03*
X130199000Y-105537000D03*
X131699000Y-105537000D03*
X127532000Y-104648000D03*
X129032000Y-104648000D03*
D18*
X139446000Y-97421000D03*
X139446000Y-98921000D03*
D17*
X133084000Y-97536000D03*
X131584000Y-97536000D03*
X133084000Y-93980000D03*
X131584000Y-93980000D03*
X112978500Y-90424000D03*
X114478500Y-90424000D03*
X106819000Y-91376500D03*
X108319000Y-91376500D03*
D19*
X162318000Y-87356000D03*
X162818000Y-87356000D03*
X163318000Y-87356000D03*
X163818000Y-87356000D03*
X164318000Y-87356000D03*
X164818000Y-87356000D03*
X165318000Y-87356000D03*
X165818000Y-87356000D03*
X166318000Y-87356000D03*
X166818000Y-87356000D03*
X167318000Y-87356000D03*
X167818000Y-87356000D03*
D20*
X169418000Y-88956000D03*
X169418000Y-89456000D03*
X169418000Y-89956000D03*
X169418000Y-90456000D03*
X169418000Y-90956000D03*
X169418000Y-91456000D03*
X169418000Y-91956000D03*
X169418000Y-92456000D03*
X169418000Y-92956000D03*
X169418000Y-93456000D03*
X169418000Y-93956000D03*
X169418000Y-94456000D03*
D19*
X167818000Y-96056000D03*
X167318000Y-96056000D03*
X166818000Y-96056000D03*
X166318000Y-96056000D03*
X165818000Y-96056000D03*
X165318000Y-96056000D03*
X164818000Y-96056000D03*
X164318000Y-96056000D03*
X163818000Y-96056000D03*
X163318000Y-96056000D03*
X162818000Y-96056000D03*
X162318000Y-96056000D03*
D20*
X160718000Y-94456000D03*
X160718000Y-93956000D03*
X160718000Y-93456000D03*
X160718000Y-92956000D03*
X160718000Y-92456000D03*
X160718000Y-91956000D03*
X160718000Y-91456000D03*
X160718000Y-90956000D03*
X160718000Y-90456000D03*
X160718000Y-89956000D03*
X160718000Y-89456000D03*
X160718000Y-88956000D03*
D21*
X174752000Y-105912000D03*
X174752000Y-101352000D03*
D22*
X182727000Y-102107000D03*
X179377000Y-105157000D03*
X182727000Y-105157000D03*
X179377000Y-102107000D03*
D23*
X160020000Y-81319000D03*
X162220000Y-81319000D03*
X162220000Y-83019000D03*
X160020000Y-83019000D03*
D24*
X156992000Y-85090000D03*
X159492000Y-85090000D03*
D25*
X152781000Y-111125000D03*
D26*
X152781000Y-117425000D03*
X150481000Y-117425000D03*
X155081000Y-117425000D03*
D25*
X144399000Y-111150000D03*
D26*
X144399000Y-117450000D03*
X142099000Y-117450000D03*
X146699000Y-117450000D03*
D11*
X142113000Y-121158000D03*
X144863000Y-121158000D03*
D14*
X143625000Y-119380000D03*
X142125000Y-119380000D03*
D11*
X150473000Y-121158000D03*
X147723000Y-121158000D03*
D14*
X148983000Y-119380000D03*
X150483000Y-119380000D03*
D11*
X144421000Y-108712000D03*
X147171000Y-108712000D03*
M02*
