M48
;DRILL file {KiCad 4.0.7} date Thursday, April 05, 2018 'PMt' 12:15:16 PM
;FORMAT={-:-/ absolute / inch / decimal}
FMAT,2
INCH,TZ
T1C0.016
T2C0.018
T3C0.020
T4C0.028
T5C0.033
T6C0.039
T7C0.043
T8C0.051
T9C0.055
T10C0.126
%
G90
G05
M72
T1
X3.9681Y-3.4783
X3.9681Y-3.6752
X3.9681Y-3.872
X4.005Y-4.1
X4.03Y-3.
X4.03Y-3.1
X4.03Y-3.2
X4.055Y-4.06
X4.09Y-3.98
X4.09Y-4.535
X4.09Y-4.58
X4.09Y-4.625
X4.12Y-4.15
X4.125Y-4.02
X4.13Y-4.535
X4.13Y-4.58
X4.13Y-4.625
X4.15Y-3.
X4.15Y-3.1
X4.15Y-3.2
X4.2831Y-2.5335
X4.2831Y-2.7303
X4.285Y-4.715
X4.285Y-4.76
X4.285Y-4.81
X4.285Y-4.85
X4.32Y-4.875
X4.3224Y-3.9114
X4.3224Y-4.0492
X4.3224Y-4.187
X4.3224Y-4.3248
X4.3224Y-4.4626
X4.355Y-4.905
X4.375Y-4.715
X4.38Y-3.54
X4.38Y-4.76
X4.39Y-4.935
X4.425Y-4.96
X4.425Y-5.005
X4.43Y-3.47
X4.435Y-4.775
X4.4602Y-3.9114
X4.4602Y-4.0492
X4.4602Y-4.187
X4.4602Y-4.3248
X4.4602Y-4.4626
X4.4799Y-2.5335
X4.4799Y-2.7303
X4.485Y-4.78
X4.51Y-4.96
X4.51Y-5.005
X4.53Y-4.765
X4.54Y-4.715
X4.55Y-2.87
X4.55Y-2.93
X4.55Y-4.935
X4.598Y-3.9114
X4.598Y-4.0492
X4.598Y-4.187
X4.598Y-4.3248
X4.598Y-4.4626
X4.6Y-4.935
X4.63Y-4.805
X4.645Y-4.845
X4.65Y-4.935
X4.6768Y-2.5335
X4.6768Y-2.7303
X4.6768Y-3.124
X4.685Y-4.725
X4.685Y-4.78
X4.69Y-4.845
X4.695Y-4.935
X4.74Y-4.845
X4.745Y-4.935
X4.78Y-4.89
X4.81Y-2.93
X4.83Y-3.88
X4.83Y-4.01
X4.83Y-4.12
X4.83Y-4.155
X4.83Y-4.19
X4.83Y-4.23
X4.83Y-4.49
X4.8736Y-2.5335
X4.8736Y-2.7303
X4.8736Y-3.124
X5.0705Y-2.5335
X5.0705Y-2.7303
X5.0705Y-2.9272
X5.0705Y-3.124
X5.0705Y-3.3209
X5.0705Y-3.5177
X5.0705Y-3.7146
X5.135Y-4.4
X5.135Y-4.5181
X5.135Y-4.6362
X5.2Y-3.95
X5.2137Y-4.4
X5.2137Y-4.5181
X5.2137Y-4.6362
X5.2673Y-2.5335
X5.2673Y-2.7303
X5.2673Y-2.9272
X5.2673Y-3.124
X5.2673Y-3.3209
X5.2925Y-4.4
X5.2925Y-4.5181
X5.2925Y-4.6362
X5.4642Y-2.5335
X5.4642Y-2.7303
X5.4642Y-2.9272
X5.4642Y-3.124
X5.4642Y-3.3209
X5.4642Y-3.7146
X5.661Y-2.5335
X5.661Y-2.7303
X5.661Y-2.9272
X5.661Y-3.124
X5.661Y-3.3209
X5.661Y-3.5177
X5.8579Y-2.5335
X5.8579Y-2.7303
X5.8579Y-3.3209
X5.905Y-3.635
X5.905Y-3.7137
X5.905Y-3.7925
X5.97Y-2.91
X6.0231Y-3.635
X6.0231Y-3.7137
X6.0231Y-3.7925
X6.09Y-4.2
X6.1Y-3.08
X6.1Y-3.15
X6.1017Y-2.8617
X6.14Y-4.2
X6.1412Y-3.635
X6.1412Y-3.7137
X6.1412Y-3.7925
X6.19Y-4.2
X6.235Y-4.2
X6.26Y-3.07
X6.3Y-4.62
X6.3Y-4.81
X6.3398Y-2.8498
X6.34Y-2.97
X6.39Y-3.28
X6.4Y-3.96
X6.4Y-4.04
X6.4Y-4.12
X6.4125Y-2.6525
X6.47Y-3.96
X6.47Y-4.04
X6.47Y-4.12
X6.51Y-3.15
X6.54Y-3.96
X6.54Y-4.04
X6.54Y-4.12
X6.6Y-2.9602
X6.6Y-3.28
X6.84Y-2.7
X6.84Y-2.77
X6.84Y-2.84
X6.84Y-2.91
X6.84Y-2.98
X6.9Y-4.825
X6.95Y-3.09
X7.04Y-3.09
X7.07Y-3.69
X7.1Y-4.15
X7.1Y-4.3469
X7.1Y-4.5437
X7.1Y-4.825
X7.12Y-2.93
X7.21Y-3.81
X7.3Y-4.825
T2
X4.2951Y-5.0021
X4.64Y-5.0021
T3
X3.913Y-2.5728
X3.913Y-5.0932
X3.9407Y-2.506
X3.9407Y-2.6396
X3.9407Y-5.0264
X3.9407Y-5.16
X4.0075Y-2.4783
X4.0075Y-2.6673
X4.0075Y-4.9987
X4.0075Y-5.1877
X4.0743Y-2.506
X4.0743Y-2.6396
X4.0743Y-5.0264
X4.0743Y-5.16
X4.102Y-2.5728
X4.102Y-5.0932
X7.535Y-2.5728
X7.5355Y-5.0925
X7.5627Y-2.506
X7.5627Y-2.6396
X7.5632Y-5.0257
X7.5632Y-5.1593
X7.6295Y-2.4783
X7.6295Y-2.6673
X7.63Y-4.998
X7.63Y-5.187
X7.6963Y-2.506
X7.6963Y-2.6396
X7.6968Y-5.0257
X7.6968Y-5.1593
X7.724Y-2.5728
X7.7245Y-5.0925
T4
X4.7201Y-3.3484
X4.7516Y-3.2461
X4.7831Y-3.3484
X4.8146Y-3.2461
X4.8461Y-3.3484
T6
X5.88Y-2.94
X5.88Y-3.04
X6.8618Y-4.1177
X7.29Y-2.93
X7.3343Y-4.1177
X7.39Y-2.93
X7.49Y-2.93
X7.49Y-3.13
X7.49Y-3.23
X7.49Y-3.33
X7.49Y-3.43
X7.49Y-3.53
T7
X6.7025Y-2.5525
X7.1025Y-2.5525
T8
X6.8618Y-4.598
X7.1Y-4.0409
X7.3362Y-4.6
T9
X5.9Y-4.985
X6.1Y-4.985
X6.3Y-4.985
X6.5Y-4.985
X6.7Y-4.985
X6.9Y-4.985
X7.1Y-4.985
X7.3Y-4.985
T10
X4.0075Y-2.5728
X4.0075Y-5.0932
X7.6295Y-2.5728
X7.63Y-5.0925
T5
X4.6394Y-3.2667G85X4.6394Y-3.3278
G05
X4.9268Y-3.2667G85X4.9268Y-3.3278
G05
T0
M30
