G04 #@! TF.FileFunction,Legend,Bot*
%FSLAX46Y46*%
G04 Gerber Fmt 4.6, Leading zero omitted, Abs format (unit mm)*
G04 Created by KiCad (PCBNEW 4.0.7) date Thursday, April 05, 2018 'PMt' 12:15:07 PM*
%MOMM*%
%LPD*%
G01*
G04 APERTURE LIST*
%ADD10C,0.100000*%
%ADD11C,0.120000*%
%ADD12C,0.150000*%
G04 APERTURE END LIST*
D10*
D11*
X169148000Y-113415000D02*
X167148000Y-113415000D01*
X167148000Y-111375000D02*
X169148000Y-111375000D01*
X154340000Y-65436000D02*
X154340000Y-66136000D01*
X155540000Y-66136000D02*
X155540000Y-65436000D01*
X161132000Y-64170000D02*
X160432000Y-64170000D01*
X160432000Y-65370000D02*
X161132000Y-65370000D01*
X151292000Y-65436000D02*
X151292000Y-66136000D01*
X152492000Y-66136000D02*
X152492000Y-65436000D01*
X152816000Y-65436000D02*
X152816000Y-66136000D01*
X154016000Y-66136000D02*
X154016000Y-65436000D01*
X152812000Y-73244000D02*
X153512000Y-73244000D01*
X153512000Y-72044000D02*
X152812000Y-72044000D01*
X152800000Y-71720000D02*
X153500000Y-71720000D01*
X153500000Y-70520000D02*
X152800000Y-70520000D01*
X161452000Y-66960000D02*
X161452000Y-67660000D01*
X162652000Y-67660000D02*
X162652000Y-66960000D01*
X152812000Y-81753000D02*
X153512000Y-81753000D01*
X153512000Y-80553000D02*
X152812000Y-80553000D01*
X168371000Y-79410000D02*
X167671000Y-79410000D01*
X167671000Y-80610000D02*
X168371000Y-80610000D01*
X125638000Y-111410000D02*
X125638000Y-112110000D01*
X126838000Y-112110000D02*
X126838000Y-111410000D01*
X99218000Y-83404000D02*
X99918000Y-83404000D01*
X99918000Y-82204000D02*
X99218000Y-82204000D01*
X132938000Y-95158000D02*
X132238000Y-95158000D01*
X132238000Y-96358000D02*
X132938000Y-96358000D01*
X135478000Y-86395000D02*
X134778000Y-86395000D01*
X134778000Y-87595000D02*
X135478000Y-87595000D01*
X98268000Y-81850000D02*
X98268000Y-80710000D01*
X98268000Y-80710000D02*
X100368000Y-80710000D01*
X98268000Y-81850000D02*
X100368000Y-81850000D01*
X98268000Y-79310000D02*
X98268000Y-78170000D01*
X98268000Y-78170000D02*
X100368000Y-78170000D01*
X98268000Y-79310000D02*
X100368000Y-79310000D01*
X108742000Y-75630000D02*
X108742000Y-76770000D01*
X108742000Y-76770000D02*
X106642000Y-76770000D01*
X108742000Y-75630000D02*
X106642000Y-75630000D01*
X98268000Y-76770000D02*
X98268000Y-75630000D01*
X98268000Y-75630000D02*
X100368000Y-75630000D01*
X98268000Y-76770000D02*
X100368000Y-76770000D01*
X119410000Y-72328000D02*
X119410000Y-73468000D01*
X119410000Y-73468000D02*
X117310000Y-73468000D01*
X119410000Y-72328000D02*
X117310000Y-72328000D01*
X119410000Y-75376000D02*
X119410000Y-76516000D01*
X119410000Y-76516000D02*
X117310000Y-76516000D01*
X119410000Y-75376000D02*
X117310000Y-75376000D01*
X132066000Y-94798000D02*
X132066000Y-93868000D01*
X132066000Y-91638000D02*
X132066000Y-92568000D01*
X132066000Y-91638000D02*
X134226000Y-91638000D01*
X132066000Y-94798000D02*
X133526000Y-94798000D01*
X134511000Y-91176000D02*
X134511000Y-90246000D01*
X134511000Y-88016000D02*
X134511000Y-88946000D01*
X134511000Y-88016000D02*
X136671000Y-88016000D01*
X134511000Y-91176000D02*
X135971000Y-91176000D01*
X159393000Y-69514000D02*
X160393000Y-69514000D01*
X160393000Y-68154000D02*
X159393000Y-68154000D01*
X171470000Y-69260000D02*
X172470000Y-69260000D01*
X172470000Y-67900000D02*
X171470000Y-67900000D01*
X171470000Y-71038000D02*
X172470000Y-71038000D01*
X172470000Y-69678000D02*
X171470000Y-69678000D01*
X171470000Y-72816000D02*
X172470000Y-72816000D01*
X172470000Y-71456000D02*
X171470000Y-71456000D01*
X171470000Y-74594000D02*
X172470000Y-74594000D01*
X172470000Y-73234000D02*
X171470000Y-73234000D01*
X171470000Y-76372000D02*
X172470000Y-76372000D01*
X172470000Y-75012000D02*
X171470000Y-75012000D01*
X125075000Y-113366000D02*
X124075000Y-113366000D01*
X124075000Y-114726000D02*
X125075000Y-114726000D01*
X123780000Y-111272000D02*
X123780000Y-112272000D01*
X125140000Y-112272000D02*
X125140000Y-111272000D01*
X126115000Y-106762000D02*
X125115000Y-106762000D01*
X125115000Y-108122000D02*
X126115000Y-108122000D01*
X128782000Y-105746000D02*
X127782000Y-105746000D01*
X127782000Y-107106000D02*
X128782000Y-107106000D01*
X131449000Y-104857000D02*
X130449000Y-104857000D01*
X130449000Y-106217000D02*
X131449000Y-106217000D01*
X128782000Y-103968000D02*
X127782000Y-103968000D01*
X127782000Y-105328000D02*
X128782000Y-105328000D01*
X118622000Y-73742000D02*
X117622000Y-73742000D01*
X117622000Y-75102000D02*
X118622000Y-75102000D01*
X136418000Y-92882000D02*
X137418000Y-92882000D01*
X137418000Y-91522000D02*
X136418000Y-91522000D01*
X138819000Y-89326000D02*
X139819000Y-89326000D01*
X139819000Y-87966000D02*
X138819000Y-87966000D01*
X116086000Y-90596000D02*
X117086000Y-90596000D01*
X117086000Y-89236000D02*
X116086000Y-89236000D01*
X116250000Y-87876000D02*
X116250000Y-86876000D01*
X114890000Y-86876000D02*
X114890000Y-87876000D01*
D12*
X157157000Y-71813000D02*
X157607000Y-71813000D01*
X157157000Y-79063000D02*
X157682000Y-79063000D01*
X164407000Y-79063000D02*
X163882000Y-79063000D01*
X164407000Y-71813000D02*
X163882000Y-71813000D01*
X157157000Y-71813000D02*
X157157000Y-72338000D01*
X164407000Y-71813000D02*
X164407000Y-72338000D01*
X164407000Y-79063000D02*
X164407000Y-78538000D01*
X157157000Y-79063000D02*
X157157000Y-78538000D01*
X157607000Y-71813000D02*
X157607000Y-70438000D01*
D11*
X167787000Y-105736000D02*
X167787000Y-107236000D01*
X167787000Y-107236000D02*
X167517000Y-107236000D01*
X167517000Y-107236000D02*
X167517000Y-110066000D01*
X160887000Y-105736000D02*
X160887000Y-107236000D01*
X160887000Y-107236000D02*
X161157000Y-107236000D01*
X161157000Y-107236000D02*
X161157000Y-108336000D01*
X155830000Y-63786000D02*
X159130000Y-63786000D01*
X159130000Y-63786000D02*
X159130000Y-67786000D01*
X154091000Y-69455000D02*
X152741000Y-69455000D01*
X154091000Y-67705000D02*
X152741000Y-67705000D01*
X167292000Y-86888000D02*
X168552000Y-86888000D01*
X174112000Y-86888000D02*
X172852000Y-86888000D01*
X167292000Y-90648000D02*
X167292000Y-86888000D01*
X174112000Y-92898000D02*
X174112000Y-86888000D01*
X158896000Y-86888000D02*
X160156000Y-86888000D01*
X165716000Y-86888000D02*
X164456000Y-86888000D01*
X158896000Y-90648000D02*
X158896000Y-86888000D01*
X165716000Y-92898000D02*
X165716000Y-86888000D01*
X160638000Y-108932000D02*
X156388000Y-108932000D01*
X160638000Y-111032000D02*
X156388000Y-111032000D01*
X160638000Y-108932000D02*
X160638000Y-111032000D01*
X160164000Y-97443000D02*
X164414000Y-97443000D01*
X160164000Y-95343000D02*
X164414000Y-95343000D01*
X160164000Y-97443000D02*
X160164000Y-95343000D01*
X162021000Y-93761000D02*
X161321000Y-93761000D01*
X161321000Y-94961000D02*
X162021000Y-94961000D01*
X168546000Y-97443000D02*
X172796000Y-97443000D01*
X168546000Y-95343000D02*
X172796000Y-95343000D01*
X168546000Y-97443000D02*
X168546000Y-95343000D01*
X170403000Y-93761000D02*
X169703000Y-93761000D01*
X169703000Y-94961000D02*
X170403000Y-94961000D01*
X123382000Y-101854000D02*
G75*
G03X123382000Y-101854000I-700000J0D01*
G01*
X123382000Y-98552000D02*
G75*
G03X123382000Y-98552000I-700000J0D01*
G01*
X123382000Y-114046000D02*
G75*
G03X123382000Y-114046000I-700000J0D01*
G01*
X124664000Y-104648000D02*
G75*
G03X124664000Y-104648000I-700000J0D01*
G01*
X126557000Y-105537000D02*
G75*
G03X126557000Y-105537000I-700000J0D01*
G01*
X174972000Y-84472000D02*
X174972000Y-88722000D01*
X177072000Y-84472000D02*
X177072000Y-88722000D01*
X174972000Y-84472000D02*
X177072000Y-84472000D01*
X155922000Y-84472000D02*
X155922000Y-88722000D01*
X158022000Y-84472000D02*
X158022000Y-88722000D01*
X155922000Y-84472000D02*
X158022000Y-84472000D01*
X183255000Y-98424000D02*
X187805000Y-98424000D01*
X183255000Y-95124000D02*
X187805000Y-95124000D01*
X183255000Y-98424000D02*
X183255000Y-95124000D01*
D12*
X168790857Y-114657143D02*
X168838476Y-114704762D01*
X168981333Y-114752381D01*
X169076571Y-114752381D01*
X169219429Y-114704762D01*
X169314667Y-114609524D01*
X169362286Y-114514286D01*
X169409905Y-114323810D01*
X169409905Y-114180952D01*
X169362286Y-113990476D01*
X169314667Y-113895238D01*
X169219429Y-113800000D01*
X169076571Y-113752381D01*
X168981333Y-113752381D01*
X168838476Y-113800000D01*
X168790857Y-113847619D01*
X168457524Y-113752381D02*
X167838476Y-113752381D01*
X168171810Y-114133333D01*
X168028952Y-114133333D01*
X167933714Y-114180952D01*
X167886095Y-114228571D01*
X167838476Y-114323810D01*
X167838476Y-114561905D01*
X167886095Y-114657143D01*
X167933714Y-114704762D01*
X168028952Y-114752381D01*
X168314667Y-114752381D01*
X168409905Y-114704762D01*
X168457524Y-114657143D01*
X166981333Y-113752381D02*
X167171810Y-113752381D01*
X167267048Y-113800000D01*
X167314667Y-113847619D01*
X167409905Y-113990476D01*
X167457524Y-114180952D01*
X167457524Y-114561905D01*
X167409905Y-114657143D01*
X167362286Y-114704762D01*
X167267048Y-114752381D01*
X167076571Y-114752381D01*
X166981333Y-114704762D01*
X166933714Y-114657143D01*
X166886095Y-114561905D01*
X166886095Y-114323810D01*
X166933714Y-114228571D01*
X166981333Y-114180952D01*
X167076571Y-114133333D01*
X167267048Y-114133333D01*
X167362286Y-114180952D01*
X167409905Y-114228571D01*
X167457524Y-114323810D01*
X155297143Y-63079334D02*
X155344762Y-63031715D01*
X155392381Y-62888858D01*
X155392381Y-62793620D01*
X155344762Y-62650762D01*
X155249524Y-62555524D01*
X155154286Y-62507905D01*
X154963810Y-62460286D01*
X154820952Y-62460286D01*
X154630476Y-62507905D01*
X154535238Y-62555524D01*
X154440000Y-62650762D01*
X154392381Y-62793620D01*
X154392381Y-62888858D01*
X154440000Y-63031715D01*
X154487619Y-63079334D01*
X154487619Y-63460286D02*
X154440000Y-63507905D01*
X154392381Y-63603143D01*
X154392381Y-63841239D01*
X154440000Y-63936477D01*
X154487619Y-63984096D01*
X154582857Y-64031715D01*
X154678095Y-64031715D01*
X154820952Y-63984096D01*
X155392381Y-63412667D01*
X155392381Y-64031715D01*
X160948666Y-63857143D02*
X160996285Y-63904762D01*
X161139142Y-63952381D01*
X161234380Y-63952381D01*
X161377238Y-63904762D01*
X161472476Y-63809524D01*
X161520095Y-63714286D01*
X161567714Y-63523810D01*
X161567714Y-63380952D01*
X161520095Y-63190476D01*
X161472476Y-63095238D01*
X161377238Y-63000000D01*
X161234380Y-62952381D01*
X161139142Y-62952381D01*
X160996285Y-63000000D01*
X160948666Y-63047619D01*
X160615333Y-62952381D02*
X159996285Y-62952381D01*
X160329619Y-63333333D01*
X160186761Y-63333333D01*
X160091523Y-63380952D01*
X160043904Y-63428571D01*
X159996285Y-63523810D01*
X159996285Y-63761905D01*
X160043904Y-63857143D01*
X160091523Y-63904762D01*
X160186761Y-63952381D01*
X160472476Y-63952381D01*
X160567714Y-63904762D01*
X160615333Y-63857143D01*
X152249143Y-63079334D02*
X152296762Y-63031715D01*
X152344381Y-62888858D01*
X152344381Y-62793620D01*
X152296762Y-62650762D01*
X152201524Y-62555524D01*
X152106286Y-62507905D01*
X151915810Y-62460286D01*
X151772952Y-62460286D01*
X151582476Y-62507905D01*
X151487238Y-62555524D01*
X151392000Y-62650762D01*
X151344381Y-62793620D01*
X151344381Y-62888858D01*
X151392000Y-63031715D01*
X151439619Y-63079334D01*
X151677714Y-63936477D02*
X152344381Y-63936477D01*
X151296762Y-63698381D02*
X152011048Y-63460286D01*
X152011048Y-64079334D01*
X153773143Y-63079334D02*
X153820762Y-63031715D01*
X153868381Y-62888858D01*
X153868381Y-62793620D01*
X153820762Y-62650762D01*
X153725524Y-62555524D01*
X153630286Y-62507905D01*
X153439810Y-62460286D01*
X153296952Y-62460286D01*
X153106476Y-62507905D01*
X153011238Y-62555524D01*
X152916000Y-62650762D01*
X152868381Y-62793620D01*
X152868381Y-62888858D01*
X152916000Y-63031715D01*
X152963619Y-63079334D01*
X152868381Y-63984096D02*
X152868381Y-63507905D01*
X153344571Y-63460286D01*
X153296952Y-63507905D01*
X153249333Y-63603143D01*
X153249333Y-63841239D01*
X153296952Y-63936477D01*
X153344571Y-63984096D01*
X153439810Y-64031715D01*
X153677905Y-64031715D01*
X153773143Y-63984096D01*
X153820762Y-63936477D01*
X153868381Y-63841239D01*
X153868381Y-63603143D01*
X153820762Y-63507905D01*
X153773143Y-63460286D01*
X150788666Y-73001143D02*
X150836285Y-73048762D01*
X150979142Y-73096381D01*
X151074380Y-73096381D01*
X151217238Y-73048762D01*
X151312476Y-72953524D01*
X151360095Y-72858286D01*
X151407714Y-72667810D01*
X151407714Y-72524952D01*
X151360095Y-72334476D01*
X151312476Y-72239238D01*
X151217238Y-72144000D01*
X151074380Y-72096381D01*
X150979142Y-72096381D01*
X150836285Y-72144000D01*
X150788666Y-72191619D01*
X150455333Y-72096381D02*
X149788666Y-72096381D01*
X150217238Y-73096381D01*
X150788666Y-71477143D02*
X150836285Y-71524762D01*
X150979142Y-71572381D01*
X151074380Y-71572381D01*
X151217238Y-71524762D01*
X151312476Y-71429524D01*
X151360095Y-71334286D01*
X151407714Y-71143810D01*
X151407714Y-71000952D01*
X151360095Y-70810476D01*
X151312476Y-70715238D01*
X151217238Y-70620000D01*
X151074380Y-70572381D01*
X150979142Y-70572381D01*
X150836285Y-70620000D01*
X150788666Y-70667619D01*
X150217238Y-71000952D02*
X150312476Y-70953333D01*
X150360095Y-70905714D01*
X150407714Y-70810476D01*
X150407714Y-70762857D01*
X150360095Y-70667619D01*
X150312476Y-70620000D01*
X150217238Y-70572381D01*
X150026761Y-70572381D01*
X149931523Y-70620000D01*
X149883904Y-70667619D01*
X149836285Y-70762857D01*
X149836285Y-70810476D01*
X149883904Y-70905714D01*
X149931523Y-70953333D01*
X150026761Y-71000952D01*
X150217238Y-71000952D01*
X150312476Y-71048571D01*
X150360095Y-71096190D01*
X150407714Y-71191429D01*
X150407714Y-71381905D01*
X150360095Y-71477143D01*
X150312476Y-71524762D01*
X150217238Y-71572381D01*
X150026761Y-71572381D01*
X149931523Y-71524762D01*
X149883904Y-71477143D01*
X149836285Y-71381905D01*
X149836285Y-71191429D01*
X149883904Y-71096190D01*
X149931523Y-71048571D01*
X150026761Y-71000952D01*
X162409143Y-69695334D02*
X162456762Y-69647715D01*
X162504381Y-69504858D01*
X162504381Y-69409620D01*
X162456762Y-69266762D01*
X162361524Y-69171524D01*
X162266286Y-69123905D01*
X162075810Y-69076286D01*
X161932952Y-69076286D01*
X161742476Y-69123905D01*
X161647238Y-69171524D01*
X161552000Y-69266762D01*
X161504381Y-69409620D01*
X161504381Y-69504858D01*
X161552000Y-69647715D01*
X161599619Y-69695334D01*
X162504381Y-70171524D02*
X162504381Y-70362000D01*
X162456762Y-70457239D01*
X162409143Y-70504858D01*
X162266286Y-70600096D01*
X162075810Y-70647715D01*
X161694857Y-70647715D01*
X161599619Y-70600096D01*
X161552000Y-70552477D01*
X161504381Y-70457239D01*
X161504381Y-70266762D01*
X161552000Y-70171524D01*
X161599619Y-70123905D01*
X161694857Y-70076286D01*
X161932952Y-70076286D01*
X162028190Y-70123905D01*
X162075810Y-70171524D01*
X162123429Y-70266762D01*
X162123429Y-70457239D01*
X162075810Y-70552477D01*
X162028190Y-70600096D01*
X161932952Y-70647715D01*
X153804857Y-83034143D02*
X153852476Y-83081762D01*
X153995333Y-83129381D01*
X154090571Y-83129381D01*
X154233429Y-83081762D01*
X154328667Y-82986524D01*
X154376286Y-82891286D01*
X154423905Y-82700810D01*
X154423905Y-82557952D01*
X154376286Y-82367476D01*
X154328667Y-82272238D01*
X154233429Y-82177000D01*
X154090571Y-82129381D01*
X153995333Y-82129381D01*
X153852476Y-82177000D01*
X153804857Y-82224619D01*
X152852476Y-83129381D02*
X153423905Y-83129381D01*
X153138191Y-83129381D02*
X153138191Y-82129381D01*
X153233429Y-82272238D01*
X153328667Y-82367476D01*
X153423905Y-82415095D01*
X152233429Y-82129381D02*
X152138190Y-82129381D01*
X152042952Y-82177000D01*
X151995333Y-82224619D01*
X151947714Y-82319857D01*
X151900095Y-82510333D01*
X151900095Y-82748429D01*
X151947714Y-82938905D01*
X151995333Y-83034143D01*
X152042952Y-83081762D01*
X152138190Y-83129381D01*
X152233429Y-83129381D01*
X152328667Y-83081762D01*
X152376286Y-83034143D01*
X152423905Y-82938905D01*
X152471524Y-82748429D01*
X152471524Y-82510333D01*
X152423905Y-82319857D01*
X152376286Y-82224619D01*
X152328667Y-82177000D01*
X152233429Y-82129381D01*
X168663857Y-81867143D02*
X168711476Y-81914762D01*
X168854333Y-81962381D01*
X168949571Y-81962381D01*
X169092429Y-81914762D01*
X169187667Y-81819524D01*
X169235286Y-81724286D01*
X169282905Y-81533810D01*
X169282905Y-81390952D01*
X169235286Y-81200476D01*
X169187667Y-81105238D01*
X169092429Y-81010000D01*
X168949571Y-80962381D01*
X168854333Y-80962381D01*
X168711476Y-81010000D01*
X168663857Y-81057619D01*
X167711476Y-81962381D02*
X168282905Y-81962381D01*
X167997191Y-81962381D02*
X167997191Y-80962381D01*
X168092429Y-81105238D01*
X168187667Y-81200476D01*
X168282905Y-81248095D01*
X166759095Y-81962381D02*
X167330524Y-81962381D01*
X167044810Y-81962381D02*
X167044810Y-80962381D01*
X167140048Y-81105238D01*
X167235286Y-81200476D01*
X167330524Y-81248095D01*
X128095143Y-111117143D02*
X128142762Y-111069524D01*
X128190381Y-110926667D01*
X128190381Y-110831429D01*
X128142762Y-110688571D01*
X128047524Y-110593333D01*
X127952286Y-110545714D01*
X127761810Y-110498095D01*
X127618952Y-110498095D01*
X127428476Y-110545714D01*
X127333238Y-110593333D01*
X127238000Y-110688571D01*
X127190381Y-110831429D01*
X127190381Y-110926667D01*
X127238000Y-111069524D01*
X127285619Y-111117143D01*
X127285619Y-111498095D02*
X127238000Y-111545714D01*
X127190381Y-111640952D01*
X127190381Y-111879048D01*
X127238000Y-111974286D01*
X127285619Y-112021905D01*
X127380857Y-112069524D01*
X127476095Y-112069524D01*
X127618952Y-112021905D01*
X128190381Y-111450476D01*
X128190381Y-112069524D01*
X127190381Y-112688571D02*
X127190381Y-112783810D01*
X127238000Y-112879048D01*
X127285619Y-112926667D01*
X127380857Y-112974286D01*
X127571333Y-113021905D01*
X127809429Y-113021905D01*
X127999905Y-112974286D01*
X128095143Y-112926667D01*
X128142762Y-112879048D01*
X128190381Y-112783810D01*
X128190381Y-112688571D01*
X128142762Y-112593333D01*
X128095143Y-112545714D01*
X127999905Y-112498095D01*
X127809429Y-112450476D01*
X127571333Y-112450476D01*
X127380857Y-112498095D01*
X127285619Y-112545714D01*
X127238000Y-112593333D01*
X127190381Y-112688571D01*
X102623857Y-83161143D02*
X102671476Y-83208762D01*
X102814333Y-83256381D01*
X102909571Y-83256381D01*
X103052429Y-83208762D01*
X103147667Y-83113524D01*
X103195286Y-83018286D01*
X103242905Y-82827810D01*
X103242905Y-82684952D01*
X103195286Y-82494476D01*
X103147667Y-82399238D01*
X103052429Y-82304000D01*
X102909571Y-82256381D01*
X102814333Y-82256381D01*
X102671476Y-82304000D01*
X102623857Y-82351619D01*
X102242905Y-82351619D02*
X102195286Y-82304000D01*
X102100048Y-82256381D01*
X101861952Y-82256381D01*
X101766714Y-82304000D01*
X101719095Y-82351619D01*
X101671476Y-82446857D01*
X101671476Y-82542095D01*
X101719095Y-82684952D01*
X102290524Y-83256381D01*
X101671476Y-83256381D01*
X100719095Y-83256381D02*
X101290524Y-83256381D01*
X101004810Y-83256381D02*
X101004810Y-82256381D01*
X101100048Y-82399238D01*
X101195286Y-82494476D01*
X101290524Y-82542095D01*
X133230857Y-97615143D02*
X133278476Y-97662762D01*
X133421333Y-97710381D01*
X133516571Y-97710381D01*
X133659429Y-97662762D01*
X133754667Y-97567524D01*
X133802286Y-97472286D01*
X133849905Y-97281810D01*
X133849905Y-97138952D01*
X133802286Y-96948476D01*
X133754667Y-96853238D01*
X133659429Y-96758000D01*
X133516571Y-96710381D01*
X133421333Y-96710381D01*
X133278476Y-96758000D01*
X133230857Y-96805619D01*
X132849905Y-96805619D02*
X132802286Y-96758000D01*
X132707048Y-96710381D01*
X132468952Y-96710381D01*
X132373714Y-96758000D01*
X132326095Y-96805619D01*
X132278476Y-96900857D01*
X132278476Y-96996095D01*
X132326095Y-97138952D01*
X132897524Y-97710381D01*
X132278476Y-97710381D01*
X131421333Y-96710381D02*
X131611810Y-96710381D01*
X131707048Y-96758000D01*
X131754667Y-96805619D01*
X131849905Y-96948476D01*
X131897524Y-97138952D01*
X131897524Y-97519905D01*
X131849905Y-97615143D01*
X131802286Y-97662762D01*
X131707048Y-97710381D01*
X131516571Y-97710381D01*
X131421333Y-97662762D01*
X131373714Y-97615143D01*
X131326095Y-97519905D01*
X131326095Y-97281810D01*
X131373714Y-97186571D01*
X131421333Y-97138952D01*
X131516571Y-97091333D01*
X131707048Y-97091333D01*
X131802286Y-97138952D01*
X131849905Y-97186571D01*
X131897524Y-97281810D01*
X135770857Y-85828143D02*
X135818476Y-85875762D01*
X135961333Y-85923381D01*
X136056571Y-85923381D01*
X136199429Y-85875762D01*
X136294667Y-85780524D01*
X136342286Y-85685286D01*
X136389905Y-85494810D01*
X136389905Y-85351952D01*
X136342286Y-85161476D01*
X136294667Y-85066238D01*
X136199429Y-84971000D01*
X136056571Y-84923381D01*
X135961333Y-84923381D01*
X135818476Y-84971000D01*
X135770857Y-85018619D01*
X135389905Y-85018619D02*
X135342286Y-84971000D01*
X135247048Y-84923381D01*
X135008952Y-84923381D01*
X134913714Y-84971000D01*
X134866095Y-85018619D01*
X134818476Y-85113857D01*
X134818476Y-85209095D01*
X134866095Y-85351952D01*
X135437524Y-85923381D01*
X134818476Y-85923381D01*
X134485143Y-84923381D02*
X133818476Y-84923381D01*
X134247048Y-85923381D01*
X101576095Y-80589381D02*
X101576095Y-79589381D01*
X101338000Y-79589381D01*
X101195142Y-79637000D01*
X101099904Y-79732238D01*
X101052285Y-79827476D01*
X101004666Y-80017952D01*
X101004666Y-80160810D01*
X101052285Y-80351286D01*
X101099904Y-80446524D01*
X101195142Y-80541762D01*
X101338000Y-80589381D01*
X101576095Y-80589381D01*
X100671333Y-79589381D02*
X100004666Y-79589381D01*
X100433238Y-80589381D01*
X101576095Y-77922381D02*
X101576095Y-76922381D01*
X101338000Y-76922381D01*
X101195142Y-76970000D01*
X101099904Y-77065238D01*
X101052285Y-77160476D01*
X101004666Y-77350952D01*
X101004666Y-77493810D01*
X101052285Y-77684286D01*
X101099904Y-77779524D01*
X101195142Y-77874762D01*
X101338000Y-77922381D01*
X101576095Y-77922381D01*
X100433238Y-77350952D02*
X100528476Y-77303333D01*
X100576095Y-77255714D01*
X100623714Y-77160476D01*
X100623714Y-77112857D01*
X100576095Y-77017619D01*
X100528476Y-76970000D01*
X100433238Y-76922381D01*
X100242761Y-76922381D01*
X100147523Y-76970000D01*
X100099904Y-77017619D01*
X100052285Y-77112857D01*
X100052285Y-77160476D01*
X100099904Y-77255714D01*
X100147523Y-77303333D01*
X100242761Y-77350952D01*
X100433238Y-77350952D01*
X100528476Y-77398571D01*
X100576095Y-77446190D01*
X100623714Y-77541429D01*
X100623714Y-77731905D01*
X100576095Y-77827143D01*
X100528476Y-77874762D01*
X100433238Y-77922381D01*
X100242761Y-77922381D01*
X100147523Y-77874762D01*
X100099904Y-77827143D01*
X100052285Y-77731905D01*
X100052285Y-77541429D01*
X100099904Y-77446190D01*
X100147523Y-77398571D01*
X100242761Y-77350952D01*
X109704095Y-75382381D02*
X109704095Y-74382381D01*
X109466000Y-74382381D01*
X109323142Y-74430000D01*
X109227904Y-74525238D01*
X109180285Y-74620476D01*
X109132666Y-74810952D01*
X109132666Y-74953810D01*
X109180285Y-75144286D01*
X109227904Y-75239524D01*
X109323142Y-75334762D01*
X109466000Y-75382381D01*
X109704095Y-75382381D01*
X108656476Y-75382381D02*
X108466000Y-75382381D01*
X108370761Y-75334762D01*
X108323142Y-75287143D01*
X108227904Y-75144286D01*
X108180285Y-74953810D01*
X108180285Y-74572857D01*
X108227904Y-74477619D01*
X108275523Y-74430000D01*
X108370761Y-74382381D01*
X108561238Y-74382381D01*
X108656476Y-74430000D01*
X108704095Y-74477619D01*
X108751714Y-74572857D01*
X108751714Y-74810952D01*
X108704095Y-74906190D01*
X108656476Y-74953810D01*
X108561238Y-75001429D01*
X108370761Y-75001429D01*
X108275523Y-74953810D01*
X108227904Y-74906190D01*
X108180285Y-74810952D01*
X101544286Y-75382381D02*
X101544286Y-74382381D01*
X101306191Y-74382381D01*
X101163333Y-74430000D01*
X101068095Y-74525238D01*
X101020476Y-74620476D01*
X100972857Y-74810952D01*
X100972857Y-74953810D01*
X101020476Y-75144286D01*
X101068095Y-75239524D01*
X101163333Y-75334762D01*
X101306191Y-75382381D01*
X101544286Y-75382381D01*
X100020476Y-75382381D02*
X100591905Y-75382381D01*
X100306191Y-75382381D02*
X100306191Y-74382381D01*
X100401429Y-74525238D01*
X100496667Y-74620476D01*
X100591905Y-74668095D01*
X99401429Y-74382381D02*
X99306190Y-74382381D01*
X99210952Y-74430000D01*
X99163333Y-74477619D01*
X99115714Y-74572857D01*
X99068095Y-74763333D01*
X99068095Y-75001429D01*
X99115714Y-75191905D01*
X99163333Y-75287143D01*
X99210952Y-75334762D01*
X99306190Y-75382381D01*
X99401429Y-75382381D01*
X99496667Y-75334762D01*
X99544286Y-75287143D01*
X99591905Y-75191905D01*
X99639524Y-75001429D01*
X99639524Y-74763333D01*
X99591905Y-74572857D01*
X99544286Y-74477619D01*
X99496667Y-74430000D01*
X99401429Y-74382381D01*
X122372286Y-73350381D02*
X122372286Y-72350381D01*
X122134191Y-72350381D01*
X121991333Y-72398000D01*
X121896095Y-72493238D01*
X121848476Y-72588476D01*
X121800857Y-72778952D01*
X121800857Y-72921810D01*
X121848476Y-73112286D01*
X121896095Y-73207524D01*
X121991333Y-73302762D01*
X122134191Y-73350381D01*
X122372286Y-73350381D01*
X120848476Y-73350381D02*
X121419905Y-73350381D01*
X121134191Y-73350381D02*
X121134191Y-72350381D01*
X121229429Y-72493238D01*
X121324667Y-72588476D01*
X121419905Y-72636095D01*
X119896095Y-73350381D02*
X120467524Y-73350381D01*
X120181810Y-73350381D02*
X120181810Y-72350381D01*
X120277048Y-72493238D01*
X120372286Y-72588476D01*
X120467524Y-72636095D01*
X122372286Y-76398381D02*
X122372286Y-75398381D01*
X122134191Y-75398381D01*
X121991333Y-75446000D01*
X121896095Y-75541238D01*
X121848476Y-75636476D01*
X121800857Y-75826952D01*
X121800857Y-75969810D01*
X121848476Y-76160286D01*
X121896095Y-76255524D01*
X121991333Y-76350762D01*
X122134191Y-76398381D01*
X122372286Y-76398381D01*
X120848476Y-76398381D02*
X121419905Y-76398381D01*
X121134191Y-76398381D02*
X121134191Y-75398381D01*
X121229429Y-75541238D01*
X121324667Y-75636476D01*
X121419905Y-75684095D01*
X120467524Y-75493619D02*
X120419905Y-75446000D01*
X120324667Y-75398381D01*
X120086571Y-75398381D01*
X119991333Y-75446000D01*
X119943714Y-75493619D01*
X119896095Y-75588857D01*
X119896095Y-75684095D01*
X119943714Y-75826952D01*
X120515143Y-76398381D01*
X119896095Y-76398381D01*
X130016238Y-93765619D02*
X130111476Y-93718000D01*
X130206714Y-93622762D01*
X130349571Y-93479905D01*
X130444810Y-93432286D01*
X130540048Y-93432286D01*
X130492429Y-93670381D02*
X130587667Y-93622762D01*
X130682905Y-93527524D01*
X130730524Y-93337048D01*
X130730524Y-93003714D01*
X130682905Y-92813238D01*
X130587667Y-92718000D01*
X130492429Y-92670381D01*
X130301952Y-92670381D01*
X130206714Y-92718000D01*
X130111476Y-92813238D01*
X130063857Y-93003714D01*
X130063857Y-93337048D01*
X130111476Y-93527524D01*
X130206714Y-93622762D01*
X130301952Y-93670381D01*
X130492429Y-93670381D01*
X129682905Y-92765619D02*
X129635286Y-92718000D01*
X129540048Y-92670381D01*
X129301952Y-92670381D01*
X129206714Y-92718000D01*
X129159095Y-92765619D01*
X129111476Y-92860857D01*
X129111476Y-92956095D01*
X129159095Y-93098952D01*
X129730524Y-93670381D01*
X129111476Y-93670381D01*
X132683238Y-90082619D02*
X132778476Y-90035000D01*
X132873714Y-89939762D01*
X133016571Y-89796905D01*
X133111810Y-89749286D01*
X133207048Y-89749286D01*
X133159429Y-89987381D02*
X133254667Y-89939762D01*
X133349905Y-89844524D01*
X133397524Y-89654048D01*
X133397524Y-89320714D01*
X133349905Y-89130238D01*
X133254667Y-89035000D01*
X133159429Y-88987381D01*
X132968952Y-88987381D01*
X132873714Y-89035000D01*
X132778476Y-89130238D01*
X132730857Y-89320714D01*
X132730857Y-89654048D01*
X132778476Y-89844524D01*
X132873714Y-89939762D01*
X132968952Y-89987381D01*
X133159429Y-89987381D01*
X132397524Y-88987381D02*
X131778476Y-88987381D01*
X132111810Y-89368333D01*
X131968952Y-89368333D01*
X131873714Y-89415952D01*
X131826095Y-89463571D01*
X131778476Y-89558810D01*
X131778476Y-89796905D01*
X131826095Y-89892143D01*
X131873714Y-89939762D01*
X131968952Y-89987381D01*
X132254667Y-89987381D01*
X132349905Y-89939762D01*
X132397524Y-89892143D01*
X157773666Y-69286381D02*
X158107000Y-68810190D01*
X158345095Y-69286381D02*
X158345095Y-68286381D01*
X157964142Y-68286381D01*
X157868904Y-68334000D01*
X157821285Y-68381619D01*
X157773666Y-68476857D01*
X157773666Y-68619714D01*
X157821285Y-68714952D01*
X157868904Y-68762571D01*
X157964142Y-68810190D01*
X158345095Y-68810190D01*
X156916523Y-68286381D02*
X157107000Y-68286381D01*
X157202238Y-68334000D01*
X157249857Y-68381619D01*
X157345095Y-68524476D01*
X157392714Y-68714952D01*
X157392714Y-69095905D01*
X157345095Y-69191143D01*
X157297476Y-69238762D01*
X157202238Y-69286381D01*
X157011761Y-69286381D01*
X156916523Y-69238762D01*
X156868904Y-69191143D01*
X156821285Y-69095905D01*
X156821285Y-68857810D01*
X156868904Y-68762571D01*
X156916523Y-68714952D01*
X157011761Y-68667333D01*
X157202238Y-68667333D01*
X157297476Y-68714952D01*
X157345095Y-68762571D01*
X157392714Y-68857810D01*
X169965666Y-69032381D02*
X170299000Y-68556190D01*
X170537095Y-69032381D02*
X170537095Y-68032381D01*
X170156142Y-68032381D01*
X170060904Y-68080000D01*
X170013285Y-68127619D01*
X169965666Y-68222857D01*
X169965666Y-68365714D01*
X170013285Y-68460952D01*
X170060904Y-68508571D01*
X170156142Y-68556190D01*
X170537095Y-68556190D01*
X169632333Y-68032381D02*
X168965666Y-68032381D01*
X169394238Y-69032381D01*
X170092666Y-70810381D02*
X170426000Y-70334190D01*
X170664095Y-70810381D02*
X170664095Y-69810381D01*
X170283142Y-69810381D01*
X170187904Y-69858000D01*
X170140285Y-69905619D01*
X170092666Y-70000857D01*
X170092666Y-70143714D01*
X170140285Y-70238952D01*
X170187904Y-70286571D01*
X170283142Y-70334190D01*
X170664095Y-70334190D01*
X169521238Y-70238952D02*
X169616476Y-70191333D01*
X169664095Y-70143714D01*
X169711714Y-70048476D01*
X169711714Y-70000857D01*
X169664095Y-69905619D01*
X169616476Y-69858000D01*
X169521238Y-69810381D01*
X169330761Y-69810381D01*
X169235523Y-69858000D01*
X169187904Y-69905619D01*
X169140285Y-70000857D01*
X169140285Y-70048476D01*
X169187904Y-70143714D01*
X169235523Y-70191333D01*
X169330761Y-70238952D01*
X169521238Y-70238952D01*
X169616476Y-70286571D01*
X169664095Y-70334190D01*
X169711714Y-70429429D01*
X169711714Y-70619905D01*
X169664095Y-70715143D01*
X169616476Y-70762762D01*
X169521238Y-70810381D01*
X169330761Y-70810381D01*
X169235523Y-70762762D01*
X169187904Y-70715143D01*
X169140285Y-70619905D01*
X169140285Y-70429429D01*
X169187904Y-70334190D01*
X169235523Y-70286571D01*
X169330761Y-70238952D01*
X170092666Y-72461381D02*
X170426000Y-71985190D01*
X170664095Y-72461381D02*
X170664095Y-71461381D01*
X170283142Y-71461381D01*
X170187904Y-71509000D01*
X170140285Y-71556619D01*
X170092666Y-71651857D01*
X170092666Y-71794714D01*
X170140285Y-71889952D01*
X170187904Y-71937571D01*
X170283142Y-71985190D01*
X170664095Y-71985190D01*
X169616476Y-72461381D02*
X169426000Y-72461381D01*
X169330761Y-72413762D01*
X169283142Y-72366143D01*
X169187904Y-72223286D01*
X169140285Y-72032810D01*
X169140285Y-71651857D01*
X169187904Y-71556619D01*
X169235523Y-71509000D01*
X169330761Y-71461381D01*
X169521238Y-71461381D01*
X169616476Y-71509000D01*
X169664095Y-71556619D01*
X169711714Y-71651857D01*
X169711714Y-71889952D01*
X169664095Y-71985190D01*
X169616476Y-72032810D01*
X169521238Y-72080429D01*
X169330761Y-72080429D01*
X169235523Y-72032810D01*
X169187904Y-71985190D01*
X169140285Y-71889952D01*
X170187857Y-74366381D02*
X170521191Y-73890190D01*
X170759286Y-74366381D02*
X170759286Y-73366381D01*
X170378333Y-73366381D01*
X170283095Y-73414000D01*
X170235476Y-73461619D01*
X170187857Y-73556857D01*
X170187857Y-73699714D01*
X170235476Y-73794952D01*
X170283095Y-73842571D01*
X170378333Y-73890190D01*
X170759286Y-73890190D01*
X169235476Y-74366381D02*
X169806905Y-74366381D01*
X169521191Y-74366381D02*
X169521191Y-73366381D01*
X169616429Y-73509238D01*
X169711667Y-73604476D01*
X169806905Y-73652095D01*
X168616429Y-73366381D02*
X168521190Y-73366381D01*
X168425952Y-73414000D01*
X168378333Y-73461619D01*
X168330714Y-73556857D01*
X168283095Y-73747333D01*
X168283095Y-73985429D01*
X168330714Y-74175905D01*
X168378333Y-74271143D01*
X168425952Y-74318762D01*
X168521190Y-74366381D01*
X168616429Y-74366381D01*
X168711667Y-74318762D01*
X168759286Y-74271143D01*
X168806905Y-74175905D01*
X168854524Y-73985429D01*
X168854524Y-73747333D01*
X168806905Y-73556857D01*
X168759286Y-73461619D01*
X168711667Y-73414000D01*
X168616429Y-73366381D01*
X170187857Y-76144381D02*
X170521191Y-75668190D01*
X170759286Y-76144381D02*
X170759286Y-75144381D01*
X170378333Y-75144381D01*
X170283095Y-75192000D01*
X170235476Y-75239619D01*
X170187857Y-75334857D01*
X170187857Y-75477714D01*
X170235476Y-75572952D01*
X170283095Y-75620571D01*
X170378333Y-75668190D01*
X170759286Y-75668190D01*
X169235476Y-76144381D02*
X169806905Y-76144381D01*
X169521191Y-76144381D02*
X169521191Y-75144381D01*
X169616429Y-75287238D01*
X169711667Y-75382476D01*
X169806905Y-75430095D01*
X168283095Y-76144381D02*
X168854524Y-76144381D01*
X168568810Y-76144381D02*
X168568810Y-75144381D01*
X168664048Y-75287238D01*
X168759286Y-75382476D01*
X168854524Y-75430095D01*
X125217857Y-116149381D02*
X125551191Y-115673190D01*
X125789286Y-116149381D02*
X125789286Y-115149381D01*
X125408333Y-115149381D01*
X125313095Y-115197000D01*
X125265476Y-115244619D01*
X125217857Y-115339857D01*
X125217857Y-115482714D01*
X125265476Y-115577952D01*
X125313095Y-115625571D01*
X125408333Y-115673190D01*
X125789286Y-115673190D01*
X124265476Y-116149381D02*
X124836905Y-116149381D01*
X124551191Y-116149381D02*
X124551191Y-115149381D01*
X124646429Y-115292238D01*
X124741667Y-115387476D01*
X124836905Y-115435095D01*
X123932143Y-115149381D02*
X123313095Y-115149381D01*
X123646429Y-115530333D01*
X123503571Y-115530333D01*
X123408333Y-115577952D01*
X123360714Y-115625571D01*
X123313095Y-115720810D01*
X123313095Y-115958905D01*
X123360714Y-116054143D01*
X123408333Y-116101762D01*
X123503571Y-116149381D01*
X123789286Y-116149381D01*
X123884524Y-116101762D01*
X123932143Y-116054143D01*
X123388381Y-111244143D02*
X122912190Y-110910809D01*
X123388381Y-110672714D02*
X122388381Y-110672714D01*
X122388381Y-111053667D01*
X122436000Y-111148905D01*
X122483619Y-111196524D01*
X122578857Y-111244143D01*
X122721714Y-111244143D01*
X122816952Y-111196524D01*
X122864571Y-111148905D01*
X122912190Y-111053667D01*
X122912190Y-110672714D01*
X123388381Y-112196524D02*
X123388381Y-111625095D01*
X123388381Y-111910809D02*
X122388381Y-111910809D01*
X122531238Y-111815571D01*
X122626476Y-111720333D01*
X122674095Y-111625095D01*
X122721714Y-113053667D02*
X123388381Y-113053667D01*
X122340762Y-112815571D02*
X123055048Y-112577476D01*
X123055048Y-113196524D01*
X126245857Y-109418381D02*
X126579191Y-108942190D01*
X126817286Y-109418381D02*
X126817286Y-108418381D01*
X126436333Y-108418381D01*
X126341095Y-108466000D01*
X126293476Y-108513619D01*
X126245857Y-108608857D01*
X126245857Y-108751714D01*
X126293476Y-108846952D01*
X126341095Y-108894571D01*
X126436333Y-108942190D01*
X126817286Y-108942190D01*
X125293476Y-109418381D02*
X125864905Y-109418381D01*
X125579191Y-109418381D02*
X125579191Y-108418381D01*
X125674429Y-108561238D01*
X125769667Y-108656476D01*
X125864905Y-108704095D01*
X124388714Y-108418381D02*
X124864905Y-108418381D01*
X124912524Y-108894571D01*
X124864905Y-108846952D01*
X124769667Y-108799333D01*
X124531571Y-108799333D01*
X124436333Y-108846952D01*
X124388714Y-108894571D01*
X124341095Y-108989810D01*
X124341095Y-109227905D01*
X124388714Y-109323143D01*
X124436333Y-109370762D01*
X124531571Y-109418381D01*
X124769667Y-109418381D01*
X124864905Y-109370762D01*
X124912524Y-109323143D01*
X131452857Y-107767381D02*
X131786191Y-107291190D01*
X132024286Y-107767381D02*
X132024286Y-106767381D01*
X131643333Y-106767381D01*
X131548095Y-106815000D01*
X131500476Y-106862619D01*
X131452857Y-106957857D01*
X131452857Y-107100714D01*
X131500476Y-107195952D01*
X131548095Y-107243571D01*
X131643333Y-107291190D01*
X132024286Y-107291190D01*
X130500476Y-107767381D02*
X131071905Y-107767381D01*
X130786191Y-107767381D02*
X130786191Y-106767381D01*
X130881429Y-106910238D01*
X130976667Y-107005476D01*
X131071905Y-107053095D01*
X130167143Y-106767381D02*
X129500476Y-106767381D01*
X129929048Y-107767381D01*
X134119857Y-105989381D02*
X134453191Y-105513190D01*
X134691286Y-105989381D02*
X134691286Y-104989381D01*
X134310333Y-104989381D01*
X134215095Y-105037000D01*
X134167476Y-105084619D01*
X134119857Y-105179857D01*
X134119857Y-105322714D01*
X134167476Y-105417952D01*
X134215095Y-105465571D01*
X134310333Y-105513190D01*
X134691286Y-105513190D01*
X133167476Y-105989381D02*
X133738905Y-105989381D01*
X133453191Y-105989381D02*
X133453191Y-104989381D01*
X133548429Y-105132238D01*
X133643667Y-105227476D01*
X133738905Y-105275095D01*
X132596048Y-105417952D02*
X132691286Y-105370333D01*
X132738905Y-105322714D01*
X132786524Y-105227476D01*
X132786524Y-105179857D01*
X132738905Y-105084619D01*
X132691286Y-105037000D01*
X132596048Y-104989381D01*
X132405571Y-104989381D01*
X132310333Y-105037000D01*
X132262714Y-105084619D01*
X132215095Y-105179857D01*
X132215095Y-105227476D01*
X132262714Y-105322714D01*
X132310333Y-105370333D01*
X132405571Y-105417952D01*
X132596048Y-105417952D01*
X132691286Y-105465571D01*
X132738905Y-105513190D01*
X132786524Y-105608429D01*
X132786524Y-105798905D01*
X132738905Y-105894143D01*
X132691286Y-105941762D01*
X132596048Y-105989381D01*
X132405571Y-105989381D01*
X132310333Y-105941762D01*
X132262714Y-105894143D01*
X132215095Y-105798905D01*
X132215095Y-105608429D01*
X132262714Y-105513190D01*
X132310333Y-105465571D01*
X132405571Y-105417952D01*
X131325857Y-104338381D02*
X131659191Y-103862190D01*
X131897286Y-104338381D02*
X131897286Y-103338381D01*
X131516333Y-103338381D01*
X131421095Y-103386000D01*
X131373476Y-103433619D01*
X131325857Y-103528857D01*
X131325857Y-103671714D01*
X131373476Y-103766952D01*
X131421095Y-103814571D01*
X131516333Y-103862190D01*
X131897286Y-103862190D01*
X130373476Y-104338381D02*
X130944905Y-104338381D01*
X130659191Y-104338381D02*
X130659191Y-103338381D01*
X130754429Y-103481238D01*
X130849667Y-103576476D01*
X130944905Y-103624095D01*
X129897286Y-104338381D02*
X129706810Y-104338381D01*
X129611571Y-104290762D01*
X129563952Y-104243143D01*
X129468714Y-104100286D01*
X129421095Y-103909810D01*
X129421095Y-103528857D01*
X129468714Y-103433619D01*
X129516333Y-103386000D01*
X129611571Y-103338381D01*
X129802048Y-103338381D01*
X129897286Y-103386000D01*
X129944905Y-103433619D01*
X129992524Y-103528857D01*
X129992524Y-103766952D01*
X129944905Y-103862190D01*
X129897286Y-103909810D01*
X129802048Y-103957429D01*
X129611571Y-103957429D01*
X129516333Y-103909810D01*
X129468714Y-103862190D01*
X129421095Y-103766952D01*
X121800857Y-74874381D02*
X122134191Y-74398190D01*
X122372286Y-74874381D02*
X122372286Y-73874381D01*
X121991333Y-73874381D01*
X121896095Y-73922000D01*
X121848476Y-73969619D01*
X121800857Y-74064857D01*
X121800857Y-74207714D01*
X121848476Y-74302952D01*
X121896095Y-74350571D01*
X121991333Y-74398190D01*
X122372286Y-74398190D01*
X121419905Y-73969619D02*
X121372286Y-73922000D01*
X121277048Y-73874381D01*
X121038952Y-73874381D01*
X120943714Y-73922000D01*
X120896095Y-73969619D01*
X120848476Y-74064857D01*
X120848476Y-74160095D01*
X120896095Y-74302952D01*
X121467524Y-74874381D01*
X120848476Y-74874381D01*
X120229429Y-73874381D02*
X120134190Y-73874381D01*
X120038952Y-73922000D01*
X119991333Y-73969619D01*
X119943714Y-74064857D01*
X119896095Y-74255333D01*
X119896095Y-74493429D01*
X119943714Y-74683905D01*
X119991333Y-74779143D01*
X120038952Y-74826762D01*
X120134190Y-74874381D01*
X120229429Y-74874381D01*
X120324667Y-74826762D01*
X120372286Y-74779143D01*
X120419905Y-74683905D01*
X120467524Y-74493429D01*
X120467524Y-74255333D01*
X120419905Y-74064857D01*
X120372286Y-73969619D01*
X120324667Y-73922000D01*
X120229429Y-73874381D01*
X137548857Y-94178381D02*
X137882191Y-93702190D01*
X138120286Y-94178381D02*
X138120286Y-93178381D01*
X137739333Y-93178381D01*
X137644095Y-93226000D01*
X137596476Y-93273619D01*
X137548857Y-93368857D01*
X137548857Y-93511714D01*
X137596476Y-93606952D01*
X137644095Y-93654571D01*
X137739333Y-93702190D01*
X138120286Y-93702190D01*
X137167905Y-93273619D02*
X137120286Y-93226000D01*
X137025048Y-93178381D01*
X136786952Y-93178381D01*
X136691714Y-93226000D01*
X136644095Y-93273619D01*
X136596476Y-93368857D01*
X136596476Y-93464095D01*
X136644095Y-93606952D01*
X137215524Y-94178381D01*
X136596476Y-94178381D01*
X135644095Y-94178381D02*
X136215524Y-94178381D01*
X135929810Y-94178381D02*
X135929810Y-93178381D01*
X136025048Y-93321238D01*
X136120286Y-93416476D01*
X136215524Y-93464095D01*
X139961857Y-87574381D02*
X140295191Y-87098190D01*
X140533286Y-87574381D02*
X140533286Y-86574381D01*
X140152333Y-86574381D01*
X140057095Y-86622000D01*
X140009476Y-86669619D01*
X139961857Y-86764857D01*
X139961857Y-86907714D01*
X140009476Y-87002952D01*
X140057095Y-87050571D01*
X140152333Y-87098190D01*
X140533286Y-87098190D01*
X139580905Y-86669619D02*
X139533286Y-86622000D01*
X139438048Y-86574381D01*
X139199952Y-86574381D01*
X139104714Y-86622000D01*
X139057095Y-86669619D01*
X139009476Y-86764857D01*
X139009476Y-86860095D01*
X139057095Y-87002952D01*
X139628524Y-87574381D01*
X139009476Y-87574381D01*
X138628524Y-86669619D02*
X138580905Y-86622000D01*
X138485667Y-86574381D01*
X138247571Y-86574381D01*
X138152333Y-86622000D01*
X138104714Y-86669619D01*
X138057095Y-86764857D01*
X138057095Y-86860095D01*
X138104714Y-87002952D01*
X138676143Y-87574381D01*
X138057095Y-87574381D01*
X119768857Y-90368381D02*
X120102191Y-89892190D01*
X120340286Y-90368381D02*
X120340286Y-89368381D01*
X119959333Y-89368381D01*
X119864095Y-89416000D01*
X119816476Y-89463619D01*
X119768857Y-89558857D01*
X119768857Y-89701714D01*
X119816476Y-89796952D01*
X119864095Y-89844571D01*
X119959333Y-89892190D01*
X120340286Y-89892190D01*
X119387905Y-89463619D02*
X119340286Y-89416000D01*
X119245048Y-89368381D01*
X119006952Y-89368381D01*
X118911714Y-89416000D01*
X118864095Y-89463619D01*
X118816476Y-89558857D01*
X118816476Y-89654095D01*
X118864095Y-89796952D01*
X119435524Y-90368381D01*
X118816476Y-90368381D01*
X117959333Y-89701714D02*
X117959333Y-90368381D01*
X118197429Y-89320762D02*
X118435524Y-90035048D01*
X117816476Y-90035048D01*
X116022381Y-83951143D02*
X115546190Y-83617809D01*
X116022381Y-83379714D02*
X115022381Y-83379714D01*
X115022381Y-83760667D01*
X115070000Y-83855905D01*
X115117619Y-83903524D01*
X115212857Y-83951143D01*
X115355714Y-83951143D01*
X115450952Y-83903524D01*
X115498571Y-83855905D01*
X115546190Y-83760667D01*
X115546190Y-83379714D01*
X115117619Y-84332095D02*
X115070000Y-84379714D01*
X115022381Y-84474952D01*
X115022381Y-84713048D01*
X115070000Y-84808286D01*
X115117619Y-84855905D01*
X115212857Y-84903524D01*
X115308095Y-84903524D01*
X115450952Y-84855905D01*
X116022381Y-84284476D01*
X116022381Y-84903524D01*
X115022381Y-85760667D02*
X115022381Y-85570190D01*
X115070000Y-85474952D01*
X115117619Y-85427333D01*
X115260476Y-85332095D01*
X115450952Y-85284476D01*
X115831905Y-85284476D01*
X115927143Y-85332095D01*
X115974762Y-85379714D01*
X116022381Y-85474952D01*
X116022381Y-85665429D01*
X115974762Y-85760667D01*
X115927143Y-85808286D01*
X115831905Y-85855905D01*
X115593810Y-85855905D01*
X115498571Y-85808286D01*
X115450952Y-85760667D01*
X115403333Y-85665429D01*
X115403333Y-85474952D01*
X115450952Y-85379714D01*
X115498571Y-85332095D01*
X115593810Y-85284476D01*
X166369905Y-70572381D02*
X166369905Y-71381905D01*
X166322286Y-71477143D01*
X166274667Y-71524762D01*
X166179429Y-71572381D01*
X165988952Y-71572381D01*
X165893714Y-71524762D01*
X165846095Y-71477143D01*
X165798476Y-71381905D01*
X165798476Y-70572381D01*
X164798476Y-71572381D02*
X165369905Y-71572381D01*
X165084191Y-71572381D02*
X165084191Y-70572381D01*
X165179429Y-70715238D01*
X165274667Y-70810476D01*
X165369905Y-70858095D01*
X169671905Y-101814381D02*
X169671905Y-102623905D01*
X169624286Y-102719143D01*
X169576667Y-102766762D01*
X169481429Y-102814381D01*
X169290952Y-102814381D01*
X169195714Y-102766762D01*
X169148095Y-102719143D01*
X169100476Y-102623905D01*
X169100476Y-101814381D01*
X168195714Y-101814381D02*
X168386191Y-101814381D01*
X168481429Y-101862000D01*
X168529048Y-101909619D01*
X168624286Y-102052476D01*
X168671905Y-102242952D01*
X168671905Y-102623905D01*
X168624286Y-102719143D01*
X168576667Y-102766762D01*
X168481429Y-102814381D01*
X168290952Y-102814381D01*
X168195714Y-102766762D01*
X168148095Y-102719143D01*
X168100476Y-102623905D01*
X168100476Y-102385810D01*
X168148095Y-102290571D01*
X168195714Y-102242952D01*
X168290952Y-102195333D01*
X168481429Y-102195333D01*
X168576667Y-102242952D01*
X168624286Y-102290571D01*
X168671905Y-102385810D01*
X157956191Y-62968190D02*
X157956191Y-63444381D01*
X158289524Y-62444381D02*
X157956191Y-62968190D01*
X157622857Y-62444381D01*
X156765714Y-63444381D02*
X157337143Y-63444381D01*
X157051429Y-63444381D02*
X157051429Y-62444381D01*
X157146667Y-62587238D01*
X157241905Y-62682476D01*
X157337143Y-62730095D01*
X150844191Y-68556190D02*
X150844191Y-69032381D01*
X151177524Y-68032381D02*
X150844191Y-68556190D01*
X150510857Y-68032381D01*
X150225143Y-68127619D02*
X150177524Y-68080000D01*
X150082286Y-68032381D01*
X149844190Y-68032381D01*
X149748952Y-68080000D01*
X149701333Y-68127619D01*
X149653714Y-68222857D01*
X149653714Y-68318095D01*
X149701333Y-68460952D01*
X150272762Y-69032381D01*
X149653714Y-69032381D01*
X171449905Y-83018381D02*
X171449905Y-83827905D01*
X171402286Y-83923143D01*
X171354667Y-83970762D01*
X171259429Y-84018381D01*
X171068952Y-84018381D01*
X170973714Y-83970762D01*
X170926095Y-83923143D01*
X170878476Y-83827905D01*
X170878476Y-83018381D01*
X170497524Y-83018381D02*
X169830857Y-83018381D01*
X170259429Y-84018381D01*
X163067905Y-83018381D02*
X163067905Y-83827905D01*
X163020286Y-83923143D01*
X162972667Y-83970762D01*
X162877429Y-84018381D01*
X162686952Y-84018381D01*
X162591714Y-83970762D01*
X162544095Y-83923143D01*
X162496476Y-83827905D01*
X162496476Y-83018381D01*
X161877429Y-83446952D02*
X161972667Y-83399333D01*
X162020286Y-83351714D01*
X162067905Y-83256476D01*
X162067905Y-83208857D01*
X162020286Y-83113619D01*
X161972667Y-83066000D01*
X161877429Y-83018381D01*
X161686952Y-83018381D01*
X161591714Y-83066000D01*
X161544095Y-83113619D01*
X161496476Y-83208857D01*
X161496476Y-83256476D01*
X161544095Y-83351714D01*
X161591714Y-83399333D01*
X161686952Y-83446952D01*
X161877429Y-83446952D01*
X161972667Y-83494571D01*
X162020286Y-83542190D01*
X162067905Y-83637429D01*
X162067905Y-83827905D01*
X162020286Y-83923143D01*
X161972667Y-83970762D01*
X161877429Y-84018381D01*
X161686952Y-84018381D01*
X161591714Y-83970762D01*
X161544095Y-83923143D01*
X161496476Y-83827905D01*
X161496476Y-83637429D01*
X161544095Y-83542190D01*
X161591714Y-83494571D01*
X161686952Y-83446952D01*
X158630857Y-112244143D02*
X158678476Y-112291762D01*
X158821333Y-112339381D01*
X158916571Y-112339381D01*
X159059429Y-112291762D01*
X159154667Y-112196524D01*
X159202286Y-112101286D01*
X159249905Y-111910810D01*
X159249905Y-111767952D01*
X159202286Y-111577476D01*
X159154667Y-111482238D01*
X159059429Y-111387000D01*
X158916571Y-111339381D01*
X158821333Y-111339381D01*
X158678476Y-111387000D01*
X158630857Y-111434619D01*
X158297524Y-111339381D02*
X157678476Y-111339381D01*
X158011810Y-111720333D01*
X157868952Y-111720333D01*
X157773714Y-111767952D01*
X157726095Y-111815571D01*
X157678476Y-111910810D01*
X157678476Y-112148905D01*
X157726095Y-112244143D01*
X157773714Y-112291762D01*
X157868952Y-112339381D01*
X158154667Y-112339381D01*
X158249905Y-112291762D01*
X158297524Y-112244143D01*
X157345143Y-111339381D02*
X156678476Y-111339381D01*
X157107048Y-112339381D01*
X163456857Y-98782143D02*
X163504476Y-98829762D01*
X163647333Y-98877381D01*
X163742571Y-98877381D01*
X163885429Y-98829762D01*
X163980667Y-98734524D01*
X164028286Y-98639286D01*
X164075905Y-98448810D01*
X164075905Y-98305952D01*
X164028286Y-98115476D01*
X163980667Y-98020238D01*
X163885429Y-97925000D01*
X163742571Y-97877381D01*
X163647333Y-97877381D01*
X163504476Y-97925000D01*
X163456857Y-97972619D01*
X163123524Y-97877381D02*
X162504476Y-97877381D01*
X162837810Y-98258333D01*
X162694952Y-98258333D01*
X162599714Y-98305952D01*
X162552095Y-98353571D01*
X162504476Y-98448810D01*
X162504476Y-98686905D01*
X162552095Y-98782143D01*
X162599714Y-98829762D01*
X162694952Y-98877381D01*
X162980667Y-98877381D01*
X163075905Y-98829762D01*
X163123524Y-98782143D01*
X161933048Y-98305952D02*
X162028286Y-98258333D01*
X162075905Y-98210714D01*
X162123524Y-98115476D01*
X162123524Y-98067857D01*
X162075905Y-97972619D01*
X162028286Y-97925000D01*
X161933048Y-97877381D01*
X161742571Y-97877381D01*
X161647333Y-97925000D01*
X161599714Y-97972619D01*
X161552095Y-98067857D01*
X161552095Y-98115476D01*
X161599714Y-98210714D01*
X161647333Y-98258333D01*
X161742571Y-98305952D01*
X161933048Y-98305952D01*
X162028286Y-98353571D01*
X162075905Y-98401190D01*
X162123524Y-98496429D01*
X162123524Y-98686905D01*
X162075905Y-98782143D01*
X162028286Y-98829762D01*
X161933048Y-98877381D01*
X161742571Y-98877381D01*
X161647333Y-98829762D01*
X161599714Y-98782143D01*
X161552095Y-98686905D01*
X161552095Y-98496429D01*
X161599714Y-98401190D01*
X161647333Y-98353571D01*
X161742571Y-98305952D01*
X165373857Y-94718143D02*
X165421476Y-94765762D01*
X165564333Y-94813381D01*
X165659571Y-94813381D01*
X165802429Y-94765762D01*
X165897667Y-94670524D01*
X165945286Y-94575286D01*
X165992905Y-94384810D01*
X165992905Y-94241952D01*
X165945286Y-94051476D01*
X165897667Y-93956238D01*
X165802429Y-93861000D01*
X165659571Y-93813381D01*
X165564333Y-93813381D01*
X165421476Y-93861000D01*
X165373857Y-93908619D01*
X165040524Y-93813381D02*
X164421476Y-93813381D01*
X164754810Y-94194333D01*
X164611952Y-94194333D01*
X164516714Y-94241952D01*
X164469095Y-94289571D01*
X164421476Y-94384810D01*
X164421476Y-94622905D01*
X164469095Y-94718143D01*
X164516714Y-94765762D01*
X164611952Y-94813381D01*
X164897667Y-94813381D01*
X164992905Y-94765762D01*
X165040524Y-94718143D01*
X163945286Y-94813381D02*
X163754810Y-94813381D01*
X163659571Y-94765762D01*
X163611952Y-94718143D01*
X163516714Y-94575286D01*
X163469095Y-94384810D01*
X163469095Y-94003857D01*
X163516714Y-93908619D01*
X163564333Y-93861000D01*
X163659571Y-93813381D01*
X163850048Y-93813381D01*
X163945286Y-93861000D01*
X163992905Y-93908619D01*
X164040524Y-94003857D01*
X164040524Y-94241952D01*
X163992905Y-94337190D01*
X163945286Y-94384810D01*
X163850048Y-94432429D01*
X163659571Y-94432429D01*
X163564333Y-94384810D01*
X163516714Y-94337190D01*
X163469095Y-94241952D01*
X171838857Y-98782143D02*
X171886476Y-98829762D01*
X172029333Y-98877381D01*
X172124571Y-98877381D01*
X172267429Y-98829762D01*
X172362667Y-98734524D01*
X172410286Y-98639286D01*
X172457905Y-98448810D01*
X172457905Y-98305952D01*
X172410286Y-98115476D01*
X172362667Y-98020238D01*
X172267429Y-97925000D01*
X172124571Y-97877381D01*
X172029333Y-97877381D01*
X171886476Y-97925000D01*
X171838857Y-97972619D01*
X170981714Y-98210714D02*
X170981714Y-98877381D01*
X171219810Y-97829762D02*
X171457905Y-98544048D01*
X170838857Y-98544048D01*
X169934095Y-98877381D02*
X170505524Y-98877381D01*
X170219810Y-98877381D02*
X170219810Y-97877381D01*
X170315048Y-98020238D01*
X170410286Y-98115476D01*
X170505524Y-98163095D01*
X173755857Y-94718143D02*
X173803476Y-94765762D01*
X173946333Y-94813381D01*
X174041571Y-94813381D01*
X174184429Y-94765762D01*
X174279667Y-94670524D01*
X174327286Y-94575286D01*
X174374905Y-94384810D01*
X174374905Y-94241952D01*
X174327286Y-94051476D01*
X174279667Y-93956238D01*
X174184429Y-93861000D01*
X174041571Y-93813381D01*
X173946333Y-93813381D01*
X173803476Y-93861000D01*
X173755857Y-93908619D01*
X172898714Y-94146714D02*
X172898714Y-94813381D01*
X173136810Y-93765762D02*
X173374905Y-94480048D01*
X172755857Y-94480048D01*
X172422524Y-93908619D02*
X172374905Y-93861000D01*
X172279667Y-93813381D01*
X172041571Y-93813381D01*
X171946333Y-93861000D01*
X171898714Y-93908619D01*
X171851095Y-94003857D01*
X171851095Y-94099095D01*
X171898714Y-94241952D01*
X172470143Y-94813381D01*
X171851095Y-94813381D01*
X121657905Y-101306381D02*
X121086476Y-101306381D01*
X121372191Y-102306381D02*
X121372191Y-101306381D01*
X120753143Y-102306381D02*
X120753143Y-101306381D01*
X120372190Y-101306381D01*
X120276952Y-101354000D01*
X120229333Y-101401619D01*
X120181714Y-101496857D01*
X120181714Y-101639714D01*
X120229333Y-101734952D01*
X120276952Y-101782571D01*
X120372190Y-101830190D01*
X120753143Y-101830190D01*
X119229333Y-102306381D02*
X119800762Y-102306381D01*
X119515048Y-102306381D02*
X119515048Y-101306381D01*
X119610286Y-101449238D01*
X119705524Y-101544476D01*
X119800762Y-101592095D01*
X121657905Y-98004381D02*
X121086476Y-98004381D01*
X121372191Y-99004381D02*
X121372191Y-98004381D01*
X120753143Y-99004381D02*
X120753143Y-98004381D01*
X120372190Y-98004381D01*
X120276952Y-98052000D01*
X120229333Y-98099619D01*
X120181714Y-98194857D01*
X120181714Y-98337714D01*
X120229333Y-98432952D01*
X120276952Y-98480571D01*
X120372190Y-98528190D01*
X120753143Y-98528190D01*
X119800762Y-98099619D02*
X119753143Y-98052000D01*
X119657905Y-98004381D01*
X119419809Y-98004381D01*
X119324571Y-98052000D01*
X119276952Y-98099619D01*
X119229333Y-98194857D01*
X119229333Y-98290095D01*
X119276952Y-98432952D01*
X119848381Y-99004381D01*
X119229333Y-99004381D01*
X121657905Y-113498381D02*
X121086476Y-113498381D01*
X121372191Y-114498381D02*
X121372191Y-113498381D01*
X120753143Y-114498381D02*
X120753143Y-113498381D01*
X120372190Y-113498381D01*
X120276952Y-113546000D01*
X120229333Y-113593619D01*
X120181714Y-113688857D01*
X120181714Y-113831714D01*
X120229333Y-113926952D01*
X120276952Y-113974571D01*
X120372190Y-114022190D01*
X120753143Y-114022190D01*
X119848381Y-113498381D02*
X119229333Y-113498381D01*
X119562667Y-113879333D01*
X119419809Y-113879333D01*
X119324571Y-113926952D01*
X119276952Y-113974571D01*
X119229333Y-114069810D01*
X119229333Y-114307905D01*
X119276952Y-114403143D01*
X119324571Y-114450762D01*
X119419809Y-114498381D01*
X119705524Y-114498381D01*
X119800762Y-114450762D01*
X119848381Y-114403143D01*
X121784905Y-104100381D02*
X121213476Y-104100381D01*
X121499191Y-105100381D02*
X121499191Y-104100381D01*
X120880143Y-105100381D02*
X120880143Y-104100381D01*
X120499190Y-104100381D01*
X120403952Y-104148000D01*
X120356333Y-104195619D01*
X120308714Y-104290857D01*
X120308714Y-104433714D01*
X120356333Y-104528952D01*
X120403952Y-104576571D01*
X120499190Y-104624190D01*
X120880143Y-104624190D01*
X119451571Y-104433714D02*
X119451571Y-105100381D01*
X119689667Y-104052762D02*
X119927762Y-104767048D01*
X119308714Y-104767048D01*
X125309381Y-101862095D02*
X125309381Y-102433524D01*
X126309381Y-102147809D02*
X125309381Y-102147809D01*
X126309381Y-102766857D02*
X125309381Y-102766857D01*
X125309381Y-103147810D01*
X125357000Y-103243048D01*
X125404619Y-103290667D01*
X125499857Y-103338286D01*
X125642714Y-103338286D01*
X125737952Y-103290667D01*
X125785571Y-103243048D01*
X125833190Y-103147810D01*
X125833190Y-102766857D01*
X125309381Y-104243048D02*
X125309381Y-103766857D01*
X125785571Y-103719238D01*
X125737952Y-103766857D01*
X125690333Y-103862095D01*
X125690333Y-104100191D01*
X125737952Y-104195429D01*
X125785571Y-104243048D01*
X125880810Y-104290667D01*
X126118905Y-104290667D01*
X126214143Y-104243048D01*
X126261762Y-104195429D01*
X126309381Y-104100191D01*
X126309381Y-103862095D01*
X126261762Y-103766857D01*
X126214143Y-103719238D01*
X178284143Y-86352143D02*
X178331762Y-86304524D01*
X178379381Y-86161667D01*
X178379381Y-86066429D01*
X178331762Y-85923571D01*
X178236524Y-85828333D01*
X178141286Y-85780714D01*
X177950810Y-85733095D01*
X177807952Y-85733095D01*
X177617476Y-85780714D01*
X177522238Y-85828333D01*
X177427000Y-85923571D01*
X177379381Y-86066429D01*
X177379381Y-86161667D01*
X177427000Y-86304524D01*
X177474619Y-86352143D01*
X177712714Y-87209286D02*
X178379381Y-87209286D01*
X177331762Y-86971190D02*
X178046048Y-86733095D01*
X178046048Y-87352143D01*
X177379381Y-87923571D02*
X177379381Y-88018810D01*
X177427000Y-88114048D01*
X177474619Y-88161667D01*
X177569857Y-88209286D01*
X177760333Y-88256905D01*
X177998429Y-88256905D01*
X178188905Y-88209286D01*
X178284143Y-88161667D01*
X178331762Y-88114048D01*
X178379381Y-88018810D01*
X178379381Y-87923571D01*
X178331762Y-87828333D01*
X178284143Y-87780714D01*
X178188905Y-87733095D01*
X177998429Y-87685476D01*
X177760333Y-87685476D01*
X177569857Y-87733095D01*
X177474619Y-87780714D01*
X177427000Y-87828333D01*
X177379381Y-87923571D01*
X155424143Y-86479143D02*
X155471762Y-86431524D01*
X155519381Y-86288667D01*
X155519381Y-86193429D01*
X155471762Y-86050571D01*
X155376524Y-85955333D01*
X155281286Y-85907714D01*
X155090810Y-85860095D01*
X154947952Y-85860095D01*
X154757476Y-85907714D01*
X154662238Y-85955333D01*
X154567000Y-86050571D01*
X154519381Y-86193429D01*
X154519381Y-86288667D01*
X154567000Y-86431524D01*
X154614619Y-86479143D01*
X154852714Y-87336286D02*
X155519381Y-87336286D01*
X154471762Y-87098190D02*
X155186048Y-86860095D01*
X155186048Y-87479143D01*
X154519381Y-87764857D02*
X154519381Y-88383905D01*
X154900333Y-88050571D01*
X154900333Y-88193429D01*
X154947952Y-88288667D01*
X154995571Y-88336286D01*
X155090810Y-88383905D01*
X155328905Y-88383905D01*
X155424143Y-88336286D01*
X155471762Y-88288667D01*
X155519381Y-88193429D01*
X155519381Y-87907714D01*
X155471762Y-87812476D01*
X155424143Y-87764857D01*
X186697857Y-100281143D02*
X186745476Y-100328762D01*
X186888333Y-100376381D01*
X186983571Y-100376381D01*
X187126429Y-100328762D01*
X187221667Y-100233524D01*
X187269286Y-100138286D01*
X187316905Y-99947810D01*
X187316905Y-99804952D01*
X187269286Y-99614476D01*
X187221667Y-99519238D01*
X187126429Y-99424000D01*
X186983571Y-99376381D01*
X186888333Y-99376381D01*
X186745476Y-99424000D01*
X186697857Y-99471619D01*
X186364524Y-99376381D02*
X185745476Y-99376381D01*
X186078810Y-99757333D01*
X185935952Y-99757333D01*
X185840714Y-99804952D01*
X185793095Y-99852571D01*
X185745476Y-99947810D01*
X185745476Y-100185905D01*
X185793095Y-100281143D01*
X185840714Y-100328762D01*
X185935952Y-100376381D01*
X186221667Y-100376381D01*
X186316905Y-100328762D01*
X186364524Y-100281143D01*
X184840714Y-99376381D02*
X185316905Y-99376381D01*
X185364524Y-99852571D01*
X185316905Y-99804952D01*
X185221667Y-99757333D01*
X184983571Y-99757333D01*
X184888333Y-99804952D01*
X184840714Y-99852571D01*
X184793095Y-99947810D01*
X184793095Y-100185905D01*
X184840714Y-100281143D01*
X184888333Y-100328762D01*
X184983571Y-100376381D01*
X185221667Y-100376381D01*
X185316905Y-100328762D01*
X185364524Y-100281143D01*
M02*
