G04 #@! TF.FileFunction,Soldermask,Top*
%FSLAX46Y46*%
G04 Gerber Fmt 4.6, Leading zero omitted, Abs format (unit mm)*
G04 Created by KiCad (PCBNEW 4.0.7) date Thursday, April 05, 2018 'PMt' 12:15:07 PM*
%MOMM*%
%LPD*%
G01*
G04 APERTURE LIST*
%ADD10C,0.100000*%
%ADD11C,6.400000*%
%ADD12C,0.800000*%
%ADD13R,2.080000X3.600000*%
%ADD14O,2.080000X3.600000*%
%ADD15C,2.500000*%
%ADD16C,3.000000*%
%ADD17R,2.290000X5.080000*%
%ADD18R,2.420000X5.080000*%
%ADD19R,0.800000X0.750000*%
%ADD20R,0.750000X0.800000*%
%ADD21R,0.800000X0.800000*%
%ADD22R,0.600000X0.800000*%
%ADD23R,1.000000X0.700000*%
%ADD24R,2.500000X1.800000*%
%ADD25R,0.500000X0.900000*%
%ADD26R,0.900000X0.800000*%
%ADD27R,0.800000X0.900000*%
%ADD28R,0.900000X0.500000*%
%ADD29R,1.550000X1.300000*%
%ADD30R,0.650000X1.060000*%
%ADD31R,4.600000X1.100000*%
%ADD32R,9.400000X10.800000*%
%ADD33R,1.100000X4.600000*%
%ADD34R,10.800000X9.400000*%
%ADD35R,4.000000X2.500000*%
%ADD36R,1.950000X1.500000*%
%ADD37R,1.700000X1.700000*%
%ADD38O,1.700000X1.700000*%
%ADD39C,1.000000*%
%ADD40R,2.500000X1.950000*%
%ADD41R,1.000000X1.600000*%
%ADD42R,2.200000X2.200000*%
%ADD43O,2.200000X2.200000*%
%ADD44R,2.000000X0.640000*%
%ADD45R,1.700000X0.900000*%
%ADD46R,1.100000X1.700000*%
%ADD47O,1.100000X1.700000*%
%ADD48O,1.600000X3.900000*%
%ADD49R,0.700000X0.900000*%
%ADD50R,0.700000X0.800000*%
%ADD51R,1.900000X0.600000*%
%ADD52R,2.400000X0.600000*%
%ADD53R,2.000000X0.600000*%
%ADD54R,2.200000X1.050000*%
%ADD55R,2.200000X0.600000*%
%ADD56R,1.500000X0.800000*%
%ADD57R,0.800000X1.500000*%
%ADD58R,1.100000X1.100000*%
%ADD59R,2.900680X5.400040*%
G04 APERTURE END LIST*
D10*
D11*
X101790000Y-65350000D03*
D12*
X104190000Y-65350000D03*
X103487056Y-67047056D03*
X101790000Y-67750000D03*
X100092944Y-67047056D03*
X99390000Y-65350000D03*
X100092944Y-63652944D03*
X101790000Y-62950000D03*
X103487056Y-63652944D03*
D11*
X101790000Y-129366944D03*
D12*
X104190000Y-129366944D03*
X103487056Y-131064000D03*
X101790000Y-131766944D03*
X100092944Y-131064000D03*
X99390000Y-129366944D03*
X100092944Y-127669888D03*
X101790000Y-126966944D03*
X103487056Y-127669888D03*
D11*
X193802000Y-129350000D03*
D12*
X196202000Y-129350000D03*
X195499056Y-131047056D03*
X193802000Y-131750000D03*
X192104944Y-131047056D03*
X191402000Y-129350000D03*
X192104944Y-127652944D03*
X193802000Y-126950000D03*
X195499056Y-127652944D03*
D13*
X149860000Y-126619000D03*
D14*
X154940000Y-126619000D03*
X160020000Y-126619000D03*
X165100000Y-126619000D03*
X170180000Y-126619000D03*
X175260000Y-126619000D03*
X180340000Y-126619000D03*
X185420000Y-126619000D03*
D15*
X174290000Y-104590000D03*
D16*
X174290000Y-116790000D03*
X186340000Y-116840000D03*
D15*
X186290000Y-104590000D03*
D16*
X180340000Y-102640000D03*
D17*
X113476000Y-130492500D03*
D18*
X109096000Y-130492500D03*
X117856000Y-130492500D03*
D19*
X159500000Y-72390000D03*
X158000000Y-72390000D03*
X181344000Y-68580000D03*
X179844000Y-68580000D03*
X111835500Y-124206000D03*
X113335500Y-124206000D03*
X116332000Y-122428000D03*
X114832000Y-122428000D03*
D20*
X110045500Y-120916000D03*
X110045500Y-122416000D03*
D19*
X101612000Y-113538000D03*
X103112000Y-113538000D03*
X101624000Y-114935000D03*
X103124000Y-114935000D03*
X101612000Y-116332000D03*
X103112000Y-116332000D03*
X101624000Y-117729000D03*
X103124000Y-117729000D03*
X101624000Y-119126000D03*
X103124000Y-119126000D03*
X99072000Y-104140000D03*
X100572000Y-104140000D03*
X99072000Y-102616000D03*
X100572000Y-102616000D03*
X99072000Y-101092000D03*
X100572000Y-101092000D03*
X99084000Y-99568000D03*
X100584000Y-99568000D03*
D21*
X176530000Y-68580000D03*
X174930000Y-68580000D03*
X176530000Y-70358000D03*
X174930000Y-70358000D03*
X176530000Y-72136000D03*
X174930000Y-72136000D03*
X176530000Y-73914000D03*
X174930000Y-73914000D03*
X176530000Y-75692000D03*
X174930000Y-75692000D03*
D22*
X119976000Y-124206000D03*
X118276000Y-124206000D03*
D21*
X130556000Y-103200000D03*
X130556000Y-101600000D03*
D23*
X138195000Y-126365000D03*
X138195000Y-130365000D03*
X144145000Y-130365000D03*
X144145000Y-126365000D03*
D24*
X147352000Y-120904000D03*
X151352000Y-120904000D03*
D21*
X181140000Y-99568000D03*
X179540000Y-99568000D03*
D25*
X116320000Y-124206000D03*
X114820000Y-124206000D03*
X111784000Y-122428000D03*
X113284000Y-122428000D03*
D26*
X127000000Y-100650000D03*
X127000000Y-102550000D03*
X129000000Y-101600000D03*
D27*
X177800000Y-97282000D03*
X175900000Y-97282000D03*
X176850000Y-99282000D03*
D28*
X161036000Y-74664000D03*
X161036000Y-73164000D03*
X149352000Y-72124000D03*
X149352000Y-70624000D03*
D25*
X165937500Y-62865000D03*
X167437500Y-62865000D03*
X116344000Y-120650000D03*
X117844000Y-120650000D03*
X100584000Y-105664000D03*
X99084000Y-105664000D03*
D28*
X124460000Y-92329000D03*
X124460000Y-93829000D03*
X132080000Y-103124000D03*
X132080000Y-101624000D03*
D25*
X124218000Y-100584000D03*
X125718000Y-100584000D03*
D28*
X183134000Y-98921000D03*
X183134000Y-97421000D03*
X179578000Y-97270000D03*
X179578000Y-95770000D03*
X160020000Y-105168000D03*
X160020000Y-106668000D03*
X160020000Y-102120000D03*
X160020000Y-103620000D03*
D29*
X186776000Y-85670000D03*
X186776000Y-90170000D03*
X178816000Y-90170000D03*
X178816000Y-85670000D03*
D30*
X179898000Y-73236000D03*
X180848000Y-73236000D03*
X181798000Y-73236000D03*
X181798000Y-71036000D03*
X179898000Y-71036000D03*
D31*
X141478000Y-118110000D03*
X141478000Y-116410000D03*
X141478000Y-114710000D03*
X141478000Y-113010000D03*
X141478000Y-111310000D03*
D32*
X132328000Y-114710000D03*
D33*
X149586000Y-103378000D03*
X151286000Y-103378000D03*
X152986000Y-103378000D03*
X154686000Y-103378000D03*
X156386000Y-103378000D03*
D34*
X152986000Y-94228000D03*
D35*
X134302000Y-126365000D03*
X126302000Y-126365000D03*
X144716000Y-103378000D03*
X136716000Y-103378000D03*
D20*
X181102000Y-95770000D03*
X181102000Y-97270000D03*
D36*
X155089000Y-108839000D03*
X157839000Y-108839000D03*
D37*
X149352000Y-77216000D03*
D38*
X149352000Y-74676000D03*
D37*
X185166000Y-74422000D03*
D38*
X187706000Y-74422000D03*
X190246000Y-74422000D03*
D37*
X190246000Y-79502000D03*
D38*
X190246000Y-82042000D03*
X190246000Y-84582000D03*
X190246000Y-87122000D03*
X190246000Y-89662000D03*
D39*
X112522000Y-88138000D03*
X111252000Y-89916000D03*
X124460000Y-96266000D03*
D40*
X144780000Y-96140000D03*
X144780000Y-93090000D03*
D41*
X150598000Y-109982000D03*
X147598000Y-109982000D03*
D11*
X193790000Y-65350000D03*
D12*
X196190000Y-65350000D03*
X195487056Y-67047056D03*
X193790000Y-67750000D03*
X192092944Y-67047056D03*
X191390000Y-65350000D03*
X192092944Y-63652944D03*
X193790000Y-62950000D03*
X195487056Y-63652944D03*
D21*
X164503000Y-62865000D03*
X162903000Y-62865000D03*
D42*
X170243500Y-64833500D03*
D43*
X180403500Y-64833500D03*
D44*
X166916500Y-67373500D03*
X166916500Y-64833500D03*
X160616500Y-64833500D03*
X160616500Y-67373500D03*
D45*
X170243500Y-70220500D03*
X170243500Y-67320500D03*
D46*
X119890000Y-85050000D03*
D47*
X120690000Y-82450000D03*
X121490000Y-85050000D03*
X122290000Y-82450000D03*
X123090000Y-85050000D03*
D48*
X117840000Y-83750000D03*
X125140000Y-83750000D03*
D49*
X114300000Y-74422000D03*
D50*
X111950500Y-73914000D03*
D49*
X103378000Y-76200000D03*
X103378000Y-78740000D03*
X103378000Y-81280000D03*
X104394000Y-76200000D03*
X104394000Y-78740000D03*
X104394000Y-81280000D03*
D51*
X111379000Y-85979000D03*
X105664000Y-85979000D03*
D52*
X113538000Y-71374000D03*
D53*
X106934000Y-71374000D03*
D54*
X99124500Y-71303500D03*
D55*
X99949000Y-85979000D03*
D56*
X120318000Y-117424000D03*
X120318000Y-116324000D03*
X120318000Y-115224000D03*
X120318000Y-114124000D03*
X120318000Y-113024000D03*
X120318000Y-111924000D03*
X120318000Y-110824000D03*
X120318000Y-109724000D03*
X120318000Y-108624000D03*
X120318000Y-107524000D03*
X120318000Y-106424000D03*
X120318000Y-105324000D03*
X120318000Y-104224000D03*
X120318000Y-103124000D03*
X120318000Y-102024000D03*
X120318000Y-100924000D03*
X120318000Y-99824000D03*
X120318000Y-98724000D03*
X120318000Y-97624000D03*
X120318000Y-96524000D03*
X120318000Y-95424000D03*
D57*
X118868000Y-94474000D03*
X117768000Y-94474000D03*
X116668000Y-94474000D03*
X115568000Y-94474000D03*
X114468000Y-94474000D03*
X113368000Y-94474000D03*
X112268000Y-94474000D03*
X111168000Y-94474000D03*
X110068000Y-94474000D03*
X108968000Y-94474000D03*
X107868000Y-94474000D03*
D56*
X106418000Y-95424000D03*
X106418000Y-96524000D03*
X106418000Y-97624000D03*
X106418000Y-98724000D03*
X106418000Y-99824000D03*
X106418000Y-100924000D03*
X106418000Y-102024000D03*
X106418000Y-103124000D03*
X106418000Y-104224000D03*
X106418000Y-105324000D03*
X106418000Y-106424000D03*
X106418000Y-107524000D03*
X106418000Y-108624000D03*
X106418000Y-109724000D03*
X106418000Y-110824000D03*
X106418000Y-111924000D03*
X106418000Y-113024000D03*
X106418000Y-114124000D03*
X106418000Y-115224000D03*
X106418000Y-116324000D03*
X106418000Y-117424000D03*
D57*
X107868000Y-118374000D03*
X108968000Y-118374000D03*
X110068000Y-118374000D03*
X111168000Y-118374000D03*
X112268000Y-118374000D03*
X113368000Y-118374000D03*
X114468000Y-118374000D03*
X115568000Y-118374000D03*
X116668000Y-118374000D03*
X117768000Y-118374000D03*
X118868000Y-118374000D03*
D58*
X118618000Y-116674000D03*
X116518000Y-116674000D03*
X114418000Y-116674000D03*
X112318000Y-116674000D03*
X110218000Y-116674000D03*
X108118000Y-116674000D03*
X118618000Y-114874000D03*
X116518000Y-114874000D03*
X114418000Y-114874000D03*
X112318000Y-114874000D03*
X110218000Y-114874000D03*
X108118000Y-114874000D03*
X118618000Y-113074000D03*
X108118000Y-113074000D03*
X118618000Y-109474000D03*
X108118000Y-109474000D03*
X118618000Y-103374000D03*
X108118000Y-103374000D03*
X118618000Y-99774000D03*
X108118000Y-99774000D03*
X118618000Y-98174000D03*
X116518000Y-98174000D03*
X114418000Y-98174000D03*
X112318000Y-98174000D03*
X110218000Y-98174000D03*
X108118000Y-98174000D03*
X118618000Y-96374000D03*
X116668000Y-96374000D03*
X114518000Y-96374000D03*
X112318000Y-96374000D03*
X110218000Y-96374000D03*
X108118000Y-96374000D03*
D41*
X140105000Y-123190000D03*
X143105000Y-123190000D03*
D59*
X155069540Y-117348000D03*
X164970460Y-117348000D03*
M02*
