%FSLAX45Y45*%
G04 Gerber Fmt 4.5, Leading zero omitted, Abs format (unit mm)*
G04 Created by KiCad (PCBNEW 4.0.7) date Wednesday, May 02, 2018 'PMt' 05:51:41 PM*
%MOMM*%
%LPD*%
G01*
G04 APERTURE LIST*
%ADD10C,0.127000*%
%ADD11C,0.100000*%
%ADD12C,0.200000*%
%ADD13C,0.300000*%
G04 APERTURE END LIST*
D10*
D11*
X19479000Y-7835000D02*
X9479000Y-7835000D01*
X9479000Y-13535000D02*
X19479000Y-13535000D01*
X9479000Y-7835000D02*
X9479000Y-13535000D01*
X19479000Y-13535000D02*
X19479000Y-7835000D01*
D12*
X16266400Y-12177000D02*
X16296400Y-12207000D01*
X16296400Y-12177000D02*
X16266400Y-12207000D01*
X16266400Y-12431000D02*
X16296400Y-12461000D01*
X16296400Y-12431000D02*
X16266400Y-12461000D01*
X16507700Y-11592800D02*
X16537700Y-11622800D01*
X16537700Y-11592800D02*
X16507700Y-11622800D01*
X16672800Y-11427700D02*
X16702800Y-11457700D01*
X16702800Y-11427700D02*
X16672800Y-11457700D01*
X16774400Y-11961100D02*
X16804400Y-11991100D01*
X16804400Y-11961100D02*
X16774400Y-11991100D01*
X16774400Y-12177000D02*
X16804400Y-12207000D01*
X16804400Y-12177000D02*
X16774400Y-12207000D01*
X16774400Y-12431000D02*
X16804400Y-12461000D01*
X16804400Y-12431000D02*
X16774400Y-12461000D01*
X16837900Y-11262600D02*
X16867900Y-11292600D01*
X16867900Y-11262600D02*
X16837900Y-11292600D01*
X16901400Y-11821400D02*
X16931400Y-11851400D01*
X16931400Y-11821400D02*
X16901400Y-11851400D01*
X16990300Y-11110200D02*
X17020300Y-11140200D01*
X17020300Y-11110200D02*
X16990300Y-11140200D01*
X17053800Y-11669000D02*
X17083800Y-11699000D01*
X17083800Y-11669000D02*
X17053800Y-11699000D01*
X17257000Y-11554700D02*
X17287000Y-11584700D01*
X17287000Y-11554700D02*
X17257000Y-11584700D01*
X17282400Y-12304000D02*
X17312400Y-12334000D01*
X17312400Y-12304000D02*
X17282400Y-12334000D01*
X17282400Y-12431000D02*
X17312400Y-12461000D01*
X17312400Y-12431000D02*
X17282400Y-12461000D01*
X17511000Y-11554700D02*
X17541000Y-11584700D01*
X17541000Y-11554700D02*
X17511000Y-11584700D01*
X17765000Y-11554700D02*
X17795000Y-11584700D01*
X17795000Y-11554700D02*
X17765000Y-11584700D01*
X18019000Y-11554700D02*
X18049000Y-11584700D01*
X18049000Y-11554700D02*
X18019000Y-11584700D01*
X18273000Y-11554700D02*
X18303000Y-11584700D01*
X18303000Y-11554700D02*
X18273000Y-11584700D01*
X9753000Y-12646000D02*
G75*
G03X9753000Y-12646000I-20000J0D01*
G01*
X9880000Y-9598000D02*
G75*
G03X9880000Y-9598000I-20000J0D01*
G01*
X9880000Y-10614000D02*
G75*
G03X9880000Y-10614000I-20000J0D01*
G01*
X9880000Y-10995000D02*
G75*
G03X9880000Y-10995000I-20000J0D01*
G01*
X9880000Y-11376000D02*
G75*
G03X9880000Y-11376000I-20000J0D01*
G01*
X9880000Y-11757000D02*
G75*
G03X9880000Y-11757000I-20000J0D01*
G01*
X10134000Y-12646000D02*
G75*
G03X10134000Y-12646000I-20000J0D01*
G01*
X10243500Y-10541000D02*
G75*
G03X10243500Y-10541000I-20000J0D01*
G01*
X10261000Y-9598000D02*
G75*
G03X10261000Y-9598000I-20000J0D01*
G01*
X10261000Y-10995000D02*
G75*
G03X10261000Y-10995000I-20000J0D01*
G01*
X10334718Y-10422095D02*
G75*
G03X10334718Y-10422095I-20000J0D01*
G01*
X10408600Y-11518900D02*
G75*
G03X10408600Y-11518900I-20000J0D01*
G01*
X10408600Y-11633200D02*
G75*
G03X10408600Y-11633200I-20000J0D01*
G01*
X10408600Y-11747500D02*
G75*
G03X10408600Y-11747500I-20000J0D01*
G01*
X10426572Y-10311988D02*
G75*
G03X10426572Y-10311988I-20000J0D01*
G01*
X10510200Y-11518900D02*
G75*
G03X10510200Y-11518900I-20000J0D01*
G01*
X10510200Y-11633200D02*
G75*
G03X10510200Y-11633200I-20000J0D01*
G01*
X10510200Y-11747500D02*
G75*
G03X10510200Y-11747500I-20000J0D01*
G01*
X10515000Y-12265000D02*
G75*
G03X10515000Y-12265000I-20000J0D01*
G01*
X10515000Y-12646000D02*
G75*
G03X10515000Y-12646000I-20000J0D01*
G01*
X10523955Y-10201595D02*
G75*
G03X10523955Y-10201595I-20000J0D01*
G01*
X10524549Y-10093157D02*
G75*
G03X10524549Y-10093157I-20000J0D01*
G01*
X10554650Y-13220700D02*
G75*
G03X10554650Y-13220700I-20000J0D01*
G01*
X10769000Y-8074000D02*
G75*
G03X10769000Y-8074000I-20000J0D01*
G01*
X10769000Y-8455000D02*
G75*
G03X10769000Y-8455000I-20000J0D01*
G01*
X10896000Y-12011000D02*
G75*
G03X10896000Y-12011000I-20000J0D01*
G01*
X10896000Y-12138000D02*
G75*
G03X10896000Y-12138000I-20000J0D01*
G01*
X10896000Y-12265000D02*
G75*
G03X10896000Y-12265000I-20000J0D01*
G01*
X10896000Y-12392000D02*
G75*
G03X10896000Y-12392000I-20000J0D01*
G01*
X10896000Y-12519000D02*
G75*
G03X10896000Y-12519000I-20000J0D01*
G01*
X10896000Y-12646000D02*
G75*
G03X10896000Y-12646000I-20000J0D01*
G01*
X10896000Y-12773000D02*
G75*
G03X10896000Y-12773000I-20000J0D01*
G01*
X10999000Y-9935000D02*
G75*
G03X10999000Y-9935000I-20000J0D01*
G01*
X10999000Y-10285000D02*
G75*
G03X10999000Y-10285000I-20000J0D01*
G01*
X10999000Y-10635000D02*
G75*
G03X10999000Y-10635000I-20000J0D01*
G01*
X10999000Y-10985000D02*
G75*
G03X10999000Y-10985000I-20000J0D01*
G01*
X10999000Y-11335000D02*
G75*
G03X10999000Y-11335000I-20000J0D01*
G01*
X11138850Y-9137650D02*
G75*
G03X11138850Y-9137650I-20000J0D01*
G01*
X11150000Y-8074000D02*
G75*
G03X11150000Y-8074000I-20000J0D01*
G01*
X11150000Y-8455000D02*
G75*
G03X11150000Y-8455000I-20000J0D01*
G01*
X11150000Y-8836000D02*
G75*
G03X11150000Y-8836000I-20000J0D01*
G01*
X11150000Y-12011000D02*
G75*
G03X11150000Y-12011000I-20000J0D01*
G01*
X11150000Y-12138000D02*
G75*
G03X11150000Y-12138000I-20000J0D01*
G01*
X11150000Y-12265000D02*
G75*
G03X11150000Y-12265000I-20000J0D01*
G01*
X11150000Y-12646000D02*
G75*
G03X11150000Y-12646000I-20000J0D01*
G01*
X11150000Y-12773000D02*
G75*
G03X11150000Y-12773000I-20000J0D01*
G01*
X11277000Y-12011000D02*
G75*
G03X11277000Y-12011000I-20000J0D01*
G01*
X11277000Y-12138000D02*
G75*
G03X11277000Y-12138000I-20000J0D01*
G01*
X11277000Y-12265000D02*
G75*
G03X11277000Y-12265000I-20000J0D01*
G01*
X11277000Y-12392000D02*
G75*
G03X11277000Y-12392000I-20000J0D01*
G01*
X11349000Y-9935000D02*
G75*
G03X11349000Y-9935000I-20000J0D01*
G01*
X11349000Y-10285000D02*
G75*
G03X11349000Y-10285000I-20000J0D01*
G01*
X11349000Y-10635000D02*
G75*
G03X11349000Y-10635000I-20000J0D01*
G01*
X11349000Y-10985000D02*
G75*
G03X11349000Y-10985000I-20000J0D01*
G01*
X11349000Y-11335000D02*
G75*
G03X11349000Y-11335000I-20000J0D01*
G01*
X11386500Y-12763500D02*
G75*
G03X11386500Y-12763500I-20000J0D01*
G01*
X11531000Y-8074000D02*
G75*
G03X11531000Y-8074000I-20000J0D01*
G01*
X11531000Y-8455000D02*
G75*
G03X11531000Y-8455000I-20000J0D01*
G01*
X11531000Y-8836000D02*
G75*
G03X11531000Y-8836000I-20000J0D01*
G01*
X11531000Y-12265000D02*
G75*
G03X11531000Y-12265000I-20000J0D01*
G01*
X11531000Y-12392000D02*
G75*
G03X11531000Y-12392000I-20000J0D01*
G01*
X11531000Y-12519000D02*
G75*
G03X11531000Y-12519000I-20000J0D01*
G01*
X11633946Y-9003389D02*
G75*
G03X11633946Y-9003389I-20000J0D01*
G01*
X11649000Y-12185000D02*
G75*
G03X11649000Y-12185000I-20000J0D01*
G01*
X11699000Y-9935000D02*
G75*
G03X11699000Y-9935000I-20000J0D01*
G01*
X11699000Y-10285000D02*
G75*
G03X11699000Y-10285000I-20000J0D01*
G01*
X11699000Y-10635000D02*
G75*
G03X11699000Y-10635000I-20000J0D01*
G01*
X11699000Y-10985000D02*
G75*
G03X11699000Y-10985000I-20000J0D01*
G01*
X11699000Y-11335000D02*
G75*
G03X11699000Y-11335000I-20000J0D01*
G01*
X11785000Y-12011000D02*
G75*
G03X11785000Y-12011000I-20000J0D01*
G01*
X11785000Y-12138000D02*
G75*
G03X11785000Y-12138000I-20000J0D01*
G01*
X11912000Y-8074000D02*
G75*
G03X11912000Y-8074000I-20000J0D01*
G01*
X11912000Y-8455000D02*
G75*
G03X11912000Y-8455000I-20000J0D01*
G01*
X11912000Y-8836000D02*
G75*
G03X11912000Y-8836000I-20000J0D01*
G01*
X12275500Y-11049000D02*
G75*
G03X12275500Y-11049000I-20000J0D01*
G01*
X12288200Y-10464800D02*
G75*
G03X12288200Y-10464800I-20000J0D01*
G01*
X12288200Y-10553700D02*
G75*
G03X12288200Y-10553700I-20000J0D01*
G01*
X12288200Y-10642600D02*
G75*
G03X12288200Y-10642600I-20000J0D01*
G01*
X12288200Y-10744200D02*
G75*
G03X12288200Y-10744200I-20000J0D01*
G01*
X12288200Y-11404600D02*
G75*
G03X12288200Y-11404600I-20000J0D01*
G01*
X12292857Y-9871771D02*
G75*
G03X12292857Y-9871771I-20000J0D01*
G01*
X12293000Y-8074000D02*
G75*
G03X12293000Y-8074000I-20000J0D01*
G01*
X12293000Y-8455000D02*
G75*
G03X12293000Y-8455000I-20000J0D01*
G01*
X12293000Y-8836000D02*
G75*
G03X12293000Y-8836000I-20000J0D01*
G01*
X12293000Y-9217000D02*
G75*
G03X12293000Y-9217000I-20000J0D01*
G01*
X12298560Y-10200219D02*
G75*
G03X12298560Y-10200219I-20000J0D01*
G01*
X12674000Y-8074000D02*
G75*
G03X12674000Y-8074000I-20000J0D01*
G01*
X12674000Y-8455000D02*
G75*
G03X12674000Y-8455000I-20000J0D01*
G01*
X12674000Y-8836000D02*
G75*
G03X12674000Y-8836000I-20000J0D01*
G01*
X12821600Y-10890250D02*
G75*
G03X12821600Y-10890250I-20000J0D01*
G01*
X13164500Y-10223500D02*
G75*
G03X13164500Y-10223500I-20000J0D01*
G01*
X13228000Y-10922000D02*
G75*
G03X13228000Y-10922000I-20000J0D01*
G01*
X13228000Y-11112500D02*
G75*
G03X13228000Y-11112500I-20000J0D01*
G01*
X13228000Y-11303000D02*
G75*
G03X13228000Y-11303000I-20000J0D01*
G01*
X13278800Y-8407400D02*
G75*
G03X13278800Y-8407400I-20000J0D01*
G01*
X13355000Y-12369800D02*
G75*
G03X13355000Y-12369800I-20000J0D01*
G01*
X13456600Y-12598400D02*
G75*
G03X13456600Y-12598400I-20000J0D01*
G01*
X13482000Y-9906000D02*
G75*
G03X13482000Y-9906000I-20000J0D01*
G01*
X13532800Y-8407400D02*
G75*
G03X13532800Y-8407400I-20000J0D01*
G01*
X13545500Y-10922000D02*
G75*
G03X13545500Y-10922000I-20000J0D01*
G01*
X13545500Y-11112500D02*
G75*
G03X13545500Y-11112500I-20000J0D01*
G01*
X13545500Y-11303000D02*
G75*
G03X13545500Y-11303000I-20000J0D01*
G01*
X13558200Y-12369800D02*
G75*
G03X13558200Y-12369800I-20000J0D01*
G01*
X13736000Y-10477500D02*
G75*
G03X13736000Y-10477500I-20000J0D01*
G01*
X13786800Y-8407400D02*
G75*
G03X13786800Y-8407400I-20000J0D01*
G01*
X13786800Y-8648700D02*
G75*
G03X13786800Y-8648700I-20000J0D01*
G01*
X13863000Y-10922000D02*
G75*
G03X13863000Y-10922000I-20000J0D01*
G01*
X13863000Y-11112500D02*
G75*
G03X13863000Y-11112500I-20000J0D01*
G01*
X13863000Y-11303000D02*
G75*
G03X13863000Y-11303000I-20000J0D01*
G01*
X13964600Y-9652000D02*
G75*
G03X13964600Y-9652000I-20000J0D01*
G01*
X13964600Y-9969500D02*
G75*
G03X13964600Y-9969500I-20000J0D01*
G01*
X14053500Y-8128000D02*
G75*
G03X14053500Y-8128000I-20000J0D01*
G01*
X14053500Y-8445500D02*
G75*
G03X14053500Y-8445500I-20000J0D01*
G01*
X14053500Y-8763000D02*
G75*
G03X14053500Y-8763000I-20000J0D01*
G01*
X14053500Y-9080500D02*
G75*
G03X14053500Y-9080500I-20000J0D01*
G01*
X14053500Y-10477500D02*
G75*
G03X14053500Y-10477500I-20000J0D01*
G01*
X14129700Y-9652000D02*
G75*
G03X14129700Y-9652000I-20000J0D01*
G01*
X14434500Y-9906000D02*
G75*
G03X14434500Y-9906000I-20000J0D01*
G01*
X14457906Y-10866217D02*
G75*
G03X14457906Y-10866217I-20000J0D01*
G01*
X14815500Y-11874500D02*
G75*
G03X14815500Y-11874500I-20000J0D01*
G01*
X14942500Y-11493500D02*
G75*
G03X14942500Y-11493500I-20000J0D01*
G01*
X15006000Y-9207500D02*
G75*
G03X15006000Y-9207500I-20000J0D01*
G01*
X15006000Y-9461500D02*
G75*
G03X15006000Y-9461500I-20000J0D01*
G01*
X15006000Y-9715500D02*
G75*
G03X15006000Y-9715500I-20000J0D01*
G01*
X15323500Y-9207500D02*
G75*
G03X15323500Y-9207500I-20000J0D01*
G01*
X15323500Y-9461500D02*
G75*
G03X15323500Y-9461500I-20000J0D01*
G01*
X15323500Y-9715500D02*
G75*
G03X15323500Y-9715500I-20000J0D01*
G01*
X15323500Y-12128500D02*
G75*
G03X15323500Y-12128500I-20000J0D01*
G01*
X15361536Y-11114910D02*
G75*
G03X15361536Y-11114910I-20000J0D01*
G01*
X15488600Y-10668000D02*
G75*
G03X15488600Y-10668000I-20000J0D01*
G01*
X15514000Y-8819800D02*
G75*
G03X15514000Y-8819800I-20000J0D01*
G01*
X15577500Y-11239500D02*
G75*
G03X15577500Y-11239500I-20000J0D01*
G01*
X15577500Y-11493500D02*
G75*
G03X15577500Y-11493500I-20000J0D01*
G01*
X15577500Y-12128500D02*
G75*
G03X15577500Y-12128500I-20000J0D01*
G01*
X15615600Y-10668000D02*
G75*
G03X15615600Y-10668000I-20000J0D01*
G01*
X15704500Y-9207500D02*
G75*
G03X15704500Y-9207500I-20000J0D01*
G01*
X15704500Y-9461500D02*
G75*
G03X15704500Y-9461500I-20000J0D01*
G01*
X15704500Y-9715500D02*
G75*
G03X15704500Y-9715500I-20000J0D01*
G01*
X15742600Y-10668000D02*
G75*
G03X15742600Y-10668000I-20000J0D01*
G01*
X15856900Y-10668000D02*
G75*
G03X15856900Y-10668000I-20000J0D01*
G01*
X15958414Y-8998117D02*
G75*
G03X15958414Y-8998117I-20000J0D01*
G01*
X16085500Y-8724900D02*
G75*
G03X16085500Y-8724900I-20000J0D01*
G01*
X16085500Y-9601200D02*
G75*
G03X16085500Y-9601200I-20000J0D01*
G01*
X16200017Y-9448857D02*
G75*
G03X16200017Y-9448857I-20000J0D01*
G01*
X16352218Y-9499591D02*
G75*
G03X16352218Y-9499591I-20000J0D01*
G01*
X16403000Y-11252200D02*
G75*
G03X16403000Y-11252200I-20000J0D01*
G01*
X16551800Y-8924500D02*
G75*
G03X16551800Y-8924500I-20000J0D01*
G01*
X16657000Y-8585200D02*
G75*
G03X16657000Y-8585200I-20000J0D01*
G01*
X16784000Y-8191500D02*
G75*
G03X16784000Y-8191500I-20000J0D01*
G01*
X16860200Y-9347200D02*
G75*
G03X16860200Y-9347200I-20000J0D01*
G01*
X16974500Y-9601200D02*
G75*
G03X16974500Y-9601200I-20000J0D01*
G01*
X17054058Y-10135196D02*
G75*
G03X17054058Y-10135196I-20000J0D01*
G01*
X17406300Y-8496300D02*
G75*
G03X17406300Y-8496300I-20000J0D01*
G01*
X17406300Y-8674100D02*
G75*
G03X17406300Y-8674100I-20000J0D01*
G01*
X17406300Y-8851900D02*
G75*
G03X17406300Y-8851900I-20000J0D01*
G01*
X17406300Y-9029700D02*
G75*
G03X17406300Y-9029700I-20000J0D01*
G01*
X17406300Y-9207500D02*
G75*
G03X17406300Y-9207500I-20000J0D01*
G01*
X17897329Y-8856559D02*
G75*
G03X17897329Y-8856559I-20000J0D01*
G01*
X17952400Y-10160000D02*
G75*
G03X17952400Y-10160000I-20000J0D01*
G01*
X17952400Y-10363200D02*
G75*
G03X17952400Y-10363200I-20000J0D01*
G01*
X17952400Y-10566400D02*
G75*
G03X17952400Y-10566400I-20000J0D01*
G01*
X18130200Y-10160000D02*
G75*
G03X18130200Y-10160000I-20000J0D01*
G01*
X18130200Y-10363200D02*
G75*
G03X18130200Y-10363200I-20000J0D01*
G01*
X18130200Y-10566400D02*
G75*
G03X18130200Y-10566400I-20000J0D01*
G01*
X18308000Y-10160000D02*
G75*
G03X18308000Y-10160000I-20000J0D01*
G01*
X18308000Y-10363200D02*
G75*
G03X18308000Y-10363200I-20000J0D01*
G01*
X18308000Y-10566400D02*
G75*
G03X18308000Y-10566400I-20000J0D01*
G01*
X18396144Y-8740528D02*
G75*
G03X18396144Y-8740528I-20000J0D01*
G01*
X18993800Y-10020300D02*
G75*
G03X18993800Y-10020300I-20000J0D01*
G01*
X10501500Y-12888600D02*
X10501500Y-12934600D01*
X10478500Y-12911600D02*
X10524500Y-12911600D01*
X11377500Y-12888600D02*
X11377500Y-12934600D01*
X11354500Y-12911600D02*
X11400500Y-12911600D01*
X10335949Y-8788349D02*
X10335949Y-8738851D01*
X10286451Y-8738851D01*
X10286451Y-8788349D01*
X10335949Y-8788349D01*
X10335949Y-8948349D02*
X10335949Y-8898851D01*
X10286451Y-8898851D01*
X10286451Y-8948349D01*
X10335949Y-8948349D01*
X10595949Y-8708349D02*
X10595949Y-8658851D01*
X10546451Y-8658851D01*
X10546451Y-8708349D01*
X10595949Y-8708349D01*
X10595949Y-8868349D02*
X10595949Y-8818851D01*
X10546451Y-8818851D01*
X10546451Y-8868349D01*
X10595949Y-8868349D01*
X10595949Y-9028349D02*
X10595949Y-8978851D01*
X10546451Y-8978851D01*
X10546451Y-9028349D01*
X10595949Y-9028349D01*
X10441200Y-8521100D02*
X10483700Y-8478600D01*
X10441200Y-8436100D01*
X10398700Y-8478600D01*
X10441200Y-8521100D01*
X10363700Y-8511100D02*
X10518700Y-8511100D01*
X10363700Y-8446100D02*
X10518700Y-8446100D01*
X10518700Y-8511100D02*
G75*
G03X10518700Y-8446100I0J32500D01*
G01*
X10363700Y-8446100D02*
G75*
G03X10363700Y-8511100I0J-32500D01*
G01*
X10441200Y-9251100D02*
X10483700Y-9208600D01*
X10441200Y-9166100D01*
X10398700Y-9208600D01*
X10441200Y-9251100D01*
X10363700Y-9241100D02*
X10518700Y-9241100D01*
X10363700Y-9176100D02*
X10518700Y-9176100D01*
X10518700Y-9241100D02*
G75*
G03X10518700Y-9176100I0J32500D01*
G01*
X10363700Y-9176100D02*
G75*
G03X10363700Y-9241100I0J-32500D01*
G01*
X14631200Y-8674900D02*
X14731200Y-8774900D01*
X14731200Y-8674900D02*
X14631200Y-8774900D01*
X14731200Y-8724900D02*
G75*
G03X14731200Y-8724900I-50000J0D01*
G01*
X14885200Y-8674900D02*
X14985200Y-8774900D01*
X14985200Y-8674900D02*
X14885200Y-8774900D01*
X14985200Y-8724900D02*
G75*
G03X14985200Y-8724900I-50000J0D01*
G01*
X17811000Y-8024000D02*
X17911000Y-8124000D01*
X17911000Y-8024000D02*
X17811000Y-8124000D01*
X17911000Y-8074000D02*
G75*
G03X17911000Y-8074000I-50000J0D01*
G01*
X18065000Y-8024000D02*
X18165000Y-8124000D01*
X18165000Y-8024000D02*
X18065000Y-8124000D01*
X18165000Y-8074000D02*
G75*
G03X18165000Y-8074000I-50000J0D01*
G01*
X18319000Y-8024000D02*
X18419000Y-8124000D01*
X18419000Y-8024000D02*
X18319000Y-8124000D01*
X18419000Y-8074000D02*
G75*
G03X18419000Y-8074000I-50000J0D01*
G01*
X18345400Y-10911600D02*
X18445400Y-11011600D01*
X18445400Y-10911600D02*
X18345400Y-11011600D01*
X18445400Y-10961600D02*
G75*
G03X18445400Y-10961600I-50000J0D01*
G01*
X18345400Y-12111600D02*
X18445400Y-12211600D01*
X18445400Y-12111600D02*
X18345400Y-12211600D01*
X18445400Y-12161600D02*
G75*
G03X18445400Y-12161600I-50000J0D01*
G01*
X18573000Y-8659000D02*
X18673000Y-8759000D01*
X18673000Y-8659000D02*
X18573000Y-8759000D01*
X18673000Y-8709000D02*
G75*
G03X18673000Y-8709000I-50000J0D01*
G01*
X18573000Y-8913000D02*
X18673000Y-9013000D01*
X18673000Y-8913000D02*
X18573000Y-9013000D01*
X18673000Y-8963000D02*
G75*
G03X18673000Y-8963000I-50000J0D01*
G01*
X18573000Y-9167000D02*
X18673000Y-9267000D01*
X18673000Y-9167000D02*
X18573000Y-9267000D01*
X18673000Y-9217000D02*
G75*
G03X18673000Y-9217000I-50000J0D01*
G01*
X18573000Y-9421000D02*
X18673000Y-9521000D01*
X18673000Y-9421000D02*
X18573000Y-9521000D01*
X18673000Y-9471000D02*
G75*
G03X18673000Y-9471000I-50000J0D01*
G01*
X18573000Y-9675000D02*
X18673000Y-9775000D01*
X18673000Y-9675000D02*
X18573000Y-9775000D01*
X18673000Y-9725000D02*
G75*
G03X18673000Y-9725000I-50000J0D01*
G01*
X14410300Y-8111100D02*
X14520300Y-8221100D01*
X14520300Y-8111100D02*
X14410300Y-8221100D01*
X14465300Y-8111100D02*
X14465300Y-8221100D01*
X14410300Y-8166100D02*
X14520300Y-8166100D01*
X15426300Y-8111100D02*
X15536300Y-8221100D01*
X15536300Y-8111100D02*
X15426300Y-8221100D01*
X15481300Y-8111100D02*
X15481300Y-8221100D01*
X15426300Y-8166100D02*
X15536300Y-8166100D01*
X17105400Y-12101600D02*
X17235400Y-12231600D01*
X17235400Y-12101600D02*
X17105400Y-12231600D01*
X17216362Y-12212562D02*
X17216362Y-12120638D01*
X17124438Y-12120638D01*
X17124438Y-12212562D01*
X17216362Y-12212562D01*
X17110400Y-10896600D02*
X17240400Y-11026600D01*
X17240400Y-10896600D02*
X17110400Y-11026600D01*
X17221362Y-11007562D02*
X17221362Y-10915638D01*
X17129438Y-10915638D01*
X17129438Y-11007562D01*
X17221362Y-11007562D01*
X18525400Y-11501600D02*
X18655400Y-11631600D01*
X18655400Y-11501600D02*
X18525400Y-11631600D01*
X18636362Y-11612562D02*
X18636362Y-11520638D01*
X18544438Y-11520638D01*
X18544438Y-11612562D01*
X18636362Y-11612562D01*
X13669000Y-12591900D02*
X13809000Y-12731900D01*
X13809000Y-12591900D02*
X13669000Y-12731900D01*
X13739000Y-12731900D02*
X13809000Y-12661900D01*
X13739000Y-12591900D01*
X13669000Y-12661900D01*
X13739000Y-12731900D01*
X14177000Y-12591900D02*
X14317000Y-12731900D01*
X14317000Y-12591900D02*
X14177000Y-12731900D01*
X14247000Y-12731900D02*
X14317000Y-12661900D01*
X14247000Y-12591900D01*
X14177000Y-12661900D01*
X14247000Y-12731900D01*
X14685000Y-12591900D02*
X14825000Y-12731900D01*
X14825000Y-12591900D02*
X14685000Y-12731900D01*
X14755000Y-12731900D02*
X14825000Y-12661900D01*
X14755000Y-12591900D01*
X14685000Y-12661900D01*
X14755000Y-12731900D01*
X15193000Y-12591900D02*
X15333000Y-12731900D01*
X15333000Y-12591900D02*
X15193000Y-12731900D01*
X15263000Y-12731900D02*
X15333000Y-12661900D01*
X15263000Y-12591900D01*
X15193000Y-12661900D01*
X15263000Y-12731900D01*
X15701000Y-12591900D02*
X15841000Y-12731900D01*
X15841000Y-12591900D02*
X15701000Y-12731900D01*
X15771000Y-12731900D02*
X15841000Y-12661900D01*
X15771000Y-12591900D01*
X15701000Y-12661900D01*
X15771000Y-12731900D01*
X16209000Y-12591900D02*
X16349000Y-12731900D01*
X16349000Y-12591900D02*
X16209000Y-12731900D01*
X16279000Y-12731900D02*
X16349000Y-12661900D01*
X16279000Y-12591900D01*
X16209000Y-12661900D01*
X16279000Y-12731900D01*
X16717000Y-12591900D02*
X16857000Y-12731900D01*
X16857000Y-12591900D02*
X16717000Y-12731900D01*
X16787000Y-12731900D02*
X16857000Y-12661900D01*
X16787000Y-12591900D01*
X16717000Y-12661900D01*
X16787000Y-12731900D01*
X17225000Y-12591900D02*
X17365000Y-12731900D01*
X17365000Y-12591900D02*
X17225000Y-12731900D01*
X17295000Y-12731900D02*
X17365000Y-12661900D01*
X17295000Y-12591900D01*
X17225000Y-12661900D01*
X17295000Y-12731900D01*
X9879000Y-9050000D02*
X9879000Y-9320000D01*
X9744000Y-9185000D02*
X10014000Y-9185000D01*
X10014000Y-9185000D02*
G75*
G03X10014000Y-9185000I-135000J0D01*
G01*
X9879000Y-12050000D02*
X9879000Y-12320000D01*
X9744000Y-12185000D02*
X10014000Y-12185000D01*
X10014000Y-12185000D02*
G75*
G03X10014000Y-12185000I-135000J0D01*
G01*
X19079000Y-9050000D02*
X19079000Y-9320000D01*
X18944000Y-9185000D02*
X19214000Y-9185000D01*
X19214000Y-9185000D02*
G75*
G03X19214000Y-9185000I-135000J0D01*
G01*
X19079000Y-9050000D02*
X19079000Y-9320000D01*
X18944000Y-9185000D02*
X19214000Y-9185000D01*
X19214000Y-9185000D02*
G75*
G03X19214000Y-9185000I-135000J0D01*
G01*
X19079000Y-12050000D02*
X19079000Y-12320000D01*
X18944000Y-12185000D02*
X19214000Y-12185000D01*
X19214000Y-12185000D02*
G75*
G03X19214000Y-12185000I-135000J0D01*
G01*
D13*
X9745429Y-14005714D02*
X9745429Y-13705714D01*
X9816857Y-13705714D01*
X9859714Y-13720000D01*
X9888286Y-13748571D01*
X9902571Y-13777143D01*
X9916857Y-13834286D01*
X9916857Y-13877143D01*
X9902571Y-13934286D01*
X9888286Y-13962857D01*
X9859714Y-13991429D01*
X9816857Y-14005714D01*
X9745429Y-14005714D01*
X10045429Y-14005714D02*
X10045429Y-13805714D01*
X10045429Y-13862857D02*
X10059714Y-13834286D01*
X10074000Y-13820000D01*
X10102571Y-13805714D01*
X10131143Y-13805714D01*
X10231143Y-14005714D02*
X10231143Y-13805714D01*
X10231143Y-13705714D02*
X10216857Y-13720000D01*
X10231143Y-13734286D01*
X10245429Y-13720000D01*
X10231143Y-13705714D01*
X10231143Y-13734286D01*
X10416857Y-14005714D02*
X10388286Y-13991429D01*
X10374000Y-13962857D01*
X10374000Y-13705714D01*
X10574000Y-14005714D02*
X10545429Y-13991429D01*
X10531143Y-13962857D01*
X10531143Y-13705714D01*
X10916857Y-14005714D02*
X10916857Y-13705714D01*
X11016857Y-13920000D01*
X11116857Y-13705714D01*
X11116857Y-14005714D01*
X11388286Y-14005714D02*
X11388286Y-13848571D01*
X11374000Y-13820000D01*
X11345428Y-13805714D01*
X11288286Y-13805714D01*
X11259714Y-13820000D01*
X11388286Y-13991429D02*
X11359714Y-14005714D01*
X11288286Y-14005714D01*
X11259714Y-13991429D01*
X11245428Y-13962857D01*
X11245428Y-13934286D01*
X11259714Y-13905714D01*
X11288286Y-13891429D01*
X11359714Y-13891429D01*
X11388286Y-13877143D01*
X11531143Y-13805714D02*
X11531143Y-14105714D01*
X11531143Y-13820000D02*
X11559714Y-13805714D01*
X11616857Y-13805714D01*
X11645428Y-13820000D01*
X11659714Y-13834286D01*
X11674000Y-13862857D01*
X11674000Y-13948571D01*
X11659714Y-13977143D01*
X11645428Y-13991429D01*
X11616857Y-14005714D01*
X11559714Y-14005714D01*
X11531143Y-13991429D01*
X11802571Y-13977143D02*
X11816857Y-13991429D01*
X11802571Y-14005714D01*
X11788286Y-13991429D01*
X11802571Y-13977143D01*
X11802571Y-14005714D01*
X11802571Y-13820000D02*
X11816857Y-13834286D01*
X11802571Y-13848571D01*
X11788286Y-13834286D01*
X11802571Y-13820000D01*
X11802571Y-13848571D01*
X9444000Y-14485000D02*
X9474000Y-14515000D01*
X9474000Y-14485000D02*
X9444000Y-14515000D01*
X9802571Y-14335714D02*
X9831143Y-14335714D01*
X9859714Y-14350000D01*
X9874000Y-14364286D01*
X9888286Y-14392857D01*
X9902571Y-14450000D01*
X9902571Y-14521429D01*
X9888286Y-14578571D01*
X9874000Y-14607143D01*
X9859714Y-14621429D01*
X9831143Y-14635714D01*
X9802571Y-14635714D01*
X9774000Y-14621429D01*
X9759714Y-14607143D01*
X9745429Y-14578571D01*
X9731143Y-14521429D01*
X9731143Y-14450000D01*
X9745429Y-14392857D01*
X9759714Y-14364286D01*
X9774000Y-14350000D01*
X9802571Y-14335714D01*
X10031143Y-14607143D02*
X10045429Y-14621429D01*
X10031143Y-14635714D01*
X10016857Y-14621429D01*
X10031143Y-14607143D01*
X10031143Y-14635714D01*
X10145428Y-14335714D02*
X10331143Y-14335714D01*
X10231143Y-14450000D01*
X10274000Y-14450000D01*
X10302571Y-14464286D01*
X10316857Y-14478571D01*
X10331143Y-14507143D01*
X10331143Y-14578571D01*
X10316857Y-14607143D01*
X10302571Y-14621429D01*
X10274000Y-14635714D01*
X10188286Y-14635714D01*
X10159714Y-14621429D01*
X10145428Y-14607143D01*
X10516857Y-14335714D02*
X10545429Y-14335714D01*
X10574000Y-14350000D01*
X10588286Y-14364286D01*
X10602571Y-14392857D01*
X10616857Y-14450000D01*
X10616857Y-14521429D01*
X10602571Y-14578571D01*
X10588286Y-14607143D01*
X10574000Y-14621429D01*
X10545429Y-14635714D01*
X10516857Y-14635714D01*
X10488286Y-14621429D01*
X10474000Y-14607143D01*
X10459714Y-14578571D01*
X10445429Y-14521429D01*
X10445429Y-14450000D01*
X10459714Y-14392857D01*
X10474000Y-14364286D01*
X10488286Y-14350000D01*
X10516857Y-14335714D01*
X10745429Y-14635714D02*
X10745429Y-14435714D01*
X10745429Y-14464286D02*
X10759714Y-14450000D01*
X10788286Y-14435714D01*
X10831143Y-14435714D01*
X10859714Y-14450000D01*
X10874000Y-14478571D01*
X10874000Y-14635714D01*
X10874000Y-14478571D02*
X10888286Y-14450000D01*
X10916857Y-14435714D01*
X10959714Y-14435714D01*
X10988286Y-14450000D01*
X11002571Y-14478571D01*
X11002571Y-14635714D01*
X11145429Y-14635714D02*
X11145429Y-14435714D01*
X11145429Y-14464286D02*
X11159714Y-14450000D01*
X11188286Y-14435714D01*
X11231143Y-14435714D01*
X11259714Y-14450000D01*
X11274000Y-14478571D01*
X11274000Y-14635714D01*
X11274000Y-14478571D02*
X11288286Y-14450000D01*
X11316857Y-14435714D01*
X11359714Y-14435714D01*
X11388286Y-14450000D01*
X11402571Y-14478571D01*
X11402571Y-14635714D01*
X11988286Y-14321429D02*
X11731143Y-14707143D01*
X12374000Y-14335714D02*
X12402571Y-14335714D01*
X12431143Y-14350000D01*
X12445428Y-14364286D01*
X12459714Y-14392857D01*
X12474000Y-14450000D01*
X12474000Y-14521429D01*
X12459714Y-14578571D01*
X12445428Y-14607143D01*
X12431143Y-14621429D01*
X12402571Y-14635714D01*
X12374000Y-14635714D01*
X12345428Y-14621429D01*
X12331143Y-14607143D01*
X12316857Y-14578571D01*
X12302571Y-14521429D01*
X12302571Y-14450000D01*
X12316857Y-14392857D01*
X12331143Y-14364286D01*
X12345428Y-14350000D01*
X12374000Y-14335714D01*
X12602571Y-14607143D02*
X12616857Y-14621429D01*
X12602571Y-14635714D01*
X12588286Y-14621429D01*
X12602571Y-14607143D01*
X12602571Y-14635714D01*
X12802571Y-14335714D02*
X12831143Y-14335714D01*
X12859714Y-14350000D01*
X12874000Y-14364286D01*
X12888285Y-14392857D01*
X12902571Y-14450000D01*
X12902571Y-14521429D01*
X12888285Y-14578571D01*
X12874000Y-14607143D01*
X12859714Y-14621429D01*
X12831143Y-14635714D01*
X12802571Y-14635714D01*
X12774000Y-14621429D01*
X12759714Y-14607143D01*
X12745428Y-14578571D01*
X12731143Y-14521429D01*
X12731143Y-14450000D01*
X12745428Y-14392857D01*
X12759714Y-14364286D01*
X12774000Y-14350000D01*
X12802571Y-14335714D01*
X13188285Y-14635714D02*
X13016857Y-14635714D01*
X13102571Y-14635714D02*
X13102571Y-14335714D01*
X13074000Y-14378571D01*
X13045428Y-14407143D01*
X13016857Y-14421429D01*
X13302571Y-14364286D02*
X13316857Y-14350000D01*
X13345428Y-14335714D01*
X13416857Y-14335714D01*
X13445428Y-14350000D01*
X13459714Y-14364286D01*
X13474000Y-14392857D01*
X13474000Y-14421429D01*
X13459714Y-14464286D01*
X13288285Y-14635714D01*
X13474000Y-14635714D01*
X13588286Y-14335714D02*
X13588286Y-14392857D01*
X13702571Y-14335714D02*
X13702571Y-14392857D01*
X14145428Y-14750000D02*
X14131143Y-14735714D01*
X14102571Y-14692857D01*
X14088285Y-14664286D01*
X14074000Y-14621429D01*
X14059714Y-14550000D01*
X14059714Y-14492857D01*
X14074000Y-14421429D01*
X14088285Y-14378571D01*
X14102571Y-14350000D01*
X14131143Y-14307143D01*
X14145428Y-14292857D01*
X14416857Y-14635714D02*
X14245428Y-14635714D01*
X14331143Y-14635714D02*
X14331143Y-14335714D01*
X14302571Y-14378571D01*
X14274000Y-14407143D01*
X14245428Y-14421429D01*
X14588285Y-14464286D02*
X14559714Y-14450000D01*
X14545428Y-14435714D01*
X14531143Y-14407143D01*
X14531143Y-14392857D01*
X14545428Y-14364286D01*
X14559714Y-14350000D01*
X14588285Y-14335714D01*
X14645428Y-14335714D01*
X14674000Y-14350000D01*
X14688285Y-14364286D01*
X14702571Y-14392857D01*
X14702571Y-14407143D01*
X14688285Y-14435714D01*
X14674000Y-14450000D01*
X14645428Y-14464286D01*
X14588285Y-14464286D01*
X14559714Y-14478571D01*
X14545428Y-14492857D01*
X14531143Y-14521429D01*
X14531143Y-14578571D01*
X14545428Y-14607143D01*
X14559714Y-14621429D01*
X14588285Y-14635714D01*
X14645428Y-14635714D01*
X14674000Y-14621429D01*
X14688285Y-14607143D01*
X14702571Y-14578571D01*
X14702571Y-14521429D01*
X14688285Y-14492857D01*
X14674000Y-14478571D01*
X14645428Y-14464286D01*
X15059714Y-14635714D02*
X15059714Y-14335714D01*
X15188285Y-14635714D02*
X15188285Y-14478571D01*
X15174000Y-14450000D01*
X15145428Y-14435714D01*
X15102571Y-14435714D01*
X15074000Y-14450000D01*
X15059714Y-14464286D01*
X15374000Y-14635714D02*
X15345428Y-14621429D01*
X15331143Y-14607143D01*
X15316857Y-14578571D01*
X15316857Y-14492857D01*
X15331143Y-14464286D01*
X15345428Y-14450000D01*
X15374000Y-14435714D01*
X15416857Y-14435714D01*
X15445428Y-14450000D01*
X15459714Y-14464286D01*
X15474000Y-14492857D01*
X15474000Y-14578571D01*
X15459714Y-14607143D01*
X15445428Y-14621429D01*
X15416857Y-14635714D01*
X15374000Y-14635714D01*
X15645428Y-14635714D02*
X15616857Y-14621429D01*
X15602571Y-14592857D01*
X15602571Y-14335714D01*
X15874000Y-14621429D02*
X15845428Y-14635714D01*
X15788286Y-14635714D01*
X15759714Y-14621429D01*
X15745428Y-14592857D01*
X15745428Y-14478571D01*
X15759714Y-14450000D01*
X15788286Y-14435714D01*
X15845428Y-14435714D01*
X15874000Y-14450000D01*
X15888286Y-14478571D01*
X15888286Y-14507143D01*
X15745428Y-14535714D01*
X16002571Y-14621429D02*
X16031143Y-14635714D01*
X16088286Y-14635714D01*
X16116857Y-14621429D01*
X16131143Y-14592857D01*
X16131143Y-14578571D01*
X16116857Y-14550000D01*
X16088286Y-14535714D01*
X16045428Y-14535714D01*
X16016857Y-14521429D01*
X16002571Y-14492857D01*
X16002571Y-14478571D01*
X16016857Y-14450000D01*
X16045428Y-14435714D01*
X16088286Y-14435714D01*
X16116857Y-14450000D01*
X16231143Y-14750000D02*
X16245428Y-14735714D01*
X16274000Y-14692857D01*
X16288286Y-14664286D01*
X16302571Y-14621429D01*
X16316857Y-14550000D01*
X16316857Y-14492857D01*
X16302571Y-14421429D01*
X16288286Y-14378571D01*
X16274000Y-14350000D01*
X16245428Y-14307143D01*
X16231143Y-14292857D01*
X9474000Y-14896000D02*
G75*
G03X9474000Y-14896000I-20000J0D01*
G01*
X9802571Y-14731714D02*
X9831143Y-14731714D01*
X9859714Y-14746000D01*
X9874000Y-14760286D01*
X9888286Y-14788857D01*
X9902571Y-14846000D01*
X9902571Y-14917429D01*
X9888286Y-14974571D01*
X9874000Y-15003143D01*
X9859714Y-15017429D01*
X9831143Y-15031714D01*
X9802571Y-15031714D01*
X9774000Y-15017429D01*
X9759714Y-15003143D01*
X9745429Y-14974571D01*
X9731143Y-14917429D01*
X9731143Y-14846000D01*
X9745429Y-14788857D01*
X9759714Y-14760286D01*
X9774000Y-14746000D01*
X9802571Y-14731714D01*
X10031143Y-15003143D02*
X10045429Y-15017429D01*
X10031143Y-15031714D01*
X10016857Y-15017429D01*
X10031143Y-15003143D01*
X10031143Y-15031714D01*
X10302571Y-14831714D02*
X10302571Y-15031714D01*
X10231143Y-14717429D02*
X10159714Y-14931714D01*
X10345428Y-14931714D01*
X10516857Y-14731714D02*
X10545429Y-14731714D01*
X10574000Y-14746000D01*
X10588286Y-14760286D01*
X10602571Y-14788857D01*
X10616857Y-14846000D01*
X10616857Y-14917429D01*
X10602571Y-14974571D01*
X10588286Y-15003143D01*
X10574000Y-15017429D01*
X10545429Y-15031714D01*
X10516857Y-15031714D01*
X10488286Y-15017429D01*
X10474000Y-15003143D01*
X10459714Y-14974571D01*
X10445429Y-14917429D01*
X10445429Y-14846000D01*
X10459714Y-14788857D01*
X10474000Y-14760286D01*
X10488286Y-14746000D01*
X10516857Y-14731714D01*
X10745429Y-15031714D02*
X10745429Y-14831714D01*
X10745429Y-14860286D02*
X10759714Y-14846000D01*
X10788286Y-14831714D01*
X10831143Y-14831714D01*
X10859714Y-14846000D01*
X10874000Y-14874571D01*
X10874000Y-15031714D01*
X10874000Y-14874571D02*
X10888286Y-14846000D01*
X10916857Y-14831714D01*
X10959714Y-14831714D01*
X10988286Y-14846000D01*
X11002571Y-14874571D01*
X11002571Y-15031714D01*
X11145429Y-15031714D02*
X11145429Y-14831714D01*
X11145429Y-14860286D02*
X11159714Y-14846000D01*
X11188286Y-14831714D01*
X11231143Y-14831714D01*
X11259714Y-14846000D01*
X11274000Y-14874571D01*
X11274000Y-15031714D01*
X11274000Y-14874571D02*
X11288286Y-14846000D01*
X11316857Y-14831714D01*
X11359714Y-14831714D01*
X11388286Y-14846000D01*
X11402571Y-14874571D01*
X11402571Y-15031714D01*
X11988286Y-14717429D02*
X11731143Y-15103143D01*
X12374000Y-14731714D02*
X12402571Y-14731714D01*
X12431143Y-14746000D01*
X12445428Y-14760286D01*
X12459714Y-14788857D01*
X12474000Y-14846000D01*
X12474000Y-14917429D01*
X12459714Y-14974571D01*
X12445428Y-15003143D01*
X12431143Y-15017429D01*
X12402571Y-15031714D01*
X12374000Y-15031714D01*
X12345428Y-15017429D01*
X12331143Y-15003143D01*
X12316857Y-14974571D01*
X12302571Y-14917429D01*
X12302571Y-14846000D01*
X12316857Y-14788857D01*
X12331143Y-14760286D01*
X12345428Y-14746000D01*
X12374000Y-14731714D01*
X12602571Y-15003143D02*
X12616857Y-15017429D01*
X12602571Y-15031714D01*
X12588286Y-15017429D01*
X12602571Y-15003143D01*
X12602571Y-15031714D01*
X12802571Y-14731714D02*
X12831143Y-14731714D01*
X12859714Y-14746000D01*
X12874000Y-14760286D01*
X12888285Y-14788857D01*
X12902571Y-14846000D01*
X12902571Y-14917429D01*
X12888285Y-14974571D01*
X12874000Y-15003143D01*
X12859714Y-15017429D01*
X12831143Y-15031714D01*
X12802571Y-15031714D01*
X12774000Y-15017429D01*
X12759714Y-15003143D01*
X12745428Y-14974571D01*
X12731143Y-14917429D01*
X12731143Y-14846000D01*
X12745428Y-14788857D01*
X12759714Y-14760286D01*
X12774000Y-14746000D01*
X12802571Y-14731714D01*
X13188285Y-15031714D02*
X13016857Y-15031714D01*
X13102571Y-15031714D02*
X13102571Y-14731714D01*
X13074000Y-14774571D01*
X13045428Y-14803143D01*
X13016857Y-14817429D01*
X13445428Y-14731714D02*
X13388285Y-14731714D01*
X13359714Y-14746000D01*
X13345428Y-14760286D01*
X13316857Y-14803143D01*
X13302571Y-14860286D01*
X13302571Y-14974571D01*
X13316857Y-15003143D01*
X13331143Y-15017429D01*
X13359714Y-15031714D01*
X13416857Y-15031714D01*
X13445428Y-15017429D01*
X13459714Y-15003143D01*
X13474000Y-14974571D01*
X13474000Y-14903143D01*
X13459714Y-14874571D01*
X13445428Y-14860286D01*
X13416857Y-14846000D01*
X13359714Y-14846000D01*
X13331143Y-14860286D01*
X13316857Y-14874571D01*
X13302571Y-14903143D01*
X13588286Y-14731714D02*
X13588286Y-14788857D01*
X13702571Y-14731714D02*
X13702571Y-14788857D01*
X14145428Y-15146000D02*
X14131143Y-15131714D01*
X14102571Y-15088857D01*
X14088285Y-15060286D01*
X14074000Y-15017429D01*
X14059714Y-14946000D01*
X14059714Y-14888857D01*
X14074000Y-14817429D01*
X14088285Y-14774571D01*
X14102571Y-14746000D01*
X14131143Y-14703143D01*
X14145428Y-14688857D01*
X14416857Y-15031714D02*
X14245428Y-15031714D01*
X14331143Y-15031714D02*
X14331143Y-14731714D01*
X14302571Y-14774571D01*
X14274000Y-14803143D01*
X14245428Y-14817429D01*
X14674000Y-14731714D02*
X14616857Y-14731714D01*
X14588285Y-14746000D01*
X14574000Y-14760286D01*
X14545428Y-14803143D01*
X14531143Y-14860286D01*
X14531143Y-14974571D01*
X14545428Y-15003143D01*
X14559714Y-15017429D01*
X14588285Y-15031714D01*
X14645428Y-15031714D01*
X14674000Y-15017429D01*
X14688285Y-15003143D01*
X14702571Y-14974571D01*
X14702571Y-14903143D01*
X14688285Y-14874571D01*
X14674000Y-14860286D01*
X14645428Y-14846000D01*
X14588285Y-14846000D01*
X14559714Y-14860286D01*
X14545428Y-14874571D01*
X14531143Y-14903143D01*
X14845428Y-15031714D02*
X14902571Y-15031714D01*
X14931143Y-15017429D01*
X14945428Y-15003143D01*
X14974000Y-14960286D01*
X14988285Y-14903143D01*
X14988285Y-14788857D01*
X14974000Y-14760286D01*
X14959714Y-14746000D01*
X14931143Y-14731714D01*
X14874000Y-14731714D01*
X14845428Y-14746000D01*
X14831143Y-14760286D01*
X14816857Y-14788857D01*
X14816857Y-14860286D01*
X14831143Y-14888857D01*
X14845428Y-14903143D01*
X14874000Y-14917429D01*
X14931143Y-14917429D01*
X14959714Y-14903143D01*
X14974000Y-14888857D01*
X14988285Y-14860286D01*
X15345428Y-15031714D02*
X15345428Y-14731714D01*
X15474000Y-15031714D02*
X15474000Y-14874571D01*
X15459714Y-14846000D01*
X15431143Y-14831714D01*
X15388285Y-14831714D01*
X15359714Y-14846000D01*
X15345428Y-14860286D01*
X15659714Y-15031714D02*
X15631143Y-15017429D01*
X15616857Y-15003143D01*
X15602571Y-14974571D01*
X15602571Y-14888857D01*
X15616857Y-14860286D01*
X15631143Y-14846000D01*
X15659714Y-14831714D01*
X15702571Y-14831714D01*
X15731143Y-14846000D01*
X15745428Y-14860286D01*
X15759714Y-14888857D01*
X15759714Y-14974571D01*
X15745428Y-15003143D01*
X15731143Y-15017429D01*
X15702571Y-15031714D01*
X15659714Y-15031714D01*
X15931143Y-15031714D02*
X15902571Y-15017429D01*
X15888286Y-14988857D01*
X15888286Y-14731714D01*
X16159714Y-15017429D02*
X16131143Y-15031714D01*
X16074000Y-15031714D01*
X16045428Y-15017429D01*
X16031143Y-14988857D01*
X16031143Y-14874571D01*
X16045428Y-14846000D01*
X16074000Y-14831714D01*
X16131143Y-14831714D01*
X16159714Y-14846000D01*
X16174000Y-14874571D01*
X16174000Y-14903143D01*
X16031143Y-14931714D01*
X16288286Y-15017429D02*
X16316857Y-15031714D01*
X16374000Y-15031714D01*
X16402571Y-15017429D01*
X16416857Y-14988857D01*
X16416857Y-14974571D01*
X16402571Y-14946000D01*
X16374000Y-14931714D01*
X16331143Y-14931714D01*
X16302571Y-14917429D01*
X16288286Y-14888857D01*
X16288286Y-14874571D01*
X16302571Y-14846000D01*
X16331143Y-14831714D01*
X16374000Y-14831714D01*
X16402571Y-14846000D01*
X16516857Y-15146000D02*
X16531143Y-15131714D01*
X16559714Y-15088857D01*
X16574000Y-15060286D01*
X16588286Y-15017429D01*
X16602571Y-14946000D01*
X16602571Y-14888857D01*
X16588286Y-14817429D01*
X16574000Y-14774571D01*
X16559714Y-14746000D01*
X16531143Y-14703143D01*
X16516857Y-14688857D01*
X9451000Y-15269000D02*
X9451000Y-15315000D01*
X9428000Y-15292000D02*
X9474000Y-15292000D01*
X9802571Y-15127714D02*
X9831143Y-15127714D01*
X9859714Y-15142000D01*
X9874000Y-15156286D01*
X9888286Y-15184857D01*
X9902571Y-15242000D01*
X9902571Y-15313429D01*
X9888286Y-15370571D01*
X9874000Y-15399143D01*
X9859714Y-15413429D01*
X9831143Y-15427714D01*
X9802571Y-15427714D01*
X9774000Y-15413429D01*
X9759714Y-15399143D01*
X9745429Y-15370571D01*
X9731143Y-15313429D01*
X9731143Y-15242000D01*
X9745429Y-15184857D01*
X9759714Y-15156286D01*
X9774000Y-15142000D01*
X9802571Y-15127714D01*
X10031143Y-15399143D02*
X10045429Y-15413429D01*
X10031143Y-15427714D01*
X10016857Y-15413429D01*
X10031143Y-15399143D01*
X10031143Y-15427714D01*
X10302571Y-15227714D02*
X10302571Y-15427714D01*
X10231143Y-15113429D02*
X10159714Y-15327714D01*
X10345428Y-15327714D01*
X10588286Y-15127714D02*
X10531143Y-15127714D01*
X10502571Y-15142000D01*
X10488286Y-15156286D01*
X10459714Y-15199143D01*
X10445429Y-15256286D01*
X10445429Y-15370571D01*
X10459714Y-15399143D01*
X10474000Y-15413429D01*
X10502571Y-15427714D01*
X10559714Y-15427714D01*
X10588286Y-15413429D01*
X10602571Y-15399143D01*
X10616857Y-15370571D01*
X10616857Y-15299143D01*
X10602571Y-15270571D01*
X10588286Y-15256286D01*
X10559714Y-15242000D01*
X10502571Y-15242000D01*
X10474000Y-15256286D01*
X10459714Y-15270571D01*
X10445429Y-15299143D01*
X10745429Y-15427714D02*
X10745429Y-15227714D01*
X10745429Y-15256286D02*
X10759714Y-15242000D01*
X10788286Y-15227714D01*
X10831143Y-15227714D01*
X10859714Y-15242000D01*
X10874000Y-15270571D01*
X10874000Y-15427714D01*
X10874000Y-15270571D02*
X10888286Y-15242000D01*
X10916857Y-15227714D01*
X10959714Y-15227714D01*
X10988286Y-15242000D01*
X11002571Y-15270571D01*
X11002571Y-15427714D01*
X11145429Y-15427714D02*
X11145429Y-15227714D01*
X11145429Y-15256286D02*
X11159714Y-15242000D01*
X11188286Y-15227714D01*
X11231143Y-15227714D01*
X11259714Y-15242000D01*
X11274000Y-15270571D01*
X11274000Y-15427714D01*
X11274000Y-15270571D02*
X11288286Y-15242000D01*
X11316857Y-15227714D01*
X11359714Y-15227714D01*
X11388286Y-15242000D01*
X11402571Y-15270571D01*
X11402571Y-15427714D01*
X11988286Y-15113429D02*
X11731143Y-15499143D01*
X12374000Y-15127714D02*
X12402571Y-15127714D01*
X12431143Y-15142000D01*
X12445428Y-15156286D01*
X12459714Y-15184857D01*
X12474000Y-15242000D01*
X12474000Y-15313429D01*
X12459714Y-15370571D01*
X12445428Y-15399143D01*
X12431143Y-15413429D01*
X12402571Y-15427714D01*
X12374000Y-15427714D01*
X12345428Y-15413429D01*
X12331143Y-15399143D01*
X12316857Y-15370571D01*
X12302571Y-15313429D01*
X12302571Y-15242000D01*
X12316857Y-15184857D01*
X12331143Y-15156286D01*
X12345428Y-15142000D01*
X12374000Y-15127714D01*
X12602571Y-15399143D02*
X12616857Y-15413429D01*
X12602571Y-15427714D01*
X12588286Y-15413429D01*
X12602571Y-15399143D01*
X12602571Y-15427714D01*
X12802571Y-15127714D02*
X12831143Y-15127714D01*
X12859714Y-15142000D01*
X12874000Y-15156286D01*
X12888285Y-15184857D01*
X12902571Y-15242000D01*
X12902571Y-15313429D01*
X12888285Y-15370571D01*
X12874000Y-15399143D01*
X12859714Y-15413429D01*
X12831143Y-15427714D01*
X12802571Y-15427714D01*
X12774000Y-15413429D01*
X12759714Y-15399143D01*
X12745428Y-15370571D01*
X12731143Y-15313429D01*
X12731143Y-15242000D01*
X12745428Y-15184857D01*
X12759714Y-15156286D01*
X12774000Y-15142000D01*
X12802571Y-15127714D01*
X13188285Y-15427714D02*
X13016857Y-15427714D01*
X13102571Y-15427714D02*
X13102571Y-15127714D01*
X13074000Y-15170571D01*
X13045428Y-15199143D01*
X13016857Y-15213429D01*
X13359714Y-15256286D02*
X13331143Y-15242000D01*
X13316857Y-15227714D01*
X13302571Y-15199143D01*
X13302571Y-15184857D01*
X13316857Y-15156286D01*
X13331143Y-15142000D01*
X13359714Y-15127714D01*
X13416857Y-15127714D01*
X13445428Y-15142000D01*
X13459714Y-15156286D01*
X13474000Y-15184857D01*
X13474000Y-15199143D01*
X13459714Y-15227714D01*
X13445428Y-15242000D01*
X13416857Y-15256286D01*
X13359714Y-15256286D01*
X13331143Y-15270571D01*
X13316857Y-15284857D01*
X13302571Y-15313429D01*
X13302571Y-15370571D01*
X13316857Y-15399143D01*
X13331143Y-15413429D01*
X13359714Y-15427714D01*
X13416857Y-15427714D01*
X13445428Y-15413429D01*
X13459714Y-15399143D01*
X13474000Y-15370571D01*
X13474000Y-15313429D01*
X13459714Y-15284857D01*
X13445428Y-15270571D01*
X13416857Y-15256286D01*
X13588286Y-15127714D02*
X13588286Y-15184857D01*
X13702571Y-15127714D02*
X13702571Y-15184857D01*
X14145428Y-15542000D02*
X14131143Y-15527714D01*
X14102571Y-15484857D01*
X14088285Y-15456286D01*
X14074000Y-15413429D01*
X14059714Y-15342000D01*
X14059714Y-15284857D01*
X14074000Y-15213429D01*
X14088285Y-15170571D01*
X14102571Y-15142000D01*
X14131143Y-15099143D01*
X14145428Y-15084857D01*
X14245428Y-15156286D02*
X14259714Y-15142000D01*
X14288285Y-15127714D01*
X14359714Y-15127714D01*
X14388285Y-15142000D01*
X14402571Y-15156286D01*
X14416857Y-15184857D01*
X14416857Y-15213429D01*
X14402571Y-15256286D01*
X14231143Y-15427714D01*
X14416857Y-15427714D01*
X14774000Y-15427714D02*
X14774000Y-15127714D01*
X14902571Y-15427714D02*
X14902571Y-15270571D01*
X14888285Y-15242000D01*
X14859714Y-15227714D01*
X14816857Y-15227714D01*
X14788285Y-15242000D01*
X14774000Y-15256286D01*
X15088285Y-15427714D02*
X15059714Y-15413429D01*
X15045428Y-15399143D01*
X15031143Y-15370571D01*
X15031143Y-15284857D01*
X15045428Y-15256286D01*
X15059714Y-15242000D01*
X15088285Y-15227714D01*
X15131143Y-15227714D01*
X15159714Y-15242000D01*
X15174000Y-15256286D01*
X15188285Y-15284857D01*
X15188285Y-15370571D01*
X15174000Y-15399143D01*
X15159714Y-15413429D01*
X15131143Y-15427714D01*
X15088285Y-15427714D01*
X15359714Y-15427714D02*
X15331143Y-15413429D01*
X15316857Y-15384857D01*
X15316857Y-15127714D01*
X15588286Y-15413429D02*
X15559714Y-15427714D01*
X15502571Y-15427714D01*
X15474000Y-15413429D01*
X15459714Y-15384857D01*
X15459714Y-15270571D01*
X15474000Y-15242000D01*
X15502571Y-15227714D01*
X15559714Y-15227714D01*
X15588286Y-15242000D01*
X15602571Y-15270571D01*
X15602571Y-15299143D01*
X15459714Y-15327714D01*
X15716857Y-15413429D02*
X15745428Y-15427714D01*
X15802571Y-15427714D01*
X15831143Y-15413429D01*
X15845428Y-15384857D01*
X15845428Y-15370571D01*
X15831143Y-15342000D01*
X15802571Y-15327714D01*
X15759714Y-15327714D01*
X15731143Y-15313429D01*
X15716857Y-15284857D01*
X15716857Y-15270571D01*
X15731143Y-15242000D01*
X15759714Y-15227714D01*
X15802571Y-15227714D01*
X15831143Y-15242000D01*
X15945428Y-15542000D02*
X15959714Y-15527714D01*
X15988286Y-15484857D01*
X16002571Y-15456286D01*
X16016857Y-15413429D01*
X16031143Y-15342000D01*
X16031143Y-15284857D01*
X16016857Y-15213429D01*
X16002571Y-15170571D01*
X15988286Y-15142000D01*
X15959714Y-15099143D01*
X15945428Y-15084857D01*
X9463749Y-15712749D02*
X9463749Y-15663251D01*
X9414251Y-15663251D01*
X9414251Y-15712749D01*
X9463749Y-15712749D01*
X9802571Y-15523714D02*
X9831143Y-15523714D01*
X9859714Y-15538000D01*
X9874000Y-15552286D01*
X9888286Y-15580857D01*
X9902571Y-15638000D01*
X9902571Y-15709429D01*
X9888286Y-15766571D01*
X9874000Y-15795143D01*
X9859714Y-15809429D01*
X9831143Y-15823714D01*
X9802571Y-15823714D01*
X9774000Y-15809429D01*
X9759714Y-15795143D01*
X9745429Y-15766571D01*
X9731143Y-15709429D01*
X9731143Y-15638000D01*
X9745429Y-15580857D01*
X9759714Y-15552286D01*
X9774000Y-15538000D01*
X9802571Y-15523714D01*
X10031143Y-15795143D02*
X10045429Y-15809429D01*
X10031143Y-15823714D01*
X10016857Y-15809429D01*
X10031143Y-15795143D01*
X10031143Y-15823714D01*
X10145428Y-15523714D02*
X10345428Y-15523714D01*
X10216857Y-15823714D01*
X10516857Y-15523714D02*
X10545429Y-15523714D01*
X10574000Y-15538000D01*
X10588286Y-15552286D01*
X10602571Y-15580857D01*
X10616857Y-15638000D01*
X10616857Y-15709429D01*
X10602571Y-15766571D01*
X10588286Y-15795143D01*
X10574000Y-15809429D01*
X10545429Y-15823714D01*
X10516857Y-15823714D01*
X10488286Y-15809429D01*
X10474000Y-15795143D01*
X10459714Y-15766571D01*
X10445429Y-15709429D01*
X10445429Y-15638000D01*
X10459714Y-15580857D01*
X10474000Y-15552286D01*
X10488286Y-15538000D01*
X10516857Y-15523714D01*
X10745429Y-15823714D02*
X10745429Y-15623714D01*
X10745429Y-15652286D02*
X10759714Y-15638000D01*
X10788286Y-15623714D01*
X10831143Y-15623714D01*
X10859714Y-15638000D01*
X10874000Y-15666571D01*
X10874000Y-15823714D01*
X10874000Y-15666571D02*
X10888286Y-15638000D01*
X10916857Y-15623714D01*
X10959714Y-15623714D01*
X10988286Y-15638000D01*
X11002571Y-15666571D01*
X11002571Y-15823714D01*
X11145429Y-15823714D02*
X11145429Y-15623714D01*
X11145429Y-15652286D02*
X11159714Y-15638000D01*
X11188286Y-15623714D01*
X11231143Y-15623714D01*
X11259714Y-15638000D01*
X11274000Y-15666571D01*
X11274000Y-15823714D01*
X11274000Y-15666571D02*
X11288286Y-15638000D01*
X11316857Y-15623714D01*
X11359714Y-15623714D01*
X11388286Y-15638000D01*
X11402571Y-15666571D01*
X11402571Y-15823714D01*
X11988286Y-15509429D02*
X11731143Y-15895143D01*
X12374000Y-15523714D02*
X12402571Y-15523714D01*
X12431143Y-15538000D01*
X12445428Y-15552286D01*
X12459714Y-15580857D01*
X12474000Y-15638000D01*
X12474000Y-15709429D01*
X12459714Y-15766571D01*
X12445428Y-15795143D01*
X12431143Y-15809429D01*
X12402571Y-15823714D01*
X12374000Y-15823714D01*
X12345428Y-15809429D01*
X12331143Y-15795143D01*
X12316857Y-15766571D01*
X12302571Y-15709429D01*
X12302571Y-15638000D01*
X12316857Y-15580857D01*
X12331143Y-15552286D01*
X12345428Y-15538000D01*
X12374000Y-15523714D01*
X12602571Y-15795143D02*
X12616857Y-15809429D01*
X12602571Y-15823714D01*
X12588286Y-15809429D01*
X12602571Y-15795143D01*
X12602571Y-15823714D01*
X12802571Y-15523714D02*
X12831143Y-15523714D01*
X12859714Y-15538000D01*
X12874000Y-15552286D01*
X12888285Y-15580857D01*
X12902571Y-15638000D01*
X12902571Y-15709429D01*
X12888285Y-15766571D01*
X12874000Y-15795143D01*
X12859714Y-15809429D01*
X12831143Y-15823714D01*
X12802571Y-15823714D01*
X12774000Y-15809429D01*
X12759714Y-15795143D01*
X12745428Y-15766571D01*
X12731143Y-15709429D01*
X12731143Y-15638000D01*
X12745428Y-15580857D01*
X12759714Y-15552286D01*
X12774000Y-15538000D01*
X12802571Y-15523714D01*
X13016857Y-15552286D02*
X13031143Y-15538000D01*
X13059714Y-15523714D01*
X13131143Y-15523714D01*
X13159714Y-15538000D01*
X13174000Y-15552286D01*
X13188285Y-15580857D01*
X13188285Y-15609429D01*
X13174000Y-15652286D01*
X13002571Y-15823714D01*
X13188285Y-15823714D01*
X13359714Y-15652286D02*
X13331143Y-15638000D01*
X13316857Y-15623714D01*
X13302571Y-15595143D01*
X13302571Y-15580857D01*
X13316857Y-15552286D01*
X13331143Y-15538000D01*
X13359714Y-15523714D01*
X13416857Y-15523714D01*
X13445428Y-15538000D01*
X13459714Y-15552286D01*
X13474000Y-15580857D01*
X13474000Y-15595143D01*
X13459714Y-15623714D01*
X13445428Y-15638000D01*
X13416857Y-15652286D01*
X13359714Y-15652286D01*
X13331143Y-15666571D01*
X13316857Y-15680857D01*
X13302571Y-15709429D01*
X13302571Y-15766571D01*
X13316857Y-15795143D01*
X13331143Y-15809429D01*
X13359714Y-15823714D01*
X13416857Y-15823714D01*
X13445428Y-15809429D01*
X13459714Y-15795143D01*
X13474000Y-15766571D01*
X13474000Y-15709429D01*
X13459714Y-15680857D01*
X13445428Y-15666571D01*
X13416857Y-15652286D01*
X13588286Y-15523714D02*
X13588286Y-15580857D01*
X13702571Y-15523714D02*
X13702571Y-15580857D01*
X14145428Y-15938000D02*
X14131143Y-15923714D01*
X14102571Y-15880857D01*
X14088285Y-15852286D01*
X14074000Y-15809429D01*
X14059714Y-15738000D01*
X14059714Y-15680857D01*
X14074000Y-15609429D01*
X14088285Y-15566571D01*
X14102571Y-15538000D01*
X14131143Y-15495143D01*
X14145428Y-15480857D01*
X14402571Y-15523714D02*
X14259714Y-15523714D01*
X14245428Y-15666571D01*
X14259714Y-15652286D01*
X14288285Y-15638000D01*
X14359714Y-15638000D01*
X14388285Y-15652286D01*
X14402571Y-15666571D01*
X14416857Y-15695143D01*
X14416857Y-15766571D01*
X14402571Y-15795143D01*
X14388285Y-15809429D01*
X14359714Y-15823714D01*
X14288285Y-15823714D01*
X14259714Y-15809429D01*
X14245428Y-15795143D01*
X14774000Y-15823714D02*
X14774000Y-15523714D01*
X14902571Y-15823714D02*
X14902571Y-15666571D01*
X14888285Y-15638000D01*
X14859714Y-15623714D01*
X14816857Y-15623714D01*
X14788285Y-15638000D01*
X14774000Y-15652286D01*
X15088285Y-15823714D02*
X15059714Y-15809429D01*
X15045428Y-15795143D01*
X15031143Y-15766571D01*
X15031143Y-15680857D01*
X15045428Y-15652286D01*
X15059714Y-15638000D01*
X15088285Y-15623714D01*
X15131143Y-15623714D01*
X15159714Y-15638000D01*
X15174000Y-15652286D01*
X15188285Y-15680857D01*
X15188285Y-15766571D01*
X15174000Y-15795143D01*
X15159714Y-15809429D01*
X15131143Y-15823714D01*
X15088285Y-15823714D01*
X15359714Y-15823714D02*
X15331143Y-15809429D01*
X15316857Y-15780857D01*
X15316857Y-15523714D01*
X15588286Y-15809429D02*
X15559714Y-15823714D01*
X15502571Y-15823714D01*
X15474000Y-15809429D01*
X15459714Y-15780857D01*
X15459714Y-15666571D01*
X15474000Y-15638000D01*
X15502571Y-15623714D01*
X15559714Y-15623714D01*
X15588286Y-15638000D01*
X15602571Y-15666571D01*
X15602571Y-15695143D01*
X15459714Y-15723714D01*
X15716857Y-15809429D02*
X15745428Y-15823714D01*
X15802571Y-15823714D01*
X15831143Y-15809429D01*
X15845428Y-15780857D01*
X15845428Y-15766571D01*
X15831143Y-15738000D01*
X15802571Y-15723714D01*
X15759714Y-15723714D01*
X15731143Y-15709429D01*
X15716857Y-15680857D01*
X15716857Y-15666571D01*
X15731143Y-15638000D01*
X15759714Y-15623714D01*
X15802571Y-15623714D01*
X15831143Y-15638000D01*
X15945428Y-15938000D02*
X15959714Y-15923714D01*
X15988286Y-15880857D01*
X16002571Y-15852286D01*
X16016857Y-15809429D01*
X16031143Y-15738000D01*
X16031143Y-15680857D01*
X16016857Y-15609429D01*
X16002571Y-15566571D01*
X15988286Y-15538000D01*
X15959714Y-15495143D01*
X15945428Y-15480857D01*
X9431500Y-16126500D02*
X9474000Y-16084000D01*
X9431500Y-16041500D01*
X9389000Y-16084000D01*
X9431500Y-16126500D01*
X9802571Y-15919714D02*
X9831143Y-15919714D01*
X9859714Y-15934000D01*
X9874000Y-15948286D01*
X9888286Y-15976857D01*
X9902571Y-16034000D01*
X9902571Y-16105429D01*
X9888286Y-16162571D01*
X9874000Y-16191143D01*
X9859714Y-16205429D01*
X9831143Y-16219714D01*
X9802571Y-16219714D01*
X9774000Y-16205429D01*
X9759714Y-16191143D01*
X9745429Y-16162571D01*
X9731143Y-16105429D01*
X9731143Y-16034000D01*
X9745429Y-15976857D01*
X9759714Y-15948286D01*
X9774000Y-15934000D01*
X9802571Y-15919714D01*
X10031143Y-16191143D02*
X10045429Y-16205429D01*
X10031143Y-16219714D01*
X10016857Y-16205429D01*
X10031143Y-16191143D01*
X10031143Y-16219714D01*
X10216857Y-16048286D02*
X10188286Y-16034000D01*
X10174000Y-16019714D01*
X10159714Y-15991143D01*
X10159714Y-15976857D01*
X10174000Y-15948286D01*
X10188286Y-15934000D01*
X10216857Y-15919714D01*
X10274000Y-15919714D01*
X10302571Y-15934000D01*
X10316857Y-15948286D01*
X10331143Y-15976857D01*
X10331143Y-15991143D01*
X10316857Y-16019714D01*
X10302571Y-16034000D01*
X10274000Y-16048286D01*
X10216857Y-16048286D01*
X10188286Y-16062571D01*
X10174000Y-16076857D01*
X10159714Y-16105429D01*
X10159714Y-16162571D01*
X10174000Y-16191143D01*
X10188286Y-16205429D01*
X10216857Y-16219714D01*
X10274000Y-16219714D01*
X10302571Y-16205429D01*
X10316857Y-16191143D01*
X10331143Y-16162571D01*
X10331143Y-16105429D01*
X10316857Y-16076857D01*
X10302571Y-16062571D01*
X10274000Y-16048286D01*
X10602571Y-15919714D02*
X10459714Y-15919714D01*
X10445429Y-16062571D01*
X10459714Y-16048286D01*
X10488286Y-16034000D01*
X10559714Y-16034000D01*
X10588286Y-16048286D01*
X10602571Y-16062571D01*
X10616857Y-16091143D01*
X10616857Y-16162571D01*
X10602571Y-16191143D01*
X10588286Y-16205429D01*
X10559714Y-16219714D01*
X10488286Y-16219714D01*
X10459714Y-16205429D01*
X10445429Y-16191143D01*
X10745429Y-16219714D02*
X10745429Y-16019714D01*
X10745429Y-16048286D02*
X10759714Y-16034000D01*
X10788286Y-16019714D01*
X10831143Y-16019714D01*
X10859714Y-16034000D01*
X10874000Y-16062571D01*
X10874000Y-16219714D01*
X10874000Y-16062571D02*
X10888286Y-16034000D01*
X10916857Y-16019714D01*
X10959714Y-16019714D01*
X10988286Y-16034000D01*
X11002571Y-16062571D01*
X11002571Y-16219714D01*
X11145429Y-16219714D02*
X11145429Y-16019714D01*
X11145429Y-16048286D02*
X11159714Y-16034000D01*
X11188286Y-16019714D01*
X11231143Y-16019714D01*
X11259714Y-16034000D01*
X11274000Y-16062571D01*
X11274000Y-16219714D01*
X11274000Y-16062571D02*
X11288286Y-16034000D01*
X11316857Y-16019714D01*
X11359714Y-16019714D01*
X11388286Y-16034000D01*
X11402571Y-16062571D01*
X11402571Y-16219714D01*
X11988286Y-15905429D02*
X11731143Y-16291143D01*
X12374000Y-15919714D02*
X12402571Y-15919714D01*
X12431143Y-15934000D01*
X12445428Y-15948286D01*
X12459714Y-15976857D01*
X12474000Y-16034000D01*
X12474000Y-16105429D01*
X12459714Y-16162571D01*
X12445428Y-16191143D01*
X12431143Y-16205429D01*
X12402571Y-16219714D01*
X12374000Y-16219714D01*
X12345428Y-16205429D01*
X12331143Y-16191143D01*
X12316857Y-16162571D01*
X12302571Y-16105429D01*
X12302571Y-16034000D01*
X12316857Y-15976857D01*
X12331143Y-15948286D01*
X12345428Y-15934000D01*
X12374000Y-15919714D01*
X12602571Y-16191143D02*
X12616857Y-16205429D01*
X12602571Y-16219714D01*
X12588286Y-16205429D01*
X12602571Y-16191143D01*
X12602571Y-16219714D01*
X12802571Y-15919714D02*
X12831143Y-15919714D01*
X12859714Y-15934000D01*
X12874000Y-15948286D01*
X12888285Y-15976857D01*
X12902571Y-16034000D01*
X12902571Y-16105429D01*
X12888285Y-16162571D01*
X12874000Y-16191143D01*
X12859714Y-16205429D01*
X12831143Y-16219714D01*
X12802571Y-16219714D01*
X12774000Y-16205429D01*
X12759714Y-16191143D01*
X12745428Y-16162571D01*
X12731143Y-16105429D01*
X12731143Y-16034000D01*
X12745428Y-15976857D01*
X12759714Y-15948286D01*
X12774000Y-15934000D01*
X12802571Y-15919714D01*
X13002571Y-15919714D02*
X13188285Y-15919714D01*
X13088285Y-16034000D01*
X13131143Y-16034000D01*
X13159714Y-16048286D01*
X13174000Y-16062571D01*
X13188285Y-16091143D01*
X13188285Y-16162571D01*
X13174000Y-16191143D01*
X13159714Y-16205429D01*
X13131143Y-16219714D01*
X13045428Y-16219714D01*
X13016857Y-16205429D01*
X13002571Y-16191143D01*
X13288285Y-15919714D02*
X13474000Y-15919714D01*
X13374000Y-16034000D01*
X13416857Y-16034000D01*
X13445428Y-16048286D01*
X13459714Y-16062571D01*
X13474000Y-16091143D01*
X13474000Y-16162571D01*
X13459714Y-16191143D01*
X13445428Y-16205429D01*
X13416857Y-16219714D01*
X13331143Y-16219714D01*
X13302571Y-16205429D01*
X13288285Y-16191143D01*
X13588286Y-15919714D02*
X13588286Y-15976857D01*
X13702571Y-15919714D02*
X13702571Y-15976857D01*
X14145428Y-16334000D02*
X14131143Y-16319714D01*
X14102571Y-16276857D01*
X14088285Y-16248286D01*
X14074000Y-16205429D01*
X14059714Y-16134000D01*
X14059714Y-16076857D01*
X14074000Y-16005429D01*
X14088285Y-15962571D01*
X14102571Y-15934000D01*
X14131143Y-15891143D01*
X14145428Y-15876857D01*
X14316857Y-15919714D02*
X14345428Y-15919714D01*
X14374000Y-15934000D01*
X14388285Y-15948286D01*
X14402571Y-15976857D01*
X14416857Y-16034000D01*
X14416857Y-16105429D01*
X14402571Y-16162571D01*
X14388285Y-16191143D01*
X14374000Y-16205429D01*
X14345428Y-16219714D01*
X14316857Y-16219714D01*
X14288285Y-16205429D01*
X14274000Y-16191143D01*
X14259714Y-16162571D01*
X14245428Y-16105429D01*
X14245428Y-16034000D01*
X14259714Y-15976857D01*
X14274000Y-15948286D01*
X14288285Y-15934000D01*
X14316857Y-15919714D01*
X14774000Y-16219714D02*
X14774000Y-15919714D01*
X14902571Y-16219714D02*
X14902571Y-16062571D01*
X14888285Y-16034000D01*
X14859714Y-16019714D01*
X14816857Y-16019714D01*
X14788285Y-16034000D01*
X14774000Y-16048286D01*
X15088285Y-16219714D02*
X15059714Y-16205429D01*
X15045428Y-16191143D01*
X15031143Y-16162571D01*
X15031143Y-16076857D01*
X15045428Y-16048286D01*
X15059714Y-16034000D01*
X15088285Y-16019714D01*
X15131143Y-16019714D01*
X15159714Y-16034000D01*
X15174000Y-16048286D01*
X15188285Y-16076857D01*
X15188285Y-16162571D01*
X15174000Y-16191143D01*
X15159714Y-16205429D01*
X15131143Y-16219714D01*
X15088285Y-16219714D01*
X15359714Y-16219714D02*
X15331143Y-16205429D01*
X15316857Y-16176857D01*
X15316857Y-15919714D01*
X15588286Y-16205429D02*
X15559714Y-16219714D01*
X15502571Y-16219714D01*
X15474000Y-16205429D01*
X15459714Y-16176857D01*
X15459714Y-16062571D01*
X15474000Y-16034000D01*
X15502571Y-16019714D01*
X15559714Y-16019714D01*
X15588286Y-16034000D01*
X15602571Y-16062571D01*
X15602571Y-16091143D01*
X15459714Y-16119714D01*
X15716857Y-16205429D02*
X15745428Y-16219714D01*
X15802571Y-16219714D01*
X15831143Y-16205429D01*
X15845428Y-16176857D01*
X15845428Y-16162571D01*
X15831143Y-16134000D01*
X15802571Y-16119714D01*
X15759714Y-16119714D01*
X15731143Y-16105429D01*
X15716857Y-16076857D01*
X15716857Y-16062571D01*
X15731143Y-16034000D01*
X15759714Y-16019714D01*
X15802571Y-16019714D01*
X15831143Y-16034000D01*
X16202571Y-16105429D02*
X16431143Y-16105429D01*
X16316857Y-16219714D02*
X16316857Y-15991143D01*
X16788286Y-15948286D02*
X16802571Y-15934000D01*
X16831143Y-15919714D01*
X16902571Y-15919714D01*
X16931143Y-15934000D01*
X16945428Y-15948286D01*
X16959714Y-15976857D01*
X16959714Y-16005429D01*
X16945428Y-16048286D01*
X16774000Y-16219714D01*
X16959714Y-16219714D01*
X17302571Y-16205429D02*
X17331143Y-16219714D01*
X17388286Y-16219714D01*
X17416857Y-16205429D01*
X17431143Y-16176857D01*
X17431143Y-16162571D01*
X17416857Y-16134000D01*
X17388286Y-16119714D01*
X17345428Y-16119714D01*
X17316857Y-16105429D01*
X17302571Y-16076857D01*
X17302571Y-16062571D01*
X17316857Y-16034000D01*
X17345428Y-16019714D01*
X17388286Y-16019714D01*
X17416857Y-16034000D01*
X17602571Y-16219714D02*
X17574000Y-16205429D01*
X17559714Y-16176857D01*
X17559714Y-15919714D01*
X17759714Y-16219714D02*
X17731143Y-16205429D01*
X17716857Y-16191143D01*
X17702571Y-16162571D01*
X17702571Y-16076857D01*
X17716857Y-16048286D01*
X17731143Y-16034000D01*
X17759714Y-16019714D01*
X17802571Y-16019714D01*
X17831143Y-16034000D01*
X17845428Y-16048286D01*
X17859714Y-16076857D01*
X17859714Y-16162571D01*
X17845428Y-16191143D01*
X17831143Y-16205429D01*
X17802571Y-16219714D01*
X17759714Y-16219714D01*
X17945428Y-16019714D02*
X18059714Y-16019714D01*
X17988286Y-15919714D02*
X17988286Y-16176857D01*
X18002571Y-16205429D01*
X18031143Y-16219714D01*
X18059714Y-16219714D01*
X18145429Y-16205429D02*
X18174000Y-16219714D01*
X18231143Y-16219714D01*
X18259714Y-16205429D01*
X18274000Y-16176857D01*
X18274000Y-16162571D01*
X18259714Y-16134000D01*
X18231143Y-16119714D01*
X18188286Y-16119714D01*
X18159714Y-16105429D01*
X18145429Y-16076857D01*
X18145429Y-16062571D01*
X18159714Y-16034000D01*
X18188286Y-16019714D01*
X18231143Y-16019714D01*
X18259714Y-16034000D01*
X18374000Y-16334000D02*
X18388286Y-16319714D01*
X18416857Y-16276857D01*
X18431143Y-16248286D01*
X18445428Y-16205429D01*
X18459714Y-16134000D01*
X18459714Y-16076857D01*
X18445428Y-16005429D01*
X18431143Y-15962571D01*
X18416857Y-15934000D01*
X18388286Y-15891143D01*
X18374000Y-15876857D01*
X9374000Y-16430000D02*
X9474000Y-16530000D01*
X9474000Y-16430000D02*
X9374000Y-16530000D01*
X9474000Y-16480000D02*
G75*
G03X9474000Y-16480000I-50000J0D01*
G01*
X9902571Y-16615714D02*
X9731143Y-16615714D01*
X9816857Y-16615714D02*
X9816857Y-16315714D01*
X9788286Y-16358571D01*
X9759714Y-16387143D01*
X9731143Y-16401429D01*
X10031143Y-16587143D02*
X10045429Y-16601429D01*
X10031143Y-16615714D01*
X10016857Y-16601429D01*
X10031143Y-16587143D01*
X10031143Y-16615714D01*
X10231143Y-16315714D02*
X10259714Y-16315714D01*
X10288286Y-16330000D01*
X10302571Y-16344286D01*
X10316857Y-16372857D01*
X10331143Y-16430000D01*
X10331143Y-16501429D01*
X10316857Y-16558571D01*
X10302571Y-16587143D01*
X10288286Y-16601429D01*
X10259714Y-16615714D01*
X10231143Y-16615714D01*
X10202571Y-16601429D01*
X10188286Y-16587143D01*
X10174000Y-16558571D01*
X10159714Y-16501429D01*
X10159714Y-16430000D01*
X10174000Y-16372857D01*
X10188286Y-16344286D01*
X10202571Y-16330000D01*
X10231143Y-16315714D01*
X10516857Y-16315714D02*
X10545429Y-16315714D01*
X10574000Y-16330000D01*
X10588286Y-16344286D01*
X10602571Y-16372857D01*
X10616857Y-16430000D01*
X10616857Y-16501429D01*
X10602571Y-16558571D01*
X10588286Y-16587143D01*
X10574000Y-16601429D01*
X10545429Y-16615714D01*
X10516857Y-16615714D01*
X10488286Y-16601429D01*
X10474000Y-16587143D01*
X10459714Y-16558571D01*
X10445429Y-16501429D01*
X10445429Y-16430000D01*
X10459714Y-16372857D01*
X10474000Y-16344286D01*
X10488286Y-16330000D01*
X10516857Y-16315714D01*
X10745429Y-16615714D02*
X10745429Y-16415714D01*
X10745429Y-16444286D02*
X10759714Y-16430000D01*
X10788286Y-16415714D01*
X10831143Y-16415714D01*
X10859714Y-16430000D01*
X10874000Y-16458571D01*
X10874000Y-16615714D01*
X10874000Y-16458571D02*
X10888286Y-16430000D01*
X10916857Y-16415714D01*
X10959714Y-16415714D01*
X10988286Y-16430000D01*
X11002571Y-16458571D01*
X11002571Y-16615714D01*
X11145429Y-16615714D02*
X11145429Y-16415714D01*
X11145429Y-16444286D02*
X11159714Y-16430000D01*
X11188286Y-16415714D01*
X11231143Y-16415714D01*
X11259714Y-16430000D01*
X11274000Y-16458571D01*
X11274000Y-16615714D01*
X11274000Y-16458571D02*
X11288286Y-16430000D01*
X11316857Y-16415714D01*
X11359714Y-16415714D01*
X11388286Y-16430000D01*
X11402571Y-16458571D01*
X11402571Y-16615714D01*
X11988286Y-16301429D02*
X11731143Y-16687143D01*
X12374000Y-16315714D02*
X12402571Y-16315714D01*
X12431143Y-16330000D01*
X12445428Y-16344286D01*
X12459714Y-16372857D01*
X12474000Y-16430000D01*
X12474000Y-16501429D01*
X12459714Y-16558571D01*
X12445428Y-16587143D01*
X12431143Y-16601429D01*
X12402571Y-16615714D01*
X12374000Y-16615714D01*
X12345428Y-16601429D01*
X12331143Y-16587143D01*
X12316857Y-16558571D01*
X12302571Y-16501429D01*
X12302571Y-16430000D01*
X12316857Y-16372857D01*
X12331143Y-16344286D01*
X12345428Y-16330000D01*
X12374000Y-16315714D01*
X12602571Y-16587143D02*
X12616857Y-16601429D01*
X12602571Y-16615714D01*
X12588286Y-16601429D01*
X12602571Y-16587143D01*
X12602571Y-16615714D01*
X12802571Y-16315714D02*
X12831143Y-16315714D01*
X12859714Y-16330000D01*
X12874000Y-16344286D01*
X12888285Y-16372857D01*
X12902571Y-16430000D01*
X12902571Y-16501429D01*
X12888285Y-16558571D01*
X12874000Y-16587143D01*
X12859714Y-16601429D01*
X12831143Y-16615714D01*
X12802571Y-16615714D01*
X12774000Y-16601429D01*
X12759714Y-16587143D01*
X12745428Y-16558571D01*
X12731143Y-16501429D01*
X12731143Y-16430000D01*
X12745428Y-16372857D01*
X12759714Y-16344286D01*
X12774000Y-16330000D01*
X12802571Y-16315714D01*
X13002571Y-16315714D02*
X13188285Y-16315714D01*
X13088285Y-16430000D01*
X13131143Y-16430000D01*
X13159714Y-16444286D01*
X13174000Y-16458571D01*
X13188285Y-16487143D01*
X13188285Y-16558571D01*
X13174000Y-16587143D01*
X13159714Y-16601429D01*
X13131143Y-16615714D01*
X13045428Y-16615714D01*
X13016857Y-16601429D01*
X13002571Y-16587143D01*
X13331143Y-16615714D02*
X13388285Y-16615714D01*
X13416857Y-16601429D01*
X13431143Y-16587143D01*
X13459714Y-16544286D01*
X13474000Y-16487143D01*
X13474000Y-16372857D01*
X13459714Y-16344286D01*
X13445428Y-16330000D01*
X13416857Y-16315714D01*
X13359714Y-16315714D01*
X13331143Y-16330000D01*
X13316857Y-16344286D01*
X13302571Y-16372857D01*
X13302571Y-16444286D01*
X13316857Y-16472857D01*
X13331143Y-16487143D01*
X13359714Y-16501429D01*
X13416857Y-16501429D01*
X13445428Y-16487143D01*
X13459714Y-16472857D01*
X13474000Y-16444286D01*
X13588286Y-16315714D02*
X13588286Y-16372857D01*
X13702571Y-16315714D02*
X13702571Y-16372857D01*
X14145428Y-16730000D02*
X14131143Y-16715714D01*
X14102571Y-16672857D01*
X14088285Y-16644286D01*
X14074000Y-16601429D01*
X14059714Y-16530000D01*
X14059714Y-16472857D01*
X14074000Y-16401429D01*
X14088285Y-16358571D01*
X14102571Y-16330000D01*
X14131143Y-16287143D01*
X14145428Y-16272857D01*
X14416857Y-16615714D02*
X14245428Y-16615714D01*
X14331143Y-16615714D02*
X14331143Y-16315714D01*
X14302571Y-16358571D01*
X14274000Y-16387143D01*
X14245428Y-16401429D01*
X14531143Y-16344286D02*
X14545428Y-16330000D01*
X14574000Y-16315714D01*
X14645428Y-16315714D01*
X14674000Y-16330000D01*
X14688285Y-16344286D01*
X14702571Y-16372857D01*
X14702571Y-16401429D01*
X14688285Y-16444286D01*
X14516857Y-16615714D01*
X14702571Y-16615714D01*
X15059714Y-16615714D02*
X15059714Y-16315714D01*
X15188285Y-16615714D02*
X15188285Y-16458571D01*
X15174000Y-16430000D01*
X15145428Y-16415714D01*
X15102571Y-16415714D01*
X15074000Y-16430000D01*
X15059714Y-16444286D01*
X15374000Y-16615714D02*
X15345428Y-16601429D01*
X15331143Y-16587143D01*
X15316857Y-16558571D01*
X15316857Y-16472857D01*
X15331143Y-16444286D01*
X15345428Y-16430000D01*
X15374000Y-16415714D01*
X15416857Y-16415714D01*
X15445428Y-16430000D01*
X15459714Y-16444286D01*
X15474000Y-16472857D01*
X15474000Y-16558571D01*
X15459714Y-16587143D01*
X15445428Y-16601429D01*
X15416857Y-16615714D01*
X15374000Y-16615714D01*
X15645428Y-16615714D02*
X15616857Y-16601429D01*
X15602571Y-16572857D01*
X15602571Y-16315714D01*
X15874000Y-16601429D02*
X15845428Y-16615714D01*
X15788286Y-16615714D01*
X15759714Y-16601429D01*
X15745428Y-16572857D01*
X15745428Y-16458571D01*
X15759714Y-16430000D01*
X15788286Y-16415714D01*
X15845428Y-16415714D01*
X15874000Y-16430000D01*
X15888286Y-16458571D01*
X15888286Y-16487143D01*
X15745428Y-16515714D01*
X16002571Y-16601429D02*
X16031143Y-16615714D01*
X16088286Y-16615714D01*
X16116857Y-16601429D01*
X16131143Y-16572857D01*
X16131143Y-16558571D01*
X16116857Y-16530000D01*
X16088286Y-16515714D01*
X16045428Y-16515714D01*
X16016857Y-16501429D01*
X16002571Y-16472857D01*
X16002571Y-16458571D01*
X16016857Y-16430000D01*
X16045428Y-16415714D01*
X16088286Y-16415714D01*
X16116857Y-16430000D01*
X16231143Y-16730000D02*
X16245428Y-16715714D01*
X16274000Y-16672857D01*
X16288286Y-16644286D01*
X16302571Y-16601429D01*
X16316857Y-16530000D01*
X16316857Y-16472857D01*
X16302571Y-16401429D01*
X16288286Y-16358571D01*
X16274000Y-16330000D01*
X16245428Y-16287143D01*
X16231143Y-16272857D01*
X9364000Y-16821000D02*
X9474000Y-16931000D01*
X9474000Y-16821000D02*
X9364000Y-16931000D01*
X9419000Y-16821000D02*
X9419000Y-16931000D01*
X9364000Y-16876000D02*
X9474000Y-16876000D01*
X9902571Y-17011714D02*
X9731143Y-17011714D01*
X9816857Y-17011714D02*
X9816857Y-16711714D01*
X9788286Y-16754571D01*
X9759714Y-16783143D01*
X9731143Y-16797429D01*
X10031143Y-16983143D02*
X10045429Y-16997429D01*
X10031143Y-17011714D01*
X10016857Y-16997429D01*
X10031143Y-16983143D01*
X10031143Y-17011714D01*
X10331143Y-17011714D02*
X10159714Y-17011714D01*
X10245428Y-17011714D02*
X10245428Y-16711714D01*
X10216857Y-16754571D01*
X10188286Y-16783143D01*
X10159714Y-16797429D01*
X10516857Y-16711714D02*
X10545429Y-16711714D01*
X10574000Y-16726000D01*
X10588286Y-16740286D01*
X10602571Y-16768857D01*
X10616857Y-16826000D01*
X10616857Y-16897429D01*
X10602571Y-16954572D01*
X10588286Y-16983143D01*
X10574000Y-16997429D01*
X10545429Y-17011714D01*
X10516857Y-17011714D01*
X10488286Y-16997429D01*
X10474000Y-16983143D01*
X10459714Y-16954572D01*
X10445429Y-16897429D01*
X10445429Y-16826000D01*
X10459714Y-16768857D01*
X10474000Y-16740286D01*
X10488286Y-16726000D01*
X10516857Y-16711714D01*
X10745429Y-17011714D02*
X10745429Y-16811714D01*
X10745429Y-16840286D02*
X10759714Y-16826000D01*
X10788286Y-16811714D01*
X10831143Y-16811714D01*
X10859714Y-16826000D01*
X10874000Y-16854572D01*
X10874000Y-17011714D01*
X10874000Y-16854572D02*
X10888286Y-16826000D01*
X10916857Y-16811714D01*
X10959714Y-16811714D01*
X10988286Y-16826000D01*
X11002571Y-16854572D01*
X11002571Y-17011714D01*
X11145429Y-17011714D02*
X11145429Y-16811714D01*
X11145429Y-16840286D02*
X11159714Y-16826000D01*
X11188286Y-16811714D01*
X11231143Y-16811714D01*
X11259714Y-16826000D01*
X11274000Y-16854572D01*
X11274000Y-17011714D01*
X11274000Y-16854572D02*
X11288286Y-16826000D01*
X11316857Y-16811714D01*
X11359714Y-16811714D01*
X11388286Y-16826000D01*
X11402571Y-16854572D01*
X11402571Y-17011714D01*
X11988286Y-16697429D02*
X11731143Y-17083143D01*
X12374000Y-16711714D02*
X12402571Y-16711714D01*
X12431143Y-16726000D01*
X12445428Y-16740286D01*
X12459714Y-16768857D01*
X12474000Y-16826000D01*
X12474000Y-16897429D01*
X12459714Y-16954572D01*
X12445428Y-16983143D01*
X12431143Y-16997429D01*
X12402571Y-17011714D01*
X12374000Y-17011714D01*
X12345428Y-16997429D01*
X12331143Y-16983143D01*
X12316857Y-16954572D01*
X12302571Y-16897429D01*
X12302571Y-16826000D01*
X12316857Y-16768857D01*
X12331143Y-16740286D01*
X12345428Y-16726000D01*
X12374000Y-16711714D01*
X12602571Y-16983143D02*
X12616857Y-16997429D01*
X12602571Y-17011714D01*
X12588286Y-16997429D01*
X12602571Y-16983143D01*
X12602571Y-17011714D01*
X12802571Y-16711714D02*
X12831143Y-16711714D01*
X12859714Y-16726000D01*
X12874000Y-16740286D01*
X12888285Y-16768857D01*
X12902571Y-16826000D01*
X12902571Y-16897429D01*
X12888285Y-16954572D01*
X12874000Y-16983143D01*
X12859714Y-16997429D01*
X12831143Y-17011714D01*
X12802571Y-17011714D01*
X12774000Y-16997429D01*
X12759714Y-16983143D01*
X12745428Y-16954572D01*
X12731143Y-16897429D01*
X12731143Y-16826000D01*
X12745428Y-16768857D01*
X12759714Y-16740286D01*
X12774000Y-16726000D01*
X12802571Y-16711714D01*
X13159714Y-16811714D02*
X13159714Y-17011714D01*
X13088285Y-16697429D02*
X13016857Y-16911714D01*
X13202571Y-16911714D01*
X13288285Y-16711714D02*
X13474000Y-16711714D01*
X13374000Y-16826000D01*
X13416857Y-16826000D01*
X13445428Y-16840286D01*
X13459714Y-16854572D01*
X13474000Y-16883143D01*
X13474000Y-16954572D01*
X13459714Y-16983143D01*
X13445428Y-16997429D01*
X13416857Y-17011714D01*
X13331143Y-17011714D01*
X13302571Y-16997429D01*
X13288285Y-16983143D01*
X13588286Y-16711714D02*
X13588286Y-16768857D01*
X13702571Y-16711714D02*
X13702571Y-16768857D01*
X14145428Y-17126000D02*
X14131143Y-17111714D01*
X14102571Y-17068857D01*
X14088285Y-17040286D01*
X14074000Y-16997429D01*
X14059714Y-16926000D01*
X14059714Y-16868857D01*
X14074000Y-16797429D01*
X14088285Y-16754571D01*
X14102571Y-16726000D01*
X14131143Y-16683143D01*
X14145428Y-16668857D01*
X14245428Y-16740286D02*
X14259714Y-16726000D01*
X14288285Y-16711714D01*
X14359714Y-16711714D01*
X14388285Y-16726000D01*
X14402571Y-16740286D01*
X14416857Y-16768857D01*
X14416857Y-16797429D01*
X14402571Y-16840286D01*
X14231143Y-17011714D01*
X14416857Y-17011714D01*
X14774000Y-17011714D02*
X14774000Y-16711714D01*
X14902571Y-17011714D02*
X14902571Y-16854572D01*
X14888285Y-16826000D01*
X14859714Y-16811714D01*
X14816857Y-16811714D01*
X14788285Y-16826000D01*
X14774000Y-16840286D01*
X15088285Y-17011714D02*
X15059714Y-16997429D01*
X15045428Y-16983143D01*
X15031143Y-16954572D01*
X15031143Y-16868857D01*
X15045428Y-16840286D01*
X15059714Y-16826000D01*
X15088285Y-16811714D01*
X15131143Y-16811714D01*
X15159714Y-16826000D01*
X15174000Y-16840286D01*
X15188285Y-16868857D01*
X15188285Y-16954572D01*
X15174000Y-16983143D01*
X15159714Y-16997429D01*
X15131143Y-17011714D01*
X15088285Y-17011714D01*
X15359714Y-17011714D02*
X15331143Y-16997429D01*
X15316857Y-16968857D01*
X15316857Y-16711714D01*
X15588286Y-16997429D02*
X15559714Y-17011714D01*
X15502571Y-17011714D01*
X15474000Y-16997429D01*
X15459714Y-16968857D01*
X15459714Y-16854572D01*
X15474000Y-16826000D01*
X15502571Y-16811714D01*
X15559714Y-16811714D01*
X15588286Y-16826000D01*
X15602571Y-16854572D01*
X15602571Y-16883143D01*
X15459714Y-16911714D01*
X15716857Y-16997429D02*
X15745428Y-17011714D01*
X15802571Y-17011714D01*
X15831143Y-16997429D01*
X15845428Y-16968857D01*
X15845428Y-16954572D01*
X15831143Y-16926000D01*
X15802571Y-16911714D01*
X15759714Y-16911714D01*
X15731143Y-16897429D01*
X15716857Y-16868857D01*
X15716857Y-16854572D01*
X15731143Y-16826000D01*
X15759714Y-16811714D01*
X15802571Y-16811714D01*
X15831143Y-16826000D01*
X15945428Y-17126000D02*
X15959714Y-17111714D01*
X15988286Y-17068857D01*
X16002571Y-17040286D01*
X16016857Y-16997429D01*
X16031143Y-16926000D01*
X16031143Y-16868857D01*
X16016857Y-16797429D01*
X16002571Y-16754571D01*
X15988286Y-16726000D01*
X15959714Y-16683143D01*
X15945428Y-16668857D01*
X9344000Y-17207000D02*
X9474000Y-17337000D01*
X9474000Y-17207000D02*
X9344000Y-17337000D01*
X9454962Y-17317963D02*
X9454962Y-17226038D01*
X9363038Y-17226038D01*
X9363038Y-17317963D01*
X9454962Y-17317963D01*
X9902571Y-17407714D02*
X9731143Y-17407714D01*
X9816857Y-17407714D02*
X9816857Y-17107714D01*
X9788286Y-17150572D01*
X9759714Y-17179143D01*
X9731143Y-17193429D01*
X10031143Y-17379143D02*
X10045429Y-17393429D01*
X10031143Y-17407714D01*
X10016857Y-17393429D01*
X10031143Y-17379143D01*
X10031143Y-17407714D01*
X10145428Y-17107714D02*
X10331143Y-17107714D01*
X10231143Y-17222000D01*
X10274000Y-17222000D01*
X10302571Y-17236286D01*
X10316857Y-17250572D01*
X10331143Y-17279143D01*
X10331143Y-17350572D01*
X10316857Y-17379143D01*
X10302571Y-17393429D01*
X10274000Y-17407714D01*
X10188286Y-17407714D01*
X10159714Y-17393429D01*
X10145428Y-17379143D01*
X10516857Y-17107714D02*
X10545429Y-17107714D01*
X10574000Y-17122000D01*
X10588286Y-17136286D01*
X10602571Y-17164857D01*
X10616857Y-17222000D01*
X10616857Y-17293429D01*
X10602571Y-17350572D01*
X10588286Y-17379143D01*
X10574000Y-17393429D01*
X10545429Y-17407714D01*
X10516857Y-17407714D01*
X10488286Y-17393429D01*
X10474000Y-17379143D01*
X10459714Y-17350572D01*
X10445429Y-17293429D01*
X10445429Y-17222000D01*
X10459714Y-17164857D01*
X10474000Y-17136286D01*
X10488286Y-17122000D01*
X10516857Y-17107714D01*
X10745429Y-17407714D02*
X10745429Y-17207714D01*
X10745429Y-17236286D02*
X10759714Y-17222000D01*
X10788286Y-17207714D01*
X10831143Y-17207714D01*
X10859714Y-17222000D01*
X10874000Y-17250572D01*
X10874000Y-17407714D01*
X10874000Y-17250572D02*
X10888286Y-17222000D01*
X10916857Y-17207714D01*
X10959714Y-17207714D01*
X10988286Y-17222000D01*
X11002571Y-17250572D01*
X11002571Y-17407714D01*
X11145429Y-17407714D02*
X11145429Y-17207714D01*
X11145429Y-17236286D02*
X11159714Y-17222000D01*
X11188286Y-17207714D01*
X11231143Y-17207714D01*
X11259714Y-17222000D01*
X11274000Y-17250572D01*
X11274000Y-17407714D01*
X11274000Y-17250572D02*
X11288286Y-17222000D01*
X11316857Y-17207714D01*
X11359714Y-17207714D01*
X11388286Y-17222000D01*
X11402571Y-17250572D01*
X11402571Y-17407714D01*
X11988286Y-17093429D02*
X11731143Y-17479143D01*
X12374000Y-17107714D02*
X12402571Y-17107714D01*
X12431143Y-17122000D01*
X12445428Y-17136286D01*
X12459714Y-17164857D01*
X12474000Y-17222000D01*
X12474000Y-17293429D01*
X12459714Y-17350572D01*
X12445428Y-17379143D01*
X12431143Y-17393429D01*
X12402571Y-17407714D01*
X12374000Y-17407714D01*
X12345428Y-17393429D01*
X12331143Y-17379143D01*
X12316857Y-17350572D01*
X12302571Y-17293429D01*
X12302571Y-17222000D01*
X12316857Y-17164857D01*
X12331143Y-17136286D01*
X12345428Y-17122000D01*
X12374000Y-17107714D01*
X12602571Y-17379143D02*
X12616857Y-17393429D01*
X12602571Y-17407714D01*
X12588286Y-17393429D01*
X12602571Y-17379143D01*
X12602571Y-17407714D01*
X12802571Y-17107714D02*
X12831143Y-17107714D01*
X12859714Y-17122000D01*
X12874000Y-17136286D01*
X12888285Y-17164857D01*
X12902571Y-17222000D01*
X12902571Y-17293429D01*
X12888285Y-17350572D01*
X12874000Y-17379143D01*
X12859714Y-17393429D01*
X12831143Y-17407714D01*
X12802571Y-17407714D01*
X12774000Y-17393429D01*
X12759714Y-17379143D01*
X12745428Y-17350572D01*
X12731143Y-17293429D01*
X12731143Y-17222000D01*
X12745428Y-17164857D01*
X12759714Y-17136286D01*
X12774000Y-17122000D01*
X12802571Y-17107714D01*
X13174000Y-17107714D02*
X13031143Y-17107714D01*
X13016857Y-17250572D01*
X13031143Y-17236286D01*
X13059714Y-17222000D01*
X13131143Y-17222000D01*
X13159714Y-17236286D01*
X13174000Y-17250572D01*
X13188285Y-17279143D01*
X13188285Y-17350572D01*
X13174000Y-17379143D01*
X13159714Y-17393429D01*
X13131143Y-17407714D01*
X13059714Y-17407714D01*
X13031143Y-17393429D01*
X13016857Y-17379143D01*
X13474000Y-17407714D02*
X13302571Y-17407714D01*
X13388285Y-17407714D02*
X13388285Y-17107714D01*
X13359714Y-17150572D01*
X13331143Y-17179143D01*
X13302571Y-17193429D01*
X13588286Y-17107714D02*
X13588286Y-17164857D01*
X13702571Y-17107714D02*
X13702571Y-17164857D01*
X14145428Y-17522000D02*
X14131143Y-17507714D01*
X14102571Y-17464857D01*
X14088285Y-17436286D01*
X14074000Y-17393429D01*
X14059714Y-17322000D01*
X14059714Y-17264857D01*
X14074000Y-17193429D01*
X14088285Y-17150572D01*
X14102571Y-17122000D01*
X14131143Y-17079143D01*
X14145428Y-17064857D01*
X14231143Y-17107714D02*
X14416857Y-17107714D01*
X14316857Y-17222000D01*
X14359714Y-17222000D01*
X14388285Y-17236286D01*
X14402571Y-17250572D01*
X14416857Y-17279143D01*
X14416857Y-17350572D01*
X14402571Y-17379143D01*
X14388285Y-17393429D01*
X14359714Y-17407714D01*
X14274000Y-17407714D01*
X14245428Y-17393429D01*
X14231143Y-17379143D01*
X14774000Y-17407714D02*
X14774000Y-17107714D01*
X14902571Y-17407714D02*
X14902571Y-17250572D01*
X14888285Y-17222000D01*
X14859714Y-17207714D01*
X14816857Y-17207714D01*
X14788285Y-17222000D01*
X14774000Y-17236286D01*
X15088285Y-17407714D02*
X15059714Y-17393429D01*
X15045428Y-17379143D01*
X15031143Y-17350572D01*
X15031143Y-17264857D01*
X15045428Y-17236286D01*
X15059714Y-17222000D01*
X15088285Y-17207714D01*
X15131143Y-17207714D01*
X15159714Y-17222000D01*
X15174000Y-17236286D01*
X15188285Y-17264857D01*
X15188285Y-17350572D01*
X15174000Y-17379143D01*
X15159714Y-17393429D01*
X15131143Y-17407714D01*
X15088285Y-17407714D01*
X15359714Y-17407714D02*
X15331143Y-17393429D01*
X15316857Y-17364857D01*
X15316857Y-17107714D01*
X15588286Y-17393429D02*
X15559714Y-17407714D01*
X15502571Y-17407714D01*
X15474000Y-17393429D01*
X15459714Y-17364857D01*
X15459714Y-17250572D01*
X15474000Y-17222000D01*
X15502571Y-17207714D01*
X15559714Y-17207714D01*
X15588286Y-17222000D01*
X15602571Y-17250572D01*
X15602571Y-17279143D01*
X15459714Y-17307714D01*
X15716857Y-17393429D02*
X15745428Y-17407714D01*
X15802571Y-17407714D01*
X15831143Y-17393429D01*
X15845428Y-17364857D01*
X15845428Y-17350572D01*
X15831143Y-17322000D01*
X15802571Y-17307714D01*
X15759714Y-17307714D01*
X15731143Y-17293429D01*
X15716857Y-17264857D01*
X15716857Y-17250572D01*
X15731143Y-17222000D01*
X15759714Y-17207714D01*
X15802571Y-17207714D01*
X15831143Y-17222000D01*
X15945428Y-17522000D02*
X15959714Y-17507714D01*
X15988286Y-17464857D01*
X16002571Y-17436286D01*
X16016857Y-17393429D01*
X16031143Y-17322000D01*
X16031143Y-17264857D01*
X16016857Y-17193429D01*
X16002571Y-17150572D01*
X15988286Y-17122000D01*
X15959714Y-17079143D01*
X15945428Y-17064857D01*
X9334000Y-17598000D02*
X9474000Y-17738000D01*
X9474000Y-17598000D02*
X9334000Y-17738000D01*
X9404000Y-17738000D02*
X9474000Y-17668000D01*
X9404000Y-17598000D01*
X9334000Y-17668000D01*
X9404000Y-17738000D01*
X9902571Y-17803714D02*
X9731143Y-17803714D01*
X9816857Y-17803714D02*
X9816857Y-17503714D01*
X9788286Y-17546572D01*
X9759714Y-17575143D01*
X9731143Y-17589429D01*
X10031143Y-17775143D02*
X10045429Y-17789429D01*
X10031143Y-17803714D01*
X10016857Y-17789429D01*
X10031143Y-17775143D01*
X10031143Y-17803714D01*
X10302571Y-17603714D02*
X10302571Y-17803714D01*
X10231143Y-17489429D02*
X10159714Y-17703714D01*
X10345428Y-17703714D01*
X10516857Y-17503714D02*
X10545429Y-17503714D01*
X10574000Y-17518000D01*
X10588286Y-17532286D01*
X10602571Y-17560857D01*
X10616857Y-17618000D01*
X10616857Y-17689429D01*
X10602571Y-17746572D01*
X10588286Y-17775143D01*
X10574000Y-17789429D01*
X10545429Y-17803714D01*
X10516857Y-17803714D01*
X10488286Y-17789429D01*
X10474000Y-17775143D01*
X10459714Y-17746572D01*
X10445429Y-17689429D01*
X10445429Y-17618000D01*
X10459714Y-17560857D01*
X10474000Y-17532286D01*
X10488286Y-17518000D01*
X10516857Y-17503714D01*
X10745429Y-17803714D02*
X10745429Y-17603714D01*
X10745429Y-17632286D02*
X10759714Y-17618000D01*
X10788286Y-17603714D01*
X10831143Y-17603714D01*
X10859714Y-17618000D01*
X10874000Y-17646572D01*
X10874000Y-17803714D01*
X10874000Y-17646572D02*
X10888286Y-17618000D01*
X10916857Y-17603714D01*
X10959714Y-17603714D01*
X10988286Y-17618000D01*
X11002571Y-17646572D01*
X11002571Y-17803714D01*
X11145429Y-17803714D02*
X11145429Y-17603714D01*
X11145429Y-17632286D02*
X11159714Y-17618000D01*
X11188286Y-17603714D01*
X11231143Y-17603714D01*
X11259714Y-17618000D01*
X11274000Y-17646572D01*
X11274000Y-17803714D01*
X11274000Y-17646572D02*
X11288286Y-17618000D01*
X11316857Y-17603714D01*
X11359714Y-17603714D01*
X11388286Y-17618000D01*
X11402571Y-17646572D01*
X11402571Y-17803714D01*
X11988286Y-17489429D02*
X11731143Y-17875143D01*
X12374000Y-17503714D02*
X12402571Y-17503714D01*
X12431143Y-17518000D01*
X12445428Y-17532286D01*
X12459714Y-17560857D01*
X12474000Y-17618000D01*
X12474000Y-17689429D01*
X12459714Y-17746572D01*
X12445428Y-17775143D01*
X12431143Y-17789429D01*
X12402571Y-17803714D01*
X12374000Y-17803714D01*
X12345428Y-17789429D01*
X12331143Y-17775143D01*
X12316857Y-17746572D01*
X12302571Y-17689429D01*
X12302571Y-17618000D01*
X12316857Y-17560857D01*
X12331143Y-17532286D01*
X12345428Y-17518000D01*
X12374000Y-17503714D01*
X12602571Y-17775143D02*
X12616857Y-17789429D01*
X12602571Y-17803714D01*
X12588286Y-17789429D01*
X12602571Y-17775143D01*
X12602571Y-17803714D01*
X12802571Y-17503714D02*
X12831143Y-17503714D01*
X12859714Y-17518000D01*
X12874000Y-17532286D01*
X12888285Y-17560857D01*
X12902571Y-17618000D01*
X12902571Y-17689429D01*
X12888285Y-17746572D01*
X12874000Y-17775143D01*
X12859714Y-17789429D01*
X12831143Y-17803714D01*
X12802571Y-17803714D01*
X12774000Y-17789429D01*
X12759714Y-17775143D01*
X12745428Y-17746572D01*
X12731143Y-17689429D01*
X12731143Y-17618000D01*
X12745428Y-17560857D01*
X12759714Y-17532286D01*
X12774000Y-17518000D01*
X12802571Y-17503714D01*
X13174000Y-17503714D02*
X13031143Y-17503714D01*
X13016857Y-17646572D01*
X13031143Y-17632286D01*
X13059714Y-17618000D01*
X13131143Y-17618000D01*
X13159714Y-17632286D01*
X13174000Y-17646572D01*
X13188285Y-17675143D01*
X13188285Y-17746572D01*
X13174000Y-17775143D01*
X13159714Y-17789429D01*
X13131143Y-17803714D01*
X13059714Y-17803714D01*
X13031143Y-17789429D01*
X13016857Y-17775143D01*
X13459714Y-17503714D02*
X13316857Y-17503714D01*
X13302571Y-17646572D01*
X13316857Y-17632286D01*
X13345428Y-17618000D01*
X13416857Y-17618000D01*
X13445428Y-17632286D01*
X13459714Y-17646572D01*
X13474000Y-17675143D01*
X13474000Y-17746572D01*
X13459714Y-17775143D01*
X13445428Y-17789429D01*
X13416857Y-17803714D01*
X13345428Y-17803714D01*
X13316857Y-17789429D01*
X13302571Y-17775143D01*
X13588286Y-17503714D02*
X13588286Y-17560857D01*
X13702571Y-17503714D02*
X13702571Y-17560857D01*
X14145428Y-17918000D02*
X14131143Y-17903714D01*
X14102571Y-17860857D01*
X14088285Y-17832286D01*
X14074000Y-17789429D01*
X14059714Y-17718000D01*
X14059714Y-17660857D01*
X14074000Y-17589429D01*
X14088285Y-17546572D01*
X14102571Y-17518000D01*
X14131143Y-17475143D01*
X14145428Y-17460857D01*
X14302571Y-17632286D02*
X14274000Y-17618000D01*
X14259714Y-17603714D01*
X14245428Y-17575143D01*
X14245428Y-17560857D01*
X14259714Y-17532286D01*
X14274000Y-17518000D01*
X14302571Y-17503714D01*
X14359714Y-17503714D01*
X14388285Y-17518000D01*
X14402571Y-17532286D01*
X14416857Y-17560857D01*
X14416857Y-17575143D01*
X14402571Y-17603714D01*
X14388285Y-17618000D01*
X14359714Y-17632286D01*
X14302571Y-17632286D01*
X14274000Y-17646572D01*
X14259714Y-17660857D01*
X14245428Y-17689429D01*
X14245428Y-17746572D01*
X14259714Y-17775143D01*
X14274000Y-17789429D01*
X14302571Y-17803714D01*
X14359714Y-17803714D01*
X14388285Y-17789429D01*
X14402571Y-17775143D01*
X14416857Y-17746572D01*
X14416857Y-17689429D01*
X14402571Y-17660857D01*
X14388285Y-17646572D01*
X14359714Y-17632286D01*
X14774000Y-17803714D02*
X14774000Y-17503714D01*
X14902571Y-17803714D02*
X14902571Y-17646572D01*
X14888285Y-17618000D01*
X14859714Y-17603714D01*
X14816857Y-17603714D01*
X14788285Y-17618000D01*
X14774000Y-17632286D01*
X15088285Y-17803714D02*
X15059714Y-17789429D01*
X15045428Y-17775143D01*
X15031143Y-17746572D01*
X15031143Y-17660857D01*
X15045428Y-17632286D01*
X15059714Y-17618000D01*
X15088285Y-17603714D01*
X15131143Y-17603714D01*
X15159714Y-17618000D01*
X15174000Y-17632286D01*
X15188285Y-17660857D01*
X15188285Y-17746572D01*
X15174000Y-17775143D01*
X15159714Y-17789429D01*
X15131143Y-17803714D01*
X15088285Y-17803714D01*
X15359714Y-17803714D02*
X15331143Y-17789429D01*
X15316857Y-17760857D01*
X15316857Y-17503714D01*
X15588286Y-17789429D02*
X15559714Y-17803714D01*
X15502571Y-17803714D01*
X15474000Y-17789429D01*
X15459714Y-17760857D01*
X15459714Y-17646572D01*
X15474000Y-17618000D01*
X15502571Y-17603714D01*
X15559714Y-17603714D01*
X15588286Y-17618000D01*
X15602571Y-17646572D01*
X15602571Y-17675143D01*
X15459714Y-17703714D01*
X15716857Y-17789429D02*
X15745428Y-17803714D01*
X15802571Y-17803714D01*
X15831143Y-17789429D01*
X15845428Y-17760857D01*
X15845428Y-17746572D01*
X15831143Y-17718000D01*
X15802571Y-17703714D01*
X15759714Y-17703714D01*
X15731143Y-17689429D01*
X15716857Y-17660857D01*
X15716857Y-17646572D01*
X15731143Y-17618000D01*
X15759714Y-17603714D01*
X15802571Y-17603714D01*
X15831143Y-17618000D01*
X15945428Y-17918000D02*
X15959714Y-17903714D01*
X15988286Y-17860857D01*
X16002571Y-17832286D01*
X16016857Y-17789429D01*
X16031143Y-17718000D01*
X16031143Y-17660857D01*
X16016857Y-17589429D01*
X16002571Y-17546572D01*
X15988286Y-17518000D01*
X15959714Y-17475143D01*
X15945428Y-17460857D01*
X9339000Y-17929000D02*
X9339000Y-18199000D01*
X9204000Y-18064000D02*
X9474000Y-18064000D01*
X9474000Y-18064000D02*
G75*
G03X9474000Y-18064000I-135000J0D01*
G01*
X9731143Y-17928286D02*
X9745429Y-17914000D01*
X9774000Y-17899714D01*
X9845429Y-17899714D01*
X9874000Y-17914000D01*
X9888286Y-17928286D01*
X9902571Y-17956857D01*
X9902571Y-17985429D01*
X9888286Y-18028286D01*
X9716857Y-18199714D01*
X9902571Y-18199714D01*
X10031143Y-18171143D02*
X10045429Y-18185429D01*
X10031143Y-18199714D01*
X10016857Y-18185429D01*
X10031143Y-18171143D01*
X10031143Y-18199714D01*
X10145428Y-17899714D02*
X10345428Y-17899714D01*
X10216857Y-18199714D01*
X10516857Y-17899714D02*
X10545429Y-17899714D01*
X10574000Y-17914000D01*
X10588286Y-17928286D01*
X10602571Y-17956857D01*
X10616857Y-18014000D01*
X10616857Y-18085429D01*
X10602571Y-18142572D01*
X10588286Y-18171143D01*
X10574000Y-18185429D01*
X10545429Y-18199714D01*
X10516857Y-18199714D01*
X10488286Y-18185429D01*
X10474000Y-18171143D01*
X10459714Y-18142572D01*
X10445429Y-18085429D01*
X10445429Y-18014000D01*
X10459714Y-17956857D01*
X10474000Y-17928286D01*
X10488286Y-17914000D01*
X10516857Y-17899714D01*
X10745429Y-18199714D02*
X10745429Y-17999714D01*
X10745429Y-18028286D02*
X10759714Y-18014000D01*
X10788286Y-17999714D01*
X10831143Y-17999714D01*
X10859714Y-18014000D01*
X10874000Y-18042572D01*
X10874000Y-18199714D01*
X10874000Y-18042572D02*
X10888286Y-18014000D01*
X10916857Y-17999714D01*
X10959714Y-17999714D01*
X10988286Y-18014000D01*
X11002571Y-18042572D01*
X11002571Y-18199714D01*
X11145429Y-18199714D02*
X11145429Y-17999714D01*
X11145429Y-18028286D02*
X11159714Y-18014000D01*
X11188286Y-17999714D01*
X11231143Y-17999714D01*
X11259714Y-18014000D01*
X11274000Y-18042572D01*
X11274000Y-18199714D01*
X11274000Y-18042572D02*
X11288286Y-18014000D01*
X11316857Y-17999714D01*
X11359714Y-17999714D01*
X11388286Y-18014000D01*
X11402571Y-18042572D01*
X11402571Y-18199714D01*
X11988286Y-17885429D02*
X11731143Y-18271143D01*
X12374000Y-17899714D02*
X12402571Y-17899714D01*
X12431143Y-17914000D01*
X12445428Y-17928286D01*
X12459714Y-17956857D01*
X12474000Y-18014000D01*
X12474000Y-18085429D01*
X12459714Y-18142572D01*
X12445428Y-18171143D01*
X12431143Y-18185429D01*
X12402571Y-18199714D01*
X12374000Y-18199714D01*
X12345428Y-18185429D01*
X12331143Y-18171143D01*
X12316857Y-18142572D01*
X12302571Y-18085429D01*
X12302571Y-18014000D01*
X12316857Y-17956857D01*
X12331143Y-17928286D01*
X12345428Y-17914000D01*
X12374000Y-17899714D01*
X12602571Y-18171143D02*
X12616857Y-18185429D01*
X12602571Y-18199714D01*
X12588286Y-18185429D01*
X12602571Y-18171143D01*
X12602571Y-18199714D01*
X12902571Y-18199714D02*
X12731143Y-18199714D01*
X12816857Y-18199714D02*
X12816857Y-17899714D01*
X12788285Y-17942572D01*
X12759714Y-17971143D01*
X12731143Y-17985429D01*
X13088285Y-17899714D02*
X13116857Y-17899714D01*
X13145428Y-17914000D01*
X13159714Y-17928286D01*
X13174000Y-17956857D01*
X13188285Y-18014000D01*
X13188285Y-18085429D01*
X13174000Y-18142572D01*
X13159714Y-18171143D01*
X13145428Y-18185429D01*
X13116857Y-18199714D01*
X13088285Y-18199714D01*
X13059714Y-18185429D01*
X13045428Y-18171143D01*
X13031143Y-18142572D01*
X13016857Y-18085429D01*
X13016857Y-18014000D01*
X13031143Y-17956857D01*
X13045428Y-17928286D01*
X13059714Y-17914000D01*
X13088285Y-17899714D01*
X13445428Y-17899714D02*
X13388285Y-17899714D01*
X13359714Y-17914000D01*
X13345428Y-17928286D01*
X13316857Y-17971143D01*
X13302571Y-18028286D01*
X13302571Y-18142572D01*
X13316857Y-18171143D01*
X13331143Y-18185429D01*
X13359714Y-18199714D01*
X13416857Y-18199714D01*
X13445428Y-18185429D01*
X13459714Y-18171143D01*
X13474000Y-18142572D01*
X13474000Y-18071143D01*
X13459714Y-18042572D01*
X13445428Y-18028286D01*
X13416857Y-18014000D01*
X13359714Y-18014000D01*
X13331143Y-18028286D01*
X13316857Y-18042572D01*
X13302571Y-18071143D01*
X13588286Y-17899714D02*
X13588286Y-17956857D01*
X13702571Y-17899714D02*
X13702571Y-17956857D01*
X14145428Y-18314000D02*
X14131143Y-18299714D01*
X14102571Y-18256857D01*
X14088285Y-18228286D01*
X14074000Y-18185429D01*
X14059714Y-18114000D01*
X14059714Y-18056857D01*
X14074000Y-17985429D01*
X14088285Y-17942572D01*
X14102571Y-17914000D01*
X14131143Y-17871143D01*
X14145428Y-17856857D01*
X14402571Y-17899714D02*
X14259714Y-17899714D01*
X14245428Y-18042572D01*
X14259714Y-18028286D01*
X14288285Y-18014000D01*
X14359714Y-18014000D01*
X14388285Y-18028286D01*
X14402571Y-18042572D01*
X14416857Y-18071143D01*
X14416857Y-18142572D01*
X14402571Y-18171143D01*
X14388285Y-18185429D01*
X14359714Y-18199714D01*
X14288285Y-18199714D01*
X14259714Y-18185429D01*
X14245428Y-18171143D01*
X14774000Y-18199714D02*
X14774000Y-17899714D01*
X14902571Y-18199714D02*
X14902571Y-18042572D01*
X14888285Y-18014000D01*
X14859714Y-17999714D01*
X14816857Y-17999714D01*
X14788285Y-18014000D01*
X14774000Y-18028286D01*
X15088285Y-18199714D02*
X15059714Y-18185429D01*
X15045428Y-18171143D01*
X15031143Y-18142572D01*
X15031143Y-18056857D01*
X15045428Y-18028286D01*
X15059714Y-18014000D01*
X15088285Y-17999714D01*
X15131143Y-17999714D01*
X15159714Y-18014000D01*
X15174000Y-18028286D01*
X15188285Y-18056857D01*
X15188285Y-18142572D01*
X15174000Y-18171143D01*
X15159714Y-18185429D01*
X15131143Y-18199714D01*
X15088285Y-18199714D01*
X15359714Y-18199714D02*
X15331143Y-18185429D01*
X15316857Y-18156857D01*
X15316857Y-17899714D01*
X15588286Y-18185429D02*
X15559714Y-18199714D01*
X15502571Y-18199714D01*
X15474000Y-18185429D01*
X15459714Y-18156857D01*
X15459714Y-18042572D01*
X15474000Y-18014000D01*
X15502571Y-17999714D01*
X15559714Y-17999714D01*
X15588286Y-18014000D01*
X15602571Y-18042572D01*
X15602571Y-18071143D01*
X15459714Y-18099714D01*
X15716857Y-18185429D02*
X15745428Y-18199714D01*
X15802571Y-18199714D01*
X15831143Y-18185429D01*
X15845428Y-18156857D01*
X15845428Y-18142572D01*
X15831143Y-18114000D01*
X15802571Y-18099714D01*
X15759714Y-18099714D01*
X15731143Y-18085429D01*
X15716857Y-18056857D01*
X15716857Y-18042572D01*
X15731143Y-18014000D01*
X15759714Y-17999714D01*
X15802571Y-17999714D01*
X15831143Y-18014000D01*
X15945428Y-18314000D02*
X15959714Y-18299714D01*
X15988286Y-18256857D01*
X16002571Y-18228286D01*
X16016857Y-18185429D01*
X16031143Y-18114000D01*
X16031143Y-18056857D01*
X16016857Y-17985429D01*
X16002571Y-17942572D01*
X15988286Y-17914000D01*
X15959714Y-17871143D01*
X15945428Y-17856857D01*
M02*
