G04 #@! TF.FileFunction,Copper,L3,Inr,Mixed*
%FSLAX46Y46*%
G04 Gerber Fmt 4.6, Leading zero omitted, Abs format (unit mm)*
G04 Created by KiCad (PCBNEW 4.0.7) date Thursday, April 05, 2018 'PMt' 12:15:07 PM*
%MOMM*%
%LPD*%
G01*
G04 APERTURE LIST*
%ADD10C,0.100000*%
%ADD11C,0.600000*%
%ADD12C,6.400000*%
%ADD13C,0.800000*%
%ADD14R,2.080000X3.600000*%
%ADD15O,2.080000X3.600000*%
%ADD16C,2.500000*%
%ADD17C,3.000000*%
%ADD18C,0.970000*%
%ADD19R,1.700000X1.700000*%
%ADD20O,1.700000X1.700000*%
%ADD21R,2.200000X2.200000*%
%ADD22O,2.200000X2.200000*%
%ADD23R,1.100000X1.700000*%
%ADD24O,1.100000X1.700000*%
%ADD25O,1.600000X3.900000*%
%ADD26C,0.500000*%
%ADD27C,0.200000*%
%ADD28C,0.127000*%
%ADD29C,0.254000*%
G04 APERTURE END LIST*
D10*
D11*
X160020000Y-122174000D03*
X109790000Y-99350000D03*
X116790000Y-99350000D03*
X113290000Y-99350000D03*
X109790000Y-102850000D03*
X116790000Y-102850000D03*
X116790000Y-113350000D03*
X116790000Y-109850000D03*
X109790000Y-109850000D03*
X109790000Y-113350000D03*
X113290000Y-113350000D03*
X113290000Y-109850000D03*
X113290000Y-102850000D03*
X116790000Y-106350000D03*
X109790000Y-106350000D03*
X113290000Y-106350000D03*
X148790000Y-69350000D03*
X148790000Y-64350000D03*
X128790000Y-94350000D03*
X138790000Y-94350000D03*
X148790000Y-84350000D03*
X128790000Y-89350000D03*
X143790000Y-89350000D03*
X118790000Y-79350000D03*
X123790000Y-79350000D03*
X100790000Y-98350000D03*
X155987000Y-96329000D03*
X152987000Y-96329000D03*
X149987000Y-96329000D03*
X155987000Y-94329000D03*
X152987000Y-94329000D03*
X149987000Y-94329000D03*
X155987000Y-92329000D03*
X152987000Y-92329000D03*
X134429000Y-117760000D03*
X132429000Y-117760000D03*
X130429000Y-117760000D03*
X134429000Y-114760000D03*
X132429000Y-114760000D03*
X130429000Y-114760000D03*
X134429000Y-111760000D03*
X132429000Y-111760000D03*
X130429000Y-111760000D03*
X143790000Y-84350000D03*
X138790000Y-84350000D03*
X133790000Y-84350000D03*
X128790000Y-84350000D03*
X143790000Y-79350000D03*
X138790000Y-79350000D03*
X133790000Y-79350000D03*
X128790000Y-79350000D03*
X143790000Y-74350000D03*
X138790000Y-74350000D03*
X133790000Y-74350000D03*
X128790000Y-74350000D03*
X143790000Y-69350000D03*
X138790000Y-69350000D03*
X133790000Y-69350000D03*
X128790000Y-69350000D03*
X123790000Y-69350000D03*
X118790000Y-69350000D03*
X113790000Y-69350000D03*
X108790000Y-69350000D03*
X143790000Y-64350000D03*
X138790000Y-64350000D03*
X133790000Y-64350000D03*
X128790000Y-64350000D03*
X123790000Y-64350000D03*
X118790000Y-64350000D03*
X113790000Y-64350000D03*
X118999000Y-120015000D03*
X118999000Y-121412000D03*
X117602000Y-122047000D03*
X117983000Y-123063000D03*
X119126000Y-123063000D03*
X120396000Y-123063000D03*
X121412000Y-124206000D03*
X120523000Y-125349000D03*
X119253000Y-125349000D03*
X118110000Y-125349000D03*
X116840000Y-125349000D03*
X115570000Y-125349000D03*
X114554000Y-125984000D03*
X114554000Y-127127000D03*
X115316000Y-119761000D03*
X115062000Y-121031000D03*
X113919000Y-121412000D03*
X112649000Y-121285000D03*
X111252000Y-120904000D03*
X111125000Y-119761000D03*
X112395000Y-127127000D03*
X112395000Y-125984000D03*
X111506000Y-125349000D03*
X110617000Y-124587000D03*
X109728000Y-123825000D03*
X108839000Y-123190000D03*
X108839000Y-122174000D03*
X108839000Y-120904000D03*
X108839000Y-119761000D03*
X104902000Y-115189000D03*
X103886000Y-115189000D03*
X103886000Y-116332000D03*
X104902000Y-117475000D03*
X103886000Y-117475000D03*
X157226000Y-106680000D03*
X155956000Y-106680000D03*
X100790000Y-88350000D03*
X100790000Y-93350000D03*
X108790000Y-64350000D03*
D12*
X101790000Y-65350000D03*
D13*
X104190000Y-65350000D03*
X103487056Y-67047056D03*
X101790000Y-67750000D03*
X100092944Y-67047056D03*
X99390000Y-65350000D03*
X100092944Y-63652944D03*
X101790000Y-62950000D03*
X103487056Y-63652944D03*
D12*
X101790000Y-129366944D03*
D13*
X104190000Y-129366944D03*
X103487056Y-131064000D03*
X101790000Y-131766944D03*
X100092944Y-131064000D03*
X99390000Y-129366944D03*
X100092944Y-127669888D03*
X101790000Y-126966944D03*
X103487056Y-127669888D03*
D12*
X193802000Y-129350000D03*
D13*
X196202000Y-129350000D03*
X195499056Y-131047056D03*
X193802000Y-131750000D03*
X192104944Y-131047056D03*
X191402000Y-129350000D03*
X192104944Y-127652944D03*
X193802000Y-126950000D03*
X195499056Y-127652944D03*
D11*
X180340000Y-122555000D03*
X180340000Y-115410000D03*
X180340000Y-110410000D03*
D14*
X149860000Y-126619000D03*
D15*
X154940000Y-126619000D03*
X160020000Y-126619000D03*
X165100000Y-126619000D03*
X170180000Y-126619000D03*
X175260000Y-126619000D03*
X180340000Y-126619000D03*
X185420000Y-126619000D03*
D16*
X174290000Y-104590000D03*
D17*
X174290000Y-116790000D03*
X186340000Y-116840000D03*
D16*
X186290000Y-104590000D03*
D17*
X180340000Y-102640000D03*
D18*
X109096000Y-127052500D03*
X117856000Y-127052500D03*
D19*
X149352000Y-77216000D03*
D20*
X149352000Y-74676000D03*
D19*
X185166000Y-74422000D03*
D20*
X187706000Y-74422000D03*
X190246000Y-74422000D03*
D19*
X190246000Y-79502000D03*
D20*
X190246000Y-82042000D03*
X190246000Y-84582000D03*
X190246000Y-87122000D03*
X190246000Y-89662000D03*
D11*
X180340000Y-105410000D03*
X185420000Y-122555000D03*
X175260000Y-122555000D03*
X149987000Y-92329000D03*
X164338000Y-102616000D03*
X164338000Y-100584000D03*
X164338000Y-104648000D03*
X162560000Y-100584000D03*
X162560000Y-102616000D03*
X162560000Y-104648000D03*
X166116000Y-100584000D03*
X166116000Y-102616000D03*
X166116000Y-104648000D03*
D12*
X193790000Y-65350000D03*
D13*
X196190000Y-65350000D03*
X195487056Y-67047056D03*
X193790000Y-67750000D03*
X192092944Y-67047056D03*
X191390000Y-65350000D03*
X192092944Y-63652944D03*
X193790000Y-62950000D03*
X195487056Y-63652944D03*
D21*
X170243500Y-64833500D03*
D22*
X180403500Y-64833500D03*
D23*
X119890000Y-85050000D03*
D24*
X120690000Y-82450000D03*
X121490000Y-85050000D03*
X122290000Y-82450000D03*
X123090000Y-85050000D03*
D25*
X117840000Y-83750000D03*
X125140000Y-83750000D03*
D11*
X105410000Y-78740000D03*
X105410000Y-81280000D03*
X178816000Y-78486000D03*
X161032000Y-72386000D03*
X176530000Y-78486000D03*
X161036000Y-75438000D03*
X154984000Y-72688000D03*
X154940000Y-80010000D03*
X165354000Y-80010000D03*
X162306000Y-83312000D03*
X158369000Y-106680000D03*
X104902000Y-116332000D03*
X132080000Y-100330000D03*
X154686000Y-106680000D03*
X167640000Y-83312000D03*
X167640000Y-75188000D03*
X122682000Y-101854000D03*
X122682000Y-98552000D03*
X160020000Y-117348000D03*
X183134000Y-96774000D03*
X173736000Y-68580000D03*
X173736000Y-70358000D03*
X173736000Y-72136000D03*
X173736000Y-73914000D03*
X173736000Y-75692000D03*
X115570000Y-74422000D03*
X159004000Y-77978000D03*
X154940000Y-78232000D03*
X122174000Y-74422000D03*
X122682000Y-114046000D03*
X111252000Y-89916000D03*
X112522000Y-88138000D03*
X151638000Y-73914000D03*
X179578000Y-93726000D03*
X180848000Y-74422000D03*
X101727000Y-104140000D03*
X102362000Y-81280000D03*
X102997000Y-103124000D03*
X102362000Y-78740000D03*
X104775000Y-102108000D03*
X105410000Y-76200000D03*
X103886000Y-101092000D03*
X102362000Y-76200000D03*
X104648000Y-105410000D03*
X115570000Y-72898000D03*
X122682000Y-107442000D03*
X122682000Y-106426000D03*
X122682000Y-105537000D03*
X122682000Y-104648000D03*
X162877500Y-67373500D03*
D26*
X178816000Y-78486000D02*
X177292000Y-76962000D01*
X177292000Y-76962000D02*
X165608000Y-76962000D01*
X165608000Y-76962000D02*
X161331999Y-72685999D01*
X161331999Y-72685999D02*
X161032000Y-72386000D01*
X163068000Y-82042000D02*
X190246000Y-82042000D01*
X159004000Y-77978000D02*
X163068000Y-82042000D01*
X154940000Y-78232000D02*
X161290000Y-84582000D01*
X161290000Y-84582000D02*
X190246000Y-84582000D01*
X122682000Y-114046000D02*
X127000000Y-109728000D01*
X127000000Y-109728000D02*
X127000000Y-79248000D01*
X127000000Y-79248000D02*
X122174000Y-74422000D01*
X151638000Y-80518000D02*
X164846000Y-93726000D01*
X164846000Y-93726000D02*
X179578000Y-93726000D01*
X151638000Y-73914000D02*
X151638000Y-80518000D01*
D27*
X102362000Y-81280000D02*
X101727000Y-81915000D01*
X101727000Y-81915000D02*
X101727000Y-104140000D01*
X102997000Y-103124000D02*
X102997000Y-79375000D01*
X102997000Y-79375000D02*
X102362000Y-78740000D01*
D28*
G36*
X175191240Y-114553162D02*
X175994270Y-115089730D01*
X176530838Y-115892760D01*
X176720500Y-116846255D01*
X176720500Y-119126000D01*
X176721720Y-119138388D01*
X176741055Y-119235590D01*
X176750537Y-119258481D01*
X176805597Y-119340884D01*
X176823116Y-119358403D01*
X176905519Y-119413463D01*
X176928410Y-119422945D01*
X177110426Y-119459151D01*
X177171824Y-119500176D01*
X177212849Y-119561574D01*
X177228500Y-119640255D01*
X177228500Y-127501745D01*
X177077507Y-128260837D01*
X176651060Y-128899060D01*
X176012837Y-129325507D01*
X175260000Y-129475256D01*
X174507163Y-129325507D01*
X173868940Y-128899060D01*
X173442493Y-128260837D01*
X173291500Y-127501745D01*
X173291500Y-120142000D01*
X173290280Y-120129612D01*
X173232276Y-119838007D01*
X173222794Y-119815116D01*
X173057613Y-119567906D01*
X173040094Y-119550387D01*
X172792884Y-119385206D01*
X172769993Y-119375724D01*
X172199171Y-119262180D01*
X171972966Y-119111034D01*
X171821820Y-118884829D01*
X171767500Y-118611745D01*
X171767500Y-116846255D01*
X171957162Y-115892760D01*
X172493730Y-115089730D01*
X173296760Y-114553162D01*
X174244000Y-114364744D01*
X175191240Y-114553162D01*
X175191240Y-114553162D01*
G37*
X175191240Y-114553162D02*
X175994270Y-115089730D01*
X176530838Y-115892760D01*
X176720500Y-116846255D01*
X176720500Y-119126000D01*
X176721720Y-119138388D01*
X176741055Y-119235590D01*
X176750537Y-119258481D01*
X176805597Y-119340884D01*
X176823116Y-119358403D01*
X176905519Y-119413463D01*
X176928410Y-119422945D01*
X177110426Y-119459151D01*
X177171824Y-119500176D01*
X177212849Y-119561574D01*
X177228500Y-119640255D01*
X177228500Y-127501745D01*
X177077507Y-128260837D01*
X176651060Y-128899060D01*
X176012837Y-129325507D01*
X175260000Y-129475256D01*
X174507163Y-129325507D01*
X173868940Y-128899060D01*
X173442493Y-128260837D01*
X173291500Y-127501745D01*
X173291500Y-120142000D01*
X173290280Y-120129612D01*
X173232276Y-119838007D01*
X173222794Y-119815116D01*
X173057613Y-119567906D01*
X173040094Y-119550387D01*
X172792884Y-119385206D01*
X172769993Y-119375724D01*
X172199171Y-119262180D01*
X171972966Y-119111034D01*
X171821820Y-118884829D01*
X171767500Y-118611745D01*
X171767500Y-116846255D01*
X171957162Y-115892760D01*
X172493730Y-115089730D01*
X173296760Y-114553162D01*
X174244000Y-114364744D01*
X175191240Y-114553162D01*
G36*
X187207639Y-114543495D02*
X187969468Y-115052532D01*
X188478505Y-115814361D01*
X188658500Y-116719255D01*
X188658500Y-118738745D01*
X188613848Y-118963228D01*
X188490232Y-119148232D01*
X188305228Y-119271848D01*
X187831608Y-119366056D01*
X187808717Y-119375538D01*
X187602708Y-119513189D01*
X187585189Y-119530708D01*
X187447538Y-119736717D01*
X187438056Y-119759608D01*
X187389720Y-120002612D01*
X187388500Y-120015000D01*
X187388500Y-127501745D01*
X187237507Y-128260837D01*
X186811060Y-128899060D01*
X186172837Y-129325507D01*
X185420000Y-129475256D01*
X184667163Y-129325507D01*
X184028940Y-128899060D01*
X183602493Y-128260837D01*
X183451500Y-127501745D01*
X183451500Y-119640255D01*
X183467151Y-119561574D01*
X183508176Y-119500176D01*
X183569574Y-119459151D01*
X183751590Y-119422945D01*
X183774481Y-119413463D01*
X183856884Y-119358403D01*
X183874403Y-119340884D01*
X183929463Y-119258481D01*
X183938945Y-119235590D01*
X183958280Y-119138388D01*
X183959500Y-119126000D01*
X183959500Y-116719255D01*
X184139495Y-115814361D01*
X184648532Y-115052532D01*
X185410361Y-114543495D01*
X186309000Y-114364744D01*
X187207639Y-114543495D01*
X187207639Y-114543495D01*
G37*
X187207639Y-114543495D02*
X187969468Y-115052532D01*
X188478505Y-115814361D01*
X188658500Y-116719255D01*
X188658500Y-118738745D01*
X188613848Y-118963228D01*
X188490232Y-119148232D01*
X188305228Y-119271848D01*
X187831608Y-119366056D01*
X187808717Y-119375538D01*
X187602708Y-119513189D01*
X187585189Y-119530708D01*
X187447538Y-119736717D01*
X187438056Y-119759608D01*
X187389720Y-120002612D01*
X187388500Y-120015000D01*
X187388500Y-127501745D01*
X187237507Y-128260837D01*
X186811060Y-128899060D01*
X186172837Y-129325507D01*
X185420000Y-129475256D01*
X184667163Y-129325507D01*
X184028940Y-128899060D01*
X183602493Y-128260837D01*
X183451500Y-127501745D01*
X183451500Y-119640255D01*
X183467151Y-119561574D01*
X183508176Y-119500176D01*
X183569574Y-119459151D01*
X183751590Y-119422945D01*
X183774481Y-119413463D01*
X183856884Y-119358403D01*
X183874403Y-119340884D01*
X183929463Y-119258481D01*
X183938945Y-119235590D01*
X183958280Y-119138388D01*
X183959500Y-119126000D01*
X183959500Y-116719255D01*
X184139495Y-115814361D01*
X184648532Y-115052532D01*
X185410361Y-114543495D01*
X186309000Y-114364744D01*
X187207639Y-114543495D01*
G36*
X181092837Y-100798493D02*
X181731060Y-101224940D01*
X182157507Y-101863163D01*
X182308500Y-102622255D01*
X182308500Y-127501745D01*
X182157507Y-128260837D01*
X181731060Y-128899060D01*
X181092837Y-129325507D01*
X180340000Y-129475256D01*
X179587163Y-129325507D01*
X178948940Y-128899060D01*
X178522493Y-128260837D01*
X178371500Y-127501745D01*
X178371500Y-102622255D01*
X178522493Y-101863163D01*
X178948940Y-101224940D01*
X179587163Y-100798493D01*
X180340000Y-100648744D01*
X181092837Y-100798493D01*
X181092837Y-100798493D01*
G37*
X181092837Y-100798493D02*
X181731060Y-101224940D01*
X182157507Y-101863163D01*
X182308500Y-102622255D01*
X182308500Y-127501745D01*
X182157507Y-128260837D01*
X181731060Y-128899060D01*
X181092837Y-129325507D01*
X180340000Y-129475256D01*
X179587163Y-129325507D01*
X178948940Y-128899060D01*
X178522493Y-128260837D01*
X178371500Y-127501745D01*
X178371500Y-102622255D01*
X178522493Y-101863163D01*
X178948940Y-101224940D01*
X179587163Y-100798493D01*
X180340000Y-100648744D01*
X181092837Y-100798493D01*
D29*
G36*
X197359000Y-132919000D02*
X189917000Y-132919000D01*
X189917000Y-97350000D01*
X189906994Y-97300590D01*
X189878553Y-97258965D01*
X189836159Y-97231685D01*
X189790000Y-97223000D01*
X183648137Y-97223000D01*
X183710987Y-97160259D01*
X183814882Y-96910054D01*
X183815118Y-96639135D01*
X183711661Y-96388748D01*
X183520259Y-96197013D01*
X183270054Y-96093118D01*
X182999135Y-96092882D01*
X182748748Y-96196339D01*
X182557013Y-96387741D01*
X182453118Y-96637946D01*
X182452882Y-96908865D01*
X182556339Y-97159252D01*
X182619976Y-97223000D01*
X170790000Y-97223000D01*
X170740590Y-97233006D01*
X170698965Y-97261447D01*
X170671685Y-97303841D01*
X170663000Y-97350000D01*
X170663000Y-124491347D01*
X170180000Y-124395272D01*
X169636207Y-124503439D01*
X169175201Y-124811473D01*
X168867167Y-125272479D01*
X168759000Y-125816272D01*
X168759000Y-127421728D01*
X168867167Y-127965521D01*
X169175201Y-128426527D01*
X169636207Y-128734561D01*
X170180000Y-128842728D01*
X170663000Y-128746653D01*
X170663000Y-132919000D01*
X98221000Y-132919000D01*
X98221000Y-124819000D01*
X148431536Y-124819000D01*
X148431536Y-128419000D01*
X148458103Y-128560190D01*
X148541546Y-128689865D01*
X148668866Y-128776859D01*
X148820000Y-128807464D01*
X150900000Y-128807464D01*
X151041190Y-128780897D01*
X151170865Y-128697454D01*
X151257859Y-128570134D01*
X151288464Y-128419000D01*
X151288464Y-125816272D01*
X153519000Y-125816272D01*
X153519000Y-127421728D01*
X153627167Y-127965521D01*
X153935201Y-128426527D01*
X154396207Y-128734561D01*
X154940000Y-128842728D01*
X155483793Y-128734561D01*
X155944799Y-128426527D01*
X156252833Y-127965521D01*
X156361000Y-127421728D01*
X156361000Y-125816272D01*
X156252833Y-125272479D01*
X155944799Y-124811473D01*
X155483793Y-124503439D01*
X154940000Y-124395272D01*
X154396207Y-124503439D01*
X153935201Y-124811473D01*
X153627167Y-125272479D01*
X153519000Y-125816272D01*
X151288464Y-125816272D01*
X151288464Y-124819000D01*
X151261897Y-124677810D01*
X151178454Y-124548135D01*
X151051134Y-124461141D01*
X150900000Y-124430536D01*
X148820000Y-124430536D01*
X148678810Y-124457103D01*
X148549135Y-124540546D01*
X148462141Y-124667866D01*
X148431536Y-124819000D01*
X98221000Y-124819000D01*
X98221000Y-114808000D01*
X102743000Y-114808000D01*
X102743000Y-117856000D01*
X102769056Y-117994477D01*
X102850896Y-118121660D01*
X102975770Y-118206983D01*
X103124000Y-118237000D01*
X105664000Y-118237000D01*
X105802477Y-118210944D01*
X105929660Y-118129104D01*
X106014983Y-118004230D01*
X106045000Y-117856000D01*
X106045000Y-117348000D01*
X157861000Y-117348000D01*
X157861000Y-127762000D01*
X157868321Y-127836329D01*
X158003663Y-128516740D01*
X158060552Y-128654083D01*
X158445974Y-129230908D01*
X158551092Y-129336026D01*
X159127917Y-129721448D01*
X159265260Y-129778337D01*
X159945671Y-129913679D01*
X160094329Y-129913679D01*
X160774740Y-129778337D01*
X160912083Y-129721448D01*
X161488908Y-129336026D01*
X161594026Y-129230908D01*
X161979448Y-128654083D01*
X162036337Y-128516740D01*
X162171679Y-127836329D01*
X162179000Y-127762000D01*
X162179000Y-117348000D01*
X162171679Y-117273671D01*
X162036337Y-116593260D01*
X161979448Y-116455917D01*
X161594026Y-115879092D01*
X161488908Y-115773974D01*
X160912083Y-115388552D01*
X160774740Y-115331663D01*
X160094329Y-115196321D01*
X159945671Y-115196321D01*
X159265260Y-115331663D01*
X159127917Y-115388552D01*
X158551092Y-115773974D01*
X158445974Y-115879092D01*
X158060552Y-116455917D01*
X158003663Y-116593260D01*
X157868321Y-117273671D01*
X157861000Y-117348000D01*
X106045000Y-117348000D01*
X106045000Y-114808000D01*
X106018944Y-114669523D01*
X105937104Y-114542340D01*
X105812230Y-114457017D01*
X105664000Y-114427000D01*
X103124000Y-114427000D01*
X102985523Y-114453056D01*
X102858340Y-114534896D01*
X102773017Y-114659770D01*
X102743000Y-114808000D01*
X98221000Y-114808000D01*
X98221000Y-105544865D01*
X103966882Y-105544865D01*
X104070339Y-105795252D01*
X104261741Y-105986987D01*
X104511946Y-106090882D01*
X104782865Y-106091118D01*
X105033252Y-105987661D01*
X105224987Y-105796259D01*
X105328882Y-105546054D01*
X105329118Y-105275135D01*
X105225661Y-105024748D01*
X105034259Y-104833013D01*
X104913491Y-104782865D01*
X122000882Y-104782865D01*
X122104339Y-105033252D01*
X122163420Y-105092436D01*
X122105013Y-105150741D01*
X122001118Y-105400946D01*
X122000882Y-105671865D01*
X122104339Y-105922252D01*
X122163420Y-105981436D01*
X122105013Y-106039741D01*
X122001118Y-106289946D01*
X122000882Y-106560865D01*
X122104339Y-106811252D01*
X122226920Y-106934046D01*
X122105013Y-107055741D01*
X122001118Y-107305946D01*
X122000882Y-107576865D01*
X122104339Y-107827252D01*
X122295741Y-108018987D01*
X122545946Y-108122882D01*
X122816865Y-108123118D01*
X123067252Y-108019661D01*
X123258987Y-107828259D01*
X123362882Y-107578054D01*
X123363118Y-107307135D01*
X123259661Y-107056748D01*
X123137080Y-106933954D01*
X123258987Y-106812259D01*
X123362882Y-106562054D01*
X123363118Y-106291135D01*
X123259661Y-106040748D01*
X123200580Y-105981564D01*
X123258987Y-105923259D01*
X123362882Y-105673054D01*
X123363118Y-105402135D01*
X123259661Y-105151748D01*
X123200580Y-105092564D01*
X123258987Y-105034259D01*
X123362882Y-104784054D01*
X123363118Y-104513135D01*
X123259661Y-104262748D01*
X123068259Y-104071013D01*
X122818054Y-103967118D01*
X122547135Y-103966882D01*
X122296748Y-104070339D01*
X122105013Y-104261741D01*
X122001118Y-104511946D01*
X122000882Y-104782865D01*
X104913491Y-104782865D01*
X104784054Y-104729118D01*
X104513135Y-104728882D01*
X104262748Y-104832339D01*
X104071013Y-105023741D01*
X103967118Y-105273946D01*
X103966882Y-105544865D01*
X98221000Y-105544865D01*
X98221000Y-104274865D01*
X101045882Y-104274865D01*
X101149339Y-104525252D01*
X101340741Y-104716987D01*
X101590946Y-104820882D01*
X101861865Y-104821118D01*
X102112252Y-104717661D01*
X102303987Y-104526259D01*
X102407882Y-104276054D01*
X102408118Y-104005135D01*
X102304661Y-103754748D01*
X102208000Y-103657919D01*
X102208000Y-82114236D01*
X102361237Y-81961000D01*
X102496865Y-81961118D01*
X102516000Y-81953212D01*
X102516000Y-102641921D01*
X102420013Y-102737741D01*
X102316118Y-102987946D01*
X102315882Y-103258865D01*
X102419339Y-103509252D01*
X102610741Y-103700987D01*
X102860946Y-103804882D01*
X103131865Y-103805118D01*
X103382252Y-103701661D01*
X103573987Y-103510259D01*
X103677882Y-103260054D01*
X103678118Y-102989135D01*
X103574661Y-102738748D01*
X103478000Y-102641919D01*
X103478000Y-101647208D01*
X103499741Y-101668987D01*
X103749946Y-101772882D01*
X104020865Y-101773118D01*
X104235305Y-101684514D01*
X104198013Y-101721741D01*
X104094118Y-101971946D01*
X104093882Y-102242865D01*
X104197339Y-102493252D01*
X104388741Y-102684987D01*
X104638946Y-102788882D01*
X104909865Y-102789118D01*
X105160252Y-102685661D01*
X105351987Y-102494259D01*
X105455882Y-102244054D01*
X105456104Y-101988865D01*
X122000882Y-101988865D01*
X122104339Y-102239252D01*
X122295741Y-102430987D01*
X122545946Y-102534882D01*
X122816865Y-102535118D01*
X123067252Y-102431661D01*
X123258987Y-102240259D01*
X123362882Y-101990054D01*
X123363118Y-101719135D01*
X123259661Y-101468748D01*
X123068259Y-101277013D01*
X122818054Y-101173118D01*
X122547135Y-101172882D01*
X122296748Y-101276339D01*
X122105013Y-101467741D01*
X122001118Y-101717946D01*
X122000882Y-101988865D01*
X105456104Y-101988865D01*
X105456118Y-101973135D01*
X105352661Y-101722748D01*
X105161259Y-101531013D01*
X104911054Y-101427118D01*
X104640135Y-101426882D01*
X104425695Y-101515486D01*
X104462987Y-101478259D01*
X104566882Y-101228054D01*
X104567118Y-100957135D01*
X104463661Y-100706748D01*
X104272259Y-100515013D01*
X104022054Y-100411118D01*
X103751135Y-100410882D01*
X103500748Y-100514339D01*
X103478000Y-100537047D01*
X103478000Y-98686865D01*
X122000882Y-98686865D01*
X122104339Y-98937252D01*
X122295741Y-99128987D01*
X122545946Y-99232882D01*
X122816865Y-99233118D01*
X123067252Y-99129661D01*
X123258987Y-98938259D01*
X123362882Y-98688054D01*
X123363118Y-98417135D01*
X123259661Y-98166748D01*
X123068259Y-97975013D01*
X122818054Y-97871118D01*
X122547135Y-97870882D01*
X122296748Y-97974339D01*
X122105013Y-98165741D01*
X122001118Y-98415946D01*
X122000882Y-98686865D01*
X103478000Y-98686865D01*
X103478000Y-90050865D01*
X110570882Y-90050865D01*
X110674339Y-90301252D01*
X110865741Y-90492987D01*
X111115946Y-90596882D01*
X111386865Y-90597118D01*
X111637252Y-90493661D01*
X111828987Y-90302259D01*
X111932882Y-90052054D01*
X111933118Y-89781135D01*
X111829661Y-89530748D01*
X111638259Y-89339013D01*
X111388054Y-89235118D01*
X111117135Y-89234882D01*
X110866748Y-89338339D01*
X110675013Y-89529741D01*
X110571118Y-89779946D01*
X110570882Y-90050865D01*
X103478000Y-90050865D01*
X103478000Y-88272865D01*
X111840882Y-88272865D01*
X111944339Y-88523252D01*
X112135741Y-88714987D01*
X112385946Y-88818882D01*
X112656865Y-88819118D01*
X112907252Y-88715661D01*
X113098987Y-88524259D01*
X113202882Y-88274054D01*
X113203118Y-88003135D01*
X113099661Y-87752748D01*
X112908259Y-87561013D01*
X112658054Y-87457118D01*
X112387135Y-87456882D01*
X112136748Y-87560339D01*
X111945013Y-87751741D01*
X111841118Y-88001946D01*
X111840882Y-88272865D01*
X103478000Y-88272865D01*
X103478000Y-84200000D01*
X118951536Y-84200000D01*
X118951536Y-85900000D01*
X118978103Y-86041190D01*
X119061546Y-86170865D01*
X119188866Y-86257859D01*
X119340000Y-86288464D01*
X120440000Y-86288464D01*
X120581190Y-86261897D01*
X120710865Y-86178454D01*
X120797859Y-86051134D01*
X120808632Y-85997934D01*
X120831684Y-86032433D01*
X121133722Y-86234249D01*
X121490000Y-86305117D01*
X121846278Y-86234249D01*
X122148316Y-86032433D01*
X122350132Y-85730395D01*
X122421000Y-85374117D01*
X122421000Y-84725883D01*
X122350132Y-84369605D01*
X122148316Y-84067567D01*
X121846278Y-83865751D01*
X121490000Y-83794883D01*
X121133722Y-83865751D01*
X120831684Y-84067567D01*
X120809728Y-84100427D01*
X120801897Y-84058810D01*
X120718454Y-83929135D01*
X120591134Y-83842141D01*
X120440000Y-83811536D01*
X119340000Y-83811536D01*
X119198810Y-83838103D01*
X119069135Y-83921546D01*
X118982141Y-84048866D01*
X118951536Y-84200000D01*
X103478000Y-84200000D01*
X103478000Y-82125883D01*
X119759000Y-82125883D01*
X119759000Y-82774117D01*
X119829868Y-83130395D01*
X120031684Y-83432433D01*
X120333722Y-83634249D01*
X120690000Y-83705117D01*
X121046278Y-83634249D01*
X121348316Y-83432433D01*
X121490000Y-83220389D01*
X121631684Y-83432433D01*
X121933722Y-83634249D01*
X122290000Y-83705117D01*
X122646278Y-83634249D01*
X122948316Y-83432433D01*
X123150132Y-83130395D01*
X123221000Y-82774117D01*
X123221000Y-82125883D01*
X123150132Y-81769605D01*
X122948316Y-81467567D01*
X122646278Y-81265751D01*
X122290000Y-81194883D01*
X121933722Y-81265751D01*
X121631684Y-81467567D01*
X121490000Y-81679611D01*
X121348316Y-81467567D01*
X121046278Y-81265751D01*
X120690000Y-81194883D01*
X120333722Y-81265751D01*
X120031684Y-81467567D01*
X119829868Y-81769605D01*
X119759000Y-82125883D01*
X103478000Y-82125883D01*
X103478000Y-79375000D01*
X103441386Y-79190929D01*
X103367344Y-79080118D01*
X103337119Y-79034882D01*
X103177102Y-78874865D01*
X104728882Y-78874865D01*
X104832339Y-79125252D01*
X105023741Y-79316987D01*
X105273946Y-79420882D01*
X105544865Y-79421118D01*
X105795252Y-79317661D01*
X105986987Y-79126259D01*
X106090882Y-78876054D01*
X106091118Y-78605135D01*
X105987661Y-78354748D01*
X105796259Y-78163013D01*
X105546054Y-78059118D01*
X105275135Y-78058882D01*
X105024748Y-78162339D01*
X104833013Y-78353741D01*
X104729118Y-78603946D01*
X104728882Y-78874865D01*
X103177102Y-78874865D01*
X103043000Y-78740763D01*
X103043118Y-78605135D01*
X102939661Y-78354748D01*
X102748259Y-78163013D01*
X102498054Y-78059118D01*
X102227135Y-78058882D01*
X101976748Y-78162339D01*
X101785013Y-78353741D01*
X101681118Y-78603946D01*
X101680882Y-78874865D01*
X101784339Y-79125252D01*
X101975741Y-79316987D01*
X102225946Y-79420882D01*
X102362765Y-79421001D01*
X102516000Y-79574237D01*
X102516000Y-80606570D01*
X102498054Y-80599118D01*
X102227135Y-80598882D01*
X101976748Y-80702339D01*
X101785013Y-80893741D01*
X101681118Y-81143946D01*
X101680999Y-81280765D01*
X101386882Y-81574882D01*
X101282614Y-81730929D01*
X101246000Y-81915000D01*
X101246000Y-103657921D01*
X101150013Y-103753741D01*
X101046118Y-104003946D01*
X101045882Y-104274865D01*
X98221000Y-104274865D01*
X98221000Y-76334865D01*
X101680882Y-76334865D01*
X101784339Y-76585252D01*
X101975741Y-76776987D01*
X102225946Y-76880882D01*
X102496865Y-76881118D01*
X102747252Y-76777661D01*
X102938987Y-76586259D01*
X103042882Y-76336054D01*
X103042883Y-76334865D01*
X104728882Y-76334865D01*
X104832339Y-76585252D01*
X105023741Y-76776987D01*
X105273946Y-76880882D01*
X105544865Y-76881118D01*
X105795252Y-76777661D01*
X105986987Y-76586259D01*
X106090882Y-76336054D01*
X106091118Y-76065135D01*
X105987661Y-75814748D01*
X105796259Y-75623013D01*
X105546054Y-75519118D01*
X105275135Y-75518882D01*
X105024748Y-75622339D01*
X104833013Y-75813741D01*
X104729118Y-76063946D01*
X104728882Y-76334865D01*
X103042883Y-76334865D01*
X103043118Y-76065135D01*
X102939661Y-75814748D01*
X102748259Y-75623013D01*
X102498054Y-75519118D01*
X102227135Y-75518882D01*
X101976748Y-75622339D01*
X101785013Y-75813741D01*
X101681118Y-76063946D01*
X101680882Y-76334865D01*
X98221000Y-76334865D01*
X98221000Y-74556865D01*
X114888882Y-74556865D01*
X114992339Y-74807252D01*
X115183741Y-74998987D01*
X115433946Y-75102882D01*
X115704865Y-75103118D01*
X115955252Y-74999661D01*
X116146987Y-74808259D01*
X116250882Y-74558054D01*
X116250883Y-74556865D01*
X121492882Y-74556865D01*
X121596339Y-74807252D01*
X121787741Y-74998987D01*
X121908950Y-75049318D01*
X126369000Y-79509369D01*
X126369000Y-109466632D01*
X122416965Y-113418667D01*
X122296748Y-113468339D01*
X122105013Y-113659741D01*
X122001118Y-113909946D01*
X122000882Y-114180865D01*
X122104339Y-114431252D01*
X122295741Y-114622987D01*
X122545946Y-114726882D01*
X122816865Y-114727118D01*
X123067252Y-114623661D01*
X123258987Y-114432259D01*
X123309318Y-114311050D01*
X127446184Y-110174184D01*
X127582968Y-109969474D01*
X127590937Y-109929411D01*
X127631000Y-109728000D01*
X127631000Y-106045000D01*
X153797000Y-106045000D01*
X153797000Y-107315000D01*
X153823056Y-107453477D01*
X153904896Y-107580660D01*
X154029770Y-107665983D01*
X154178000Y-107696000D01*
X158877000Y-107696000D01*
X159015477Y-107669944D01*
X159142660Y-107588104D01*
X159227983Y-107463230D01*
X159258000Y-107315000D01*
X159258000Y-106045000D01*
X159231944Y-105906523D01*
X159150104Y-105779340D01*
X159025230Y-105694017D01*
X158877000Y-105664000D01*
X154178000Y-105664000D01*
X154039523Y-105690056D01*
X153912340Y-105771896D01*
X153827017Y-105896770D01*
X153797000Y-106045000D01*
X127631000Y-106045000D01*
X127631000Y-100464865D01*
X131398882Y-100464865D01*
X131502339Y-100715252D01*
X131693741Y-100906987D01*
X131943946Y-101010882D01*
X132214865Y-101011118D01*
X132465252Y-100907661D01*
X132656987Y-100716259D01*
X132760882Y-100466054D01*
X132761118Y-100195135D01*
X132657661Y-99944748D01*
X132466259Y-99753013D01*
X132216054Y-99649118D01*
X131945135Y-99648882D01*
X131694748Y-99752339D01*
X131503013Y-99943741D01*
X131399118Y-100193946D01*
X131398882Y-100464865D01*
X127631000Y-100464865D01*
X127631000Y-79248000D01*
X127582968Y-79006527D01*
X127446185Y-78801816D01*
X125010369Y-76366000D01*
X148113536Y-76366000D01*
X148113536Y-78066000D01*
X148140103Y-78207190D01*
X148223546Y-78336865D01*
X148350866Y-78423859D01*
X148502000Y-78454464D01*
X150202000Y-78454464D01*
X150343190Y-78427897D01*
X150472865Y-78344454D01*
X150559859Y-78217134D01*
X150590464Y-78066000D01*
X150590464Y-76366000D01*
X150563897Y-76224810D01*
X150480454Y-76095135D01*
X150353134Y-76008141D01*
X150202000Y-75977536D01*
X148502000Y-75977536D01*
X148360810Y-76004103D01*
X148231135Y-76087546D01*
X148144141Y-76214866D01*
X148113536Y-76366000D01*
X125010369Y-76366000D01*
X123320369Y-74676000D01*
X148096883Y-74676000D01*
X148190587Y-75147083D01*
X148457435Y-75546448D01*
X148856800Y-75813296D01*
X149327883Y-75907000D01*
X149376117Y-75907000D01*
X149847200Y-75813296D01*
X150246565Y-75546448D01*
X150513413Y-75147083D01*
X150607117Y-74676000D01*
X150513413Y-74204917D01*
X150409143Y-74048865D01*
X150956882Y-74048865D01*
X151007000Y-74170161D01*
X151007000Y-80518000D01*
X151051251Y-80740464D01*
X151055032Y-80759473D01*
X151191816Y-80964184D01*
X164399816Y-94172185D01*
X164604527Y-94308968D01*
X164846000Y-94357000D01*
X179321818Y-94357000D01*
X179441946Y-94406882D01*
X179712865Y-94407118D01*
X179963252Y-94303661D01*
X180154987Y-94112259D01*
X180258882Y-93862054D01*
X180259118Y-93591135D01*
X180155661Y-93340748D01*
X179964259Y-93149013D01*
X179714054Y-93045118D01*
X179443135Y-93044882D01*
X179321839Y-93095000D01*
X165107369Y-93095000D01*
X159134369Y-87122000D01*
X188990883Y-87122000D01*
X189084587Y-87593083D01*
X189351435Y-87992448D01*
X189750800Y-88259296D01*
X190221883Y-88353000D01*
X190270117Y-88353000D01*
X190741200Y-88259296D01*
X191140565Y-87992448D01*
X191407413Y-87593083D01*
X191501117Y-87122000D01*
X191407413Y-86650917D01*
X191140565Y-86251552D01*
X190741200Y-85984704D01*
X190270117Y-85891000D01*
X190221883Y-85891000D01*
X189750800Y-85984704D01*
X189351435Y-86251552D01*
X189084587Y-86650917D01*
X188990883Y-87122000D01*
X159134369Y-87122000D01*
X152269000Y-80256632D01*
X152269000Y-78366865D01*
X154258882Y-78366865D01*
X154362339Y-78617252D01*
X154553741Y-78808987D01*
X154674950Y-78859318D01*
X155193531Y-79377899D01*
X155076054Y-79329118D01*
X154805135Y-79328882D01*
X154554748Y-79432339D01*
X154363013Y-79623741D01*
X154259118Y-79873946D01*
X154258882Y-80144865D01*
X154362339Y-80395252D01*
X154553741Y-80586987D01*
X154803946Y-80690882D01*
X155074865Y-80691118D01*
X155325252Y-80587661D01*
X155516987Y-80396259D01*
X155620882Y-80146054D01*
X155621118Y-79875135D01*
X155572076Y-79756444D01*
X160843816Y-85028184D01*
X161048526Y-85164968D01*
X161088589Y-85172937D01*
X161290000Y-85213000D01*
X189191440Y-85213000D01*
X189351435Y-85452448D01*
X189750800Y-85719296D01*
X190221883Y-85813000D01*
X190270117Y-85813000D01*
X190741200Y-85719296D01*
X191140565Y-85452448D01*
X191407413Y-85053083D01*
X191501117Y-84582000D01*
X191407413Y-84110917D01*
X191140565Y-83711552D01*
X190741200Y-83444704D01*
X190270117Y-83351000D01*
X190221883Y-83351000D01*
X189750800Y-83444704D01*
X189351435Y-83711552D01*
X189191440Y-83951000D01*
X167876799Y-83951000D01*
X168025252Y-83889661D01*
X168216987Y-83698259D01*
X168320882Y-83448054D01*
X168321118Y-83177135D01*
X168217661Y-82926748D01*
X168026259Y-82735013D01*
X167876916Y-82673000D01*
X189191440Y-82673000D01*
X189351435Y-82912448D01*
X189750800Y-83179296D01*
X190221883Y-83273000D01*
X190270117Y-83273000D01*
X190741200Y-83179296D01*
X191140565Y-82912448D01*
X191407413Y-82513083D01*
X191501117Y-82042000D01*
X191407413Y-81570917D01*
X191140565Y-81171552D01*
X190741200Y-80904704D01*
X190270117Y-80811000D01*
X190221883Y-80811000D01*
X189750800Y-80904704D01*
X189351435Y-81171552D01*
X189191440Y-81411000D01*
X163329368Y-81411000D01*
X162063233Y-80144865D01*
X164672882Y-80144865D01*
X164776339Y-80395252D01*
X164967741Y-80586987D01*
X165217946Y-80690882D01*
X165488865Y-80691118D01*
X165739252Y-80587661D01*
X165930987Y-80396259D01*
X166034882Y-80146054D01*
X166035118Y-79875135D01*
X165931661Y-79624748D01*
X165740259Y-79433013D01*
X165490054Y-79329118D01*
X165219135Y-79328882D01*
X164968748Y-79432339D01*
X164777013Y-79623741D01*
X164673118Y-79873946D01*
X164672882Y-80144865D01*
X162063233Y-80144865D01*
X160539233Y-78620865D01*
X175848882Y-78620865D01*
X175952339Y-78871252D01*
X176143741Y-79062987D01*
X176393946Y-79166882D01*
X176664865Y-79167118D01*
X176915252Y-79063661D01*
X177106987Y-78872259D01*
X177210882Y-78622054D01*
X177211118Y-78351135D01*
X177107661Y-78100748D01*
X176916259Y-77909013D01*
X176666054Y-77805118D01*
X176395135Y-77804882D01*
X176144748Y-77908339D01*
X175953013Y-78099741D01*
X175849118Y-78349946D01*
X175848882Y-78620865D01*
X160539233Y-78620865D01*
X159631333Y-77712965D01*
X159581661Y-77592748D01*
X159390259Y-77401013D01*
X159140054Y-77297118D01*
X158869135Y-77296882D01*
X158618748Y-77400339D01*
X158427013Y-77591741D01*
X158323118Y-77841946D01*
X158322882Y-78112865D01*
X158426339Y-78363252D01*
X158617741Y-78554987D01*
X158738950Y-78605318D01*
X162621816Y-82488184D01*
X162826527Y-82624968D01*
X163068000Y-82673000D01*
X167403201Y-82673000D01*
X167254748Y-82734339D01*
X167063013Y-82925741D01*
X166959118Y-83175946D01*
X166958882Y-83446865D01*
X167062339Y-83697252D01*
X167253741Y-83888987D01*
X167403084Y-83951000D01*
X162542799Y-83951000D01*
X162691252Y-83889661D01*
X162882987Y-83698259D01*
X162986882Y-83448054D01*
X162987118Y-83177135D01*
X162883661Y-82926748D01*
X162692259Y-82735013D01*
X162442054Y-82631118D01*
X162171135Y-82630882D01*
X161920748Y-82734339D01*
X161729013Y-82925741D01*
X161625118Y-83175946D01*
X161624882Y-83446865D01*
X161728339Y-83697252D01*
X161919741Y-83888987D01*
X162069084Y-83951000D01*
X161551368Y-83951000D01*
X155567333Y-77966965D01*
X155517661Y-77846748D01*
X155326259Y-77655013D01*
X155076054Y-77551118D01*
X154805135Y-77550882D01*
X154554748Y-77654339D01*
X154363013Y-77845741D01*
X154259118Y-78095946D01*
X154258882Y-78366865D01*
X152269000Y-78366865D01*
X152269000Y-75572865D01*
X160354882Y-75572865D01*
X160458339Y-75823252D01*
X160649741Y-76014987D01*
X160899946Y-76118882D01*
X161170865Y-76119118D01*
X161421252Y-76015661D01*
X161612987Y-75824259D01*
X161716882Y-75574054D01*
X161717118Y-75303135D01*
X161613661Y-75052748D01*
X161422259Y-74861013D01*
X161172054Y-74757118D01*
X160901135Y-74756882D01*
X160650748Y-74860339D01*
X160459013Y-75051741D01*
X160355118Y-75301946D01*
X160354882Y-75572865D01*
X152269000Y-75572865D01*
X152269000Y-74170182D01*
X152318882Y-74050054D01*
X152319118Y-73779135D01*
X152215661Y-73528748D01*
X152024259Y-73337013D01*
X151774054Y-73233118D01*
X151503135Y-73232882D01*
X151252748Y-73336339D01*
X151061013Y-73527741D01*
X150957118Y-73777946D01*
X150956882Y-74048865D01*
X150409143Y-74048865D01*
X150246565Y-73805552D01*
X149847200Y-73538704D01*
X149376117Y-73445000D01*
X149327883Y-73445000D01*
X148856800Y-73538704D01*
X148457435Y-73805552D01*
X148190587Y-74204917D01*
X148096883Y-74676000D01*
X123320369Y-74676000D01*
X122801333Y-74156965D01*
X122751661Y-74036748D01*
X122560259Y-73845013D01*
X122310054Y-73741118D01*
X122039135Y-73740882D01*
X121788748Y-73844339D01*
X121597013Y-74035741D01*
X121493118Y-74285946D01*
X121492882Y-74556865D01*
X116250883Y-74556865D01*
X116251118Y-74287135D01*
X116147661Y-74036748D01*
X115956259Y-73845013D01*
X115706054Y-73741118D01*
X115435135Y-73740882D01*
X115184748Y-73844339D01*
X114993013Y-74035741D01*
X114889118Y-74285946D01*
X114888882Y-74556865D01*
X98221000Y-74556865D01*
X98221000Y-73032865D01*
X114888882Y-73032865D01*
X114992339Y-73283252D01*
X115183741Y-73474987D01*
X115433946Y-73578882D01*
X115704865Y-73579118D01*
X115955252Y-73475661D01*
X116146987Y-73284259D01*
X116250882Y-73034054D01*
X116251065Y-72822865D01*
X154302882Y-72822865D01*
X154406339Y-73073252D01*
X154597741Y-73264987D01*
X154847946Y-73368882D01*
X155118865Y-73369118D01*
X155369252Y-73265661D01*
X155560987Y-73074259D01*
X155664882Y-72824054D01*
X155665118Y-72553135D01*
X155651785Y-72520865D01*
X160350882Y-72520865D01*
X160454339Y-72771252D01*
X160645741Y-72962987D01*
X160766949Y-73013317D01*
X160885815Y-73132184D01*
X160885818Y-73132186D01*
X165161816Y-77408185D01*
X165346844Y-77531816D01*
X165366527Y-77544968D01*
X165608000Y-77593000D01*
X177030632Y-77593000D01*
X178188667Y-78751036D01*
X178238339Y-78871252D01*
X178429741Y-79062987D01*
X178679946Y-79166882D01*
X178950865Y-79167118D01*
X179201252Y-79063661D01*
X179392987Y-78872259D01*
X179484447Y-78652000D01*
X189007536Y-78652000D01*
X189007536Y-80352000D01*
X189034103Y-80493190D01*
X189117546Y-80622865D01*
X189244866Y-80709859D01*
X189396000Y-80740464D01*
X191096000Y-80740464D01*
X191237190Y-80713897D01*
X191366865Y-80630454D01*
X191453859Y-80503134D01*
X191484464Y-80352000D01*
X191484464Y-78652000D01*
X191457897Y-78510810D01*
X191374454Y-78381135D01*
X191247134Y-78294141D01*
X191096000Y-78263536D01*
X189396000Y-78263536D01*
X189254810Y-78290103D01*
X189125135Y-78373546D01*
X189038141Y-78500866D01*
X189007536Y-78652000D01*
X179484447Y-78652000D01*
X179496882Y-78622054D01*
X179497118Y-78351135D01*
X179393661Y-78100748D01*
X179202259Y-77909013D01*
X179081052Y-77858683D01*
X177738184Y-76515816D01*
X177533473Y-76379032D01*
X177503741Y-76373118D01*
X177292000Y-76331000D01*
X173972799Y-76331000D01*
X174121252Y-76269661D01*
X174312987Y-76078259D01*
X174416882Y-75828054D01*
X174417118Y-75557135D01*
X174313661Y-75306748D01*
X174122259Y-75115013D01*
X173872054Y-75011118D01*
X173601135Y-75010882D01*
X173350748Y-75114339D01*
X173159013Y-75305741D01*
X173055118Y-75555946D01*
X173054882Y-75826865D01*
X173158339Y-76077252D01*
X173349741Y-76268987D01*
X173499084Y-76331000D01*
X165869369Y-76331000D01*
X164861234Y-75322865D01*
X166958882Y-75322865D01*
X167062339Y-75573252D01*
X167253741Y-75764987D01*
X167503946Y-75868882D01*
X167774865Y-75869118D01*
X168025252Y-75765661D01*
X168216987Y-75574259D01*
X168320882Y-75324054D01*
X168321118Y-75053135D01*
X168217661Y-74802748D01*
X168026259Y-74611013D01*
X167776054Y-74507118D01*
X167505135Y-74506882D01*
X167254748Y-74610339D01*
X167063013Y-74801741D01*
X166959118Y-75051946D01*
X166958882Y-75322865D01*
X164861234Y-75322865D01*
X163587234Y-74048865D01*
X173054882Y-74048865D01*
X173158339Y-74299252D01*
X173349741Y-74490987D01*
X173599946Y-74594882D01*
X173870865Y-74595118D01*
X173963445Y-74556865D01*
X180166882Y-74556865D01*
X180270339Y-74807252D01*
X180461741Y-74998987D01*
X180711946Y-75102882D01*
X180982865Y-75103118D01*
X181233252Y-74999661D01*
X181424987Y-74808259D01*
X181528882Y-74558054D01*
X181529118Y-74287135D01*
X181425661Y-74036748D01*
X181234259Y-73845013D01*
X180984054Y-73741118D01*
X180713135Y-73740882D01*
X180462748Y-73844339D01*
X180271013Y-74035741D01*
X180167118Y-74285946D01*
X180166882Y-74556865D01*
X173963445Y-74556865D01*
X174121252Y-74491661D01*
X174312987Y-74300259D01*
X174416882Y-74050054D01*
X174417118Y-73779135D01*
X174331533Y-73572000D01*
X183927536Y-73572000D01*
X183927536Y-75272000D01*
X183954103Y-75413190D01*
X184037546Y-75542865D01*
X184164866Y-75629859D01*
X184316000Y-75660464D01*
X186016000Y-75660464D01*
X186157190Y-75633897D01*
X186286865Y-75550454D01*
X186373859Y-75423134D01*
X186404464Y-75272000D01*
X186404464Y-74397883D01*
X186475000Y-74397883D01*
X186475000Y-74446117D01*
X186568704Y-74917200D01*
X186835552Y-75316565D01*
X187234917Y-75583413D01*
X187706000Y-75677117D01*
X188177083Y-75583413D01*
X188576448Y-75316565D01*
X188843296Y-74917200D01*
X188937000Y-74446117D01*
X188937000Y-74397883D01*
X188843296Y-73926800D01*
X188576448Y-73527435D01*
X188177083Y-73260587D01*
X187706000Y-73166883D01*
X187234917Y-73260587D01*
X186835552Y-73527435D01*
X186568704Y-73926800D01*
X186475000Y-74397883D01*
X186404464Y-74397883D01*
X186404464Y-73572000D01*
X186377897Y-73430810D01*
X186294454Y-73301135D01*
X186167134Y-73214141D01*
X186016000Y-73183536D01*
X184316000Y-73183536D01*
X184174810Y-73210103D01*
X184045135Y-73293546D01*
X183958141Y-73420866D01*
X183927536Y-73572000D01*
X174331533Y-73572000D01*
X174313661Y-73528748D01*
X174122259Y-73337013D01*
X173872054Y-73233118D01*
X173601135Y-73232882D01*
X173350748Y-73336339D01*
X173159013Y-73527741D01*
X173055118Y-73777946D01*
X173054882Y-74048865D01*
X163587234Y-74048865D01*
X161809234Y-72270865D01*
X173054882Y-72270865D01*
X173158339Y-72521252D01*
X173349741Y-72712987D01*
X173599946Y-72816882D01*
X173870865Y-72817118D01*
X174121252Y-72713661D01*
X174312987Y-72522259D01*
X174416882Y-72272054D01*
X174417118Y-72001135D01*
X174313661Y-71750748D01*
X174122259Y-71559013D01*
X173872054Y-71455118D01*
X173601135Y-71454882D01*
X173350748Y-71558339D01*
X173159013Y-71749741D01*
X173055118Y-71999946D01*
X173054882Y-72270865D01*
X161809234Y-72270865D01*
X161778186Y-72239818D01*
X161778184Y-72239815D01*
X161659333Y-72120964D01*
X161609661Y-72000748D01*
X161418259Y-71809013D01*
X161168054Y-71705118D01*
X160897135Y-71704882D01*
X160646748Y-71808339D01*
X160455013Y-71999741D01*
X160351118Y-72249946D01*
X160350882Y-72520865D01*
X155651785Y-72520865D01*
X155561661Y-72302748D01*
X155370259Y-72111013D01*
X155120054Y-72007118D01*
X154849135Y-72006882D01*
X154598748Y-72110339D01*
X154407013Y-72301741D01*
X154303118Y-72551946D01*
X154302882Y-72822865D01*
X116251065Y-72822865D01*
X116251118Y-72763135D01*
X116147661Y-72512748D01*
X115956259Y-72321013D01*
X115706054Y-72217118D01*
X115435135Y-72216882D01*
X115184748Y-72320339D01*
X114993013Y-72511741D01*
X114889118Y-72761946D01*
X114888882Y-73032865D01*
X98221000Y-73032865D01*
X98221000Y-70492865D01*
X173054882Y-70492865D01*
X173158339Y-70743252D01*
X173349741Y-70934987D01*
X173599946Y-71038882D01*
X173870865Y-71039118D01*
X174121252Y-70935661D01*
X174312987Y-70744259D01*
X174416882Y-70494054D01*
X174417118Y-70223135D01*
X174313661Y-69972748D01*
X174122259Y-69781013D01*
X173872054Y-69677118D01*
X173601135Y-69676882D01*
X173350748Y-69780339D01*
X173159013Y-69971741D01*
X173055118Y-70221946D01*
X173054882Y-70492865D01*
X98221000Y-70492865D01*
X98221000Y-68714865D01*
X173054882Y-68714865D01*
X173158339Y-68965252D01*
X173349741Y-69156987D01*
X173599946Y-69260882D01*
X173870865Y-69261118D01*
X174121252Y-69157661D01*
X174312987Y-68966259D01*
X174416882Y-68716054D01*
X174417118Y-68445135D01*
X174313661Y-68194748D01*
X174122259Y-68003013D01*
X173872054Y-67899118D01*
X173601135Y-67898882D01*
X173350748Y-68002339D01*
X173159013Y-68193741D01*
X173055118Y-68443946D01*
X173054882Y-68714865D01*
X98221000Y-68714865D01*
X98221000Y-67508365D01*
X162196382Y-67508365D01*
X162299839Y-67758752D01*
X162491241Y-67950487D01*
X162741446Y-68054382D01*
X163012365Y-68054618D01*
X163262752Y-67951161D01*
X163454487Y-67759759D01*
X163558382Y-67509554D01*
X163558618Y-67238635D01*
X163455161Y-66988248D01*
X163263759Y-66796513D01*
X163013554Y-66692618D01*
X162742635Y-66692382D01*
X162492248Y-66795839D01*
X162300513Y-66987241D01*
X162196618Y-67237446D01*
X162196382Y-67508365D01*
X98221000Y-67508365D01*
X98221000Y-63733500D01*
X168755036Y-63733500D01*
X168755036Y-65933500D01*
X168781603Y-66074690D01*
X168865046Y-66204365D01*
X168992366Y-66291359D01*
X169143500Y-66321964D01*
X171343500Y-66321964D01*
X171484690Y-66295397D01*
X171614365Y-66211954D01*
X171701359Y-66084634D01*
X171731964Y-65933500D01*
X171731964Y-63733500D01*
X171705397Y-63592310D01*
X171621954Y-63462635D01*
X171494634Y-63375641D01*
X171343500Y-63345036D01*
X169143500Y-63345036D01*
X169002310Y-63371603D01*
X168872635Y-63455046D01*
X168785641Y-63582366D01*
X168755036Y-63733500D01*
X98221000Y-63733500D01*
X98221000Y-61781000D01*
X197359000Y-61781000D01*
X197359000Y-132919000D01*
X197359000Y-132919000D01*
G37*
X197359000Y-132919000D02*
X189917000Y-132919000D01*
X189917000Y-97350000D01*
X189906994Y-97300590D01*
X189878553Y-97258965D01*
X189836159Y-97231685D01*
X189790000Y-97223000D01*
X183648137Y-97223000D01*
X183710987Y-97160259D01*
X183814882Y-96910054D01*
X183815118Y-96639135D01*
X183711661Y-96388748D01*
X183520259Y-96197013D01*
X183270054Y-96093118D01*
X182999135Y-96092882D01*
X182748748Y-96196339D01*
X182557013Y-96387741D01*
X182453118Y-96637946D01*
X182452882Y-96908865D01*
X182556339Y-97159252D01*
X182619976Y-97223000D01*
X170790000Y-97223000D01*
X170740590Y-97233006D01*
X170698965Y-97261447D01*
X170671685Y-97303841D01*
X170663000Y-97350000D01*
X170663000Y-124491347D01*
X170180000Y-124395272D01*
X169636207Y-124503439D01*
X169175201Y-124811473D01*
X168867167Y-125272479D01*
X168759000Y-125816272D01*
X168759000Y-127421728D01*
X168867167Y-127965521D01*
X169175201Y-128426527D01*
X169636207Y-128734561D01*
X170180000Y-128842728D01*
X170663000Y-128746653D01*
X170663000Y-132919000D01*
X98221000Y-132919000D01*
X98221000Y-124819000D01*
X148431536Y-124819000D01*
X148431536Y-128419000D01*
X148458103Y-128560190D01*
X148541546Y-128689865D01*
X148668866Y-128776859D01*
X148820000Y-128807464D01*
X150900000Y-128807464D01*
X151041190Y-128780897D01*
X151170865Y-128697454D01*
X151257859Y-128570134D01*
X151288464Y-128419000D01*
X151288464Y-125816272D01*
X153519000Y-125816272D01*
X153519000Y-127421728D01*
X153627167Y-127965521D01*
X153935201Y-128426527D01*
X154396207Y-128734561D01*
X154940000Y-128842728D01*
X155483793Y-128734561D01*
X155944799Y-128426527D01*
X156252833Y-127965521D01*
X156361000Y-127421728D01*
X156361000Y-125816272D01*
X156252833Y-125272479D01*
X155944799Y-124811473D01*
X155483793Y-124503439D01*
X154940000Y-124395272D01*
X154396207Y-124503439D01*
X153935201Y-124811473D01*
X153627167Y-125272479D01*
X153519000Y-125816272D01*
X151288464Y-125816272D01*
X151288464Y-124819000D01*
X151261897Y-124677810D01*
X151178454Y-124548135D01*
X151051134Y-124461141D01*
X150900000Y-124430536D01*
X148820000Y-124430536D01*
X148678810Y-124457103D01*
X148549135Y-124540546D01*
X148462141Y-124667866D01*
X148431536Y-124819000D01*
X98221000Y-124819000D01*
X98221000Y-114808000D01*
X102743000Y-114808000D01*
X102743000Y-117856000D01*
X102769056Y-117994477D01*
X102850896Y-118121660D01*
X102975770Y-118206983D01*
X103124000Y-118237000D01*
X105664000Y-118237000D01*
X105802477Y-118210944D01*
X105929660Y-118129104D01*
X106014983Y-118004230D01*
X106045000Y-117856000D01*
X106045000Y-117348000D01*
X157861000Y-117348000D01*
X157861000Y-127762000D01*
X157868321Y-127836329D01*
X158003663Y-128516740D01*
X158060552Y-128654083D01*
X158445974Y-129230908D01*
X158551092Y-129336026D01*
X159127917Y-129721448D01*
X159265260Y-129778337D01*
X159945671Y-129913679D01*
X160094329Y-129913679D01*
X160774740Y-129778337D01*
X160912083Y-129721448D01*
X161488908Y-129336026D01*
X161594026Y-129230908D01*
X161979448Y-128654083D01*
X162036337Y-128516740D01*
X162171679Y-127836329D01*
X162179000Y-127762000D01*
X162179000Y-117348000D01*
X162171679Y-117273671D01*
X162036337Y-116593260D01*
X161979448Y-116455917D01*
X161594026Y-115879092D01*
X161488908Y-115773974D01*
X160912083Y-115388552D01*
X160774740Y-115331663D01*
X160094329Y-115196321D01*
X159945671Y-115196321D01*
X159265260Y-115331663D01*
X159127917Y-115388552D01*
X158551092Y-115773974D01*
X158445974Y-115879092D01*
X158060552Y-116455917D01*
X158003663Y-116593260D01*
X157868321Y-117273671D01*
X157861000Y-117348000D01*
X106045000Y-117348000D01*
X106045000Y-114808000D01*
X106018944Y-114669523D01*
X105937104Y-114542340D01*
X105812230Y-114457017D01*
X105664000Y-114427000D01*
X103124000Y-114427000D01*
X102985523Y-114453056D01*
X102858340Y-114534896D01*
X102773017Y-114659770D01*
X102743000Y-114808000D01*
X98221000Y-114808000D01*
X98221000Y-105544865D01*
X103966882Y-105544865D01*
X104070339Y-105795252D01*
X104261741Y-105986987D01*
X104511946Y-106090882D01*
X104782865Y-106091118D01*
X105033252Y-105987661D01*
X105224987Y-105796259D01*
X105328882Y-105546054D01*
X105329118Y-105275135D01*
X105225661Y-105024748D01*
X105034259Y-104833013D01*
X104913491Y-104782865D01*
X122000882Y-104782865D01*
X122104339Y-105033252D01*
X122163420Y-105092436D01*
X122105013Y-105150741D01*
X122001118Y-105400946D01*
X122000882Y-105671865D01*
X122104339Y-105922252D01*
X122163420Y-105981436D01*
X122105013Y-106039741D01*
X122001118Y-106289946D01*
X122000882Y-106560865D01*
X122104339Y-106811252D01*
X122226920Y-106934046D01*
X122105013Y-107055741D01*
X122001118Y-107305946D01*
X122000882Y-107576865D01*
X122104339Y-107827252D01*
X122295741Y-108018987D01*
X122545946Y-108122882D01*
X122816865Y-108123118D01*
X123067252Y-108019661D01*
X123258987Y-107828259D01*
X123362882Y-107578054D01*
X123363118Y-107307135D01*
X123259661Y-107056748D01*
X123137080Y-106933954D01*
X123258987Y-106812259D01*
X123362882Y-106562054D01*
X123363118Y-106291135D01*
X123259661Y-106040748D01*
X123200580Y-105981564D01*
X123258987Y-105923259D01*
X123362882Y-105673054D01*
X123363118Y-105402135D01*
X123259661Y-105151748D01*
X123200580Y-105092564D01*
X123258987Y-105034259D01*
X123362882Y-104784054D01*
X123363118Y-104513135D01*
X123259661Y-104262748D01*
X123068259Y-104071013D01*
X122818054Y-103967118D01*
X122547135Y-103966882D01*
X122296748Y-104070339D01*
X122105013Y-104261741D01*
X122001118Y-104511946D01*
X122000882Y-104782865D01*
X104913491Y-104782865D01*
X104784054Y-104729118D01*
X104513135Y-104728882D01*
X104262748Y-104832339D01*
X104071013Y-105023741D01*
X103967118Y-105273946D01*
X103966882Y-105544865D01*
X98221000Y-105544865D01*
X98221000Y-104274865D01*
X101045882Y-104274865D01*
X101149339Y-104525252D01*
X101340741Y-104716987D01*
X101590946Y-104820882D01*
X101861865Y-104821118D01*
X102112252Y-104717661D01*
X102303987Y-104526259D01*
X102407882Y-104276054D01*
X102408118Y-104005135D01*
X102304661Y-103754748D01*
X102208000Y-103657919D01*
X102208000Y-82114236D01*
X102361237Y-81961000D01*
X102496865Y-81961118D01*
X102516000Y-81953212D01*
X102516000Y-102641921D01*
X102420013Y-102737741D01*
X102316118Y-102987946D01*
X102315882Y-103258865D01*
X102419339Y-103509252D01*
X102610741Y-103700987D01*
X102860946Y-103804882D01*
X103131865Y-103805118D01*
X103382252Y-103701661D01*
X103573987Y-103510259D01*
X103677882Y-103260054D01*
X103678118Y-102989135D01*
X103574661Y-102738748D01*
X103478000Y-102641919D01*
X103478000Y-101647208D01*
X103499741Y-101668987D01*
X103749946Y-101772882D01*
X104020865Y-101773118D01*
X104235305Y-101684514D01*
X104198013Y-101721741D01*
X104094118Y-101971946D01*
X104093882Y-102242865D01*
X104197339Y-102493252D01*
X104388741Y-102684987D01*
X104638946Y-102788882D01*
X104909865Y-102789118D01*
X105160252Y-102685661D01*
X105351987Y-102494259D01*
X105455882Y-102244054D01*
X105456104Y-101988865D01*
X122000882Y-101988865D01*
X122104339Y-102239252D01*
X122295741Y-102430987D01*
X122545946Y-102534882D01*
X122816865Y-102535118D01*
X123067252Y-102431661D01*
X123258987Y-102240259D01*
X123362882Y-101990054D01*
X123363118Y-101719135D01*
X123259661Y-101468748D01*
X123068259Y-101277013D01*
X122818054Y-101173118D01*
X122547135Y-101172882D01*
X122296748Y-101276339D01*
X122105013Y-101467741D01*
X122001118Y-101717946D01*
X122000882Y-101988865D01*
X105456104Y-101988865D01*
X105456118Y-101973135D01*
X105352661Y-101722748D01*
X105161259Y-101531013D01*
X104911054Y-101427118D01*
X104640135Y-101426882D01*
X104425695Y-101515486D01*
X104462987Y-101478259D01*
X104566882Y-101228054D01*
X104567118Y-100957135D01*
X104463661Y-100706748D01*
X104272259Y-100515013D01*
X104022054Y-100411118D01*
X103751135Y-100410882D01*
X103500748Y-100514339D01*
X103478000Y-100537047D01*
X103478000Y-98686865D01*
X122000882Y-98686865D01*
X122104339Y-98937252D01*
X122295741Y-99128987D01*
X122545946Y-99232882D01*
X122816865Y-99233118D01*
X123067252Y-99129661D01*
X123258987Y-98938259D01*
X123362882Y-98688054D01*
X123363118Y-98417135D01*
X123259661Y-98166748D01*
X123068259Y-97975013D01*
X122818054Y-97871118D01*
X122547135Y-97870882D01*
X122296748Y-97974339D01*
X122105013Y-98165741D01*
X122001118Y-98415946D01*
X122000882Y-98686865D01*
X103478000Y-98686865D01*
X103478000Y-90050865D01*
X110570882Y-90050865D01*
X110674339Y-90301252D01*
X110865741Y-90492987D01*
X111115946Y-90596882D01*
X111386865Y-90597118D01*
X111637252Y-90493661D01*
X111828987Y-90302259D01*
X111932882Y-90052054D01*
X111933118Y-89781135D01*
X111829661Y-89530748D01*
X111638259Y-89339013D01*
X111388054Y-89235118D01*
X111117135Y-89234882D01*
X110866748Y-89338339D01*
X110675013Y-89529741D01*
X110571118Y-89779946D01*
X110570882Y-90050865D01*
X103478000Y-90050865D01*
X103478000Y-88272865D01*
X111840882Y-88272865D01*
X111944339Y-88523252D01*
X112135741Y-88714987D01*
X112385946Y-88818882D01*
X112656865Y-88819118D01*
X112907252Y-88715661D01*
X113098987Y-88524259D01*
X113202882Y-88274054D01*
X113203118Y-88003135D01*
X113099661Y-87752748D01*
X112908259Y-87561013D01*
X112658054Y-87457118D01*
X112387135Y-87456882D01*
X112136748Y-87560339D01*
X111945013Y-87751741D01*
X111841118Y-88001946D01*
X111840882Y-88272865D01*
X103478000Y-88272865D01*
X103478000Y-84200000D01*
X118951536Y-84200000D01*
X118951536Y-85900000D01*
X118978103Y-86041190D01*
X119061546Y-86170865D01*
X119188866Y-86257859D01*
X119340000Y-86288464D01*
X120440000Y-86288464D01*
X120581190Y-86261897D01*
X120710865Y-86178454D01*
X120797859Y-86051134D01*
X120808632Y-85997934D01*
X120831684Y-86032433D01*
X121133722Y-86234249D01*
X121490000Y-86305117D01*
X121846278Y-86234249D01*
X122148316Y-86032433D01*
X122350132Y-85730395D01*
X122421000Y-85374117D01*
X122421000Y-84725883D01*
X122350132Y-84369605D01*
X122148316Y-84067567D01*
X121846278Y-83865751D01*
X121490000Y-83794883D01*
X121133722Y-83865751D01*
X120831684Y-84067567D01*
X120809728Y-84100427D01*
X120801897Y-84058810D01*
X120718454Y-83929135D01*
X120591134Y-83842141D01*
X120440000Y-83811536D01*
X119340000Y-83811536D01*
X119198810Y-83838103D01*
X119069135Y-83921546D01*
X118982141Y-84048866D01*
X118951536Y-84200000D01*
X103478000Y-84200000D01*
X103478000Y-82125883D01*
X119759000Y-82125883D01*
X119759000Y-82774117D01*
X119829868Y-83130395D01*
X120031684Y-83432433D01*
X120333722Y-83634249D01*
X120690000Y-83705117D01*
X121046278Y-83634249D01*
X121348316Y-83432433D01*
X121490000Y-83220389D01*
X121631684Y-83432433D01*
X121933722Y-83634249D01*
X122290000Y-83705117D01*
X122646278Y-83634249D01*
X122948316Y-83432433D01*
X123150132Y-83130395D01*
X123221000Y-82774117D01*
X123221000Y-82125883D01*
X123150132Y-81769605D01*
X122948316Y-81467567D01*
X122646278Y-81265751D01*
X122290000Y-81194883D01*
X121933722Y-81265751D01*
X121631684Y-81467567D01*
X121490000Y-81679611D01*
X121348316Y-81467567D01*
X121046278Y-81265751D01*
X120690000Y-81194883D01*
X120333722Y-81265751D01*
X120031684Y-81467567D01*
X119829868Y-81769605D01*
X119759000Y-82125883D01*
X103478000Y-82125883D01*
X103478000Y-79375000D01*
X103441386Y-79190929D01*
X103367344Y-79080118D01*
X103337119Y-79034882D01*
X103177102Y-78874865D01*
X104728882Y-78874865D01*
X104832339Y-79125252D01*
X105023741Y-79316987D01*
X105273946Y-79420882D01*
X105544865Y-79421118D01*
X105795252Y-79317661D01*
X105986987Y-79126259D01*
X106090882Y-78876054D01*
X106091118Y-78605135D01*
X105987661Y-78354748D01*
X105796259Y-78163013D01*
X105546054Y-78059118D01*
X105275135Y-78058882D01*
X105024748Y-78162339D01*
X104833013Y-78353741D01*
X104729118Y-78603946D01*
X104728882Y-78874865D01*
X103177102Y-78874865D01*
X103043000Y-78740763D01*
X103043118Y-78605135D01*
X102939661Y-78354748D01*
X102748259Y-78163013D01*
X102498054Y-78059118D01*
X102227135Y-78058882D01*
X101976748Y-78162339D01*
X101785013Y-78353741D01*
X101681118Y-78603946D01*
X101680882Y-78874865D01*
X101784339Y-79125252D01*
X101975741Y-79316987D01*
X102225946Y-79420882D01*
X102362765Y-79421001D01*
X102516000Y-79574237D01*
X102516000Y-80606570D01*
X102498054Y-80599118D01*
X102227135Y-80598882D01*
X101976748Y-80702339D01*
X101785013Y-80893741D01*
X101681118Y-81143946D01*
X101680999Y-81280765D01*
X101386882Y-81574882D01*
X101282614Y-81730929D01*
X101246000Y-81915000D01*
X101246000Y-103657921D01*
X101150013Y-103753741D01*
X101046118Y-104003946D01*
X101045882Y-104274865D01*
X98221000Y-104274865D01*
X98221000Y-76334865D01*
X101680882Y-76334865D01*
X101784339Y-76585252D01*
X101975741Y-76776987D01*
X102225946Y-76880882D01*
X102496865Y-76881118D01*
X102747252Y-76777661D01*
X102938987Y-76586259D01*
X103042882Y-76336054D01*
X103042883Y-76334865D01*
X104728882Y-76334865D01*
X104832339Y-76585252D01*
X105023741Y-76776987D01*
X105273946Y-76880882D01*
X105544865Y-76881118D01*
X105795252Y-76777661D01*
X105986987Y-76586259D01*
X106090882Y-76336054D01*
X106091118Y-76065135D01*
X105987661Y-75814748D01*
X105796259Y-75623013D01*
X105546054Y-75519118D01*
X105275135Y-75518882D01*
X105024748Y-75622339D01*
X104833013Y-75813741D01*
X104729118Y-76063946D01*
X104728882Y-76334865D01*
X103042883Y-76334865D01*
X103043118Y-76065135D01*
X102939661Y-75814748D01*
X102748259Y-75623013D01*
X102498054Y-75519118D01*
X102227135Y-75518882D01*
X101976748Y-75622339D01*
X101785013Y-75813741D01*
X101681118Y-76063946D01*
X101680882Y-76334865D01*
X98221000Y-76334865D01*
X98221000Y-74556865D01*
X114888882Y-74556865D01*
X114992339Y-74807252D01*
X115183741Y-74998987D01*
X115433946Y-75102882D01*
X115704865Y-75103118D01*
X115955252Y-74999661D01*
X116146987Y-74808259D01*
X116250882Y-74558054D01*
X116250883Y-74556865D01*
X121492882Y-74556865D01*
X121596339Y-74807252D01*
X121787741Y-74998987D01*
X121908950Y-75049318D01*
X126369000Y-79509369D01*
X126369000Y-109466632D01*
X122416965Y-113418667D01*
X122296748Y-113468339D01*
X122105013Y-113659741D01*
X122001118Y-113909946D01*
X122000882Y-114180865D01*
X122104339Y-114431252D01*
X122295741Y-114622987D01*
X122545946Y-114726882D01*
X122816865Y-114727118D01*
X123067252Y-114623661D01*
X123258987Y-114432259D01*
X123309318Y-114311050D01*
X127446184Y-110174184D01*
X127582968Y-109969474D01*
X127590937Y-109929411D01*
X127631000Y-109728000D01*
X127631000Y-106045000D01*
X153797000Y-106045000D01*
X153797000Y-107315000D01*
X153823056Y-107453477D01*
X153904896Y-107580660D01*
X154029770Y-107665983D01*
X154178000Y-107696000D01*
X158877000Y-107696000D01*
X159015477Y-107669944D01*
X159142660Y-107588104D01*
X159227983Y-107463230D01*
X159258000Y-107315000D01*
X159258000Y-106045000D01*
X159231944Y-105906523D01*
X159150104Y-105779340D01*
X159025230Y-105694017D01*
X158877000Y-105664000D01*
X154178000Y-105664000D01*
X154039523Y-105690056D01*
X153912340Y-105771896D01*
X153827017Y-105896770D01*
X153797000Y-106045000D01*
X127631000Y-106045000D01*
X127631000Y-100464865D01*
X131398882Y-100464865D01*
X131502339Y-100715252D01*
X131693741Y-100906987D01*
X131943946Y-101010882D01*
X132214865Y-101011118D01*
X132465252Y-100907661D01*
X132656987Y-100716259D01*
X132760882Y-100466054D01*
X132761118Y-100195135D01*
X132657661Y-99944748D01*
X132466259Y-99753013D01*
X132216054Y-99649118D01*
X131945135Y-99648882D01*
X131694748Y-99752339D01*
X131503013Y-99943741D01*
X131399118Y-100193946D01*
X131398882Y-100464865D01*
X127631000Y-100464865D01*
X127631000Y-79248000D01*
X127582968Y-79006527D01*
X127446185Y-78801816D01*
X125010369Y-76366000D01*
X148113536Y-76366000D01*
X148113536Y-78066000D01*
X148140103Y-78207190D01*
X148223546Y-78336865D01*
X148350866Y-78423859D01*
X148502000Y-78454464D01*
X150202000Y-78454464D01*
X150343190Y-78427897D01*
X150472865Y-78344454D01*
X150559859Y-78217134D01*
X150590464Y-78066000D01*
X150590464Y-76366000D01*
X150563897Y-76224810D01*
X150480454Y-76095135D01*
X150353134Y-76008141D01*
X150202000Y-75977536D01*
X148502000Y-75977536D01*
X148360810Y-76004103D01*
X148231135Y-76087546D01*
X148144141Y-76214866D01*
X148113536Y-76366000D01*
X125010369Y-76366000D01*
X123320369Y-74676000D01*
X148096883Y-74676000D01*
X148190587Y-75147083D01*
X148457435Y-75546448D01*
X148856800Y-75813296D01*
X149327883Y-75907000D01*
X149376117Y-75907000D01*
X149847200Y-75813296D01*
X150246565Y-75546448D01*
X150513413Y-75147083D01*
X150607117Y-74676000D01*
X150513413Y-74204917D01*
X150409143Y-74048865D01*
X150956882Y-74048865D01*
X151007000Y-74170161D01*
X151007000Y-80518000D01*
X151051251Y-80740464D01*
X151055032Y-80759473D01*
X151191816Y-80964184D01*
X164399816Y-94172185D01*
X164604527Y-94308968D01*
X164846000Y-94357000D01*
X179321818Y-94357000D01*
X179441946Y-94406882D01*
X179712865Y-94407118D01*
X179963252Y-94303661D01*
X180154987Y-94112259D01*
X180258882Y-93862054D01*
X180259118Y-93591135D01*
X180155661Y-93340748D01*
X179964259Y-93149013D01*
X179714054Y-93045118D01*
X179443135Y-93044882D01*
X179321839Y-93095000D01*
X165107369Y-93095000D01*
X159134369Y-87122000D01*
X188990883Y-87122000D01*
X189084587Y-87593083D01*
X189351435Y-87992448D01*
X189750800Y-88259296D01*
X190221883Y-88353000D01*
X190270117Y-88353000D01*
X190741200Y-88259296D01*
X191140565Y-87992448D01*
X191407413Y-87593083D01*
X191501117Y-87122000D01*
X191407413Y-86650917D01*
X191140565Y-86251552D01*
X190741200Y-85984704D01*
X190270117Y-85891000D01*
X190221883Y-85891000D01*
X189750800Y-85984704D01*
X189351435Y-86251552D01*
X189084587Y-86650917D01*
X188990883Y-87122000D01*
X159134369Y-87122000D01*
X152269000Y-80256632D01*
X152269000Y-78366865D01*
X154258882Y-78366865D01*
X154362339Y-78617252D01*
X154553741Y-78808987D01*
X154674950Y-78859318D01*
X155193531Y-79377899D01*
X155076054Y-79329118D01*
X154805135Y-79328882D01*
X154554748Y-79432339D01*
X154363013Y-79623741D01*
X154259118Y-79873946D01*
X154258882Y-80144865D01*
X154362339Y-80395252D01*
X154553741Y-80586987D01*
X154803946Y-80690882D01*
X155074865Y-80691118D01*
X155325252Y-80587661D01*
X155516987Y-80396259D01*
X155620882Y-80146054D01*
X155621118Y-79875135D01*
X155572076Y-79756444D01*
X160843816Y-85028184D01*
X161048526Y-85164968D01*
X161088589Y-85172937D01*
X161290000Y-85213000D01*
X189191440Y-85213000D01*
X189351435Y-85452448D01*
X189750800Y-85719296D01*
X190221883Y-85813000D01*
X190270117Y-85813000D01*
X190741200Y-85719296D01*
X191140565Y-85452448D01*
X191407413Y-85053083D01*
X191501117Y-84582000D01*
X191407413Y-84110917D01*
X191140565Y-83711552D01*
X190741200Y-83444704D01*
X190270117Y-83351000D01*
X190221883Y-83351000D01*
X189750800Y-83444704D01*
X189351435Y-83711552D01*
X189191440Y-83951000D01*
X167876799Y-83951000D01*
X168025252Y-83889661D01*
X168216987Y-83698259D01*
X168320882Y-83448054D01*
X168321118Y-83177135D01*
X168217661Y-82926748D01*
X168026259Y-82735013D01*
X167876916Y-82673000D01*
X189191440Y-82673000D01*
X189351435Y-82912448D01*
X189750800Y-83179296D01*
X190221883Y-83273000D01*
X190270117Y-83273000D01*
X190741200Y-83179296D01*
X191140565Y-82912448D01*
X191407413Y-82513083D01*
X191501117Y-82042000D01*
X191407413Y-81570917D01*
X191140565Y-81171552D01*
X190741200Y-80904704D01*
X190270117Y-80811000D01*
X190221883Y-80811000D01*
X189750800Y-80904704D01*
X189351435Y-81171552D01*
X189191440Y-81411000D01*
X163329368Y-81411000D01*
X162063233Y-80144865D01*
X164672882Y-80144865D01*
X164776339Y-80395252D01*
X164967741Y-80586987D01*
X165217946Y-80690882D01*
X165488865Y-80691118D01*
X165739252Y-80587661D01*
X165930987Y-80396259D01*
X166034882Y-80146054D01*
X166035118Y-79875135D01*
X165931661Y-79624748D01*
X165740259Y-79433013D01*
X165490054Y-79329118D01*
X165219135Y-79328882D01*
X164968748Y-79432339D01*
X164777013Y-79623741D01*
X164673118Y-79873946D01*
X164672882Y-80144865D01*
X162063233Y-80144865D01*
X160539233Y-78620865D01*
X175848882Y-78620865D01*
X175952339Y-78871252D01*
X176143741Y-79062987D01*
X176393946Y-79166882D01*
X176664865Y-79167118D01*
X176915252Y-79063661D01*
X177106987Y-78872259D01*
X177210882Y-78622054D01*
X177211118Y-78351135D01*
X177107661Y-78100748D01*
X176916259Y-77909013D01*
X176666054Y-77805118D01*
X176395135Y-77804882D01*
X176144748Y-77908339D01*
X175953013Y-78099741D01*
X175849118Y-78349946D01*
X175848882Y-78620865D01*
X160539233Y-78620865D01*
X159631333Y-77712965D01*
X159581661Y-77592748D01*
X159390259Y-77401013D01*
X159140054Y-77297118D01*
X158869135Y-77296882D01*
X158618748Y-77400339D01*
X158427013Y-77591741D01*
X158323118Y-77841946D01*
X158322882Y-78112865D01*
X158426339Y-78363252D01*
X158617741Y-78554987D01*
X158738950Y-78605318D01*
X162621816Y-82488184D01*
X162826527Y-82624968D01*
X163068000Y-82673000D01*
X167403201Y-82673000D01*
X167254748Y-82734339D01*
X167063013Y-82925741D01*
X166959118Y-83175946D01*
X166958882Y-83446865D01*
X167062339Y-83697252D01*
X167253741Y-83888987D01*
X167403084Y-83951000D01*
X162542799Y-83951000D01*
X162691252Y-83889661D01*
X162882987Y-83698259D01*
X162986882Y-83448054D01*
X162987118Y-83177135D01*
X162883661Y-82926748D01*
X162692259Y-82735013D01*
X162442054Y-82631118D01*
X162171135Y-82630882D01*
X161920748Y-82734339D01*
X161729013Y-82925741D01*
X161625118Y-83175946D01*
X161624882Y-83446865D01*
X161728339Y-83697252D01*
X161919741Y-83888987D01*
X162069084Y-83951000D01*
X161551368Y-83951000D01*
X155567333Y-77966965D01*
X155517661Y-77846748D01*
X155326259Y-77655013D01*
X155076054Y-77551118D01*
X154805135Y-77550882D01*
X154554748Y-77654339D01*
X154363013Y-77845741D01*
X154259118Y-78095946D01*
X154258882Y-78366865D01*
X152269000Y-78366865D01*
X152269000Y-75572865D01*
X160354882Y-75572865D01*
X160458339Y-75823252D01*
X160649741Y-76014987D01*
X160899946Y-76118882D01*
X161170865Y-76119118D01*
X161421252Y-76015661D01*
X161612987Y-75824259D01*
X161716882Y-75574054D01*
X161717118Y-75303135D01*
X161613661Y-75052748D01*
X161422259Y-74861013D01*
X161172054Y-74757118D01*
X160901135Y-74756882D01*
X160650748Y-74860339D01*
X160459013Y-75051741D01*
X160355118Y-75301946D01*
X160354882Y-75572865D01*
X152269000Y-75572865D01*
X152269000Y-74170182D01*
X152318882Y-74050054D01*
X152319118Y-73779135D01*
X152215661Y-73528748D01*
X152024259Y-73337013D01*
X151774054Y-73233118D01*
X151503135Y-73232882D01*
X151252748Y-73336339D01*
X151061013Y-73527741D01*
X150957118Y-73777946D01*
X150956882Y-74048865D01*
X150409143Y-74048865D01*
X150246565Y-73805552D01*
X149847200Y-73538704D01*
X149376117Y-73445000D01*
X149327883Y-73445000D01*
X148856800Y-73538704D01*
X148457435Y-73805552D01*
X148190587Y-74204917D01*
X148096883Y-74676000D01*
X123320369Y-74676000D01*
X122801333Y-74156965D01*
X122751661Y-74036748D01*
X122560259Y-73845013D01*
X122310054Y-73741118D01*
X122039135Y-73740882D01*
X121788748Y-73844339D01*
X121597013Y-74035741D01*
X121493118Y-74285946D01*
X121492882Y-74556865D01*
X116250883Y-74556865D01*
X116251118Y-74287135D01*
X116147661Y-74036748D01*
X115956259Y-73845013D01*
X115706054Y-73741118D01*
X115435135Y-73740882D01*
X115184748Y-73844339D01*
X114993013Y-74035741D01*
X114889118Y-74285946D01*
X114888882Y-74556865D01*
X98221000Y-74556865D01*
X98221000Y-73032865D01*
X114888882Y-73032865D01*
X114992339Y-73283252D01*
X115183741Y-73474987D01*
X115433946Y-73578882D01*
X115704865Y-73579118D01*
X115955252Y-73475661D01*
X116146987Y-73284259D01*
X116250882Y-73034054D01*
X116251065Y-72822865D01*
X154302882Y-72822865D01*
X154406339Y-73073252D01*
X154597741Y-73264987D01*
X154847946Y-73368882D01*
X155118865Y-73369118D01*
X155369252Y-73265661D01*
X155560987Y-73074259D01*
X155664882Y-72824054D01*
X155665118Y-72553135D01*
X155651785Y-72520865D01*
X160350882Y-72520865D01*
X160454339Y-72771252D01*
X160645741Y-72962987D01*
X160766949Y-73013317D01*
X160885815Y-73132184D01*
X160885818Y-73132186D01*
X165161816Y-77408185D01*
X165346844Y-77531816D01*
X165366527Y-77544968D01*
X165608000Y-77593000D01*
X177030632Y-77593000D01*
X178188667Y-78751036D01*
X178238339Y-78871252D01*
X178429741Y-79062987D01*
X178679946Y-79166882D01*
X178950865Y-79167118D01*
X179201252Y-79063661D01*
X179392987Y-78872259D01*
X179484447Y-78652000D01*
X189007536Y-78652000D01*
X189007536Y-80352000D01*
X189034103Y-80493190D01*
X189117546Y-80622865D01*
X189244866Y-80709859D01*
X189396000Y-80740464D01*
X191096000Y-80740464D01*
X191237190Y-80713897D01*
X191366865Y-80630454D01*
X191453859Y-80503134D01*
X191484464Y-80352000D01*
X191484464Y-78652000D01*
X191457897Y-78510810D01*
X191374454Y-78381135D01*
X191247134Y-78294141D01*
X191096000Y-78263536D01*
X189396000Y-78263536D01*
X189254810Y-78290103D01*
X189125135Y-78373546D01*
X189038141Y-78500866D01*
X189007536Y-78652000D01*
X179484447Y-78652000D01*
X179496882Y-78622054D01*
X179497118Y-78351135D01*
X179393661Y-78100748D01*
X179202259Y-77909013D01*
X179081052Y-77858683D01*
X177738184Y-76515816D01*
X177533473Y-76379032D01*
X177503741Y-76373118D01*
X177292000Y-76331000D01*
X173972799Y-76331000D01*
X174121252Y-76269661D01*
X174312987Y-76078259D01*
X174416882Y-75828054D01*
X174417118Y-75557135D01*
X174313661Y-75306748D01*
X174122259Y-75115013D01*
X173872054Y-75011118D01*
X173601135Y-75010882D01*
X173350748Y-75114339D01*
X173159013Y-75305741D01*
X173055118Y-75555946D01*
X173054882Y-75826865D01*
X173158339Y-76077252D01*
X173349741Y-76268987D01*
X173499084Y-76331000D01*
X165869369Y-76331000D01*
X164861234Y-75322865D01*
X166958882Y-75322865D01*
X167062339Y-75573252D01*
X167253741Y-75764987D01*
X167503946Y-75868882D01*
X167774865Y-75869118D01*
X168025252Y-75765661D01*
X168216987Y-75574259D01*
X168320882Y-75324054D01*
X168321118Y-75053135D01*
X168217661Y-74802748D01*
X168026259Y-74611013D01*
X167776054Y-74507118D01*
X167505135Y-74506882D01*
X167254748Y-74610339D01*
X167063013Y-74801741D01*
X166959118Y-75051946D01*
X166958882Y-75322865D01*
X164861234Y-75322865D01*
X163587234Y-74048865D01*
X173054882Y-74048865D01*
X173158339Y-74299252D01*
X173349741Y-74490987D01*
X173599946Y-74594882D01*
X173870865Y-74595118D01*
X173963445Y-74556865D01*
X180166882Y-74556865D01*
X180270339Y-74807252D01*
X180461741Y-74998987D01*
X180711946Y-75102882D01*
X180982865Y-75103118D01*
X181233252Y-74999661D01*
X181424987Y-74808259D01*
X181528882Y-74558054D01*
X181529118Y-74287135D01*
X181425661Y-74036748D01*
X181234259Y-73845013D01*
X180984054Y-73741118D01*
X180713135Y-73740882D01*
X180462748Y-73844339D01*
X180271013Y-74035741D01*
X180167118Y-74285946D01*
X180166882Y-74556865D01*
X173963445Y-74556865D01*
X174121252Y-74491661D01*
X174312987Y-74300259D01*
X174416882Y-74050054D01*
X174417118Y-73779135D01*
X174331533Y-73572000D01*
X183927536Y-73572000D01*
X183927536Y-75272000D01*
X183954103Y-75413190D01*
X184037546Y-75542865D01*
X184164866Y-75629859D01*
X184316000Y-75660464D01*
X186016000Y-75660464D01*
X186157190Y-75633897D01*
X186286865Y-75550454D01*
X186373859Y-75423134D01*
X186404464Y-75272000D01*
X186404464Y-74397883D01*
X186475000Y-74397883D01*
X186475000Y-74446117D01*
X186568704Y-74917200D01*
X186835552Y-75316565D01*
X187234917Y-75583413D01*
X187706000Y-75677117D01*
X188177083Y-75583413D01*
X188576448Y-75316565D01*
X188843296Y-74917200D01*
X188937000Y-74446117D01*
X188937000Y-74397883D01*
X188843296Y-73926800D01*
X188576448Y-73527435D01*
X188177083Y-73260587D01*
X187706000Y-73166883D01*
X187234917Y-73260587D01*
X186835552Y-73527435D01*
X186568704Y-73926800D01*
X186475000Y-74397883D01*
X186404464Y-74397883D01*
X186404464Y-73572000D01*
X186377897Y-73430810D01*
X186294454Y-73301135D01*
X186167134Y-73214141D01*
X186016000Y-73183536D01*
X184316000Y-73183536D01*
X184174810Y-73210103D01*
X184045135Y-73293546D01*
X183958141Y-73420866D01*
X183927536Y-73572000D01*
X174331533Y-73572000D01*
X174313661Y-73528748D01*
X174122259Y-73337013D01*
X173872054Y-73233118D01*
X173601135Y-73232882D01*
X173350748Y-73336339D01*
X173159013Y-73527741D01*
X173055118Y-73777946D01*
X173054882Y-74048865D01*
X163587234Y-74048865D01*
X161809234Y-72270865D01*
X173054882Y-72270865D01*
X173158339Y-72521252D01*
X173349741Y-72712987D01*
X173599946Y-72816882D01*
X173870865Y-72817118D01*
X174121252Y-72713661D01*
X174312987Y-72522259D01*
X174416882Y-72272054D01*
X174417118Y-72001135D01*
X174313661Y-71750748D01*
X174122259Y-71559013D01*
X173872054Y-71455118D01*
X173601135Y-71454882D01*
X173350748Y-71558339D01*
X173159013Y-71749741D01*
X173055118Y-71999946D01*
X173054882Y-72270865D01*
X161809234Y-72270865D01*
X161778186Y-72239818D01*
X161778184Y-72239815D01*
X161659333Y-72120964D01*
X161609661Y-72000748D01*
X161418259Y-71809013D01*
X161168054Y-71705118D01*
X160897135Y-71704882D01*
X160646748Y-71808339D01*
X160455013Y-71999741D01*
X160351118Y-72249946D01*
X160350882Y-72520865D01*
X155651785Y-72520865D01*
X155561661Y-72302748D01*
X155370259Y-72111013D01*
X155120054Y-72007118D01*
X154849135Y-72006882D01*
X154598748Y-72110339D01*
X154407013Y-72301741D01*
X154303118Y-72551946D01*
X154302882Y-72822865D01*
X116251065Y-72822865D01*
X116251118Y-72763135D01*
X116147661Y-72512748D01*
X115956259Y-72321013D01*
X115706054Y-72217118D01*
X115435135Y-72216882D01*
X115184748Y-72320339D01*
X114993013Y-72511741D01*
X114889118Y-72761946D01*
X114888882Y-73032865D01*
X98221000Y-73032865D01*
X98221000Y-70492865D01*
X173054882Y-70492865D01*
X173158339Y-70743252D01*
X173349741Y-70934987D01*
X173599946Y-71038882D01*
X173870865Y-71039118D01*
X174121252Y-70935661D01*
X174312987Y-70744259D01*
X174416882Y-70494054D01*
X174417118Y-70223135D01*
X174313661Y-69972748D01*
X174122259Y-69781013D01*
X173872054Y-69677118D01*
X173601135Y-69676882D01*
X173350748Y-69780339D01*
X173159013Y-69971741D01*
X173055118Y-70221946D01*
X173054882Y-70492865D01*
X98221000Y-70492865D01*
X98221000Y-68714865D01*
X173054882Y-68714865D01*
X173158339Y-68965252D01*
X173349741Y-69156987D01*
X173599946Y-69260882D01*
X173870865Y-69261118D01*
X174121252Y-69157661D01*
X174312987Y-68966259D01*
X174416882Y-68716054D01*
X174417118Y-68445135D01*
X174313661Y-68194748D01*
X174122259Y-68003013D01*
X173872054Y-67899118D01*
X173601135Y-67898882D01*
X173350748Y-68002339D01*
X173159013Y-68193741D01*
X173055118Y-68443946D01*
X173054882Y-68714865D01*
X98221000Y-68714865D01*
X98221000Y-67508365D01*
X162196382Y-67508365D01*
X162299839Y-67758752D01*
X162491241Y-67950487D01*
X162741446Y-68054382D01*
X163012365Y-68054618D01*
X163262752Y-67951161D01*
X163454487Y-67759759D01*
X163558382Y-67509554D01*
X163558618Y-67238635D01*
X163455161Y-66988248D01*
X163263759Y-66796513D01*
X163013554Y-66692618D01*
X162742635Y-66692382D01*
X162492248Y-66795839D01*
X162300513Y-66987241D01*
X162196618Y-67237446D01*
X162196382Y-67508365D01*
X98221000Y-67508365D01*
X98221000Y-63733500D01*
X168755036Y-63733500D01*
X168755036Y-65933500D01*
X168781603Y-66074690D01*
X168865046Y-66204365D01*
X168992366Y-66291359D01*
X169143500Y-66321964D01*
X171343500Y-66321964D01*
X171484690Y-66295397D01*
X171614365Y-66211954D01*
X171701359Y-66084634D01*
X171731964Y-65933500D01*
X171731964Y-63733500D01*
X171705397Y-63592310D01*
X171621954Y-63462635D01*
X171494634Y-63375641D01*
X171343500Y-63345036D01*
X169143500Y-63345036D01*
X169002310Y-63371603D01*
X168872635Y-63455046D01*
X168785641Y-63582366D01*
X168755036Y-63733500D01*
X98221000Y-63733500D01*
X98221000Y-61781000D01*
X197359000Y-61781000D01*
X197359000Y-132919000D01*
G36*
X105537000Y-117729000D02*
X103251000Y-117729000D01*
X103251000Y-114935000D01*
X105537000Y-114935000D01*
X105537000Y-117729000D01*
X105537000Y-117729000D01*
G37*
X105537000Y-117729000D02*
X103251000Y-117729000D01*
X103251000Y-114935000D01*
X105537000Y-114935000D01*
X105537000Y-117729000D01*
G36*
X158750000Y-107188000D02*
X154305000Y-107188000D01*
X154305000Y-106172000D01*
X158750000Y-106172000D01*
X158750000Y-107188000D01*
X158750000Y-107188000D01*
G37*
X158750000Y-107188000D02*
X154305000Y-107188000D01*
X154305000Y-106172000D01*
X158750000Y-106172000D01*
X158750000Y-107188000D01*
G36*
X160650858Y-115824974D02*
X161185674Y-116182326D01*
X161543026Y-116717142D01*
X161671000Y-117360509D01*
X161671000Y-127749491D01*
X161543026Y-128392858D01*
X161185674Y-128927674D01*
X160650858Y-129285026D01*
X160020000Y-129410512D01*
X159389142Y-129285026D01*
X158854326Y-128927674D01*
X158496974Y-128392858D01*
X158369000Y-127749491D01*
X158369000Y-117360509D01*
X158496974Y-116717142D01*
X158854326Y-116182326D01*
X159389142Y-115824974D01*
X160020000Y-115699488D01*
X160650858Y-115824974D01*
X160650858Y-115824974D01*
G37*
X160650858Y-115824974D02*
X161185674Y-116182326D01*
X161543026Y-116717142D01*
X161671000Y-117360509D01*
X161671000Y-127749491D01*
X161543026Y-128392858D01*
X161185674Y-128927674D01*
X160650858Y-129285026D01*
X160020000Y-129410512D01*
X159389142Y-129285026D01*
X158854326Y-128927674D01*
X158496974Y-128392858D01*
X158369000Y-127749491D01*
X158369000Y-117360509D01*
X158496974Y-116717142D01*
X158854326Y-116182326D01*
X159389142Y-115824974D01*
X160020000Y-115699488D01*
X160650858Y-115824974D01*
M02*
