G04 #@! TF.FileFunction,Soldermask,Bot*
%FSLAX46Y46*%
G04 Gerber Fmt 4.6, Leading zero omitted, Abs format (unit mm)*
G04 Created by KiCad (PCBNEW 4.0.7) date Thursday, April 05, 2018 'PMt' 12:15:07 PM*
%MOMM*%
%LPD*%
G01*
G04 APERTURE LIST*
%ADD10C,0.100000*%
%ADD11R,1.000000X1.600000*%
%ADD12C,6.400000*%
%ADD13C,0.800000*%
%ADD14R,2.080000X3.600000*%
%ADD15O,2.080000X3.600000*%
%ADD16C,2.500000*%
%ADD17C,3.000000*%
%ADD18R,2.420000X5.080000*%
%ADD19R,0.750000X0.800000*%
%ADD20R,0.800000X0.750000*%
%ADD21R,0.600000X0.800000*%
%ADD22R,0.900000X0.800000*%
%ADD23R,0.500000X0.900000*%
%ADD24R,0.900000X0.500000*%
%ADD25R,0.250000X1.300000*%
%ADD26R,1.300000X0.250000*%
%ADD27R,1.200000X2.200000*%
%ADD28R,5.800000X6.400000*%
%ADD29R,1.200000X1.400000*%
%ADD30R,1.000000X1.800000*%
%ADD31R,3.800000X2.000000*%
%ADD32R,1.500000X2.000000*%
%ADD33R,1.950000X1.500000*%
%ADD34R,1.700000X1.700000*%
%ADD35O,1.700000X1.700000*%
%ADD36C,1.000000*%
%ADD37R,1.500000X1.950000*%
%ADD38R,2.200000X2.200000*%
%ADD39O,2.200000X2.200000*%
%ADD40R,1.100000X1.700000*%
%ADD41O,1.100000X1.700000*%
%ADD42O,1.600000X3.900000*%
%ADD43R,1.950000X2.500000*%
G04 APERTURE END LIST*
D10*
D11*
X166648000Y-112395000D03*
X169648000Y-112395000D03*
D12*
X101790000Y-65350000D03*
D13*
X104190000Y-65350000D03*
X103487056Y-67047056D03*
X101790000Y-67750000D03*
X100092944Y-67047056D03*
X99390000Y-65350000D03*
X100092944Y-63652944D03*
X101790000Y-62950000D03*
X103487056Y-63652944D03*
D12*
X101790000Y-129366944D03*
D13*
X104190000Y-129366944D03*
X103487056Y-131064000D03*
X101790000Y-131766944D03*
X100092944Y-131064000D03*
X99390000Y-129366944D03*
X100092944Y-127669888D03*
X101790000Y-126966944D03*
X103487056Y-127669888D03*
D12*
X193802000Y-129350000D03*
D13*
X196202000Y-129350000D03*
X195499056Y-131047056D03*
X193802000Y-131750000D03*
X192104944Y-131047056D03*
X191402000Y-129350000D03*
X192104944Y-127652944D03*
X193802000Y-126950000D03*
X195499056Y-127652944D03*
D14*
X149860000Y-126619000D03*
D15*
X154940000Y-126619000D03*
X160020000Y-126619000D03*
X165100000Y-126619000D03*
X170180000Y-126619000D03*
X175260000Y-126619000D03*
X180340000Y-126619000D03*
X185420000Y-126619000D03*
D16*
X174290000Y-104590000D03*
D17*
X174290000Y-116790000D03*
X186340000Y-116840000D03*
D16*
X186290000Y-104590000D03*
D17*
X180340000Y-102640000D03*
D18*
X109096000Y-130492500D03*
X117856000Y-130492500D03*
D19*
X154940000Y-65036000D03*
X154940000Y-66536000D03*
D20*
X161532000Y-64770000D03*
X160032000Y-64770000D03*
D19*
X151892000Y-65036000D03*
X151892000Y-66536000D03*
X153416000Y-65036000D03*
X153416000Y-66536000D03*
D20*
X152412000Y-72644000D03*
X153912000Y-72644000D03*
X152400000Y-71120000D03*
X153900000Y-71120000D03*
D19*
X162052000Y-66560000D03*
X162052000Y-68060000D03*
D20*
X152412000Y-81153000D03*
X153912000Y-81153000D03*
X168771000Y-80010000D03*
X167271000Y-80010000D03*
D19*
X126238000Y-111010000D03*
X126238000Y-112510000D03*
D20*
X98818000Y-82804000D03*
X100318000Y-82804000D03*
X133338000Y-95758000D03*
X131838000Y-95758000D03*
X135878000Y-86995000D03*
X134378000Y-86995000D03*
D21*
X98718000Y-81280000D03*
X100418000Y-81280000D03*
X98718000Y-78740000D03*
X100418000Y-78740000D03*
X108292000Y-76200000D03*
X106592000Y-76200000D03*
X98718000Y-76200000D03*
X100418000Y-76200000D03*
X118960000Y-72898000D03*
X117260000Y-72898000D03*
X118960000Y-75946000D03*
X117260000Y-75946000D03*
D22*
X133826000Y-92268000D03*
X133826000Y-94168000D03*
X131826000Y-93218000D03*
X136271000Y-88646000D03*
X136271000Y-90546000D03*
X134271000Y-89596000D03*
D23*
X160643000Y-68834000D03*
X159143000Y-68834000D03*
X172720000Y-68580000D03*
X171220000Y-68580000D03*
X172720000Y-70358000D03*
X171220000Y-70358000D03*
X172720000Y-72136000D03*
X171220000Y-72136000D03*
X172720000Y-73914000D03*
X171220000Y-73914000D03*
X172720000Y-75692000D03*
X171220000Y-75692000D03*
X123825000Y-114046000D03*
X125325000Y-114046000D03*
D24*
X124460000Y-112522000D03*
X124460000Y-111022000D03*
D23*
X124865000Y-107442000D03*
X126365000Y-107442000D03*
X127532000Y-106426000D03*
X129032000Y-106426000D03*
X130199000Y-105537000D03*
X131699000Y-105537000D03*
X127532000Y-104648000D03*
X129032000Y-104648000D03*
X117372000Y-74422000D03*
X118872000Y-74422000D03*
X137668000Y-92202000D03*
X136168000Y-92202000D03*
X140069000Y-88646000D03*
X138569000Y-88646000D03*
X117336000Y-89916000D03*
X115836000Y-89916000D03*
D24*
X115570000Y-86626000D03*
X115570000Y-88126000D03*
D25*
X158032000Y-71088000D03*
X158532000Y-71088000D03*
X159032000Y-71088000D03*
X159532000Y-71088000D03*
X160032000Y-71088000D03*
X160532000Y-71088000D03*
X161032000Y-71088000D03*
X161532000Y-71088000D03*
X162032000Y-71088000D03*
X162532000Y-71088000D03*
X163032000Y-71088000D03*
X163532000Y-71088000D03*
D26*
X165132000Y-72688000D03*
X165132000Y-73188000D03*
X165132000Y-73688000D03*
X165132000Y-74188000D03*
X165132000Y-74688000D03*
X165132000Y-75188000D03*
X165132000Y-75688000D03*
X165132000Y-76188000D03*
X165132000Y-76688000D03*
X165132000Y-77188000D03*
X165132000Y-77688000D03*
X165132000Y-78188000D03*
D25*
X163532000Y-79788000D03*
X163032000Y-79788000D03*
X162532000Y-79788000D03*
X162032000Y-79788000D03*
X161532000Y-79788000D03*
X161032000Y-79788000D03*
X160532000Y-79788000D03*
X160032000Y-79788000D03*
X159532000Y-79788000D03*
X159032000Y-79788000D03*
X158532000Y-79788000D03*
X158032000Y-79788000D03*
D26*
X156432000Y-78188000D03*
X156432000Y-77688000D03*
X156432000Y-77188000D03*
X156432000Y-76688000D03*
X156432000Y-76188000D03*
X156432000Y-75688000D03*
X156432000Y-75188000D03*
X156432000Y-74688000D03*
X156432000Y-74188000D03*
X156432000Y-73688000D03*
X156432000Y-73188000D03*
X156432000Y-72688000D03*
D27*
X166617000Y-108966000D03*
X162057000Y-108966000D03*
D28*
X164337000Y-102666000D03*
D29*
X158330000Y-64686000D03*
X158330000Y-66886000D03*
X156630000Y-66886000D03*
X156630000Y-64686000D03*
D30*
X152166000Y-68580000D03*
X154666000Y-68580000D03*
D31*
X170702000Y-85648000D03*
D32*
X170702000Y-91948000D03*
X168402000Y-91948000D03*
X173002000Y-91948000D03*
D31*
X162306000Y-85648000D03*
D32*
X162306000Y-91948000D03*
X160006000Y-91948000D03*
X164606000Y-91948000D03*
D33*
X159363000Y-109982000D03*
X156613000Y-109982000D03*
X161439000Y-96393000D03*
X164189000Y-96393000D03*
D20*
X162421000Y-94361000D03*
X160921000Y-94361000D03*
D33*
X169821000Y-96393000D03*
X172571000Y-96393000D03*
D20*
X170803000Y-94361000D03*
X169303000Y-94361000D03*
D34*
X149352000Y-77216000D03*
D35*
X149352000Y-74676000D03*
D34*
X185166000Y-74422000D03*
D35*
X187706000Y-74422000D03*
X190246000Y-74422000D03*
D34*
X190246000Y-79502000D03*
D35*
X190246000Y-82042000D03*
X190246000Y-84582000D03*
X190246000Y-87122000D03*
X190246000Y-89662000D03*
D36*
X122682000Y-101854000D03*
X122682000Y-98552000D03*
X122682000Y-114046000D03*
X123964000Y-104648000D03*
X125857000Y-105537000D03*
D37*
X176022000Y-85747000D03*
X176022000Y-88497000D03*
X156972000Y-85747000D03*
X156972000Y-88497000D03*
D12*
X193790000Y-65350000D03*
D13*
X196190000Y-65350000D03*
X195487056Y-67047056D03*
X193790000Y-67750000D03*
X192092944Y-67047056D03*
X191390000Y-65350000D03*
X192092944Y-63652944D03*
X193790000Y-62950000D03*
X195487056Y-63652944D03*
D38*
X170243500Y-64833500D03*
D39*
X180403500Y-64833500D03*
D40*
X119890000Y-85050000D03*
D41*
X120690000Y-82450000D03*
X121490000Y-85050000D03*
X122290000Y-82450000D03*
X123090000Y-85050000D03*
D42*
X117840000Y-83750000D03*
X125140000Y-83750000D03*
D43*
X184530000Y-96774000D03*
X187580000Y-96774000D03*
M02*
