G04 #@! TF.FileFunction,Paste,Bot*
%FSLAX46Y46*%
G04 Gerber Fmt 4.6, Leading zero omitted, Abs format (unit mm)*
G04 Created by KiCad (PCBNEW 4.0.7) date Monday, May 07, 2018 'PMt' 12:32:40 PM*
%MOMM*%
%LPD*%
G01*
G04 APERTURE LIST*
%ADD10C,0.100000*%
%ADD11R,1.950000X1.500000*%
%ADD12R,2.420000X5.080000*%
%ADD13R,0.750000X0.800000*%
%ADD14R,0.800000X0.750000*%
%ADD15R,0.800000X0.800000*%
%ADD16R,0.900000X0.800000*%
%ADD17R,0.500000X0.900000*%
%ADD18R,0.900000X0.500000*%
%ADD19R,0.250000X1.300000*%
%ADD20R,1.300000X0.250000*%
%ADD21R,2.200000X1.200000*%
%ADD22R,3.050000X2.750000*%
%ADD23R,1.400000X1.200000*%
%ADD24R,1.000000X1.800000*%
%ADD25R,3.800000X2.000000*%
%ADD26R,1.500000X2.000000*%
%ADD27R,2.500000X1.950000*%
%ADD28R,0.300000X0.250000*%
%ADD29R,0.250000X0.300000*%
G04 APERTURE END LIST*
D10*
D11*
X152759000Y-108712000D03*
X150009000Y-108712000D03*
D12*
X105015000Y-132556000D03*
X113775000Y-132556000D03*
D13*
X163957000Y-81673000D03*
X163957000Y-83173000D03*
D14*
X165469000Y-80264000D03*
X163969000Y-80264000D03*
D13*
X156845000Y-81685000D03*
X156845000Y-83185000D03*
X158242000Y-81685000D03*
X158242000Y-83185000D03*
D14*
X177328000Y-84550000D03*
X175828000Y-84550000D03*
X157619000Y-87249000D03*
X159119000Y-87249000D03*
D13*
X166370000Y-83578000D03*
X166370000Y-85078000D03*
X160655000Y-99175000D03*
X160655000Y-97675000D03*
D14*
X172581000Y-96012000D03*
X171081000Y-96012000D03*
D13*
X126238000Y-111010000D03*
X126238000Y-112510000D03*
X132588000Y-81685000D03*
X132588000Y-83185000D03*
D14*
X129782000Y-100965000D03*
X128282000Y-100965000D03*
X129782000Y-92456000D03*
X128282000Y-92456000D03*
D15*
X175854000Y-86074000D03*
X174254000Y-86074000D03*
X175854000Y-87598000D03*
X174254000Y-87598000D03*
X175854000Y-89122000D03*
X174254000Y-89122000D03*
X175854000Y-90646000D03*
X174254000Y-90646000D03*
X175854000Y-92170000D03*
X174254000Y-92170000D03*
X174254000Y-95218000D03*
X175854000Y-95218000D03*
D16*
X130302000Y-97536000D03*
X130302000Y-99436000D03*
X128302000Y-98486000D03*
X130302000Y-93985000D03*
X130302000Y-95885000D03*
X128302000Y-94935000D03*
X185960000Y-101634000D03*
X185960000Y-103534000D03*
X183960000Y-102584000D03*
D17*
X171510000Y-83026000D03*
X173010000Y-83026000D03*
X164707000Y-84709000D03*
X163207000Y-84709000D03*
X173010000Y-86074000D03*
X171510000Y-86074000D03*
X173010000Y-87598000D03*
X171510000Y-87598000D03*
X173010000Y-89122000D03*
X171510000Y-89122000D03*
X173010000Y-90646000D03*
X171510000Y-90646000D03*
X173010000Y-92170000D03*
X171510000Y-92170000D03*
X123825000Y-114046000D03*
X125325000Y-114046000D03*
D18*
X124460000Y-112522000D03*
X124460000Y-111022000D03*
D17*
X124865000Y-107442000D03*
X126365000Y-107442000D03*
X127532000Y-106426000D03*
X129032000Y-106426000D03*
X130199000Y-105537000D03*
X131699000Y-105537000D03*
X127532000Y-104648000D03*
X129032000Y-104648000D03*
D18*
X139446000Y-97421000D03*
X139446000Y-98921000D03*
D17*
X133084000Y-97536000D03*
X131584000Y-97536000D03*
X133084000Y-93980000D03*
X131584000Y-93980000D03*
X112963000Y-90011000D03*
X114463000Y-90011000D03*
X107248000Y-91408000D03*
X108748000Y-91408000D03*
X174280000Y-98012000D03*
X172780000Y-98012000D03*
D18*
X188516000Y-101556000D03*
X188516000Y-100056000D03*
D19*
X162318000Y-87356000D03*
X162818000Y-87356000D03*
X163318000Y-87356000D03*
X163818000Y-87356000D03*
X164318000Y-87356000D03*
X164818000Y-87356000D03*
X165318000Y-87356000D03*
X165818000Y-87356000D03*
X166318000Y-87356000D03*
X166818000Y-87356000D03*
X167318000Y-87356000D03*
X167818000Y-87356000D03*
D20*
X169418000Y-88956000D03*
X169418000Y-89456000D03*
X169418000Y-89956000D03*
X169418000Y-90456000D03*
X169418000Y-90956000D03*
X169418000Y-91456000D03*
X169418000Y-91956000D03*
X169418000Y-92456000D03*
X169418000Y-92956000D03*
X169418000Y-93456000D03*
X169418000Y-93956000D03*
X169418000Y-94456000D03*
D19*
X167818000Y-96056000D03*
X167318000Y-96056000D03*
X166818000Y-96056000D03*
X166318000Y-96056000D03*
X165818000Y-96056000D03*
X165318000Y-96056000D03*
X164818000Y-96056000D03*
X164318000Y-96056000D03*
X163818000Y-96056000D03*
X163318000Y-96056000D03*
X162818000Y-96056000D03*
X162318000Y-96056000D03*
D20*
X160718000Y-94456000D03*
X160718000Y-93956000D03*
X160718000Y-93456000D03*
X160718000Y-92956000D03*
X160718000Y-92456000D03*
X160718000Y-91956000D03*
X160718000Y-91456000D03*
X160718000Y-90956000D03*
X160718000Y-90456000D03*
X160718000Y-89956000D03*
X160718000Y-89456000D03*
X160718000Y-88956000D03*
D21*
X170381000Y-105117000D03*
X170381000Y-100557000D03*
D22*
X178356000Y-101312000D03*
X175006000Y-104362000D03*
X178356000Y-104362000D03*
X175006000Y-101312000D03*
D23*
X160020000Y-81319000D03*
X162220000Y-81319000D03*
X162220000Y-83019000D03*
X160020000Y-83019000D03*
D24*
X156992000Y-85090000D03*
X159492000Y-85090000D03*
D25*
X152781000Y-111125000D03*
D26*
X152781000Y-117425000D03*
X150481000Y-117425000D03*
X155081000Y-117425000D03*
D25*
X144399000Y-111150000D03*
D26*
X144399000Y-117450000D03*
X142099000Y-117450000D03*
X146699000Y-117450000D03*
D14*
X190028000Y-102838000D03*
X188528000Y-102838000D03*
D11*
X142113000Y-121158000D03*
X144863000Y-121158000D03*
D14*
X143625000Y-119380000D03*
X142125000Y-119380000D03*
D11*
X150473000Y-121158000D03*
X147723000Y-121158000D03*
D14*
X148983000Y-119380000D03*
X150483000Y-119380000D03*
D11*
X144421000Y-108712000D03*
X147171000Y-108712000D03*
D15*
X175854000Y-83026000D03*
X174254000Y-83026000D03*
D27*
X182290000Y-128825000D03*
X182290000Y-131875000D03*
D28*
X131048500Y-83301000D03*
X131048500Y-82751000D03*
X135112500Y-83301000D03*
X135112500Y-82751000D03*
X137652500Y-87386500D03*
X137652500Y-87936500D03*
X137652500Y-83280000D03*
X137652500Y-82730000D03*
D29*
X141124000Y-97377000D03*
X141674000Y-97377000D03*
X137843000Y-97377000D03*
X137293000Y-97377000D03*
M02*
