G04 #@! TF.FileFunction,Copper,L3,Inr,Mixed*
%FSLAX46Y46*%
G04 Gerber Fmt 4.6, Leading zero omitted, Abs format (unit mm)*
G04 Created by KiCad (PCBNEW 4.0.7) date Wednesday, April 18, 2018 'PMt' 12:45:26 PM*
%MOMM*%
%LPD*%
G01*
G04 APERTURE LIST*
%ADD10C,0.100000*%
%ADD11C,0.600000*%
%ADD12C,2.500000*%
%ADD13C,3.000000*%
%ADD14R,2.080000X3.600000*%
%ADD15O,2.080000X3.600000*%
%ADD16C,0.970000*%
%ADD17R,1.700000X1.700000*%
%ADD18O,1.700000X1.700000*%
%ADD19R,2.200000X2.200000*%
%ADD20O,2.200000X2.200000*%
%ADD21R,1.700000X1.100000*%
%ADD22O,1.700000X1.100000*%
%ADD23O,3.900000X1.600000*%
%ADD24C,5.400000*%
%ADD25C,0.700000*%
%ADD26C,2.000000*%
%ADD27C,0.200000*%
%ADD28C,0.254000*%
G04 APERTURE END LIST*
D10*
D11*
X134366000Y-125984000D03*
X135382000Y-123698000D03*
X133350000Y-123698000D03*
X147955000Y-118745000D03*
X149225000Y-114935000D03*
X155575000Y-112395000D03*
X155575000Y-114935000D03*
X155575000Y-121285000D03*
X153035000Y-121285000D03*
X104902000Y-116332000D03*
X170053000Y-111252000D03*
X168529000Y-112776000D03*
X166878000Y-114427000D03*
X165227000Y-116078000D03*
X162814000Y-121920000D03*
X162814000Y-124460000D03*
X169164000Y-118364000D03*
X167894000Y-124460000D03*
X175260000Y-115697000D03*
X177800000Y-115697000D03*
X167894000Y-121920000D03*
X167894000Y-119761000D03*
X170688000Y-116840000D03*
X172720000Y-115697000D03*
X180340000Y-115697000D03*
X182880000Y-115697000D03*
D12*
X183954000Y-109616000D03*
D13*
X171754000Y-109616000D03*
X171704000Y-121666000D03*
D12*
X183954000Y-121616000D03*
D13*
X185904000Y-115666000D03*
D11*
X109790000Y-99350000D03*
X116790000Y-99350000D03*
X113290000Y-99350000D03*
X109790000Y-102850000D03*
X116790000Y-102850000D03*
X116790000Y-113350000D03*
X116790000Y-109850000D03*
X109790000Y-109850000D03*
X109790000Y-113350000D03*
X113290000Y-113350000D03*
X113290000Y-109850000D03*
X113290000Y-102850000D03*
X116790000Y-106350000D03*
X109790000Y-106350000D03*
X113290000Y-106350000D03*
X140335000Y-84455000D03*
X140335000Y-87630000D03*
X99695000Y-81280000D03*
X118745000Y-81280000D03*
X131445000Y-102235000D03*
X134620000Y-99060000D03*
X99695000Y-109855000D03*
X156845000Y-97155000D03*
X153035000Y-97155000D03*
X149860000Y-97155000D03*
X156845000Y-94615000D03*
X153035000Y-94615000D03*
X149860000Y-94615000D03*
X156845000Y-92075000D03*
X153035000Y-92075000D03*
X138430000Y-109220000D03*
X138430000Y-111125000D03*
X138430000Y-113030000D03*
X135255000Y-109220000D03*
X135255000Y-111125000D03*
X135255000Y-113030000D03*
X132080000Y-109220000D03*
X132080000Y-111125000D03*
X132080000Y-113030000D03*
X121920000Y-87630000D03*
X125095000Y-84455000D03*
X121920000Y-84455000D03*
X118745000Y-84455000D03*
X137160000Y-104775000D03*
X140335000Y-104775000D03*
X122555000Y-110490000D03*
X144145000Y-99060000D03*
X125095000Y-87630000D03*
X115570000Y-84455000D03*
X125095000Y-81280000D03*
X121920000Y-81280000D03*
X112395000Y-87630000D03*
X121920000Y-90805000D03*
X115570000Y-87630000D03*
X118745000Y-87630000D03*
X115570000Y-81280000D03*
X99695000Y-113665000D03*
X99695000Y-117475000D03*
X99695000Y-132080000D03*
X140335000Y-90805000D03*
X140335000Y-81280000D03*
X108585000Y-86995000D03*
X106045000Y-84455000D03*
X102870000Y-81280000D03*
X103505000Y-109855000D03*
X99695000Y-106045000D03*
X114935000Y-121920000D03*
X118110000Y-120015000D03*
X117475000Y-121920000D03*
X113030000Y-121920000D03*
X114935000Y-123190000D03*
X116205000Y-121920000D03*
X113665000Y-127635000D03*
X112395000Y-127254000D03*
X104521000Y-125730000D03*
X112395000Y-124460000D03*
X104521000Y-123190000D03*
X118110000Y-121031000D03*
X113030000Y-123190000D03*
X111125000Y-123190000D03*
X111125000Y-120650000D03*
X111125000Y-121920000D03*
X106045000Y-127635000D03*
X107442000Y-127381000D03*
X106045000Y-125730000D03*
X106045000Y-123190000D03*
X107315000Y-123190000D03*
X108585000Y-123190000D03*
X108585000Y-121920000D03*
X108585000Y-120650000D03*
X115570000Y-124460000D03*
X104902000Y-115189000D03*
X103886000Y-115189000D03*
X103886000Y-116332000D03*
X104902000Y-117475000D03*
X103886000Y-117475000D03*
X157226000Y-106680000D03*
X155956000Y-106680000D03*
X104140000Y-95885000D03*
X99695000Y-95885000D03*
X103505000Y-132080000D03*
D14*
X137390000Y-126619000D03*
D15*
X142470000Y-126619000D03*
X147550000Y-126619000D03*
X152630000Y-126619000D03*
X157710000Y-126619000D03*
X162790000Y-126619000D03*
X167870000Y-126619000D03*
X172950000Y-126619000D03*
D16*
X104024000Y-120272000D03*
X104024000Y-129032000D03*
D17*
X146812000Y-87249000D03*
D18*
X149352000Y-87249000D03*
D17*
X184531000Y-83185000D03*
D18*
X187071000Y-83185000D03*
X189611000Y-83185000D03*
D17*
X188976000Y-87630000D03*
D18*
X188976000Y-90170000D03*
X188976000Y-92710000D03*
X188976000Y-95250000D03*
X188976000Y-97790000D03*
D11*
X149860000Y-92075000D03*
X181102000Y-103632000D03*
X181102000Y-101600000D03*
X181102000Y-105664000D03*
X179324000Y-101600000D03*
X179324000Y-103632000D03*
X179324000Y-105664000D03*
X182880000Y-101600000D03*
X182880000Y-103632000D03*
X182880000Y-105664000D03*
D19*
X154813000Y-81661000D03*
D20*
X144653000Y-81661000D03*
D21*
X103505000Y-90436500D03*
D22*
X100905000Y-89636500D03*
X103505000Y-88836500D03*
X100905000Y-88036500D03*
X103505000Y-87236500D03*
D23*
X102205000Y-92486500D03*
X102205000Y-85186500D03*
D24*
X109790000Y-130350000D03*
X179790000Y-130350000D03*
X179790000Y-82350000D03*
X109790000Y-82350000D03*
D11*
X172974000Y-124460000D03*
X172974000Y-123190000D03*
X165318000Y-89245000D03*
X153415361Y-111149103D03*
X179197000Y-88646000D03*
X144379061Y-108662165D03*
X169545000Y-96012000D03*
X160655000Y-96012000D03*
X160655000Y-87249000D03*
X166370000Y-85852000D03*
X128016000Y-108902500D03*
X158369000Y-106680000D03*
X154686000Y-106680000D03*
X122785598Y-102002193D03*
X122728574Y-98717709D03*
X163830000Y-112522000D03*
X173863000Y-84963000D03*
X173863000Y-86741000D03*
X173863000Y-88519000D03*
X173863000Y-90297000D03*
X173863000Y-92075000D03*
X139446000Y-96520000D03*
X168402000Y-93472000D03*
X163322179Y-94995912D03*
X161800167Y-94488574D03*
X154940000Y-88198000D03*
X139446000Y-99695000D03*
X122682000Y-114046000D03*
X116141500Y-90424000D03*
X109855000Y-88836500D03*
X111188500Y-91376500D03*
X189738000Y-100203000D03*
X159384145Y-89981173D03*
X183578500Y-90805000D03*
X170340576Y-101351960D03*
X103147177Y-104220949D03*
X132588000Y-84074000D03*
X104065717Y-103119878D03*
X135128000Y-84074000D03*
X105039551Y-102015949D03*
X137668000Y-86487000D03*
X105045494Y-100931574D03*
X137668000Y-84074000D03*
X102235000Y-105410000D03*
X141097000Y-96520000D03*
X122682000Y-107442000D03*
X122682000Y-106426000D03*
X122682000Y-105537000D03*
X122682000Y-104648000D03*
X167640000Y-81915000D03*
D25*
X153839625Y-111149103D02*
X153415361Y-111149103D01*
X156693897Y-111149103D02*
X153839625Y-111149103D01*
X179197000Y-88646000D02*
X156693897Y-111149103D01*
X146812000Y-87249000D02*
X146812000Y-106229226D01*
X144679060Y-108362166D02*
X144379061Y-108662165D01*
X146812000Y-106229226D02*
X144679060Y-108362166D01*
X160655000Y-96012000D02*
X169545000Y-96012000D01*
X160655000Y-87249000D02*
X160655000Y-96012000D01*
X185644999Y-85848999D02*
X160655000Y-85848999D01*
X160655000Y-85848999D02*
X148212001Y-85848999D01*
X160655000Y-87249000D02*
X160655000Y-85848999D01*
X188976000Y-87630000D02*
X187426000Y-87630000D01*
X187426000Y-87630000D02*
X185644999Y-85848999D01*
X148212001Y-85848999D02*
X146812000Y-87249000D01*
D26*
X162790000Y-118580000D02*
X171754000Y-109616000D01*
X162790000Y-126619000D02*
X162790000Y-118580000D01*
X162790000Y-126619000D02*
X162790000Y-118580000D01*
X162790000Y-118580000D02*
X171754000Y-109616000D01*
X172950000Y-122912000D02*
X171704000Y-121666000D01*
X172950000Y-126619000D02*
X172950000Y-122912000D01*
X172950000Y-126619000D02*
X172950000Y-122912000D01*
X172950000Y-122912000D02*
X171704000Y-121666000D01*
X171870488Y-115666000D02*
X183782680Y-115666000D01*
X183782680Y-115666000D02*
X185904000Y-115666000D01*
X167870000Y-119666488D02*
X171870488Y-115666000D01*
X167870000Y-126619000D02*
X167870000Y-119666488D01*
X167870000Y-126619000D02*
X167870000Y-119666488D01*
X167870000Y-119666488D02*
X171870488Y-115666000D01*
X183782680Y-115666000D02*
X185904000Y-115666000D01*
X171870488Y-115666000D02*
X183782680Y-115666000D01*
D27*
X139446000Y-99695000D02*
X125095000Y-114046000D01*
X125095000Y-114046000D02*
X122682000Y-114046000D01*
X104460437Y-98632964D02*
X103147177Y-99946224D01*
X103147177Y-99946224D02*
X103147177Y-103796685D01*
X118029036Y-98632964D02*
X104460437Y-98632964D01*
X132588000Y-84074000D02*
X118029036Y-98632964D01*
X103147177Y-103796685D02*
X103147177Y-104220949D01*
X104065717Y-100024281D02*
X104065717Y-102695614D01*
X104098539Y-99991459D02*
X104065717Y-100024281D01*
X134182685Y-84074000D02*
X118265226Y-99991459D01*
X135128000Y-84074000D02*
X134182685Y-84074000D01*
X104065717Y-102695614D02*
X104065717Y-103119878D01*
X118265226Y-99991459D02*
X104098539Y-99991459D01*
X117372136Y-102015949D02*
X105463815Y-102015949D01*
X105463815Y-102015949D02*
X105039551Y-102015949D01*
X137668000Y-86487000D02*
X132901085Y-86487000D01*
X132901085Y-86487000D02*
X117372136Y-102015949D01*
X137668000Y-86487000D02*
X137636995Y-86455995D01*
X105469758Y-100931574D02*
X105045494Y-100931574D01*
X117890811Y-100931574D02*
X105469758Y-100931574D01*
X132735396Y-86086989D02*
X117890811Y-100931574D01*
X135655011Y-86086989D02*
X132735396Y-86086989D01*
X137668000Y-84074000D02*
X135655011Y-86086989D01*
X102846128Y-105410000D02*
X102235000Y-105410000D01*
X141097000Y-96520000D02*
X133897121Y-103719879D01*
X133897121Y-103719879D02*
X104536249Y-103719879D01*
X104536249Y-103719879D02*
X102846128Y-105410000D01*
D28*
G36*
X105537000Y-117729000D02*
X103251000Y-117729000D01*
X103251000Y-114935000D01*
X105537000Y-114935000D01*
X105537000Y-117729000D01*
X105537000Y-117729000D01*
G37*
X105537000Y-117729000D02*
X103251000Y-117729000D01*
X103251000Y-114935000D01*
X105537000Y-114935000D01*
X105537000Y-117729000D01*
G36*
X158750000Y-107188000D02*
X154305000Y-107188000D01*
X154305000Y-106172000D01*
X158750000Y-106172000D01*
X158750000Y-107188000D01*
X158750000Y-107188000D01*
G37*
X158750000Y-107188000D02*
X154305000Y-107188000D01*
X154305000Y-106172000D01*
X158750000Y-106172000D01*
X158750000Y-107188000D01*
G36*
X107589414Y-79969809D02*
X109790000Y-82170395D01*
X111990586Y-79969809D01*
X111860280Y-79781000D01*
X177719720Y-79781000D01*
X177589414Y-79969809D01*
X179790000Y-82170395D01*
X181990586Y-79969809D01*
X181860280Y-79781000D01*
X191359000Y-79781000D01*
X191359000Y-106723000D01*
X170290000Y-106723000D01*
X170240590Y-106733006D01*
X170200197Y-106760197D01*
X164511064Y-112449330D01*
X164511118Y-112387135D01*
X164407661Y-112136748D01*
X164216259Y-111945013D01*
X163966054Y-111841118D01*
X163695135Y-111840882D01*
X163444748Y-111944339D01*
X163253013Y-112135741D01*
X163149118Y-112385946D01*
X163148882Y-112656865D01*
X163252339Y-112907252D01*
X163443741Y-113098987D01*
X163693946Y-113202882D01*
X163757457Y-113202937D01*
X160700197Y-116260197D01*
X160672334Y-116302211D01*
X160663000Y-116350000D01*
X160663000Y-129350000D01*
X160673006Y-129399410D01*
X160701447Y-129441035D01*
X160743841Y-129468315D01*
X160790000Y-129477000D01*
X176540920Y-129477000D01*
X176456275Y-129680252D01*
X176453738Y-131006995D01*
X176959117Y-132233716D01*
X176966341Y-132244528D01*
X177409809Y-132550586D01*
X179610395Y-130350000D01*
X179596253Y-130335858D01*
X179775858Y-130156253D01*
X179790000Y-130170395D01*
X179804143Y-130156253D01*
X179983748Y-130335858D01*
X179969605Y-130350000D01*
X182170191Y-132550586D01*
X182613659Y-132244528D01*
X183123725Y-131019748D01*
X183126262Y-129693005D01*
X183037273Y-129477000D01*
X191359000Y-129477000D01*
X191359000Y-132919000D01*
X181860280Y-132919000D01*
X181990586Y-132730191D01*
X179790000Y-130529605D01*
X177589414Y-132730191D01*
X177719720Y-132919000D01*
X111860280Y-132919000D01*
X111990586Y-132730191D01*
X109790000Y-130529605D01*
X107589414Y-132730191D01*
X107719720Y-132919000D01*
X98221000Y-132919000D01*
X98221000Y-131006995D01*
X106453738Y-131006995D01*
X106959117Y-132233716D01*
X106966341Y-132244528D01*
X107409809Y-132550586D01*
X109610395Y-130350000D01*
X109969605Y-130350000D01*
X112170191Y-132550586D01*
X112613659Y-132244528D01*
X113123725Y-131019748D01*
X113126262Y-129693005D01*
X112620883Y-128466284D01*
X112613659Y-128455472D01*
X112170191Y-128149414D01*
X109969605Y-130350000D01*
X109610395Y-130350000D01*
X107409809Y-128149414D01*
X106966341Y-128455472D01*
X106456275Y-129680252D01*
X106453738Y-131006995D01*
X98221000Y-131006995D01*
X98221000Y-129811200D01*
X103424405Y-129811200D01*
X103459692Y-130024768D01*
X103882564Y-130165149D01*
X104326968Y-130133018D01*
X104588308Y-130024768D01*
X104623595Y-129811200D01*
X104024000Y-129211605D01*
X103424405Y-129811200D01*
X98221000Y-129811200D01*
X98221000Y-128890564D01*
X102890851Y-128890564D01*
X102922982Y-129334968D01*
X103031232Y-129596308D01*
X103244800Y-129631595D01*
X103844395Y-129032000D01*
X104203605Y-129032000D01*
X104803200Y-129631595D01*
X105016768Y-129596308D01*
X105157149Y-129173436D01*
X105125018Y-128729032D01*
X105016768Y-128467692D01*
X104803200Y-128432405D01*
X104203605Y-129032000D01*
X103844395Y-129032000D01*
X103244800Y-128432405D01*
X103031232Y-128467692D01*
X102890851Y-128890564D01*
X98221000Y-128890564D01*
X98221000Y-128252800D01*
X103424405Y-128252800D01*
X104024000Y-128852395D01*
X104623595Y-128252800D01*
X104588308Y-128039232D01*
X104379184Y-127969809D01*
X107589414Y-127969809D01*
X109790000Y-130170395D01*
X111990586Y-127969809D01*
X111684528Y-127526341D01*
X110459748Y-127016275D01*
X109133005Y-127013738D01*
X107906284Y-127519117D01*
X107895472Y-127526341D01*
X107589414Y-127969809D01*
X104379184Y-127969809D01*
X104165436Y-127898851D01*
X103721032Y-127930982D01*
X103459692Y-128039232D01*
X103424405Y-128252800D01*
X98221000Y-128252800D01*
X98221000Y-124819000D01*
X135961536Y-124819000D01*
X135961536Y-128419000D01*
X135988103Y-128560190D01*
X136071546Y-128689865D01*
X136198866Y-128776859D01*
X136350000Y-128807464D01*
X138430000Y-128807464D01*
X138571190Y-128780897D01*
X138700865Y-128697454D01*
X138787859Y-128570134D01*
X138818464Y-128419000D01*
X138818464Y-125816272D01*
X141049000Y-125816272D01*
X141049000Y-127421728D01*
X141157167Y-127965521D01*
X141465201Y-128426527D01*
X141926207Y-128734561D01*
X142470000Y-128842728D01*
X143013793Y-128734561D01*
X143474799Y-128426527D01*
X143782833Y-127965521D01*
X143891000Y-127421728D01*
X143891000Y-125816272D01*
X146129000Y-125816272D01*
X146129000Y-127421728D01*
X146237167Y-127965521D01*
X146545201Y-128426527D01*
X147006207Y-128734561D01*
X147550000Y-128842728D01*
X148093793Y-128734561D01*
X148554799Y-128426527D01*
X148862833Y-127965521D01*
X148971000Y-127421728D01*
X148971000Y-126746000D01*
X150955000Y-126746000D01*
X150955000Y-127506000D01*
X151131103Y-128137327D01*
X151535399Y-128653206D01*
X152106338Y-128975099D01*
X152243290Y-129008748D01*
X152503000Y-128889922D01*
X152503000Y-126746000D01*
X152757000Y-126746000D01*
X152757000Y-128889922D01*
X153016710Y-129008748D01*
X153153662Y-128975099D01*
X153724601Y-128653206D01*
X154128897Y-128137327D01*
X154305000Y-127506000D01*
X154305000Y-126746000D01*
X152757000Y-126746000D01*
X152503000Y-126746000D01*
X150955000Y-126746000D01*
X148971000Y-126746000D01*
X148971000Y-125816272D01*
X148954238Y-125732000D01*
X150955000Y-125732000D01*
X150955000Y-126492000D01*
X152503000Y-126492000D01*
X152503000Y-124348078D01*
X152757000Y-124348078D01*
X152757000Y-126492000D01*
X154305000Y-126492000D01*
X154305000Y-125816272D01*
X156289000Y-125816272D01*
X156289000Y-127421728D01*
X156397167Y-127965521D01*
X156705201Y-128426527D01*
X157166207Y-128734561D01*
X157710000Y-128842728D01*
X158253793Y-128734561D01*
X158714799Y-128426527D01*
X159022833Y-127965521D01*
X159131000Y-127421728D01*
X159131000Y-125816272D01*
X159022833Y-125272479D01*
X158714799Y-124811473D01*
X158253793Y-124503439D01*
X157710000Y-124395272D01*
X157166207Y-124503439D01*
X156705201Y-124811473D01*
X156397167Y-125272479D01*
X156289000Y-125816272D01*
X154305000Y-125816272D01*
X154305000Y-125732000D01*
X154128897Y-125100673D01*
X153724601Y-124584794D01*
X153153662Y-124262901D01*
X153016710Y-124229252D01*
X152757000Y-124348078D01*
X152503000Y-124348078D01*
X152243290Y-124229252D01*
X152106338Y-124262901D01*
X151535399Y-124584794D01*
X151131103Y-125100673D01*
X150955000Y-125732000D01*
X148954238Y-125732000D01*
X148862833Y-125272479D01*
X148554799Y-124811473D01*
X148093793Y-124503439D01*
X147550000Y-124395272D01*
X147006207Y-124503439D01*
X146545201Y-124811473D01*
X146237167Y-125272479D01*
X146129000Y-125816272D01*
X143891000Y-125816272D01*
X143782833Y-125272479D01*
X143474799Y-124811473D01*
X143013793Y-124503439D01*
X142470000Y-124395272D01*
X141926207Y-124503439D01*
X141465201Y-124811473D01*
X141157167Y-125272479D01*
X141049000Y-125816272D01*
X138818464Y-125816272D01*
X138818464Y-124819000D01*
X138791897Y-124677810D01*
X138708454Y-124548135D01*
X138581134Y-124461141D01*
X138430000Y-124430536D01*
X136350000Y-124430536D01*
X136208810Y-124457103D01*
X136079135Y-124540546D01*
X135992141Y-124667866D01*
X135961536Y-124819000D01*
X98221000Y-124819000D01*
X98221000Y-121051200D01*
X103424405Y-121051200D01*
X103459692Y-121264768D01*
X103882564Y-121405149D01*
X104326968Y-121373018D01*
X104588308Y-121264768D01*
X104623595Y-121051200D01*
X104024000Y-120451605D01*
X103424405Y-121051200D01*
X98221000Y-121051200D01*
X98221000Y-120130564D01*
X102890851Y-120130564D01*
X102922982Y-120574968D01*
X103031232Y-120836308D01*
X103244800Y-120871595D01*
X103844395Y-120272000D01*
X104203605Y-120272000D01*
X104803200Y-120871595D01*
X105016768Y-120836308D01*
X105157149Y-120413436D01*
X105125018Y-119969032D01*
X105016768Y-119707692D01*
X104803200Y-119672405D01*
X104203605Y-120272000D01*
X103844395Y-120272000D01*
X103244800Y-119672405D01*
X103031232Y-119707692D01*
X102890851Y-120130564D01*
X98221000Y-120130564D01*
X98221000Y-119492800D01*
X103424405Y-119492800D01*
X104024000Y-120092395D01*
X104623595Y-119492800D01*
X104588308Y-119279232D01*
X104165436Y-119138851D01*
X103721032Y-119170982D01*
X103459692Y-119279232D01*
X103424405Y-119492800D01*
X98221000Y-119492800D01*
X98221000Y-114808000D01*
X102743000Y-114808000D01*
X102743000Y-117856000D01*
X102769056Y-117994477D01*
X102850896Y-118121660D01*
X102975770Y-118206983D01*
X103124000Y-118237000D01*
X105664000Y-118237000D01*
X105802477Y-118210944D01*
X105929660Y-118129104D01*
X106014983Y-118004230D01*
X106045000Y-117856000D01*
X106045000Y-114808000D01*
X106018944Y-114669523D01*
X105937104Y-114542340D01*
X105812230Y-114457017D01*
X105664000Y-114427000D01*
X103124000Y-114427000D01*
X102985523Y-114453056D01*
X102858340Y-114534896D01*
X102773017Y-114659770D01*
X102743000Y-114808000D01*
X98221000Y-114808000D01*
X98221000Y-109037365D01*
X127334882Y-109037365D01*
X127438339Y-109287752D01*
X127629741Y-109479487D01*
X127879946Y-109583382D01*
X128150865Y-109583618D01*
X128401252Y-109480161D01*
X128592987Y-109288759D01*
X128696882Y-109038554D01*
X128697118Y-108767635D01*
X128593661Y-108517248D01*
X128402259Y-108325513D01*
X128152054Y-108221618D01*
X127881135Y-108221382D01*
X127630748Y-108324839D01*
X127439013Y-108516241D01*
X127335118Y-108766446D01*
X127334882Y-109037365D01*
X98221000Y-109037365D01*
X98221000Y-105544865D01*
X101553882Y-105544865D01*
X101657339Y-105795252D01*
X101848741Y-105986987D01*
X102098946Y-106090882D01*
X102369865Y-106091118D01*
X102620252Y-105987661D01*
X102717081Y-105891000D01*
X102846128Y-105891000D01*
X103030199Y-105854386D01*
X103186246Y-105750118D01*
X104735485Y-104200879D01*
X122165981Y-104200879D01*
X122105013Y-104261741D01*
X122001118Y-104511946D01*
X122000882Y-104782865D01*
X122104339Y-105033252D01*
X122163420Y-105092436D01*
X122105013Y-105150741D01*
X122001118Y-105400946D01*
X122000882Y-105671865D01*
X122104339Y-105922252D01*
X122163420Y-105981436D01*
X122105013Y-106039741D01*
X122001118Y-106289946D01*
X122000882Y-106560865D01*
X122104339Y-106811252D01*
X122226920Y-106934046D01*
X122105013Y-107055741D01*
X122001118Y-107305946D01*
X122000882Y-107576865D01*
X122104339Y-107827252D01*
X122295741Y-108018987D01*
X122545946Y-108122882D01*
X122816865Y-108123118D01*
X123067252Y-108019661D01*
X123258987Y-107828259D01*
X123362882Y-107578054D01*
X123363118Y-107307135D01*
X123259661Y-107056748D01*
X123137080Y-106933954D01*
X123258987Y-106812259D01*
X123362882Y-106562054D01*
X123363118Y-106291135D01*
X123259661Y-106040748D01*
X123200580Y-105981564D01*
X123258987Y-105923259D01*
X123362882Y-105673054D01*
X123363118Y-105402135D01*
X123259661Y-105151748D01*
X123200580Y-105092564D01*
X123258987Y-105034259D01*
X123362882Y-104784054D01*
X123363118Y-104513135D01*
X123259661Y-104262748D01*
X123197899Y-104200879D01*
X133897121Y-104200879D01*
X134081192Y-104164265D01*
X134237239Y-104059997D01*
X138784168Y-99513068D01*
X138765118Y-99558946D01*
X138764999Y-99695765D01*
X124895764Y-113565000D01*
X123164079Y-113565000D01*
X123068259Y-113469013D01*
X122818054Y-113365118D01*
X122547135Y-113364882D01*
X122296748Y-113468339D01*
X122105013Y-113659741D01*
X122001118Y-113909946D01*
X122000882Y-114180865D01*
X122104339Y-114431252D01*
X122295741Y-114622987D01*
X122545946Y-114726882D01*
X122816865Y-114727118D01*
X123067252Y-114623661D01*
X123164081Y-114527000D01*
X125095000Y-114527000D01*
X125279071Y-114490386D01*
X125435118Y-114386118D01*
X128672133Y-111149103D01*
X152684361Y-111149103D01*
X152740005Y-111428845D01*
X152898466Y-111665998D01*
X153135619Y-111824459D01*
X153415361Y-111880103D01*
X156693897Y-111880103D01*
X156973639Y-111824459D01*
X157210792Y-111665998D01*
X167389965Y-101486825D01*
X169659458Y-101486825D01*
X169762915Y-101737212D01*
X169954317Y-101928947D01*
X170204522Y-102032842D01*
X170475441Y-102033078D01*
X170725828Y-101929621D01*
X170917563Y-101738219D01*
X171021458Y-101488014D01*
X171021694Y-101217095D01*
X170918237Y-100966708D01*
X170726835Y-100774973D01*
X170476630Y-100671078D01*
X170205711Y-100670842D01*
X169955324Y-100774299D01*
X169763589Y-100965701D01*
X169659694Y-101215906D01*
X169659458Y-101486825D01*
X167389965Y-101486825D01*
X168538925Y-100337865D01*
X189056882Y-100337865D01*
X189160339Y-100588252D01*
X189351741Y-100779987D01*
X189601946Y-100883882D01*
X189872865Y-100884118D01*
X190123252Y-100780661D01*
X190314987Y-100589259D01*
X190418882Y-100339054D01*
X190419118Y-100068135D01*
X190315661Y-99817748D01*
X190124259Y-99626013D01*
X189874054Y-99522118D01*
X189603135Y-99521882D01*
X189352748Y-99625339D01*
X189161013Y-99816741D01*
X189057118Y-100066946D01*
X189056882Y-100337865D01*
X168538925Y-100337865D01*
X170729900Y-98146890D01*
X187534524Y-98146890D01*
X187704355Y-98556924D01*
X188094642Y-98985183D01*
X188619108Y-99231486D01*
X188849000Y-99110819D01*
X188849000Y-97917000D01*
X189103000Y-97917000D01*
X189103000Y-99110819D01*
X189332892Y-99231486D01*
X189857358Y-98985183D01*
X190247645Y-98556924D01*
X190417476Y-98146890D01*
X190296155Y-97917000D01*
X189103000Y-97917000D01*
X188849000Y-97917000D01*
X187655845Y-97917000D01*
X187534524Y-98146890D01*
X170729900Y-98146890D01*
X171443680Y-97433110D01*
X187534524Y-97433110D01*
X187655845Y-97663000D01*
X188849000Y-97663000D01*
X188849000Y-97643000D01*
X189103000Y-97643000D01*
X189103000Y-97663000D01*
X190296155Y-97663000D01*
X190417476Y-97433110D01*
X190247645Y-97023076D01*
X189857358Y-96594817D01*
X189432053Y-96395083D01*
X189471200Y-96387296D01*
X189870565Y-96120448D01*
X190137413Y-95721083D01*
X190231117Y-95250000D01*
X190137413Y-94778917D01*
X189870565Y-94379552D01*
X189471200Y-94112704D01*
X189000117Y-94019000D01*
X188951883Y-94019000D01*
X188480800Y-94112704D01*
X188081435Y-94379552D01*
X187814587Y-94778917D01*
X187720883Y-95250000D01*
X187814587Y-95721083D01*
X188081435Y-96120448D01*
X188480800Y-96387296D01*
X188519947Y-96395083D01*
X188094642Y-96594817D01*
X187704355Y-97023076D01*
X187534524Y-97433110D01*
X171443680Y-97433110D01*
X176166790Y-92710000D01*
X187720883Y-92710000D01*
X187814587Y-93181083D01*
X188081435Y-93580448D01*
X188480800Y-93847296D01*
X188951883Y-93941000D01*
X189000117Y-93941000D01*
X189471200Y-93847296D01*
X189870565Y-93580448D01*
X190137413Y-93181083D01*
X190231117Y-92710000D01*
X190137413Y-92238917D01*
X189870565Y-91839552D01*
X189471200Y-91572704D01*
X189000117Y-91479000D01*
X188951883Y-91479000D01*
X188480800Y-91572704D01*
X188081435Y-91839552D01*
X187814587Y-92238917D01*
X187720883Y-92710000D01*
X176166790Y-92710000D01*
X177936925Y-90939865D01*
X182897382Y-90939865D01*
X183000839Y-91190252D01*
X183192241Y-91381987D01*
X183442446Y-91485882D01*
X183713365Y-91486118D01*
X183963752Y-91382661D01*
X184155487Y-91191259D01*
X184259382Y-90941054D01*
X184259618Y-90670135D01*
X184156161Y-90419748D01*
X183964759Y-90228013D01*
X183825050Y-90170000D01*
X187720883Y-90170000D01*
X187814587Y-90641083D01*
X188081435Y-91040448D01*
X188480800Y-91307296D01*
X188951883Y-91401000D01*
X189000117Y-91401000D01*
X189471200Y-91307296D01*
X189870565Y-91040448D01*
X190137413Y-90641083D01*
X190231117Y-90170000D01*
X190137413Y-89698917D01*
X189870565Y-89299552D01*
X189471200Y-89032704D01*
X189000117Y-88939000D01*
X188951883Y-88939000D01*
X188480800Y-89032704D01*
X188081435Y-89299552D01*
X187814587Y-89698917D01*
X187720883Y-90170000D01*
X183825050Y-90170000D01*
X183714554Y-90124118D01*
X183443635Y-90123882D01*
X183193248Y-90227339D01*
X183001513Y-90418741D01*
X182897618Y-90668946D01*
X182897382Y-90939865D01*
X177936925Y-90939865D01*
X179713895Y-89162895D01*
X179872356Y-88925742D01*
X179928000Y-88646000D01*
X179872356Y-88366259D01*
X179713895Y-88129105D01*
X179476741Y-87970644D01*
X179197000Y-87915000D01*
X178917258Y-87970644D01*
X178680105Y-88129105D01*
X174505342Y-92303868D01*
X174543882Y-92211054D01*
X174544118Y-91940135D01*
X174440661Y-91689748D01*
X174249259Y-91498013D01*
X173999054Y-91394118D01*
X173728135Y-91393882D01*
X173477748Y-91497339D01*
X173286013Y-91688741D01*
X173182118Y-91938946D01*
X173181882Y-92209865D01*
X173285339Y-92460252D01*
X173476741Y-92651987D01*
X173726946Y-92755882D01*
X173997865Y-92756118D01*
X174091979Y-92717231D01*
X156391107Y-110418103D01*
X153415361Y-110418103D01*
X153135619Y-110473747D01*
X152898466Y-110632208D01*
X152740005Y-110869361D01*
X152684361Y-111149103D01*
X128672133Y-111149103D01*
X131159071Y-108662165D01*
X143648061Y-108662165D01*
X143703705Y-108941906D01*
X143862166Y-109179060D01*
X144099320Y-109337521D01*
X144379061Y-109393165D01*
X144658802Y-109337521D01*
X144895956Y-109179060D01*
X147328895Y-106746121D01*
X147487357Y-106508967D01*
X147543000Y-106229226D01*
X147543000Y-106045000D01*
X153797000Y-106045000D01*
X153797000Y-107315000D01*
X153823056Y-107453477D01*
X153904896Y-107580660D01*
X154029770Y-107665983D01*
X154178000Y-107696000D01*
X158877000Y-107696000D01*
X159015477Y-107669944D01*
X159142660Y-107588104D01*
X159227983Y-107463230D01*
X159258000Y-107315000D01*
X159258000Y-106045000D01*
X159231944Y-105906523D01*
X159150104Y-105779340D01*
X159025230Y-105694017D01*
X158877000Y-105664000D01*
X154178000Y-105664000D01*
X154039523Y-105690056D01*
X153912340Y-105771896D01*
X153827017Y-105896770D01*
X153797000Y-106045000D01*
X147543000Y-106045000D01*
X147543000Y-88487464D01*
X147662000Y-88487464D01*
X147803190Y-88460897D01*
X147932865Y-88377454D01*
X148019859Y-88250134D01*
X148050464Y-88099000D01*
X148050464Y-87044326D01*
X148183347Y-86911443D01*
X148121000Y-87224883D01*
X148121000Y-87273117D01*
X148214704Y-87744200D01*
X148481552Y-88143565D01*
X148880917Y-88410413D01*
X149352000Y-88504117D01*
X149823083Y-88410413D01*
X149939141Y-88332865D01*
X154258882Y-88332865D01*
X154362339Y-88583252D01*
X154553741Y-88774987D01*
X154803946Y-88878882D01*
X155074865Y-88879118D01*
X155325252Y-88775661D01*
X155516987Y-88584259D01*
X155620882Y-88334054D01*
X155621118Y-88063135D01*
X155517661Y-87812748D01*
X155326259Y-87621013D01*
X155076054Y-87517118D01*
X154805135Y-87516882D01*
X154554748Y-87620339D01*
X154363013Y-87811741D01*
X154259118Y-88061946D01*
X154258882Y-88332865D01*
X149939141Y-88332865D01*
X150222448Y-88143565D01*
X150489296Y-87744200D01*
X150583000Y-87273117D01*
X150583000Y-87224883D01*
X150489296Y-86753800D01*
X150373166Y-86579999D01*
X159924000Y-86579999D01*
X159924000Y-89558049D01*
X159770404Y-89404186D01*
X159520199Y-89300291D01*
X159249280Y-89300055D01*
X158998893Y-89403512D01*
X158807158Y-89594914D01*
X158703263Y-89845119D01*
X158703027Y-90116038D01*
X158806484Y-90366425D01*
X158997886Y-90558160D01*
X159248091Y-90662055D01*
X159519010Y-90662291D01*
X159769397Y-90558834D01*
X159924000Y-90404500D01*
X159924000Y-96012000D01*
X159979644Y-96291742D01*
X160138105Y-96528895D01*
X160375258Y-96687356D01*
X160655000Y-96743000D01*
X169545000Y-96743000D01*
X169824742Y-96687356D01*
X170061895Y-96528895D01*
X170220356Y-96291742D01*
X170276000Y-96012000D01*
X170220356Y-95732258D01*
X170061895Y-95495105D01*
X169824742Y-95336644D01*
X169545000Y-95281000D01*
X163941176Y-95281000D01*
X164003061Y-95131966D01*
X164003297Y-94861047D01*
X163899840Y-94610660D01*
X163708438Y-94418925D01*
X163458233Y-94315030D01*
X163187314Y-94314794D01*
X162936927Y-94418251D01*
X162745192Y-94609653D01*
X162641297Y-94859858D01*
X162641061Y-95130777D01*
X162703131Y-95281000D01*
X161386000Y-95281000D01*
X161386000Y-95037604D01*
X161413908Y-95065561D01*
X161664113Y-95169456D01*
X161935032Y-95169692D01*
X162185419Y-95066235D01*
X162377154Y-94874833D01*
X162481049Y-94624628D01*
X162481285Y-94353709D01*
X162377828Y-94103322D01*
X162186426Y-93911587D01*
X161936221Y-93807692D01*
X161665302Y-93807456D01*
X161414915Y-93910913D01*
X161386000Y-93939778D01*
X161386000Y-93606865D01*
X167720882Y-93606865D01*
X167824339Y-93857252D01*
X168015741Y-94048987D01*
X168265946Y-94152882D01*
X168536865Y-94153118D01*
X168787252Y-94049661D01*
X168978987Y-93858259D01*
X169082882Y-93608054D01*
X169083118Y-93337135D01*
X168979661Y-93086748D01*
X168788259Y-92895013D01*
X168538054Y-92791118D01*
X168267135Y-92790882D01*
X168016748Y-92894339D01*
X167825013Y-93085741D01*
X167721118Y-93335946D01*
X167720882Y-93606865D01*
X161386000Y-93606865D01*
X161386000Y-90431865D01*
X173181882Y-90431865D01*
X173285339Y-90682252D01*
X173476741Y-90873987D01*
X173726946Y-90977882D01*
X173997865Y-90978118D01*
X174248252Y-90874661D01*
X174439987Y-90683259D01*
X174543882Y-90433054D01*
X174544118Y-90162135D01*
X174440661Y-89911748D01*
X174249259Y-89720013D01*
X173999054Y-89616118D01*
X173728135Y-89615882D01*
X173477748Y-89719339D01*
X173286013Y-89910741D01*
X173182118Y-90160946D01*
X173181882Y-90431865D01*
X161386000Y-90431865D01*
X161386000Y-89379865D01*
X164636882Y-89379865D01*
X164740339Y-89630252D01*
X164931741Y-89821987D01*
X165181946Y-89925882D01*
X165452865Y-89926118D01*
X165703252Y-89822661D01*
X165894987Y-89631259D01*
X165998882Y-89381054D01*
X165999118Y-89110135D01*
X165895661Y-88859748D01*
X165704259Y-88668013D01*
X165670188Y-88653865D01*
X173181882Y-88653865D01*
X173285339Y-88904252D01*
X173476741Y-89095987D01*
X173726946Y-89199882D01*
X173997865Y-89200118D01*
X174248252Y-89096661D01*
X174439987Y-88905259D01*
X174543882Y-88655054D01*
X174544118Y-88384135D01*
X174440661Y-88133748D01*
X174249259Y-87942013D01*
X173999054Y-87838118D01*
X173728135Y-87837882D01*
X173477748Y-87941339D01*
X173286013Y-88132741D01*
X173182118Y-88382946D01*
X173181882Y-88653865D01*
X165670188Y-88653865D01*
X165454054Y-88564118D01*
X165183135Y-88563882D01*
X164932748Y-88667339D01*
X164741013Y-88858741D01*
X164637118Y-89108946D01*
X164636882Y-89379865D01*
X161386000Y-89379865D01*
X161386000Y-86579999D01*
X173192477Y-86579999D01*
X173182118Y-86604946D01*
X173181882Y-86875865D01*
X173285339Y-87126252D01*
X173476741Y-87317987D01*
X173726946Y-87421882D01*
X173997865Y-87422118D01*
X174248252Y-87318661D01*
X174439987Y-87127259D01*
X174543882Y-86877054D01*
X174544118Y-86606135D01*
X174533319Y-86579999D01*
X185342209Y-86579999D01*
X186909105Y-88146895D01*
X187146258Y-88305356D01*
X187426000Y-88361000D01*
X187737536Y-88361000D01*
X187737536Y-88480000D01*
X187764103Y-88621190D01*
X187847546Y-88750865D01*
X187974866Y-88837859D01*
X188126000Y-88868464D01*
X189826000Y-88868464D01*
X189967190Y-88841897D01*
X190096865Y-88758454D01*
X190183859Y-88631134D01*
X190214464Y-88480000D01*
X190214464Y-86780000D01*
X190187897Y-86638810D01*
X190104454Y-86509135D01*
X189977134Y-86422141D01*
X189826000Y-86391536D01*
X188126000Y-86391536D01*
X187984810Y-86418103D01*
X187855135Y-86501546D01*
X187768141Y-86628866D01*
X187737536Y-86780000D01*
X187737536Y-86899000D01*
X187728790Y-86899000D01*
X186161894Y-85332104D01*
X186134051Y-85313500D01*
X185924741Y-85173643D01*
X185644999Y-85117999D01*
X181722942Y-85117999D01*
X181990586Y-84730191D01*
X179790000Y-82529605D01*
X177589414Y-84730191D01*
X177857058Y-85117999D01*
X174536015Y-85117999D01*
X174543882Y-85099054D01*
X174544118Y-84828135D01*
X174440661Y-84577748D01*
X174249259Y-84386013D01*
X173999054Y-84282118D01*
X173728135Y-84281882D01*
X173477748Y-84385339D01*
X173286013Y-84576741D01*
X173182118Y-84826946D01*
X173181882Y-85097865D01*
X173190201Y-85117999D01*
X148212001Y-85117999D01*
X147932259Y-85173643D01*
X147695106Y-85332104D01*
X147016674Y-86010536D01*
X145962000Y-86010536D01*
X145820810Y-86037103D01*
X145691135Y-86120546D01*
X145604141Y-86247866D01*
X145573536Y-86399000D01*
X145573536Y-88099000D01*
X145600103Y-88240190D01*
X145683546Y-88369865D01*
X145810866Y-88456859D01*
X145962000Y-88487464D01*
X146081000Y-88487464D01*
X146081000Y-105926436D01*
X143862166Y-108145270D01*
X143703705Y-108382424D01*
X143648061Y-108662165D01*
X131159071Y-108662165D01*
X139445236Y-100376000D01*
X139580865Y-100376118D01*
X139831252Y-100272661D01*
X140022987Y-100081259D01*
X140126882Y-99831054D01*
X140127118Y-99560135D01*
X140023661Y-99309748D01*
X139832259Y-99118013D01*
X139582054Y-99014118D01*
X139311135Y-99013882D01*
X139263794Y-99033443D01*
X141096237Y-97201000D01*
X141231865Y-97201118D01*
X141482252Y-97097661D01*
X141673987Y-96906259D01*
X141777882Y-96656054D01*
X141778118Y-96385135D01*
X141674661Y-96134748D01*
X141483259Y-95943013D01*
X141233054Y-95839118D01*
X140962135Y-95838882D01*
X140711748Y-95942339D01*
X140520013Y-96133741D01*
X140416118Y-96383946D01*
X140415999Y-96520764D01*
X133697885Y-103238879D01*
X104746614Y-103238879D01*
X104746835Y-102985013D01*
X104643378Y-102734626D01*
X104546717Y-102637797D01*
X104546717Y-102486176D01*
X104653292Y-102592936D01*
X104903497Y-102696831D01*
X105174416Y-102697067D01*
X105424803Y-102593610D01*
X105521632Y-102496949D01*
X117372136Y-102496949D01*
X117556207Y-102460335D01*
X117712254Y-102356067D01*
X117931263Y-102137058D01*
X122104480Y-102137058D01*
X122207937Y-102387445D01*
X122399339Y-102579180D01*
X122649544Y-102683075D01*
X122920463Y-102683311D01*
X123170850Y-102579854D01*
X123362585Y-102388452D01*
X123466480Y-102138247D01*
X123466716Y-101867328D01*
X123363259Y-101616941D01*
X123171857Y-101425206D01*
X122921652Y-101321311D01*
X122650733Y-101321075D01*
X122400346Y-101424532D01*
X122208611Y-101615934D01*
X122104716Y-101866139D01*
X122104480Y-102137058D01*
X117931263Y-102137058D01*
X121215747Y-98852574D01*
X122047456Y-98852574D01*
X122150913Y-99102961D01*
X122342315Y-99294696D01*
X122592520Y-99398591D01*
X122863439Y-99398827D01*
X123113826Y-99295370D01*
X123305561Y-99103968D01*
X123409456Y-98853763D01*
X123409692Y-98582844D01*
X123306235Y-98332457D01*
X123114833Y-98140722D01*
X122864628Y-98036827D01*
X122593709Y-98036591D01*
X122343322Y-98140048D01*
X122151587Y-98331450D01*
X122047692Y-98581655D01*
X122047456Y-98852574D01*
X121215747Y-98852574D01*
X123413456Y-96654865D01*
X138764882Y-96654865D01*
X138868339Y-96905252D01*
X139059741Y-97096987D01*
X139309946Y-97200882D01*
X139580865Y-97201118D01*
X139831252Y-97097661D01*
X140022987Y-96906259D01*
X140126882Y-96656054D01*
X140127118Y-96385135D01*
X140023661Y-96134748D01*
X139832259Y-95943013D01*
X139582054Y-95839118D01*
X139311135Y-95838882D01*
X139060748Y-95942339D01*
X138869013Y-96133741D01*
X138765118Y-96383946D01*
X138764882Y-96654865D01*
X123413456Y-96654865D01*
X133100322Y-86968000D01*
X137185921Y-86968000D01*
X137281741Y-87063987D01*
X137531946Y-87167882D01*
X137802865Y-87168118D01*
X138053252Y-87064661D01*
X138244987Y-86873259D01*
X138348882Y-86623054D01*
X138349118Y-86352135D01*
X138245661Y-86101748D01*
X138054259Y-85910013D01*
X137804054Y-85806118D01*
X137533135Y-85805882D01*
X137282748Y-85909339D01*
X137185919Y-86006000D01*
X136416236Y-86006000D01*
X137667237Y-84755000D01*
X137802865Y-84755118D01*
X138053252Y-84651661D01*
X138244987Y-84460259D01*
X138348882Y-84210054D01*
X138349118Y-83939135D01*
X138245661Y-83688748D01*
X138054259Y-83497013D01*
X137804054Y-83393118D01*
X137533135Y-83392882D01*
X137282748Y-83496339D01*
X137091013Y-83687741D01*
X136987118Y-83937946D01*
X136986999Y-84074764D01*
X135455775Y-85605989D01*
X133330933Y-85605989D01*
X134381922Y-84555000D01*
X134645921Y-84555000D01*
X134741741Y-84650987D01*
X134991946Y-84754882D01*
X135262865Y-84755118D01*
X135513252Y-84651661D01*
X135704987Y-84460259D01*
X135808882Y-84210054D01*
X135809118Y-83939135D01*
X135705661Y-83688748D01*
X135514259Y-83497013D01*
X135264054Y-83393118D01*
X134993135Y-83392882D01*
X134742748Y-83496339D01*
X134645919Y-83593000D01*
X134182685Y-83593000D01*
X133998614Y-83629614D01*
X133842566Y-83733882D01*
X133199639Y-84376810D01*
X133268882Y-84210054D01*
X133269118Y-83939135D01*
X133165661Y-83688748D01*
X132974259Y-83497013D01*
X132724054Y-83393118D01*
X132453135Y-83392882D01*
X132202748Y-83496339D01*
X132011013Y-83687741D01*
X131907118Y-83937946D01*
X131906999Y-84074764D01*
X117829800Y-98151964D01*
X104460437Y-98151964D01*
X104276366Y-98188578D01*
X104120319Y-98292846D01*
X102807059Y-99606106D01*
X102702791Y-99762153D01*
X102666177Y-99946224D01*
X102666177Y-103738870D01*
X102570190Y-103834690D01*
X102466295Y-104084895D01*
X102466059Y-104355814D01*
X102569516Y-104606201D01*
X102760918Y-104797936D01*
X102772957Y-104802935D01*
X102682016Y-104893876D01*
X102621259Y-104833013D01*
X102371054Y-104729118D01*
X102100135Y-104728882D01*
X101849748Y-104832339D01*
X101658013Y-105023741D01*
X101554118Y-105273946D01*
X101553882Y-105544865D01*
X98221000Y-105544865D01*
X98221000Y-92835539D01*
X99663096Y-92835539D01*
X99680633Y-92918319D01*
X99950500Y-93411396D01*
X100388517Y-93763666D01*
X100928000Y-93921500D01*
X102078000Y-93921500D01*
X102078000Y-92613500D01*
X102332000Y-92613500D01*
X102332000Y-93921500D01*
X103482000Y-93921500D01*
X104021483Y-93763666D01*
X104459500Y-93411396D01*
X104729367Y-92918319D01*
X104746904Y-92835539D01*
X104624915Y-92613500D01*
X102332000Y-92613500D01*
X102078000Y-92613500D01*
X99785085Y-92613500D01*
X99663096Y-92835539D01*
X98221000Y-92835539D01*
X98221000Y-92137461D01*
X99663096Y-92137461D01*
X99785085Y-92359500D01*
X102078000Y-92359500D01*
X102078000Y-91051500D01*
X100928000Y-91051500D01*
X100388517Y-91209334D01*
X99950500Y-91561604D01*
X99680633Y-92054681D01*
X99663096Y-92137461D01*
X98221000Y-92137461D01*
X98221000Y-88036500D01*
X99649883Y-88036500D01*
X99720751Y-88392778D01*
X99922567Y-88694816D01*
X100134611Y-88836500D01*
X99922567Y-88978184D01*
X99720751Y-89280222D01*
X99649883Y-89636500D01*
X99720751Y-89992778D01*
X99922567Y-90294816D01*
X100224605Y-90496632D01*
X100580883Y-90567500D01*
X101229117Y-90567500D01*
X101585395Y-90496632D01*
X101887433Y-90294816D01*
X102089249Y-89992778D01*
X102160117Y-89636500D01*
X102089249Y-89280222D01*
X101887433Y-88978184D01*
X101675389Y-88836500D01*
X101887433Y-88694816D01*
X102089249Y-88392778D01*
X102160117Y-88036500D01*
X102089249Y-87680222D01*
X101999728Y-87546244D01*
X102061197Y-87546244D01*
X102061602Y-87572646D01*
X102277276Y-87984618D01*
X102517725Y-88185431D01*
X102320751Y-88480222D01*
X102249883Y-88836500D01*
X102320751Y-89192778D01*
X102522567Y-89494816D01*
X102555427Y-89516772D01*
X102513810Y-89524603D01*
X102384135Y-89608046D01*
X102297141Y-89735366D01*
X102266536Y-89886500D01*
X102266536Y-90986500D01*
X102293103Y-91127690D01*
X102332000Y-91188138D01*
X102332000Y-92359500D01*
X104624915Y-92359500D01*
X104746904Y-92137461D01*
X104729367Y-92054681D01*
X104459500Y-91561604D01*
X104397033Y-91511365D01*
X110507382Y-91511365D01*
X110610839Y-91761752D01*
X110802241Y-91953487D01*
X111052446Y-92057382D01*
X111323365Y-92057618D01*
X111573752Y-91954161D01*
X111765487Y-91762759D01*
X111869382Y-91512554D01*
X111869618Y-91241635D01*
X111766161Y-90991248D01*
X111574759Y-90799513D01*
X111324554Y-90695618D01*
X111053635Y-90695382D01*
X110803248Y-90798839D01*
X110611513Y-90990241D01*
X110507618Y-91240446D01*
X110507382Y-91511365D01*
X104397033Y-91511365D01*
X104227429Y-91374964D01*
X104355000Y-91374964D01*
X104496190Y-91348397D01*
X104625865Y-91264954D01*
X104712859Y-91137634D01*
X104743464Y-90986500D01*
X104743464Y-90558865D01*
X115460382Y-90558865D01*
X115563839Y-90809252D01*
X115755241Y-91000987D01*
X116005446Y-91104882D01*
X116276365Y-91105118D01*
X116526752Y-91001661D01*
X116718487Y-90810259D01*
X116822382Y-90560054D01*
X116822618Y-90289135D01*
X116719161Y-90038748D01*
X116527759Y-89847013D01*
X116277554Y-89743118D01*
X116006635Y-89742882D01*
X115756248Y-89846339D01*
X115564513Y-90037741D01*
X115460618Y-90287946D01*
X115460382Y-90558865D01*
X104743464Y-90558865D01*
X104743464Y-89886500D01*
X104716897Y-89745310D01*
X104633454Y-89615635D01*
X104506134Y-89528641D01*
X104452934Y-89517868D01*
X104487433Y-89494816D01*
X104689249Y-89192778D01*
X104733290Y-88971365D01*
X109173882Y-88971365D01*
X109277339Y-89221752D01*
X109468741Y-89413487D01*
X109718946Y-89517382D01*
X109989865Y-89517618D01*
X110240252Y-89414161D01*
X110431987Y-89222759D01*
X110535882Y-88972554D01*
X110536118Y-88701635D01*
X110432661Y-88451248D01*
X110241259Y-88259513D01*
X109991054Y-88155618D01*
X109720135Y-88155382D01*
X109469748Y-88258839D01*
X109278013Y-88450241D01*
X109174118Y-88700446D01*
X109173882Y-88971365D01*
X104733290Y-88971365D01*
X104760117Y-88836500D01*
X104689249Y-88480222D01*
X104492275Y-88185431D01*
X104732724Y-87984618D01*
X104948398Y-87572646D01*
X104948803Y-87546244D01*
X104823361Y-87363500D01*
X103632000Y-87363500D01*
X103632000Y-87383500D01*
X103378000Y-87383500D01*
X103378000Y-87363500D01*
X102186639Y-87363500D01*
X102061197Y-87546244D01*
X101999728Y-87546244D01*
X101887433Y-87378184D01*
X101585395Y-87176368D01*
X101229117Y-87105500D01*
X100580883Y-87105500D01*
X100224605Y-87176368D01*
X99922567Y-87378184D01*
X99720751Y-87680222D01*
X99649883Y-88036500D01*
X98221000Y-88036500D01*
X98221000Y-86926756D01*
X102061197Y-86926756D01*
X102186639Y-87109500D01*
X103378000Y-87109500D01*
X103378000Y-87089500D01*
X103632000Y-87089500D01*
X103632000Y-87109500D01*
X104823361Y-87109500D01*
X104948803Y-86926756D01*
X104948398Y-86900354D01*
X104732724Y-86488382D01*
X104375813Y-86190304D01*
X104365425Y-86187055D01*
X104459500Y-86111396D01*
X104729367Y-85618319D01*
X104746904Y-85535539D01*
X104624915Y-85313500D01*
X102332000Y-85313500D01*
X102332000Y-86442679D01*
X102277276Y-86488382D01*
X102061602Y-86900354D01*
X102061197Y-86926756D01*
X98221000Y-86926756D01*
X98221000Y-85535539D01*
X99663096Y-85535539D01*
X99680633Y-85618319D01*
X99950500Y-86111396D01*
X100388517Y-86463666D01*
X100928000Y-86621500D01*
X102078000Y-86621500D01*
X102078000Y-85313500D01*
X99785085Y-85313500D01*
X99663096Y-85535539D01*
X98221000Y-85535539D01*
X98221000Y-84837461D01*
X99663096Y-84837461D01*
X99785085Y-85059500D01*
X102078000Y-85059500D01*
X102078000Y-83751500D01*
X102332000Y-83751500D01*
X102332000Y-85059500D01*
X104624915Y-85059500D01*
X104746904Y-84837461D01*
X104729367Y-84754681D01*
X104715964Y-84730191D01*
X107589414Y-84730191D01*
X107895472Y-85173659D01*
X109120252Y-85683725D01*
X110446995Y-85686262D01*
X111673716Y-85180883D01*
X111684528Y-85173659D01*
X111990586Y-84730191D01*
X109790000Y-82529605D01*
X107589414Y-84730191D01*
X104715964Y-84730191D01*
X104459500Y-84261604D01*
X104021483Y-83909334D01*
X103482000Y-83751500D01*
X102332000Y-83751500D01*
X102078000Y-83751500D01*
X100928000Y-83751500D01*
X100388517Y-83909334D01*
X99950500Y-84261604D01*
X99680633Y-84754681D01*
X99663096Y-84837461D01*
X98221000Y-84837461D01*
X98221000Y-83006995D01*
X106453738Y-83006995D01*
X106959117Y-84233716D01*
X106966341Y-84244528D01*
X107409809Y-84550586D01*
X109610395Y-82350000D01*
X109969605Y-82350000D01*
X112170191Y-84550586D01*
X112613659Y-84244528D01*
X113123725Y-83019748D01*
X113125565Y-82057122D01*
X142963825Y-82057122D01*
X143178466Y-82575332D01*
X143640608Y-83070012D01*
X144256877Y-83350183D01*
X144526000Y-83232604D01*
X144526000Y-81788000D01*
X144780000Y-81788000D01*
X144780000Y-83232604D01*
X145049123Y-83350183D01*
X145665392Y-83070012D01*
X146127534Y-82575332D01*
X146342175Y-82057122D01*
X146224125Y-81788000D01*
X144780000Y-81788000D01*
X144526000Y-81788000D01*
X143081875Y-81788000D01*
X142963825Y-82057122D01*
X113125565Y-82057122D01*
X113126262Y-81693005D01*
X112949885Y-81264878D01*
X142963825Y-81264878D01*
X143081875Y-81534000D01*
X144526000Y-81534000D01*
X144526000Y-80089396D01*
X144780000Y-80089396D01*
X144780000Y-81534000D01*
X146224125Y-81534000D01*
X146342175Y-81264878D01*
X146127534Y-80746668D01*
X145954079Y-80561000D01*
X153324536Y-80561000D01*
X153324536Y-82761000D01*
X153351103Y-82902190D01*
X153434546Y-83031865D01*
X153561866Y-83118859D01*
X153713000Y-83149464D01*
X155913000Y-83149464D01*
X156054190Y-83122897D01*
X156183865Y-83039454D01*
X156206043Y-83006995D01*
X176453738Y-83006995D01*
X176959117Y-84233716D01*
X176966341Y-84244528D01*
X177409809Y-84550586D01*
X179610395Y-82350000D01*
X179969605Y-82350000D01*
X182170191Y-84550586D01*
X182613659Y-84244528D01*
X183123725Y-83019748D01*
X183125034Y-82335000D01*
X183292536Y-82335000D01*
X183292536Y-84035000D01*
X183319103Y-84176190D01*
X183402546Y-84305865D01*
X183529866Y-84392859D01*
X183681000Y-84423464D01*
X185381000Y-84423464D01*
X185522190Y-84396897D01*
X185651865Y-84313454D01*
X185738859Y-84186134D01*
X185769464Y-84035000D01*
X185769464Y-83160883D01*
X185840000Y-83160883D01*
X185840000Y-83209117D01*
X185933704Y-83680200D01*
X186200552Y-84079565D01*
X186599917Y-84346413D01*
X187071000Y-84440117D01*
X187542083Y-84346413D01*
X187941448Y-84079565D01*
X188208296Y-83680200D01*
X188216083Y-83641053D01*
X188415817Y-84066358D01*
X188844076Y-84456645D01*
X189254110Y-84626476D01*
X189484000Y-84505155D01*
X189484000Y-83312000D01*
X189738000Y-83312000D01*
X189738000Y-84505155D01*
X189967890Y-84626476D01*
X190377924Y-84456645D01*
X190806183Y-84066358D01*
X191052486Y-83541892D01*
X190931819Y-83312000D01*
X189738000Y-83312000D01*
X189484000Y-83312000D01*
X189464000Y-83312000D01*
X189464000Y-83058000D01*
X189484000Y-83058000D01*
X189484000Y-81864845D01*
X189738000Y-81864845D01*
X189738000Y-83058000D01*
X190931819Y-83058000D01*
X191052486Y-82828108D01*
X190806183Y-82303642D01*
X190377924Y-81913355D01*
X189967890Y-81743524D01*
X189738000Y-81864845D01*
X189484000Y-81864845D01*
X189254110Y-81743524D01*
X188844076Y-81913355D01*
X188415817Y-82303642D01*
X188216083Y-82728947D01*
X188208296Y-82689800D01*
X187941448Y-82290435D01*
X187542083Y-82023587D01*
X187071000Y-81929883D01*
X186599917Y-82023587D01*
X186200552Y-82290435D01*
X185933704Y-82689800D01*
X185840000Y-83160883D01*
X185769464Y-83160883D01*
X185769464Y-82335000D01*
X185742897Y-82193810D01*
X185659454Y-82064135D01*
X185532134Y-81977141D01*
X185381000Y-81946536D01*
X183681000Y-81946536D01*
X183539810Y-81973103D01*
X183410135Y-82056546D01*
X183323141Y-82183866D01*
X183292536Y-82335000D01*
X183125034Y-82335000D01*
X183126262Y-81693005D01*
X182620883Y-80466284D01*
X182613659Y-80455472D01*
X182170191Y-80149414D01*
X179969605Y-82350000D01*
X179610395Y-82350000D01*
X177409809Y-80149414D01*
X176966341Y-80455472D01*
X176456275Y-81680252D01*
X176453738Y-83006995D01*
X156206043Y-83006995D01*
X156270859Y-82912134D01*
X156301464Y-82761000D01*
X156301464Y-82049865D01*
X166958882Y-82049865D01*
X167062339Y-82300252D01*
X167253741Y-82491987D01*
X167503946Y-82595882D01*
X167774865Y-82596118D01*
X168025252Y-82492661D01*
X168216987Y-82301259D01*
X168320882Y-82051054D01*
X168321118Y-81780135D01*
X168217661Y-81529748D01*
X168026259Y-81338013D01*
X167776054Y-81234118D01*
X167505135Y-81233882D01*
X167254748Y-81337339D01*
X167063013Y-81528741D01*
X166959118Y-81778946D01*
X166958882Y-82049865D01*
X156301464Y-82049865D01*
X156301464Y-80561000D01*
X156274897Y-80419810D01*
X156191454Y-80290135D01*
X156064134Y-80203141D01*
X155913000Y-80172536D01*
X153713000Y-80172536D01*
X153571810Y-80199103D01*
X153442135Y-80282546D01*
X153355141Y-80409866D01*
X153324536Y-80561000D01*
X145954079Y-80561000D01*
X145665392Y-80251988D01*
X145049123Y-79971817D01*
X144780000Y-80089396D01*
X144526000Y-80089396D01*
X144256877Y-79971817D01*
X143640608Y-80251988D01*
X143178466Y-80746668D01*
X142963825Y-81264878D01*
X112949885Y-81264878D01*
X112620883Y-80466284D01*
X112613659Y-80455472D01*
X112170191Y-80149414D01*
X109969605Y-82350000D01*
X109610395Y-82350000D01*
X107409809Y-80149414D01*
X106966341Y-80455472D01*
X106456275Y-81680252D01*
X106453738Y-83006995D01*
X98221000Y-83006995D01*
X98221000Y-79781000D01*
X107719720Y-79781000D01*
X107589414Y-79969809D01*
X107589414Y-79969809D01*
G37*
X107589414Y-79969809D02*
X109790000Y-82170395D01*
X111990586Y-79969809D01*
X111860280Y-79781000D01*
X177719720Y-79781000D01*
X177589414Y-79969809D01*
X179790000Y-82170395D01*
X181990586Y-79969809D01*
X181860280Y-79781000D01*
X191359000Y-79781000D01*
X191359000Y-106723000D01*
X170290000Y-106723000D01*
X170240590Y-106733006D01*
X170200197Y-106760197D01*
X164511064Y-112449330D01*
X164511118Y-112387135D01*
X164407661Y-112136748D01*
X164216259Y-111945013D01*
X163966054Y-111841118D01*
X163695135Y-111840882D01*
X163444748Y-111944339D01*
X163253013Y-112135741D01*
X163149118Y-112385946D01*
X163148882Y-112656865D01*
X163252339Y-112907252D01*
X163443741Y-113098987D01*
X163693946Y-113202882D01*
X163757457Y-113202937D01*
X160700197Y-116260197D01*
X160672334Y-116302211D01*
X160663000Y-116350000D01*
X160663000Y-129350000D01*
X160673006Y-129399410D01*
X160701447Y-129441035D01*
X160743841Y-129468315D01*
X160790000Y-129477000D01*
X176540920Y-129477000D01*
X176456275Y-129680252D01*
X176453738Y-131006995D01*
X176959117Y-132233716D01*
X176966341Y-132244528D01*
X177409809Y-132550586D01*
X179610395Y-130350000D01*
X179596253Y-130335858D01*
X179775858Y-130156253D01*
X179790000Y-130170395D01*
X179804143Y-130156253D01*
X179983748Y-130335858D01*
X179969605Y-130350000D01*
X182170191Y-132550586D01*
X182613659Y-132244528D01*
X183123725Y-131019748D01*
X183126262Y-129693005D01*
X183037273Y-129477000D01*
X191359000Y-129477000D01*
X191359000Y-132919000D01*
X181860280Y-132919000D01*
X181990586Y-132730191D01*
X179790000Y-130529605D01*
X177589414Y-132730191D01*
X177719720Y-132919000D01*
X111860280Y-132919000D01*
X111990586Y-132730191D01*
X109790000Y-130529605D01*
X107589414Y-132730191D01*
X107719720Y-132919000D01*
X98221000Y-132919000D01*
X98221000Y-131006995D01*
X106453738Y-131006995D01*
X106959117Y-132233716D01*
X106966341Y-132244528D01*
X107409809Y-132550586D01*
X109610395Y-130350000D01*
X109969605Y-130350000D01*
X112170191Y-132550586D01*
X112613659Y-132244528D01*
X113123725Y-131019748D01*
X113126262Y-129693005D01*
X112620883Y-128466284D01*
X112613659Y-128455472D01*
X112170191Y-128149414D01*
X109969605Y-130350000D01*
X109610395Y-130350000D01*
X107409809Y-128149414D01*
X106966341Y-128455472D01*
X106456275Y-129680252D01*
X106453738Y-131006995D01*
X98221000Y-131006995D01*
X98221000Y-129811200D01*
X103424405Y-129811200D01*
X103459692Y-130024768D01*
X103882564Y-130165149D01*
X104326968Y-130133018D01*
X104588308Y-130024768D01*
X104623595Y-129811200D01*
X104024000Y-129211605D01*
X103424405Y-129811200D01*
X98221000Y-129811200D01*
X98221000Y-128890564D01*
X102890851Y-128890564D01*
X102922982Y-129334968D01*
X103031232Y-129596308D01*
X103244800Y-129631595D01*
X103844395Y-129032000D01*
X104203605Y-129032000D01*
X104803200Y-129631595D01*
X105016768Y-129596308D01*
X105157149Y-129173436D01*
X105125018Y-128729032D01*
X105016768Y-128467692D01*
X104803200Y-128432405D01*
X104203605Y-129032000D01*
X103844395Y-129032000D01*
X103244800Y-128432405D01*
X103031232Y-128467692D01*
X102890851Y-128890564D01*
X98221000Y-128890564D01*
X98221000Y-128252800D01*
X103424405Y-128252800D01*
X104024000Y-128852395D01*
X104623595Y-128252800D01*
X104588308Y-128039232D01*
X104379184Y-127969809D01*
X107589414Y-127969809D01*
X109790000Y-130170395D01*
X111990586Y-127969809D01*
X111684528Y-127526341D01*
X110459748Y-127016275D01*
X109133005Y-127013738D01*
X107906284Y-127519117D01*
X107895472Y-127526341D01*
X107589414Y-127969809D01*
X104379184Y-127969809D01*
X104165436Y-127898851D01*
X103721032Y-127930982D01*
X103459692Y-128039232D01*
X103424405Y-128252800D01*
X98221000Y-128252800D01*
X98221000Y-124819000D01*
X135961536Y-124819000D01*
X135961536Y-128419000D01*
X135988103Y-128560190D01*
X136071546Y-128689865D01*
X136198866Y-128776859D01*
X136350000Y-128807464D01*
X138430000Y-128807464D01*
X138571190Y-128780897D01*
X138700865Y-128697454D01*
X138787859Y-128570134D01*
X138818464Y-128419000D01*
X138818464Y-125816272D01*
X141049000Y-125816272D01*
X141049000Y-127421728D01*
X141157167Y-127965521D01*
X141465201Y-128426527D01*
X141926207Y-128734561D01*
X142470000Y-128842728D01*
X143013793Y-128734561D01*
X143474799Y-128426527D01*
X143782833Y-127965521D01*
X143891000Y-127421728D01*
X143891000Y-125816272D01*
X146129000Y-125816272D01*
X146129000Y-127421728D01*
X146237167Y-127965521D01*
X146545201Y-128426527D01*
X147006207Y-128734561D01*
X147550000Y-128842728D01*
X148093793Y-128734561D01*
X148554799Y-128426527D01*
X148862833Y-127965521D01*
X148971000Y-127421728D01*
X148971000Y-126746000D01*
X150955000Y-126746000D01*
X150955000Y-127506000D01*
X151131103Y-128137327D01*
X151535399Y-128653206D01*
X152106338Y-128975099D01*
X152243290Y-129008748D01*
X152503000Y-128889922D01*
X152503000Y-126746000D01*
X152757000Y-126746000D01*
X152757000Y-128889922D01*
X153016710Y-129008748D01*
X153153662Y-128975099D01*
X153724601Y-128653206D01*
X154128897Y-128137327D01*
X154305000Y-127506000D01*
X154305000Y-126746000D01*
X152757000Y-126746000D01*
X152503000Y-126746000D01*
X150955000Y-126746000D01*
X148971000Y-126746000D01*
X148971000Y-125816272D01*
X148954238Y-125732000D01*
X150955000Y-125732000D01*
X150955000Y-126492000D01*
X152503000Y-126492000D01*
X152503000Y-124348078D01*
X152757000Y-124348078D01*
X152757000Y-126492000D01*
X154305000Y-126492000D01*
X154305000Y-125816272D01*
X156289000Y-125816272D01*
X156289000Y-127421728D01*
X156397167Y-127965521D01*
X156705201Y-128426527D01*
X157166207Y-128734561D01*
X157710000Y-128842728D01*
X158253793Y-128734561D01*
X158714799Y-128426527D01*
X159022833Y-127965521D01*
X159131000Y-127421728D01*
X159131000Y-125816272D01*
X159022833Y-125272479D01*
X158714799Y-124811473D01*
X158253793Y-124503439D01*
X157710000Y-124395272D01*
X157166207Y-124503439D01*
X156705201Y-124811473D01*
X156397167Y-125272479D01*
X156289000Y-125816272D01*
X154305000Y-125816272D01*
X154305000Y-125732000D01*
X154128897Y-125100673D01*
X153724601Y-124584794D01*
X153153662Y-124262901D01*
X153016710Y-124229252D01*
X152757000Y-124348078D01*
X152503000Y-124348078D01*
X152243290Y-124229252D01*
X152106338Y-124262901D01*
X151535399Y-124584794D01*
X151131103Y-125100673D01*
X150955000Y-125732000D01*
X148954238Y-125732000D01*
X148862833Y-125272479D01*
X148554799Y-124811473D01*
X148093793Y-124503439D01*
X147550000Y-124395272D01*
X147006207Y-124503439D01*
X146545201Y-124811473D01*
X146237167Y-125272479D01*
X146129000Y-125816272D01*
X143891000Y-125816272D01*
X143782833Y-125272479D01*
X143474799Y-124811473D01*
X143013793Y-124503439D01*
X142470000Y-124395272D01*
X141926207Y-124503439D01*
X141465201Y-124811473D01*
X141157167Y-125272479D01*
X141049000Y-125816272D01*
X138818464Y-125816272D01*
X138818464Y-124819000D01*
X138791897Y-124677810D01*
X138708454Y-124548135D01*
X138581134Y-124461141D01*
X138430000Y-124430536D01*
X136350000Y-124430536D01*
X136208810Y-124457103D01*
X136079135Y-124540546D01*
X135992141Y-124667866D01*
X135961536Y-124819000D01*
X98221000Y-124819000D01*
X98221000Y-121051200D01*
X103424405Y-121051200D01*
X103459692Y-121264768D01*
X103882564Y-121405149D01*
X104326968Y-121373018D01*
X104588308Y-121264768D01*
X104623595Y-121051200D01*
X104024000Y-120451605D01*
X103424405Y-121051200D01*
X98221000Y-121051200D01*
X98221000Y-120130564D01*
X102890851Y-120130564D01*
X102922982Y-120574968D01*
X103031232Y-120836308D01*
X103244800Y-120871595D01*
X103844395Y-120272000D01*
X104203605Y-120272000D01*
X104803200Y-120871595D01*
X105016768Y-120836308D01*
X105157149Y-120413436D01*
X105125018Y-119969032D01*
X105016768Y-119707692D01*
X104803200Y-119672405D01*
X104203605Y-120272000D01*
X103844395Y-120272000D01*
X103244800Y-119672405D01*
X103031232Y-119707692D01*
X102890851Y-120130564D01*
X98221000Y-120130564D01*
X98221000Y-119492800D01*
X103424405Y-119492800D01*
X104024000Y-120092395D01*
X104623595Y-119492800D01*
X104588308Y-119279232D01*
X104165436Y-119138851D01*
X103721032Y-119170982D01*
X103459692Y-119279232D01*
X103424405Y-119492800D01*
X98221000Y-119492800D01*
X98221000Y-114808000D01*
X102743000Y-114808000D01*
X102743000Y-117856000D01*
X102769056Y-117994477D01*
X102850896Y-118121660D01*
X102975770Y-118206983D01*
X103124000Y-118237000D01*
X105664000Y-118237000D01*
X105802477Y-118210944D01*
X105929660Y-118129104D01*
X106014983Y-118004230D01*
X106045000Y-117856000D01*
X106045000Y-114808000D01*
X106018944Y-114669523D01*
X105937104Y-114542340D01*
X105812230Y-114457017D01*
X105664000Y-114427000D01*
X103124000Y-114427000D01*
X102985523Y-114453056D01*
X102858340Y-114534896D01*
X102773017Y-114659770D01*
X102743000Y-114808000D01*
X98221000Y-114808000D01*
X98221000Y-109037365D01*
X127334882Y-109037365D01*
X127438339Y-109287752D01*
X127629741Y-109479487D01*
X127879946Y-109583382D01*
X128150865Y-109583618D01*
X128401252Y-109480161D01*
X128592987Y-109288759D01*
X128696882Y-109038554D01*
X128697118Y-108767635D01*
X128593661Y-108517248D01*
X128402259Y-108325513D01*
X128152054Y-108221618D01*
X127881135Y-108221382D01*
X127630748Y-108324839D01*
X127439013Y-108516241D01*
X127335118Y-108766446D01*
X127334882Y-109037365D01*
X98221000Y-109037365D01*
X98221000Y-105544865D01*
X101553882Y-105544865D01*
X101657339Y-105795252D01*
X101848741Y-105986987D01*
X102098946Y-106090882D01*
X102369865Y-106091118D01*
X102620252Y-105987661D01*
X102717081Y-105891000D01*
X102846128Y-105891000D01*
X103030199Y-105854386D01*
X103186246Y-105750118D01*
X104735485Y-104200879D01*
X122165981Y-104200879D01*
X122105013Y-104261741D01*
X122001118Y-104511946D01*
X122000882Y-104782865D01*
X122104339Y-105033252D01*
X122163420Y-105092436D01*
X122105013Y-105150741D01*
X122001118Y-105400946D01*
X122000882Y-105671865D01*
X122104339Y-105922252D01*
X122163420Y-105981436D01*
X122105013Y-106039741D01*
X122001118Y-106289946D01*
X122000882Y-106560865D01*
X122104339Y-106811252D01*
X122226920Y-106934046D01*
X122105013Y-107055741D01*
X122001118Y-107305946D01*
X122000882Y-107576865D01*
X122104339Y-107827252D01*
X122295741Y-108018987D01*
X122545946Y-108122882D01*
X122816865Y-108123118D01*
X123067252Y-108019661D01*
X123258987Y-107828259D01*
X123362882Y-107578054D01*
X123363118Y-107307135D01*
X123259661Y-107056748D01*
X123137080Y-106933954D01*
X123258987Y-106812259D01*
X123362882Y-106562054D01*
X123363118Y-106291135D01*
X123259661Y-106040748D01*
X123200580Y-105981564D01*
X123258987Y-105923259D01*
X123362882Y-105673054D01*
X123363118Y-105402135D01*
X123259661Y-105151748D01*
X123200580Y-105092564D01*
X123258987Y-105034259D01*
X123362882Y-104784054D01*
X123363118Y-104513135D01*
X123259661Y-104262748D01*
X123197899Y-104200879D01*
X133897121Y-104200879D01*
X134081192Y-104164265D01*
X134237239Y-104059997D01*
X138784168Y-99513068D01*
X138765118Y-99558946D01*
X138764999Y-99695765D01*
X124895764Y-113565000D01*
X123164079Y-113565000D01*
X123068259Y-113469013D01*
X122818054Y-113365118D01*
X122547135Y-113364882D01*
X122296748Y-113468339D01*
X122105013Y-113659741D01*
X122001118Y-113909946D01*
X122000882Y-114180865D01*
X122104339Y-114431252D01*
X122295741Y-114622987D01*
X122545946Y-114726882D01*
X122816865Y-114727118D01*
X123067252Y-114623661D01*
X123164081Y-114527000D01*
X125095000Y-114527000D01*
X125279071Y-114490386D01*
X125435118Y-114386118D01*
X128672133Y-111149103D01*
X152684361Y-111149103D01*
X152740005Y-111428845D01*
X152898466Y-111665998D01*
X153135619Y-111824459D01*
X153415361Y-111880103D01*
X156693897Y-111880103D01*
X156973639Y-111824459D01*
X157210792Y-111665998D01*
X167389965Y-101486825D01*
X169659458Y-101486825D01*
X169762915Y-101737212D01*
X169954317Y-101928947D01*
X170204522Y-102032842D01*
X170475441Y-102033078D01*
X170725828Y-101929621D01*
X170917563Y-101738219D01*
X171021458Y-101488014D01*
X171021694Y-101217095D01*
X170918237Y-100966708D01*
X170726835Y-100774973D01*
X170476630Y-100671078D01*
X170205711Y-100670842D01*
X169955324Y-100774299D01*
X169763589Y-100965701D01*
X169659694Y-101215906D01*
X169659458Y-101486825D01*
X167389965Y-101486825D01*
X168538925Y-100337865D01*
X189056882Y-100337865D01*
X189160339Y-100588252D01*
X189351741Y-100779987D01*
X189601946Y-100883882D01*
X189872865Y-100884118D01*
X190123252Y-100780661D01*
X190314987Y-100589259D01*
X190418882Y-100339054D01*
X190419118Y-100068135D01*
X190315661Y-99817748D01*
X190124259Y-99626013D01*
X189874054Y-99522118D01*
X189603135Y-99521882D01*
X189352748Y-99625339D01*
X189161013Y-99816741D01*
X189057118Y-100066946D01*
X189056882Y-100337865D01*
X168538925Y-100337865D01*
X170729900Y-98146890D01*
X187534524Y-98146890D01*
X187704355Y-98556924D01*
X188094642Y-98985183D01*
X188619108Y-99231486D01*
X188849000Y-99110819D01*
X188849000Y-97917000D01*
X189103000Y-97917000D01*
X189103000Y-99110819D01*
X189332892Y-99231486D01*
X189857358Y-98985183D01*
X190247645Y-98556924D01*
X190417476Y-98146890D01*
X190296155Y-97917000D01*
X189103000Y-97917000D01*
X188849000Y-97917000D01*
X187655845Y-97917000D01*
X187534524Y-98146890D01*
X170729900Y-98146890D01*
X171443680Y-97433110D01*
X187534524Y-97433110D01*
X187655845Y-97663000D01*
X188849000Y-97663000D01*
X188849000Y-97643000D01*
X189103000Y-97643000D01*
X189103000Y-97663000D01*
X190296155Y-97663000D01*
X190417476Y-97433110D01*
X190247645Y-97023076D01*
X189857358Y-96594817D01*
X189432053Y-96395083D01*
X189471200Y-96387296D01*
X189870565Y-96120448D01*
X190137413Y-95721083D01*
X190231117Y-95250000D01*
X190137413Y-94778917D01*
X189870565Y-94379552D01*
X189471200Y-94112704D01*
X189000117Y-94019000D01*
X188951883Y-94019000D01*
X188480800Y-94112704D01*
X188081435Y-94379552D01*
X187814587Y-94778917D01*
X187720883Y-95250000D01*
X187814587Y-95721083D01*
X188081435Y-96120448D01*
X188480800Y-96387296D01*
X188519947Y-96395083D01*
X188094642Y-96594817D01*
X187704355Y-97023076D01*
X187534524Y-97433110D01*
X171443680Y-97433110D01*
X176166790Y-92710000D01*
X187720883Y-92710000D01*
X187814587Y-93181083D01*
X188081435Y-93580448D01*
X188480800Y-93847296D01*
X188951883Y-93941000D01*
X189000117Y-93941000D01*
X189471200Y-93847296D01*
X189870565Y-93580448D01*
X190137413Y-93181083D01*
X190231117Y-92710000D01*
X190137413Y-92238917D01*
X189870565Y-91839552D01*
X189471200Y-91572704D01*
X189000117Y-91479000D01*
X188951883Y-91479000D01*
X188480800Y-91572704D01*
X188081435Y-91839552D01*
X187814587Y-92238917D01*
X187720883Y-92710000D01*
X176166790Y-92710000D01*
X177936925Y-90939865D01*
X182897382Y-90939865D01*
X183000839Y-91190252D01*
X183192241Y-91381987D01*
X183442446Y-91485882D01*
X183713365Y-91486118D01*
X183963752Y-91382661D01*
X184155487Y-91191259D01*
X184259382Y-90941054D01*
X184259618Y-90670135D01*
X184156161Y-90419748D01*
X183964759Y-90228013D01*
X183825050Y-90170000D01*
X187720883Y-90170000D01*
X187814587Y-90641083D01*
X188081435Y-91040448D01*
X188480800Y-91307296D01*
X188951883Y-91401000D01*
X189000117Y-91401000D01*
X189471200Y-91307296D01*
X189870565Y-91040448D01*
X190137413Y-90641083D01*
X190231117Y-90170000D01*
X190137413Y-89698917D01*
X189870565Y-89299552D01*
X189471200Y-89032704D01*
X189000117Y-88939000D01*
X188951883Y-88939000D01*
X188480800Y-89032704D01*
X188081435Y-89299552D01*
X187814587Y-89698917D01*
X187720883Y-90170000D01*
X183825050Y-90170000D01*
X183714554Y-90124118D01*
X183443635Y-90123882D01*
X183193248Y-90227339D01*
X183001513Y-90418741D01*
X182897618Y-90668946D01*
X182897382Y-90939865D01*
X177936925Y-90939865D01*
X179713895Y-89162895D01*
X179872356Y-88925742D01*
X179928000Y-88646000D01*
X179872356Y-88366259D01*
X179713895Y-88129105D01*
X179476741Y-87970644D01*
X179197000Y-87915000D01*
X178917258Y-87970644D01*
X178680105Y-88129105D01*
X174505342Y-92303868D01*
X174543882Y-92211054D01*
X174544118Y-91940135D01*
X174440661Y-91689748D01*
X174249259Y-91498013D01*
X173999054Y-91394118D01*
X173728135Y-91393882D01*
X173477748Y-91497339D01*
X173286013Y-91688741D01*
X173182118Y-91938946D01*
X173181882Y-92209865D01*
X173285339Y-92460252D01*
X173476741Y-92651987D01*
X173726946Y-92755882D01*
X173997865Y-92756118D01*
X174091979Y-92717231D01*
X156391107Y-110418103D01*
X153415361Y-110418103D01*
X153135619Y-110473747D01*
X152898466Y-110632208D01*
X152740005Y-110869361D01*
X152684361Y-111149103D01*
X128672133Y-111149103D01*
X131159071Y-108662165D01*
X143648061Y-108662165D01*
X143703705Y-108941906D01*
X143862166Y-109179060D01*
X144099320Y-109337521D01*
X144379061Y-109393165D01*
X144658802Y-109337521D01*
X144895956Y-109179060D01*
X147328895Y-106746121D01*
X147487357Y-106508967D01*
X147543000Y-106229226D01*
X147543000Y-106045000D01*
X153797000Y-106045000D01*
X153797000Y-107315000D01*
X153823056Y-107453477D01*
X153904896Y-107580660D01*
X154029770Y-107665983D01*
X154178000Y-107696000D01*
X158877000Y-107696000D01*
X159015477Y-107669944D01*
X159142660Y-107588104D01*
X159227983Y-107463230D01*
X159258000Y-107315000D01*
X159258000Y-106045000D01*
X159231944Y-105906523D01*
X159150104Y-105779340D01*
X159025230Y-105694017D01*
X158877000Y-105664000D01*
X154178000Y-105664000D01*
X154039523Y-105690056D01*
X153912340Y-105771896D01*
X153827017Y-105896770D01*
X153797000Y-106045000D01*
X147543000Y-106045000D01*
X147543000Y-88487464D01*
X147662000Y-88487464D01*
X147803190Y-88460897D01*
X147932865Y-88377454D01*
X148019859Y-88250134D01*
X148050464Y-88099000D01*
X148050464Y-87044326D01*
X148183347Y-86911443D01*
X148121000Y-87224883D01*
X148121000Y-87273117D01*
X148214704Y-87744200D01*
X148481552Y-88143565D01*
X148880917Y-88410413D01*
X149352000Y-88504117D01*
X149823083Y-88410413D01*
X149939141Y-88332865D01*
X154258882Y-88332865D01*
X154362339Y-88583252D01*
X154553741Y-88774987D01*
X154803946Y-88878882D01*
X155074865Y-88879118D01*
X155325252Y-88775661D01*
X155516987Y-88584259D01*
X155620882Y-88334054D01*
X155621118Y-88063135D01*
X155517661Y-87812748D01*
X155326259Y-87621013D01*
X155076054Y-87517118D01*
X154805135Y-87516882D01*
X154554748Y-87620339D01*
X154363013Y-87811741D01*
X154259118Y-88061946D01*
X154258882Y-88332865D01*
X149939141Y-88332865D01*
X150222448Y-88143565D01*
X150489296Y-87744200D01*
X150583000Y-87273117D01*
X150583000Y-87224883D01*
X150489296Y-86753800D01*
X150373166Y-86579999D01*
X159924000Y-86579999D01*
X159924000Y-89558049D01*
X159770404Y-89404186D01*
X159520199Y-89300291D01*
X159249280Y-89300055D01*
X158998893Y-89403512D01*
X158807158Y-89594914D01*
X158703263Y-89845119D01*
X158703027Y-90116038D01*
X158806484Y-90366425D01*
X158997886Y-90558160D01*
X159248091Y-90662055D01*
X159519010Y-90662291D01*
X159769397Y-90558834D01*
X159924000Y-90404500D01*
X159924000Y-96012000D01*
X159979644Y-96291742D01*
X160138105Y-96528895D01*
X160375258Y-96687356D01*
X160655000Y-96743000D01*
X169545000Y-96743000D01*
X169824742Y-96687356D01*
X170061895Y-96528895D01*
X170220356Y-96291742D01*
X170276000Y-96012000D01*
X170220356Y-95732258D01*
X170061895Y-95495105D01*
X169824742Y-95336644D01*
X169545000Y-95281000D01*
X163941176Y-95281000D01*
X164003061Y-95131966D01*
X164003297Y-94861047D01*
X163899840Y-94610660D01*
X163708438Y-94418925D01*
X163458233Y-94315030D01*
X163187314Y-94314794D01*
X162936927Y-94418251D01*
X162745192Y-94609653D01*
X162641297Y-94859858D01*
X162641061Y-95130777D01*
X162703131Y-95281000D01*
X161386000Y-95281000D01*
X161386000Y-95037604D01*
X161413908Y-95065561D01*
X161664113Y-95169456D01*
X161935032Y-95169692D01*
X162185419Y-95066235D01*
X162377154Y-94874833D01*
X162481049Y-94624628D01*
X162481285Y-94353709D01*
X162377828Y-94103322D01*
X162186426Y-93911587D01*
X161936221Y-93807692D01*
X161665302Y-93807456D01*
X161414915Y-93910913D01*
X161386000Y-93939778D01*
X161386000Y-93606865D01*
X167720882Y-93606865D01*
X167824339Y-93857252D01*
X168015741Y-94048987D01*
X168265946Y-94152882D01*
X168536865Y-94153118D01*
X168787252Y-94049661D01*
X168978987Y-93858259D01*
X169082882Y-93608054D01*
X169083118Y-93337135D01*
X168979661Y-93086748D01*
X168788259Y-92895013D01*
X168538054Y-92791118D01*
X168267135Y-92790882D01*
X168016748Y-92894339D01*
X167825013Y-93085741D01*
X167721118Y-93335946D01*
X167720882Y-93606865D01*
X161386000Y-93606865D01*
X161386000Y-90431865D01*
X173181882Y-90431865D01*
X173285339Y-90682252D01*
X173476741Y-90873987D01*
X173726946Y-90977882D01*
X173997865Y-90978118D01*
X174248252Y-90874661D01*
X174439987Y-90683259D01*
X174543882Y-90433054D01*
X174544118Y-90162135D01*
X174440661Y-89911748D01*
X174249259Y-89720013D01*
X173999054Y-89616118D01*
X173728135Y-89615882D01*
X173477748Y-89719339D01*
X173286013Y-89910741D01*
X173182118Y-90160946D01*
X173181882Y-90431865D01*
X161386000Y-90431865D01*
X161386000Y-89379865D01*
X164636882Y-89379865D01*
X164740339Y-89630252D01*
X164931741Y-89821987D01*
X165181946Y-89925882D01*
X165452865Y-89926118D01*
X165703252Y-89822661D01*
X165894987Y-89631259D01*
X165998882Y-89381054D01*
X165999118Y-89110135D01*
X165895661Y-88859748D01*
X165704259Y-88668013D01*
X165670188Y-88653865D01*
X173181882Y-88653865D01*
X173285339Y-88904252D01*
X173476741Y-89095987D01*
X173726946Y-89199882D01*
X173997865Y-89200118D01*
X174248252Y-89096661D01*
X174439987Y-88905259D01*
X174543882Y-88655054D01*
X174544118Y-88384135D01*
X174440661Y-88133748D01*
X174249259Y-87942013D01*
X173999054Y-87838118D01*
X173728135Y-87837882D01*
X173477748Y-87941339D01*
X173286013Y-88132741D01*
X173182118Y-88382946D01*
X173181882Y-88653865D01*
X165670188Y-88653865D01*
X165454054Y-88564118D01*
X165183135Y-88563882D01*
X164932748Y-88667339D01*
X164741013Y-88858741D01*
X164637118Y-89108946D01*
X164636882Y-89379865D01*
X161386000Y-89379865D01*
X161386000Y-86579999D01*
X173192477Y-86579999D01*
X173182118Y-86604946D01*
X173181882Y-86875865D01*
X173285339Y-87126252D01*
X173476741Y-87317987D01*
X173726946Y-87421882D01*
X173997865Y-87422118D01*
X174248252Y-87318661D01*
X174439987Y-87127259D01*
X174543882Y-86877054D01*
X174544118Y-86606135D01*
X174533319Y-86579999D01*
X185342209Y-86579999D01*
X186909105Y-88146895D01*
X187146258Y-88305356D01*
X187426000Y-88361000D01*
X187737536Y-88361000D01*
X187737536Y-88480000D01*
X187764103Y-88621190D01*
X187847546Y-88750865D01*
X187974866Y-88837859D01*
X188126000Y-88868464D01*
X189826000Y-88868464D01*
X189967190Y-88841897D01*
X190096865Y-88758454D01*
X190183859Y-88631134D01*
X190214464Y-88480000D01*
X190214464Y-86780000D01*
X190187897Y-86638810D01*
X190104454Y-86509135D01*
X189977134Y-86422141D01*
X189826000Y-86391536D01*
X188126000Y-86391536D01*
X187984810Y-86418103D01*
X187855135Y-86501546D01*
X187768141Y-86628866D01*
X187737536Y-86780000D01*
X187737536Y-86899000D01*
X187728790Y-86899000D01*
X186161894Y-85332104D01*
X186134051Y-85313500D01*
X185924741Y-85173643D01*
X185644999Y-85117999D01*
X181722942Y-85117999D01*
X181990586Y-84730191D01*
X179790000Y-82529605D01*
X177589414Y-84730191D01*
X177857058Y-85117999D01*
X174536015Y-85117999D01*
X174543882Y-85099054D01*
X174544118Y-84828135D01*
X174440661Y-84577748D01*
X174249259Y-84386013D01*
X173999054Y-84282118D01*
X173728135Y-84281882D01*
X173477748Y-84385339D01*
X173286013Y-84576741D01*
X173182118Y-84826946D01*
X173181882Y-85097865D01*
X173190201Y-85117999D01*
X148212001Y-85117999D01*
X147932259Y-85173643D01*
X147695106Y-85332104D01*
X147016674Y-86010536D01*
X145962000Y-86010536D01*
X145820810Y-86037103D01*
X145691135Y-86120546D01*
X145604141Y-86247866D01*
X145573536Y-86399000D01*
X145573536Y-88099000D01*
X145600103Y-88240190D01*
X145683546Y-88369865D01*
X145810866Y-88456859D01*
X145962000Y-88487464D01*
X146081000Y-88487464D01*
X146081000Y-105926436D01*
X143862166Y-108145270D01*
X143703705Y-108382424D01*
X143648061Y-108662165D01*
X131159071Y-108662165D01*
X139445236Y-100376000D01*
X139580865Y-100376118D01*
X139831252Y-100272661D01*
X140022987Y-100081259D01*
X140126882Y-99831054D01*
X140127118Y-99560135D01*
X140023661Y-99309748D01*
X139832259Y-99118013D01*
X139582054Y-99014118D01*
X139311135Y-99013882D01*
X139263794Y-99033443D01*
X141096237Y-97201000D01*
X141231865Y-97201118D01*
X141482252Y-97097661D01*
X141673987Y-96906259D01*
X141777882Y-96656054D01*
X141778118Y-96385135D01*
X141674661Y-96134748D01*
X141483259Y-95943013D01*
X141233054Y-95839118D01*
X140962135Y-95838882D01*
X140711748Y-95942339D01*
X140520013Y-96133741D01*
X140416118Y-96383946D01*
X140415999Y-96520764D01*
X133697885Y-103238879D01*
X104746614Y-103238879D01*
X104746835Y-102985013D01*
X104643378Y-102734626D01*
X104546717Y-102637797D01*
X104546717Y-102486176D01*
X104653292Y-102592936D01*
X104903497Y-102696831D01*
X105174416Y-102697067D01*
X105424803Y-102593610D01*
X105521632Y-102496949D01*
X117372136Y-102496949D01*
X117556207Y-102460335D01*
X117712254Y-102356067D01*
X117931263Y-102137058D01*
X122104480Y-102137058D01*
X122207937Y-102387445D01*
X122399339Y-102579180D01*
X122649544Y-102683075D01*
X122920463Y-102683311D01*
X123170850Y-102579854D01*
X123362585Y-102388452D01*
X123466480Y-102138247D01*
X123466716Y-101867328D01*
X123363259Y-101616941D01*
X123171857Y-101425206D01*
X122921652Y-101321311D01*
X122650733Y-101321075D01*
X122400346Y-101424532D01*
X122208611Y-101615934D01*
X122104716Y-101866139D01*
X122104480Y-102137058D01*
X117931263Y-102137058D01*
X121215747Y-98852574D01*
X122047456Y-98852574D01*
X122150913Y-99102961D01*
X122342315Y-99294696D01*
X122592520Y-99398591D01*
X122863439Y-99398827D01*
X123113826Y-99295370D01*
X123305561Y-99103968D01*
X123409456Y-98853763D01*
X123409692Y-98582844D01*
X123306235Y-98332457D01*
X123114833Y-98140722D01*
X122864628Y-98036827D01*
X122593709Y-98036591D01*
X122343322Y-98140048D01*
X122151587Y-98331450D01*
X122047692Y-98581655D01*
X122047456Y-98852574D01*
X121215747Y-98852574D01*
X123413456Y-96654865D01*
X138764882Y-96654865D01*
X138868339Y-96905252D01*
X139059741Y-97096987D01*
X139309946Y-97200882D01*
X139580865Y-97201118D01*
X139831252Y-97097661D01*
X140022987Y-96906259D01*
X140126882Y-96656054D01*
X140127118Y-96385135D01*
X140023661Y-96134748D01*
X139832259Y-95943013D01*
X139582054Y-95839118D01*
X139311135Y-95838882D01*
X139060748Y-95942339D01*
X138869013Y-96133741D01*
X138765118Y-96383946D01*
X138764882Y-96654865D01*
X123413456Y-96654865D01*
X133100322Y-86968000D01*
X137185921Y-86968000D01*
X137281741Y-87063987D01*
X137531946Y-87167882D01*
X137802865Y-87168118D01*
X138053252Y-87064661D01*
X138244987Y-86873259D01*
X138348882Y-86623054D01*
X138349118Y-86352135D01*
X138245661Y-86101748D01*
X138054259Y-85910013D01*
X137804054Y-85806118D01*
X137533135Y-85805882D01*
X137282748Y-85909339D01*
X137185919Y-86006000D01*
X136416236Y-86006000D01*
X137667237Y-84755000D01*
X137802865Y-84755118D01*
X138053252Y-84651661D01*
X138244987Y-84460259D01*
X138348882Y-84210054D01*
X138349118Y-83939135D01*
X138245661Y-83688748D01*
X138054259Y-83497013D01*
X137804054Y-83393118D01*
X137533135Y-83392882D01*
X137282748Y-83496339D01*
X137091013Y-83687741D01*
X136987118Y-83937946D01*
X136986999Y-84074764D01*
X135455775Y-85605989D01*
X133330933Y-85605989D01*
X134381922Y-84555000D01*
X134645921Y-84555000D01*
X134741741Y-84650987D01*
X134991946Y-84754882D01*
X135262865Y-84755118D01*
X135513252Y-84651661D01*
X135704987Y-84460259D01*
X135808882Y-84210054D01*
X135809118Y-83939135D01*
X135705661Y-83688748D01*
X135514259Y-83497013D01*
X135264054Y-83393118D01*
X134993135Y-83392882D01*
X134742748Y-83496339D01*
X134645919Y-83593000D01*
X134182685Y-83593000D01*
X133998614Y-83629614D01*
X133842566Y-83733882D01*
X133199639Y-84376810D01*
X133268882Y-84210054D01*
X133269118Y-83939135D01*
X133165661Y-83688748D01*
X132974259Y-83497013D01*
X132724054Y-83393118D01*
X132453135Y-83392882D01*
X132202748Y-83496339D01*
X132011013Y-83687741D01*
X131907118Y-83937946D01*
X131906999Y-84074764D01*
X117829800Y-98151964D01*
X104460437Y-98151964D01*
X104276366Y-98188578D01*
X104120319Y-98292846D01*
X102807059Y-99606106D01*
X102702791Y-99762153D01*
X102666177Y-99946224D01*
X102666177Y-103738870D01*
X102570190Y-103834690D01*
X102466295Y-104084895D01*
X102466059Y-104355814D01*
X102569516Y-104606201D01*
X102760918Y-104797936D01*
X102772957Y-104802935D01*
X102682016Y-104893876D01*
X102621259Y-104833013D01*
X102371054Y-104729118D01*
X102100135Y-104728882D01*
X101849748Y-104832339D01*
X101658013Y-105023741D01*
X101554118Y-105273946D01*
X101553882Y-105544865D01*
X98221000Y-105544865D01*
X98221000Y-92835539D01*
X99663096Y-92835539D01*
X99680633Y-92918319D01*
X99950500Y-93411396D01*
X100388517Y-93763666D01*
X100928000Y-93921500D01*
X102078000Y-93921500D01*
X102078000Y-92613500D01*
X102332000Y-92613500D01*
X102332000Y-93921500D01*
X103482000Y-93921500D01*
X104021483Y-93763666D01*
X104459500Y-93411396D01*
X104729367Y-92918319D01*
X104746904Y-92835539D01*
X104624915Y-92613500D01*
X102332000Y-92613500D01*
X102078000Y-92613500D01*
X99785085Y-92613500D01*
X99663096Y-92835539D01*
X98221000Y-92835539D01*
X98221000Y-92137461D01*
X99663096Y-92137461D01*
X99785085Y-92359500D01*
X102078000Y-92359500D01*
X102078000Y-91051500D01*
X100928000Y-91051500D01*
X100388517Y-91209334D01*
X99950500Y-91561604D01*
X99680633Y-92054681D01*
X99663096Y-92137461D01*
X98221000Y-92137461D01*
X98221000Y-88036500D01*
X99649883Y-88036500D01*
X99720751Y-88392778D01*
X99922567Y-88694816D01*
X100134611Y-88836500D01*
X99922567Y-88978184D01*
X99720751Y-89280222D01*
X99649883Y-89636500D01*
X99720751Y-89992778D01*
X99922567Y-90294816D01*
X100224605Y-90496632D01*
X100580883Y-90567500D01*
X101229117Y-90567500D01*
X101585395Y-90496632D01*
X101887433Y-90294816D01*
X102089249Y-89992778D01*
X102160117Y-89636500D01*
X102089249Y-89280222D01*
X101887433Y-88978184D01*
X101675389Y-88836500D01*
X101887433Y-88694816D01*
X102089249Y-88392778D01*
X102160117Y-88036500D01*
X102089249Y-87680222D01*
X101999728Y-87546244D01*
X102061197Y-87546244D01*
X102061602Y-87572646D01*
X102277276Y-87984618D01*
X102517725Y-88185431D01*
X102320751Y-88480222D01*
X102249883Y-88836500D01*
X102320751Y-89192778D01*
X102522567Y-89494816D01*
X102555427Y-89516772D01*
X102513810Y-89524603D01*
X102384135Y-89608046D01*
X102297141Y-89735366D01*
X102266536Y-89886500D01*
X102266536Y-90986500D01*
X102293103Y-91127690D01*
X102332000Y-91188138D01*
X102332000Y-92359500D01*
X104624915Y-92359500D01*
X104746904Y-92137461D01*
X104729367Y-92054681D01*
X104459500Y-91561604D01*
X104397033Y-91511365D01*
X110507382Y-91511365D01*
X110610839Y-91761752D01*
X110802241Y-91953487D01*
X111052446Y-92057382D01*
X111323365Y-92057618D01*
X111573752Y-91954161D01*
X111765487Y-91762759D01*
X111869382Y-91512554D01*
X111869618Y-91241635D01*
X111766161Y-90991248D01*
X111574759Y-90799513D01*
X111324554Y-90695618D01*
X111053635Y-90695382D01*
X110803248Y-90798839D01*
X110611513Y-90990241D01*
X110507618Y-91240446D01*
X110507382Y-91511365D01*
X104397033Y-91511365D01*
X104227429Y-91374964D01*
X104355000Y-91374964D01*
X104496190Y-91348397D01*
X104625865Y-91264954D01*
X104712859Y-91137634D01*
X104743464Y-90986500D01*
X104743464Y-90558865D01*
X115460382Y-90558865D01*
X115563839Y-90809252D01*
X115755241Y-91000987D01*
X116005446Y-91104882D01*
X116276365Y-91105118D01*
X116526752Y-91001661D01*
X116718487Y-90810259D01*
X116822382Y-90560054D01*
X116822618Y-90289135D01*
X116719161Y-90038748D01*
X116527759Y-89847013D01*
X116277554Y-89743118D01*
X116006635Y-89742882D01*
X115756248Y-89846339D01*
X115564513Y-90037741D01*
X115460618Y-90287946D01*
X115460382Y-90558865D01*
X104743464Y-90558865D01*
X104743464Y-89886500D01*
X104716897Y-89745310D01*
X104633454Y-89615635D01*
X104506134Y-89528641D01*
X104452934Y-89517868D01*
X104487433Y-89494816D01*
X104689249Y-89192778D01*
X104733290Y-88971365D01*
X109173882Y-88971365D01*
X109277339Y-89221752D01*
X109468741Y-89413487D01*
X109718946Y-89517382D01*
X109989865Y-89517618D01*
X110240252Y-89414161D01*
X110431987Y-89222759D01*
X110535882Y-88972554D01*
X110536118Y-88701635D01*
X110432661Y-88451248D01*
X110241259Y-88259513D01*
X109991054Y-88155618D01*
X109720135Y-88155382D01*
X109469748Y-88258839D01*
X109278013Y-88450241D01*
X109174118Y-88700446D01*
X109173882Y-88971365D01*
X104733290Y-88971365D01*
X104760117Y-88836500D01*
X104689249Y-88480222D01*
X104492275Y-88185431D01*
X104732724Y-87984618D01*
X104948398Y-87572646D01*
X104948803Y-87546244D01*
X104823361Y-87363500D01*
X103632000Y-87363500D01*
X103632000Y-87383500D01*
X103378000Y-87383500D01*
X103378000Y-87363500D01*
X102186639Y-87363500D01*
X102061197Y-87546244D01*
X101999728Y-87546244D01*
X101887433Y-87378184D01*
X101585395Y-87176368D01*
X101229117Y-87105500D01*
X100580883Y-87105500D01*
X100224605Y-87176368D01*
X99922567Y-87378184D01*
X99720751Y-87680222D01*
X99649883Y-88036500D01*
X98221000Y-88036500D01*
X98221000Y-86926756D01*
X102061197Y-86926756D01*
X102186639Y-87109500D01*
X103378000Y-87109500D01*
X103378000Y-87089500D01*
X103632000Y-87089500D01*
X103632000Y-87109500D01*
X104823361Y-87109500D01*
X104948803Y-86926756D01*
X104948398Y-86900354D01*
X104732724Y-86488382D01*
X104375813Y-86190304D01*
X104365425Y-86187055D01*
X104459500Y-86111396D01*
X104729367Y-85618319D01*
X104746904Y-85535539D01*
X104624915Y-85313500D01*
X102332000Y-85313500D01*
X102332000Y-86442679D01*
X102277276Y-86488382D01*
X102061602Y-86900354D01*
X102061197Y-86926756D01*
X98221000Y-86926756D01*
X98221000Y-85535539D01*
X99663096Y-85535539D01*
X99680633Y-85618319D01*
X99950500Y-86111396D01*
X100388517Y-86463666D01*
X100928000Y-86621500D01*
X102078000Y-86621500D01*
X102078000Y-85313500D01*
X99785085Y-85313500D01*
X99663096Y-85535539D01*
X98221000Y-85535539D01*
X98221000Y-84837461D01*
X99663096Y-84837461D01*
X99785085Y-85059500D01*
X102078000Y-85059500D01*
X102078000Y-83751500D01*
X102332000Y-83751500D01*
X102332000Y-85059500D01*
X104624915Y-85059500D01*
X104746904Y-84837461D01*
X104729367Y-84754681D01*
X104715964Y-84730191D01*
X107589414Y-84730191D01*
X107895472Y-85173659D01*
X109120252Y-85683725D01*
X110446995Y-85686262D01*
X111673716Y-85180883D01*
X111684528Y-85173659D01*
X111990586Y-84730191D01*
X109790000Y-82529605D01*
X107589414Y-84730191D01*
X104715964Y-84730191D01*
X104459500Y-84261604D01*
X104021483Y-83909334D01*
X103482000Y-83751500D01*
X102332000Y-83751500D01*
X102078000Y-83751500D01*
X100928000Y-83751500D01*
X100388517Y-83909334D01*
X99950500Y-84261604D01*
X99680633Y-84754681D01*
X99663096Y-84837461D01*
X98221000Y-84837461D01*
X98221000Y-83006995D01*
X106453738Y-83006995D01*
X106959117Y-84233716D01*
X106966341Y-84244528D01*
X107409809Y-84550586D01*
X109610395Y-82350000D01*
X109969605Y-82350000D01*
X112170191Y-84550586D01*
X112613659Y-84244528D01*
X113123725Y-83019748D01*
X113125565Y-82057122D01*
X142963825Y-82057122D01*
X143178466Y-82575332D01*
X143640608Y-83070012D01*
X144256877Y-83350183D01*
X144526000Y-83232604D01*
X144526000Y-81788000D01*
X144780000Y-81788000D01*
X144780000Y-83232604D01*
X145049123Y-83350183D01*
X145665392Y-83070012D01*
X146127534Y-82575332D01*
X146342175Y-82057122D01*
X146224125Y-81788000D01*
X144780000Y-81788000D01*
X144526000Y-81788000D01*
X143081875Y-81788000D01*
X142963825Y-82057122D01*
X113125565Y-82057122D01*
X113126262Y-81693005D01*
X112949885Y-81264878D01*
X142963825Y-81264878D01*
X143081875Y-81534000D01*
X144526000Y-81534000D01*
X144526000Y-80089396D01*
X144780000Y-80089396D01*
X144780000Y-81534000D01*
X146224125Y-81534000D01*
X146342175Y-81264878D01*
X146127534Y-80746668D01*
X145954079Y-80561000D01*
X153324536Y-80561000D01*
X153324536Y-82761000D01*
X153351103Y-82902190D01*
X153434546Y-83031865D01*
X153561866Y-83118859D01*
X153713000Y-83149464D01*
X155913000Y-83149464D01*
X156054190Y-83122897D01*
X156183865Y-83039454D01*
X156206043Y-83006995D01*
X176453738Y-83006995D01*
X176959117Y-84233716D01*
X176966341Y-84244528D01*
X177409809Y-84550586D01*
X179610395Y-82350000D01*
X179969605Y-82350000D01*
X182170191Y-84550586D01*
X182613659Y-84244528D01*
X183123725Y-83019748D01*
X183125034Y-82335000D01*
X183292536Y-82335000D01*
X183292536Y-84035000D01*
X183319103Y-84176190D01*
X183402546Y-84305865D01*
X183529866Y-84392859D01*
X183681000Y-84423464D01*
X185381000Y-84423464D01*
X185522190Y-84396897D01*
X185651865Y-84313454D01*
X185738859Y-84186134D01*
X185769464Y-84035000D01*
X185769464Y-83160883D01*
X185840000Y-83160883D01*
X185840000Y-83209117D01*
X185933704Y-83680200D01*
X186200552Y-84079565D01*
X186599917Y-84346413D01*
X187071000Y-84440117D01*
X187542083Y-84346413D01*
X187941448Y-84079565D01*
X188208296Y-83680200D01*
X188216083Y-83641053D01*
X188415817Y-84066358D01*
X188844076Y-84456645D01*
X189254110Y-84626476D01*
X189484000Y-84505155D01*
X189484000Y-83312000D01*
X189738000Y-83312000D01*
X189738000Y-84505155D01*
X189967890Y-84626476D01*
X190377924Y-84456645D01*
X190806183Y-84066358D01*
X191052486Y-83541892D01*
X190931819Y-83312000D01*
X189738000Y-83312000D01*
X189484000Y-83312000D01*
X189464000Y-83312000D01*
X189464000Y-83058000D01*
X189484000Y-83058000D01*
X189484000Y-81864845D01*
X189738000Y-81864845D01*
X189738000Y-83058000D01*
X190931819Y-83058000D01*
X191052486Y-82828108D01*
X190806183Y-82303642D01*
X190377924Y-81913355D01*
X189967890Y-81743524D01*
X189738000Y-81864845D01*
X189484000Y-81864845D01*
X189254110Y-81743524D01*
X188844076Y-81913355D01*
X188415817Y-82303642D01*
X188216083Y-82728947D01*
X188208296Y-82689800D01*
X187941448Y-82290435D01*
X187542083Y-82023587D01*
X187071000Y-81929883D01*
X186599917Y-82023587D01*
X186200552Y-82290435D01*
X185933704Y-82689800D01*
X185840000Y-83160883D01*
X185769464Y-83160883D01*
X185769464Y-82335000D01*
X185742897Y-82193810D01*
X185659454Y-82064135D01*
X185532134Y-81977141D01*
X185381000Y-81946536D01*
X183681000Y-81946536D01*
X183539810Y-81973103D01*
X183410135Y-82056546D01*
X183323141Y-82183866D01*
X183292536Y-82335000D01*
X183125034Y-82335000D01*
X183126262Y-81693005D01*
X182620883Y-80466284D01*
X182613659Y-80455472D01*
X182170191Y-80149414D01*
X179969605Y-82350000D01*
X179610395Y-82350000D01*
X177409809Y-80149414D01*
X176966341Y-80455472D01*
X176456275Y-81680252D01*
X176453738Y-83006995D01*
X156206043Y-83006995D01*
X156270859Y-82912134D01*
X156301464Y-82761000D01*
X156301464Y-82049865D01*
X166958882Y-82049865D01*
X167062339Y-82300252D01*
X167253741Y-82491987D01*
X167503946Y-82595882D01*
X167774865Y-82596118D01*
X168025252Y-82492661D01*
X168216987Y-82301259D01*
X168320882Y-82051054D01*
X168321118Y-81780135D01*
X168217661Y-81529748D01*
X168026259Y-81338013D01*
X167776054Y-81234118D01*
X167505135Y-81233882D01*
X167254748Y-81337339D01*
X167063013Y-81528741D01*
X166959118Y-81778946D01*
X166958882Y-82049865D01*
X156301464Y-82049865D01*
X156301464Y-80561000D01*
X156274897Y-80419810D01*
X156191454Y-80290135D01*
X156064134Y-80203141D01*
X155913000Y-80172536D01*
X153713000Y-80172536D01*
X153571810Y-80199103D01*
X153442135Y-80282546D01*
X153355141Y-80409866D01*
X153324536Y-80561000D01*
X145954079Y-80561000D01*
X145665392Y-80251988D01*
X145049123Y-79971817D01*
X144780000Y-80089396D01*
X144526000Y-80089396D01*
X144256877Y-79971817D01*
X143640608Y-80251988D01*
X143178466Y-80746668D01*
X142963825Y-81264878D01*
X112949885Y-81264878D01*
X112620883Y-80466284D01*
X112613659Y-80455472D01*
X112170191Y-80149414D01*
X109969605Y-82350000D01*
X109610395Y-82350000D01*
X107409809Y-80149414D01*
X106966341Y-80455472D01*
X106456275Y-81680252D01*
X106453738Y-83006995D01*
X98221000Y-83006995D01*
X98221000Y-79781000D01*
X107719720Y-79781000D01*
X107589414Y-79969809D01*
G36*
X118065990Y-99510459D02*
X104263178Y-99510459D01*
X104659673Y-99113964D01*
X118029036Y-99113964D01*
X118213107Y-99077350D01*
X118369154Y-98973082D01*
X132587237Y-84755000D01*
X132722865Y-84755118D01*
X132890662Y-84685786D01*
X118065990Y-99510459D01*
X118065990Y-99510459D01*
G37*
X118065990Y-99510459D02*
X104263178Y-99510459D01*
X104659673Y-99113964D01*
X118029036Y-99113964D01*
X118213107Y-99077350D01*
X118369154Y-98973082D01*
X132587237Y-84755000D01*
X132722865Y-84755118D01*
X132890662Y-84685786D01*
X118065990Y-99510459D01*
M02*
