G04 #@! TF.FileFunction,Copper,L2,Inr,Mixed*
%FSLAX46Y46*%
G04 Gerber Fmt 4.6, Leading zero omitted, Abs format (unit mm)*
G04 Created by KiCad (PCBNEW 4.0.7) date Monday, May 07, 2018 'PMt' 12:32:40 PM*
%MOMM*%
%LPD*%
G01*
G04 APERTURE LIST*
%ADD10C,0.100000*%
%ADD11C,0.600000*%
%ADD12C,5.400000*%
%ADD13C,2.500000*%
%ADD14C,3.000000*%
%ADD15R,2.080000X3.600000*%
%ADD16O,2.080000X3.600000*%
%ADD17C,0.970000*%
%ADD18R,1.700000X1.700000*%
%ADD19O,1.700000X1.700000*%
%ADD20R,2.200000X2.200000*%
%ADD21O,2.200000X2.200000*%
%ADD22R,1.700000X1.100000*%
%ADD23O,1.700000X1.100000*%
%ADD24O,3.900000X1.600000*%
%ADD25C,1.000000*%
%ADD26C,0.700000*%
%ADD27C,0.200000*%
%ADD28C,2.000000*%
%ADD29C,0.254000*%
G04 APERTURE END LIST*
D10*
D11*
X162735000Y-120745000D03*
X104950000Y-122650000D03*
D12*
X190790000Y-91850000D03*
D11*
X143050000Y-125190000D03*
X139240000Y-125190000D03*
X135430000Y-125190000D03*
X148765000Y-117570000D03*
X148765000Y-115284000D03*
X155496000Y-119094000D03*
X155575000Y-121285000D03*
X153035000Y-121285000D03*
X104902000Y-116332000D03*
X170053000Y-111252000D03*
X168529000Y-112776000D03*
X166878000Y-114427000D03*
X165227000Y-116078000D03*
X162735000Y-123285000D03*
X162735000Y-125825000D03*
X167815000Y-125825000D03*
X175260000Y-115697000D03*
X177800000Y-115697000D03*
X167815000Y-123285000D03*
X167815000Y-120745000D03*
X170355000Y-118205000D03*
X172720000Y-115697000D03*
X180340000Y-115697000D03*
X182880000Y-115697000D03*
D13*
X183954000Y-109616000D03*
D14*
X171754000Y-109616000D03*
X171704000Y-121666000D03*
D13*
X183954000Y-121616000D03*
D14*
X185904000Y-115666000D03*
D11*
X109790000Y-99350000D03*
X116790000Y-99350000D03*
X113290000Y-99350000D03*
X109790000Y-102850000D03*
X116790000Y-102850000D03*
X116790000Y-113350000D03*
X116790000Y-109850000D03*
X109790000Y-109850000D03*
X109790000Y-113350000D03*
X113290000Y-113350000D03*
X113290000Y-109850000D03*
X113290000Y-102850000D03*
X116790000Y-106350000D03*
X109790000Y-106350000D03*
X113290000Y-106350000D03*
X140335000Y-84455000D03*
X140335000Y-87630000D03*
X107490000Y-80740000D03*
X118920000Y-80740000D03*
X131445000Y-102235000D03*
X134620000Y-99060000D03*
X98600000Y-109950000D03*
X156845000Y-97155000D03*
X153035000Y-97155000D03*
X149860000Y-97155000D03*
X156845000Y-94615000D03*
X153035000Y-94615000D03*
X149860000Y-94615000D03*
X156845000Y-92075000D03*
X153035000Y-92075000D03*
X138430000Y-109220000D03*
X138430000Y-111125000D03*
X138430000Y-113030000D03*
X135255000Y-109220000D03*
X135255000Y-111125000D03*
X135255000Y-113030000D03*
X132080000Y-109220000D03*
X132080000Y-111125000D03*
X132080000Y-113030000D03*
X122730000Y-88360000D03*
X126540000Y-84550000D03*
X122730000Y-84550000D03*
X118920000Y-84550000D03*
X137160000Y-104775000D03*
X140335000Y-104775000D03*
X122555000Y-110490000D03*
X141780000Y-99790000D03*
X126540000Y-88360000D03*
X115110000Y-84550000D03*
X126540000Y-80740000D03*
X122730000Y-80740000D03*
X111300000Y-88360000D03*
X122730000Y-92170000D03*
X115110000Y-88360000D03*
X118920000Y-88360000D03*
X115110000Y-80740000D03*
X98600000Y-113760000D03*
X98600000Y-117570000D03*
X97330000Y-126460000D03*
X140335000Y-90805000D03*
X140335000Y-81280000D03*
X107490000Y-84550000D03*
X111300000Y-84550000D03*
X111300000Y-80740000D03*
X102410000Y-109950000D03*
X98600000Y-106140000D03*
X116290000Y-121850000D03*
X117650000Y-120110000D03*
X112570000Y-120110000D03*
X112570000Y-121380000D03*
X115110000Y-122650000D03*
X115110000Y-125190000D03*
X113665000Y-127635000D03*
X111300000Y-126460000D03*
X101140000Y-126460000D03*
X112570000Y-123920000D03*
X104950000Y-126460000D03*
X117650000Y-121380000D03*
X112570000Y-122650000D03*
X111300000Y-122650000D03*
X111300000Y-120110000D03*
X111300000Y-121380000D03*
X111300000Y-127730000D03*
X108760000Y-127730000D03*
X108760000Y-126460000D03*
X108760000Y-125190000D03*
X108760000Y-123920000D03*
X108760000Y-122650000D03*
X108760000Y-121380000D03*
X108760000Y-120110000D03*
X115110000Y-123920000D03*
X104902000Y-115189000D03*
X103886000Y-115189000D03*
X103886000Y-116332000D03*
X104902000Y-117475000D03*
X103886000Y-117475000D03*
X157226000Y-106680000D03*
X155956000Y-106680000D03*
X102410000Y-95980000D03*
X98600000Y-95980000D03*
X105346500Y-132207000D03*
D15*
X137335000Y-128746000D03*
D16*
X142415000Y-128746000D03*
X147495000Y-128746000D03*
X152575000Y-128746000D03*
X157655000Y-128746000D03*
X162735000Y-128746000D03*
X167815000Y-128746000D03*
X172895000Y-128746000D03*
D17*
X105015000Y-129116000D03*
X113775000Y-129116000D03*
D18*
X146812000Y-87852000D03*
D19*
X149352000Y-87852000D03*
D18*
X178610000Y-80740000D03*
D19*
X181150000Y-80740000D03*
X183690000Y-80740000D03*
D18*
X186230000Y-87090000D03*
D19*
X186230000Y-89630000D03*
X186230000Y-92170000D03*
X186230000Y-94710000D03*
X186230000Y-97250000D03*
D11*
X149860000Y-92075000D03*
X176530000Y-102870000D03*
X176530000Y-100838000D03*
X176530000Y-104902000D03*
X174752000Y-100838000D03*
X174752000Y-102870000D03*
X174752000Y-104902000D03*
X178308000Y-100838000D03*
X178308000Y-102870000D03*
X178308000Y-104902000D03*
D20*
X154813000Y-81661000D03*
D21*
X144653000Y-81661000D03*
D22*
X105712000Y-90036000D03*
D23*
X103112000Y-89236000D03*
X105712000Y-88436000D03*
X103112000Y-87636000D03*
X105712000Y-86836000D03*
D24*
X104412000Y-92086000D03*
X104412000Y-84786000D03*
D12*
X98790000Y-121850000D03*
X190790000Y-121850000D03*
X190790000Y-91850000D03*
X98790000Y-91850000D03*
D11*
X172895000Y-125825000D03*
X172895000Y-123285000D03*
X165318000Y-89245000D03*
X155845000Y-111125000D03*
X178102000Y-87598000D03*
X144320000Y-106902000D03*
X169545000Y-96012000D03*
X160655000Y-96012000D03*
X160655000Y-87249000D03*
X166370000Y-85852000D03*
X128016000Y-108902500D03*
X158369000Y-106680000D03*
X154686000Y-106680000D03*
X122785598Y-102002193D03*
X122728574Y-98717709D03*
X164765935Y-111720054D03*
X139446000Y-96520000D03*
X168402000Y-93472000D03*
X163322179Y-94995912D03*
X161800167Y-94488574D03*
X154940000Y-88198000D03*
X139446000Y-99695000D03*
X122682000Y-114046000D03*
X116139462Y-90033893D03*
X111188500Y-91376500D03*
X188513904Y-99152047D03*
X159384145Y-89981173D03*
X183690000Y-87090000D03*
X168198332Y-102607742D03*
X103147177Y-104220949D03*
X132588000Y-84074000D03*
X104065717Y-103119878D03*
X135128000Y-84074000D03*
X105039551Y-102015949D03*
X137668000Y-86487000D03*
X105045494Y-100931574D03*
X137668000Y-84074000D03*
X102235000Y-105410000D03*
X141097000Y-96520000D03*
X122682000Y-107442000D03*
X122682000Y-106426000D03*
X122682000Y-105537000D03*
X122682000Y-104648000D03*
X169468369Y-83029114D03*
D25*
X127952500Y-116332000D02*
X144031915Y-116332000D01*
X144031915Y-116332000D02*
X153683915Y-106680000D01*
X153683915Y-106680000D02*
X154686000Y-106680000D01*
X103886000Y-116332000D02*
X127952500Y-116332000D01*
X128016000Y-108902500D02*
X128016000Y-116268500D01*
D26*
X128016000Y-116268500D02*
X127952500Y-116332000D01*
D27*
X168402660Y-93471340D02*
X176901669Y-93471340D01*
X176901669Y-93471340D02*
X181128191Y-89244818D01*
X181128191Y-89244818D02*
X181128191Y-80708674D01*
X168402000Y-93472000D02*
X168402660Y-93471340D01*
X163322179Y-94995912D02*
X178354429Y-94995912D01*
X178354429Y-94995912D02*
X183738184Y-89612157D01*
X183738184Y-89612157D02*
X186204148Y-89612157D01*
X161800167Y-94488574D02*
X161800167Y-95345890D01*
X161800167Y-95345890D02*
X163482009Y-97027732D01*
X163482009Y-97027732D02*
X179323366Y-97027732D01*
X179323366Y-97027732D02*
X184188965Y-92162133D01*
X184188965Y-92162133D02*
X186204148Y-92162133D01*
D28*
X162735000Y-123285000D02*
X162735000Y-118635000D01*
X162735000Y-118635000D02*
X162790000Y-118580000D01*
X162735000Y-125825000D02*
X162735000Y-123285000D01*
X162735000Y-128746000D02*
X162735000Y-125825000D01*
X162790000Y-118580000D02*
X171754000Y-109616000D01*
X172895000Y-123285000D02*
X172895000Y-122857000D01*
X172895000Y-122857000D02*
X171704000Y-121666000D01*
X172895000Y-125825000D02*
X172895000Y-123285000D01*
X172895000Y-128746000D02*
X172895000Y-125825000D01*
X172720000Y-115697000D02*
X185873000Y-115697000D01*
X185873000Y-115697000D02*
X185904000Y-115666000D01*
X167815000Y-123285000D02*
X167815000Y-120602000D01*
X167815000Y-120602000D02*
X172720000Y-115697000D01*
X183782680Y-115666000D02*
X185904000Y-115666000D01*
X167815000Y-125825000D02*
X167815000Y-123285000D01*
X167815000Y-128746000D02*
X167815000Y-125825000D01*
D26*
X157655000Y-128746000D02*
X157655000Y-111670781D01*
X157655000Y-111670781D02*
X160524909Y-108800872D01*
X160524909Y-108800872D02*
X160524909Y-104638265D01*
X160524909Y-104638265D02*
X154940000Y-99053356D01*
X154940000Y-99053356D02*
X154940000Y-88198000D01*
D27*
X159384145Y-89981173D02*
X159384145Y-96391796D01*
X159384145Y-96391796D02*
X162141989Y-99149640D01*
X162141989Y-99149640D02*
X188516310Y-99149640D01*
D29*
G36*
X105537000Y-117729000D02*
X103251000Y-117729000D01*
X103251000Y-114935000D01*
X105537000Y-114935000D01*
X105537000Y-117729000D01*
X105537000Y-117729000D01*
G37*
X105537000Y-117729000D02*
X103251000Y-117729000D01*
X103251000Y-114935000D01*
X105537000Y-114935000D01*
X105537000Y-117729000D01*
G36*
X158750000Y-107188000D02*
X154305000Y-107188000D01*
X154305000Y-106172000D01*
X158750000Y-106172000D01*
X158750000Y-107188000D01*
X158750000Y-107188000D01*
G37*
X158750000Y-107188000D02*
X154305000Y-107188000D01*
X154305000Y-106172000D01*
X158750000Y-106172000D01*
X158750000Y-107188000D01*
G36*
X192429783Y-79599309D02*
X191515419Y-79219632D01*
X190070918Y-79218372D01*
X188735891Y-79769994D01*
X187713583Y-80790519D01*
X187159632Y-82124581D01*
X187158372Y-83569082D01*
X187709994Y-84904109D01*
X188730519Y-85926417D01*
X190064581Y-86480368D01*
X191509082Y-86481628D01*
X192844109Y-85930006D01*
X193866417Y-84909481D01*
X194359000Y-83723210D01*
X194359000Y-106723000D01*
X170290000Y-106723000D01*
X170240590Y-106733006D01*
X170200242Y-106760153D01*
X165424663Y-111531001D01*
X165343596Y-111334802D01*
X165152194Y-111143067D01*
X164901989Y-111039172D01*
X164631070Y-111038936D01*
X164380683Y-111142393D01*
X164188948Y-111333795D01*
X164085053Y-111584000D01*
X164084817Y-111854919D01*
X164188274Y-112105306D01*
X164379676Y-112297041D01*
X164576185Y-112378639D01*
X160105242Y-116845153D01*
X160077358Y-116887153D01*
X160068003Y-116935837D01*
X160163003Y-131350837D01*
X160173334Y-131400180D01*
X160202048Y-131441616D01*
X160244622Y-131468616D01*
X160290000Y-131477000D01*
X186790000Y-131477000D01*
X186839410Y-131466994D01*
X186881035Y-131438553D01*
X186908315Y-131396159D01*
X186917000Y-131350000D01*
X186917000Y-122402606D01*
X190842606Y-118477000D01*
X194359000Y-118477000D01*
X194359000Y-129979347D01*
X193870006Y-128795891D01*
X192849481Y-127773583D01*
X191515419Y-127219632D01*
X190070918Y-127218372D01*
X188735891Y-127769994D01*
X187713583Y-128790519D01*
X187159632Y-130124581D01*
X187158372Y-131569082D01*
X187709994Y-132904109D01*
X188730519Y-133926417D01*
X190064581Y-134480368D01*
X191509082Y-134481628D01*
X192428912Y-134101562D01*
X191611474Y-134919000D01*
X97968526Y-134919000D01*
X97150217Y-134100691D01*
X98064581Y-134480368D01*
X99509082Y-134481628D01*
X100844109Y-133930006D01*
X101866417Y-132909481D01*
X102420368Y-131575419D01*
X102421628Y-130130918D01*
X102324232Y-129895200D01*
X104415405Y-129895200D01*
X104450692Y-130108768D01*
X104873564Y-130249149D01*
X105317968Y-130217018D01*
X105579308Y-130108768D01*
X105614595Y-129895200D01*
X113175405Y-129895200D01*
X113210692Y-130108768D01*
X113633564Y-130249149D01*
X114077968Y-130217018D01*
X114339308Y-130108768D01*
X114374595Y-129895200D01*
X113775000Y-129295605D01*
X113175405Y-129895200D01*
X105614595Y-129895200D01*
X105015000Y-129295605D01*
X104415405Y-129895200D01*
X102324232Y-129895200D01*
X101943833Y-128974564D01*
X103881851Y-128974564D01*
X103913982Y-129418968D01*
X104022232Y-129680308D01*
X104235800Y-129715595D01*
X104835395Y-129116000D01*
X105194605Y-129116000D01*
X105794200Y-129715595D01*
X106007768Y-129680308D01*
X106148149Y-129257436D01*
X106127697Y-128974564D01*
X112641851Y-128974564D01*
X112673982Y-129418968D01*
X112782232Y-129680308D01*
X112995800Y-129715595D01*
X113595395Y-129116000D01*
X113954605Y-129116000D01*
X114554200Y-129715595D01*
X114767768Y-129680308D01*
X114908149Y-129257436D01*
X114876018Y-128813032D01*
X114767768Y-128551692D01*
X114554200Y-128516405D01*
X113954605Y-129116000D01*
X113595395Y-129116000D01*
X112995800Y-128516405D01*
X112782232Y-128551692D01*
X112641851Y-128974564D01*
X106127697Y-128974564D01*
X106116018Y-128813032D01*
X106007768Y-128551692D01*
X105794200Y-128516405D01*
X105194605Y-129116000D01*
X104835395Y-129116000D01*
X104235800Y-128516405D01*
X104022232Y-128551692D01*
X103881851Y-128974564D01*
X101943833Y-128974564D01*
X101870006Y-128795891D01*
X101411716Y-128336800D01*
X104415405Y-128336800D01*
X105015000Y-128936395D01*
X105614595Y-128336800D01*
X113175405Y-128336800D01*
X113775000Y-128936395D01*
X114374595Y-128336800D01*
X114339308Y-128123232D01*
X113916436Y-127982851D01*
X113472032Y-128014982D01*
X113210692Y-128123232D01*
X113175405Y-128336800D01*
X105614595Y-128336800D01*
X105579308Y-128123232D01*
X105156436Y-127982851D01*
X104712032Y-128014982D01*
X104450692Y-128123232D01*
X104415405Y-128336800D01*
X101411716Y-128336800D01*
X100849481Y-127773583D01*
X99515419Y-127219632D01*
X98070918Y-127218372D01*
X96735891Y-127769994D01*
X95713583Y-128790519D01*
X95221000Y-129976790D01*
X95221000Y-126946000D01*
X135906536Y-126946000D01*
X135906536Y-130546000D01*
X135933103Y-130687190D01*
X136016546Y-130816865D01*
X136143866Y-130903859D01*
X136295000Y-130934464D01*
X138375000Y-130934464D01*
X138516190Y-130907897D01*
X138645865Y-130824454D01*
X138732859Y-130697134D01*
X138763464Y-130546000D01*
X138763464Y-127943272D01*
X140994000Y-127943272D01*
X140994000Y-129548728D01*
X141102167Y-130092521D01*
X141410201Y-130553527D01*
X141871207Y-130861561D01*
X142415000Y-130969728D01*
X142958793Y-130861561D01*
X143419799Y-130553527D01*
X143727833Y-130092521D01*
X143836000Y-129548728D01*
X143836000Y-127943272D01*
X146074000Y-127943272D01*
X146074000Y-129548728D01*
X146182167Y-130092521D01*
X146490201Y-130553527D01*
X146951207Y-130861561D01*
X147495000Y-130969728D01*
X148038793Y-130861561D01*
X148499799Y-130553527D01*
X148807833Y-130092521D01*
X148916000Y-129548728D01*
X148916000Y-128873000D01*
X150900000Y-128873000D01*
X150900000Y-129633000D01*
X151076103Y-130264327D01*
X151480399Y-130780206D01*
X152051338Y-131102099D01*
X152188290Y-131135748D01*
X152448000Y-131016922D01*
X152448000Y-128873000D01*
X152702000Y-128873000D01*
X152702000Y-131016922D01*
X152961710Y-131135748D01*
X153098662Y-131102099D01*
X153669601Y-130780206D01*
X154073897Y-130264327D01*
X154250000Y-129633000D01*
X154250000Y-128873000D01*
X152702000Y-128873000D01*
X152448000Y-128873000D01*
X150900000Y-128873000D01*
X148916000Y-128873000D01*
X148916000Y-127943272D01*
X148899238Y-127859000D01*
X150900000Y-127859000D01*
X150900000Y-128619000D01*
X152448000Y-128619000D01*
X152448000Y-126475078D01*
X152702000Y-126475078D01*
X152702000Y-128619000D01*
X154250000Y-128619000D01*
X154250000Y-127859000D01*
X154073897Y-127227673D01*
X153669601Y-126711794D01*
X153098662Y-126389901D01*
X152961710Y-126356252D01*
X152702000Y-126475078D01*
X152448000Y-126475078D01*
X152188290Y-126356252D01*
X152051338Y-126389901D01*
X151480399Y-126711794D01*
X151076103Y-127227673D01*
X150900000Y-127859000D01*
X148899238Y-127859000D01*
X148807833Y-127399479D01*
X148499799Y-126938473D01*
X148038793Y-126630439D01*
X147495000Y-126522272D01*
X146951207Y-126630439D01*
X146490201Y-126938473D01*
X146182167Y-127399479D01*
X146074000Y-127943272D01*
X143836000Y-127943272D01*
X143727833Y-127399479D01*
X143419799Y-126938473D01*
X142958793Y-126630439D01*
X142415000Y-126522272D01*
X141871207Y-126630439D01*
X141410201Y-126938473D01*
X141102167Y-127399479D01*
X140994000Y-127943272D01*
X138763464Y-127943272D01*
X138763464Y-126946000D01*
X138736897Y-126804810D01*
X138653454Y-126675135D01*
X138526134Y-126588141D01*
X138375000Y-126557536D01*
X136295000Y-126557536D01*
X136153810Y-126584103D01*
X136024135Y-126667546D01*
X135937141Y-126794866D01*
X135906536Y-126946000D01*
X95221000Y-126946000D01*
X95221000Y-114808000D01*
X102743000Y-114808000D01*
X102743000Y-117856000D01*
X102769056Y-117994477D01*
X102850896Y-118121660D01*
X102975770Y-118206983D01*
X103124000Y-118237000D01*
X105664000Y-118237000D01*
X105802477Y-118210944D01*
X105929660Y-118129104D01*
X106014983Y-118004230D01*
X106045000Y-117856000D01*
X106045000Y-117213000D01*
X144031915Y-117213000D01*
X144369059Y-117145938D01*
X144654876Y-116954961D01*
X150349972Y-111259865D01*
X155163882Y-111259865D01*
X155267339Y-111510252D01*
X155458741Y-111701987D01*
X155708946Y-111805882D01*
X155979865Y-111806118D01*
X156230252Y-111702661D01*
X156421987Y-111511259D01*
X156525882Y-111261054D01*
X156526118Y-110990135D01*
X156422661Y-110739748D01*
X156231259Y-110548013D01*
X155981054Y-110444118D01*
X155710135Y-110443882D01*
X155459748Y-110547339D01*
X155268013Y-110738741D01*
X155164118Y-110988946D01*
X155163882Y-111259865D01*
X150349972Y-111259865D01*
X153978729Y-107631108D01*
X154029770Y-107665983D01*
X154178000Y-107696000D01*
X158877000Y-107696000D01*
X159015477Y-107669944D01*
X159142660Y-107588104D01*
X159227983Y-107463230D01*
X159258000Y-107315000D01*
X159258000Y-106045000D01*
X159231944Y-105906523D01*
X159150104Y-105779340D01*
X159025230Y-105694017D01*
X158877000Y-105664000D01*
X154178000Y-105664000D01*
X154039523Y-105690056D01*
X153912340Y-105771896D01*
X153893821Y-105799000D01*
X153683915Y-105799000D01*
X153346771Y-105866062D01*
X153060954Y-106057039D01*
X143666993Y-115451000D01*
X128897000Y-115451000D01*
X128897000Y-108902500D01*
X128829938Y-108565356D01*
X128638961Y-108279539D01*
X128353144Y-108088562D01*
X128016000Y-108021500D01*
X127678856Y-108088562D01*
X127393039Y-108279539D01*
X127202062Y-108565356D01*
X127135000Y-108902500D01*
X127135000Y-115451000D01*
X106045000Y-115451000D01*
X106045000Y-114808000D01*
X106018944Y-114669523D01*
X105937104Y-114542340D01*
X105812230Y-114457017D01*
X105664000Y-114427000D01*
X103124000Y-114427000D01*
X102985523Y-114453056D01*
X102858340Y-114534896D01*
X102773017Y-114659770D01*
X102743000Y-114808000D01*
X95221000Y-114808000D01*
X95221000Y-114180865D01*
X122000882Y-114180865D01*
X122104339Y-114431252D01*
X122295741Y-114622987D01*
X122545946Y-114726882D01*
X122816865Y-114727118D01*
X123067252Y-114623661D01*
X123258987Y-114432259D01*
X123362882Y-114182054D01*
X123363118Y-113911135D01*
X123259661Y-113660748D01*
X123068259Y-113469013D01*
X122818054Y-113365118D01*
X122547135Y-113364882D01*
X122296748Y-113468339D01*
X122105013Y-113659741D01*
X122001118Y-113909946D01*
X122000882Y-114180865D01*
X95221000Y-114180865D01*
X95221000Y-105544865D01*
X101553882Y-105544865D01*
X101657339Y-105795252D01*
X101848741Y-105986987D01*
X102098946Y-106090882D01*
X102369865Y-106091118D01*
X102620252Y-105987661D01*
X102811987Y-105796259D01*
X102915882Y-105546054D01*
X102916118Y-105275135D01*
X102812661Y-105024748D01*
X102621259Y-104833013D01*
X102371054Y-104729118D01*
X102100135Y-104728882D01*
X101849748Y-104832339D01*
X101658013Y-105023741D01*
X101554118Y-105273946D01*
X101553882Y-105544865D01*
X95221000Y-105544865D01*
X95221000Y-104355814D01*
X102466059Y-104355814D01*
X102569516Y-104606201D01*
X102760918Y-104797936D01*
X103011123Y-104901831D01*
X103282042Y-104902067D01*
X103532429Y-104798610D01*
X103548201Y-104782865D01*
X122000882Y-104782865D01*
X122104339Y-105033252D01*
X122163420Y-105092436D01*
X122105013Y-105150741D01*
X122001118Y-105400946D01*
X122000882Y-105671865D01*
X122104339Y-105922252D01*
X122163420Y-105981436D01*
X122105013Y-106039741D01*
X122001118Y-106289946D01*
X122000882Y-106560865D01*
X122104339Y-106811252D01*
X122226920Y-106934046D01*
X122105013Y-107055741D01*
X122001118Y-107305946D01*
X122000882Y-107576865D01*
X122104339Y-107827252D01*
X122295741Y-108018987D01*
X122545946Y-108122882D01*
X122816865Y-108123118D01*
X123067252Y-108019661D01*
X123258987Y-107828259D01*
X123362882Y-107578054D01*
X123363118Y-107307135D01*
X123259661Y-107056748D01*
X123239813Y-107036865D01*
X143638882Y-107036865D01*
X143742339Y-107287252D01*
X143933741Y-107478987D01*
X144183946Y-107582882D01*
X144454865Y-107583118D01*
X144705252Y-107479661D01*
X144896987Y-107288259D01*
X145000882Y-107038054D01*
X145001118Y-106767135D01*
X144897661Y-106516748D01*
X144706259Y-106325013D01*
X144456054Y-106221118D01*
X144185135Y-106220882D01*
X143934748Y-106324339D01*
X143743013Y-106515741D01*
X143639118Y-106765946D01*
X143638882Y-107036865D01*
X123239813Y-107036865D01*
X123137080Y-106933954D01*
X123258987Y-106812259D01*
X123362882Y-106562054D01*
X123363118Y-106291135D01*
X123259661Y-106040748D01*
X123200580Y-105981564D01*
X123258987Y-105923259D01*
X123362882Y-105673054D01*
X123363118Y-105402135D01*
X123259661Y-105151748D01*
X123200580Y-105092564D01*
X123258987Y-105034259D01*
X123362882Y-104784054D01*
X123363118Y-104513135D01*
X123259661Y-104262748D01*
X123068259Y-104071013D01*
X122818054Y-103967118D01*
X122547135Y-103966882D01*
X122296748Y-104070339D01*
X122105013Y-104261741D01*
X122001118Y-104511946D01*
X122000882Y-104782865D01*
X103548201Y-104782865D01*
X103724164Y-104607208D01*
X103828059Y-104357003D01*
X103828295Y-104086084D01*
X103724838Y-103835697D01*
X103533436Y-103643962D01*
X103283231Y-103540067D01*
X103012312Y-103539831D01*
X102761925Y-103643288D01*
X102570190Y-103834690D01*
X102466295Y-104084895D01*
X102466059Y-104355814D01*
X95221000Y-104355814D01*
X95221000Y-103254743D01*
X103384599Y-103254743D01*
X103488056Y-103505130D01*
X103679458Y-103696865D01*
X103929663Y-103800760D01*
X104200582Y-103800996D01*
X104450969Y-103697539D01*
X104642704Y-103506137D01*
X104746599Y-103255932D01*
X104746835Y-102985013D01*
X104643378Y-102734626D01*
X104451976Y-102542891D01*
X104201771Y-102438996D01*
X103930852Y-102438760D01*
X103680465Y-102542217D01*
X103488730Y-102733619D01*
X103384835Y-102983824D01*
X103384599Y-103254743D01*
X95221000Y-103254743D01*
X95221000Y-102150814D01*
X104358433Y-102150814D01*
X104461890Y-102401201D01*
X104653292Y-102592936D01*
X104903497Y-102696831D01*
X105174416Y-102697067D01*
X105424803Y-102593610D01*
X105616538Y-102402208D01*
X105720433Y-102152003D01*
X105720446Y-102137058D01*
X122104480Y-102137058D01*
X122207937Y-102387445D01*
X122399339Y-102579180D01*
X122649544Y-102683075D01*
X122920463Y-102683311D01*
X123170850Y-102579854D01*
X123362585Y-102388452D01*
X123466480Y-102138247D01*
X123466716Y-101867328D01*
X123363259Y-101616941D01*
X123171857Y-101425206D01*
X122921652Y-101321311D01*
X122650733Y-101321075D01*
X122400346Y-101424532D01*
X122208611Y-101615934D01*
X122104716Y-101866139D01*
X122104480Y-102137058D01*
X105720446Y-102137058D01*
X105720669Y-101881084D01*
X105617212Y-101630697D01*
X105463410Y-101476628D01*
X105622481Y-101317833D01*
X105726376Y-101067628D01*
X105726612Y-100796709D01*
X105623155Y-100546322D01*
X105431753Y-100354587D01*
X105181548Y-100250692D01*
X104910629Y-100250456D01*
X104660242Y-100353913D01*
X104468507Y-100545315D01*
X104364612Y-100795520D01*
X104364376Y-101066439D01*
X104467833Y-101316826D01*
X104621635Y-101470895D01*
X104462564Y-101629690D01*
X104358669Y-101879895D01*
X104358433Y-102150814D01*
X95221000Y-102150814D01*
X95221000Y-99829865D01*
X138764882Y-99829865D01*
X138868339Y-100080252D01*
X139059741Y-100271987D01*
X139309946Y-100375882D01*
X139580865Y-100376118D01*
X139831252Y-100272661D01*
X140022987Y-100081259D01*
X140126882Y-99831054D01*
X140127118Y-99560135D01*
X140023661Y-99309748D01*
X139832259Y-99118013D01*
X139582054Y-99014118D01*
X139311135Y-99013882D01*
X139060748Y-99117339D01*
X138869013Y-99308741D01*
X138765118Y-99558946D01*
X138764882Y-99829865D01*
X95221000Y-99829865D01*
X95221000Y-98852574D01*
X122047456Y-98852574D01*
X122150913Y-99102961D01*
X122342315Y-99294696D01*
X122592520Y-99398591D01*
X122863439Y-99398827D01*
X123113826Y-99295370D01*
X123305561Y-99103968D01*
X123409456Y-98853763D01*
X123409692Y-98582844D01*
X123306235Y-98332457D01*
X123114833Y-98140722D01*
X122864628Y-98036827D01*
X122593709Y-98036591D01*
X122343322Y-98140048D01*
X122151587Y-98331450D01*
X122047692Y-98581655D01*
X122047456Y-98852574D01*
X95221000Y-98852574D01*
X95221000Y-96654865D01*
X138764882Y-96654865D01*
X138868339Y-96905252D01*
X139059741Y-97096987D01*
X139309946Y-97200882D01*
X139580865Y-97201118D01*
X139831252Y-97097661D01*
X140022987Y-96906259D01*
X140126882Y-96656054D01*
X140126883Y-96654865D01*
X140415882Y-96654865D01*
X140519339Y-96905252D01*
X140710741Y-97096987D01*
X140960946Y-97200882D01*
X141231865Y-97201118D01*
X141482252Y-97097661D01*
X141673987Y-96906259D01*
X141777882Y-96656054D01*
X141778118Y-96385135D01*
X141674661Y-96134748D01*
X141483259Y-95943013D01*
X141233054Y-95839118D01*
X140962135Y-95838882D01*
X140711748Y-95942339D01*
X140520013Y-96133741D01*
X140416118Y-96383946D01*
X140415882Y-96654865D01*
X140126883Y-96654865D01*
X140127118Y-96385135D01*
X140023661Y-96134748D01*
X139832259Y-95943013D01*
X139582054Y-95839118D01*
X139311135Y-95838882D01*
X139060748Y-95942339D01*
X138869013Y-96133741D01*
X138765118Y-96383946D01*
X138764882Y-96654865D01*
X95221000Y-96654865D01*
X95221000Y-92435039D01*
X101870096Y-92435039D01*
X101887633Y-92517819D01*
X102157500Y-93010896D01*
X102595517Y-93363166D01*
X103135000Y-93521000D01*
X104285000Y-93521000D01*
X104285000Y-92213000D01*
X104539000Y-92213000D01*
X104539000Y-93521000D01*
X105689000Y-93521000D01*
X106228483Y-93363166D01*
X106666500Y-93010896D01*
X106936367Y-92517819D01*
X106953904Y-92435039D01*
X106831915Y-92213000D01*
X104539000Y-92213000D01*
X104285000Y-92213000D01*
X101992085Y-92213000D01*
X101870096Y-92435039D01*
X95221000Y-92435039D01*
X95221000Y-91736961D01*
X101870096Y-91736961D01*
X101992085Y-91959000D01*
X104285000Y-91959000D01*
X104285000Y-90651000D01*
X103135000Y-90651000D01*
X102595517Y-90808834D01*
X102157500Y-91161104D01*
X101887633Y-91654181D01*
X101870096Y-91736961D01*
X95221000Y-91736961D01*
X95221000Y-87636000D01*
X101856883Y-87636000D01*
X101927751Y-87992278D01*
X102129567Y-88294316D01*
X102341611Y-88436000D01*
X102129567Y-88577684D01*
X101927751Y-88879722D01*
X101856883Y-89236000D01*
X101927751Y-89592278D01*
X102129567Y-89894316D01*
X102431605Y-90096132D01*
X102787883Y-90167000D01*
X103436117Y-90167000D01*
X103792395Y-90096132D01*
X104094433Y-89894316D01*
X104296249Y-89592278D01*
X104367117Y-89236000D01*
X104296249Y-88879722D01*
X104094433Y-88577684D01*
X103882389Y-88436000D01*
X104094433Y-88294316D01*
X104296249Y-87992278D01*
X104367117Y-87636000D01*
X104296249Y-87279722D01*
X104206728Y-87145744D01*
X104268197Y-87145744D01*
X104268602Y-87172146D01*
X104484276Y-87584118D01*
X104724725Y-87784931D01*
X104527751Y-88079722D01*
X104456883Y-88436000D01*
X104527751Y-88792278D01*
X104729567Y-89094316D01*
X104762427Y-89116272D01*
X104720810Y-89124103D01*
X104591135Y-89207546D01*
X104504141Y-89334866D01*
X104473536Y-89486000D01*
X104473536Y-90586000D01*
X104500103Y-90727190D01*
X104539000Y-90787638D01*
X104539000Y-91959000D01*
X106831915Y-91959000D01*
X106953904Y-91736961D01*
X106936367Y-91654181D01*
X106858203Y-91511365D01*
X110507382Y-91511365D01*
X110610839Y-91761752D01*
X110802241Y-91953487D01*
X111052446Y-92057382D01*
X111323365Y-92057618D01*
X111573752Y-91954161D01*
X111765487Y-91762759D01*
X111869382Y-91512554D01*
X111869618Y-91241635D01*
X111766161Y-90991248D01*
X111574759Y-90799513D01*
X111324554Y-90695618D01*
X111053635Y-90695382D01*
X110803248Y-90798839D01*
X110611513Y-90990241D01*
X110507618Y-91240446D01*
X110507382Y-91511365D01*
X106858203Y-91511365D01*
X106666500Y-91161104D01*
X106434429Y-90974464D01*
X106562000Y-90974464D01*
X106703190Y-90947897D01*
X106832865Y-90864454D01*
X106919859Y-90737134D01*
X106950464Y-90586000D01*
X106950464Y-90168758D01*
X115458344Y-90168758D01*
X115561801Y-90419145D01*
X115753203Y-90610880D01*
X116003408Y-90714775D01*
X116274327Y-90715011D01*
X116524714Y-90611554D01*
X116716449Y-90420152D01*
X116820344Y-90169947D01*
X116820580Y-89899028D01*
X116717123Y-89648641D01*
X116525721Y-89456906D01*
X116275516Y-89353011D01*
X116004597Y-89352775D01*
X115754210Y-89456232D01*
X115562475Y-89647634D01*
X115458580Y-89897839D01*
X115458344Y-90168758D01*
X106950464Y-90168758D01*
X106950464Y-89486000D01*
X106923897Y-89344810D01*
X106840454Y-89215135D01*
X106713134Y-89128141D01*
X106659934Y-89117368D01*
X106694433Y-89094316D01*
X106896249Y-88792278D01*
X106967117Y-88436000D01*
X106896249Y-88079722D01*
X106699275Y-87784931D01*
X106939724Y-87584118D01*
X107155398Y-87172146D01*
X107155803Y-87145744D01*
X107030361Y-86963000D01*
X105839000Y-86963000D01*
X105839000Y-86983000D01*
X105585000Y-86983000D01*
X105585000Y-86963000D01*
X104393639Y-86963000D01*
X104268197Y-87145744D01*
X104206728Y-87145744D01*
X104094433Y-86977684D01*
X103792395Y-86775868D01*
X103436117Y-86705000D01*
X102787883Y-86705000D01*
X102431605Y-86775868D01*
X102129567Y-86977684D01*
X101927751Y-87279722D01*
X101856883Y-87636000D01*
X95221000Y-87636000D01*
X95221000Y-86526256D01*
X104268197Y-86526256D01*
X104393639Y-86709000D01*
X105585000Y-86709000D01*
X105585000Y-86689000D01*
X105839000Y-86689000D01*
X105839000Y-86709000D01*
X107030361Y-86709000D01*
X107090173Y-86621865D01*
X136986882Y-86621865D01*
X137090339Y-86872252D01*
X137281741Y-87063987D01*
X137531946Y-87167882D01*
X137802865Y-87168118D01*
X138053252Y-87064661D01*
X138116022Y-87002000D01*
X145573536Y-87002000D01*
X145573536Y-88702000D01*
X145600103Y-88843190D01*
X145683546Y-88972865D01*
X145810866Y-89059859D01*
X145962000Y-89090464D01*
X147662000Y-89090464D01*
X147803190Y-89063897D01*
X147932865Y-88980454D01*
X148019859Y-88853134D01*
X148050464Y-88702000D01*
X148050464Y-87827883D01*
X148121000Y-87827883D01*
X148121000Y-87876117D01*
X148214704Y-88347200D01*
X148481552Y-88746565D01*
X148880917Y-89013413D01*
X149352000Y-89107117D01*
X149823083Y-89013413D01*
X150222448Y-88746565D01*
X150489296Y-88347200D01*
X150518973Y-88198000D01*
X154209000Y-88198000D01*
X154209000Y-99053356D01*
X154264644Y-99333098D01*
X154308563Y-99398827D01*
X154423105Y-99570251D01*
X159793909Y-104941055D01*
X159793909Y-108498082D01*
X157138105Y-111153886D01*
X156979644Y-111391039D01*
X156924000Y-111670781D01*
X156924000Y-126755527D01*
X156650201Y-126938473D01*
X156342167Y-127399479D01*
X156234000Y-127943272D01*
X156234000Y-129548728D01*
X156342167Y-130092521D01*
X156650201Y-130553527D01*
X157111207Y-130861561D01*
X157655000Y-130969728D01*
X158198793Y-130861561D01*
X158659799Y-130553527D01*
X158967833Y-130092521D01*
X159076000Y-129548728D01*
X159076000Y-127943272D01*
X158967833Y-127399479D01*
X158659799Y-126938473D01*
X158386000Y-126755527D01*
X158386000Y-111973571D01*
X161041804Y-109317767D01*
X161200265Y-109080614D01*
X161255909Y-108800872D01*
X161255909Y-104638265D01*
X161200265Y-104358523D01*
X161041804Y-104121370D01*
X159663041Y-102742607D01*
X167517214Y-102742607D01*
X167620671Y-102992994D01*
X167812073Y-103184729D01*
X168062278Y-103288624D01*
X168333197Y-103288860D01*
X168583584Y-103185403D01*
X168775319Y-102994001D01*
X168879214Y-102743796D01*
X168879450Y-102472877D01*
X168775993Y-102222490D01*
X168584591Y-102030755D01*
X168334386Y-101926860D01*
X168063467Y-101926624D01*
X167813080Y-102030081D01*
X167621345Y-102221483D01*
X167517450Y-102471688D01*
X167517214Y-102742607D01*
X159663041Y-102742607D01*
X155671000Y-98750566D01*
X155671000Y-90116038D01*
X158703027Y-90116038D01*
X158806484Y-90366425D01*
X158903145Y-90463254D01*
X158903145Y-96391796D01*
X158921302Y-96483076D01*
X158939759Y-96575867D01*
X159044027Y-96731914D01*
X161801870Y-99489758D01*
X161905417Y-99558946D01*
X161957918Y-99594026D01*
X162141989Y-99630640D01*
X188029422Y-99630640D01*
X188127645Y-99729034D01*
X188377850Y-99832929D01*
X188648769Y-99833165D01*
X188899156Y-99729708D01*
X189090891Y-99538306D01*
X189194786Y-99288101D01*
X189195022Y-99017182D01*
X189091565Y-98766795D01*
X188900163Y-98575060D01*
X188649958Y-98471165D01*
X188379039Y-98470929D01*
X188128652Y-98574386D01*
X188034234Y-98668640D01*
X186635539Y-98668640D01*
X187111358Y-98445183D01*
X187501645Y-98016924D01*
X187671476Y-97606890D01*
X187550155Y-97377000D01*
X186357000Y-97377000D01*
X186357000Y-97397000D01*
X186103000Y-97397000D01*
X186103000Y-97377000D01*
X184909845Y-97377000D01*
X184788524Y-97606890D01*
X184958355Y-98016924D01*
X185348642Y-98445183D01*
X185824461Y-98668640D01*
X162341226Y-98668640D01*
X159865145Y-96192560D01*
X159865145Y-96146865D01*
X159973882Y-96146865D01*
X160077339Y-96397252D01*
X160268741Y-96588987D01*
X160518946Y-96692882D01*
X160789865Y-96693118D01*
X161040252Y-96589661D01*
X161231987Y-96398259D01*
X161335882Y-96148054D01*
X161336118Y-95877135D01*
X161232661Y-95626748D01*
X161041259Y-95435013D01*
X160791054Y-95331118D01*
X160520135Y-95330882D01*
X160269748Y-95434339D01*
X160078013Y-95625741D01*
X159974118Y-95875946D01*
X159973882Y-96146865D01*
X159865145Y-96146865D01*
X159865145Y-94623439D01*
X161119049Y-94623439D01*
X161222506Y-94873826D01*
X161319167Y-94970655D01*
X161319167Y-95345890D01*
X161336761Y-95434339D01*
X161355781Y-95529961D01*
X161460049Y-95686008D01*
X163141891Y-97367851D01*
X163235435Y-97430354D01*
X163297938Y-97472118D01*
X163482009Y-97508732D01*
X179323366Y-97508732D01*
X179507437Y-97472118D01*
X179663484Y-97367850D01*
X180138224Y-96893110D01*
X184788524Y-96893110D01*
X184909845Y-97123000D01*
X186103000Y-97123000D01*
X186103000Y-97103000D01*
X186357000Y-97103000D01*
X186357000Y-97123000D01*
X187550155Y-97123000D01*
X187671476Y-96893110D01*
X187501645Y-96483076D01*
X187111358Y-96054817D01*
X186686053Y-95855083D01*
X186725200Y-95847296D01*
X187124565Y-95580448D01*
X187391413Y-95181083D01*
X187485117Y-94710000D01*
X187391413Y-94238917D01*
X187124565Y-93839552D01*
X186725200Y-93572704D01*
X186254117Y-93479000D01*
X186205883Y-93479000D01*
X185734800Y-93572704D01*
X185335435Y-93839552D01*
X185068587Y-94238917D01*
X184974883Y-94710000D01*
X185068587Y-95181083D01*
X185335435Y-95580448D01*
X185734800Y-95847296D01*
X185773947Y-95855083D01*
X185348642Y-96054817D01*
X184958355Y-96483076D01*
X184788524Y-96893110D01*
X180138224Y-96893110D01*
X184388201Y-92643133D01*
X185069957Y-92643133D01*
X185335435Y-93040448D01*
X185734800Y-93307296D01*
X186205883Y-93401000D01*
X186254117Y-93401000D01*
X186725200Y-93307296D01*
X187124565Y-93040448D01*
X187391413Y-92641083D01*
X187485117Y-92170000D01*
X187391413Y-91698917D01*
X187124565Y-91299552D01*
X186725200Y-91032704D01*
X186254117Y-90939000D01*
X186205883Y-90939000D01*
X185734800Y-91032704D01*
X185335435Y-91299552D01*
X185080470Y-91681133D01*
X184188965Y-91681133D01*
X184004894Y-91717747D01*
X183848847Y-91822015D01*
X179124130Y-96546732D01*
X169973256Y-96546732D01*
X170121987Y-96398259D01*
X170225882Y-96148054D01*
X170226118Y-95877135D01*
X170122661Y-95626748D01*
X169973085Y-95476912D01*
X178354429Y-95476912D01*
X178538500Y-95440298D01*
X178694547Y-95336030D01*
X183937421Y-90093157D01*
X185067010Y-90093157D01*
X185068587Y-90101083D01*
X185335435Y-90500448D01*
X185734800Y-90767296D01*
X186205883Y-90861000D01*
X186254117Y-90861000D01*
X186725200Y-90767296D01*
X187124565Y-90500448D01*
X187391413Y-90101083D01*
X187485117Y-89630000D01*
X187391413Y-89158917D01*
X187124565Y-88759552D01*
X186725200Y-88492704D01*
X186254117Y-88399000D01*
X186205883Y-88399000D01*
X185734800Y-88492704D01*
X185335435Y-88759552D01*
X185087136Y-89131157D01*
X183738184Y-89131157D01*
X183554113Y-89167771D01*
X183398065Y-89272039D01*
X178155193Y-94514912D01*
X163804258Y-94514912D01*
X163708438Y-94418925D01*
X163458233Y-94315030D01*
X163187314Y-94314794D01*
X162936927Y-94418251D01*
X162745192Y-94609653D01*
X162641297Y-94859858D01*
X162641061Y-95130777D01*
X162744518Y-95381164D01*
X162935920Y-95572899D01*
X163186125Y-95676794D01*
X163457044Y-95677030D01*
X163707431Y-95573573D01*
X163804260Y-95476912D01*
X169117101Y-95476912D01*
X168968013Y-95625741D01*
X168864118Y-95875946D01*
X168863882Y-96146865D01*
X168967339Y-96397252D01*
X169116559Y-96546732D01*
X163681246Y-96546732D01*
X162281167Y-95146654D01*
X162281167Y-94970653D01*
X162377154Y-94874833D01*
X162481049Y-94624628D01*
X162481285Y-94353709D01*
X162377828Y-94103322D01*
X162186426Y-93911587D01*
X161936221Y-93807692D01*
X161665302Y-93807456D01*
X161414915Y-93910913D01*
X161223180Y-94102315D01*
X161119285Y-94352520D01*
X161119049Y-94623439D01*
X159865145Y-94623439D01*
X159865145Y-93606865D01*
X167720882Y-93606865D01*
X167824339Y-93857252D01*
X168015741Y-94048987D01*
X168265946Y-94152882D01*
X168536865Y-94153118D01*
X168787252Y-94049661D01*
X168884742Y-93952340D01*
X176901669Y-93952340D01*
X177085740Y-93915726D01*
X177241787Y-93811458D01*
X181468310Y-89584936D01*
X181534416Y-89486000D01*
X181572577Y-89428889D01*
X181609191Y-89244818D01*
X181609191Y-87224865D01*
X183008882Y-87224865D01*
X183112339Y-87475252D01*
X183303741Y-87666987D01*
X183553946Y-87770882D01*
X183824865Y-87771118D01*
X184075252Y-87667661D01*
X184266987Y-87476259D01*
X184370882Y-87226054D01*
X184371118Y-86955135D01*
X184267661Y-86704748D01*
X184076259Y-86513013D01*
X183826054Y-86409118D01*
X183555135Y-86408882D01*
X183304748Y-86512339D01*
X183113013Y-86703741D01*
X183009118Y-86953946D01*
X183008882Y-87224865D01*
X181609191Y-87224865D01*
X181609191Y-86240000D01*
X184991536Y-86240000D01*
X184991536Y-87940000D01*
X185018103Y-88081190D01*
X185101546Y-88210865D01*
X185228866Y-88297859D01*
X185380000Y-88328464D01*
X187080000Y-88328464D01*
X187221190Y-88301897D01*
X187350865Y-88218454D01*
X187437859Y-88091134D01*
X187468464Y-87940000D01*
X187468464Y-86240000D01*
X187441897Y-86098810D01*
X187358454Y-85969135D01*
X187231134Y-85882141D01*
X187080000Y-85851536D01*
X185380000Y-85851536D01*
X185238810Y-85878103D01*
X185109135Y-85961546D01*
X185022141Y-86088866D01*
X184991536Y-86240000D01*
X181609191Y-86240000D01*
X181609191Y-81903778D01*
X181621083Y-81901413D01*
X182020448Y-81634565D01*
X182287296Y-81235200D01*
X182295083Y-81196053D01*
X182494817Y-81621358D01*
X182923076Y-82011645D01*
X183333110Y-82181476D01*
X183563000Y-82060155D01*
X183563000Y-80867000D01*
X183817000Y-80867000D01*
X183817000Y-82060155D01*
X184046890Y-82181476D01*
X184456924Y-82011645D01*
X184885183Y-81621358D01*
X185131486Y-81096892D01*
X185010819Y-80867000D01*
X183817000Y-80867000D01*
X183563000Y-80867000D01*
X183543000Y-80867000D01*
X183543000Y-80613000D01*
X183563000Y-80613000D01*
X183563000Y-79419845D01*
X183817000Y-79419845D01*
X183817000Y-80613000D01*
X185010819Y-80613000D01*
X185131486Y-80383108D01*
X184885183Y-79858642D01*
X184456924Y-79468355D01*
X184046890Y-79298524D01*
X183817000Y-79419845D01*
X183563000Y-79419845D01*
X183333110Y-79298524D01*
X182923076Y-79468355D01*
X182494817Y-79858642D01*
X182295083Y-80283947D01*
X182287296Y-80244800D01*
X182020448Y-79845435D01*
X181621083Y-79578587D01*
X181150000Y-79484883D01*
X180678917Y-79578587D01*
X180279552Y-79845435D01*
X180012704Y-80244800D01*
X179919000Y-80715883D01*
X179919000Y-80764117D01*
X180012704Y-81235200D01*
X180279552Y-81634565D01*
X180647191Y-81880214D01*
X180647191Y-89045581D01*
X176702433Y-92990340D01*
X168883420Y-92990340D01*
X168788259Y-92895013D01*
X168538054Y-92791118D01*
X168267135Y-92790882D01*
X168016748Y-92894339D01*
X167825013Y-93085741D01*
X167721118Y-93335946D01*
X167720882Y-93606865D01*
X159865145Y-93606865D01*
X159865145Y-90463252D01*
X159961132Y-90367432D01*
X160065027Y-90117227D01*
X160065263Y-89846308D01*
X159961806Y-89595921D01*
X159770404Y-89404186D01*
X159711833Y-89379865D01*
X164636882Y-89379865D01*
X164740339Y-89630252D01*
X164931741Y-89821987D01*
X165181946Y-89925882D01*
X165452865Y-89926118D01*
X165703252Y-89822661D01*
X165894987Y-89631259D01*
X165998882Y-89381054D01*
X165999118Y-89110135D01*
X165895661Y-88859748D01*
X165704259Y-88668013D01*
X165454054Y-88564118D01*
X165183135Y-88563882D01*
X164932748Y-88667339D01*
X164741013Y-88858741D01*
X164637118Y-89108946D01*
X164636882Y-89379865D01*
X159711833Y-89379865D01*
X159520199Y-89300291D01*
X159249280Y-89300055D01*
X158998893Y-89403512D01*
X158807158Y-89594914D01*
X158703263Y-89845119D01*
X158703027Y-90116038D01*
X155671000Y-90116038D01*
X155671000Y-88198000D01*
X155615356Y-87918258D01*
X155456895Y-87681105D01*
X155219742Y-87522644D01*
X154940000Y-87467000D01*
X154660258Y-87522644D01*
X154423105Y-87681105D01*
X154264644Y-87918258D01*
X154209000Y-88198000D01*
X150518973Y-88198000D01*
X150583000Y-87876117D01*
X150583000Y-87827883D01*
X150494680Y-87383865D01*
X159973882Y-87383865D01*
X160077339Y-87634252D01*
X160268741Y-87825987D01*
X160518946Y-87929882D01*
X160789865Y-87930118D01*
X161040252Y-87826661D01*
X161134211Y-87732865D01*
X177420882Y-87732865D01*
X177524339Y-87983252D01*
X177715741Y-88174987D01*
X177965946Y-88278882D01*
X178236865Y-88279118D01*
X178487252Y-88175661D01*
X178678987Y-87984259D01*
X178782882Y-87734054D01*
X178783118Y-87463135D01*
X178679661Y-87212748D01*
X178488259Y-87021013D01*
X178238054Y-86917118D01*
X177967135Y-86916882D01*
X177716748Y-87020339D01*
X177525013Y-87211741D01*
X177421118Y-87461946D01*
X177420882Y-87732865D01*
X161134211Y-87732865D01*
X161231987Y-87635259D01*
X161335882Y-87385054D01*
X161336118Y-87114135D01*
X161232661Y-86863748D01*
X161041259Y-86672013D01*
X160791054Y-86568118D01*
X160520135Y-86567882D01*
X160269748Y-86671339D01*
X160078013Y-86862741D01*
X159974118Y-87112946D01*
X159973882Y-87383865D01*
X150494680Y-87383865D01*
X150489296Y-87356800D01*
X150222448Y-86957435D01*
X149823083Y-86690587D01*
X149352000Y-86596883D01*
X148880917Y-86690587D01*
X148481552Y-86957435D01*
X148214704Y-87356800D01*
X148121000Y-87827883D01*
X148050464Y-87827883D01*
X148050464Y-87002000D01*
X148023897Y-86860810D01*
X147940454Y-86731135D01*
X147813134Y-86644141D01*
X147662000Y-86613536D01*
X145962000Y-86613536D01*
X145820810Y-86640103D01*
X145691135Y-86723546D01*
X145604141Y-86850866D01*
X145573536Y-87002000D01*
X138116022Y-87002000D01*
X138244987Y-86873259D01*
X138348882Y-86623054D01*
X138349118Y-86352135D01*
X138245661Y-86101748D01*
X138130978Y-85986865D01*
X165688882Y-85986865D01*
X165792339Y-86237252D01*
X165983741Y-86428987D01*
X166233946Y-86532882D01*
X166504865Y-86533118D01*
X166755252Y-86429661D01*
X166946987Y-86238259D01*
X167050882Y-85988054D01*
X167051118Y-85717135D01*
X166947661Y-85466748D01*
X166756259Y-85275013D01*
X166506054Y-85171118D01*
X166235135Y-85170882D01*
X165984748Y-85274339D01*
X165793013Y-85465741D01*
X165689118Y-85715946D01*
X165688882Y-85986865D01*
X138130978Y-85986865D01*
X138054259Y-85910013D01*
X137804054Y-85806118D01*
X137533135Y-85805882D01*
X137282748Y-85909339D01*
X137091013Y-86100741D01*
X136987118Y-86350946D01*
X136986882Y-86621865D01*
X107090173Y-86621865D01*
X107155803Y-86526256D01*
X107155398Y-86499854D01*
X106939724Y-86087882D01*
X106582813Y-85789804D01*
X106572425Y-85786555D01*
X106666500Y-85710896D01*
X106936367Y-85217819D01*
X106953904Y-85135039D01*
X106831915Y-84913000D01*
X104539000Y-84913000D01*
X104539000Y-86042179D01*
X104484276Y-86087882D01*
X104268602Y-86499854D01*
X104268197Y-86526256D01*
X95221000Y-86526256D01*
X95221000Y-83720653D01*
X95709994Y-84904109D01*
X96730519Y-85926417D01*
X98064581Y-86480368D01*
X99509082Y-86481628D01*
X100844109Y-85930006D01*
X101862890Y-84913002D01*
X101992084Y-84913002D01*
X101870096Y-85135039D01*
X101887633Y-85217819D01*
X102157500Y-85710896D01*
X102595517Y-86063166D01*
X103135000Y-86221000D01*
X104285000Y-86221000D01*
X104285000Y-84913000D01*
X104265000Y-84913000D01*
X104265000Y-84659000D01*
X104285000Y-84659000D01*
X104285000Y-83351000D01*
X104539000Y-83351000D01*
X104539000Y-84659000D01*
X106831915Y-84659000D01*
X106953904Y-84436961D01*
X106936367Y-84354181D01*
X106856834Y-84208865D01*
X131906882Y-84208865D01*
X132010339Y-84459252D01*
X132201741Y-84650987D01*
X132451946Y-84754882D01*
X132722865Y-84755118D01*
X132973252Y-84651661D01*
X133164987Y-84460259D01*
X133268882Y-84210054D01*
X133268883Y-84208865D01*
X134446882Y-84208865D01*
X134550339Y-84459252D01*
X134741741Y-84650987D01*
X134991946Y-84754882D01*
X135262865Y-84755118D01*
X135513252Y-84651661D01*
X135704987Y-84460259D01*
X135808882Y-84210054D01*
X135808883Y-84208865D01*
X136986882Y-84208865D01*
X137090339Y-84459252D01*
X137281741Y-84650987D01*
X137531946Y-84754882D01*
X137802865Y-84755118D01*
X138053252Y-84651661D01*
X138244987Y-84460259D01*
X138348882Y-84210054D01*
X138349118Y-83939135D01*
X138245661Y-83688748D01*
X138054259Y-83497013D01*
X137804054Y-83393118D01*
X137533135Y-83392882D01*
X137282748Y-83496339D01*
X137091013Y-83687741D01*
X136987118Y-83937946D01*
X136986882Y-84208865D01*
X135808883Y-84208865D01*
X135809118Y-83939135D01*
X135705661Y-83688748D01*
X135514259Y-83497013D01*
X135264054Y-83393118D01*
X134993135Y-83392882D01*
X134742748Y-83496339D01*
X134551013Y-83687741D01*
X134447118Y-83937946D01*
X134446882Y-84208865D01*
X133268883Y-84208865D01*
X133269118Y-83939135D01*
X133165661Y-83688748D01*
X132974259Y-83497013D01*
X132724054Y-83393118D01*
X132453135Y-83392882D01*
X132202748Y-83496339D01*
X132011013Y-83687741D01*
X131907118Y-83937946D01*
X131906882Y-84208865D01*
X106856834Y-84208865D01*
X106666500Y-83861104D01*
X106228483Y-83508834D01*
X105689000Y-83351000D01*
X104539000Y-83351000D01*
X104285000Y-83351000D01*
X103135000Y-83351000D01*
X102595517Y-83508834D01*
X102374062Y-83686937D01*
X102420368Y-83575419D01*
X102421628Y-82130918D01*
X102391137Y-82057122D01*
X142963825Y-82057122D01*
X143178466Y-82575332D01*
X143640608Y-83070012D01*
X144256877Y-83350183D01*
X144526000Y-83232604D01*
X144526000Y-81788000D01*
X144780000Y-81788000D01*
X144780000Y-83232604D01*
X145049123Y-83350183D01*
X145458700Y-83163979D01*
X168787251Y-83163979D01*
X168890708Y-83414366D01*
X169082110Y-83606101D01*
X169332315Y-83709996D01*
X169603234Y-83710232D01*
X169853621Y-83606775D01*
X170045356Y-83415373D01*
X170149251Y-83165168D01*
X170149487Y-82894249D01*
X170046030Y-82643862D01*
X169854628Y-82452127D01*
X169604423Y-82348232D01*
X169333504Y-82347996D01*
X169083117Y-82451453D01*
X168891382Y-82642855D01*
X168787487Y-82893060D01*
X168787251Y-83163979D01*
X145458700Y-83163979D01*
X145665392Y-83070012D01*
X146127534Y-82575332D01*
X146342175Y-82057122D01*
X146224125Y-81788000D01*
X144780000Y-81788000D01*
X144526000Y-81788000D01*
X143081875Y-81788000D01*
X142963825Y-82057122D01*
X102391137Y-82057122D01*
X102063788Y-81264878D01*
X142963825Y-81264878D01*
X143081875Y-81534000D01*
X144526000Y-81534000D01*
X144526000Y-80089396D01*
X144780000Y-80089396D01*
X144780000Y-81534000D01*
X146224125Y-81534000D01*
X146342175Y-81264878D01*
X146127534Y-80746668D01*
X145954079Y-80561000D01*
X153324536Y-80561000D01*
X153324536Y-82761000D01*
X153351103Y-82902190D01*
X153434546Y-83031865D01*
X153561866Y-83118859D01*
X153713000Y-83149464D01*
X155913000Y-83149464D01*
X156054190Y-83122897D01*
X156183865Y-83039454D01*
X156270859Y-82912134D01*
X156301464Y-82761000D01*
X156301464Y-80561000D01*
X156274897Y-80419810D01*
X156191454Y-80290135D01*
X156064134Y-80203141D01*
X155913000Y-80172536D01*
X153713000Y-80172536D01*
X153571810Y-80199103D01*
X153442135Y-80282546D01*
X153355141Y-80409866D01*
X153324536Y-80561000D01*
X145954079Y-80561000D01*
X145665392Y-80251988D01*
X145049123Y-79971817D01*
X144780000Y-80089396D01*
X144526000Y-80089396D01*
X144256877Y-79971817D01*
X143640608Y-80251988D01*
X143178466Y-80746668D01*
X142963825Y-81264878D01*
X102063788Y-81264878D01*
X101870006Y-80795891D01*
X100965695Y-79890000D01*
X177371536Y-79890000D01*
X177371536Y-81590000D01*
X177398103Y-81731190D01*
X177481546Y-81860865D01*
X177608866Y-81947859D01*
X177760000Y-81978464D01*
X179460000Y-81978464D01*
X179601190Y-81951897D01*
X179730865Y-81868454D01*
X179817859Y-81741134D01*
X179848464Y-81590000D01*
X179848464Y-79890000D01*
X179821897Y-79748810D01*
X179738454Y-79619135D01*
X179611134Y-79532141D01*
X179460000Y-79501536D01*
X177760000Y-79501536D01*
X177618810Y-79528103D01*
X177489135Y-79611546D01*
X177402141Y-79738866D01*
X177371536Y-79890000D01*
X100965695Y-79890000D01*
X100849481Y-79773583D01*
X99515419Y-79219632D01*
X98070918Y-79218372D01*
X97151088Y-79598438D01*
X97968526Y-78781000D01*
X191611474Y-78781000D01*
X192429783Y-79599309D01*
X192429783Y-79599309D01*
G37*
X192429783Y-79599309D02*
X191515419Y-79219632D01*
X190070918Y-79218372D01*
X188735891Y-79769994D01*
X187713583Y-80790519D01*
X187159632Y-82124581D01*
X187158372Y-83569082D01*
X187709994Y-84904109D01*
X188730519Y-85926417D01*
X190064581Y-86480368D01*
X191509082Y-86481628D01*
X192844109Y-85930006D01*
X193866417Y-84909481D01*
X194359000Y-83723210D01*
X194359000Y-106723000D01*
X170290000Y-106723000D01*
X170240590Y-106733006D01*
X170200242Y-106760153D01*
X165424663Y-111531001D01*
X165343596Y-111334802D01*
X165152194Y-111143067D01*
X164901989Y-111039172D01*
X164631070Y-111038936D01*
X164380683Y-111142393D01*
X164188948Y-111333795D01*
X164085053Y-111584000D01*
X164084817Y-111854919D01*
X164188274Y-112105306D01*
X164379676Y-112297041D01*
X164576185Y-112378639D01*
X160105242Y-116845153D01*
X160077358Y-116887153D01*
X160068003Y-116935837D01*
X160163003Y-131350837D01*
X160173334Y-131400180D01*
X160202048Y-131441616D01*
X160244622Y-131468616D01*
X160290000Y-131477000D01*
X186790000Y-131477000D01*
X186839410Y-131466994D01*
X186881035Y-131438553D01*
X186908315Y-131396159D01*
X186917000Y-131350000D01*
X186917000Y-122402606D01*
X190842606Y-118477000D01*
X194359000Y-118477000D01*
X194359000Y-129979347D01*
X193870006Y-128795891D01*
X192849481Y-127773583D01*
X191515419Y-127219632D01*
X190070918Y-127218372D01*
X188735891Y-127769994D01*
X187713583Y-128790519D01*
X187159632Y-130124581D01*
X187158372Y-131569082D01*
X187709994Y-132904109D01*
X188730519Y-133926417D01*
X190064581Y-134480368D01*
X191509082Y-134481628D01*
X192428912Y-134101562D01*
X191611474Y-134919000D01*
X97968526Y-134919000D01*
X97150217Y-134100691D01*
X98064581Y-134480368D01*
X99509082Y-134481628D01*
X100844109Y-133930006D01*
X101866417Y-132909481D01*
X102420368Y-131575419D01*
X102421628Y-130130918D01*
X102324232Y-129895200D01*
X104415405Y-129895200D01*
X104450692Y-130108768D01*
X104873564Y-130249149D01*
X105317968Y-130217018D01*
X105579308Y-130108768D01*
X105614595Y-129895200D01*
X113175405Y-129895200D01*
X113210692Y-130108768D01*
X113633564Y-130249149D01*
X114077968Y-130217018D01*
X114339308Y-130108768D01*
X114374595Y-129895200D01*
X113775000Y-129295605D01*
X113175405Y-129895200D01*
X105614595Y-129895200D01*
X105015000Y-129295605D01*
X104415405Y-129895200D01*
X102324232Y-129895200D01*
X101943833Y-128974564D01*
X103881851Y-128974564D01*
X103913982Y-129418968D01*
X104022232Y-129680308D01*
X104235800Y-129715595D01*
X104835395Y-129116000D01*
X105194605Y-129116000D01*
X105794200Y-129715595D01*
X106007768Y-129680308D01*
X106148149Y-129257436D01*
X106127697Y-128974564D01*
X112641851Y-128974564D01*
X112673982Y-129418968D01*
X112782232Y-129680308D01*
X112995800Y-129715595D01*
X113595395Y-129116000D01*
X113954605Y-129116000D01*
X114554200Y-129715595D01*
X114767768Y-129680308D01*
X114908149Y-129257436D01*
X114876018Y-128813032D01*
X114767768Y-128551692D01*
X114554200Y-128516405D01*
X113954605Y-129116000D01*
X113595395Y-129116000D01*
X112995800Y-128516405D01*
X112782232Y-128551692D01*
X112641851Y-128974564D01*
X106127697Y-128974564D01*
X106116018Y-128813032D01*
X106007768Y-128551692D01*
X105794200Y-128516405D01*
X105194605Y-129116000D01*
X104835395Y-129116000D01*
X104235800Y-128516405D01*
X104022232Y-128551692D01*
X103881851Y-128974564D01*
X101943833Y-128974564D01*
X101870006Y-128795891D01*
X101411716Y-128336800D01*
X104415405Y-128336800D01*
X105015000Y-128936395D01*
X105614595Y-128336800D01*
X113175405Y-128336800D01*
X113775000Y-128936395D01*
X114374595Y-128336800D01*
X114339308Y-128123232D01*
X113916436Y-127982851D01*
X113472032Y-128014982D01*
X113210692Y-128123232D01*
X113175405Y-128336800D01*
X105614595Y-128336800D01*
X105579308Y-128123232D01*
X105156436Y-127982851D01*
X104712032Y-128014982D01*
X104450692Y-128123232D01*
X104415405Y-128336800D01*
X101411716Y-128336800D01*
X100849481Y-127773583D01*
X99515419Y-127219632D01*
X98070918Y-127218372D01*
X96735891Y-127769994D01*
X95713583Y-128790519D01*
X95221000Y-129976790D01*
X95221000Y-126946000D01*
X135906536Y-126946000D01*
X135906536Y-130546000D01*
X135933103Y-130687190D01*
X136016546Y-130816865D01*
X136143866Y-130903859D01*
X136295000Y-130934464D01*
X138375000Y-130934464D01*
X138516190Y-130907897D01*
X138645865Y-130824454D01*
X138732859Y-130697134D01*
X138763464Y-130546000D01*
X138763464Y-127943272D01*
X140994000Y-127943272D01*
X140994000Y-129548728D01*
X141102167Y-130092521D01*
X141410201Y-130553527D01*
X141871207Y-130861561D01*
X142415000Y-130969728D01*
X142958793Y-130861561D01*
X143419799Y-130553527D01*
X143727833Y-130092521D01*
X143836000Y-129548728D01*
X143836000Y-127943272D01*
X146074000Y-127943272D01*
X146074000Y-129548728D01*
X146182167Y-130092521D01*
X146490201Y-130553527D01*
X146951207Y-130861561D01*
X147495000Y-130969728D01*
X148038793Y-130861561D01*
X148499799Y-130553527D01*
X148807833Y-130092521D01*
X148916000Y-129548728D01*
X148916000Y-128873000D01*
X150900000Y-128873000D01*
X150900000Y-129633000D01*
X151076103Y-130264327D01*
X151480399Y-130780206D01*
X152051338Y-131102099D01*
X152188290Y-131135748D01*
X152448000Y-131016922D01*
X152448000Y-128873000D01*
X152702000Y-128873000D01*
X152702000Y-131016922D01*
X152961710Y-131135748D01*
X153098662Y-131102099D01*
X153669601Y-130780206D01*
X154073897Y-130264327D01*
X154250000Y-129633000D01*
X154250000Y-128873000D01*
X152702000Y-128873000D01*
X152448000Y-128873000D01*
X150900000Y-128873000D01*
X148916000Y-128873000D01*
X148916000Y-127943272D01*
X148899238Y-127859000D01*
X150900000Y-127859000D01*
X150900000Y-128619000D01*
X152448000Y-128619000D01*
X152448000Y-126475078D01*
X152702000Y-126475078D01*
X152702000Y-128619000D01*
X154250000Y-128619000D01*
X154250000Y-127859000D01*
X154073897Y-127227673D01*
X153669601Y-126711794D01*
X153098662Y-126389901D01*
X152961710Y-126356252D01*
X152702000Y-126475078D01*
X152448000Y-126475078D01*
X152188290Y-126356252D01*
X152051338Y-126389901D01*
X151480399Y-126711794D01*
X151076103Y-127227673D01*
X150900000Y-127859000D01*
X148899238Y-127859000D01*
X148807833Y-127399479D01*
X148499799Y-126938473D01*
X148038793Y-126630439D01*
X147495000Y-126522272D01*
X146951207Y-126630439D01*
X146490201Y-126938473D01*
X146182167Y-127399479D01*
X146074000Y-127943272D01*
X143836000Y-127943272D01*
X143727833Y-127399479D01*
X143419799Y-126938473D01*
X142958793Y-126630439D01*
X142415000Y-126522272D01*
X141871207Y-126630439D01*
X141410201Y-126938473D01*
X141102167Y-127399479D01*
X140994000Y-127943272D01*
X138763464Y-127943272D01*
X138763464Y-126946000D01*
X138736897Y-126804810D01*
X138653454Y-126675135D01*
X138526134Y-126588141D01*
X138375000Y-126557536D01*
X136295000Y-126557536D01*
X136153810Y-126584103D01*
X136024135Y-126667546D01*
X135937141Y-126794866D01*
X135906536Y-126946000D01*
X95221000Y-126946000D01*
X95221000Y-114808000D01*
X102743000Y-114808000D01*
X102743000Y-117856000D01*
X102769056Y-117994477D01*
X102850896Y-118121660D01*
X102975770Y-118206983D01*
X103124000Y-118237000D01*
X105664000Y-118237000D01*
X105802477Y-118210944D01*
X105929660Y-118129104D01*
X106014983Y-118004230D01*
X106045000Y-117856000D01*
X106045000Y-117213000D01*
X144031915Y-117213000D01*
X144369059Y-117145938D01*
X144654876Y-116954961D01*
X150349972Y-111259865D01*
X155163882Y-111259865D01*
X155267339Y-111510252D01*
X155458741Y-111701987D01*
X155708946Y-111805882D01*
X155979865Y-111806118D01*
X156230252Y-111702661D01*
X156421987Y-111511259D01*
X156525882Y-111261054D01*
X156526118Y-110990135D01*
X156422661Y-110739748D01*
X156231259Y-110548013D01*
X155981054Y-110444118D01*
X155710135Y-110443882D01*
X155459748Y-110547339D01*
X155268013Y-110738741D01*
X155164118Y-110988946D01*
X155163882Y-111259865D01*
X150349972Y-111259865D01*
X153978729Y-107631108D01*
X154029770Y-107665983D01*
X154178000Y-107696000D01*
X158877000Y-107696000D01*
X159015477Y-107669944D01*
X159142660Y-107588104D01*
X159227983Y-107463230D01*
X159258000Y-107315000D01*
X159258000Y-106045000D01*
X159231944Y-105906523D01*
X159150104Y-105779340D01*
X159025230Y-105694017D01*
X158877000Y-105664000D01*
X154178000Y-105664000D01*
X154039523Y-105690056D01*
X153912340Y-105771896D01*
X153893821Y-105799000D01*
X153683915Y-105799000D01*
X153346771Y-105866062D01*
X153060954Y-106057039D01*
X143666993Y-115451000D01*
X128897000Y-115451000D01*
X128897000Y-108902500D01*
X128829938Y-108565356D01*
X128638961Y-108279539D01*
X128353144Y-108088562D01*
X128016000Y-108021500D01*
X127678856Y-108088562D01*
X127393039Y-108279539D01*
X127202062Y-108565356D01*
X127135000Y-108902500D01*
X127135000Y-115451000D01*
X106045000Y-115451000D01*
X106045000Y-114808000D01*
X106018944Y-114669523D01*
X105937104Y-114542340D01*
X105812230Y-114457017D01*
X105664000Y-114427000D01*
X103124000Y-114427000D01*
X102985523Y-114453056D01*
X102858340Y-114534896D01*
X102773017Y-114659770D01*
X102743000Y-114808000D01*
X95221000Y-114808000D01*
X95221000Y-114180865D01*
X122000882Y-114180865D01*
X122104339Y-114431252D01*
X122295741Y-114622987D01*
X122545946Y-114726882D01*
X122816865Y-114727118D01*
X123067252Y-114623661D01*
X123258987Y-114432259D01*
X123362882Y-114182054D01*
X123363118Y-113911135D01*
X123259661Y-113660748D01*
X123068259Y-113469013D01*
X122818054Y-113365118D01*
X122547135Y-113364882D01*
X122296748Y-113468339D01*
X122105013Y-113659741D01*
X122001118Y-113909946D01*
X122000882Y-114180865D01*
X95221000Y-114180865D01*
X95221000Y-105544865D01*
X101553882Y-105544865D01*
X101657339Y-105795252D01*
X101848741Y-105986987D01*
X102098946Y-106090882D01*
X102369865Y-106091118D01*
X102620252Y-105987661D01*
X102811987Y-105796259D01*
X102915882Y-105546054D01*
X102916118Y-105275135D01*
X102812661Y-105024748D01*
X102621259Y-104833013D01*
X102371054Y-104729118D01*
X102100135Y-104728882D01*
X101849748Y-104832339D01*
X101658013Y-105023741D01*
X101554118Y-105273946D01*
X101553882Y-105544865D01*
X95221000Y-105544865D01*
X95221000Y-104355814D01*
X102466059Y-104355814D01*
X102569516Y-104606201D01*
X102760918Y-104797936D01*
X103011123Y-104901831D01*
X103282042Y-104902067D01*
X103532429Y-104798610D01*
X103548201Y-104782865D01*
X122000882Y-104782865D01*
X122104339Y-105033252D01*
X122163420Y-105092436D01*
X122105013Y-105150741D01*
X122001118Y-105400946D01*
X122000882Y-105671865D01*
X122104339Y-105922252D01*
X122163420Y-105981436D01*
X122105013Y-106039741D01*
X122001118Y-106289946D01*
X122000882Y-106560865D01*
X122104339Y-106811252D01*
X122226920Y-106934046D01*
X122105013Y-107055741D01*
X122001118Y-107305946D01*
X122000882Y-107576865D01*
X122104339Y-107827252D01*
X122295741Y-108018987D01*
X122545946Y-108122882D01*
X122816865Y-108123118D01*
X123067252Y-108019661D01*
X123258987Y-107828259D01*
X123362882Y-107578054D01*
X123363118Y-107307135D01*
X123259661Y-107056748D01*
X123239813Y-107036865D01*
X143638882Y-107036865D01*
X143742339Y-107287252D01*
X143933741Y-107478987D01*
X144183946Y-107582882D01*
X144454865Y-107583118D01*
X144705252Y-107479661D01*
X144896987Y-107288259D01*
X145000882Y-107038054D01*
X145001118Y-106767135D01*
X144897661Y-106516748D01*
X144706259Y-106325013D01*
X144456054Y-106221118D01*
X144185135Y-106220882D01*
X143934748Y-106324339D01*
X143743013Y-106515741D01*
X143639118Y-106765946D01*
X143638882Y-107036865D01*
X123239813Y-107036865D01*
X123137080Y-106933954D01*
X123258987Y-106812259D01*
X123362882Y-106562054D01*
X123363118Y-106291135D01*
X123259661Y-106040748D01*
X123200580Y-105981564D01*
X123258987Y-105923259D01*
X123362882Y-105673054D01*
X123363118Y-105402135D01*
X123259661Y-105151748D01*
X123200580Y-105092564D01*
X123258987Y-105034259D01*
X123362882Y-104784054D01*
X123363118Y-104513135D01*
X123259661Y-104262748D01*
X123068259Y-104071013D01*
X122818054Y-103967118D01*
X122547135Y-103966882D01*
X122296748Y-104070339D01*
X122105013Y-104261741D01*
X122001118Y-104511946D01*
X122000882Y-104782865D01*
X103548201Y-104782865D01*
X103724164Y-104607208D01*
X103828059Y-104357003D01*
X103828295Y-104086084D01*
X103724838Y-103835697D01*
X103533436Y-103643962D01*
X103283231Y-103540067D01*
X103012312Y-103539831D01*
X102761925Y-103643288D01*
X102570190Y-103834690D01*
X102466295Y-104084895D01*
X102466059Y-104355814D01*
X95221000Y-104355814D01*
X95221000Y-103254743D01*
X103384599Y-103254743D01*
X103488056Y-103505130D01*
X103679458Y-103696865D01*
X103929663Y-103800760D01*
X104200582Y-103800996D01*
X104450969Y-103697539D01*
X104642704Y-103506137D01*
X104746599Y-103255932D01*
X104746835Y-102985013D01*
X104643378Y-102734626D01*
X104451976Y-102542891D01*
X104201771Y-102438996D01*
X103930852Y-102438760D01*
X103680465Y-102542217D01*
X103488730Y-102733619D01*
X103384835Y-102983824D01*
X103384599Y-103254743D01*
X95221000Y-103254743D01*
X95221000Y-102150814D01*
X104358433Y-102150814D01*
X104461890Y-102401201D01*
X104653292Y-102592936D01*
X104903497Y-102696831D01*
X105174416Y-102697067D01*
X105424803Y-102593610D01*
X105616538Y-102402208D01*
X105720433Y-102152003D01*
X105720446Y-102137058D01*
X122104480Y-102137058D01*
X122207937Y-102387445D01*
X122399339Y-102579180D01*
X122649544Y-102683075D01*
X122920463Y-102683311D01*
X123170850Y-102579854D01*
X123362585Y-102388452D01*
X123466480Y-102138247D01*
X123466716Y-101867328D01*
X123363259Y-101616941D01*
X123171857Y-101425206D01*
X122921652Y-101321311D01*
X122650733Y-101321075D01*
X122400346Y-101424532D01*
X122208611Y-101615934D01*
X122104716Y-101866139D01*
X122104480Y-102137058D01*
X105720446Y-102137058D01*
X105720669Y-101881084D01*
X105617212Y-101630697D01*
X105463410Y-101476628D01*
X105622481Y-101317833D01*
X105726376Y-101067628D01*
X105726612Y-100796709D01*
X105623155Y-100546322D01*
X105431753Y-100354587D01*
X105181548Y-100250692D01*
X104910629Y-100250456D01*
X104660242Y-100353913D01*
X104468507Y-100545315D01*
X104364612Y-100795520D01*
X104364376Y-101066439D01*
X104467833Y-101316826D01*
X104621635Y-101470895D01*
X104462564Y-101629690D01*
X104358669Y-101879895D01*
X104358433Y-102150814D01*
X95221000Y-102150814D01*
X95221000Y-99829865D01*
X138764882Y-99829865D01*
X138868339Y-100080252D01*
X139059741Y-100271987D01*
X139309946Y-100375882D01*
X139580865Y-100376118D01*
X139831252Y-100272661D01*
X140022987Y-100081259D01*
X140126882Y-99831054D01*
X140127118Y-99560135D01*
X140023661Y-99309748D01*
X139832259Y-99118013D01*
X139582054Y-99014118D01*
X139311135Y-99013882D01*
X139060748Y-99117339D01*
X138869013Y-99308741D01*
X138765118Y-99558946D01*
X138764882Y-99829865D01*
X95221000Y-99829865D01*
X95221000Y-98852574D01*
X122047456Y-98852574D01*
X122150913Y-99102961D01*
X122342315Y-99294696D01*
X122592520Y-99398591D01*
X122863439Y-99398827D01*
X123113826Y-99295370D01*
X123305561Y-99103968D01*
X123409456Y-98853763D01*
X123409692Y-98582844D01*
X123306235Y-98332457D01*
X123114833Y-98140722D01*
X122864628Y-98036827D01*
X122593709Y-98036591D01*
X122343322Y-98140048D01*
X122151587Y-98331450D01*
X122047692Y-98581655D01*
X122047456Y-98852574D01*
X95221000Y-98852574D01*
X95221000Y-96654865D01*
X138764882Y-96654865D01*
X138868339Y-96905252D01*
X139059741Y-97096987D01*
X139309946Y-97200882D01*
X139580865Y-97201118D01*
X139831252Y-97097661D01*
X140022987Y-96906259D01*
X140126882Y-96656054D01*
X140126883Y-96654865D01*
X140415882Y-96654865D01*
X140519339Y-96905252D01*
X140710741Y-97096987D01*
X140960946Y-97200882D01*
X141231865Y-97201118D01*
X141482252Y-97097661D01*
X141673987Y-96906259D01*
X141777882Y-96656054D01*
X141778118Y-96385135D01*
X141674661Y-96134748D01*
X141483259Y-95943013D01*
X141233054Y-95839118D01*
X140962135Y-95838882D01*
X140711748Y-95942339D01*
X140520013Y-96133741D01*
X140416118Y-96383946D01*
X140415882Y-96654865D01*
X140126883Y-96654865D01*
X140127118Y-96385135D01*
X140023661Y-96134748D01*
X139832259Y-95943013D01*
X139582054Y-95839118D01*
X139311135Y-95838882D01*
X139060748Y-95942339D01*
X138869013Y-96133741D01*
X138765118Y-96383946D01*
X138764882Y-96654865D01*
X95221000Y-96654865D01*
X95221000Y-92435039D01*
X101870096Y-92435039D01*
X101887633Y-92517819D01*
X102157500Y-93010896D01*
X102595517Y-93363166D01*
X103135000Y-93521000D01*
X104285000Y-93521000D01*
X104285000Y-92213000D01*
X104539000Y-92213000D01*
X104539000Y-93521000D01*
X105689000Y-93521000D01*
X106228483Y-93363166D01*
X106666500Y-93010896D01*
X106936367Y-92517819D01*
X106953904Y-92435039D01*
X106831915Y-92213000D01*
X104539000Y-92213000D01*
X104285000Y-92213000D01*
X101992085Y-92213000D01*
X101870096Y-92435039D01*
X95221000Y-92435039D01*
X95221000Y-91736961D01*
X101870096Y-91736961D01*
X101992085Y-91959000D01*
X104285000Y-91959000D01*
X104285000Y-90651000D01*
X103135000Y-90651000D01*
X102595517Y-90808834D01*
X102157500Y-91161104D01*
X101887633Y-91654181D01*
X101870096Y-91736961D01*
X95221000Y-91736961D01*
X95221000Y-87636000D01*
X101856883Y-87636000D01*
X101927751Y-87992278D01*
X102129567Y-88294316D01*
X102341611Y-88436000D01*
X102129567Y-88577684D01*
X101927751Y-88879722D01*
X101856883Y-89236000D01*
X101927751Y-89592278D01*
X102129567Y-89894316D01*
X102431605Y-90096132D01*
X102787883Y-90167000D01*
X103436117Y-90167000D01*
X103792395Y-90096132D01*
X104094433Y-89894316D01*
X104296249Y-89592278D01*
X104367117Y-89236000D01*
X104296249Y-88879722D01*
X104094433Y-88577684D01*
X103882389Y-88436000D01*
X104094433Y-88294316D01*
X104296249Y-87992278D01*
X104367117Y-87636000D01*
X104296249Y-87279722D01*
X104206728Y-87145744D01*
X104268197Y-87145744D01*
X104268602Y-87172146D01*
X104484276Y-87584118D01*
X104724725Y-87784931D01*
X104527751Y-88079722D01*
X104456883Y-88436000D01*
X104527751Y-88792278D01*
X104729567Y-89094316D01*
X104762427Y-89116272D01*
X104720810Y-89124103D01*
X104591135Y-89207546D01*
X104504141Y-89334866D01*
X104473536Y-89486000D01*
X104473536Y-90586000D01*
X104500103Y-90727190D01*
X104539000Y-90787638D01*
X104539000Y-91959000D01*
X106831915Y-91959000D01*
X106953904Y-91736961D01*
X106936367Y-91654181D01*
X106858203Y-91511365D01*
X110507382Y-91511365D01*
X110610839Y-91761752D01*
X110802241Y-91953487D01*
X111052446Y-92057382D01*
X111323365Y-92057618D01*
X111573752Y-91954161D01*
X111765487Y-91762759D01*
X111869382Y-91512554D01*
X111869618Y-91241635D01*
X111766161Y-90991248D01*
X111574759Y-90799513D01*
X111324554Y-90695618D01*
X111053635Y-90695382D01*
X110803248Y-90798839D01*
X110611513Y-90990241D01*
X110507618Y-91240446D01*
X110507382Y-91511365D01*
X106858203Y-91511365D01*
X106666500Y-91161104D01*
X106434429Y-90974464D01*
X106562000Y-90974464D01*
X106703190Y-90947897D01*
X106832865Y-90864454D01*
X106919859Y-90737134D01*
X106950464Y-90586000D01*
X106950464Y-90168758D01*
X115458344Y-90168758D01*
X115561801Y-90419145D01*
X115753203Y-90610880D01*
X116003408Y-90714775D01*
X116274327Y-90715011D01*
X116524714Y-90611554D01*
X116716449Y-90420152D01*
X116820344Y-90169947D01*
X116820580Y-89899028D01*
X116717123Y-89648641D01*
X116525721Y-89456906D01*
X116275516Y-89353011D01*
X116004597Y-89352775D01*
X115754210Y-89456232D01*
X115562475Y-89647634D01*
X115458580Y-89897839D01*
X115458344Y-90168758D01*
X106950464Y-90168758D01*
X106950464Y-89486000D01*
X106923897Y-89344810D01*
X106840454Y-89215135D01*
X106713134Y-89128141D01*
X106659934Y-89117368D01*
X106694433Y-89094316D01*
X106896249Y-88792278D01*
X106967117Y-88436000D01*
X106896249Y-88079722D01*
X106699275Y-87784931D01*
X106939724Y-87584118D01*
X107155398Y-87172146D01*
X107155803Y-87145744D01*
X107030361Y-86963000D01*
X105839000Y-86963000D01*
X105839000Y-86983000D01*
X105585000Y-86983000D01*
X105585000Y-86963000D01*
X104393639Y-86963000D01*
X104268197Y-87145744D01*
X104206728Y-87145744D01*
X104094433Y-86977684D01*
X103792395Y-86775868D01*
X103436117Y-86705000D01*
X102787883Y-86705000D01*
X102431605Y-86775868D01*
X102129567Y-86977684D01*
X101927751Y-87279722D01*
X101856883Y-87636000D01*
X95221000Y-87636000D01*
X95221000Y-86526256D01*
X104268197Y-86526256D01*
X104393639Y-86709000D01*
X105585000Y-86709000D01*
X105585000Y-86689000D01*
X105839000Y-86689000D01*
X105839000Y-86709000D01*
X107030361Y-86709000D01*
X107090173Y-86621865D01*
X136986882Y-86621865D01*
X137090339Y-86872252D01*
X137281741Y-87063987D01*
X137531946Y-87167882D01*
X137802865Y-87168118D01*
X138053252Y-87064661D01*
X138116022Y-87002000D01*
X145573536Y-87002000D01*
X145573536Y-88702000D01*
X145600103Y-88843190D01*
X145683546Y-88972865D01*
X145810866Y-89059859D01*
X145962000Y-89090464D01*
X147662000Y-89090464D01*
X147803190Y-89063897D01*
X147932865Y-88980454D01*
X148019859Y-88853134D01*
X148050464Y-88702000D01*
X148050464Y-87827883D01*
X148121000Y-87827883D01*
X148121000Y-87876117D01*
X148214704Y-88347200D01*
X148481552Y-88746565D01*
X148880917Y-89013413D01*
X149352000Y-89107117D01*
X149823083Y-89013413D01*
X150222448Y-88746565D01*
X150489296Y-88347200D01*
X150518973Y-88198000D01*
X154209000Y-88198000D01*
X154209000Y-99053356D01*
X154264644Y-99333098D01*
X154308563Y-99398827D01*
X154423105Y-99570251D01*
X159793909Y-104941055D01*
X159793909Y-108498082D01*
X157138105Y-111153886D01*
X156979644Y-111391039D01*
X156924000Y-111670781D01*
X156924000Y-126755527D01*
X156650201Y-126938473D01*
X156342167Y-127399479D01*
X156234000Y-127943272D01*
X156234000Y-129548728D01*
X156342167Y-130092521D01*
X156650201Y-130553527D01*
X157111207Y-130861561D01*
X157655000Y-130969728D01*
X158198793Y-130861561D01*
X158659799Y-130553527D01*
X158967833Y-130092521D01*
X159076000Y-129548728D01*
X159076000Y-127943272D01*
X158967833Y-127399479D01*
X158659799Y-126938473D01*
X158386000Y-126755527D01*
X158386000Y-111973571D01*
X161041804Y-109317767D01*
X161200265Y-109080614D01*
X161255909Y-108800872D01*
X161255909Y-104638265D01*
X161200265Y-104358523D01*
X161041804Y-104121370D01*
X159663041Y-102742607D01*
X167517214Y-102742607D01*
X167620671Y-102992994D01*
X167812073Y-103184729D01*
X168062278Y-103288624D01*
X168333197Y-103288860D01*
X168583584Y-103185403D01*
X168775319Y-102994001D01*
X168879214Y-102743796D01*
X168879450Y-102472877D01*
X168775993Y-102222490D01*
X168584591Y-102030755D01*
X168334386Y-101926860D01*
X168063467Y-101926624D01*
X167813080Y-102030081D01*
X167621345Y-102221483D01*
X167517450Y-102471688D01*
X167517214Y-102742607D01*
X159663041Y-102742607D01*
X155671000Y-98750566D01*
X155671000Y-90116038D01*
X158703027Y-90116038D01*
X158806484Y-90366425D01*
X158903145Y-90463254D01*
X158903145Y-96391796D01*
X158921302Y-96483076D01*
X158939759Y-96575867D01*
X159044027Y-96731914D01*
X161801870Y-99489758D01*
X161905417Y-99558946D01*
X161957918Y-99594026D01*
X162141989Y-99630640D01*
X188029422Y-99630640D01*
X188127645Y-99729034D01*
X188377850Y-99832929D01*
X188648769Y-99833165D01*
X188899156Y-99729708D01*
X189090891Y-99538306D01*
X189194786Y-99288101D01*
X189195022Y-99017182D01*
X189091565Y-98766795D01*
X188900163Y-98575060D01*
X188649958Y-98471165D01*
X188379039Y-98470929D01*
X188128652Y-98574386D01*
X188034234Y-98668640D01*
X186635539Y-98668640D01*
X187111358Y-98445183D01*
X187501645Y-98016924D01*
X187671476Y-97606890D01*
X187550155Y-97377000D01*
X186357000Y-97377000D01*
X186357000Y-97397000D01*
X186103000Y-97397000D01*
X186103000Y-97377000D01*
X184909845Y-97377000D01*
X184788524Y-97606890D01*
X184958355Y-98016924D01*
X185348642Y-98445183D01*
X185824461Y-98668640D01*
X162341226Y-98668640D01*
X159865145Y-96192560D01*
X159865145Y-96146865D01*
X159973882Y-96146865D01*
X160077339Y-96397252D01*
X160268741Y-96588987D01*
X160518946Y-96692882D01*
X160789865Y-96693118D01*
X161040252Y-96589661D01*
X161231987Y-96398259D01*
X161335882Y-96148054D01*
X161336118Y-95877135D01*
X161232661Y-95626748D01*
X161041259Y-95435013D01*
X160791054Y-95331118D01*
X160520135Y-95330882D01*
X160269748Y-95434339D01*
X160078013Y-95625741D01*
X159974118Y-95875946D01*
X159973882Y-96146865D01*
X159865145Y-96146865D01*
X159865145Y-94623439D01*
X161119049Y-94623439D01*
X161222506Y-94873826D01*
X161319167Y-94970655D01*
X161319167Y-95345890D01*
X161336761Y-95434339D01*
X161355781Y-95529961D01*
X161460049Y-95686008D01*
X163141891Y-97367851D01*
X163235435Y-97430354D01*
X163297938Y-97472118D01*
X163482009Y-97508732D01*
X179323366Y-97508732D01*
X179507437Y-97472118D01*
X179663484Y-97367850D01*
X180138224Y-96893110D01*
X184788524Y-96893110D01*
X184909845Y-97123000D01*
X186103000Y-97123000D01*
X186103000Y-97103000D01*
X186357000Y-97103000D01*
X186357000Y-97123000D01*
X187550155Y-97123000D01*
X187671476Y-96893110D01*
X187501645Y-96483076D01*
X187111358Y-96054817D01*
X186686053Y-95855083D01*
X186725200Y-95847296D01*
X187124565Y-95580448D01*
X187391413Y-95181083D01*
X187485117Y-94710000D01*
X187391413Y-94238917D01*
X187124565Y-93839552D01*
X186725200Y-93572704D01*
X186254117Y-93479000D01*
X186205883Y-93479000D01*
X185734800Y-93572704D01*
X185335435Y-93839552D01*
X185068587Y-94238917D01*
X184974883Y-94710000D01*
X185068587Y-95181083D01*
X185335435Y-95580448D01*
X185734800Y-95847296D01*
X185773947Y-95855083D01*
X185348642Y-96054817D01*
X184958355Y-96483076D01*
X184788524Y-96893110D01*
X180138224Y-96893110D01*
X184388201Y-92643133D01*
X185069957Y-92643133D01*
X185335435Y-93040448D01*
X185734800Y-93307296D01*
X186205883Y-93401000D01*
X186254117Y-93401000D01*
X186725200Y-93307296D01*
X187124565Y-93040448D01*
X187391413Y-92641083D01*
X187485117Y-92170000D01*
X187391413Y-91698917D01*
X187124565Y-91299552D01*
X186725200Y-91032704D01*
X186254117Y-90939000D01*
X186205883Y-90939000D01*
X185734800Y-91032704D01*
X185335435Y-91299552D01*
X185080470Y-91681133D01*
X184188965Y-91681133D01*
X184004894Y-91717747D01*
X183848847Y-91822015D01*
X179124130Y-96546732D01*
X169973256Y-96546732D01*
X170121987Y-96398259D01*
X170225882Y-96148054D01*
X170226118Y-95877135D01*
X170122661Y-95626748D01*
X169973085Y-95476912D01*
X178354429Y-95476912D01*
X178538500Y-95440298D01*
X178694547Y-95336030D01*
X183937421Y-90093157D01*
X185067010Y-90093157D01*
X185068587Y-90101083D01*
X185335435Y-90500448D01*
X185734800Y-90767296D01*
X186205883Y-90861000D01*
X186254117Y-90861000D01*
X186725200Y-90767296D01*
X187124565Y-90500448D01*
X187391413Y-90101083D01*
X187485117Y-89630000D01*
X187391413Y-89158917D01*
X187124565Y-88759552D01*
X186725200Y-88492704D01*
X186254117Y-88399000D01*
X186205883Y-88399000D01*
X185734800Y-88492704D01*
X185335435Y-88759552D01*
X185087136Y-89131157D01*
X183738184Y-89131157D01*
X183554113Y-89167771D01*
X183398065Y-89272039D01*
X178155193Y-94514912D01*
X163804258Y-94514912D01*
X163708438Y-94418925D01*
X163458233Y-94315030D01*
X163187314Y-94314794D01*
X162936927Y-94418251D01*
X162745192Y-94609653D01*
X162641297Y-94859858D01*
X162641061Y-95130777D01*
X162744518Y-95381164D01*
X162935920Y-95572899D01*
X163186125Y-95676794D01*
X163457044Y-95677030D01*
X163707431Y-95573573D01*
X163804260Y-95476912D01*
X169117101Y-95476912D01*
X168968013Y-95625741D01*
X168864118Y-95875946D01*
X168863882Y-96146865D01*
X168967339Y-96397252D01*
X169116559Y-96546732D01*
X163681246Y-96546732D01*
X162281167Y-95146654D01*
X162281167Y-94970653D01*
X162377154Y-94874833D01*
X162481049Y-94624628D01*
X162481285Y-94353709D01*
X162377828Y-94103322D01*
X162186426Y-93911587D01*
X161936221Y-93807692D01*
X161665302Y-93807456D01*
X161414915Y-93910913D01*
X161223180Y-94102315D01*
X161119285Y-94352520D01*
X161119049Y-94623439D01*
X159865145Y-94623439D01*
X159865145Y-93606865D01*
X167720882Y-93606865D01*
X167824339Y-93857252D01*
X168015741Y-94048987D01*
X168265946Y-94152882D01*
X168536865Y-94153118D01*
X168787252Y-94049661D01*
X168884742Y-93952340D01*
X176901669Y-93952340D01*
X177085740Y-93915726D01*
X177241787Y-93811458D01*
X181468310Y-89584936D01*
X181534416Y-89486000D01*
X181572577Y-89428889D01*
X181609191Y-89244818D01*
X181609191Y-87224865D01*
X183008882Y-87224865D01*
X183112339Y-87475252D01*
X183303741Y-87666987D01*
X183553946Y-87770882D01*
X183824865Y-87771118D01*
X184075252Y-87667661D01*
X184266987Y-87476259D01*
X184370882Y-87226054D01*
X184371118Y-86955135D01*
X184267661Y-86704748D01*
X184076259Y-86513013D01*
X183826054Y-86409118D01*
X183555135Y-86408882D01*
X183304748Y-86512339D01*
X183113013Y-86703741D01*
X183009118Y-86953946D01*
X183008882Y-87224865D01*
X181609191Y-87224865D01*
X181609191Y-86240000D01*
X184991536Y-86240000D01*
X184991536Y-87940000D01*
X185018103Y-88081190D01*
X185101546Y-88210865D01*
X185228866Y-88297859D01*
X185380000Y-88328464D01*
X187080000Y-88328464D01*
X187221190Y-88301897D01*
X187350865Y-88218454D01*
X187437859Y-88091134D01*
X187468464Y-87940000D01*
X187468464Y-86240000D01*
X187441897Y-86098810D01*
X187358454Y-85969135D01*
X187231134Y-85882141D01*
X187080000Y-85851536D01*
X185380000Y-85851536D01*
X185238810Y-85878103D01*
X185109135Y-85961546D01*
X185022141Y-86088866D01*
X184991536Y-86240000D01*
X181609191Y-86240000D01*
X181609191Y-81903778D01*
X181621083Y-81901413D01*
X182020448Y-81634565D01*
X182287296Y-81235200D01*
X182295083Y-81196053D01*
X182494817Y-81621358D01*
X182923076Y-82011645D01*
X183333110Y-82181476D01*
X183563000Y-82060155D01*
X183563000Y-80867000D01*
X183817000Y-80867000D01*
X183817000Y-82060155D01*
X184046890Y-82181476D01*
X184456924Y-82011645D01*
X184885183Y-81621358D01*
X185131486Y-81096892D01*
X185010819Y-80867000D01*
X183817000Y-80867000D01*
X183563000Y-80867000D01*
X183543000Y-80867000D01*
X183543000Y-80613000D01*
X183563000Y-80613000D01*
X183563000Y-79419845D01*
X183817000Y-79419845D01*
X183817000Y-80613000D01*
X185010819Y-80613000D01*
X185131486Y-80383108D01*
X184885183Y-79858642D01*
X184456924Y-79468355D01*
X184046890Y-79298524D01*
X183817000Y-79419845D01*
X183563000Y-79419845D01*
X183333110Y-79298524D01*
X182923076Y-79468355D01*
X182494817Y-79858642D01*
X182295083Y-80283947D01*
X182287296Y-80244800D01*
X182020448Y-79845435D01*
X181621083Y-79578587D01*
X181150000Y-79484883D01*
X180678917Y-79578587D01*
X180279552Y-79845435D01*
X180012704Y-80244800D01*
X179919000Y-80715883D01*
X179919000Y-80764117D01*
X180012704Y-81235200D01*
X180279552Y-81634565D01*
X180647191Y-81880214D01*
X180647191Y-89045581D01*
X176702433Y-92990340D01*
X168883420Y-92990340D01*
X168788259Y-92895013D01*
X168538054Y-92791118D01*
X168267135Y-92790882D01*
X168016748Y-92894339D01*
X167825013Y-93085741D01*
X167721118Y-93335946D01*
X167720882Y-93606865D01*
X159865145Y-93606865D01*
X159865145Y-90463252D01*
X159961132Y-90367432D01*
X160065027Y-90117227D01*
X160065263Y-89846308D01*
X159961806Y-89595921D01*
X159770404Y-89404186D01*
X159711833Y-89379865D01*
X164636882Y-89379865D01*
X164740339Y-89630252D01*
X164931741Y-89821987D01*
X165181946Y-89925882D01*
X165452865Y-89926118D01*
X165703252Y-89822661D01*
X165894987Y-89631259D01*
X165998882Y-89381054D01*
X165999118Y-89110135D01*
X165895661Y-88859748D01*
X165704259Y-88668013D01*
X165454054Y-88564118D01*
X165183135Y-88563882D01*
X164932748Y-88667339D01*
X164741013Y-88858741D01*
X164637118Y-89108946D01*
X164636882Y-89379865D01*
X159711833Y-89379865D01*
X159520199Y-89300291D01*
X159249280Y-89300055D01*
X158998893Y-89403512D01*
X158807158Y-89594914D01*
X158703263Y-89845119D01*
X158703027Y-90116038D01*
X155671000Y-90116038D01*
X155671000Y-88198000D01*
X155615356Y-87918258D01*
X155456895Y-87681105D01*
X155219742Y-87522644D01*
X154940000Y-87467000D01*
X154660258Y-87522644D01*
X154423105Y-87681105D01*
X154264644Y-87918258D01*
X154209000Y-88198000D01*
X150518973Y-88198000D01*
X150583000Y-87876117D01*
X150583000Y-87827883D01*
X150494680Y-87383865D01*
X159973882Y-87383865D01*
X160077339Y-87634252D01*
X160268741Y-87825987D01*
X160518946Y-87929882D01*
X160789865Y-87930118D01*
X161040252Y-87826661D01*
X161134211Y-87732865D01*
X177420882Y-87732865D01*
X177524339Y-87983252D01*
X177715741Y-88174987D01*
X177965946Y-88278882D01*
X178236865Y-88279118D01*
X178487252Y-88175661D01*
X178678987Y-87984259D01*
X178782882Y-87734054D01*
X178783118Y-87463135D01*
X178679661Y-87212748D01*
X178488259Y-87021013D01*
X178238054Y-86917118D01*
X177967135Y-86916882D01*
X177716748Y-87020339D01*
X177525013Y-87211741D01*
X177421118Y-87461946D01*
X177420882Y-87732865D01*
X161134211Y-87732865D01*
X161231987Y-87635259D01*
X161335882Y-87385054D01*
X161336118Y-87114135D01*
X161232661Y-86863748D01*
X161041259Y-86672013D01*
X160791054Y-86568118D01*
X160520135Y-86567882D01*
X160269748Y-86671339D01*
X160078013Y-86862741D01*
X159974118Y-87112946D01*
X159973882Y-87383865D01*
X150494680Y-87383865D01*
X150489296Y-87356800D01*
X150222448Y-86957435D01*
X149823083Y-86690587D01*
X149352000Y-86596883D01*
X148880917Y-86690587D01*
X148481552Y-86957435D01*
X148214704Y-87356800D01*
X148121000Y-87827883D01*
X148050464Y-87827883D01*
X148050464Y-87002000D01*
X148023897Y-86860810D01*
X147940454Y-86731135D01*
X147813134Y-86644141D01*
X147662000Y-86613536D01*
X145962000Y-86613536D01*
X145820810Y-86640103D01*
X145691135Y-86723546D01*
X145604141Y-86850866D01*
X145573536Y-87002000D01*
X138116022Y-87002000D01*
X138244987Y-86873259D01*
X138348882Y-86623054D01*
X138349118Y-86352135D01*
X138245661Y-86101748D01*
X138130978Y-85986865D01*
X165688882Y-85986865D01*
X165792339Y-86237252D01*
X165983741Y-86428987D01*
X166233946Y-86532882D01*
X166504865Y-86533118D01*
X166755252Y-86429661D01*
X166946987Y-86238259D01*
X167050882Y-85988054D01*
X167051118Y-85717135D01*
X166947661Y-85466748D01*
X166756259Y-85275013D01*
X166506054Y-85171118D01*
X166235135Y-85170882D01*
X165984748Y-85274339D01*
X165793013Y-85465741D01*
X165689118Y-85715946D01*
X165688882Y-85986865D01*
X138130978Y-85986865D01*
X138054259Y-85910013D01*
X137804054Y-85806118D01*
X137533135Y-85805882D01*
X137282748Y-85909339D01*
X137091013Y-86100741D01*
X136987118Y-86350946D01*
X136986882Y-86621865D01*
X107090173Y-86621865D01*
X107155803Y-86526256D01*
X107155398Y-86499854D01*
X106939724Y-86087882D01*
X106582813Y-85789804D01*
X106572425Y-85786555D01*
X106666500Y-85710896D01*
X106936367Y-85217819D01*
X106953904Y-85135039D01*
X106831915Y-84913000D01*
X104539000Y-84913000D01*
X104539000Y-86042179D01*
X104484276Y-86087882D01*
X104268602Y-86499854D01*
X104268197Y-86526256D01*
X95221000Y-86526256D01*
X95221000Y-83720653D01*
X95709994Y-84904109D01*
X96730519Y-85926417D01*
X98064581Y-86480368D01*
X99509082Y-86481628D01*
X100844109Y-85930006D01*
X101862890Y-84913002D01*
X101992084Y-84913002D01*
X101870096Y-85135039D01*
X101887633Y-85217819D01*
X102157500Y-85710896D01*
X102595517Y-86063166D01*
X103135000Y-86221000D01*
X104285000Y-86221000D01*
X104285000Y-84913000D01*
X104265000Y-84913000D01*
X104265000Y-84659000D01*
X104285000Y-84659000D01*
X104285000Y-83351000D01*
X104539000Y-83351000D01*
X104539000Y-84659000D01*
X106831915Y-84659000D01*
X106953904Y-84436961D01*
X106936367Y-84354181D01*
X106856834Y-84208865D01*
X131906882Y-84208865D01*
X132010339Y-84459252D01*
X132201741Y-84650987D01*
X132451946Y-84754882D01*
X132722865Y-84755118D01*
X132973252Y-84651661D01*
X133164987Y-84460259D01*
X133268882Y-84210054D01*
X133268883Y-84208865D01*
X134446882Y-84208865D01*
X134550339Y-84459252D01*
X134741741Y-84650987D01*
X134991946Y-84754882D01*
X135262865Y-84755118D01*
X135513252Y-84651661D01*
X135704987Y-84460259D01*
X135808882Y-84210054D01*
X135808883Y-84208865D01*
X136986882Y-84208865D01*
X137090339Y-84459252D01*
X137281741Y-84650987D01*
X137531946Y-84754882D01*
X137802865Y-84755118D01*
X138053252Y-84651661D01*
X138244987Y-84460259D01*
X138348882Y-84210054D01*
X138349118Y-83939135D01*
X138245661Y-83688748D01*
X138054259Y-83497013D01*
X137804054Y-83393118D01*
X137533135Y-83392882D01*
X137282748Y-83496339D01*
X137091013Y-83687741D01*
X136987118Y-83937946D01*
X136986882Y-84208865D01*
X135808883Y-84208865D01*
X135809118Y-83939135D01*
X135705661Y-83688748D01*
X135514259Y-83497013D01*
X135264054Y-83393118D01*
X134993135Y-83392882D01*
X134742748Y-83496339D01*
X134551013Y-83687741D01*
X134447118Y-83937946D01*
X134446882Y-84208865D01*
X133268883Y-84208865D01*
X133269118Y-83939135D01*
X133165661Y-83688748D01*
X132974259Y-83497013D01*
X132724054Y-83393118D01*
X132453135Y-83392882D01*
X132202748Y-83496339D01*
X132011013Y-83687741D01*
X131907118Y-83937946D01*
X131906882Y-84208865D01*
X106856834Y-84208865D01*
X106666500Y-83861104D01*
X106228483Y-83508834D01*
X105689000Y-83351000D01*
X104539000Y-83351000D01*
X104285000Y-83351000D01*
X103135000Y-83351000D01*
X102595517Y-83508834D01*
X102374062Y-83686937D01*
X102420368Y-83575419D01*
X102421628Y-82130918D01*
X102391137Y-82057122D01*
X142963825Y-82057122D01*
X143178466Y-82575332D01*
X143640608Y-83070012D01*
X144256877Y-83350183D01*
X144526000Y-83232604D01*
X144526000Y-81788000D01*
X144780000Y-81788000D01*
X144780000Y-83232604D01*
X145049123Y-83350183D01*
X145458700Y-83163979D01*
X168787251Y-83163979D01*
X168890708Y-83414366D01*
X169082110Y-83606101D01*
X169332315Y-83709996D01*
X169603234Y-83710232D01*
X169853621Y-83606775D01*
X170045356Y-83415373D01*
X170149251Y-83165168D01*
X170149487Y-82894249D01*
X170046030Y-82643862D01*
X169854628Y-82452127D01*
X169604423Y-82348232D01*
X169333504Y-82347996D01*
X169083117Y-82451453D01*
X168891382Y-82642855D01*
X168787487Y-82893060D01*
X168787251Y-83163979D01*
X145458700Y-83163979D01*
X145665392Y-83070012D01*
X146127534Y-82575332D01*
X146342175Y-82057122D01*
X146224125Y-81788000D01*
X144780000Y-81788000D01*
X144526000Y-81788000D01*
X143081875Y-81788000D01*
X142963825Y-82057122D01*
X102391137Y-82057122D01*
X102063788Y-81264878D01*
X142963825Y-81264878D01*
X143081875Y-81534000D01*
X144526000Y-81534000D01*
X144526000Y-80089396D01*
X144780000Y-80089396D01*
X144780000Y-81534000D01*
X146224125Y-81534000D01*
X146342175Y-81264878D01*
X146127534Y-80746668D01*
X145954079Y-80561000D01*
X153324536Y-80561000D01*
X153324536Y-82761000D01*
X153351103Y-82902190D01*
X153434546Y-83031865D01*
X153561866Y-83118859D01*
X153713000Y-83149464D01*
X155913000Y-83149464D01*
X156054190Y-83122897D01*
X156183865Y-83039454D01*
X156270859Y-82912134D01*
X156301464Y-82761000D01*
X156301464Y-80561000D01*
X156274897Y-80419810D01*
X156191454Y-80290135D01*
X156064134Y-80203141D01*
X155913000Y-80172536D01*
X153713000Y-80172536D01*
X153571810Y-80199103D01*
X153442135Y-80282546D01*
X153355141Y-80409866D01*
X153324536Y-80561000D01*
X145954079Y-80561000D01*
X145665392Y-80251988D01*
X145049123Y-79971817D01*
X144780000Y-80089396D01*
X144526000Y-80089396D01*
X144256877Y-79971817D01*
X143640608Y-80251988D01*
X143178466Y-80746668D01*
X142963825Y-81264878D01*
X102063788Y-81264878D01*
X101870006Y-80795891D01*
X100965695Y-79890000D01*
X177371536Y-79890000D01*
X177371536Y-81590000D01*
X177398103Y-81731190D01*
X177481546Y-81860865D01*
X177608866Y-81947859D01*
X177760000Y-81978464D01*
X179460000Y-81978464D01*
X179601190Y-81951897D01*
X179730865Y-81868454D01*
X179817859Y-81741134D01*
X179848464Y-81590000D01*
X179848464Y-79890000D01*
X179821897Y-79748810D01*
X179738454Y-79619135D01*
X179611134Y-79532141D01*
X179460000Y-79501536D01*
X177760000Y-79501536D01*
X177618810Y-79528103D01*
X177489135Y-79611546D01*
X177402141Y-79738866D01*
X177371536Y-79890000D01*
X100965695Y-79890000D01*
X100849481Y-79773583D01*
X99515419Y-79219632D01*
X98070918Y-79218372D01*
X97151088Y-79598438D01*
X97968526Y-78781000D01*
X191611474Y-78781000D01*
X192429783Y-79599309D01*
M02*
