G04 #@! TF.FileFunction,Soldermask,Bot*
%FSLAX46Y46*%
G04 Gerber Fmt 4.6, Leading zero omitted, Abs format (unit mm)*
G04 Created by KiCad (PCBNEW 4.0.7) date Friday, May 04, 2018 'PMt' 08:01:22 PM*
%MOMM*%
%LPD*%
G01*
G04 APERTURE LIST*
%ADD10C,0.100000*%
%ADD11C,5.400000*%
%ADD12R,1.950000X1.500000*%
%ADD13C,2.500000*%
%ADD14C,3.000000*%
%ADD15R,2.080000X3.600000*%
%ADD16O,2.080000X3.600000*%
%ADD17R,2.420000X5.080000*%
%ADD18R,0.750000X0.800000*%
%ADD19R,0.800000X0.750000*%
%ADD20R,0.900000X0.800000*%
%ADD21R,0.500000X0.900000*%
%ADD22R,0.900000X0.500000*%
%ADD23R,0.250000X1.300000*%
%ADD24R,1.300000X0.250000*%
%ADD25R,2.200000X1.200000*%
%ADD26R,6.400000X5.800000*%
%ADD27R,1.400000X1.200000*%
%ADD28R,1.000000X1.800000*%
%ADD29R,3.800000X2.000000*%
%ADD30R,1.500000X2.000000*%
%ADD31R,1.700000X1.700000*%
%ADD32O,1.700000X1.700000*%
%ADD33C,1.000000*%
%ADD34R,2.200000X2.200000*%
%ADD35O,2.200000X2.200000*%
%ADD36R,1.700000X1.100000*%
%ADD37O,1.700000X1.100000*%
%ADD38O,3.900000X1.600000*%
%ADD39R,0.300000X0.250000*%
%ADD40R,0.250000X0.300000*%
%ADD41C,2.000000*%
%ADD42C,6.500000*%
G04 APERTURE END LIST*
D10*
D11*
X190790000Y-91850000D03*
D12*
X152759000Y-108712000D03*
X150009000Y-108712000D03*
D13*
X183954000Y-109616000D03*
D14*
X171754000Y-109616000D03*
X171704000Y-121666000D03*
D13*
X183954000Y-121616000D03*
D14*
X185904000Y-115666000D03*
D15*
X137335000Y-128746000D03*
D16*
X142415000Y-128746000D03*
X147495000Y-128746000D03*
X152575000Y-128746000D03*
X157655000Y-128746000D03*
X162735000Y-128746000D03*
X167815000Y-128746000D03*
X172895000Y-128746000D03*
D17*
X105015000Y-132556000D03*
X113775000Y-132556000D03*
D18*
X163957000Y-81673000D03*
X163957000Y-83173000D03*
D19*
X165469000Y-80264000D03*
X163969000Y-80264000D03*
D18*
X156845000Y-81685000D03*
X156845000Y-83185000D03*
X158242000Y-81685000D03*
X158242000Y-83185000D03*
D19*
X157619000Y-87249000D03*
X159119000Y-87249000D03*
D18*
X166370000Y-83578000D03*
X166370000Y-85078000D03*
X160655000Y-99175000D03*
X160655000Y-97675000D03*
D19*
X172581000Y-96012000D03*
X171081000Y-96012000D03*
D18*
X126238000Y-111010000D03*
X126238000Y-112510000D03*
X132588000Y-81685000D03*
X132588000Y-83185000D03*
D19*
X129782000Y-100965000D03*
X128282000Y-100965000D03*
X129782000Y-92456000D03*
X128282000Y-92456000D03*
D20*
X130302000Y-97536000D03*
X130302000Y-99436000D03*
X128302000Y-98486000D03*
X130302000Y-93985000D03*
X130302000Y-95885000D03*
X128302000Y-94935000D03*
D21*
X164707000Y-84709000D03*
X163207000Y-84709000D03*
X172847000Y-84963000D03*
X171347000Y-84963000D03*
X172847000Y-86741000D03*
X171347000Y-86741000D03*
X172847000Y-88519000D03*
X171347000Y-88519000D03*
X172847000Y-90297000D03*
X171347000Y-90297000D03*
X172847000Y-92075000D03*
X171347000Y-92075000D03*
X123825000Y-114046000D03*
X125325000Y-114046000D03*
D22*
X124460000Y-112522000D03*
X124460000Y-111022000D03*
D21*
X124865000Y-107442000D03*
X126365000Y-107442000D03*
X127532000Y-106426000D03*
X129032000Y-106426000D03*
X130199000Y-105537000D03*
X131699000Y-105537000D03*
X127532000Y-104648000D03*
X129032000Y-104648000D03*
D22*
X139446000Y-97421000D03*
X139446000Y-98921000D03*
D21*
X133084000Y-97536000D03*
X131584000Y-97536000D03*
X133084000Y-93980000D03*
X131584000Y-93980000D03*
X112963000Y-90011000D03*
X114463000Y-90011000D03*
X107248000Y-91408000D03*
X108748000Y-91408000D03*
D23*
X162318000Y-87356000D03*
X162818000Y-87356000D03*
X163318000Y-87356000D03*
X163818000Y-87356000D03*
X164318000Y-87356000D03*
X164818000Y-87356000D03*
X165318000Y-87356000D03*
X165818000Y-87356000D03*
X166318000Y-87356000D03*
X166818000Y-87356000D03*
X167318000Y-87356000D03*
X167818000Y-87356000D03*
D24*
X169418000Y-88956000D03*
X169418000Y-89456000D03*
X169418000Y-89956000D03*
X169418000Y-90456000D03*
X169418000Y-90956000D03*
X169418000Y-91456000D03*
X169418000Y-91956000D03*
X169418000Y-92456000D03*
X169418000Y-92956000D03*
X169418000Y-93456000D03*
X169418000Y-93956000D03*
X169418000Y-94456000D03*
D23*
X167818000Y-96056000D03*
X167318000Y-96056000D03*
X166818000Y-96056000D03*
X166318000Y-96056000D03*
X165818000Y-96056000D03*
X165318000Y-96056000D03*
X164818000Y-96056000D03*
X164318000Y-96056000D03*
X163818000Y-96056000D03*
X163318000Y-96056000D03*
X162818000Y-96056000D03*
X162318000Y-96056000D03*
D24*
X160718000Y-94456000D03*
X160718000Y-93956000D03*
X160718000Y-93456000D03*
X160718000Y-92956000D03*
X160718000Y-92456000D03*
X160718000Y-91956000D03*
X160718000Y-91456000D03*
X160718000Y-90956000D03*
X160718000Y-90456000D03*
X160718000Y-89956000D03*
X160718000Y-89456000D03*
X160718000Y-88956000D03*
D25*
X174752000Y-105912000D03*
X174752000Y-101352000D03*
D26*
X181052000Y-103632000D03*
D27*
X160020000Y-81319000D03*
X162220000Y-81319000D03*
X162220000Y-83019000D03*
X160020000Y-83019000D03*
D28*
X156992000Y-85090000D03*
X159492000Y-85090000D03*
D29*
X152781000Y-111125000D03*
D30*
X152781000Y-117425000D03*
X150481000Y-117425000D03*
X155081000Y-117425000D03*
D29*
X144399000Y-111150000D03*
D30*
X144399000Y-117450000D03*
X142099000Y-117450000D03*
X146699000Y-117450000D03*
D12*
X142113000Y-121158000D03*
X144863000Y-121158000D03*
D19*
X143625000Y-119380000D03*
X142125000Y-119380000D03*
D12*
X150473000Y-121158000D03*
X147723000Y-121158000D03*
D19*
X148983000Y-119380000D03*
X150483000Y-119380000D03*
D31*
X146812000Y-87852000D03*
D32*
X149352000Y-87852000D03*
D31*
X178610000Y-80740000D03*
D32*
X181150000Y-80740000D03*
X183690000Y-80740000D03*
D31*
X186230000Y-87090000D03*
D32*
X186230000Y-89630000D03*
X186230000Y-92170000D03*
X186230000Y-94710000D03*
X186230000Y-97250000D03*
D33*
X122785598Y-102002193D03*
X122728574Y-98717709D03*
X122682000Y-114046000D03*
X123964000Y-104648000D03*
X125857000Y-105537000D03*
D12*
X144421000Y-108712000D03*
X147171000Y-108712000D03*
D34*
X154813000Y-81661000D03*
D35*
X144653000Y-81661000D03*
D36*
X105712000Y-90036000D03*
D37*
X103112000Y-89236000D03*
X105712000Y-88436000D03*
X103112000Y-87636000D03*
X105712000Y-86836000D03*
D38*
X104412000Y-92086000D03*
X104412000Y-84786000D03*
D11*
X98790000Y-121850000D03*
X190790000Y-121850000D03*
X190790000Y-91850000D03*
X98790000Y-91850000D03*
D39*
X131048500Y-83301000D03*
X131048500Y-82751000D03*
X135112500Y-83301000D03*
X135112500Y-82751000D03*
X137652500Y-87386500D03*
X137652500Y-87936500D03*
X137652500Y-83280000D03*
X137652500Y-82730000D03*
D40*
X141124000Y-97377000D03*
X141674000Y-97377000D03*
X137843000Y-97377000D03*
X137293000Y-97377000D03*
D41*
X102790000Y-133350000D03*
X102790000Y-80350000D03*
X186790000Y-133350000D03*
D42*
X190790000Y-82850000D03*
X190790000Y-130850000D03*
X98790000Y-130850000D03*
X98790000Y-82850000D03*
M02*
