M48
;DRILL file {KiCad 4.0.7} date Wednesday, April 25, 2018 'PMt' 02:04:03 PM
;FORMAT={-:-/ absolute / metric / decimal}
FMAT,2
METRIC,TZ
T1C0.300
T2C0.400
T3C0.460
T4C0.700
T5C0.850
T6C1.000
T7C1.100
T8C1.300
T9C1.400
T10C2.700
%
G90
G05
M71
T1
X162.814Y-121.92
X162.814Y-124.46
X165.227Y-116.078
X166.878Y-114.427
X167.894Y-119.761
X167.894Y-121.92
X167.894Y-124.46
X168.529Y-112.776
X169.164Y-118.364
X170.053Y-111.252
X170.688Y-116.84
X172.72Y-115.697
X172.974Y-123.19
X172.974Y-124.46
X175.26Y-115.697
X177.8Y-115.697
X180.34Y-115.697
X182.88Y-115.697
T2
X99.695Y-95.885
X99.695Y-106.045
X99.695Y-109.855
X99.695Y-113.665
X99.695Y-117.475
X101.79Y-82.35
X102.235Y-105.41
X102.235Y-130.746
X103.147Y-104.221
X103.505Y-109.855
X103.886Y-115.189
X103.886Y-116.332
X103.886Y-117.475
X104.066Y-103.12
X104.14Y-95.885
X104.521Y-123.19
X104.521Y-125.73
X104.79Y-81.28
X104.902Y-115.189
X104.902Y-116.332
X104.902Y-117.475
X105.04Y-102.016
X105.045Y-100.932
X105.346Y-132.207
X106.045Y-84.455
X106.045Y-123.19
X106.045Y-125.73
X106.045Y-127.635
X107.315Y-123.19
X107.442Y-127.381
X108.585Y-86.995
X108.585Y-120.65
X108.585Y-121.92
X108.585Y-123.19
X109.79Y-99.35
X109.79Y-102.85
X109.79Y-106.35
X109.79Y-109.85
X109.79Y-113.35
X109.855Y-88.837
X111.125Y-120.65
X111.125Y-121.92
X111.125Y-123.19
X111.188Y-91.376
X112.395Y-87.63
X112.395Y-124.46
X112.395Y-127.254
X113.03Y-121.92
X113.03Y-123.19
X113.29Y-99.35
X113.29Y-102.85
X113.29Y-106.35
X113.29Y-109.85
X113.29Y-113.35
X113.665Y-127.635
X114.935Y-121.92
X114.935Y-123.19
X115.57Y-81.28
X115.57Y-84.455
X115.57Y-87.63
X115.57Y-124.46
X116.141Y-90.424
X116.205Y-121.92
X116.79Y-99.35
X116.79Y-102.85
X116.79Y-106.35
X116.79Y-109.85
X116.79Y-113.35
X117.475Y-121.92
X118.11Y-120.015
X118.11Y-121.031
X118.745Y-81.28
X118.745Y-84.455
X118.745Y-87.63
X121.92Y-81.28
X121.92Y-84.455
X121.92Y-87.63
X121.92Y-90.805
X122.555Y-110.49
X122.682Y-104.648
X122.682Y-105.537
X122.682Y-106.426
X122.682Y-107.442
X122.682Y-114.046
X122.729Y-98.718
X122.786Y-102.002
X125.095Y-81.28
X125.095Y-84.455
X125.095Y-87.63
X128.016Y-108.902
X131.445Y-102.235
X132.08Y-109.22
X132.08Y-111.125
X132.08Y-113.03
X132.588Y-84.074
X133.35Y-123.698
X134.366Y-125.984
X134.62Y-99.06
X135.128Y-84.074
X135.255Y-109.22
X135.255Y-111.125
X135.255Y-113.03
X135.382Y-123.698
X137.16Y-104.775
X137.668Y-84.074
X137.668Y-86.487
X138.43Y-109.22
X138.43Y-111.125
X138.43Y-113.03
X139.446Y-96.52
X139.446Y-99.695
X140.335Y-81.28
X140.335Y-84.455
X140.335Y-87.63
X140.335Y-90.805
X140.335Y-104.775
X141.097Y-96.52
X144.145Y-99.06
X144.379Y-108.662
X147.955Y-118.745
X149.225Y-114.935
X149.86Y-92.075
X149.86Y-94.615
X149.86Y-97.155
X153.035Y-92.075
X153.035Y-94.615
X153.035Y-97.155
X153.035Y-121.285
X153.415Y-111.149
X154.686Y-106.68
X154.94Y-88.198
X155.575Y-112.395
X155.575Y-114.935
X155.575Y-121.285
X155.956Y-106.68
X156.845Y-92.075
X156.845Y-94.615
X156.845Y-97.155
X157.226Y-106.68
X158.369Y-106.68
X159.384Y-89.981
X160.655Y-87.249
X160.655Y-96.012
X161.8Y-94.489
X163.322Y-94.996
X163.83Y-112.522
X165.318Y-89.245
X166.37Y-85.852
X167.64Y-81.915
X168.402Y-93.472
X169.545Y-96.012
X170.341Y-101.352
X173.863Y-84.963
X173.863Y-86.741
X173.863Y-88.519
X173.863Y-90.297
X173.863Y-92.075
X179.197Y-88.646
X179.324Y-101.6
X179.324Y-103.632
X179.324Y-105.664
X181.102Y-101.6
X181.102Y-103.632
X181.102Y-105.664
X182.88Y-101.6
X182.88Y-103.632
X182.88Y-105.664
X183.578Y-90.805
X189.738Y-100.203
T3
X104.23Y-119.97
X104.23Y-128.73
T4
X100.905Y-88.036
X100.905Y-89.636
X103.505Y-87.236
X103.505Y-88.837
X103.505Y-90.436
T6
X146.812Y-87.249
X149.352Y-87.249
X183.954Y-109.616
X183.954Y-121.616
X184.531Y-83.185
X187.071Y-83.185
X188.976Y-87.63
X188.976Y-90.17
X188.976Y-92.71
X188.976Y-95.25
X188.976Y-97.79
X189.611Y-83.185
T7
X144.653Y-81.661
X154.813Y-81.661
T8
X171.704Y-121.666
X171.754Y-109.616
X185.904Y-115.666
T9
X137.39Y-126.619
X142.47Y-126.619
X147.55Y-126.619
X152.63Y-126.619
X157.71Y-126.619
X162.79Y-126.619
X167.87Y-126.619
X172.95Y-126.619
T10
X109.79Y-82.35
X109.79Y-130.35
X179.79Y-82.35
X179.79Y-130.35
T5
X101.43Y-85.186G85X102.98Y-85.186
G05
X101.43Y-92.486G85X102.98Y-92.486
G05
T0
M30
