M48
;DRILL file {KiCad 4.0.7} date Monday, May 07, 2018 'PMt' 12:32:55 PM
;FORMAT={-:-/ absolute / metric / decimal}
FMAT,2
METRIC,TZ
T1C0.300
T2C0.400
T3C0.460
T4C0.700
T5C0.850
T6C1.000
T7C1.100
T8C1.300
T9C1.400
T10C2.700
%
G90
G05
M71
T1
X162.735Y-120.745
X162.735Y-123.285
X162.735Y-125.825
X165.227Y-116.078
X166.878Y-114.427
X167.815Y-120.745
X167.815Y-123.285
X167.815Y-125.825
X168.529Y-112.776
X170.053Y-111.252
X170.355Y-118.205
X172.72Y-115.697
X172.895Y-123.285
X172.895Y-125.825
X175.26Y-115.697
X177.8Y-115.697
X180.34Y-115.697
X182.88Y-115.697
T2
X97.33Y-126.46
X98.6Y-95.98
X98.6Y-106.14
X98.6Y-109.95
X98.6Y-113.76
X98.6Y-117.57
X101.14Y-126.46
X102.235Y-105.41
X102.41Y-95.98
X102.41Y-109.95
X103.147Y-104.221
X103.886Y-115.189
X103.886Y-116.332
X103.886Y-117.475
X104.066Y-103.12
X104.902Y-115.189
X104.902Y-116.332
X104.902Y-117.475
X104.95Y-122.65
X104.95Y-126.46
X105.04Y-102.016
X105.045Y-100.932
X105.346Y-132.207
X107.49Y-80.74
X107.49Y-84.55
X108.76Y-120.11
X108.76Y-121.38
X108.76Y-122.65
X108.76Y-123.92
X108.76Y-125.19
X108.76Y-126.46
X108.76Y-127.73
X109.79Y-99.35
X109.79Y-102.85
X109.79Y-106.35
X109.79Y-109.85
X109.79Y-113.35
X111.188Y-91.376
X111.3Y-80.74
X111.3Y-84.55
X111.3Y-88.36
X111.3Y-120.11
X111.3Y-121.38
X111.3Y-122.65
X111.3Y-126.46
X111.3Y-127.73
X112.57Y-120.11
X112.57Y-121.38
X112.57Y-122.65
X112.57Y-123.92
X113.29Y-99.35
X113.29Y-102.85
X113.29Y-106.35
X113.29Y-109.85
X113.29Y-113.35
X113.665Y-127.635
X115.11Y-80.74
X115.11Y-84.55
X115.11Y-88.36
X115.11Y-122.65
X115.11Y-123.92
X115.11Y-125.19
X116.139Y-90.034
X116.29Y-121.85
X116.79Y-99.35
X116.79Y-102.85
X116.79Y-106.35
X116.79Y-109.85
X116.79Y-113.35
X117.65Y-120.11
X117.65Y-121.38
X118.92Y-80.74
X118.92Y-84.55
X118.92Y-88.36
X122.555Y-110.49
X122.682Y-104.648
X122.682Y-105.537
X122.682Y-106.426
X122.682Y-107.442
X122.682Y-114.046
X122.729Y-98.718
X122.73Y-80.74
X122.73Y-84.55
X122.73Y-88.36
X122.73Y-92.17
X122.786Y-102.002
X126.54Y-80.74
X126.54Y-84.55
X126.54Y-88.36
X128.016Y-108.902
X131.445Y-102.235
X132.08Y-109.22
X132.08Y-111.125
X132.08Y-113.03
X132.588Y-84.074
X134.62Y-99.06
X135.128Y-84.074
X135.255Y-109.22
X135.255Y-111.125
X135.255Y-113.03
X135.43Y-125.19
X137.16Y-104.775
X137.668Y-84.074
X137.668Y-86.487
X138.43Y-109.22
X138.43Y-111.125
X138.43Y-113.03
X139.24Y-125.19
X139.446Y-96.52
X139.446Y-99.695
X140.335Y-81.28
X140.335Y-84.455
X140.335Y-87.63
X140.335Y-90.805
X140.335Y-104.775
X141.097Y-96.52
X141.78Y-99.79
X143.05Y-125.19
X144.32Y-106.902
X148.765Y-115.284
X148.765Y-117.57
X149.86Y-92.075
X149.86Y-94.615
X149.86Y-97.155
X153.035Y-92.075
X153.035Y-94.615
X153.035Y-97.155
X153.035Y-121.285
X154.686Y-106.68
X154.94Y-88.198
X155.496Y-119.094
X155.575Y-121.285
X155.845Y-111.125
X155.956Y-106.68
X156.845Y-92.075
X156.845Y-94.615
X156.845Y-97.155
X157.226Y-106.68
X158.369Y-106.68
X159.384Y-89.981
X160.655Y-87.249
X160.655Y-96.012
X161.8Y-94.489
X163.322Y-94.996
X164.766Y-111.72
X165.318Y-89.245
X166.37Y-85.852
X168.198Y-102.608
X168.402Y-93.472
X169.468Y-83.029
X169.545Y-96.012
X174.752Y-100.838
X174.752Y-102.87
X174.752Y-104.902
X176.53Y-100.838
X176.53Y-102.87
X176.53Y-104.902
X178.102Y-87.598
X178.308Y-100.838
X178.308Y-102.87
X178.308Y-104.902
X183.69Y-87.09
X188.514Y-99.152
T3
X105.015Y-129.116
X113.775Y-129.116
T4
X103.112Y-87.636
X103.112Y-89.236
X105.712Y-86.836
X105.712Y-88.436
X105.712Y-90.036
T6
X146.812Y-87.852
X149.352Y-87.852
X178.61Y-80.74
X181.15Y-80.74
X183.69Y-80.74
X183.954Y-109.616
X183.954Y-121.616
X186.23Y-87.09
X186.23Y-89.63
X186.23Y-92.17
X186.23Y-94.71
X186.23Y-97.25
T7
X144.653Y-81.661
X154.813Y-81.661
T8
X171.704Y-121.666
X171.754Y-109.616
X185.904Y-115.666
T9
X137.335Y-128.746
X142.415Y-128.746
X147.495Y-128.746
X152.575Y-128.746
X157.655Y-128.746
X162.735Y-128.746
X167.815Y-128.746
X172.895Y-128.746
T10
X98.79Y-91.85
X98.79Y-121.85
X190.79Y-91.85
X190.79Y-91.85
X190.79Y-121.85
T5
X103.637Y-84.786G85X105.187Y-84.786
G05
X103.637Y-92.086G85X105.187Y-92.086
G05
T0
M30
