G04 #@! TF.FileFunction,Legend,Bot*
%FSLAX46Y46*%
G04 Gerber Fmt 4.6, Leading zero omitted, Abs format (unit mm)*
G04 Created by KiCad (PCBNEW 4.0.7) date Wednesday, May 02, 2018 'PMt' 05:51:31 PM*
%MOMM*%
%LPD*%
G01*
G04 APERTURE LIST*
%ADD10C,0.100000*%
%ADD11C,0.120000*%
%ADD12C,0.150000*%
G04 APERTURE END LIST*
D10*
D11*
X154034000Y-107662000D02*
X149784000Y-107662000D01*
X154034000Y-109762000D02*
X149784000Y-109762000D01*
X154034000Y-107662000D02*
X154034000Y-109762000D01*
X163357000Y-82073000D02*
X163357000Y-82773000D01*
X164557000Y-82773000D02*
X164557000Y-82073000D01*
X165069000Y-79664000D02*
X164369000Y-79664000D01*
X164369000Y-80864000D02*
X165069000Y-80864000D01*
X156245000Y-82085000D02*
X156245000Y-82785000D01*
X157445000Y-82785000D02*
X157445000Y-82085000D01*
X157642000Y-82085000D02*
X157642000Y-82785000D01*
X158842000Y-82785000D02*
X158842000Y-82085000D01*
X158019000Y-87849000D02*
X158719000Y-87849000D01*
X158719000Y-86649000D02*
X158019000Y-86649000D01*
X165770000Y-83978000D02*
X165770000Y-84678000D01*
X166970000Y-84678000D02*
X166970000Y-83978000D01*
X161255000Y-98775000D02*
X161255000Y-98075000D01*
X160055000Y-98075000D02*
X160055000Y-98775000D01*
X172181000Y-95412000D02*
X171481000Y-95412000D01*
X171481000Y-96612000D02*
X172181000Y-96612000D01*
X125638000Y-111410000D02*
X125638000Y-112110000D01*
X126838000Y-112110000D02*
X126838000Y-111410000D01*
X131988000Y-82085000D02*
X131988000Y-82785000D01*
X133188000Y-82785000D02*
X133188000Y-82085000D01*
X129382000Y-100365000D02*
X128682000Y-100365000D01*
X128682000Y-101565000D02*
X129382000Y-101565000D01*
X129382000Y-91856000D02*
X128682000Y-91856000D01*
X128682000Y-93056000D02*
X129382000Y-93056000D01*
X128542000Y-100066000D02*
X128542000Y-99136000D01*
X128542000Y-96906000D02*
X128542000Y-97836000D01*
X128542000Y-96906000D02*
X130702000Y-96906000D01*
X128542000Y-100066000D02*
X130002000Y-100066000D01*
X128542000Y-96515000D02*
X128542000Y-95585000D01*
X128542000Y-93355000D02*
X128542000Y-94285000D01*
X128542000Y-93355000D02*
X130702000Y-93355000D01*
X128542000Y-96515000D02*
X130002000Y-96515000D01*
X163457000Y-85389000D02*
X164457000Y-85389000D01*
X164457000Y-84029000D02*
X163457000Y-84029000D01*
X171597000Y-85643000D02*
X172597000Y-85643000D01*
X172597000Y-84283000D02*
X171597000Y-84283000D01*
X171597000Y-87421000D02*
X172597000Y-87421000D01*
X172597000Y-86061000D02*
X171597000Y-86061000D01*
X171597000Y-89199000D02*
X172597000Y-89199000D01*
X172597000Y-87839000D02*
X171597000Y-87839000D01*
X171597000Y-90977000D02*
X172597000Y-90977000D01*
X172597000Y-89617000D02*
X171597000Y-89617000D01*
X171597000Y-92755000D02*
X172597000Y-92755000D01*
X172597000Y-91395000D02*
X171597000Y-91395000D01*
X125075000Y-113366000D02*
X124075000Y-113366000D01*
X124075000Y-114726000D02*
X125075000Y-114726000D01*
X123780000Y-111272000D02*
X123780000Y-112272000D01*
X125140000Y-112272000D02*
X125140000Y-111272000D01*
X126115000Y-106762000D02*
X125115000Y-106762000D01*
X125115000Y-108122000D02*
X126115000Y-108122000D01*
X128782000Y-105746000D02*
X127782000Y-105746000D01*
X127782000Y-107106000D02*
X128782000Y-107106000D01*
X131449000Y-104857000D02*
X130449000Y-104857000D01*
X130449000Y-106217000D02*
X131449000Y-106217000D01*
X128782000Y-103968000D02*
X127782000Y-103968000D01*
X127782000Y-105328000D02*
X128782000Y-105328000D01*
X140126000Y-98671000D02*
X140126000Y-97671000D01*
X138766000Y-97671000D02*
X138766000Y-98671000D01*
X131834000Y-98216000D02*
X132834000Y-98216000D01*
X132834000Y-96856000D02*
X131834000Y-96856000D01*
X131834000Y-94660000D02*
X132834000Y-94660000D01*
X132834000Y-93300000D02*
X131834000Y-93300000D01*
X114213000Y-89331000D02*
X113213000Y-89331000D01*
X113213000Y-90691000D02*
X114213000Y-90691000D01*
X108498000Y-90728000D02*
X107498000Y-90728000D01*
X107498000Y-92088000D02*
X108498000Y-92088000D01*
D12*
X161443000Y-88081000D02*
X161893000Y-88081000D01*
X161443000Y-95331000D02*
X161968000Y-95331000D01*
X168693000Y-95331000D02*
X168168000Y-95331000D01*
X168693000Y-88081000D02*
X168168000Y-88081000D01*
X161443000Y-88081000D02*
X161443000Y-88606000D01*
X168693000Y-88081000D02*
X168693000Y-88606000D01*
X168693000Y-95331000D02*
X168693000Y-94806000D01*
X161443000Y-95331000D02*
X161443000Y-94806000D01*
X161893000Y-88081000D02*
X161893000Y-86706000D01*
D11*
X177982000Y-107082000D02*
X176482000Y-107082000D01*
X176482000Y-107082000D02*
X176482000Y-106812000D01*
X176482000Y-106812000D02*
X173652000Y-106812000D01*
X177982000Y-100182000D02*
X176482000Y-100182000D01*
X176482000Y-100182000D02*
X176482000Y-100452000D01*
X176482000Y-100452000D02*
X175382000Y-100452000D01*
X159120000Y-83819000D02*
X159120000Y-80519000D01*
X159120000Y-80519000D02*
X163120000Y-80519000D01*
X158917000Y-85965000D02*
X157567000Y-85965000D01*
X158917000Y-84215000D02*
X157567000Y-84215000D01*
X149371000Y-112365000D02*
X150631000Y-112365000D01*
X156191000Y-112365000D02*
X154931000Y-112365000D01*
X149371000Y-116125000D02*
X149371000Y-112365000D01*
X156191000Y-118375000D02*
X156191000Y-112365000D01*
X140989000Y-112390000D02*
X142249000Y-112390000D01*
X147809000Y-112390000D02*
X146549000Y-112390000D01*
X140989000Y-116150000D02*
X140989000Y-112390000D01*
X147809000Y-118400000D02*
X147809000Y-112390000D01*
X140838000Y-122208000D02*
X145088000Y-122208000D01*
X140838000Y-120108000D02*
X145088000Y-120108000D01*
X140838000Y-122208000D02*
X140838000Y-120108000D01*
X143225000Y-118780000D02*
X142525000Y-118780000D01*
X142525000Y-119980000D02*
X143225000Y-119980000D01*
X151748000Y-120108000D02*
X147498000Y-120108000D01*
X151748000Y-122208000D02*
X147498000Y-122208000D01*
X151748000Y-120108000D02*
X151748000Y-122208000D01*
X149383000Y-119980000D02*
X150083000Y-119980000D01*
X150083000Y-118780000D02*
X149383000Y-118780000D01*
X123485598Y-102002193D02*
G75*
G03X123485598Y-102002193I-700000J0D01*
G01*
X123428574Y-98717709D02*
G75*
G03X123428574Y-98717709I-700000J0D01*
G01*
X123382000Y-114046000D02*
G75*
G03X123382000Y-114046000I-700000J0D01*
G01*
X124664000Y-104648000D02*
G75*
G03X124664000Y-104648000I-700000J0D01*
G01*
X126557000Y-105537000D02*
G75*
G03X126557000Y-105537000I-700000J0D01*
G01*
X143146000Y-109762000D02*
X147396000Y-109762000D01*
X143146000Y-107662000D02*
X147396000Y-107662000D01*
X143146000Y-109762000D02*
X143146000Y-107662000D01*
X130698500Y-82776000D02*
X130698500Y-83276000D01*
X131398500Y-82776000D02*
X131398500Y-83276000D01*
X134762500Y-82776000D02*
X134762500Y-83276000D01*
X135462500Y-82776000D02*
X135462500Y-83276000D01*
X138002500Y-87911500D02*
X138002500Y-87411500D01*
X137302500Y-87911500D02*
X137302500Y-87411500D01*
X137302500Y-82755000D02*
X137302500Y-83255000D01*
X138002500Y-82755000D02*
X138002500Y-83255000D01*
X141649000Y-97027000D02*
X141149000Y-97027000D01*
X141649000Y-97727000D02*
X141149000Y-97727000D01*
X137318000Y-97727000D02*
X137818000Y-97727000D01*
X137318000Y-97027000D02*
X137818000Y-97027000D01*
D12*
X152090357Y-107291143D02*
X152137976Y-107338762D01*
X152280833Y-107386381D01*
X152376071Y-107386381D01*
X152518929Y-107338762D01*
X152614167Y-107243524D01*
X152661786Y-107148286D01*
X152709405Y-106957810D01*
X152709405Y-106814952D01*
X152661786Y-106624476D01*
X152614167Y-106529238D01*
X152518929Y-106434000D01*
X152376071Y-106386381D01*
X152280833Y-106386381D01*
X152137976Y-106434000D01*
X152090357Y-106481619D01*
X151233214Y-106719714D02*
X151233214Y-107386381D01*
X151471310Y-106338762D02*
X151709405Y-107053048D01*
X151090357Y-107053048D01*
X150518929Y-106386381D02*
X150423690Y-106386381D01*
X150328452Y-106434000D01*
X150280833Y-106481619D01*
X150233214Y-106576857D01*
X150185595Y-106767333D01*
X150185595Y-107005429D01*
X150233214Y-107195905D01*
X150280833Y-107291143D01*
X150328452Y-107338762D01*
X150423690Y-107386381D01*
X150518929Y-107386381D01*
X150614167Y-107338762D01*
X150661786Y-107291143D01*
X150709405Y-107195905D01*
X150757024Y-107005429D01*
X150757024Y-106767333D01*
X150709405Y-106576857D01*
X150661786Y-106481619D01*
X150614167Y-106434000D01*
X150518929Y-106386381D01*
X165647643Y-82256334D02*
X165695262Y-82208715D01*
X165742881Y-82065858D01*
X165742881Y-81970620D01*
X165695262Y-81827762D01*
X165600024Y-81732524D01*
X165504786Y-81684905D01*
X165314310Y-81637286D01*
X165171452Y-81637286D01*
X164980976Y-81684905D01*
X164885738Y-81732524D01*
X164790500Y-81827762D01*
X164742881Y-81970620D01*
X164742881Y-82065858D01*
X164790500Y-82208715D01*
X164838119Y-82256334D01*
X164838119Y-82637286D02*
X164790500Y-82684905D01*
X164742881Y-82780143D01*
X164742881Y-83018239D01*
X164790500Y-83113477D01*
X164838119Y-83161096D01*
X164933357Y-83208715D01*
X165028595Y-83208715D01*
X165171452Y-83161096D01*
X165742881Y-82589667D01*
X165742881Y-83208715D01*
X167235166Y-80684643D02*
X167282785Y-80732262D01*
X167425642Y-80779881D01*
X167520880Y-80779881D01*
X167663738Y-80732262D01*
X167758976Y-80637024D01*
X167806595Y-80541786D01*
X167854214Y-80351310D01*
X167854214Y-80208452D01*
X167806595Y-80017976D01*
X167758976Y-79922738D01*
X167663738Y-79827500D01*
X167520880Y-79779881D01*
X167425642Y-79779881D01*
X167282785Y-79827500D01*
X167235166Y-79875119D01*
X166901833Y-79779881D02*
X166282785Y-79779881D01*
X166616119Y-80160833D01*
X166473261Y-80160833D01*
X166378023Y-80208452D01*
X166330404Y-80256071D01*
X166282785Y-80351310D01*
X166282785Y-80589405D01*
X166330404Y-80684643D01*
X166378023Y-80732262D01*
X166473261Y-80779881D01*
X166758976Y-80779881D01*
X166854214Y-80732262D01*
X166901833Y-80684643D01*
X157138643Y-80160834D02*
X157186262Y-80113215D01*
X157233881Y-79970358D01*
X157233881Y-79875120D01*
X157186262Y-79732262D01*
X157091024Y-79637024D01*
X156995786Y-79589405D01*
X156805310Y-79541786D01*
X156662452Y-79541786D01*
X156471976Y-79589405D01*
X156376738Y-79637024D01*
X156281500Y-79732262D01*
X156233881Y-79875120D01*
X156233881Y-79970358D01*
X156281500Y-80113215D01*
X156329119Y-80160834D01*
X156567214Y-81017977D02*
X157233881Y-81017977D01*
X156186262Y-80779881D02*
X156900548Y-80541786D01*
X156900548Y-81160834D01*
X158599143Y-80160834D02*
X158646762Y-80113215D01*
X158694381Y-79970358D01*
X158694381Y-79875120D01*
X158646762Y-79732262D01*
X158551524Y-79637024D01*
X158456286Y-79589405D01*
X158265810Y-79541786D01*
X158122952Y-79541786D01*
X157932476Y-79589405D01*
X157837238Y-79637024D01*
X157742000Y-79732262D01*
X157694381Y-79875120D01*
X157694381Y-79970358D01*
X157742000Y-80113215D01*
X157789619Y-80160834D01*
X157694381Y-81065596D02*
X157694381Y-80589405D01*
X158170571Y-80541786D01*
X158122952Y-80589405D01*
X158075333Y-80684643D01*
X158075333Y-80922739D01*
X158122952Y-81017977D01*
X158170571Y-81065596D01*
X158265810Y-81113215D01*
X158503905Y-81113215D01*
X158599143Y-81065596D01*
X158646762Y-81017977D01*
X158694381Y-80922739D01*
X158694381Y-80684643D01*
X158646762Y-80589405D01*
X158599143Y-80541786D01*
X156186166Y-87606143D02*
X156233785Y-87653762D01*
X156376642Y-87701381D01*
X156471880Y-87701381D01*
X156614738Y-87653762D01*
X156709976Y-87558524D01*
X156757595Y-87463286D01*
X156805214Y-87272810D01*
X156805214Y-87129952D01*
X156757595Y-86939476D01*
X156709976Y-86844238D01*
X156614738Y-86749000D01*
X156471880Y-86701381D01*
X156376642Y-86701381D01*
X156233785Y-86749000D01*
X156186166Y-86796619D01*
X155852833Y-86701381D02*
X155186166Y-86701381D01*
X155614738Y-87701381D01*
X168187643Y-84161334D02*
X168235262Y-84113715D01*
X168282881Y-83970858D01*
X168282881Y-83875620D01*
X168235262Y-83732762D01*
X168140024Y-83637524D01*
X168044786Y-83589905D01*
X167854310Y-83542286D01*
X167711452Y-83542286D01*
X167520976Y-83589905D01*
X167425738Y-83637524D01*
X167330500Y-83732762D01*
X167282881Y-83875620D01*
X167282881Y-83970858D01*
X167330500Y-84113715D01*
X167378119Y-84161334D01*
X168282881Y-84637524D02*
X168282881Y-84828000D01*
X168235262Y-84923239D01*
X168187643Y-84970858D01*
X168044786Y-85066096D01*
X167854310Y-85113715D01*
X167473357Y-85113715D01*
X167378119Y-85066096D01*
X167330500Y-85018477D01*
X167282881Y-84923239D01*
X167282881Y-84732762D01*
X167330500Y-84637524D01*
X167378119Y-84589905D01*
X167473357Y-84542286D01*
X167711452Y-84542286D01*
X167806690Y-84589905D01*
X167854310Y-84637524D01*
X167901929Y-84732762D01*
X167901929Y-84923239D01*
X167854310Y-85018477D01*
X167806690Y-85066096D01*
X167711452Y-85113715D01*
X161012143Y-100576143D02*
X161059762Y-100528524D01*
X161107381Y-100385667D01*
X161107381Y-100290429D01*
X161059762Y-100147571D01*
X160964524Y-100052333D01*
X160869286Y-100004714D01*
X160678810Y-99957095D01*
X160535952Y-99957095D01*
X160345476Y-100004714D01*
X160250238Y-100052333D01*
X160155000Y-100147571D01*
X160107381Y-100290429D01*
X160107381Y-100385667D01*
X160155000Y-100528524D01*
X160202619Y-100576143D01*
X161107381Y-101528524D02*
X161107381Y-100957095D01*
X161107381Y-101242809D02*
X160107381Y-101242809D01*
X160250238Y-101147571D01*
X160345476Y-101052333D01*
X160393095Y-100957095D01*
X160107381Y-102147571D02*
X160107381Y-102242810D01*
X160155000Y-102338048D01*
X160202619Y-102385667D01*
X160297857Y-102433286D01*
X160488333Y-102480905D01*
X160726429Y-102480905D01*
X160916905Y-102433286D01*
X161012143Y-102385667D01*
X161059762Y-102338048D01*
X161107381Y-102242810D01*
X161107381Y-102147571D01*
X161059762Y-102052333D01*
X161012143Y-102004714D01*
X160916905Y-101957095D01*
X160726429Y-101909476D01*
X160488333Y-101909476D01*
X160297857Y-101957095D01*
X160202619Y-102004714D01*
X160155000Y-102052333D01*
X160107381Y-102147571D01*
X175331357Y-96369143D02*
X175378976Y-96416762D01*
X175521833Y-96464381D01*
X175617071Y-96464381D01*
X175759929Y-96416762D01*
X175855167Y-96321524D01*
X175902786Y-96226286D01*
X175950405Y-96035810D01*
X175950405Y-95892952D01*
X175902786Y-95702476D01*
X175855167Y-95607238D01*
X175759929Y-95512000D01*
X175617071Y-95464381D01*
X175521833Y-95464381D01*
X175378976Y-95512000D01*
X175331357Y-95559619D01*
X174378976Y-96464381D02*
X174950405Y-96464381D01*
X174664691Y-96464381D02*
X174664691Y-95464381D01*
X174759929Y-95607238D01*
X174855167Y-95702476D01*
X174950405Y-95750095D01*
X173426595Y-96464381D02*
X173998024Y-96464381D01*
X173712310Y-96464381D02*
X173712310Y-95464381D01*
X173807548Y-95607238D01*
X173902786Y-95702476D01*
X173998024Y-95750095D01*
X127992143Y-111117143D02*
X128039762Y-111069524D01*
X128087381Y-110926667D01*
X128087381Y-110831429D01*
X128039762Y-110688571D01*
X127944524Y-110593333D01*
X127849286Y-110545714D01*
X127658810Y-110498095D01*
X127515952Y-110498095D01*
X127325476Y-110545714D01*
X127230238Y-110593333D01*
X127135000Y-110688571D01*
X127087381Y-110831429D01*
X127087381Y-110926667D01*
X127135000Y-111069524D01*
X127182619Y-111117143D01*
X127182619Y-111498095D02*
X127135000Y-111545714D01*
X127087381Y-111640952D01*
X127087381Y-111879048D01*
X127135000Y-111974286D01*
X127182619Y-112021905D01*
X127277857Y-112069524D01*
X127373095Y-112069524D01*
X127515952Y-112021905D01*
X128087381Y-111450476D01*
X128087381Y-112069524D01*
X127087381Y-112688571D02*
X127087381Y-112783810D01*
X127135000Y-112879048D01*
X127182619Y-112926667D01*
X127277857Y-112974286D01*
X127468333Y-113021905D01*
X127706429Y-113021905D01*
X127896905Y-112974286D01*
X127992143Y-112926667D01*
X128039762Y-112879048D01*
X128087381Y-112783810D01*
X128087381Y-112688571D01*
X128039762Y-112593333D01*
X127992143Y-112545714D01*
X127896905Y-112498095D01*
X127706429Y-112450476D01*
X127468333Y-112450476D01*
X127277857Y-112498095D01*
X127182619Y-112545714D01*
X127135000Y-112593333D01*
X127087381Y-112688571D01*
X132945143Y-84637643D02*
X132992762Y-84590024D01*
X133040381Y-84447167D01*
X133040381Y-84351929D01*
X132992762Y-84209071D01*
X132897524Y-84113833D01*
X132802286Y-84066214D01*
X132611810Y-84018595D01*
X132468952Y-84018595D01*
X132278476Y-84066214D01*
X132183238Y-84113833D01*
X132088000Y-84209071D01*
X132040381Y-84351929D01*
X132040381Y-84447167D01*
X132088000Y-84590024D01*
X132135619Y-84637643D01*
X132135619Y-85018595D02*
X132088000Y-85066214D01*
X132040381Y-85161452D01*
X132040381Y-85399548D01*
X132088000Y-85494786D01*
X132135619Y-85542405D01*
X132230857Y-85590024D01*
X132326095Y-85590024D01*
X132468952Y-85542405D01*
X133040381Y-84970976D01*
X133040381Y-85590024D01*
X133040381Y-86542405D02*
X133040381Y-85970976D01*
X133040381Y-86256690D02*
X132040381Y-86256690D01*
X132183238Y-86161452D01*
X132278476Y-86066214D01*
X132326095Y-85970976D01*
X132532357Y-101322143D02*
X132579976Y-101369762D01*
X132722833Y-101417381D01*
X132818071Y-101417381D01*
X132960929Y-101369762D01*
X133056167Y-101274524D01*
X133103786Y-101179286D01*
X133151405Y-100988810D01*
X133151405Y-100845952D01*
X133103786Y-100655476D01*
X133056167Y-100560238D01*
X132960929Y-100465000D01*
X132818071Y-100417381D01*
X132722833Y-100417381D01*
X132579976Y-100465000D01*
X132532357Y-100512619D01*
X132151405Y-100512619D02*
X132103786Y-100465000D01*
X132008548Y-100417381D01*
X131770452Y-100417381D01*
X131675214Y-100465000D01*
X131627595Y-100512619D01*
X131579976Y-100607857D01*
X131579976Y-100703095D01*
X131627595Y-100845952D01*
X132199024Y-101417381D01*
X131579976Y-101417381D01*
X130722833Y-100417381D02*
X130913310Y-100417381D01*
X131008548Y-100465000D01*
X131056167Y-100512619D01*
X131151405Y-100655476D01*
X131199024Y-100845952D01*
X131199024Y-101226905D01*
X131151405Y-101322143D01*
X131103786Y-101369762D01*
X131008548Y-101417381D01*
X130818071Y-101417381D01*
X130722833Y-101369762D01*
X130675214Y-101322143D01*
X130627595Y-101226905D01*
X130627595Y-100988810D01*
X130675214Y-100893571D01*
X130722833Y-100845952D01*
X130818071Y-100798333D01*
X131008548Y-100798333D01*
X131103786Y-100845952D01*
X131151405Y-100893571D01*
X131199024Y-100988810D01*
X132532357Y-92813143D02*
X132579976Y-92860762D01*
X132722833Y-92908381D01*
X132818071Y-92908381D01*
X132960929Y-92860762D01*
X133056167Y-92765524D01*
X133103786Y-92670286D01*
X133151405Y-92479810D01*
X133151405Y-92336952D01*
X133103786Y-92146476D01*
X133056167Y-92051238D01*
X132960929Y-91956000D01*
X132818071Y-91908381D01*
X132722833Y-91908381D01*
X132579976Y-91956000D01*
X132532357Y-92003619D01*
X132151405Y-92003619D02*
X132103786Y-91956000D01*
X132008548Y-91908381D01*
X131770452Y-91908381D01*
X131675214Y-91956000D01*
X131627595Y-92003619D01*
X131579976Y-92098857D01*
X131579976Y-92194095D01*
X131627595Y-92336952D01*
X132199024Y-92908381D01*
X131579976Y-92908381D01*
X131246643Y-91908381D02*
X130579976Y-91908381D01*
X131008548Y-92908381D01*
X126714238Y-99036119D02*
X126809476Y-98988500D01*
X126904714Y-98893262D01*
X127047571Y-98750405D01*
X127142810Y-98702786D01*
X127238048Y-98702786D01*
X127190429Y-98940881D02*
X127285667Y-98893262D01*
X127380905Y-98798024D01*
X127428524Y-98607548D01*
X127428524Y-98274214D01*
X127380905Y-98083738D01*
X127285667Y-97988500D01*
X127190429Y-97940881D01*
X126999952Y-97940881D01*
X126904714Y-97988500D01*
X126809476Y-98083738D01*
X126761857Y-98274214D01*
X126761857Y-98607548D01*
X126809476Y-98798024D01*
X126904714Y-98893262D01*
X126999952Y-98940881D01*
X127190429Y-98940881D01*
X126380905Y-98036119D02*
X126333286Y-97988500D01*
X126238048Y-97940881D01*
X125999952Y-97940881D01*
X125904714Y-97988500D01*
X125857095Y-98036119D01*
X125809476Y-98131357D01*
X125809476Y-98226595D01*
X125857095Y-98369452D01*
X126428524Y-98940881D01*
X125809476Y-98940881D01*
X126714238Y-95480119D02*
X126809476Y-95432500D01*
X126904714Y-95337262D01*
X127047571Y-95194405D01*
X127142810Y-95146786D01*
X127238048Y-95146786D01*
X127190429Y-95384881D02*
X127285667Y-95337262D01*
X127380905Y-95242024D01*
X127428524Y-95051548D01*
X127428524Y-94718214D01*
X127380905Y-94527738D01*
X127285667Y-94432500D01*
X127190429Y-94384881D01*
X126999952Y-94384881D01*
X126904714Y-94432500D01*
X126809476Y-94527738D01*
X126761857Y-94718214D01*
X126761857Y-95051548D01*
X126809476Y-95242024D01*
X126904714Y-95337262D01*
X126999952Y-95384881D01*
X127190429Y-95384881D01*
X126428524Y-94384881D02*
X125809476Y-94384881D01*
X126142810Y-94765833D01*
X125999952Y-94765833D01*
X125904714Y-94813452D01*
X125857095Y-94861071D01*
X125809476Y-94956310D01*
X125809476Y-95194405D01*
X125857095Y-95289643D01*
X125904714Y-95337262D01*
X125999952Y-95384881D01*
X126285667Y-95384881D01*
X126380905Y-95337262D01*
X126428524Y-95289643D01*
X161964666Y-86304381D02*
X162298000Y-85828190D01*
X162536095Y-86304381D02*
X162536095Y-85304381D01*
X162155142Y-85304381D01*
X162059904Y-85352000D01*
X162012285Y-85399619D01*
X161964666Y-85494857D01*
X161964666Y-85637714D01*
X162012285Y-85732952D01*
X162059904Y-85780571D01*
X162155142Y-85828190D01*
X162536095Y-85828190D01*
X161107523Y-85304381D02*
X161298000Y-85304381D01*
X161393238Y-85352000D01*
X161440857Y-85399619D01*
X161536095Y-85542476D01*
X161583714Y-85732952D01*
X161583714Y-86113905D01*
X161536095Y-86209143D01*
X161488476Y-86256762D01*
X161393238Y-86304381D01*
X161202761Y-86304381D01*
X161107523Y-86256762D01*
X161059904Y-86209143D01*
X161012285Y-86113905D01*
X161012285Y-85875810D01*
X161059904Y-85780571D01*
X161107523Y-85732952D01*
X161202761Y-85685333D01*
X161393238Y-85685333D01*
X161488476Y-85732952D01*
X161536095Y-85780571D01*
X161583714Y-85875810D01*
X174474166Y-85415381D02*
X174807500Y-84939190D01*
X175045595Y-85415381D02*
X175045595Y-84415381D01*
X174664642Y-84415381D01*
X174569404Y-84463000D01*
X174521785Y-84510619D01*
X174474166Y-84605857D01*
X174474166Y-84748714D01*
X174521785Y-84843952D01*
X174569404Y-84891571D01*
X174664642Y-84939190D01*
X175045595Y-84939190D01*
X174140833Y-84415381D02*
X173474166Y-84415381D01*
X173902738Y-85415381D01*
X174537666Y-87193381D02*
X174871000Y-86717190D01*
X175109095Y-87193381D02*
X175109095Y-86193381D01*
X174728142Y-86193381D01*
X174632904Y-86241000D01*
X174585285Y-86288619D01*
X174537666Y-86383857D01*
X174537666Y-86526714D01*
X174585285Y-86621952D01*
X174632904Y-86669571D01*
X174728142Y-86717190D01*
X175109095Y-86717190D01*
X173966238Y-86621952D02*
X174061476Y-86574333D01*
X174109095Y-86526714D01*
X174156714Y-86431476D01*
X174156714Y-86383857D01*
X174109095Y-86288619D01*
X174061476Y-86241000D01*
X173966238Y-86193381D01*
X173775761Y-86193381D01*
X173680523Y-86241000D01*
X173632904Y-86288619D01*
X173585285Y-86383857D01*
X173585285Y-86431476D01*
X173632904Y-86526714D01*
X173680523Y-86574333D01*
X173775761Y-86621952D01*
X173966238Y-86621952D01*
X174061476Y-86669571D01*
X174109095Y-86717190D01*
X174156714Y-86812429D01*
X174156714Y-87002905D01*
X174109095Y-87098143D01*
X174061476Y-87145762D01*
X173966238Y-87193381D01*
X173775761Y-87193381D01*
X173680523Y-87145762D01*
X173632904Y-87098143D01*
X173585285Y-87002905D01*
X173585285Y-86812429D01*
X173632904Y-86717190D01*
X173680523Y-86669571D01*
X173775761Y-86621952D01*
X174474166Y-88971381D02*
X174807500Y-88495190D01*
X175045595Y-88971381D02*
X175045595Y-87971381D01*
X174664642Y-87971381D01*
X174569404Y-88019000D01*
X174521785Y-88066619D01*
X174474166Y-88161857D01*
X174474166Y-88304714D01*
X174521785Y-88399952D01*
X174569404Y-88447571D01*
X174664642Y-88495190D01*
X175045595Y-88495190D01*
X173997976Y-88971381D02*
X173807500Y-88971381D01*
X173712261Y-88923762D01*
X173664642Y-88876143D01*
X173569404Y-88733286D01*
X173521785Y-88542810D01*
X173521785Y-88161857D01*
X173569404Y-88066619D01*
X173617023Y-88019000D01*
X173712261Y-87971381D01*
X173902738Y-87971381D01*
X173997976Y-88019000D01*
X174045595Y-88066619D01*
X174093214Y-88161857D01*
X174093214Y-88399952D01*
X174045595Y-88495190D01*
X173997976Y-88542810D01*
X173902738Y-88590429D01*
X173712261Y-88590429D01*
X173617023Y-88542810D01*
X173569404Y-88495190D01*
X173521785Y-88399952D01*
X175394857Y-90749381D02*
X175728191Y-90273190D01*
X175966286Y-90749381D02*
X175966286Y-89749381D01*
X175585333Y-89749381D01*
X175490095Y-89797000D01*
X175442476Y-89844619D01*
X175394857Y-89939857D01*
X175394857Y-90082714D01*
X175442476Y-90177952D01*
X175490095Y-90225571D01*
X175585333Y-90273190D01*
X175966286Y-90273190D01*
X174442476Y-90749381D02*
X175013905Y-90749381D01*
X174728191Y-90749381D02*
X174728191Y-89749381D01*
X174823429Y-89892238D01*
X174918667Y-89987476D01*
X175013905Y-90035095D01*
X173823429Y-89749381D02*
X173728190Y-89749381D01*
X173632952Y-89797000D01*
X173585333Y-89844619D01*
X173537714Y-89939857D01*
X173490095Y-90130333D01*
X173490095Y-90368429D01*
X173537714Y-90558905D01*
X173585333Y-90654143D01*
X173632952Y-90701762D01*
X173728190Y-90749381D01*
X173823429Y-90749381D01*
X173918667Y-90701762D01*
X173966286Y-90654143D01*
X174013905Y-90558905D01*
X174061524Y-90368429D01*
X174061524Y-90130333D01*
X174013905Y-89939857D01*
X173966286Y-89844619D01*
X173918667Y-89797000D01*
X173823429Y-89749381D01*
X175394857Y-92527381D02*
X175728191Y-92051190D01*
X175966286Y-92527381D02*
X175966286Y-91527381D01*
X175585333Y-91527381D01*
X175490095Y-91575000D01*
X175442476Y-91622619D01*
X175394857Y-91717857D01*
X175394857Y-91860714D01*
X175442476Y-91955952D01*
X175490095Y-92003571D01*
X175585333Y-92051190D01*
X175966286Y-92051190D01*
X174442476Y-92527381D02*
X175013905Y-92527381D01*
X174728191Y-92527381D02*
X174728191Y-91527381D01*
X174823429Y-91670238D01*
X174918667Y-91765476D01*
X175013905Y-91813095D01*
X173490095Y-92527381D02*
X174061524Y-92527381D01*
X173775810Y-92527381D02*
X173775810Y-91527381D01*
X173871048Y-91670238D01*
X173966286Y-91765476D01*
X174061524Y-91813095D01*
X127896857Y-114498381D02*
X128230191Y-114022190D01*
X128468286Y-114498381D02*
X128468286Y-113498381D01*
X128087333Y-113498381D01*
X127992095Y-113546000D01*
X127944476Y-113593619D01*
X127896857Y-113688857D01*
X127896857Y-113831714D01*
X127944476Y-113926952D01*
X127992095Y-113974571D01*
X128087333Y-114022190D01*
X128468286Y-114022190D01*
X126944476Y-114498381D02*
X127515905Y-114498381D01*
X127230191Y-114498381D02*
X127230191Y-113498381D01*
X127325429Y-113641238D01*
X127420667Y-113736476D01*
X127515905Y-113784095D01*
X126611143Y-113498381D02*
X125992095Y-113498381D01*
X126325429Y-113879333D01*
X126182571Y-113879333D01*
X126087333Y-113926952D01*
X126039714Y-113974571D01*
X125992095Y-114069810D01*
X125992095Y-114307905D01*
X126039714Y-114403143D01*
X126087333Y-114450762D01*
X126182571Y-114498381D01*
X126468286Y-114498381D01*
X126563524Y-114450762D01*
X126611143Y-114403143D01*
X123578881Y-111117143D02*
X123102690Y-110783809D01*
X123578881Y-110545714D02*
X122578881Y-110545714D01*
X122578881Y-110926667D01*
X122626500Y-111021905D01*
X122674119Y-111069524D01*
X122769357Y-111117143D01*
X122912214Y-111117143D01*
X123007452Y-111069524D01*
X123055071Y-111021905D01*
X123102690Y-110926667D01*
X123102690Y-110545714D01*
X123578881Y-112069524D02*
X123578881Y-111498095D01*
X123578881Y-111783809D02*
X122578881Y-111783809D01*
X122721738Y-111688571D01*
X122816976Y-111593333D01*
X122864595Y-111498095D01*
X122912214Y-112926667D02*
X123578881Y-112926667D01*
X122531262Y-112688571D02*
X123245548Y-112450476D01*
X123245548Y-113069524D01*
X126245857Y-109418381D02*
X126579191Y-108942190D01*
X126817286Y-109418381D02*
X126817286Y-108418381D01*
X126436333Y-108418381D01*
X126341095Y-108466000D01*
X126293476Y-108513619D01*
X126245857Y-108608857D01*
X126245857Y-108751714D01*
X126293476Y-108846952D01*
X126341095Y-108894571D01*
X126436333Y-108942190D01*
X126817286Y-108942190D01*
X125293476Y-109418381D02*
X125864905Y-109418381D01*
X125579191Y-109418381D02*
X125579191Y-108418381D01*
X125674429Y-108561238D01*
X125769667Y-108656476D01*
X125864905Y-108704095D01*
X124388714Y-108418381D02*
X124864905Y-108418381D01*
X124912524Y-108894571D01*
X124864905Y-108846952D01*
X124769667Y-108799333D01*
X124531571Y-108799333D01*
X124436333Y-108846952D01*
X124388714Y-108894571D01*
X124341095Y-108989810D01*
X124341095Y-109227905D01*
X124388714Y-109323143D01*
X124436333Y-109370762D01*
X124531571Y-109418381D01*
X124769667Y-109418381D01*
X124864905Y-109370762D01*
X124912524Y-109323143D01*
X128976357Y-108275381D02*
X129309691Y-107799190D01*
X129547786Y-108275381D02*
X129547786Y-107275381D01*
X129166833Y-107275381D01*
X129071595Y-107323000D01*
X129023976Y-107370619D01*
X128976357Y-107465857D01*
X128976357Y-107608714D01*
X129023976Y-107703952D01*
X129071595Y-107751571D01*
X129166833Y-107799190D01*
X129547786Y-107799190D01*
X128023976Y-108275381D02*
X128595405Y-108275381D01*
X128309691Y-108275381D02*
X128309691Y-107275381D01*
X128404929Y-107418238D01*
X128500167Y-107513476D01*
X128595405Y-107561095D01*
X127690643Y-107275381D02*
X127023976Y-107275381D01*
X127452548Y-108275381D01*
X134183357Y-105989381D02*
X134516691Y-105513190D01*
X134754786Y-105989381D02*
X134754786Y-104989381D01*
X134373833Y-104989381D01*
X134278595Y-105037000D01*
X134230976Y-105084619D01*
X134183357Y-105179857D01*
X134183357Y-105322714D01*
X134230976Y-105417952D01*
X134278595Y-105465571D01*
X134373833Y-105513190D01*
X134754786Y-105513190D01*
X133230976Y-105989381D02*
X133802405Y-105989381D01*
X133516691Y-105989381D02*
X133516691Y-104989381D01*
X133611929Y-105132238D01*
X133707167Y-105227476D01*
X133802405Y-105275095D01*
X132659548Y-105417952D02*
X132754786Y-105370333D01*
X132802405Y-105322714D01*
X132850024Y-105227476D01*
X132850024Y-105179857D01*
X132802405Y-105084619D01*
X132754786Y-105037000D01*
X132659548Y-104989381D01*
X132469071Y-104989381D01*
X132373833Y-105037000D01*
X132326214Y-105084619D01*
X132278595Y-105179857D01*
X132278595Y-105227476D01*
X132326214Y-105322714D01*
X132373833Y-105370333D01*
X132469071Y-105417952D01*
X132659548Y-105417952D01*
X132754786Y-105465571D01*
X132802405Y-105513190D01*
X132850024Y-105608429D01*
X132850024Y-105798905D01*
X132802405Y-105894143D01*
X132754786Y-105941762D01*
X132659548Y-105989381D01*
X132469071Y-105989381D01*
X132373833Y-105941762D01*
X132326214Y-105894143D01*
X132278595Y-105798905D01*
X132278595Y-105608429D01*
X132326214Y-105513190D01*
X132373833Y-105465571D01*
X132469071Y-105417952D01*
X128912857Y-103766881D02*
X129246191Y-103290690D01*
X129484286Y-103766881D02*
X129484286Y-102766881D01*
X129103333Y-102766881D01*
X129008095Y-102814500D01*
X128960476Y-102862119D01*
X128912857Y-102957357D01*
X128912857Y-103100214D01*
X128960476Y-103195452D01*
X129008095Y-103243071D01*
X129103333Y-103290690D01*
X129484286Y-103290690D01*
X127960476Y-103766881D02*
X128531905Y-103766881D01*
X128246191Y-103766881D02*
X128246191Y-102766881D01*
X128341429Y-102909738D01*
X128436667Y-103004976D01*
X128531905Y-103052595D01*
X127484286Y-103766881D02*
X127293810Y-103766881D01*
X127198571Y-103719262D01*
X127150952Y-103671643D01*
X127055714Y-103528786D01*
X127008095Y-103338310D01*
X127008095Y-102957357D01*
X127055714Y-102862119D01*
X127103333Y-102814500D01*
X127198571Y-102766881D01*
X127389048Y-102766881D01*
X127484286Y-102814500D01*
X127531905Y-102862119D01*
X127579524Y-102957357D01*
X127579524Y-103195452D01*
X127531905Y-103290690D01*
X127484286Y-103338310D01*
X127389048Y-103385929D01*
X127198571Y-103385929D01*
X127103333Y-103338310D01*
X127055714Y-103290690D01*
X127008095Y-103195452D01*
X139961881Y-100131643D02*
X139485690Y-99798309D01*
X139961881Y-99560214D02*
X138961881Y-99560214D01*
X138961881Y-99941167D01*
X139009500Y-100036405D01*
X139057119Y-100084024D01*
X139152357Y-100131643D01*
X139295214Y-100131643D01*
X139390452Y-100084024D01*
X139438071Y-100036405D01*
X139485690Y-99941167D01*
X139485690Y-99560214D01*
X139057119Y-100512595D02*
X139009500Y-100560214D01*
X138961881Y-100655452D01*
X138961881Y-100893548D01*
X139009500Y-100988786D01*
X139057119Y-101036405D01*
X139152357Y-101084024D01*
X139247595Y-101084024D01*
X139390452Y-101036405D01*
X139961881Y-100464976D01*
X139961881Y-101084024D01*
X138961881Y-101703071D02*
X138961881Y-101798310D01*
X139009500Y-101893548D01*
X139057119Y-101941167D01*
X139152357Y-101988786D01*
X139342833Y-102036405D01*
X139580929Y-102036405D01*
X139771405Y-101988786D01*
X139866643Y-101941167D01*
X139914262Y-101893548D01*
X139961881Y-101798310D01*
X139961881Y-101703071D01*
X139914262Y-101607833D01*
X139866643Y-101560214D01*
X139771405Y-101512595D01*
X139580929Y-101464976D01*
X139342833Y-101464976D01*
X139152357Y-101512595D01*
X139057119Y-101560214D01*
X139009500Y-101607833D01*
X138961881Y-101703071D01*
X135643857Y-97988381D02*
X135977191Y-97512190D01*
X136215286Y-97988381D02*
X136215286Y-96988381D01*
X135834333Y-96988381D01*
X135739095Y-97036000D01*
X135691476Y-97083619D01*
X135643857Y-97178857D01*
X135643857Y-97321714D01*
X135691476Y-97416952D01*
X135739095Y-97464571D01*
X135834333Y-97512190D01*
X136215286Y-97512190D01*
X135262905Y-97083619D02*
X135215286Y-97036000D01*
X135120048Y-96988381D01*
X134881952Y-96988381D01*
X134786714Y-97036000D01*
X134739095Y-97083619D01*
X134691476Y-97178857D01*
X134691476Y-97274095D01*
X134739095Y-97416952D01*
X135310524Y-97988381D01*
X134691476Y-97988381D01*
X133739095Y-97988381D02*
X134310524Y-97988381D01*
X134024810Y-97988381D02*
X134024810Y-96988381D01*
X134120048Y-97131238D01*
X134215286Y-97226476D01*
X134310524Y-97274095D01*
X135643857Y-94432381D02*
X135977191Y-93956190D01*
X136215286Y-94432381D02*
X136215286Y-93432381D01*
X135834333Y-93432381D01*
X135739095Y-93480000D01*
X135691476Y-93527619D01*
X135643857Y-93622857D01*
X135643857Y-93765714D01*
X135691476Y-93860952D01*
X135739095Y-93908571D01*
X135834333Y-93956190D01*
X136215286Y-93956190D01*
X135262905Y-93527619D02*
X135215286Y-93480000D01*
X135120048Y-93432381D01*
X134881952Y-93432381D01*
X134786714Y-93480000D01*
X134739095Y-93527619D01*
X134691476Y-93622857D01*
X134691476Y-93718095D01*
X134739095Y-93860952D01*
X135310524Y-94432381D01*
X134691476Y-94432381D01*
X134310524Y-93527619D02*
X134262905Y-93480000D01*
X134167667Y-93432381D01*
X133929571Y-93432381D01*
X133834333Y-93480000D01*
X133786714Y-93527619D01*
X133739095Y-93622857D01*
X133739095Y-93718095D01*
X133786714Y-93860952D01*
X134358143Y-94432381D01*
X133739095Y-94432381D01*
X114355857Y-89129881D02*
X114689191Y-88653690D01*
X114927286Y-89129881D02*
X114927286Y-88129881D01*
X114546333Y-88129881D01*
X114451095Y-88177500D01*
X114403476Y-88225119D01*
X114355857Y-88320357D01*
X114355857Y-88463214D01*
X114403476Y-88558452D01*
X114451095Y-88606071D01*
X114546333Y-88653690D01*
X114927286Y-88653690D01*
X113974905Y-88225119D02*
X113927286Y-88177500D01*
X113832048Y-88129881D01*
X113593952Y-88129881D01*
X113498714Y-88177500D01*
X113451095Y-88225119D01*
X113403476Y-88320357D01*
X113403476Y-88415595D01*
X113451095Y-88558452D01*
X114022524Y-89129881D01*
X113403476Y-89129881D01*
X113070143Y-88129881D02*
X112451095Y-88129881D01*
X112784429Y-88510833D01*
X112641571Y-88510833D01*
X112546333Y-88558452D01*
X112498714Y-88606071D01*
X112451095Y-88701310D01*
X112451095Y-88939405D01*
X112498714Y-89034643D01*
X112546333Y-89082262D01*
X112641571Y-89129881D01*
X112927286Y-89129881D01*
X113022524Y-89082262D01*
X113070143Y-89034643D01*
X108640857Y-93257381D02*
X108974191Y-92781190D01*
X109212286Y-93257381D02*
X109212286Y-92257381D01*
X108831333Y-92257381D01*
X108736095Y-92305000D01*
X108688476Y-92352619D01*
X108640857Y-92447857D01*
X108640857Y-92590714D01*
X108688476Y-92685952D01*
X108736095Y-92733571D01*
X108831333Y-92781190D01*
X109212286Y-92781190D01*
X108259905Y-92352619D02*
X108212286Y-92305000D01*
X108117048Y-92257381D01*
X107878952Y-92257381D01*
X107783714Y-92305000D01*
X107736095Y-92352619D01*
X107688476Y-92447857D01*
X107688476Y-92543095D01*
X107736095Y-92685952D01*
X108307524Y-93257381D01*
X107688476Y-93257381D01*
X106831333Y-92257381D02*
X107021810Y-92257381D01*
X107117048Y-92305000D01*
X107164667Y-92352619D01*
X107259905Y-92495476D01*
X107307524Y-92685952D01*
X107307524Y-93066905D01*
X107259905Y-93162143D01*
X107212286Y-93209762D01*
X107117048Y-93257381D01*
X106926571Y-93257381D01*
X106831333Y-93209762D01*
X106783714Y-93162143D01*
X106736095Y-93066905D01*
X106736095Y-92828810D01*
X106783714Y-92733571D01*
X106831333Y-92685952D01*
X106926571Y-92638333D01*
X107117048Y-92638333D01*
X107212286Y-92685952D01*
X107259905Y-92733571D01*
X107307524Y-92828810D01*
X159638905Y-91146381D02*
X159638905Y-91955905D01*
X159591286Y-92051143D01*
X159543667Y-92098762D01*
X159448429Y-92146381D01*
X159257952Y-92146381D01*
X159162714Y-92098762D01*
X159115095Y-92051143D01*
X159067476Y-91955905D01*
X159067476Y-91146381D01*
X158067476Y-92146381D02*
X158638905Y-92146381D01*
X158353191Y-92146381D02*
X158353191Y-91146381D01*
X158448429Y-91289238D01*
X158543667Y-91384476D01*
X158638905Y-91432095D01*
X186372405Y-103084381D02*
X186372405Y-103893905D01*
X186324786Y-103989143D01*
X186277167Y-104036762D01*
X186181929Y-104084381D01*
X185991452Y-104084381D01*
X185896214Y-104036762D01*
X185848595Y-103989143D01*
X185800976Y-103893905D01*
X185800976Y-103084381D01*
X184896214Y-103084381D02*
X185086691Y-103084381D01*
X185181929Y-103132000D01*
X185229548Y-103179619D01*
X185324786Y-103322476D01*
X185372405Y-103512952D01*
X185372405Y-103893905D01*
X185324786Y-103989143D01*
X185277167Y-104036762D01*
X185181929Y-104084381D01*
X184991452Y-104084381D01*
X184896214Y-104036762D01*
X184848595Y-103989143D01*
X184800976Y-103893905D01*
X184800976Y-103655810D01*
X184848595Y-103560571D01*
X184896214Y-103512952D01*
X184991452Y-103465333D01*
X185181929Y-103465333D01*
X185277167Y-103512952D01*
X185324786Y-103560571D01*
X185372405Y-103655810D01*
X161702691Y-84494690D02*
X161702691Y-84970881D01*
X162036024Y-83970881D02*
X161702691Y-84494690D01*
X161369357Y-83970881D01*
X160512214Y-84970881D02*
X161083643Y-84970881D01*
X160797929Y-84970881D02*
X160797929Y-83970881D01*
X160893167Y-84113738D01*
X160988405Y-84208976D01*
X161083643Y-84256595D01*
X155987691Y-85066190D02*
X155987691Y-85542381D01*
X156321024Y-84542381D02*
X155987691Y-85066190D01*
X155654357Y-84542381D01*
X155368643Y-84637619D02*
X155321024Y-84590000D01*
X155225786Y-84542381D01*
X154987690Y-84542381D01*
X154892452Y-84590000D01*
X154844833Y-84637619D01*
X154797214Y-84732857D01*
X154797214Y-84828095D01*
X154844833Y-84970952D01*
X155416262Y-85542381D01*
X154797214Y-85542381D01*
X158241905Y-113752381D02*
X158241905Y-114561905D01*
X158194286Y-114657143D01*
X158146667Y-114704762D01*
X158051429Y-114752381D01*
X157860952Y-114752381D01*
X157765714Y-114704762D01*
X157718095Y-114657143D01*
X157670476Y-114561905D01*
X157670476Y-113752381D01*
X157289524Y-113752381D02*
X156622857Y-113752381D01*
X157051429Y-114752381D01*
X140525405Y-113752381D02*
X140525405Y-114561905D01*
X140477786Y-114657143D01*
X140430167Y-114704762D01*
X140334929Y-114752381D01*
X140144452Y-114752381D01*
X140049214Y-114704762D01*
X140001595Y-114657143D01*
X139953976Y-114561905D01*
X139953976Y-113752381D01*
X139334929Y-114180952D02*
X139430167Y-114133333D01*
X139477786Y-114085714D01*
X139525405Y-113990476D01*
X139525405Y-113942857D01*
X139477786Y-113847619D01*
X139430167Y-113800000D01*
X139334929Y-113752381D01*
X139144452Y-113752381D01*
X139049214Y-113800000D01*
X139001595Y-113847619D01*
X138953976Y-113942857D01*
X138953976Y-113990476D01*
X139001595Y-114085714D01*
X139049214Y-114133333D01*
X139144452Y-114180952D01*
X139334929Y-114180952D01*
X139430167Y-114228571D01*
X139477786Y-114276190D01*
X139525405Y-114371429D01*
X139525405Y-114561905D01*
X139477786Y-114657143D01*
X139430167Y-114704762D01*
X139334929Y-114752381D01*
X139144452Y-114752381D01*
X139049214Y-114704762D01*
X139001595Y-114657143D01*
X138953976Y-114561905D01*
X138953976Y-114371429D01*
X139001595Y-114276190D01*
X139049214Y-114228571D01*
X139144452Y-114180952D01*
X144130857Y-123483643D02*
X144178476Y-123531262D01*
X144321333Y-123578881D01*
X144416571Y-123578881D01*
X144559429Y-123531262D01*
X144654667Y-123436024D01*
X144702286Y-123340786D01*
X144749905Y-123150310D01*
X144749905Y-123007452D01*
X144702286Y-122816976D01*
X144654667Y-122721738D01*
X144559429Y-122626500D01*
X144416571Y-122578881D01*
X144321333Y-122578881D01*
X144178476Y-122626500D01*
X144130857Y-122674119D01*
X143797524Y-122578881D02*
X143178476Y-122578881D01*
X143511810Y-122959833D01*
X143368952Y-122959833D01*
X143273714Y-123007452D01*
X143226095Y-123055071D01*
X143178476Y-123150310D01*
X143178476Y-123388405D01*
X143226095Y-123483643D01*
X143273714Y-123531262D01*
X143368952Y-123578881D01*
X143654667Y-123578881D01*
X143749905Y-123531262D01*
X143797524Y-123483643D01*
X142607048Y-123007452D02*
X142702286Y-122959833D01*
X142749905Y-122912214D01*
X142797524Y-122816976D01*
X142797524Y-122769357D01*
X142749905Y-122674119D01*
X142702286Y-122626500D01*
X142607048Y-122578881D01*
X142416571Y-122578881D01*
X142321333Y-122626500D01*
X142273714Y-122674119D01*
X142226095Y-122769357D01*
X142226095Y-122816976D01*
X142273714Y-122912214D01*
X142321333Y-122959833D01*
X142416571Y-123007452D01*
X142607048Y-123007452D01*
X142702286Y-123055071D01*
X142749905Y-123102690D01*
X142797524Y-123197929D01*
X142797524Y-123388405D01*
X142749905Y-123483643D01*
X142702286Y-123531262D01*
X142607048Y-123578881D01*
X142416571Y-123578881D01*
X142321333Y-123531262D01*
X142273714Y-123483643D01*
X142226095Y-123388405D01*
X142226095Y-123197929D01*
X142273714Y-123102690D01*
X142321333Y-123055071D01*
X142416571Y-123007452D01*
X146375357Y-119737143D02*
X146422976Y-119784762D01*
X146565833Y-119832381D01*
X146661071Y-119832381D01*
X146803929Y-119784762D01*
X146899167Y-119689524D01*
X146946786Y-119594286D01*
X146994405Y-119403810D01*
X146994405Y-119260952D01*
X146946786Y-119070476D01*
X146899167Y-118975238D01*
X146803929Y-118880000D01*
X146661071Y-118832381D01*
X146565833Y-118832381D01*
X146422976Y-118880000D01*
X146375357Y-118927619D01*
X146042024Y-118832381D02*
X145422976Y-118832381D01*
X145756310Y-119213333D01*
X145613452Y-119213333D01*
X145518214Y-119260952D01*
X145470595Y-119308571D01*
X145422976Y-119403810D01*
X145422976Y-119641905D01*
X145470595Y-119737143D01*
X145518214Y-119784762D01*
X145613452Y-119832381D01*
X145899167Y-119832381D01*
X145994405Y-119784762D01*
X146042024Y-119737143D01*
X144946786Y-119832381D02*
X144756310Y-119832381D01*
X144661071Y-119784762D01*
X144613452Y-119737143D01*
X144518214Y-119594286D01*
X144470595Y-119403810D01*
X144470595Y-119022857D01*
X144518214Y-118927619D01*
X144565833Y-118880000D01*
X144661071Y-118832381D01*
X144851548Y-118832381D01*
X144946786Y-118880000D01*
X144994405Y-118927619D01*
X145042024Y-119022857D01*
X145042024Y-119260952D01*
X144994405Y-119356190D01*
X144946786Y-119403810D01*
X144851548Y-119451429D01*
X144661071Y-119451429D01*
X144565833Y-119403810D01*
X144518214Y-119356190D01*
X144470595Y-119260952D01*
X149740857Y-123483643D02*
X149788476Y-123531262D01*
X149931333Y-123578881D01*
X150026571Y-123578881D01*
X150169429Y-123531262D01*
X150264667Y-123436024D01*
X150312286Y-123340786D01*
X150359905Y-123150310D01*
X150359905Y-123007452D01*
X150312286Y-122816976D01*
X150264667Y-122721738D01*
X150169429Y-122626500D01*
X150026571Y-122578881D01*
X149931333Y-122578881D01*
X149788476Y-122626500D01*
X149740857Y-122674119D01*
X148883714Y-122912214D02*
X148883714Y-123578881D01*
X149121810Y-122531262D02*
X149359905Y-123245548D01*
X148740857Y-123245548D01*
X147836095Y-123578881D02*
X148407524Y-123578881D01*
X148121810Y-123578881D02*
X148121810Y-122578881D01*
X148217048Y-122721738D01*
X148312286Y-122816976D01*
X148407524Y-122864595D01*
X153169857Y-119737143D02*
X153217476Y-119784762D01*
X153360333Y-119832381D01*
X153455571Y-119832381D01*
X153598429Y-119784762D01*
X153693667Y-119689524D01*
X153741286Y-119594286D01*
X153788905Y-119403810D01*
X153788905Y-119260952D01*
X153741286Y-119070476D01*
X153693667Y-118975238D01*
X153598429Y-118880000D01*
X153455571Y-118832381D01*
X153360333Y-118832381D01*
X153217476Y-118880000D01*
X153169857Y-118927619D01*
X152312714Y-119165714D02*
X152312714Y-119832381D01*
X152550810Y-118784762D02*
X152788905Y-119499048D01*
X152169857Y-119499048D01*
X151836524Y-118927619D02*
X151788905Y-118880000D01*
X151693667Y-118832381D01*
X151455571Y-118832381D01*
X151360333Y-118880000D01*
X151312714Y-118927619D01*
X151265095Y-119022857D01*
X151265095Y-119118095D01*
X151312714Y-119260952D01*
X151884143Y-119832381D01*
X151265095Y-119832381D01*
X121761503Y-101454574D02*
X121190074Y-101454574D01*
X121475789Y-102454574D02*
X121475789Y-101454574D01*
X120856741Y-102454574D02*
X120856741Y-101454574D01*
X120475788Y-101454574D01*
X120380550Y-101502193D01*
X120332931Y-101549812D01*
X120285312Y-101645050D01*
X120285312Y-101787907D01*
X120332931Y-101883145D01*
X120380550Y-101930764D01*
X120475788Y-101978383D01*
X120856741Y-101978383D01*
X119332931Y-102454574D02*
X119904360Y-102454574D01*
X119618646Y-102454574D02*
X119618646Y-101454574D01*
X119713884Y-101597431D01*
X119809122Y-101692669D01*
X119904360Y-101740288D01*
X121704479Y-98170090D02*
X121133050Y-98170090D01*
X121418765Y-99170090D02*
X121418765Y-98170090D01*
X120799717Y-99170090D02*
X120799717Y-98170090D01*
X120418764Y-98170090D01*
X120323526Y-98217709D01*
X120275907Y-98265328D01*
X120228288Y-98360566D01*
X120228288Y-98503423D01*
X120275907Y-98598661D01*
X120323526Y-98646280D01*
X120418764Y-98693899D01*
X120799717Y-98693899D01*
X119847336Y-98265328D02*
X119799717Y-98217709D01*
X119704479Y-98170090D01*
X119466383Y-98170090D01*
X119371145Y-98217709D01*
X119323526Y-98265328D01*
X119275907Y-98360566D01*
X119275907Y-98455804D01*
X119323526Y-98598661D01*
X119894955Y-99170090D01*
X119275907Y-99170090D01*
X121657905Y-113498381D02*
X121086476Y-113498381D01*
X121372191Y-114498381D02*
X121372191Y-113498381D01*
X120753143Y-114498381D02*
X120753143Y-113498381D01*
X120372190Y-113498381D01*
X120276952Y-113546000D01*
X120229333Y-113593619D01*
X120181714Y-113688857D01*
X120181714Y-113831714D01*
X120229333Y-113926952D01*
X120276952Y-113974571D01*
X120372190Y-114022190D01*
X120753143Y-114022190D01*
X119848381Y-113498381D02*
X119229333Y-113498381D01*
X119562667Y-113879333D01*
X119419809Y-113879333D01*
X119324571Y-113926952D01*
X119276952Y-113974571D01*
X119229333Y-114069810D01*
X119229333Y-114307905D01*
X119276952Y-114403143D01*
X119324571Y-114450762D01*
X119419809Y-114498381D01*
X119705524Y-114498381D01*
X119800762Y-114450762D01*
X119848381Y-114403143D01*
X121784905Y-104100381D02*
X121213476Y-104100381D01*
X121499191Y-105100381D02*
X121499191Y-104100381D01*
X120880143Y-105100381D02*
X120880143Y-104100381D01*
X120499190Y-104100381D01*
X120403952Y-104148000D01*
X120356333Y-104195619D01*
X120308714Y-104290857D01*
X120308714Y-104433714D01*
X120356333Y-104528952D01*
X120403952Y-104576571D01*
X120499190Y-104624190D01*
X120880143Y-104624190D01*
X119451571Y-104433714D02*
X119451571Y-105100381D01*
X119689667Y-104052762D02*
X119927762Y-104767048D01*
X119308714Y-104767048D01*
X124261405Y-106005381D02*
X123689976Y-106005381D01*
X123975691Y-107005381D02*
X123975691Y-106005381D01*
X123356643Y-107005381D02*
X123356643Y-106005381D01*
X122975690Y-106005381D01*
X122880452Y-106053000D01*
X122832833Y-106100619D01*
X122785214Y-106195857D01*
X122785214Y-106338714D01*
X122832833Y-106433952D01*
X122880452Y-106481571D01*
X122975690Y-106529190D01*
X123356643Y-106529190D01*
X121880452Y-106005381D02*
X122356643Y-106005381D01*
X122404262Y-106481571D01*
X122356643Y-106433952D01*
X122261405Y-106386333D01*
X122023309Y-106386333D01*
X121928071Y-106433952D01*
X121880452Y-106481571D01*
X121832833Y-106576810D01*
X121832833Y-106814905D01*
X121880452Y-106910143D01*
X121928071Y-106957762D01*
X122023309Y-107005381D01*
X122261405Y-107005381D01*
X122356643Y-106957762D01*
X122404262Y-106910143D01*
X146502357Y-107227643D02*
X146549976Y-107275262D01*
X146692833Y-107322881D01*
X146788071Y-107322881D01*
X146930929Y-107275262D01*
X147026167Y-107180024D01*
X147073786Y-107084786D01*
X147121405Y-106894310D01*
X147121405Y-106751452D01*
X147073786Y-106560976D01*
X147026167Y-106465738D01*
X146930929Y-106370500D01*
X146788071Y-106322881D01*
X146692833Y-106322881D01*
X146549976Y-106370500D01*
X146502357Y-106418119D01*
X145645214Y-106656214D02*
X145645214Y-107322881D01*
X145883310Y-106275262D02*
X146121405Y-106989548D01*
X145502357Y-106989548D01*
X145216643Y-106322881D02*
X144597595Y-106322881D01*
X144930929Y-106703833D01*
X144788071Y-106703833D01*
X144692833Y-106751452D01*
X144645214Y-106799071D01*
X144597595Y-106894310D01*
X144597595Y-107132405D01*
X144645214Y-107227643D01*
X144692833Y-107275262D01*
X144788071Y-107322881D01*
X145073786Y-107322881D01*
X145169024Y-107275262D01*
X145216643Y-107227643D01*
X130000881Y-82287905D02*
X129000881Y-82287905D01*
X129000881Y-82526000D01*
X129048500Y-82668858D01*
X129143738Y-82764096D01*
X129238976Y-82811715D01*
X129429452Y-82859334D01*
X129572310Y-82859334D01*
X129762786Y-82811715D01*
X129858024Y-82764096D01*
X129953262Y-82668858D01*
X130000881Y-82526000D01*
X130000881Y-82287905D01*
X129000881Y-83192667D02*
X129000881Y-83859334D01*
X130000881Y-83430762D01*
X134064881Y-82287905D02*
X133064881Y-82287905D01*
X133064881Y-82526000D01*
X133112500Y-82668858D01*
X133207738Y-82764096D01*
X133302976Y-82811715D01*
X133493452Y-82859334D01*
X133636310Y-82859334D01*
X133826786Y-82811715D01*
X133922024Y-82764096D01*
X134017262Y-82668858D01*
X134064881Y-82526000D01*
X134064881Y-82287905D01*
X133493452Y-83430762D02*
X133445833Y-83335524D01*
X133398214Y-83287905D01*
X133302976Y-83240286D01*
X133255357Y-83240286D01*
X133160119Y-83287905D01*
X133112500Y-83335524D01*
X133064881Y-83430762D01*
X133064881Y-83621239D01*
X133112500Y-83716477D01*
X133160119Y-83764096D01*
X133255357Y-83811715D01*
X133302976Y-83811715D01*
X133398214Y-83764096D01*
X133445833Y-83716477D01*
X133493452Y-83621239D01*
X133493452Y-83430762D01*
X133541071Y-83335524D01*
X133588690Y-83287905D01*
X133683929Y-83240286D01*
X133874405Y-83240286D01*
X133969643Y-83287905D01*
X134017262Y-83335524D01*
X134064881Y-83430762D01*
X134064881Y-83621239D01*
X134017262Y-83716477D01*
X133969643Y-83764096D01*
X133874405Y-83811715D01*
X133683929Y-83811715D01*
X133588690Y-83764096D01*
X133541071Y-83716477D01*
X133493452Y-83621239D01*
X139604881Y-86923405D02*
X138604881Y-86923405D01*
X138604881Y-87161500D01*
X138652500Y-87304358D01*
X138747738Y-87399596D01*
X138842976Y-87447215D01*
X139033452Y-87494834D01*
X139176310Y-87494834D01*
X139366786Y-87447215D01*
X139462024Y-87399596D01*
X139557262Y-87304358D01*
X139604881Y-87161500D01*
X139604881Y-86923405D01*
X139604881Y-87971024D02*
X139604881Y-88161500D01*
X139557262Y-88256739D01*
X139509643Y-88304358D01*
X139366786Y-88399596D01*
X139176310Y-88447215D01*
X138795357Y-88447215D01*
X138700119Y-88399596D01*
X138652500Y-88351977D01*
X138604881Y-88256739D01*
X138604881Y-88066262D01*
X138652500Y-87971024D01*
X138700119Y-87923405D01*
X138795357Y-87875786D01*
X139033452Y-87875786D01*
X139128690Y-87923405D01*
X139176310Y-87971024D01*
X139223929Y-88066262D01*
X139223929Y-88256739D01*
X139176310Y-88351977D01*
X139128690Y-88399596D01*
X139033452Y-88447215D01*
X136604881Y-81790714D02*
X135604881Y-81790714D01*
X135604881Y-82028809D01*
X135652500Y-82171667D01*
X135747738Y-82266905D01*
X135842976Y-82314524D01*
X136033452Y-82362143D01*
X136176310Y-82362143D01*
X136366786Y-82314524D01*
X136462024Y-82266905D01*
X136557262Y-82171667D01*
X136604881Y-82028809D01*
X136604881Y-81790714D01*
X136604881Y-83314524D02*
X136604881Y-82743095D01*
X136604881Y-83028809D02*
X135604881Y-83028809D01*
X135747738Y-82933571D01*
X135842976Y-82838333D01*
X135890595Y-82743095D01*
X135604881Y-83933571D02*
X135604881Y-84028810D01*
X135652500Y-84124048D01*
X135700119Y-84171667D01*
X135795357Y-84219286D01*
X135985833Y-84266905D01*
X136223929Y-84266905D01*
X136414405Y-84219286D01*
X136509643Y-84171667D01*
X136557262Y-84124048D01*
X136604881Y-84028810D01*
X136604881Y-83933571D01*
X136557262Y-83838333D01*
X136509643Y-83790714D01*
X136414405Y-83743095D01*
X136223929Y-83695476D01*
X135985833Y-83695476D01*
X135795357Y-83743095D01*
X135700119Y-83790714D01*
X135652500Y-83838333D01*
X135604881Y-83933571D01*
X142613286Y-96329381D02*
X142613286Y-95329381D01*
X142375191Y-95329381D01*
X142232333Y-95377000D01*
X142137095Y-95472238D01*
X142089476Y-95567476D01*
X142041857Y-95757952D01*
X142041857Y-95900810D01*
X142089476Y-96091286D01*
X142137095Y-96186524D01*
X142232333Y-96281762D01*
X142375191Y-96329381D01*
X142613286Y-96329381D01*
X141089476Y-96329381D02*
X141660905Y-96329381D01*
X141375191Y-96329381D02*
X141375191Y-95329381D01*
X141470429Y-95472238D01*
X141565667Y-95567476D01*
X141660905Y-95615095D01*
X140137095Y-96329381D02*
X140708524Y-96329381D01*
X140422810Y-96329381D02*
X140422810Y-95329381D01*
X140518048Y-95472238D01*
X140613286Y-95567476D01*
X140708524Y-95615095D01*
X138782286Y-99329381D02*
X138782286Y-98329381D01*
X138544191Y-98329381D01*
X138401333Y-98377000D01*
X138306095Y-98472238D01*
X138258476Y-98567476D01*
X138210857Y-98757952D01*
X138210857Y-98900810D01*
X138258476Y-99091286D01*
X138306095Y-99186524D01*
X138401333Y-99281762D01*
X138544191Y-99329381D01*
X138782286Y-99329381D01*
X137258476Y-99329381D02*
X137829905Y-99329381D01*
X137544191Y-99329381D02*
X137544191Y-98329381D01*
X137639429Y-98472238D01*
X137734667Y-98567476D01*
X137829905Y-98615095D01*
X136877524Y-98424619D02*
X136829905Y-98377000D01*
X136734667Y-98329381D01*
X136496571Y-98329381D01*
X136401333Y-98377000D01*
X136353714Y-98424619D01*
X136306095Y-98519857D01*
X136306095Y-98615095D01*
X136353714Y-98757952D01*
X136925143Y-99329381D01*
X136306095Y-99329381D01*
M02*
