G04 #@! TF.FileFunction,Copper,L4,Bot,Mixed*
%FSLAX46Y46*%
G04 Gerber Fmt 4.6, Leading zero omitted, Abs format (unit mm)*
G04 Created by KiCad (PCBNEW 4.0.7) date Friday, May 04, 2018 'PMt' 08:01:22 PM*
%MOMM*%
%LPD*%
G01*
G04 APERTURE LIST*
%ADD10C,0.100000*%
%ADD11C,0.600000*%
%ADD12C,5.400000*%
%ADD13R,1.950000X1.500000*%
%ADD14C,2.500000*%
%ADD15C,3.000000*%
%ADD16R,2.080000X3.600000*%
%ADD17O,2.080000X3.600000*%
%ADD18R,2.420000X5.080000*%
%ADD19C,0.970000*%
%ADD20R,0.460000X0.890000*%
%ADD21R,0.750000X0.800000*%
%ADD22R,0.800000X0.750000*%
%ADD23R,0.900000X0.800000*%
%ADD24R,0.500000X0.900000*%
%ADD25R,0.900000X0.500000*%
%ADD26R,0.250000X1.300000*%
%ADD27R,1.300000X0.250000*%
%ADD28R,2.200000X1.200000*%
%ADD29R,6.400000X5.800000*%
%ADD30R,3.050000X2.750000*%
%ADD31R,1.400000X1.200000*%
%ADD32R,1.000000X1.800000*%
%ADD33R,3.800000X2.000000*%
%ADD34R,1.500000X2.000000*%
%ADD35R,1.700000X1.700000*%
%ADD36O,1.700000X1.700000*%
%ADD37C,1.000000*%
%ADD38R,2.200000X2.200000*%
%ADD39O,2.200000X2.200000*%
%ADD40R,1.700000X1.100000*%
%ADD41O,1.700000X1.100000*%
%ADD42O,3.900000X1.600000*%
%ADD43R,0.300000X0.250000*%
%ADD44R,0.250000X0.300000*%
%ADD45C,0.200000*%
%ADD46C,0.700000*%
%ADD47C,0.500000*%
%ADD48C,2.000000*%
%ADD49C,0.254000*%
G04 APERTURE END LIST*
D10*
D11*
X162735000Y-120745000D03*
X104950000Y-122650000D03*
D12*
X190790000Y-91850000D03*
D13*
X152759000Y-108712000D03*
X150009000Y-108712000D03*
D11*
X143050000Y-125190000D03*
X139240000Y-125190000D03*
X135430000Y-125190000D03*
X148765000Y-117570000D03*
X148765000Y-115284000D03*
X155575000Y-112395000D03*
X155496000Y-119094000D03*
X155575000Y-121285000D03*
X153035000Y-121285000D03*
X104902000Y-116332000D03*
X170053000Y-111252000D03*
X168529000Y-112776000D03*
X166878000Y-114427000D03*
X165227000Y-116078000D03*
X162735000Y-123285000D03*
X162735000Y-125825000D03*
X167815000Y-125825000D03*
X175260000Y-115697000D03*
X177800000Y-115697000D03*
X167815000Y-123285000D03*
X167815000Y-120745000D03*
X170355000Y-118205000D03*
X172720000Y-115697000D03*
X180340000Y-115697000D03*
X182880000Y-115697000D03*
D14*
X183954000Y-109616000D03*
D15*
X171754000Y-109616000D03*
X171704000Y-121666000D03*
D14*
X183954000Y-121616000D03*
D15*
X185904000Y-115666000D03*
D11*
X109790000Y-99350000D03*
X116790000Y-99350000D03*
X113290000Y-99350000D03*
X109790000Y-102850000D03*
X116790000Y-102850000D03*
X116790000Y-113350000D03*
X116790000Y-109850000D03*
X109790000Y-109850000D03*
X109790000Y-113350000D03*
X113290000Y-113350000D03*
X113290000Y-109850000D03*
X113290000Y-102850000D03*
X116790000Y-106350000D03*
X109790000Y-106350000D03*
X113290000Y-106350000D03*
X140335000Y-84455000D03*
X140335000Y-87630000D03*
X107490000Y-80740000D03*
X118920000Y-80740000D03*
X131445000Y-102235000D03*
X134620000Y-99060000D03*
X98600000Y-109950000D03*
X156845000Y-97155000D03*
X153035000Y-97155000D03*
X149860000Y-97155000D03*
X156845000Y-94615000D03*
X153035000Y-94615000D03*
X149860000Y-94615000D03*
X156845000Y-92075000D03*
X153035000Y-92075000D03*
X138430000Y-109220000D03*
X138430000Y-111125000D03*
X138430000Y-113030000D03*
X135255000Y-109220000D03*
X135255000Y-111125000D03*
X135255000Y-113030000D03*
X132080000Y-109220000D03*
X132080000Y-111125000D03*
X132080000Y-113030000D03*
X122730000Y-88360000D03*
X126540000Y-84550000D03*
X122730000Y-84550000D03*
X118920000Y-84550000D03*
X137160000Y-104775000D03*
X140335000Y-104775000D03*
X122555000Y-110490000D03*
X144145000Y-99060000D03*
X126540000Y-88360000D03*
X115110000Y-84550000D03*
X126540000Y-80740000D03*
X122730000Y-80740000D03*
X111300000Y-88360000D03*
X122730000Y-92170000D03*
X115110000Y-88360000D03*
X118920000Y-88360000D03*
X115110000Y-80740000D03*
X98600000Y-113760000D03*
X98600000Y-117570000D03*
X97330000Y-126460000D03*
X140335000Y-90805000D03*
X140335000Y-81280000D03*
X107490000Y-84550000D03*
X111300000Y-84550000D03*
X111300000Y-80740000D03*
X102410000Y-109950000D03*
X98600000Y-106140000D03*
X116290000Y-121850000D03*
X117650000Y-120110000D03*
X112570000Y-120110000D03*
X112570000Y-121380000D03*
X115110000Y-122650000D03*
X115110000Y-125190000D03*
X113665000Y-127635000D03*
X111300000Y-126460000D03*
X101140000Y-126460000D03*
X112570000Y-123920000D03*
X104950000Y-126460000D03*
X117650000Y-121380000D03*
X112570000Y-122650000D03*
X111300000Y-122650000D03*
X111300000Y-120110000D03*
X111300000Y-121380000D03*
X111300000Y-127730000D03*
X108760000Y-127730000D03*
X108760000Y-126460000D03*
X108760000Y-125190000D03*
X108760000Y-123920000D03*
X108760000Y-122650000D03*
X108760000Y-121380000D03*
X108760000Y-120110000D03*
X115110000Y-123920000D03*
X104902000Y-115189000D03*
X103886000Y-115189000D03*
X103886000Y-116332000D03*
X104902000Y-117475000D03*
X103886000Y-117475000D03*
X157226000Y-106680000D03*
X155956000Y-106680000D03*
X102410000Y-95980000D03*
X98600000Y-95980000D03*
X105346500Y-132207000D03*
D16*
X137335000Y-128746000D03*
D17*
X142415000Y-128746000D03*
X147495000Y-128746000D03*
X152575000Y-128746000D03*
X157655000Y-128746000D03*
X162735000Y-128746000D03*
X167815000Y-128746000D03*
X172895000Y-128746000D03*
D18*
X105015000Y-132556000D03*
X113775000Y-132556000D03*
D19*
X105015000Y-129116000D03*
X113775000Y-129116000D03*
D20*
X105015000Y-129566000D03*
X113775000Y-129566000D03*
D21*
X163957000Y-81673000D03*
X163957000Y-83173000D03*
D22*
X165469000Y-80264000D03*
X163969000Y-80264000D03*
D21*
X156845000Y-81685000D03*
X156845000Y-83185000D03*
X158242000Y-81685000D03*
X158242000Y-83185000D03*
D22*
X157619000Y-87249000D03*
X159119000Y-87249000D03*
D21*
X166370000Y-83578000D03*
X166370000Y-85078000D03*
X160655000Y-99175000D03*
X160655000Y-97675000D03*
D22*
X172581000Y-96012000D03*
X171081000Y-96012000D03*
D21*
X126238000Y-111010000D03*
X126238000Y-112510000D03*
X132588000Y-81685000D03*
X132588000Y-83185000D03*
D22*
X129782000Y-100965000D03*
X128282000Y-100965000D03*
X129782000Y-92456000D03*
X128282000Y-92456000D03*
D23*
X130302000Y-97536000D03*
X130302000Y-99436000D03*
X128302000Y-98486000D03*
X130302000Y-93985000D03*
X130302000Y-95885000D03*
X128302000Y-94935000D03*
D24*
X164707000Y-84709000D03*
X163207000Y-84709000D03*
X172847000Y-84963000D03*
X171347000Y-84963000D03*
X172847000Y-86741000D03*
X171347000Y-86741000D03*
X172847000Y-88519000D03*
X171347000Y-88519000D03*
X172847000Y-90297000D03*
X171347000Y-90297000D03*
X172847000Y-92075000D03*
X171347000Y-92075000D03*
X123825000Y-114046000D03*
X125325000Y-114046000D03*
D25*
X124460000Y-112522000D03*
X124460000Y-111022000D03*
D24*
X124865000Y-107442000D03*
X126365000Y-107442000D03*
X127532000Y-106426000D03*
X129032000Y-106426000D03*
X130199000Y-105537000D03*
X131699000Y-105537000D03*
X127532000Y-104648000D03*
X129032000Y-104648000D03*
D25*
X139446000Y-97421000D03*
X139446000Y-98921000D03*
D24*
X133084000Y-97536000D03*
X131584000Y-97536000D03*
X133084000Y-93980000D03*
X131584000Y-93980000D03*
X112963000Y-90011000D03*
X114463000Y-90011000D03*
X107248000Y-91408000D03*
X108748000Y-91408000D03*
D26*
X162318000Y-87356000D03*
X162818000Y-87356000D03*
X163318000Y-87356000D03*
X163818000Y-87356000D03*
X164318000Y-87356000D03*
X164818000Y-87356000D03*
X165318000Y-87356000D03*
X165818000Y-87356000D03*
X166318000Y-87356000D03*
X166818000Y-87356000D03*
X167318000Y-87356000D03*
X167818000Y-87356000D03*
D27*
X169418000Y-88956000D03*
X169418000Y-89456000D03*
X169418000Y-89956000D03*
X169418000Y-90456000D03*
X169418000Y-90956000D03*
X169418000Y-91456000D03*
X169418000Y-91956000D03*
X169418000Y-92456000D03*
X169418000Y-92956000D03*
X169418000Y-93456000D03*
X169418000Y-93956000D03*
X169418000Y-94456000D03*
D26*
X167818000Y-96056000D03*
X167318000Y-96056000D03*
X166818000Y-96056000D03*
X166318000Y-96056000D03*
X165818000Y-96056000D03*
X165318000Y-96056000D03*
X164818000Y-96056000D03*
X164318000Y-96056000D03*
X163818000Y-96056000D03*
X163318000Y-96056000D03*
X162818000Y-96056000D03*
X162318000Y-96056000D03*
D27*
X160718000Y-94456000D03*
X160718000Y-93956000D03*
X160718000Y-93456000D03*
X160718000Y-92956000D03*
X160718000Y-92456000D03*
X160718000Y-91956000D03*
X160718000Y-91456000D03*
X160718000Y-90956000D03*
X160718000Y-90456000D03*
X160718000Y-89956000D03*
X160718000Y-89456000D03*
X160718000Y-88956000D03*
D28*
X174752000Y-105912000D03*
X174752000Y-101352000D03*
D29*
X181052000Y-103632000D03*
D30*
X182727000Y-102107000D03*
X179377000Y-105157000D03*
X182727000Y-105157000D03*
X179377000Y-102107000D03*
D31*
X160020000Y-81319000D03*
X162220000Y-81319000D03*
X162220000Y-83019000D03*
X160020000Y-83019000D03*
D32*
X156992000Y-85090000D03*
X159492000Y-85090000D03*
D33*
X152781000Y-111125000D03*
D34*
X152781000Y-117425000D03*
X150481000Y-117425000D03*
X155081000Y-117425000D03*
D33*
X144399000Y-111150000D03*
D34*
X144399000Y-117450000D03*
X142099000Y-117450000D03*
X146699000Y-117450000D03*
D13*
X142113000Y-121158000D03*
X144863000Y-121158000D03*
D22*
X143625000Y-119380000D03*
X142125000Y-119380000D03*
D13*
X150473000Y-121158000D03*
X147723000Y-121158000D03*
D22*
X148983000Y-119380000D03*
X150483000Y-119380000D03*
D35*
X146812000Y-87852000D03*
D36*
X149352000Y-87852000D03*
D35*
X178610000Y-80740000D03*
D36*
X181150000Y-80740000D03*
X183690000Y-80740000D03*
D35*
X186230000Y-87090000D03*
D36*
X186230000Y-89630000D03*
X186230000Y-92170000D03*
X186230000Y-94710000D03*
X186230000Y-97250000D03*
D37*
X122785598Y-102002193D03*
X122728574Y-98717709D03*
X122682000Y-114046000D03*
X123964000Y-104648000D03*
X125857000Y-105537000D03*
D11*
X149860000Y-92075000D03*
X181102000Y-103632000D03*
X181102000Y-101600000D03*
X181102000Y-105664000D03*
X179324000Y-101600000D03*
X179324000Y-103632000D03*
X179324000Y-105664000D03*
X182880000Y-101600000D03*
X182880000Y-103632000D03*
X182880000Y-105664000D03*
D13*
X144421000Y-108712000D03*
X147171000Y-108712000D03*
D38*
X154813000Y-81661000D03*
D39*
X144653000Y-81661000D03*
D40*
X105712000Y-90036000D03*
D41*
X103112000Y-89236000D03*
X105712000Y-88436000D03*
X103112000Y-87636000D03*
X105712000Y-86836000D03*
D42*
X104412000Y-92086000D03*
X104412000Y-84786000D03*
D12*
X98790000Y-121850000D03*
X190790000Y-121850000D03*
X190790000Y-91850000D03*
X98790000Y-91850000D03*
D11*
X172895000Y-125825000D03*
X172895000Y-123285000D03*
D43*
X131048500Y-83301000D03*
X131048500Y-82751000D03*
X135112500Y-83301000D03*
X135112500Y-82751000D03*
X137652500Y-87386500D03*
X137652500Y-87936500D03*
X137652500Y-83280000D03*
X137652500Y-82730000D03*
D44*
X141124000Y-97377000D03*
X141674000Y-97377000D03*
X137843000Y-97377000D03*
X137293000Y-97377000D03*
D37*
X102790000Y-133350000D03*
X102790000Y-80350000D03*
X186790000Y-133350000D03*
D11*
X165318000Y-89245000D03*
X178773292Y-88565593D03*
X153415361Y-111149103D03*
X144379061Y-108662165D03*
X169545000Y-96012000D03*
X160655000Y-96012000D03*
X160655000Y-87249000D03*
X166370000Y-85852000D03*
X128016000Y-108902500D03*
X158369000Y-106680000D03*
X154686000Y-106680000D03*
X122785598Y-102002193D03*
X122728574Y-98717709D03*
X164765935Y-111720054D03*
X173863000Y-84963000D03*
X173863000Y-86741000D03*
X173863000Y-88519000D03*
X173863000Y-90297000D03*
X173863000Y-92075000D03*
X139446000Y-96520000D03*
X168402000Y-93472000D03*
X163322179Y-94995912D03*
X161800167Y-94488574D03*
X154940000Y-88198000D03*
X139446000Y-99695000D03*
X122682000Y-114046000D03*
X116139462Y-90033893D03*
X111188500Y-91376500D03*
X189738000Y-100203000D03*
X159384145Y-89981173D03*
X183761444Y-87405276D03*
X170340576Y-101351960D03*
X103147177Y-104220949D03*
X132588000Y-84074000D03*
X104065717Y-103119878D03*
X135128000Y-84074000D03*
X105039551Y-102015949D03*
X137668000Y-86487000D03*
X105045494Y-100931574D03*
X137668000Y-84074000D03*
X102235000Y-105410000D03*
X141097000Y-96520000D03*
X122682000Y-107442000D03*
X122682000Y-106426000D03*
X122682000Y-105537000D03*
X122682000Y-104648000D03*
X167640000Y-81915000D03*
D45*
X162818000Y-96056000D02*
X162818000Y-97587000D01*
X162818000Y-97587000D02*
X161230000Y-99175000D01*
X161230000Y-99175000D02*
X160655000Y-99175000D01*
X169418000Y-93956000D02*
X171100000Y-93956000D01*
X171100000Y-93956000D02*
X172581000Y-95437000D01*
X172581000Y-95437000D02*
X172581000Y-96012000D01*
X160718000Y-89456000D02*
X164640998Y-89456000D01*
X164640998Y-89456000D02*
X165029999Y-89845001D01*
X165029999Y-89845001D02*
X165606001Y-89845001D01*
X165606001Y-89845001D02*
X165989000Y-89462002D01*
X165989000Y-89462002D02*
X165989000Y-88377000D01*
X165989000Y-88377000D02*
X165818000Y-88206000D01*
X165818000Y-88206000D02*
X165818000Y-87356000D01*
X157619000Y-87249000D02*
X157661000Y-87249000D01*
X157661000Y-87249000D02*
X159868000Y-89456000D01*
X159868000Y-89456000D02*
X160718000Y-89456000D01*
X165318000Y-87356000D02*
X165318000Y-89245000D01*
X163957000Y-83173000D02*
X163195000Y-83173000D01*
X163195000Y-83173000D02*
X162374000Y-83173000D01*
X163207000Y-83185000D02*
X163195000Y-83173000D01*
X163207000Y-84709000D02*
X163207000Y-83185000D01*
X162374000Y-83173000D02*
X162220000Y-83019000D01*
X163969000Y-80264000D02*
X160275000Y-80264000D01*
X160275000Y-80264000D02*
X160020000Y-80519000D01*
X160020000Y-80519000D02*
X160020000Y-81319000D01*
X160020000Y-81319000D02*
X160160002Y-81319000D01*
X160160002Y-81319000D02*
X161219999Y-82378997D01*
X161219999Y-83859001D02*
X162900944Y-85539946D01*
X161219999Y-82378997D02*
X161219999Y-83859001D01*
X162900944Y-85539946D02*
X163517946Y-85539946D01*
X163517946Y-85539946D02*
X164318000Y-86340000D01*
X164318000Y-86340000D02*
X164318000Y-86506000D01*
X164318000Y-86506000D02*
X164318000Y-87356000D01*
X156845000Y-83185000D02*
X156845000Y-84943000D01*
X156845000Y-84943000D02*
X156992000Y-85090000D01*
X156992000Y-85090000D02*
X156992000Y-85490000D01*
X156992000Y-85490000D02*
X157846353Y-86344353D01*
X157846353Y-86344353D02*
X163090655Y-86344353D01*
X163322000Y-87352000D02*
X163318000Y-87356000D01*
X163090655Y-86344353D02*
X163322000Y-86575698D01*
X163322000Y-86575698D02*
X163322000Y-87352000D01*
X159492000Y-85090000D02*
X160341956Y-85939956D01*
X160341956Y-85939956D02*
X163251956Y-85939956D01*
X163251956Y-85939956D02*
X163818000Y-86506000D01*
X163818000Y-86506000D02*
X163818000Y-87356000D01*
X158242000Y-83185000D02*
X158242000Y-84540000D01*
X158242000Y-84540000D02*
X158792000Y-85090000D01*
X158792000Y-85090000D02*
X159492000Y-85090000D01*
D46*
X152781000Y-111783464D02*
X153115362Y-111449102D01*
X153115362Y-110849104D02*
X153415361Y-111149103D01*
X152759000Y-110492742D02*
X153115362Y-110849104D01*
X152759000Y-108712000D02*
X152759000Y-110492742D01*
X153115362Y-111449102D02*
X153415361Y-111149103D01*
X152781000Y-117425000D02*
X152781000Y-111783464D01*
D45*
X160718000Y-88956000D02*
X160718000Y-88756000D01*
X160718000Y-88756000D02*
X160655000Y-88693000D01*
X162318000Y-87356000D02*
X162112000Y-87356000D01*
X162112000Y-87356000D02*
X162005000Y-87249000D01*
D47*
X160655000Y-87249000D02*
X162005000Y-87249000D01*
X160655000Y-87249000D02*
X160655000Y-88693000D01*
D45*
X169418000Y-94456000D02*
X169418000Y-94491980D01*
X169418000Y-94491980D02*
X169545000Y-94618980D01*
X169580405Y-94632567D02*
X169580405Y-94618405D01*
D47*
X169545000Y-96012000D02*
X169545000Y-94618980D01*
X169545000Y-94618980D02*
X169547744Y-94616236D01*
D45*
X160655000Y-87249000D02*
X160655000Y-87276497D01*
X160655000Y-87276497D02*
X160734503Y-87356000D01*
X160718000Y-87310920D02*
X160673195Y-87266115D01*
X160673195Y-87266115D02*
X160672115Y-87266115D01*
X160672115Y-87266115D02*
X160655000Y-87249000D01*
D47*
X144399000Y-111150000D02*
X144399000Y-117450000D01*
X144379061Y-108662165D02*
X144379061Y-111130061D01*
X144379061Y-111130061D02*
X144399000Y-111150000D01*
X144379061Y-108670061D02*
X144379061Y-108662165D01*
X144421000Y-108712000D02*
X144379061Y-108670061D01*
X144399000Y-108682104D02*
X144379061Y-108662165D01*
D45*
X166318000Y-87356000D02*
X166318000Y-85904000D01*
D47*
X166318000Y-85904000D02*
X166370000Y-85852000D01*
D45*
X162318000Y-96056000D02*
X162223000Y-96056000D01*
X162223000Y-96056000D02*
X162179000Y-96012000D01*
D47*
X160655000Y-96012000D02*
X162179000Y-96012000D01*
X160655000Y-96012000D02*
X160655000Y-97675000D01*
X169545000Y-96012000D02*
X171081000Y-96012000D01*
X160655000Y-87249000D02*
X159119000Y-87249000D01*
X166370000Y-85078000D02*
X166370000Y-85852000D01*
D45*
X124460000Y-112522000D02*
X125349000Y-112522000D01*
X125349000Y-112522000D02*
X126226000Y-112522000D01*
X125325000Y-114046000D02*
X125325000Y-112546000D01*
X125325000Y-112546000D02*
X125349000Y-112522000D01*
X126226000Y-112522000D02*
X126238000Y-112510000D01*
X126238000Y-112485000D02*
X126238418Y-112484582D01*
X162643938Y-103224070D02*
X168643011Y-97224997D01*
X126238418Y-112484582D02*
X127615538Y-112484582D01*
X168568000Y-91456000D02*
X169418000Y-91456000D01*
X127615538Y-112484582D02*
X136876050Y-103224070D01*
X136876050Y-103224070D02*
X162643938Y-103224070D01*
X168643011Y-97224997D02*
X168643011Y-94996013D01*
X168643011Y-94996013D02*
X167801999Y-94155001D01*
X167801999Y-94155001D02*
X167801999Y-92222001D01*
X167801999Y-92222001D02*
X168568000Y-91456000D01*
X123085597Y-101702194D02*
X122785598Y-102002193D01*
X126301791Y-98486000D02*
X123085597Y-101702194D01*
X128302000Y-98486000D02*
X126301791Y-98486000D01*
X128282000Y-100965000D02*
X128282000Y-98506000D01*
X128282000Y-98506000D02*
X128302000Y-98486000D01*
X123028573Y-98417710D02*
X122728574Y-98717709D01*
X126511283Y-94935000D02*
X123028573Y-98417710D01*
X128302000Y-94935000D02*
X126511283Y-94935000D01*
X128282000Y-92456000D02*
X128282000Y-94915000D01*
X128282000Y-94915000D02*
X128302000Y-94935000D01*
D46*
X164765935Y-111720054D02*
X164765935Y-111586065D01*
X164765935Y-111586065D02*
X170440000Y-105912000D01*
X170440000Y-105912000D02*
X174752000Y-105912000D01*
D45*
X172847000Y-84963000D02*
X173863000Y-84963000D01*
X172847000Y-86741000D02*
X173863000Y-86741000D01*
X172847000Y-88519000D02*
X173863000Y-88519000D01*
X173863000Y-90297000D02*
X172847000Y-90297000D01*
X172847000Y-92075000D02*
X173863000Y-92075000D01*
X137843000Y-97377000D02*
X139402000Y-97377000D01*
X139402000Y-97377000D02*
X139446000Y-97421000D01*
X139446000Y-97421000D02*
X139446000Y-96520000D01*
X168552000Y-93472000D02*
X168402000Y-93472000D01*
X169418000Y-93456000D02*
X168568000Y-93456000D01*
X168568000Y-93456000D02*
X168552000Y-93472000D01*
X163318000Y-95000091D02*
X163322179Y-94995912D01*
X163318000Y-96056000D02*
X163318000Y-95000091D01*
X161767593Y-94456000D02*
X161800167Y-94488574D01*
X160718000Y-94456000D02*
X161767593Y-94456000D01*
X105712000Y-90036000D02*
X112938000Y-90036000D01*
X112938000Y-90036000D02*
X112963000Y-90011000D01*
X106093000Y-90900000D02*
X106601000Y-91408000D01*
X106601000Y-91408000D02*
X107248000Y-91408000D01*
X104315000Y-90900000D02*
X106093000Y-90900000D01*
X103112000Y-89697000D02*
X104315000Y-90900000D01*
X103112000Y-89236000D02*
X103112000Y-89697000D01*
D48*
X162735000Y-123285000D02*
X162735000Y-118840000D01*
X162735000Y-125825000D02*
X162735000Y-123285000D01*
X162735000Y-128746000D02*
X162735000Y-125825000D01*
X162814000Y-118604000D02*
X162790000Y-118580000D01*
X162790000Y-118580000D02*
X171754000Y-109616000D01*
X166878000Y-114427000D02*
X165227000Y-116078000D01*
X168529000Y-112776000D02*
X166878000Y-114427000D01*
X170053000Y-111252000D02*
X168529000Y-112776000D01*
X171754000Y-109616000D02*
X171689000Y-109616000D01*
X171689000Y-109616000D02*
X170053000Y-111252000D01*
X165227000Y-116078000D02*
X165292000Y-116078000D01*
X165292000Y-116078000D02*
X171754000Y-109616000D01*
X172895000Y-123285000D02*
X172895000Y-122857000D01*
X172895000Y-122857000D02*
X171704000Y-121666000D01*
X172895000Y-125825000D02*
X172895000Y-123285000D01*
X172895000Y-128746000D02*
X172895000Y-125825000D01*
D47*
X172720000Y-115697000D02*
X172720000Y-115840000D01*
X172720000Y-115840000D02*
X170355000Y-118205000D01*
X175260000Y-115697000D02*
X172720000Y-115697000D01*
X177800000Y-115697000D02*
X175260000Y-115697000D01*
X180340000Y-115697000D02*
X177800000Y-115697000D01*
X182880000Y-115697000D02*
X180340000Y-115697000D01*
X185904000Y-115666000D02*
X182911000Y-115666000D01*
X182911000Y-115666000D02*
X182880000Y-115697000D01*
D48*
X172720000Y-115697000D02*
X185873000Y-115697000D01*
X167815000Y-123285000D02*
X167815000Y-120602000D01*
X167815000Y-120602000D02*
X172720000Y-115697000D01*
X167815000Y-125825000D02*
X167815000Y-123285000D01*
X167815000Y-128746000D02*
X167815000Y-125825000D01*
X185873000Y-115697000D02*
X185904000Y-115666000D01*
D45*
X131584000Y-97536000D02*
X130302000Y-97536000D01*
X131584000Y-93980000D02*
X130307000Y-93980000D01*
X130307000Y-93980000D02*
X130302000Y-93985000D01*
X164818000Y-87356000D02*
X164818000Y-84820000D01*
X164818000Y-84820000D02*
X164707000Y-84709000D01*
X171347000Y-84963000D02*
X168861000Y-84963000D01*
X168861000Y-84963000D02*
X167318000Y-86506000D01*
X167318000Y-86506000D02*
X167318000Y-87356000D01*
X167818000Y-87356000D02*
X167818000Y-86831000D01*
X167818000Y-86831000D02*
X167897613Y-86751387D01*
X167897613Y-86751387D02*
X171361500Y-86751387D01*
X169418000Y-88956000D02*
X170910000Y-88956000D01*
X170910000Y-88956000D02*
X171347000Y-88519000D01*
X169418000Y-89456000D02*
X170706000Y-89456000D01*
X170706000Y-89456000D02*
X171347000Y-90097000D01*
X171347000Y-90097000D02*
X171347000Y-90297000D01*
X169418000Y-89956000D02*
X170233002Y-89956000D01*
X170233002Y-89956000D02*
X170796999Y-90519997D01*
X170796999Y-90519997D02*
X170796999Y-91802999D01*
X170796999Y-91802999D02*
X171069000Y-92075000D01*
X171069000Y-92075000D02*
X171347000Y-92075000D01*
X171347000Y-91875000D02*
X171347000Y-92075000D01*
X139446000Y-98921000D02*
X139446000Y-99695000D01*
X123825000Y-114046000D02*
X122682000Y-114046000D01*
X163818000Y-96906000D02*
X163818000Y-96056000D01*
X163818000Y-99787209D02*
X163818000Y-96906000D01*
X161981182Y-101624027D02*
X163818000Y-99787209D01*
X126365000Y-107442000D02*
X126365000Y-107642000D01*
X122081999Y-104359999D02*
X122593999Y-103847999D01*
X136213295Y-101624027D02*
X161981182Y-101624027D01*
X133989323Y-103847999D02*
X136213295Y-101624027D01*
X122081999Y-107730001D02*
X122081999Y-104359999D01*
X122543999Y-108192001D02*
X122081999Y-107730001D01*
X125814999Y-108192001D02*
X122543999Y-108192001D01*
X126365000Y-107642000D02*
X125814999Y-108192001D01*
X122593999Y-103847999D02*
X133989323Y-103847999D01*
X129032000Y-106426000D02*
X133108422Y-106426000D01*
X133108422Y-106426000D02*
X136710362Y-102824060D01*
X164418001Y-95105999D02*
X164318000Y-95206000D01*
X168243001Y-97059308D02*
X168243001Y-95165999D01*
X162478249Y-102824060D02*
X168243001Y-97059308D01*
X136710362Y-102824060D02*
X162478249Y-102824060D01*
X168243001Y-95165999D02*
X168183001Y-95105999D01*
X168183001Y-95105999D02*
X164418001Y-95105999D01*
X164318000Y-95206000D02*
X164318000Y-96056000D01*
X136544673Y-102424049D02*
X162312560Y-102424049D01*
X162312560Y-102424049D02*
X165318000Y-99418609D01*
X165318000Y-96906000D02*
X165318000Y-96056000D01*
X131699000Y-105537000D02*
X133431722Y-105537000D01*
X165318000Y-99418609D02*
X165318000Y-96906000D01*
X133431722Y-105537000D02*
X136544673Y-102424049D01*
X164818000Y-96906000D02*
X164818000Y-96056000D01*
X164818000Y-99352909D02*
X164818000Y-96906000D01*
X136378984Y-102024038D02*
X162146871Y-102024038D01*
X129032000Y-104648000D02*
X133755022Y-104648000D01*
X162146871Y-102024038D02*
X164818000Y-99352909D01*
X133755022Y-104648000D02*
X136378984Y-102024038D01*
X160718000Y-93456000D02*
X136964000Y-93456000D01*
X136964000Y-93456000D02*
X133084000Y-97336000D01*
X133084000Y-97336000D02*
X133084000Y-97536000D01*
X133084000Y-93980000D02*
X133534000Y-93980000D01*
X133534000Y-93980000D02*
X134558000Y-92956000D01*
X134558000Y-92956000D02*
X159868000Y-92956000D01*
X159868000Y-92956000D02*
X160718000Y-92956000D01*
X114463000Y-90011000D02*
X116116569Y-90011000D01*
X116116569Y-90011000D02*
X116139462Y-90033893D01*
X108748000Y-91408000D02*
X111157000Y-91408000D01*
X111157000Y-91408000D02*
X111188500Y-91376500D01*
X160718000Y-90456000D02*
X159858972Y-90456000D01*
X159858972Y-90456000D02*
X159384145Y-89981173D01*
X183461445Y-87705275D02*
X183761444Y-87405276D01*
X178210720Y-92956000D02*
X183461445Y-87705275D01*
X169418000Y-92956000D02*
X178210720Y-92956000D01*
D46*
X150473000Y-121285000D02*
X150473000Y-122840000D01*
X150473000Y-122840000D02*
X150495000Y-122862000D01*
X150483000Y-119380000D02*
X150483000Y-121275000D01*
X150483000Y-121275000D02*
X150473000Y-121285000D01*
X150481000Y-117425000D02*
X150481000Y-119378000D01*
X150481000Y-119378000D02*
X150483000Y-119380000D01*
X142240000Y-122862000D02*
X150495000Y-122862000D01*
X150495000Y-122862000D02*
X157072002Y-122862000D01*
X142125000Y-119380000D02*
X142125000Y-117476000D01*
X142125000Y-117476000D02*
X142099000Y-117450000D01*
X142113000Y-121285000D02*
X142113000Y-119392000D01*
X142113000Y-119392000D02*
X142125000Y-119380000D01*
X142113000Y-121285000D02*
X142113000Y-122735000D01*
X142113000Y-122735000D02*
X142240000Y-122862000D01*
X160274000Y-111418536D02*
X170340576Y-101351960D01*
X157072002Y-122862000D02*
X160274000Y-119660002D01*
X160274000Y-119660002D02*
X160274000Y-111418536D01*
X174752000Y-101352000D02*
X170340536Y-101352000D01*
D45*
X149352000Y-87852000D02*
X149352000Y-87852548D01*
X149352000Y-87852548D02*
X152455452Y-90956000D01*
X152455452Y-90956000D02*
X159995413Y-90956000D01*
X159995413Y-90956000D02*
X160718000Y-90956000D01*
X131048500Y-83301000D02*
X132470223Y-83301000D01*
X132470223Y-83301000D02*
X132589298Y-83181925D01*
X132588000Y-84074000D02*
X132588000Y-83185000D01*
X135128000Y-84074000D02*
X135128000Y-83316500D01*
X135128000Y-83316500D02*
X135112500Y-83301000D01*
X137668000Y-86487000D02*
X137668000Y-87371000D01*
X137668000Y-87371000D02*
X137652500Y-87386500D01*
X137668000Y-84074000D02*
X137668000Y-83295500D01*
X137668000Y-83295500D02*
X137652500Y-83280000D01*
X141097000Y-96520000D02*
X141097000Y-97350000D01*
X141097000Y-97350000D02*
X141124000Y-97377000D01*
X122682000Y-107442000D02*
X124865000Y-107442000D01*
X122682000Y-106426000D02*
X127532000Y-106426000D01*
X125857000Y-105537000D02*
X122682000Y-105537000D01*
X130199000Y-105537000D02*
X125857000Y-105537000D01*
X127532000Y-104648000D02*
X123964000Y-104648000D01*
X123964000Y-104648000D02*
X122682000Y-104648000D01*
X167640000Y-85470002D02*
X167640000Y-81915000D01*
X166818000Y-87356000D02*
X166818000Y-86292002D01*
X166818000Y-86292002D02*
X167640000Y-85470002D01*
D49*
G36*
X105537000Y-117729000D02*
X103251000Y-117729000D01*
X103251000Y-114935000D01*
X105537000Y-114935000D01*
X105537000Y-117729000D01*
X105537000Y-117729000D01*
G37*
X105537000Y-117729000D02*
X103251000Y-117729000D01*
X103251000Y-114935000D01*
X105537000Y-114935000D01*
X105537000Y-117729000D01*
G36*
X158750000Y-107188000D02*
X154305000Y-107188000D01*
X154305000Y-106172000D01*
X158750000Y-106172000D01*
X158750000Y-107188000D01*
X158750000Y-107188000D01*
G37*
X158750000Y-107188000D02*
X154305000Y-107188000D01*
X154305000Y-106172000D01*
X158750000Y-106172000D01*
X158750000Y-107188000D01*
G36*
X192429783Y-79599309D02*
X191515419Y-79219632D01*
X190070918Y-79218372D01*
X188735891Y-79769994D01*
X187713583Y-80790519D01*
X187159632Y-82124581D01*
X187158372Y-83569082D01*
X187709994Y-84904109D01*
X188730519Y-85926417D01*
X190064581Y-86480368D01*
X191509082Y-86481628D01*
X192844109Y-85930006D01*
X193866417Y-84909481D01*
X194359000Y-83723210D01*
X194359000Y-106723000D01*
X176168954Y-106723000D01*
X176209859Y-106663134D01*
X176240464Y-106512000D01*
X176240464Y-105312000D01*
X176213897Y-105170810D01*
X176130454Y-105041135D01*
X176003134Y-104954141D01*
X175852000Y-104923536D01*
X173652000Y-104923536D01*
X173510810Y-104950103D01*
X173381135Y-105033546D01*
X173294141Y-105160866D01*
X173290064Y-105181000D01*
X170440000Y-105181000D01*
X170160259Y-105236643D01*
X169923105Y-105395105D01*
X164249040Y-111069170D01*
X164090579Y-111306323D01*
X164034935Y-111586065D01*
X164034935Y-111720054D01*
X164090579Y-111999796D01*
X164249040Y-112236949D01*
X164486193Y-112395410D01*
X164547242Y-112407553D01*
X161005000Y-115946286D01*
X161005000Y-111721326D01*
X170643326Y-102083000D01*
X173288186Y-102083000D01*
X173290103Y-102093190D01*
X173373546Y-102222865D01*
X173500866Y-102309859D01*
X173652000Y-102340464D01*
X175852000Y-102340464D01*
X175993190Y-102313897D01*
X176122865Y-102230454D01*
X176209859Y-102103134D01*
X176240464Y-101952000D01*
X176240464Y-100752000D01*
X176213897Y-100610810D01*
X176130454Y-100481135D01*
X176003134Y-100394141D01*
X175852000Y-100363536D01*
X173652000Y-100363536D01*
X173510810Y-100390103D01*
X173381135Y-100473546D01*
X173294141Y-100600866D01*
X173290064Y-100621000D01*
X170340777Y-100621000D01*
X170340576Y-100620960D01*
X170060834Y-100676604D01*
X169823681Y-100835065D01*
X159757105Y-110901641D01*
X159598644Y-111138794D01*
X159543000Y-111418536D01*
X159543000Y-119357212D01*
X156769212Y-122131000D01*
X151756755Y-122131000D01*
X151805859Y-122059134D01*
X151836464Y-121908000D01*
X151836464Y-120408000D01*
X151809897Y-120266810D01*
X151726454Y-120137135D01*
X151599134Y-120050141D01*
X151448000Y-120019536D01*
X151214000Y-120019536D01*
X151214000Y-119945443D01*
X151240859Y-119906134D01*
X151271464Y-119755000D01*
X151271464Y-119005000D01*
X151244897Y-118863810D01*
X151212500Y-118813464D01*
X151231000Y-118813464D01*
X151372190Y-118786897D01*
X151501865Y-118703454D01*
X151588859Y-118576134D01*
X151619464Y-118425000D01*
X151619464Y-116425000D01*
X151592897Y-116283810D01*
X151509454Y-116154135D01*
X151382134Y-116067141D01*
X151231000Y-116036536D01*
X149731000Y-116036536D01*
X149589810Y-116063103D01*
X149460135Y-116146546D01*
X149373141Y-116273866D01*
X149342536Y-116425000D01*
X149342536Y-118425000D01*
X149369103Y-118566190D01*
X149452546Y-118695865D01*
X149579866Y-118782859D01*
X149731000Y-118813464D01*
X149750000Y-118813464D01*
X149750000Y-118817484D01*
X149725141Y-118853866D01*
X149694536Y-119005000D01*
X149694536Y-119755000D01*
X149721103Y-119896190D01*
X149752000Y-119944206D01*
X149752000Y-120019536D01*
X149498000Y-120019536D01*
X149356810Y-120046103D01*
X149227135Y-120129546D01*
X149140141Y-120256866D01*
X149109536Y-120408000D01*
X149109536Y-121908000D01*
X149136103Y-122049190D01*
X149188746Y-122131000D01*
X143396755Y-122131000D01*
X143445859Y-122059134D01*
X143476464Y-121908000D01*
X143476464Y-120408000D01*
X143449897Y-120266810D01*
X143366454Y-120137135D01*
X143239134Y-120050141D01*
X143088000Y-120019536D01*
X142844000Y-120019536D01*
X142844000Y-119963006D01*
X142882859Y-119906134D01*
X142913464Y-119755000D01*
X142913464Y-119005000D01*
X142886897Y-118863810D01*
X142868256Y-118834841D01*
X142990190Y-118811897D01*
X143119865Y-118728454D01*
X143206859Y-118601134D01*
X143237464Y-118450000D01*
X143237464Y-116450000D01*
X143210897Y-116308810D01*
X143127454Y-116179135D01*
X143000134Y-116092141D01*
X142849000Y-116061536D01*
X141349000Y-116061536D01*
X141207810Y-116088103D01*
X141078135Y-116171546D01*
X140991141Y-116298866D01*
X140960536Y-116450000D01*
X140960536Y-118450000D01*
X140987103Y-118591190D01*
X141070546Y-118720865D01*
X141197866Y-118807859D01*
X141349000Y-118838464D01*
X141377665Y-118838464D01*
X141367141Y-118853866D01*
X141336536Y-119005000D01*
X141336536Y-119755000D01*
X141363103Y-119896190D01*
X141382000Y-119925557D01*
X141382000Y-120019536D01*
X141138000Y-120019536D01*
X140996810Y-120046103D01*
X140867135Y-120129546D01*
X140780141Y-120256866D01*
X140749536Y-120408000D01*
X140749536Y-121908000D01*
X140776103Y-122049190D01*
X140859546Y-122178865D01*
X140986866Y-122265859D01*
X141138000Y-122296464D01*
X141382000Y-122296464D01*
X141382000Y-122735000D01*
X141437644Y-123014742D01*
X141593023Y-123247282D01*
X141596105Y-123251895D01*
X141723105Y-123378895D01*
X141960258Y-123537356D01*
X142240000Y-123593000D01*
X157072002Y-123593000D01*
X157351744Y-123537356D01*
X157588897Y-123378895D01*
X160068000Y-120899792D01*
X160068000Y-129300000D01*
X160078006Y-129349410D01*
X160106447Y-129391035D01*
X160148841Y-129418315D01*
X160194761Y-129427000D01*
X161314000Y-129429104D01*
X161314000Y-129548728D01*
X161422167Y-130092521D01*
X161730201Y-130553527D01*
X162191207Y-130861561D01*
X162735000Y-130969728D01*
X163278793Y-130861561D01*
X163739799Y-130553527D01*
X164047833Y-130092521D01*
X164156000Y-129548728D01*
X164156000Y-129434447D01*
X166394000Y-129438655D01*
X166394000Y-129548728D01*
X166502167Y-130092521D01*
X166810201Y-130553527D01*
X167271207Y-130861561D01*
X167815000Y-130969728D01*
X168358793Y-130861561D01*
X168819799Y-130553527D01*
X169127833Y-130092521D01*
X169236000Y-129548728D01*
X169236000Y-129443998D01*
X171474000Y-129448206D01*
X171474000Y-129548728D01*
X171582167Y-130092521D01*
X171890201Y-130553527D01*
X172351207Y-130861561D01*
X172895000Y-130969728D01*
X173438793Y-130861561D01*
X173899799Y-130553527D01*
X174207833Y-130092521D01*
X174316000Y-129548728D01*
X174316000Y-129453549D01*
X186789761Y-129477000D01*
X186839190Y-129467087D01*
X186880868Y-129438724D01*
X186908228Y-129396381D01*
X186917000Y-129350000D01*
X186917000Y-122402606D01*
X190842606Y-118477000D01*
X194359000Y-118477000D01*
X194359000Y-129979347D01*
X193870006Y-128795891D01*
X192849481Y-127773583D01*
X191515419Y-127219632D01*
X190070918Y-127218372D01*
X188735891Y-127769994D01*
X187713583Y-128790519D01*
X187159632Y-130124581D01*
X187158372Y-131569082D01*
X187549452Y-132515567D01*
X187429228Y-132395133D01*
X187015158Y-132223196D01*
X186566809Y-132222805D01*
X186152440Y-132394019D01*
X185835133Y-132710772D01*
X185663196Y-133124842D01*
X185662805Y-133573191D01*
X185834019Y-133987560D01*
X186150772Y-134304867D01*
X186564842Y-134476804D01*
X187013191Y-134477195D01*
X187427560Y-134305981D01*
X187744867Y-133989228D01*
X187916804Y-133575158D01*
X187917195Y-133126809D01*
X187906523Y-133100982D01*
X188730519Y-133926417D01*
X190064581Y-134480368D01*
X191509082Y-134481628D01*
X192428912Y-134101562D01*
X191611474Y-134919000D01*
X97968526Y-134919000D01*
X97150217Y-134100691D01*
X98064581Y-134480368D01*
X99509082Y-134481628D01*
X100844109Y-133930006D01*
X101672057Y-133103502D01*
X101663196Y-133124842D01*
X101662805Y-133573191D01*
X101834019Y-133987560D01*
X102150772Y-134304867D01*
X102564842Y-134476804D01*
X103013191Y-134477195D01*
X103427560Y-134305981D01*
X103744867Y-133989228D01*
X103916804Y-133575158D01*
X103917195Y-133126809D01*
X103745981Y-132712440D01*
X103429228Y-132395133D01*
X103015158Y-132223196D01*
X102566809Y-132222805D01*
X102152440Y-132394019D01*
X102029492Y-132516752D01*
X102420368Y-131575419D01*
X102421628Y-130130918D01*
X102324232Y-129895200D01*
X104415405Y-129895200D01*
X104450692Y-130108768D01*
X104873564Y-130249149D01*
X105317968Y-130217018D01*
X105579308Y-130108768D01*
X105614595Y-129895200D01*
X113175405Y-129895200D01*
X113210692Y-130108768D01*
X113633564Y-130249149D01*
X114077968Y-130217018D01*
X114339308Y-130108768D01*
X114374595Y-129895200D01*
X113775000Y-129295605D01*
X113175405Y-129895200D01*
X105614595Y-129895200D01*
X105015000Y-129295605D01*
X104415405Y-129895200D01*
X102324232Y-129895200D01*
X101943833Y-128974564D01*
X103881851Y-128974564D01*
X103913982Y-129418968D01*
X104022232Y-129680308D01*
X104235800Y-129715595D01*
X104835395Y-129116000D01*
X105194605Y-129116000D01*
X105794200Y-129715595D01*
X106007768Y-129680308D01*
X106148149Y-129257436D01*
X106127697Y-128974564D01*
X112641851Y-128974564D01*
X112673982Y-129418968D01*
X112782232Y-129680308D01*
X112995800Y-129715595D01*
X113595395Y-129116000D01*
X113954605Y-129116000D01*
X114554200Y-129715595D01*
X114767768Y-129680308D01*
X114908149Y-129257436D01*
X114876018Y-128813032D01*
X114767768Y-128551692D01*
X114554200Y-128516405D01*
X113954605Y-129116000D01*
X113595395Y-129116000D01*
X112995800Y-128516405D01*
X112782232Y-128551692D01*
X112641851Y-128974564D01*
X106127697Y-128974564D01*
X106116018Y-128813032D01*
X106007768Y-128551692D01*
X105794200Y-128516405D01*
X105194605Y-129116000D01*
X104835395Y-129116000D01*
X104235800Y-128516405D01*
X104022232Y-128551692D01*
X103881851Y-128974564D01*
X101943833Y-128974564D01*
X101870006Y-128795891D01*
X101411716Y-128336800D01*
X104415405Y-128336800D01*
X105015000Y-128936395D01*
X105614595Y-128336800D01*
X113175405Y-128336800D01*
X113775000Y-128936395D01*
X114374595Y-128336800D01*
X114339308Y-128123232D01*
X113916436Y-127982851D01*
X113472032Y-128014982D01*
X113210692Y-128123232D01*
X113175405Y-128336800D01*
X105614595Y-128336800D01*
X105579308Y-128123232D01*
X105156436Y-127982851D01*
X104712032Y-128014982D01*
X104450692Y-128123232D01*
X104415405Y-128336800D01*
X101411716Y-128336800D01*
X100849481Y-127773583D01*
X99515419Y-127219632D01*
X98070918Y-127218372D01*
X96735891Y-127769994D01*
X95713583Y-128790519D01*
X95221000Y-129976790D01*
X95221000Y-126946000D01*
X135906536Y-126946000D01*
X135906536Y-130546000D01*
X135933103Y-130687190D01*
X136016546Y-130816865D01*
X136143866Y-130903859D01*
X136295000Y-130934464D01*
X138375000Y-130934464D01*
X138516190Y-130907897D01*
X138645865Y-130824454D01*
X138732859Y-130697134D01*
X138763464Y-130546000D01*
X138763464Y-127943272D01*
X140994000Y-127943272D01*
X140994000Y-129548728D01*
X141102167Y-130092521D01*
X141410201Y-130553527D01*
X141871207Y-130861561D01*
X142415000Y-130969728D01*
X142958793Y-130861561D01*
X143419799Y-130553527D01*
X143727833Y-130092521D01*
X143836000Y-129548728D01*
X143836000Y-127943272D01*
X146074000Y-127943272D01*
X146074000Y-129548728D01*
X146182167Y-130092521D01*
X146490201Y-130553527D01*
X146951207Y-130861561D01*
X147495000Y-130969728D01*
X148038793Y-130861561D01*
X148499799Y-130553527D01*
X148807833Y-130092521D01*
X148916000Y-129548728D01*
X148916000Y-128873000D01*
X150900000Y-128873000D01*
X150900000Y-129633000D01*
X151076103Y-130264327D01*
X151480399Y-130780206D01*
X152051338Y-131102099D01*
X152188290Y-131135748D01*
X152448000Y-131016922D01*
X152448000Y-128873000D01*
X152702000Y-128873000D01*
X152702000Y-131016922D01*
X152961710Y-131135748D01*
X153098662Y-131102099D01*
X153669601Y-130780206D01*
X154073897Y-130264327D01*
X154250000Y-129633000D01*
X154250000Y-128873000D01*
X152702000Y-128873000D01*
X152448000Y-128873000D01*
X150900000Y-128873000D01*
X148916000Y-128873000D01*
X148916000Y-127943272D01*
X148899238Y-127859000D01*
X150900000Y-127859000D01*
X150900000Y-128619000D01*
X152448000Y-128619000D01*
X152448000Y-126475078D01*
X152702000Y-126475078D01*
X152702000Y-128619000D01*
X154250000Y-128619000D01*
X154250000Y-127943272D01*
X156234000Y-127943272D01*
X156234000Y-129548728D01*
X156342167Y-130092521D01*
X156650201Y-130553527D01*
X157111207Y-130861561D01*
X157655000Y-130969728D01*
X158198793Y-130861561D01*
X158659799Y-130553527D01*
X158967833Y-130092521D01*
X159076000Y-129548728D01*
X159076000Y-127943272D01*
X158967833Y-127399479D01*
X158659799Y-126938473D01*
X158198793Y-126630439D01*
X157655000Y-126522272D01*
X157111207Y-126630439D01*
X156650201Y-126938473D01*
X156342167Y-127399479D01*
X156234000Y-127943272D01*
X154250000Y-127943272D01*
X154250000Y-127859000D01*
X154073897Y-127227673D01*
X153669601Y-126711794D01*
X153098662Y-126389901D01*
X152961710Y-126356252D01*
X152702000Y-126475078D01*
X152448000Y-126475078D01*
X152188290Y-126356252D01*
X152051338Y-126389901D01*
X151480399Y-126711794D01*
X151076103Y-127227673D01*
X150900000Y-127859000D01*
X148899238Y-127859000D01*
X148807833Y-127399479D01*
X148499799Y-126938473D01*
X148038793Y-126630439D01*
X147495000Y-126522272D01*
X146951207Y-126630439D01*
X146490201Y-126938473D01*
X146182167Y-127399479D01*
X146074000Y-127943272D01*
X143836000Y-127943272D01*
X143727833Y-127399479D01*
X143419799Y-126938473D01*
X142958793Y-126630439D01*
X142415000Y-126522272D01*
X141871207Y-126630439D01*
X141410201Y-126938473D01*
X141102167Y-127399479D01*
X140994000Y-127943272D01*
X138763464Y-127943272D01*
X138763464Y-126946000D01*
X138736897Y-126804810D01*
X138653454Y-126675135D01*
X138526134Y-126588141D01*
X138375000Y-126557536D01*
X136295000Y-126557536D01*
X136153810Y-126584103D01*
X136024135Y-126667546D01*
X135937141Y-126794866D01*
X135906536Y-126946000D01*
X95221000Y-126946000D01*
X95221000Y-114808000D01*
X102743000Y-114808000D01*
X102743000Y-117856000D01*
X102769056Y-117994477D01*
X102850896Y-118121660D01*
X102975770Y-118206983D01*
X103124000Y-118237000D01*
X105664000Y-118237000D01*
X105802477Y-118210944D01*
X105929660Y-118129104D01*
X106014983Y-118004230D01*
X106045000Y-117856000D01*
X106045000Y-114808000D01*
X106018944Y-114669523D01*
X105937104Y-114542340D01*
X105812230Y-114457017D01*
X105664000Y-114427000D01*
X103124000Y-114427000D01*
X102985523Y-114453056D01*
X102858340Y-114534896D01*
X102773017Y-114659770D01*
X102743000Y-114808000D01*
X95221000Y-114808000D01*
X95221000Y-114220473D01*
X121800847Y-114220473D01*
X121934689Y-114544395D01*
X122182302Y-114792440D01*
X122505989Y-114926847D01*
X122856473Y-114927153D01*
X123180395Y-114793311D01*
X123261479Y-114712369D01*
X123296546Y-114766865D01*
X123423866Y-114853859D01*
X123575000Y-114884464D01*
X124075000Y-114884464D01*
X124216190Y-114857897D01*
X124345865Y-114774454D01*
X124432859Y-114647134D01*
X124463464Y-114496000D01*
X124463464Y-113596000D01*
X124436897Y-113454810D01*
X124353454Y-113325135D01*
X124226134Y-113238141D01*
X124075000Y-113207536D01*
X123575000Y-113207536D01*
X123433810Y-113234103D01*
X123304135Y-113317546D01*
X123261680Y-113379681D01*
X123181698Y-113299560D01*
X122858011Y-113165153D01*
X122507527Y-113164847D01*
X122183605Y-113298689D01*
X121935560Y-113546302D01*
X121801153Y-113869989D01*
X121800847Y-114220473D01*
X95221000Y-114220473D01*
X95221000Y-109037365D01*
X127334882Y-109037365D01*
X127438339Y-109287752D01*
X127629741Y-109479487D01*
X127879946Y-109583382D01*
X128150865Y-109583618D01*
X128401252Y-109480161D01*
X128592987Y-109288759D01*
X128696882Y-109038554D01*
X128697118Y-108767635D01*
X128593661Y-108517248D01*
X128402259Y-108325513D01*
X128152054Y-108221618D01*
X127881135Y-108221382D01*
X127630748Y-108324839D01*
X127439013Y-108516241D01*
X127335118Y-108766446D01*
X127334882Y-109037365D01*
X95221000Y-109037365D01*
X95221000Y-105544865D01*
X101553882Y-105544865D01*
X101657339Y-105795252D01*
X101848741Y-105986987D01*
X102098946Y-106090882D01*
X102369865Y-106091118D01*
X102620252Y-105987661D01*
X102811987Y-105796259D01*
X102915882Y-105546054D01*
X102916118Y-105275135D01*
X102812661Y-105024748D01*
X102621259Y-104833013D01*
X102371054Y-104729118D01*
X102100135Y-104728882D01*
X101849748Y-104832339D01*
X101658013Y-105023741D01*
X101554118Y-105273946D01*
X101553882Y-105544865D01*
X95221000Y-105544865D01*
X95221000Y-104355814D01*
X102466059Y-104355814D01*
X102569516Y-104606201D01*
X102760918Y-104797936D01*
X103011123Y-104901831D01*
X103282042Y-104902067D01*
X103532429Y-104798610D01*
X103724164Y-104607208D01*
X103826814Y-104359999D01*
X121600999Y-104359999D01*
X121600999Y-107730001D01*
X121620544Y-107828259D01*
X121637613Y-107914072D01*
X121741881Y-108070119D01*
X122203881Y-108532120D01*
X122297425Y-108594623D01*
X122359928Y-108636387D01*
X122543999Y-108673001D01*
X125814999Y-108673001D01*
X125999070Y-108636387D01*
X126155117Y-108532119D01*
X126406772Y-108280464D01*
X126615000Y-108280464D01*
X126756190Y-108253897D01*
X126885865Y-108170454D01*
X126972859Y-108043134D01*
X127003464Y-107892000D01*
X127003464Y-107146738D01*
X127003546Y-107146865D01*
X127130866Y-107233859D01*
X127282000Y-107264464D01*
X127782000Y-107264464D01*
X127923190Y-107237897D01*
X128052865Y-107154454D01*
X128139859Y-107027134D01*
X128170464Y-106876000D01*
X128170464Y-106018000D01*
X128393536Y-106018000D01*
X128393536Y-106876000D01*
X128420103Y-107017190D01*
X128503546Y-107146865D01*
X128630866Y-107233859D01*
X128782000Y-107264464D01*
X129282000Y-107264464D01*
X129423190Y-107237897D01*
X129552865Y-107154454D01*
X129639859Y-107027134D01*
X129664186Y-106907000D01*
X132512883Y-106907000D01*
X127416302Y-112003582D01*
X126981440Y-112003582D01*
X126974897Y-111968810D01*
X126891454Y-111839135D01*
X126764134Y-111752141D01*
X126613000Y-111721536D01*
X125863000Y-111721536D01*
X125721810Y-111748103D01*
X125592135Y-111831546D01*
X125505141Y-111958866D01*
X125488509Y-112041000D01*
X125214106Y-112041000D01*
X125188454Y-112001135D01*
X125061134Y-111914141D01*
X124910000Y-111883536D01*
X124010000Y-111883536D01*
X123868810Y-111910103D01*
X123739135Y-111993546D01*
X123652141Y-112120866D01*
X123621536Y-112272000D01*
X123621536Y-112772000D01*
X123648103Y-112913190D01*
X123731546Y-113042865D01*
X123858866Y-113129859D01*
X124010000Y-113160464D01*
X124844000Y-113160464D01*
X124844000Y-113291894D01*
X124804135Y-113317546D01*
X124717141Y-113444866D01*
X124686536Y-113596000D01*
X124686536Y-114496000D01*
X124713103Y-114637190D01*
X124796546Y-114766865D01*
X124923866Y-114853859D01*
X125075000Y-114884464D01*
X125575000Y-114884464D01*
X125716190Y-114857897D01*
X125845865Y-114774454D01*
X125932859Y-114647134D01*
X125963464Y-114496000D01*
X125963464Y-113596000D01*
X125936897Y-113454810D01*
X125853454Y-113325135D01*
X125806000Y-113292711D01*
X125806000Y-113286921D01*
X125863000Y-113298464D01*
X126613000Y-113298464D01*
X126754190Y-113271897D01*
X126883865Y-113188454D01*
X126970859Y-113061134D01*
X126990209Y-112965582D01*
X127615538Y-112965582D01*
X127799609Y-112928968D01*
X127955656Y-112824700D01*
X130630356Y-110150000D01*
X142110536Y-110150000D01*
X142110536Y-112150000D01*
X142137103Y-112291190D01*
X142220546Y-112420865D01*
X142347866Y-112507859D01*
X142499000Y-112538464D01*
X143768000Y-112538464D01*
X143768000Y-116061536D01*
X143649000Y-116061536D01*
X143507810Y-116088103D01*
X143378135Y-116171546D01*
X143291141Y-116298866D01*
X143260536Y-116450000D01*
X143260536Y-118450000D01*
X143287103Y-118591190D01*
X143370546Y-118720865D01*
X143497866Y-118807859D01*
X143649000Y-118838464D01*
X145149000Y-118838464D01*
X145290190Y-118811897D01*
X145419865Y-118728454D01*
X145506859Y-118601134D01*
X145537464Y-118450000D01*
X145537464Y-116450000D01*
X145510897Y-116308810D01*
X145427454Y-116179135D01*
X145300134Y-116092141D01*
X145149000Y-116061536D01*
X145030000Y-116061536D01*
X145030000Y-112538464D01*
X146299000Y-112538464D01*
X146440190Y-112511897D01*
X146569865Y-112428454D01*
X146656859Y-112301134D01*
X146687464Y-112150000D01*
X146687464Y-110150000D01*
X146682760Y-110125000D01*
X150492536Y-110125000D01*
X150492536Y-112125000D01*
X150519103Y-112266190D01*
X150602546Y-112395865D01*
X150729866Y-112482859D01*
X150881000Y-112513464D01*
X152050000Y-112513464D01*
X152050000Y-116036536D01*
X152031000Y-116036536D01*
X151889810Y-116063103D01*
X151760135Y-116146546D01*
X151673141Y-116273866D01*
X151642536Y-116425000D01*
X151642536Y-118425000D01*
X151669103Y-118566190D01*
X151752546Y-118695865D01*
X151879866Y-118782859D01*
X152031000Y-118813464D01*
X153531000Y-118813464D01*
X153672190Y-118786897D01*
X153801865Y-118703454D01*
X153888859Y-118576134D01*
X153919464Y-118425000D01*
X153919464Y-116425000D01*
X153892897Y-116283810D01*
X153809454Y-116154135D01*
X153682134Y-116067141D01*
X153531000Y-116036536D01*
X153512000Y-116036536D01*
X153512000Y-112513464D01*
X154681000Y-112513464D01*
X154822190Y-112486897D01*
X154951865Y-112403454D01*
X155038859Y-112276134D01*
X155069464Y-112125000D01*
X155069464Y-110125000D01*
X155042897Y-109983810D01*
X154959454Y-109854135D01*
X154832134Y-109767141D01*
X154681000Y-109736536D01*
X154007542Y-109736536D01*
X154091859Y-109613134D01*
X154122464Y-109462000D01*
X154122464Y-107962000D01*
X154095897Y-107820810D01*
X154012454Y-107691135D01*
X153885134Y-107604141D01*
X153734000Y-107573536D01*
X151784000Y-107573536D01*
X151642810Y-107600103D01*
X151513135Y-107683546D01*
X151426141Y-107810866D01*
X151395536Y-107962000D01*
X151395536Y-109462000D01*
X151422103Y-109603190D01*
X151505546Y-109732865D01*
X151510919Y-109736536D01*
X150881000Y-109736536D01*
X150739810Y-109763103D01*
X150610135Y-109846546D01*
X150523141Y-109973866D01*
X150492536Y-110125000D01*
X146682760Y-110125000D01*
X146660897Y-110008810D01*
X146577454Y-109879135D01*
X146450134Y-109792141D01*
X146299000Y-109761536D01*
X145634102Y-109761536D01*
X145666865Y-109740454D01*
X145753859Y-109613134D01*
X145784464Y-109462000D01*
X145784464Y-107962000D01*
X145757897Y-107820810D01*
X145674454Y-107691135D01*
X145547134Y-107604141D01*
X145396000Y-107573536D01*
X143446000Y-107573536D01*
X143304810Y-107600103D01*
X143175135Y-107683546D01*
X143088141Y-107810866D01*
X143057536Y-107962000D01*
X143057536Y-109462000D01*
X143084103Y-109603190D01*
X143167546Y-109732865D01*
X143209507Y-109761536D01*
X142499000Y-109761536D01*
X142357810Y-109788103D01*
X142228135Y-109871546D01*
X142141141Y-109998866D01*
X142110536Y-110150000D01*
X130630356Y-110150000D01*
X134735356Y-106045000D01*
X153797000Y-106045000D01*
X153797000Y-107315000D01*
X153823056Y-107453477D01*
X153904896Y-107580660D01*
X154029770Y-107665983D01*
X154178000Y-107696000D01*
X158877000Y-107696000D01*
X159015477Y-107669944D01*
X159142660Y-107588104D01*
X159227983Y-107463230D01*
X159258000Y-107315000D01*
X159258000Y-106045000D01*
X159231944Y-105906523D01*
X159150104Y-105779340D01*
X159025230Y-105694017D01*
X158877000Y-105664000D01*
X154178000Y-105664000D01*
X154039523Y-105690056D01*
X153912340Y-105771896D01*
X153827017Y-105896770D01*
X153797000Y-106045000D01*
X134735356Y-106045000D01*
X137075287Y-103705070D01*
X162643938Y-103705070D01*
X162828009Y-103668456D01*
X162984056Y-103564188D01*
X166210379Y-100337865D01*
X189056882Y-100337865D01*
X189160339Y-100588252D01*
X189351741Y-100779987D01*
X189601946Y-100883882D01*
X189872865Y-100884118D01*
X190123252Y-100780661D01*
X190314987Y-100589259D01*
X190418882Y-100339054D01*
X190419118Y-100068135D01*
X190315661Y-99817748D01*
X190124259Y-99626013D01*
X189874054Y-99522118D01*
X189603135Y-99521882D01*
X189352748Y-99625339D01*
X189161013Y-99816741D01*
X189057118Y-100066946D01*
X189056882Y-100337865D01*
X166210379Y-100337865D01*
X168941354Y-97606890D01*
X184788524Y-97606890D01*
X184958355Y-98016924D01*
X185348642Y-98445183D01*
X185873108Y-98691486D01*
X186103000Y-98570819D01*
X186103000Y-97377000D01*
X186357000Y-97377000D01*
X186357000Y-98570819D01*
X186586892Y-98691486D01*
X187111358Y-98445183D01*
X187501645Y-98016924D01*
X187671476Y-97606890D01*
X187550155Y-97377000D01*
X186357000Y-97377000D01*
X186103000Y-97377000D01*
X184909845Y-97377000D01*
X184788524Y-97606890D01*
X168941354Y-97606890D01*
X168983129Y-97565116D01*
X169087397Y-97409068D01*
X169089315Y-97399426D01*
X169124011Y-97224997D01*
X169124011Y-96893110D01*
X184788524Y-96893110D01*
X184909845Y-97123000D01*
X186103000Y-97123000D01*
X186103000Y-97103000D01*
X186357000Y-97103000D01*
X186357000Y-97123000D01*
X187550155Y-97123000D01*
X187671476Y-96893110D01*
X187501645Y-96483076D01*
X187111358Y-96054817D01*
X186686053Y-95855083D01*
X186725200Y-95847296D01*
X187124565Y-95580448D01*
X187391413Y-95181083D01*
X187485117Y-94710000D01*
X187391413Y-94238917D01*
X187124565Y-93839552D01*
X186725200Y-93572704D01*
X186254117Y-93479000D01*
X186205883Y-93479000D01*
X185734800Y-93572704D01*
X185335435Y-93839552D01*
X185068587Y-94238917D01*
X184974883Y-94710000D01*
X185068587Y-95181083D01*
X185335435Y-95580448D01*
X185734800Y-95847296D01*
X185773947Y-95855083D01*
X185348642Y-96054817D01*
X184958355Y-96483076D01*
X184788524Y-96893110D01*
X169124011Y-96893110D01*
X169124011Y-96554197D01*
X169158741Y-96588987D01*
X169408946Y-96692882D01*
X169679865Y-96693118D01*
X169801161Y-96643000D01*
X170392981Y-96643000D01*
X170402546Y-96657865D01*
X170529866Y-96744859D01*
X170681000Y-96775464D01*
X171481000Y-96775464D01*
X171622190Y-96748897D01*
X171751865Y-96665454D01*
X171838859Y-96538134D01*
X171869464Y-96387000D01*
X171869464Y-95637000D01*
X171842897Y-95495810D01*
X171759454Y-95366135D01*
X171632134Y-95279141D01*
X171481000Y-95248536D01*
X170681000Y-95248536D01*
X170539810Y-95275103D01*
X170410135Y-95358546D01*
X170394793Y-95381000D01*
X170176000Y-95381000D01*
X170176000Y-94949142D01*
X170209190Y-94942897D01*
X170338865Y-94859454D01*
X170425859Y-94732134D01*
X170456464Y-94581000D01*
X170456464Y-94331000D01*
X170429897Y-94189810D01*
X170346454Y-94060135D01*
X170219134Y-93973141D01*
X170136928Y-93956494D01*
X170209190Y-93942897D01*
X170338865Y-93859454D01*
X170425859Y-93732134D01*
X170456464Y-93581000D01*
X170456464Y-93437000D01*
X178210720Y-93437000D01*
X178394791Y-93400386D01*
X178550838Y-93296118D01*
X179676956Y-92170000D01*
X184974883Y-92170000D01*
X185068587Y-92641083D01*
X185335435Y-93040448D01*
X185734800Y-93307296D01*
X186205883Y-93401000D01*
X186254117Y-93401000D01*
X186725200Y-93307296D01*
X187124565Y-93040448D01*
X187391413Y-92641083D01*
X187485117Y-92170000D01*
X187391413Y-91698917D01*
X187124565Y-91299552D01*
X186725200Y-91032704D01*
X186254117Y-90939000D01*
X186205883Y-90939000D01*
X185734800Y-91032704D01*
X185335435Y-91299552D01*
X185068587Y-91698917D01*
X184974883Y-92170000D01*
X179676956Y-92170000D01*
X182216956Y-89630000D01*
X184974883Y-89630000D01*
X185068587Y-90101083D01*
X185335435Y-90500448D01*
X185734800Y-90767296D01*
X186205883Y-90861000D01*
X186254117Y-90861000D01*
X186725200Y-90767296D01*
X187124565Y-90500448D01*
X187391413Y-90101083D01*
X187485117Y-89630000D01*
X187391413Y-89158917D01*
X187124565Y-88759552D01*
X186725200Y-88492704D01*
X186254117Y-88399000D01*
X186205883Y-88399000D01*
X185734800Y-88492704D01*
X185335435Y-88759552D01*
X185068587Y-89158917D01*
X184974883Y-89630000D01*
X182216956Y-89630000D01*
X183760681Y-88086276D01*
X183896309Y-88086394D01*
X184146696Y-87982937D01*
X184338431Y-87791535D01*
X184442326Y-87541330D01*
X184442562Y-87270411D01*
X184339105Y-87020024D01*
X184147703Y-86828289D01*
X183897498Y-86724394D01*
X183626579Y-86724158D01*
X183376192Y-86827615D01*
X183184457Y-87019017D01*
X183080562Y-87269222D01*
X183080443Y-87406040D01*
X178011484Y-92475000D01*
X174426222Y-92475000D01*
X174439987Y-92461259D01*
X174543882Y-92211054D01*
X174544118Y-91940135D01*
X174440661Y-91689748D01*
X174249259Y-91498013D01*
X173999054Y-91394118D01*
X173728135Y-91393882D01*
X173477748Y-91497339D01*
X173464021Y-91511042D01*
X173458897Y-91483810D01*
X173375454Y-91354135D01*
X173248134Y-91267141D01*
X173097000Y-91236536D01*
X172597000Y-91236536D01*
X172455810Y-91263103D01*
X172326135Y-91346546D01*
X172239141Y-91473866D01*
X172208536Y-91625000D01*
X172208536Y-92475000D01*
X171985464Y-92475000D01*
X171985464Y-91625000D01*
X171958897Y-91483810D01*
X171875454Y-91354135D01*
X171748134Y-91267141D01*
X171597000Y-91236536D01*
X171277999Y-91236536D01*
X171277999Y-91135464D01*
X171597000Y-91135464D01*
X171738190Y-91108897D01*
X171867865Y-91025454D01*
X171954859Y-90898134D01*
X171985464Y-90747000D01*
X171985464Y-89847000D01*
X172208536Y-89847000D01*
X172208536Y-90747000D01*
X172235103Y-90888190D01*
X172318546Y-91017865D01*
X172445866Y-91104859D01*
X172597000Y-91135464D01*
X173097000Y-91135464D01*
X173238190Y-91108897D01*
X173367865Y-91025454D01*
X173454859Y-90898134D01*
X173462614Y-90859836D01*
X173476741Y-90873987D01*
X173726946Y-90977882D01*
X173997865Y-90978118D01*
X174248252Y-90874661D01*
X174439987Y-90683259D01*
X174543882Y-90433054D01*
X174544118Y-90162135D01*
X174440661Y-89911748D01*
X174249259Y-89720013D01*
X173999054Y-89616118D01*
X173728135Y-89615882D01*
X173477748Y-89719339D01*
X173464021Y-89733042D01*
X173458897Y-89705810D01*
X173375454Y-89576135D01*
X173248134Y-89489141D01*
X173097000Y-89458536D01*
X172597000Y-89458536D01*
X172455810Y-89485103D01*
X172326135Y-89568546D01*
X172239141Y-89695866D01*
X172208536Y-89847000D01*
X171985464Y-89847000D01*
X171958897Y-89705810D01*
X171875454Y-89576135D01*
X171748134Y-89489141D01*
X171597000Y-89458536D01*
X171388772Y-89458536D01*
X171287700Y-89357464D01*
X171597000Y-89357464D01*
X171738190Y-89330897D01*
X171867865Y-89247454D01*
X171954859Y-89120134D01*
X171985464Y-88969000D01*
X171985464Y-88069000D01*
X172208536Y-88069000D01*
X172208536Y-88969000D01*
X172235103Y-89110190D01*
X172318546Y-89239865D01*
X172445866Y-89326859D01*
X172597000Y-89357464D01*
X173097000Y-89357464D01*
X173238190Y-89330897D01*
X173367865Y-89247454D01*
X173454859Y-89120134D01*
X173462614Y-89081836D01*
X173476741Y-89095987D01*
X173726946Y-89199882D01*
X173997865Y-89200118D01*
X174248252Y-89096661D01*
X174439987Y-88905259D01*
X174525028Y-88700458D01*
X178092174Y-88700458D01*
X178195631Y-88950845D01*
X178387033Y-89142580D01*
X178637238Y-89246475D01*
X178908157Y-89246711D01*
X179158544Y-89143254D01*
X179350279Y-88951852D01*
X179454174Y-88701647D01*
X179454410Y-88430728D01*
X179350953Y-88180341D01*
X179159551Y-87988606D01*
X178909346Y-87884711D01*
X178638427Y-87884475D01*
X178388040Y-87987932D01*
X178196305Y-88179334D01*
X178092410Y-88429539D01*
X178092174Y-88700458D01*
X174525028Y-88700458D01*
X174543882Y-88655054D01*
X174544118Y-88384135D01*
X174440661Y-88133748D01*
X174249259Y-87942013D01*
X173999054Y-87838118D01*
X173728135Y-87837882D01*
X173477748Y-87941339D01*
X173464021Y-87955042D01*
X173458897Y-87927810D01*
X173375454Y-87798135D01*
X173248134Y-87711141D01*
X173097000Y-87680536D01*
X172597000Y-87680536D01*
X172455810Y-87707103D01*
X172326135Y-87790546D01*
X172239141Y-87917866D01*
X172208536Y-88069000D01*
X171985464Y-88069000D01*
X171958897Y-87927810D01*
X171875454Y-87798135D01*
X171748134Y-87711141D01*
X171597000Y-87680536D01*
X171097000Y-87680536D01*
X170955810Y-87707103D01*
X170826135Y-87790546D01*
X170739141Y-87917866D01*
X170708536Y-88069000D01*
X170708536Y-88475000D01*
X170221855Y-88475000D01*
X170219134Y-88473141D01*
X170068000Y-88442536D01*
X168768000Y-88442536D01*
X168626810Y-88469103D01*
X168497135Y-88552546D01*
X168410141Y-88679866D01*
X168379536Y-88831000D01*
X168379536Y-89081000D01*
X168403920Y-89210588D01*
X168379536Y-89331000D01*
X168379536Y-89581000D01*
X168403920Y-89710588D01*
X168379536Y-89831000D01*
X168379536Y-90081000D01*
X168403920Y-90210588D01*
X168379536Y-90331000D01*
X168379536Y-90581000D01*
X168403920Y-90710588D01*
X168379536Y-90831000D01*
X168379536Y-91014549D01*
X168227882Y-91115882D01*
X167461881Y-91881883D01*
X167357613Y-92037930D01*
X167320999Y-92222001D01*
X167320999Y-94155001D01*
X167350737Y-94304504D01*
X167357613Y-94339072D01*
X167461881Y-94495119D01*
X167591761Y-94624999D01*
X164418001Y-94624999D01*
X164233930Y-94661613D01*
X164198931Y-94684999D01*
X164077883Y-94765880D01*
X163997280Y-94846484D01*
X163899840Y-94610660D01*
X163708438Y-94418925D01*
X163458233Y-94315030D01*
X163187314Y-94314794D01*
X162936927Y-94418251D01*
X162745192Y-94609653D01*
X162641297Y-94859858D01*
X162641105Y-95080235D01*
X162594134Y-95048141D01*
X162443000Y-95017536D01*
X162234203Y-95017536D01*
X162377154Y-94874833D01*
X162481049Y-94624628D01*
X162481285Y-94353709D01*
X162377828Y-94103322D01*
X162186426Y-93911587D01*
X161936221Y-93807692D01*
X161752048Y-93807532D01*
X161732080Y-93701412D01*
X161756464Y-93581000D01*
X161756464Y-93331000D01*
X161732080Y-93201412D01*
X161756464Y-93081000D01*
X161756464Y-92831000D01*
X161732080Y-92701412D01*
X161756464Y-92581000D01*
X161756464Y-92331000D01*
X161732080Y-92201412D01*
X161756464Y-92081000D01*
X161756464Y-91831000D01*
X161732080Y-91701412D01*
X161756464Y-91581000D01*
X161756464Y-91331000D01*
X161732080Y-91201412D01*
X161756464Y-91081000D01*
X161756464Y-90831000D01*
X161732080Y-90701412D01*
X161756464Y-90581000D01*
X161756464Y-90331000D01*
X161732080Y-90201412D01*
X161756464Y-90081000D01*
X161756464Y-89831000D01*
X161729897Y-89689810D01*
X161646454Y-89560135D01*
X161519134Y-89473141D01*
X161436928Y-89456494D01*
X161509190Y-89442897D01*
X161638865Y-89359454D01*
X161725859Y-89232134D01*
X161756464Y-89081000D01*
X161756464Y-88831000D01*
X161729897Y-88689810D01*
X161646454Y-88560135D01*
X161519134Y-88473141D01*
X161368000Y-88442536D01*
X161286000Y-88442536D01*
X161286000Y-87880000D01*
X161804536Y-87880000D01*
X161804536Y-88006000D01*
X161831103Y-88147190D01*
X161914546Y-88276865D01*
X162041866Y-88363859D01*
X162193000Y-88394464D01*
X162443000Y-88394464D01*
X162572588Y-88370080D01*
X162693000Y-88394464D01*
X162943000Y-88394464D01*
X163072588Y-88370080D01*
X163193000Y-88394464D01*
X163443000Y-88394464D01*
X163572588Y-88370080D01*
X163693000Y-88394464D01*
X163943000Y-88394464D01*
X164072588Y-88370080D01*
X164193000Y-88394464D01*
X164443000Y-88394464D01*
X164572588Y-88370080D01*
X164693000Y-88394464D01*
X164837000Y-88394464D01*
X164837000Y-88762921D01*
X164741013Y-88858741D01*
X164637118Y-89108946D01*
X164636882Y-89379865D01*
X164740339Y-89630252D01*
X164931741Y-89821987D01*
X165181946Y-89925882D01*
X165452865Y-89926118D01*
X165703252Y-89822661D01*
X165894987Y-89631259D01*
X165998882Y-89381054D01*
X165999118Y-89110135D01*
X165895661Y-88859748D01*
X165799000Y-88762919D01*
X165799000Y-88159855D01*
X165800859Y-88157134D01*
X165817506Y-88074928D01*
X165831103Y-88147190D01*
X165914546Y-88276865D01*
X166041866Y-88363859D01*
X166193000Y-88394464D01*
X166443000Y-88394464D01*
X166572588Y-88370080D01*
X166693000Y-88394464D01*
X166943000Y-88394464D01*
X167072588Y-88370080D01*
X167193000Y-88394464D01*
X167443000Y-88394464D01*
X167572588Y-88370080D01*
X167693000Y-88394464D01*
X167943000Y-88394464D01*
X168084190Y-88367897D01*
X168213865Y-88284454D01*
X168300859Y-88157134D01*
X168331464Y-88006000D01*
X168331464Y-87232387D01*
X170716324Y-87232387D01*
X170735103Y-87332190D01*
X170818546Y-87461865D01*
X170945866Y-87548859D01*
X171097000Y-87579464D01*
X171597000Y-87579464D01*
X171738190Y-87552897D01*
X171867865Y-87469454D01*
X171954859Y-87342134D01*
X171985464Y-87191000D01*
X171985464Y-86291000D01*
X172208536Y-86291000D01*
X172208536Y-87191000D01*
X172235103Y-87332190D01*
X172318546Y-87461865D01*
X172445866Y-87548859D01*
X172597000Y-87579464D01*
X173097000Y-87579464D01*
X173238190Y-87552897D01*
X173367865Y-87469454D01*
X173454859Y-87342134D01*
X173462614Y-87303836D01*
X173476741Y-87317987D01*
X173726946Y-87421882D01*
X173997865Y-87422118D01*
X174248252Y-87318661D01*
X174439987Y-87127259D01*
X174543882Y-86877054D01*
X174544118Y-86606135D01*
X174440661Y-86355748D01*
X174325115Y-86240000D01*
X184991536Y-86240000D01*
X184991536Y-87940000D01*
X185018103Y-88081190D01*
X185101546Y-88210865D01*
X185228866Y-88297859D01*
X185380000Y-88328464D01*
X187080000Y-88328464D01*
X187221190Y-88301897D01*
X187350865Y-88218454D01*
X187437859Y-88091134D01*
X187468464Y-87940000D01*
X187468464Y-86240000D01*
X187441897Y-86098810D01*
X187358454Y-85969135D01*
X187231134Y-85882141D01*
X187080000Y-85851536D01*
X185380000Y-85851536D01*
X185238810Y-85878103D01*
X185109135Y-85961546D01*
X185022141Y-86088866D01*
X184991536Y-86240000D01*
X174325115Y-86240000D01*
X174249259Y-86164013D01*
X173999054Y-86060118D01*
X173728135Y-86059882D01*
X173477748Y-86163339D01*
X173464021Y-86177042D01*
X173458897Y-86149810D01*
X173375454Y-86020135D01*
X173248134Y-85933141D01*
X173097000Y-85902536D01*
X172597000Y-85902536D01*
X172455810Y-85929103D01*
X172326135Y-86012546D01*
X172239141Y-86139866D01*
X172208536Y-86291000D01*
X171985464Y-86291000D01*
X171958897Y-86149810D01*
X171875454Y-86020135D01*
X171748134Y-85933141D01*
X171597000Y-85902536D01*
X171097000Y-85902536D01*
X170955810Y-85929103D01*
X170826135Y-86012546D01*
X170739141Y-86139866D01*
X170712710Y-86270387D01*
X168233849Y-86270387D01*
X169060237Y-85444000D01*
X170714369Y-85444000D01*
X170735103Y-85554190D01*
X170818546Y-85683865D01*
X170945866Y-85770859D01*
X171097000Y-85801464D01*
X171597000Y-85801464D01*
X171738190Y-85774897D01*
X171867865Y-85691454D01*
X171954859Y-85564134D01*
X171985464Y-85413000D01*
X171985464Y-84513000D01*
X172208536Y-84513000D01*
X172208536Y-85413000D01*
X172235103Y-85554190D01*
X172318546Y-85683865D01*
X172445866Y-85770859D01*
X172597000Y-85801464D01*
X173097000Y-85801464D01*
X173238190Y-85774897D01*
X173367865Y-85691454D01*
X173454859Y-85564134D01*
X173462614Y-85525836D01*
X173476741Y-85539987D01*
X173726946Y-85643882D01*
X173997865Y-85644118D01*
X174248252Y-85540661D01*
X174439987Y-85349259D01*
X174543882Y-85099054D01*
X174544118Y-84828135D01*
X174440661Y-84577748D01*
X174249259Y-84386013D01*
X173999054Y-84282118D01*
X173728135Y-84281882D01*
X173477748Y-84385339D01*
X173464021Y-84399042D01*
X173458897Y-84371810D01*
X173375454Y-84242135D01*
X173248134Y-84155141D01*
X173097000Y-84124536D01*
X172597000Y-84124536D01*
X172455810Y-84151103D01*
X172326135Y-84234546D01*
X172239141Y-84361866D01*
X172208536Y-84513000D01*
X171985464Y-84513000D01*
X171958897Y-84371810D01*
X171875454Y-84242135D01*
X171748134Y-84155141D01*
X171597000Y-84124536D01*
X171097000Y-84124536D01*
X170955810Y-84151103D01*
X170826135Y-84234546D01*
X170739141Y-84361866D01*
X170714814Y-84482000D01*
X168861000Y-84482000D01*
X168676930Y-84518613D01*
X168520882Y-84622881D01*
X168121000Y-85022763D01*
X168121000Y-82397079D01*
X168216987Y-82301259D01*
X168320882Y-82051054D01*
X168321118Y-81780135D01*
X168217661Y-81529748D01*
X168026259Y-81338013D01*
X167776054Y-81234118D01*
X167505135Y-81233882D01*
X167254748Y-81337339D01*
X167063013Y-81528741D01*
X166959118Y-81778946D01*
X166958882Y-82049865D01*
X167062339Y-82300252D01*
X167159000Y-82397081D01*
X167159000Y-85270765D01*
X167133464Y-85296301D01*
X167133464Y-84678000D01*
X167106897Y-84536810D01*
X167023454Y-84407135D01*
X166896134Y-84320141D01*
X166745000Y-84289536D01*
X165995000Y-84289536D01*
X165853810Y-84316103D01*
X165724135Y-84399546D01*
X165637141Y-84526866D01*
X165606536Y-84678000D01*
X165606536Y-85478000D01*
X165633103Y-85619190D01*
X165691567Y-85710047D01*
X165689118Y-85715946D01*
X165688963Y-85894137D01*
X165687001Y-85904000D01*
X165688946Y-85913777D01*
X165688882Y-85986865D01*
X165717038Y-86055007D01*
X165735032Y-86145473D01*
X165785828Y-86221495D01*
X165792339Y-86237252D01*
X165804491Y-86249425D01*
X165837000Y-86298078D01*
X165837000Y-86552145D01*
X165835141Y-86554866D01*
X165818494Y-86637072D01*
X165804897Y-86564810D01*
X165721454Y-86435135D01*
X165594134Y-86348141D01*
X165443000Y-86317536D01*
X165299000Y-86317536D01*
X165299000Y-85333344D01*
X165314859Y-85310134D01*
X165345464Y-85159000D01*
X165345464Y-84259000D01*
X165318897Y-84117810D01*
X165235454Y-83988135D01*
X165108134Y-83901141D01*
X164957000Y-83870536D01*
X164573211Y-83870536D01*
X164602865Y-83851454D01*
X164689859Y-83724134D01*
X164720464Y-83573000D01*
X164720464Y-82773000D01*
X164693897Y-82631810D01*
X164610454Y-82502135D01*
X164483134Y-82415141D01*
X164332000Y-82384536D01*
X163582000Y-82384536D01*
X163440810Y-82411103D01*
X163311135Y-82494546D01*
X163308464Y-82498455D01*
X163308464Y-82419000D01*
X163281897Y-82277810D01*
X163198454Y-82148135D01*
X163071134Y-82061141D01*
X162920000Y-82030536D01*
X161551774Y-82030536D01*
X161108464Y-81587226D01*
X161108464Y-80745000D01*
X163200481Y-80745000D01*
X163207103Y-80780190D01*
X163290546Y-80909865D01*
X163417866Y-80996859D01*
X163569000Y-81027464D01*
X164369000Y-81027464D01*
X164510190Y-81000897D01*
X164639865Y-80917454D01*
X164726859Y-80790134D01*
X164757464Y-80639000D01*
X164757464Y-79890000D01*
X177371536Y-79890000D01*
X177371536Y-81590000D01*
X177398103Y-81731190D01*
X177481546Y-81860865D01*
X177608866Y-81947859D01*
X177760000Y-81978464D01*
X179460000Y-81978464D01*
X179601190Y-81951897D01*
X179730865Y-81868454D01*
X179817859Y-81741134D01*
X179848464Y-81590000D01*
X179848464Y-80715883D01*
X179919000Y-80715883D01*
X179919000Y-80764117D01*
X180012704Y-81235200D01*
X180279552Y-81634565D01*
X180678917Y-81901413D01*
X181150000Y-81995117D01*
X181621083Y-81901413D01*
X182020448Y-81634565D01*
X182287296Y-81235200D01*
X182295083Y-81196053D01*
X182494817Y-81621358D01*
X182923076Y-82011645D01*
X183333110Y-82181476D01*
X183563000Y-82060155D01*
X183563000Y-80867000D01*
X183817000Y-80867000D01*
X183817000Y-82060155D01*
X184046890Y-82181476D01*
X184456924Y-82011645D01*
X184885183Y-81621358D01*
X185131486Y-81096892D01*
X185010819Y-80867000D01*
X183817000Y-80867000D01*
X183563000Y-80867000D01*
X183543000Y-80867000D01*
X183543000Y-80613000D01*
X183563000Y-80613000D01*
X183563000Y-79419845D01*
X183817000Y-79419845D01*
X183817000Y-80613000D01*
X185010819Y-80613000D01*
X185131486Y-80383108D01*
X184885183Y-79858642D01*
X184456924Y-79468355D01*
X184046890Y-79298524D01*
X183817000Y-79419845D01*
X183563000Y-79419845D01*
X183333110Y-79298524D01*
X182923076Y-79468355D01*
X182494817Y-79858642D01*
X182295083Y-80283947D01*
X182287296Y-80244800D01*
X182020448Y-79845435D01*
X181621083Y-79578587D01*
X181150000Y-79484883D01*
X180678917Y-79578587D01*
X180279552Y-79845435D01*
X180012704Y-80244800D01*
X179919000Y-80715883D01*
X179848464Y-80715883D01*
X179848464Y-79890000D01*
X179821897Y-79748810D01*
X179738454Y-79619135D01*
X179611134Y-79532141D01*
X179460000Y-79501536D01*
X177760000Y-79501536D01*
X177618810Y-79528103D01*
X177489135Y-79611546D01*
X177402141Y-79738866D01*
X177371536Y-79890000D01*
X164757464Y-79890000D01*
X164757464Y-79889000D01*
X164730897Y-79747810D01*
X164647454Y-79618135D01*
X164520134Y-79531141D01*
X164369000Y-79500536D01*
X163569000Y-79500536D01*
X163427810Y-79527103D01*
X163298135Y-79610546D01*
X163211141Y-79737866D01*
X163202001Y-79783000D01*
X160275000Y-79783000D01*
X160090929Y-79819614D01*
X159934881Y-79923882D01*
X159679882Y-80178882D01*
X159578549Y-80330536D01*
X159320000Y-80330536D01*
X159178810Y-80357103D01*
X159049135Y-80440546D01*
X158962141Y-80567866D01*
X158931536Y-80719000D01*
X158931536Y-81919000D01*
X158958103Y-82060190D01*
X159041546Y-82189865D01*
X159168866Y-82276859D01*
X159320000Y-82307464D01*
X160468230Y-82307464D01*
X160738999Y-82578233D01*
X160738999Y-83859001D01*
X160768530Y-84007464D01*
X160775613Y-84043072D01*
X160879881Y-84199119D01*
X162139717Y-85458956D01*
X160541193Y-85458956D01*
X160380464Y-85298227D01*
X160380464Y-84190000D01*
X160353897Y-84048810D01*
X160270454Y-83919135D01*
X160143134Y-83832141D01*
X159992000Y-83801536D01*
X158992000Y-83801536D01*
X158921050Y-83814886D01*
X158974859Y-83736134D01*
X159005464Y-83585000D01*
X159005464Y-82785000D01*
X158978897Y-82643810D01*
X158895454Y-82514135D01*
X158768134Y-82427141D01*
X158617000Y-82396536D01*
X157867000Y-82396536D01*
X157725810Y-82423103D01*
X157596135Y-82506546D01*
X157543315Y-82583851D01*
X157498454Y-82514135D01*
X157371134Y-82427141D01*
X157220000Y-82396536D01*
X156470000Y-82396536D01*
X156328810Y-82423103D01*
X156301464Y-82440700D01*
X156301464Y-80561000D01*
X156274897Y-80419810D01*
X156191454Y-80290135D01*
X156064134Y-80203141D01*
X155913000Y-80172536D01*
X153713000Y-80172536D01*
X153571810Y-80199103D01*
X153442135Y-80282546D01*
X153355141Y-80409866D01*
X153324536Y-80561000D01*
X153324536Y-82761000D01*
X153351103Y-82902190D01*
X153434546Y-83031865D01*
X153561866Y-83118859D01*
X153713000Y-83149464D01*
X155913000Y-83149464D01*
X156054190Y-83122897D01*
X156081536Y-83105300D01*
X156081536Y-83585000D01*
X156108103Y-83726190D01*
X156191546Y-83855865D01*
X156247865Y-83894346D01*
X156221135Y-83911546D01*
X156134141Y-84038866D01*
X156103536Y-84190000D01*
X156103536Y-85990000D01*
X156130103Y-86131190D01*
X156213546Y-86260865D01*
X156340866Y-86347859D01*
X156492000Y-86378464D01*
X157200227Y-86378464D01*
X157506235Y-86684472D01*
X157590836Y-86741000D01*
X157662282Y-86788739D01*
X157846353Y-86825353D01*
X158340387Y-86825353D01*
X158330536Y-86874000D01*
X158330536Y-87624000D01*
X158357103Y-87765190D01*
X158440546Y-87894865D01*
X158567866Y-87981859D01*
X158719000Y-88012464D01*
X159519000Y-88012464D01*
X159660190Y-87985897D01*
X159789865Y-87902454D01*
X159805207Y-87880000D01*
X160024000Y-87880000D01*
X160024000Y-88450815D01*
X159926810Y-88469103D01*
X159797135Y-88552546D01*
X159710141Y-88679866D01*
X159679536Y-88831000D01*
X159679536Y-89081000D01*
X159706103Y-89222190D01*
X159789546Y-89351865D01*
X159916866Y-89438859D01*
X159999072Y-89455506D01*
X159926810Y-89469103D01*
X159871036Y-89504993D01*
X159770404Y-89404186D01*
X159520199Y-89300291D01*
X159249280Y-89300055D01*
X158998893Y-89403512D01*
X158807158Y-89594914D01*
X158703263Y-89845119D01*
X158703027Y-90116038D01*
X158806484Y-90366425D01*
X158914870Y-90475000D01*
X152654688Y-90475000D01*
X150512553Y-88332865D01*
X154258882Y-88332865D01*
X154362339Y-88583252D01*
X154553741Y-88774987D01*
X154803946Y-88878882D01*
X155074865Y-88879118D01*
X155325252Y-88775661D01*
X155516987Y-88584259D01*
X155620882Y-88334054D01*
X155621118Y-88063135D01*
X155517661Y-87812748D01*
X155326259Y-87621013D01*
X155076054Y-87517118D01*
X154805135Y-87516882D01*
X154554748Y-87620339D01*
X154363013Y-87811741D01*
X154259118Y-88061946D01*
X154258882Y-88332865D01*
X150512553Y-88332865D01*
X150495533Y-88315845D01*
X150583000Y-87876117D01*
X150583000Y-87827883D01*
X150489296Y-87356800D01*
X150222448Y-86957435D01*
X149823083Y-86690587D01*
X149352000Y-86596883D01*
X148880917Y-86690587D01*
X148481552Y-86957435D01*
X148214704Y-87356800D01*
X148121000Y-87827883D01*
X148121000Y-87876117D01*
X148214704Y-88347200D01*
X148481552Y-88746565D01*
X148880917Y-89013413D01*
X149352000Y-89107117D01*
X149823083Y-89013413D01*
X149828805Y-89009589D01*
X152115334Y-91296118D01*
X152271381Y-91400386D01*
X152455452Y-91437000D01*
X159679536Y-91437000D01*
X159679536Y-91581000D01*
X159703920Y-91710588D01*
X159679536Y-91831000D01*
X159679536Y-92081000D01*
X159703920Y-92210588D01*
X159679536Y-92331000D01*
X159679536Y-92475000D01*
X134558000Y-92475000D01*
X134373929Y-92511614D01*
X134353896Y-92525000D01*
X134217882Y-92615881D01*
X133589983Y-93243781D01*
X133485134Y-93172141D01*
X133334000Y-93141536D01*
X132834000Y-93141536D01*
X132692810Y-93168103D01*
X132563135Y-93251546D01*
X132476141Y-93378866D01*
X132445536Y-93530000D01*
X132445536Y-94430000D01*
X132472103Y-94571190D01*
X132555546Y-94700865D01*
X132682866Y-94787859D01*
X132834000Y-94818464D01*
X133334000Y-94818464D01*
X133475190Y-94791897D01*
X133604865Y-94708454D01*
X133691859Y-94581134D01*
X133722464Y-94430000D01*
X133722464Y-94421451D01*
X133874118Y-94320118D01*
X134757237Y-93437000D01*
X136302763Y-93437000D01*
X133042228Y-96697536D01*
X132834000Y-96697536D01*
X132692810Y-96724103D01*
X132563135Y-96807546D01*
X132476141Y-96934866D01*
X132445536Y-97086000D01*
X132445536Y-97986000D01*
X132472103Y-98127190D01*
X132555546Y-98256865D01*
X132682866Y-98343859D01*
X132834000Y-98374464D01*
X133334000Y-98374464D01*
X133475190Y-98347897D01*
X133604865Y-98264454D01*
X133691859Y-98137134D01*
X133722464Y-97986000D01*
X133722464Y-97377772D01*
X133873236Y-97227000D01*
X137329536Y-97227000D01*
X137329536Y-97527000D01*
X137356103Y-97668190D01*
X137439546Y-97797865D01*
X137566866Y-97884859D01*
X137718000Y-97915464D01*
X137968000Y-97915464D01*
X138109190Y-97888897D01*
X138157206Y-97858000D01*
X138663581Y-97858000D01*
X138717546Y-97941865D01*
X138844866Y-98028859D01*
X138996000Y-98059464D01*
X139896000Y-98059464D01*
X140037190Y-98032897D01*
X140166865Y-97949454D01*
X140253859Y-97822134D01*
X140284464Y-97671000D01*
X140284464Y-97171000D01*
X140257897Y-97029810D01*
X140174454Y-96900135D01*
X140058444Y-96820869D01*
X140126882Y-96656054D01*
X140126883Y-96654865D01*
X140415882Y-96654865D01*
X140519339Y-96905252D01*
X140616000Y-97002081D01*
X140616000Y-97200018D01*
X140610536Y-97227000D01*
X140610536Y-97527000D01*
X140637103Y-97668190D01*
X140720546Y-97797865D01*
X140847866Y-97884859D01*
X140999000Y-97915464D01*
X141249000Y-97915464D01*
X141390190Y-97888897D01*
X141519865Y-97805454D01*
X141606859Y-97678134D01*
X141637464Y-97527000D01*
X141637464Y-97227000D01*
X141610897Y-97085810D01*
X141578000Y-97034686D01*
X141578000Y-97002079D01*
X141673987Y-96906259D01*
X141777882Y-96656054D01*
X141778118Y-96385135D01*
X141674661Y-96134748D01*
X141483259Y-95943013D01*
X141233054Y-95839118D01*
X140962135Y-95838882D01*
X140711748Y-95942339D01*
X140520013Y-96133741D01*
X140416118Y-96383946D01*
X140415882Y-96654865D01*
X140126883Y-96654865D01*
X140127118Y-96385135D01*
X140023661Y-96134748D01*
X139832259Y-95943013D01*
X139582054Y-95839118D01*
X139311135Y-95838882D01*
X139060748Y-95942339D01*
X138869013Y-96133741D01*
X138765118Y-96383946D01*
X138764882Y-96654865D01*
X138834114Y-96822420D01*
X138725135Y-96892546D01*
X138722775Y-96896000D01*
X138158443Y-96896000D01*
X138119134Y-96869141D01*
X137968000Y-96838536D01*
X137718000Y-96838536D01*
X137576810Y-96865103D01*
X137447135Y-96948546D01*
X137360141Y-97075866D01*
X137329536Y-97227000D01*
X133873236Y-97227000D01*
X137163237Y-93937000D01*
X159679536Y-93937000D01*
X159679536Y-94081000D01*
X159703920Y-94210588D01*
X159679536Y-94331000D01*
X159679536Y-94581000D01*
X159706103Y-94722190D01*
X159789546Y-94851865D01*
X159916866Y-94938859D01*
X160068000Y-94969464D01*
X161317978Y-94969464D01*
X161413908Y-95065561D01*
X161664113Y-95169456D01*
X161893363Y-95169656D01*
X161835141Y-95254866D01*
X161809599Y-95381000D01*
X160911182Y-95381000D01*
X160791054Y-95331118D01*
X160520135Y-95330882D01*
X160269748Y-95434339D01*
X160078013Y-95625741D01*
X159974118Y-95875946D01*
X159973882Y-96146865D01*
X160024000Y-96268161D01*
X160024000Y-96986981D01*
X160009135Y-96996546D01*
X159922141Y-97123866D01*
X159891536Y-97275000D01*
X159891536Y-98075000D01*
X159918103Y-98216190D01*
X160001546Y-98345865D01*
X160128866Y-98432859D01*
X160280000Y-98463464D01*
X161030000Y-98463464D01*
X161171190Y-98436897D01*
X161300865Y-98353454D01*
X161387859Y-98226134D01*
X161418464Y-98075000D01*
X161418464Y-97275000D01*
X161391897Y-97133810D01*
X161308454Y-97004135D01*
X161286000Y-96988793D01*
X161286000Y-96643000D01*
X161804536Y-96643000D01*
X161804536Y-96706000D01*
X161831103Y-96847190D01*
X161914546Y-96976865D01*
X162041866Y-97063859D01*
X162193000Y-97094464D01*
X162443000Y-97094464D01*
X162584190Y-97067897D01*
X162713865Y-96984454D01*
X162800859Y-96857134D01*
X162817506Y-96774928D01*
X162831103Y-96847190D01*
X162914546Y-96976865D01*
X163041866Y-97063859D01*
X163193000Y-97094464D01*
X163337000Y-97094464D01*
X163337000Y-99587973D01*
X161781946Y-101143027D01*
X136213295Y-101143027D01*
X136029224Y-101179641D01*
X135873176Y-101283909D01*
X133790087Y-103366999D01*
X122593999Y-103366999D01*
X122409928Y-103403613D01*
X122253880Y-103507881D01*
X121741881Y-104019881D01*
X121637613Y-104175928D01*
X121600999Y-104359999D01*
X103826814Y-104359999D01*
X103828059Y-104357003D01*
X103828295Y-104086084D01*
X103724838Y-103835697D01*
X103533436Y-103643962D01*
X103283231Y-103540067D01*
X103012312Y-103539831D01*
X102761925Y-103643288D01*
X102570190Y-103834690D01*
X102466295Y-104084895D01*
X102466059Y-104355814D01*
X95221000Y-104355814D01*
X95221000Y-103254743D01*
X103384599Y-103254743D01*
X103488056Y-103505130D01*
X103679458Y-103696865D01*
X103929663Y-103800760D01*
X104200582Y-103800996D01*
X104450969Y-103697539D01*
X104642704Y-103506137D01*
X104746599Y-103255932D01*
X104746835Y-102985013D01*
X104643378Y-102734626D01*
X104451976Y-102542891D01*
X104201771Y-102438996D01*
X103930852Y-102438760D01*
X103680465Y-102542217D01*
X103488730Y-102733619D01*
X103384835Y-102983824D01*
X103384599Y-103254743D01*
X95221000Y-103254743D01*
X95221000Y-102150814D01*
X104358433Y-102150814D01*
X104461890Y-102401201D01*
X104653292Y-102592936D01*
X104903497Y-102696831D01*
X105174416Y-102697067D01*
X105424803Y-102593610D01*
X105616538Y-102402208D01*
X105710191Y-102176666D01*
X121904445Y-102176666D01*
X122038287Y-102500588D01*
X122285900Y-102748633D01*
X122609587Y-102883040D01*
X122960071Y-102883346D01*
X123283993Y-102749504D01*
X123532038Y-102501891D01*
X123666445Y-102178204D01*
X123666751Y-101827720D01*
X123659019Y-101809008D01*
X126501027Y-98967000D01*
X127478777Y-98967000D01*
X127490103Y-99027190D01*
X127573546Y-99156865D01*
X127700866Y-99243859D01*
X127801000Y-99264136D01*
X127801000Y-100216777D01*
X127740810Y-100228103D01*
X127611135Y-100311546D01*
X127524141Y-100438866D01*
X127493536Y-100590000D01*
X127493536Y-101340000D01*
X127520103Y-101481190D01*
X127603546Y-101610865D01*
X127730866Y-101697859D01*
X127882000Y-101728464D01*
X128682000Y-101728464D01*
X128823190Y-101701897D01*
X128952865Y-101618454D01*
X129039859Y-101491134D01*
X129070464Y-101340000D01*
X129070464Y-100590000D01*
X129043897Y-100448810D01*
X128960454Y-100319135D01*
X128833134Y-100232141D01*
X128763000Y-100217939D01*
X128763000Y-99272394D01*
X128893190Y-99247897D01*
X129022865Y-99164454D01*
X129109859Y-99037134D01*
X129140464Y-98886000D01*
X129140464Y-98671000D01*
X138607536Y-98671000D01*
X138607536Y-99171000D01*
X138634103Y-99312190D01*
X138717546Y-99441865D01*
X138792476Y-99493062D01*
X138765118Y-99558946D01*
X138764882Y-99829865D01*
X138868339Y-100080252D01*
X139059741Y-100271987D01*
X139309946Y-100375882D01*
X139580865Y-100376118D01*
X139831252Y-100272661D01*
X140022987Y-100081259D01*
X140126882Y-99831054D01*
X140127118Y-99560135D01*
X140099339Y-99492905D01*
X140166865Y-99449454D01*
X140253859Y-99322134D01*
X140284464Y-99171000D01*
X140284464Y-98671000D01*
X140257897Y-98529810D01*
X140174454Y-98400135D01*
X140047134Y-98313141D01*
X139896000Y-98282536D01*
X138996000Y-98282536D01*
X138854810Y-98309103D01*
X138725135Y-98392546D01*
X138638141Y-98519866D01*
X138607536Y-98671000D01*
X129140464Y-98671000D01*
X129140464Y-98086000D01*
X129113897Y-97944810D01*
X129030454Y-97815135D01*
X128903134Y-97728141D01*
X128752000Y-97697536D01*
X127852000Y-97697536D01*
X127710810Y-97724103D01*
X127581135Y-97807546D01*
X127494141Y-97934866D01*
X127479939Y-98005000D01*
X126301791Y-98005000D01*
X126117720Y-98041614D01*
X125961673Y-98145882D01*
X122978991Y-101128564D01*
X122961609Y-101121346D01*
X122611125Y-101121040D01*
X122287203Y-101254882D01*
X122039158Y-101502495D01*
X121904751Y-101826182D01*
X121904445Y-102176666D01*
X105710191Y-102176666D01*
X105720433Y-102152003D01*
X105720669Y-101881084D01*
X105617212Y-101630697D01*
X105463410Y-101476628D01*
X105622481Y-101317833D01*
X105726376Y-101067628D01*
X105726612Y-100796709D01*
X105623155Y-100546322D01*
X105431753Y-100354587D01*
X105181548Y-100250692D01*
X104910629Y-100250456D01*
X104660242Y-100353913D01*
X104468507Y-100545315D01*
X104364612Y-100795520D01*
X104364376Y-101066439D01*
X104467833Y-101316826D01*
X104621635Y-101470895D01*
X104462564Y-101629690D01*
X104358669Y-101879895D01*
X104358433Y-102150814D01*
X95221000Y-102150814D01*
X95221000Y-98892182D01*
X121847421Y-98892182D01*
X121981263Y-99216104D01*
X122228876Y-99464149D01*
X122552563Y-99598556D01*
X122903047Y-99598862D01*
X123226969Y-99465020D01*
X123475014Y-99217407D01*
X123609421Y-98893720D01*
X123609727Y-98543236D01*
X123601995Y-98524524D01*
X124990519Y-97136000D01*
X129463536Y-97136000D01*
X129463536Y-97936000D01*
X129490103Y-98077190D01*
X129573546Y-98206865D01*
X129700866Y-98293859D01*
X129852000Y-98324464D01*
X130752000Y-98324464D01*
X130893190Y-98297897D01*
X131022865Y-98214454D01*
X131025641Y-98210391D01*
X131055546Y-98256865D01*
X131182866Y-98343859D01*
X131334000Y-98374464D01*
X131834000Y-98374464D01*
X131975190Y-98347897D01*
X132104865Y-98264454D01*
X132191859Y-98137134D01*
X132222464Y-97986000D01*
X132222464Y-97086000D01*
X132195897Y-96944810D01*
X132112454Y-96815135D01*
X131985134Y-96728141D01*
X131834000Y-96697536D01*
X131334000Y-96697536D01*
X131192810Y-96724103D01*
X131063135Y-96807546D01*
X131025908Y-96862029D01*
X130903134Y-96778141D01*
X130752000Y-96747536D01*
X129852000Y-96747536D01*
X129710810Y-96774103D01*
X129581135Y-96857546D01*
X129494141Y-96984866D01*
X129463536Y-97136000D01*
X124990519Y-97136000D01*
X126710520Y-95416000D01*
X127478777Y-95416000D01*
X127490103Y-95476190D01*
X127573546Y-95605865D01*
X127700866Y-95692859D01*
X127852000Y-95723464D01*
X128752000Y-95723464D01*
X128893190Y-95696897D01*
X129022865Y-95613454D01*
X129109859Y-95486134D01*
X129140464Y-95335000D01*
X129140464Y-94535000D01*
X129113897Y-94393810D01*
X129030454Y-94264135D01*
X128903134Y-94177141D01*
X128763000Y-94148764D01*
X128763000Y-93585000D01*
X129463536Y-93585000D01*
X129463536Y-94385000D01*
X129490103Y-94526190D01*
X129573546Y-94655865D01*
X129700866Y-94742859D01*
X129852000Y-94773464D01*
X130752000Y-94773464D01*
X130893190Y-94746897D01*
X131022865Y-94663454D01*
X131027298Y-94656966D01*
X131055546Y-94700865D01*
X131182866Y-94787859D01*
X131334000Y-94818464D01*
X131834000Y-94818464D01*
X131975190Y-94791897D01*
X132104865Y-94708454D01*
X132191859Y-94581134D01*
X132222464Y-94430000D01*
X132222464Y-93530000D01*
X132195897Y-93388810D01*
X132112454Y-93259135D01*
X131985134Y-93172141D01*
X131834000Y-93141536D01*
X131334000Y-93141536D01*
X131192810Y-93168103D01*
X131063135Y-93251546D01*
X131023579Y-93309438D01*
X130903134Y-93227141D01*
X130752000Y-93196536D01*
X129852000Y-93196536D01*
X129710810Y-93223103D01*
X129581135Y-93306546D01*
X129494141Y-93433866D01*
X129463536Y-93585000D01*
X128763000Y-93585000D01*
X128763000Y-93204223D01*
X128823190Y-93192897D01*
X128952865Y-93109454D01*
X129039859Y-92982134D01*
X129070464Y-92831000D01*
X129070464Y-92081000D01*
X129043897Y-91939810D01*
X128960454Y-91810135D01*
X128833134Y-91723141D01*
X128682000Y-91692536D01*
X127882000Y-91692536D01*
X127740810Y-91719103D01*
X127611135Y-91802546D01*
X127524141Y-91929866D01*
X127493536Y-92081000D01*
X127493536Y-92831000D01*
X127520103Y-92972190D01*
X127603546Y-93101865D01*
X127730866Y-93188859D01*
X127801000Y-93203061D01*
X127801000Y-94156132D01*
X127710810Y-94173103D01*
X127581135Y-94256546D01*
X127494141Y-94383866D01*
X127479939Y-94454000D01*
X126511283Y-94454000D01*
X126327212Y-94490614D01*
X126273969Y-94526190D01*
X126171165Y-94594881D01*
X122921967Y-97844080D01*
X122904585Y-97836862D01*
X122554101Y-97836556D01*
X122230179Y-97970398D01*
X121982134Y-98218011D01*
X121847727Y-98541698D01*
X121847421Y-98892182D01*
X95221000Y-98892182D01*
X95221000Y-92435039D01*
X101870096Y-92435039D01*
X101887633Y-92517819D01*
X102157500Y-93010896D01*
X102595517Y-93363166D01*
X103135000Y-93521000D01*
X104285000Y-93521000D01*
X104285000Y-92213000D01*
X101992085Y-92213000D01*
X101870096Y-92435039D01*
X95221000Y-92435039D01*
X95221000Y-87636000D01*
X101856883Y-87636000D01*
X101927751Y-87992278D01*
X102129567Y-88294316D01*
X102341611Y-88436000D01*
X102129567Y-88577684D01*
X101927751Y-88879722D01*
X101856883Y-89236000D01*
X101927751Y-89592278D01*
X102129567Y-89894316D01*
X102431605Y-90096132D01*
X102787883Y-90167000D01*
X102901764Y-90167000D01*
X103385764Y-90651000D01*
X103135000Y-90651000D01*
X102595517Y-90808834D01*
X102157500Y-91161104D01*
X101887633Y-91654181D01*
X101870096Y-91736961D01*
X101992085Y-91959000D01*
X104285000Y-91959000D01*
X104285000Y-91939000D01*
X104539000Y-91939000D01*
X104539000Y-91959000D01*
X104559000Y-91959000D01*
X104559000Y-92213000D01*
X104539000Y-92213000D01*
X104539000Y-93521000D01*
X105689000Y-93521000D01*
X106228483Y-93363166D01*
X106666500Y-93010896D01*
X106936367Y-92517819D01*
X106953904Y-92435039D01*
X106831916Y-92213002D01*
X106842685Y-92213002D01*
X106846866Y-92215859D01*
X106998000Y-92246464D01*
X107498000Y-92246464D01*
X107639190Y-92219897D01*
X107768865Y-92136454D01*
X107855859Y-92009134D01*
X107886464Y-91858000D01*
X107886464Y-90958000D01*
X108109536Y-90958000D01*
X108109536Y-91858000D01*
X108136103Y-91999190D01*
X108219546Y-92128865D01*
X108346866Y-92215859D01*
X108498000Y-92246464D01*
X108998000Y-92246464D01*
X109139190Y-92219897D01*
X109268865Y-92136454D01*
X109355859Y-92009134D01*
X109380186Y-91889000D01*
X110737866Y-91889000D01*
X110802241Y-91953487D01*
X111052446Y-92057382D01*
X111323365Y-92057618D01*
X111573752Y-91954161D01*
X111765487Y-91762759D01*
X111869382Y-91512554D01*
X111869618Y-91241635D01*
X111766161Y-90991248D01*
X111574759Y-90799513D01*
X111324554Y-90695618D01*
X111053635Y-90695382D01*
X110803248Y-90798839D01*
X110674864Y-90927000D01*
X109380631Y-90927000D01*
X109359897Y-90816810D01*
X109276454Y-90687135D01*
X109149134Y-90600141D01*
X108998000Y-90569536D01*
X108498000Y-90569536D01*
X108356810Y-90596103D01*
X108227135Y-90679546D01*
X108140141Y-90806866D01*
X108109536Y-90958000D01*
X107886464Y-90958000D01*
X107859897Y-90816810D01*
X107776454Y-90687135D01*
X107649134Y-90600141D01*
X107498000Y-90569536D01*
X106998000Y-90569536D01*
X106950464Y-90578481D01*
X106950464Y-90517000D01*
X112335073Y-90517000D01*
X112351103Y-90602190D01*
X112434546Y-90731865D01*
X112561866Y-90818859D01*
X112713000Y-90849464D01*
X113213000Y-90849464D01*
X113354190Y-90822897D01*
X113483865Y-90739454D01*
X113570859Y-90612134D01*
X113601464Y-90461000D01*
X113601464Y-89561000D01*
X113824536Y-89561000D01*
X113824536Y-90461000D01*
X113851103Y-90602190D01*
X113934546Y-90731865D01*
X114061866Y-90818859D01*
X114213000Y-90849464D01*
X114713000Y-90849464D01*
X114854190Y-90822897D01*
X114983865Y-90739454D01*
X115070859Y-90612134D01*
X115095186Y-90492000D01*
X115634529Y-90492000D01*
X115753203Y-90610880D01*
X116003408Y-90714775D01*
X116274327Y-90715011D01*
X116524714Y-90611554D01*
X116716449Y-90420152D01*
X116820344Y-90169947D01*
X116820580Y-89899028D01*
X116717123Y-89648641D01*
X116525721Y-89456906D01*
X116275516Y-89353011D01*
X116004597Y-89352775D01*
X115754210Y-89456232D01*
X115680314Y-89530000D01*
X115095631Y-89530000D01*
X115074897Y-89419810D01*
X114991454Y-89290135D01*
X114864134Y-89203141D01*
X114713000Y-89172536D01*
X114213000Y-89172536D01*
X114071810Y-89199103D01*
X113942135Y-89282546D01*
X113855141Y-89409866D01*
X113824536Y-89561000D01*
X113601464Y-89561000D01*
X113574897Y-89419810D01*
X113491454Y-89290135D01*
X113364134Y-89203141D01*
X113213000Y-89172536D01*
X112713000Y-89172536D01*
X112571810Y-89199103D01*
X112442135Y-89282546D01*
X112355141Y-89409866D01*
X112325751Y-89555000D01*
X106950464Y-89555000D01*
X106950464Y-89486000D01*
X106923897Y-89344810D01*
X106840454Y-89215135D01*
X106713134Y-89128141D01*
X106659934Y-89117368D01*
X106694433Y-89094316D01*
X106896249Y-88792278D01*
X106967117Y-88436000D01*
X106896249Y-88079722D01*
X106699275Y-87784931D01*
X106939724Y-87584118D01*
X107155398Y-87172146D01*
X107155803Y-87145744D01*
X107030361Y-86963000D01*
X105839000Y-86963000D01*
X105839000Y-86983000D01*
X105585000Y-86983000D01*
X105585000Y-86963000D01*
X104393639Y-86963000D01*
X104268197Y-87145744D01*
X104268602Y-87172146D01*
X104484276Y-87584118D01*
X104724725Y-87784931D01*
X104527751Y-88079722D01*
X104456883Y-88436000D01*
X104527751Y-88792278D01*
X104729567Y-89094316D01*
X104762427Y-89116272D01*
X104720810Y-89124103D01*
X104591135Y-89207546D01*
X104504141Y-89334866D01*
X104473536Y-89486000D01*
X104473536Y-90378300D01*
X104031562Y-89936326D01*
X104094433Y-89894316D01*
X104296249Y-89592278D01*
X104367117Y-89236000D01*
X104296249Y-88879722D01*
X104094433Y-88577684D01*
X103882389Y-88436000D01*
X104094433Y-88294316D01*
X104296249Y-87992278D01*
X104367117Y-87636000D01*
X104296249Y-87279722D01*
X104094433Y-86977684D01*
X103792395Y-86775868D01*
X103436117Y-86705000D01*
X102787883Y-86705000D01*
X102431605Y-86775868D01*
X102129567Y-86977684D01*
X101927751Y-87279722D01*
X101856883Y-87636000D01*
X95221000Y-87636000D01*
X95221000Y-86526256D01*
X104268197Y-86526256D01*
X104393639Y-86709000D01*
X105585000Y-86709000D01*
X105585000Y-86689000D01*
X105839000Y-86689000D01*
X105839000Y-86709000D01*
X107030361Y-86709000D01*
X107090173Y-86621865D01*
X136986882Y-86621865D01*
X137090339Y-86872252D01*
X137187000Y-86969081D01*
X137187000Y-87048372D01*
X137144641Y-87110366D01*
X137114036Y-87261500D01*
X137114036Y-87511500D01*
X137140603Y-87652690D01*
X137224046Y-87782365D01*
X137351366Y-87869359D01*
X137502500Y-87899964D01*
X137802500Y-87899964D01*
X137943690Y-87873397D01*
X138073365Y-87789954D01*
X138160359Y-87662634D01*
X138190964Y-87511500D01*
X138190964Y-87261500D01*
X138164397Y-87120310D01*
X138149000Y-87096382D01*
X138149000Y-87002000D01*
X145573536Y-87002000D01*
X145573536Y-88702000D01*
X145600103Y-88843190D01*
X145683546Y-88972865D01*
X145810866Y-89059859D01*
X145962000Y-89090464D01*
X147662000Y-89090464D01*
X147803190Y-89063897D01*
X147932865Y-88980454D01*
X148019859Y-88853134D01*
X148050464Y-88702000D01*
X148050464Y-87002000D01*
X148023897Y-86860810D01*
X147940454Y-86731135D01*
X147813134Y-86644141D01*
X147662000Y-86613536D01*
X145962000Y-86613536D01*
X145820810Y-86640103D01*
X145691135Y-86723546D01*
X145604141Y-86850866D01*
X145573536Y-87002000D01*
X138149000Y-87002000D01*
X138149000Y-86969079D01*
X138244987Y-86873259D01*
X138348882Y-86623054D01*
X138349118Y-86352135D01*
X138245661Y-86101748D01*
X138054259Y-85910013D01*
X137804054Y-85806118D01*
X137533135Y-85805882D01*
X137282748Y-85909339D01*
X137091013Y-86100741D01*
X136987118Y-86350946D01*
X136986882Y-86621865D01*
X107090173Y-86621865D01*
X107155803Y-86526256D01*
X107155398Y-86499854D01*
X106939724Y-86087882D01*
X106582813Y-85789804D01*
X106572425Y-85786555D01*
X106666500Y-85710896D01*
X106936367Y-85217819D01*
X106953904Y-85135039D01*
X106831915Y-84913000D01*
X104539000Y-84913000D01*
X104539000Y-86042179D01*
X104484276Y-86087882D01*
X104268602Y-86499854D01*
X104268197Y-86526256D01*
X95221000Y-86526256D01*
X95221000Y-83720653D01*
X95709994Y-84904109D01*
X96730519Y-85926417D01*
X98064581Y-86480368D01*
X99509082Y-86481628D01*
X100844109Y-85930006D01*
X101862890Y-84913002D01*
X101992084Y-84913002D01*
X101870096Y-85135039D01*
X101887633Y-85217819D01*
X102157500Y-85710896D01*
X102595517Y-86063166D01*
X103135000Y-86221000D01*
X104285000Y-86221000D01*
X104285000Y-84913000D01*
X104265000Y-84913000D01*
X104265000Y-84659000D01*
X104285000Y-84659000D01*
X104285000Y-83351000D01*
X104539000Y-83351000D01*
X104539000Y-84659000D01*
X106831915Y-84659000D01*
X106953904Y-84436961D01*
X106936367Y-84354181D01*
X106666500Y-83861104D01*
X106228483Y-83508834D01*
X105689000Y-83351000D01*
X104539000Y-83351000D01*
X104285000Y-83351000D01*
X103135000Y-83351000D01*
X102595517Y-83508834D01*
X102374062Y-83686937D01*
X102420368Y-83575419D01*
X102420716Y-83176000D01*
X130510036Y-83176000D01*
X130510036Y-83426000D01*
X130536603Y-83567190D01*
X130620046Y-83696865D01*
X130747366Y-83783859D01*
X130898500Y-83814464D01*
X131198500Y-83814464D01*
X131339690Y-83787897D01*
X131348854Y-83782000D01*
X131887016Y-83782000D01*
X131934546Y-83855865D01*
X131939730Y-83859407D01*
X131907118Y-83937946D01*
X131906882Y-84208865D01*
X132010339Y-84459252D01*
X132201741Y-84650987D01*
X132451946Y-84754882D01*
X132722865Y-84755118D01*
X132973252Y-84651661D01*
X133164987Y-84460259D01*
X133268882Y-84210054D01*
X133268883Y-84208865D01*
X134446882Y-84208865D01*
X134550339Y-84459252D01*
X134741741Y-84650987D01*
X134991946Y-84754882D01*
X135262865Y-84755118D01*
X135513252Y-84651661D01*
X135704987Y-84460259D01*
X135808882Y-84210054D01*
X135808883Y-84208865D01*
X136986882Y-84208865D01*
X137090339Y-84459252D01*
X137281741Y-84650987D01*
X137531946Y-84754882D01*
X137802865Y-84755118D01*
X138053252Y-84651661D01*
X138244987Y-84460259D01*
X138348882Y-84210054D01*
X138349118Y-83939135D01*
X138245661Y-83688748D01*
X138149000Y-83591919D01*
X138149000Y-83572758D01*
X138160359Y-83556134D01*
X138190964Y-83405000D01*
X138190964Y-83155000D01*
X138164397Y-83013810D01*
X138080954Y-82884135D01*
X137953634Y-82797141D01*
X137802500Y-82766536D01*
X137502500Y-82766536D01*
X137361310Y-82793103D01*
X137231635Y-82876546D01*
X137144641Y-83003866D01*
X137114036Y-83155000D01*
X137114036Y-83405000D01*
X137140603Y-83546190D01*
X137176667Y-83602236D01*
X137091013Y-83687741D01*
X136987118Y-83937946D01*
X136986882Y-84208865D01*
X135808883Y-84208865D01*
X135809118Y-83939135D01*
X135705661Y-83688748D01*
X135609746Y-83592666D01*
X135620359Y-83577134D01*
X135650964Y-83426000D01*
X135650964Y-83176000D01*
X135624397Y-83034810D01*
X135540954Y-82905135D01*
X135413634Y-82818141D01*
X135262500Y-82787536D01*
X134962500Y-82787536D01*
X134821310Y-82814103D01*
X134691635Y-82897546D01*
X134604641Y-83024866D01*
X134574036Y-83176000D01*
X134574036Y-83426000D01*
X134600603Y-83567190D01*
X134628439Y-83610449D01*
X134551013Y-83687741D01*
X134447118Y-83937946D01*
X134446882Y-84208865D01*
X133268883Y-84208865D01*
X133269118Y-83939135D01*
X133236347Y-83859822D01*
X133320859Y-83736134D01*
X133351464Y-83585000D01*
X133351464Y-82785000D01*
X133324897Y-82643810D01*
X133241454Y-82514135D01*
X133114134Y-82427141D01*
X132963000Y-82396536D01*
X132213000Y-82396536D01*
X132071810Y-82423103D01*
X131942135Y-82506546D01*
X131855141Y-82633866D01*
X131824536Y-82785000D01*
X131824536Y-82820000D01*
X131352355Y-82820000D01*
X131349634Y-82818141D01*
X131198500Y-82787536D01*
X130898500Y-82787536D01*
X130757310Y-82814103D01*
X130627635Y-82897546D01*
X130540641Y-83024866D01*
X130510036Y-83176000D01*
X102420716Y-83176000D01*
X102421628Y-82130918D01*
X102391137Y-82057122D01*
X142963825Y-82057122D01*
X143178466Y-82575332D01*
X143640608Y-83070012D01*
X144256877Y-83350183D01*
X144526000Y-83232604D01*
X144526000Y-81788000D01*
X144780000Y-81788000D01*
X144780000Y-83232604D01*
X145049123Y-83350183D01*
X145665392Y-83070012D01*
X146127534Y-82575332D01*
X146342175Y-82057122D01*
X146224125Y-81788000D01*
X144780000Y-81788000D01*
X144526000Y-81788000D01*
X143081875Y-81788000D01*
X142963825Y-82057122D01*
X102391137Y-82057122D01*
X102030548Y-81184433D01*
X102150772Y-81304867D01*
X102564842Y-81476804D01*
X103013191Y-81477195D01*
X103427560Y-81305981D01*
X103468734Y-81264878D01*
X142963825Y-81264878D01*
X143081875Y-81534000D01*
X144526000Y-81534000D01*
X144526000Y-80089396D01*
X144780000Y-80089396D01*
X144780000Y-81534000D01*
X146224125Y-81534000D01*
X146342175Y-81264878D01*
X146127534Y-80746668D01*
X145665392Y-80251988D01*
X145049123Y-79971817D01*
X144780000Y-80089396D01*
X144526000Y-80089396D01*
X144256877Y-79971817D01*
X143640608Y-80251988D01*
X143178466Y-80746668D01*
X142963825Y-81264878D01*
X103468734Y-81264878D01*
X103744867Y-80989228D01*
X103916804Y-80575158D01*
X103917195Y-80126809D01*
X103745981Y-79712440D01*
X103429228Y-79395133D01*
X103015158Y-79223196D01*
X102566809Y-79222805D01*
X102152440Y-79394019D01*
X101835133Y-79710772D01*
X101663196Y-80124842D01*
X101662805Y-80573191D01*
X101673477Y-80599018D01*
X100849481Y-79773583D01*
X99515419Y-79219632D01*
X98070918Y-79218372D01*
X97151088Y-79598438D01*
X97968526Y-78781000D01*
X191611474Y-78781000D01*
X192429783Y-79599309D01*
X192429783Y-79599309D01*
G37*
X192429783Y-79599309D02*
X191515419Y-79219632D01*
X190070918Y-79218372D01*
X188735891Y-79769994D01*
X187713583Y-80790519D01*
X187159632Y-82124581D01*
X187158372Y-83569082D01*
X187709994Y-84904109D01*
X188730519Y-85926417D01*
X190064581Y-86480368D01*
X191509082Y-86481628D01*
X192844109Y-85930006D01*
X193866417Y-84909481D01*
X194359000Y-83723210D01*
X194359000Y-106723000D01*
X176168954Y-106723000D01*
X176209859Y-106663134D01*
X176240464Y-106512000D01*
X176240464Y-105312000D01*
X176213897Y-105170810D01*
X176130454Y-105041135D01*
X176003134Y-104954141D01*
X175852000Y-104923536D01*
X173652000Y-104923536D01*
X173510810Y-104950103D01*
X173381135Y-105033546D01*
X173294141Y-105160866D01*
X173290064Y-105181000D01*
X170440000Y-105181000D01*
X170160259Y-105236643D01*
X169923105Y-105395105D01*
X164249040Y-111069170D01*
X164090579Y-111306323D01*
X164034935Y-111586065D01*
X164034935Y-111720054D01*
X164090579Y-111999796D01*
X164249040Y-112236949D01*
X164486193Y-112395410D01*
X164547242Y-112407553D01*
X161005000Y-115946286D01*
X161005000Y-111721326D01*
X170643326Y-102083000D01*
X173288186Y-102083000D01*
X173290103Y-102093190D01*
X173373546Y-102222865D01*
X173500866Y-102309859D01*
X173652000Y-102340464D01*
X175852000Y-102340464D01*
X175993190Y-102313897D01*
X176122865Y-102230454D01*
X176209859Y-102103134D01*
X176240464Y-101952000D01*
X176240464Y-100752000D01*
X176213897Y-100610810D01*
X176130454Y-100481135D01*
X176003134Y-100394141D01*
X175852000Y-100363536D01*
X173652000Y-100363536D01*
X173510810Y-100390103D01*
X173381135Y-100473546D01*
X173294141Y-100600866D01*
X173290064Y-100621000D01*
X170340777Y-100621000D01*
X170340576Y-100620960D01*
X170060834Y-100676604D01*
X169823681Y-100835065D01*
X159757105Y-110901641D01*
X159598644Y-111138794D01*
X159543000Y-111418536D01*
X159543000Y-119357212D01*
X156769212Y-122131000D01*
X151756755Y-122131000D01*
X151805859Y-122059134D01*
X151836464Y-121908000D01*
X151836464Y-120408000D01*
X151809897Y-120266810D01*
X151726454Y-120137135D01*
X151599134Y-120050141D01*
X151448000Y-120019536D01*
X151214000Y-120019536D01*
X151214000Y-119945443D01*
X151240859Y-119906134D01*
X151271464Y-119755000D01*
X151271464Y-119005000D01*
X151244897Y-118863810D01*
X151212500Y-118813464D01*
X151231000Y-118813464D01*
X151372190Y-118786897D01*
X151501865Y-118703454D01*
X151588859Y-118576134D01*
X151619464Y-118425000D01*
X151619464Y-116425000D01*
X151592897Y-116283810D01*
X151509454Y-116154135D01*
X151382134Y-116067141D01*
X151231000Y-116036536D01*
X149731000Y-116036536D01*
X149589810Y-116063103D01*
X149460135Y-116146546D01*
X149373141Y-116273866D01*
X149342536Y-116425000D01*
X149342536Y-118425000D01*
X149369103Y-118566190D01*
X149452546Y-118695865D01*
X149579866Y-118782859D01*
X149731000Y-118813464D01*
X149750000Y-118813464D01*
X149750000Y-118817484D01*
X149725141Y-118853866D01*
X149694536Y-119005000D01*
X149694536Y-119755000D01*
X149721103Y-119896190D01*
X149752000Y-119944206D01*
X149752000Y-120019536D01*
X149498000Y-120019536D01*
X149356810Y-120046103D01*
X149227135Y-120129546D01*
X149140141Y-120256866D01*
X149109536Y-120408000D01*
X149109536Y-121908000D01*
X149136103Y-122049190D01*
X149188746Y-122131000D01*
X143396755Y-122131000D01*
X143445859Y-122059134D01*
X143476464Y-121908000D01*
X143476464Y-120408000D01*
X143449897Y-120266810D01*
X143366454Y-120137135D01*
X143239134Y-120050141D01*
X143088000Y-120019536D01*
X142844000Y-120019536D01*
X142844000Y-119963006D01*
X142882859Y-119906134D01*
X142913464Y-119755000D01*
X142913464Y-119005000D01*
X142886897Y-118863810D01*
X142868256Y-118834841D01*
X142990190Y-118811897D01*
X143119865Y-118728454D01*
X143206859Y-118601134D01*
X143237464Y-118450000D01*
X143237464Y-116450000D01*
X143210897Y-116308810D01*
X143127454Y-116179135D01*
X143000134Y-116092141D01*
X142849000Y-116061536D01*
X141349000Y-116061536D01*
X141207810Y-116088103D01*
X141078135Y-116171546D01*
X140991141Y-116298866D01*
X140960536Y-116450000D01*
X140960536Y-118450000D01*
X140987103Y-118591190D01*
X141070546Y-118720865D01*
X141197866Y-118807859D01*
X141349000Y-118838464D01*
X141377665Y-118838464D01*
X141367141Y-118853866D01*
X141336536Y-119005000D01*
X141336536Y-119755000D01*
X141363103Y-119896190D01*
X141382000Y-119925557D01*
X141382000Y-120019536D01*
X141138000Y-120019536D01*
X140996810Y-120046103D01*
X140867135Y-120129546D01*
X140780141Y-120256866D01*
X140749536Y-120408000D01*
X140749536Y-121908000D01*
X140776103Y-122049190D01*
X140859546Y-122178865D01*
X140986866Y-122265859D01*
X141138000Y-122296464D01*
X141382000Y-122296464D01*
X141382000Y-122735000D01*
X141437644Y-123014742D01*
X141593023Y-123247282D01*
X141596105Y-123251895D01*
X141723105Y-123378895D01*
X141960258Y-123537356D01*
X142240000Y-123593000D01*
X157072002Y-123593000D01*
X157351744Y-123537356D01*
X157588897Y-123378895D01*
X160068000Y-120899792D01*
X160068000Y-129300000D01*
X160078006Y-129349410D01*
X160106447Y-129391035D01*
X160148841Y-129418315D01*
X160194761Y-129427000D01*
X161314000Y-129429104D01*
X161314000Y-129548728D01*
X161422167Y-130092521D01*
X161730201Y-130553527D01*
X162191207Y-130861561D01*
X162735000Y-130969728D01*
X163278793Y-130861561D01*
X163739799Y-130553527D01*
X164047833Y-130092521D01*
X164156000Y-129548728D01*
X164156000Y-129434447D01*
X166394000Y-129438655D01*
X166394000Y-129548728D01*
X166502167Y-130092521D01*
X166810201Y-130553527D01*
X167271207Y-130861561D01*
X167815000Y-130969728D01*
X168358793Y-130861561D01*
X168819799Y-130553527D01*
X169127833Y-130092521D01*
X169236000Y-129548728D01*
X169236000Y-129443998D01*
X171474000Y-129448206D01*
X171474000Y-129548728D01*
X171582167Y-130092521D01*
X171890201Y-130553527D01*
X172351207Y-130861561D01*
X172895000Y-130969728D01*
X173438793Y-130861561D01*
X173899799Y-130553527D01*
X174207833Y-130092521D01*
X174316000Y-129548728D01*
X174316000Y-129453549D01*
X186789761Y-129477000D01*
X186839190Y-129467087D01*
X186880868Y-129438724D01*
X186908228Y-129396381D01*
X186917000Y-129350000D01*
X186917000Y-122402606D01*
X190842606Y-118477000D01*
X194359000Y-118477000D01*
X194359000Y-129979347D01*
X193870006Y-128795891D01*
X192849481Y-127773583D01*
X191515419Y-127219632D01*
X190070918Y-127218372D01*
X188735891Y-127769994D01*
X187713583Y-128790519D01*
X187159632Y-130124581D01*
X187158372Y-131569082D01*
X187549452Y-132515567D01*
X187429228Y-132395133D01*
X187015158Y-132223196D01*
X186566809Y-132222805D01*
X186152440Y-132394019D01*
X185835133Y-132710772D01*
X185663196Y-133124842D01*
X185662805Y-133573191D01*
X185834019Y-133987560D01*
X186150772Y-134304867D01*
X186564842Y-134476804D01*
X187013191Y-134477195D01*
X187427560Y-134305981D01*
X187744867Y-133989228D01*
X187916804Y-133575158D01*
X187917195Y-133126809D01*
X187906523Y-133100982D01*
X188730519Y-133926417D01*
X190064581Y-134480368D01*
X191509082Y-134481628D01*
X192428912Y-134101562D01*
X191611474Y-134919000D01*
X97968526Y-134919000D01*
X97150217Y-134100691D01*
X98064581Y-134480368D01*
X99509082Y-134481628D01*
X100844109Y-133930006D01*
X101672057Y-133103502D01*
X101663196Y-133124842D01*
X101662805Y-133573191D01*
X101834019Y-133987560D01*
X102150772Y-134304867D01*
X102564842Y-134476804D01*
X103013191Y-134477195D01*
X103427560Y-134305981D01*
X103744867Y-133989228D01*
X103916804Y-133575158D01*
X103917195Y-133126809D01*
X103745981Y-132712440D01*
X103429228Y-132395133D01*
X103015158Y-132223196D01*
X102566809Y-132222805D01*
X102152440Y-132394019D01*
X102029492Y-132516752D01*
X102420368Y-131575419D01*
X102421628Y-130130918D01*
X102324232Y-129895200D01*
X104415405Y-129895200D01*
X104450692Y-130108768D01*
X104873564Y-130249149D01*
X105317968Y-130217018D01*
X105579308Y-130108768D01*
X105614595Y-129895200D01*
X113175405Y-129895200D01*
X113210692Y-130108768D01*
X113633564Y-130249149D01*
X114077968Y-130217018D01*
X114339308Y-130108768D01*
X114374595Y-129895200D01*
X113775000Y-129295605D01*
X113175405Y-129895200D01*
X105614595Y-129895200D01*
X105015000Y-129295605D01*
X104415405Y-129895200D01*
X102324232Y-129895200D01*
X101943833Y-128974564D01*
X103881851Y-128974564D01*
X103913982Y-129418968D01*
X104022232Y-129680308D01*
X104235800Y-129715595D01*
X104835395Y-129116000D01*
X105194605Y-129116000D01*
X105794200Y-129715595D01*
X106007768Y-129680308D01*
X106148149Y-129257436D01*
X106127697Y-128974564D01*
X112641851Y-128974564D01*
X112673982Y-129418968D01*
X112782232Y-129680308D01*
X112995800Y-129715595D01*
X113595395Y-129116000D01*
X113954605Y-129116000D01*
X114554200Y-129715595D01*
X114767768Y-129680308D01*
X114908149Y-129257436D01*
X114876018Y-128813032D01*
X114767768Y-128551692D01*
X114554200Y-128516405D01*
X113954605Y-129116000D01*
X113595395Y-129116000D01*
X112995800Y-128516405D01*
X112782232Y-128551692D01*
X112641851Y-128974564D01*
X106127697Y-128974564D01*
X106116018Y-128813032D01*
X106007768Y-128551692D01*
X105794200Y-128516405D01*
X105194605Y-129116000D01*
X104835395Y-129116000D01*
X104235800Y-128516405D01*
X104022232Y-128551692D01*
X103881851Y-128974564D01*
X101943833Y-128974564D01*
X101870006Y-128795891D01*
X101411716Y-128336800D01*
X104415405Y-128336800D01*
X105015000Y-128936395D01*
X105614595Y-128336800D01*
X113175405Y-128336800D01*
X113775000Y-128936395D01*
X114374595Y-128336800D01*
X114339308Y-128123232D01*
X113916436Y-127982851D01*
X113472032Y-128014982D01*
X113210692Y-128123232D01*
X113175405Y-128336800D01*
X105614595Y-128336800D01*
X105579308Y-128123232D01*
X105156436Y-127982851D01*
X104712032Y-128014982D01*
X104450692Y-128123232D01*
X104415405Y-128336800D01*
X101411716Y-128336800D01*
X100849481Y-127773583D01*
X99515419Y-127219632D01*
X98070918Y-127218372D01*
X96735891Y-127769994D01*
X95713583Y-128790519D01*
X95221000Y-129976790D01*
X95221000Y-126946000D01*
X135906536Y-126946000D01*
X135906536Y-130546000D01*
X135933103Y-130687190D01*
X136016546Y-130816865D01*
X136143866Y-130903859D01*
X136295000Y-130934464D01*
X138375000Y-130934464D01*
X138516190Y-130907897D01*
X138645865Y-130824454D01*
X138732859Y-130697134D01*
X138763464Y-130546000D01*
X138763464Y-127943272D01*
X140994000Y-127943272D01*
X140994000Y-129548728D01*
X141102167Y-130092521D01*
X141410201Y-130553527D01*
X141871207Y-130861561D01*
X142415000Y-130969728D01*
X142958793Y-130861561D01*
X143419799Y-130553527D01*
X143727833Y-130092521D01*
X143836000Y-129548728D01*
X143836000Y-127943272D01*
X146074000Y-127943272D01*
X146074000Y-129548728D01*
X146182167Y-130092521D01*
X146490201Y-130553527D01*
X146951207Y-130861561D01*
X147495000Y-130969728D01*
X148038793Y-130861561D01*
X148499799Y-130553527D01*
X148807833Y-130092521D01*
X148916000Y-129548728D01*
X148916000Y-128873000D01*
X150900000Y-128873000D01*
X150900000Y-129633000D01*
X151076103Y-130264327D01*
X151480399Y-130780206D01*
X152051338Y-131102099D01*
X152188290Y-131135748D01*
X152448000Y-131016922D01*
X152448000Y-128873000D01*
X152702000Y-128873000D01*
X152702000Y-131016922D01*
X152961710Y-131135748D01*
X153098662Y-131102099D01*
X153669601Y-130780206D01*
X154073897Y-130264327D01*
X154250000Y-129633000D01*
X154250000Y-128873000D01*
X152702000Y-128873000D01*
X152448000Y-128873000D01*
X150900000Y-128873000D01*
X148916000Y-128873000D01*
X148916000Y-127943272D01*
X148899238Y-127859000D01*
X150900000Y-127859000D01*
X150900000Y-128619000D01*
X152448000Y-128619000D01*
X152448000Y-126475078D01*
X152702000Y-126475078D01*
X152702000Y-128619000D01*
X154250000Y-128619000D01*
X154250000Y-127943272D01*
X156234000Y-127943272D01*
X156234000Y-129548728D01*
X156342167Y-130092521D01*
X156650201Y-130553527D01*
X157111207Y-130861561D01*
X157655000Y-130969728D01*
X158198793Y-130861561D01*
X158659799Y-130553527D01*
X158967833Y-130092521D01*
X159076000Y-129548728D01*
X159076000Y-127943272D01*
X158967833Y-127399479D01*
X158659799Y-126938473D01*
X158198793Y-126630439D01*
X157655000Y-126522272D01*
X157111207Y-126630439D01*
X156650201Y-126938473D01*
X156342167Y-127399479D01*
X156234000Y-127943272D01*
X154250000Y-127943272D01*
X154250000Y-127859000D01*
X154073897Y-127227673D01*
X153669601Y-126711794D01*
X153098662Y-126389901D01*
X152961710Y-126356252D01*
X152702000Y-126475078D01*
X152448000Y-126475078D01*
X152188290Y-126356252D01*
X152051338Y-126389901D01*
X151480399Y-126711794D01*
X151076103Y-127227673D01*
X150900000Y-127859000D01*
X148899238Y-127859000D01*
X148807833Y-127399479D01*
X148499799Y-126938473D01*
X148038793Y-126630439D01*
X147495000Y-126522272D01*
X146951207Y-126630439D01*
X146490201Y-126938473D01*
X146182167Y-127399479D01*
X146074000Y-127943272D01*
X143836000Y-127943272D01*
X143727833Y-127399479D01*
X143419799Y-126938473D01*
X142958793Y-126630439D01*
X142415000Y-126522272D01*
X141871207Y-126630439D01*
X141410201Y-126938473D01*
X141102167Y-127399479D01*
X140994000Y-127943272D01*
X138763464Y-127943272D01*
X138763464Y-126946000D01*
X138736897Y-126804810D01*
X138653454Y-126675135D01*
X138526134Y-126588141D01*
X138375000Y-126557536D01*
X136295000Y-126557536D01*
X136153810Y-126584103D01*
X136024135Y-126667546D01*
X135937141Y-126794866D01*
X135906536Y-126946000D01*
X95221000Y-126946000D01*
X95221000Y-114808000D01*
X102743000Y-114808000D01*
X102743000Y-117856000D01*
X102769056Y-117994477D01*
X102850896Y-118121660D01*
X102975770Y-118206983D01*
X103124000Y-118237000D01*
X105664000Y-118237000D01*
X105802477Y-118210944D01*
X105929660Y-118129104D01*
X106014983Y-118004230D01*
X106045000Y-117856000D01*
X106045000Y-114808000D01*
X106018944Y-114669523D01*
X105937104Y-114542340D01*
X105812230Y-114457017D01*
X105664000Y-114427000D01*
X103124000Y-114427000D01*
X102985523Y-114453056D01*
X102858340Y-114534896D01*
X102773017Y-114659770D01*
X102743000Y-114808000D01*
X95221000Y-114808000D01*
X95221000Y-114220473D01*
X121800847Y-114220473D01*
X121934689Y-114544395D01*
X122182302Y-114792440D01*
X122505989Y-114926847D01*
X122856473Y-114927153D01*
X123180395Y-114793311D01*
X123261479Y-114712369D01*
X123296546Y-114766865D01*
X123423866Y-114853859D01*
X123575000Y-114884464D01*
X124075000Y-114884464D01*
X124216190Y-114857897D01*
X124345865Y-114774454D01*
X124432859Y-114647134D01*
X124463464Y-114496000D01*
X124463464Y-113596000D01*
X124436897Y-113454810D01*
X124353454Y-113325135D01*
X124226134Y-113238141D01*
X124075000Y-113207536D01*
X123575000Y-113207536D01*
X123433810Y-113234103D01*
X123304135Y-113317546D01*
X123261680Y-113379681D01*
X123181698Y-113299560D01*
X122858011Y-113165153D01*
X122507527Y-113164847D01*
X122183605Y-113298689D01*
X121935560Y-113546302D01*
X121801153Y-113869989D01*
X121800847Y-114220473D01*
X95221000Y-114220473D01*
X95221000Y-109037365D01*
X127334882Y-109037365D01*
X127438339Y-109287752D01*
X127629741Y-109479487D01*
X127879946Y-109583382D01*
X128150865Y-109583618D01*
X128401252Y-109480161D01*
X128592987Y-109288759D01*
X128696882Y-109038554D01*
X128697118Y-108767635D01*
X128593661Y-108517248D01*
X128402259Y-108325513D01*
X128152054Y-108221618D01*
X127881135Y-108221382D01*
X127630748Y-108324839D01*
X127439013Y-108516241D01*
X127335118Y-108766446D01*
X127334882Y-109037365D01*
X95221000Y-109037365D01*
X95221000Y-105544865D01*
X101553882Y-105544865D01*
X101657339Y-105795252D01*
X101848741Y-105986987D01*
X102098946Y-106090882D01*
X102369865Y-106091118D01*
X102620252Y-105987661D01*
X102811987Y-105796259D01*
X102915882Y-105546054D01*
X102916118Y-105275135D01*
X102812661Y-105024748D01*
X102621259Y-104833013D01*
X102371054Y-104729118D01*
X102100135Y-104728882D01*
X101849748Y-104832339D01*
X101658013Y-105023741D01*
X101554118Y-105273946D01*
X101553882Y-105544865D01*
X95221000Y-105544865D01*
X95221000Y-104355814D01*
X102466059Y-104355814D01*
X102569516Y-104606201D01*
X102760918Y-104797936D01*
X103011123Y-104901831D01*
X103282042Y-104902067D01*
X103532429Y-104798610D01*
X103724164Y-104607208D01*
X103826814Y-104359999D01*
X121600999Y-104359999D01*
X121600999Y-107730001D01*
X121620544Y-107828259D01*
X121637613Y-107914072D01*
X121741881Y-108070119D01*
X122203881Y-108532120D01*
X122297425Y-108594623D01*
X122359928Y-108636387D01*
X122543999Y-108673001D01*
X125814999Y-108673001D01*
X125999070Y-108636387D01*
X126155117Y-108532119D01*
X126406772Y-108280464D01*
X126615000Y-108280464D01*
X126756190Y-108253897D01*
X126885865Y-108170454D01*
X126972859Y-108043134D01*
X127003464Y-107892000D01*
X127003464Y-107146738D01*
X127003546Y-107146865D01*
X127130866Y-107233859D01*
X127282000Y-107264464D01*
X127782000Y-107264464D01*
X127923190Y-107237897D01*
X128052865Y-107154454D01*
X128139859Y-107027134D01*
X128170464Y-106876000D01*
X128170464Y-106018000D01*
X128393536Y-106018000D01*
X128393536Y-106876000D01*
X128420103Y-107017190D01*
X128503546Y-107146865D01*
X128630866Y-107233859D01*
X128782000Y-107264464D01*
X129282000Y-107264464D01*
X129423190Y-107237897D01*
X129552865Y-107154454D01*
X129639859Y-107027134D01*
X129664186Y-106907000D01*
X132512883Y-106907000D01*
X127416302Y-112003582D01*
X126981440Y-112003582D01*
X126974897Y-111968810D01*
X126891454Y-111839135D01*
X126764134Y-111752141D01*
X126613000Y-111721536D01*
X125863000Y-111721536D01*
X125721810Y-111748103D01*
X125592135Y-111831546D01*
X125505141Y-111958866D01*
X125488509Y-112041000D01*
X125214106Y-112041000D01*
X125188454Y-112001135D01*
X125061134Y-111914141D01*
X124910000Y-111883536D01*
X124010000Y-111883536D01*
X123868810Y-111910103D01*
X123739135Y-111993546D01*
X123652141Y-112120866D01*
X123621536Y-112272000D01*
X123621536Y-112772000D01*
X123648103Y-112913190D01*
X123731546Y-113042865D01*
X123858866Y-113129859D01*
X124010000Y-113160464D01*
X124844000Y-113160464D01*
X124844000Y-113291894D01*
X124804135Y-113317546D01*
X124717141Y-113444866D01*
X124686536Y-113596000D01*
X124686536Y-114496000D01*
X124713103Y-114637190D01*
X124796546Y-114766865D01*
X124923866Y-114853859D01*
X125075000Y-114884464D01*
X125575000Y-114884464D01*
X125716190Y-114857897D01*
X125845865Y-114774454D01*
X125932859Y-114647134D01*
X125963464Y-114496000D01*
X125963464Y-113596000D01*
X125936897Y-113454810D01*
X125853454Y-113325135D01*
X125806000Y-113292711D01*
X125806000Y-113286921D01*
X125863000Y-113298464D01*
X126613000Y-113298464D01*
X126754190Y-113271897D01*
X126883865Y-113188454D01*
X126970859Y-113061134D01*
X126990209Y-112965582D01*
X127615538Y-112965582D01*
X127799609Y-112928968D01*
X127955656Y-112824700D01*
X130630356Y-110150000D01*
X142110536Y-110150000D01*
X142110536Y-112150000D01*
X142137103Y-112291190D01*
X142220546Y-112420865D01*
X142347866Y-112507859D01*
X142499000Y-112538464D01*
X143768000Y-112538464D01*
X143768000Y-116061536D01*
X143649000Y-116061536D01*
X143507810Y-116088103D01*
X143378135Y-116171546D01*
X143291141Y-116298866D01*
X143260536Y-116450000D01*
X143260536Y-118450000D01*
X143287103Y-118591190D01*
X143370546Y-118720865D01*
X143497866Y-118807859D01*
X143649000Y-118838464D01*
X145149000Y-118838464D01*
X145290190Y-118811897D01*
X145419865Y-118728454D01*
X145506859Y-118601134D01*
X145537464Y-118450000D01*
X145537464Y-116450000D01*
X145510897Y-116308810D01*
X145427454Y-116179135D01*
X145300134Y-116092141D01*
X145149000Y-116061536D01*
X145030000Y-116061536D01*
X145030000Y-112538464D01*
X146299000Y-112538464D01*
X146440190Y-112511897D01*
X146569865Y-112428454D01*
X146656859Y-112301134D01*
X146687464Y-112150000D01*
X146687464Y-110150000D01*
X146682760Y-110125000D01*
X150492536Y-110125000D01*
X150492536Y-112125000D01*
X150519103Y-112266190D01*
X150602546Y-112395865D01*
X150729866Y-112482859D01*
X150881000Y-112513464D01*
X152050000Y-112513464D01*
X152050000Y-116036536D01*
X152031000Y-116036536D01*
X151889810Y-116063103D01*
X151760135Y-116146546D01*
X151673141Y-116273866D01*
X151642536Y-116425000D01*
X151642536Y-118425000D01*
X151669103Y-118566190D01*
X151752546Y-118695865D01*
X151879866Y-118782859D01*
X152031000Y-118813464D01*
X153531000Y-118813464D01*
X153672190Y-118786897D01*
X153801865Y-118703454D01*
X153888859Y-118576134D01*
X153919464Y-118425000D01*
X153919464Y-116425000D01*
X153892897Y-116283810D01*
X153809454Y-116154135D01*
X153682134Y-116067141D01*
X153531000Y-116036536D01*
X153512000Y-116036536D01*
X153512000Y-112513464D01*
X154681000Y-112513464D01*
X154822190Y-112486897D01*
X154951865Y-112403454D01*
X155038859Y-112276134D01*
X155069464Y-112125000D01*
X155069464Y-110125000D01*
X155042897Y-109983810D01*
X154959454Y-109854135D01*
X154832134Y-109767141D01*
X154681000Y-109736536D01*
X154007542Y-109736536D01*
X154091859Y-109613134D01*
X154122464Y-109462000D01*
X154122464Y-107962000D01*
X154095897Y-107820810D01*
X154012454Y-107691135D01*
X153885134Y-107604141D01*
X153734000Y-107573536D01*
X151784000Y-107573536D01*
X151642810Y-107600103D01*
X151513135Y-107683546D01*
X151426141Y-107810866D01*
X151395536Y-107962000D01*
X151395536Y-109462000D01*
X151422103Y-109603190D01*
X151505546Y-109732865D01*
X151510919Y-109736536D01*
X150881000Y-109736536D01*
X150739810Y-109763103D01*
X150610135Y-109846546D01*
X150523141Y-109973866D01*
X150492536Y-110125000D01*
X146682760Y-110125000D01*
X146660897Y-110008810D01*
X146577454Y-109879135D01*
X146450134Y-109792141D01*
X146299000Y-109761536D01*
X145634102Y-109761536D01*
X145666865Y-109740454D01*
X145753859Y-109613134D01*
X145784464Y-109462000D01*
X145784464Y-107962000D01*
X145757897Y-107820810D01*
X145674454Y-107691135D01*
X145547134Y-107604141D01*
X145396000Y-107573536D01*
X143446000Y-107573536D01*
X143304810Y-107600103D01*
X143175135Y-107683546D01*
X143088141Y-107810866D01*
X143057536Y-107962000D01*
X143057536Y-109462000D01*
X143084103Y-109603190D01*
X143167546Y-109732865D01*
X143209507Y-109761536D01*
X142499000Y-109761536D01*
X142357810Y-109788103D01*
X142228135Y-109871546D01*
X142141141Y-109998866D01*
X142110536Y-110150000D01*
X130630356Y-110150000D01*
X134735356Y-106045000D01*
X153797000Y-106045000D01*
X153797000Y-107315000D01*
X153823056Y-107453477D01*
X153904896Y-107580660D01*
X154029770Y-107665983D01*
X154178000Y-107696000D01*
X158877000Y-107696000D01*
X159015477Y-107669944D01*
X159142660Y-107588104D01*
X159227983Y-107463230D01*
X159258000Y-107315000D01*
X159258000Y-106045000D01*
X159231944Y-105906523D01*
X159150104Y-105779340D01*
X159025230Y-105694017D01*
X158877000Y-105664000D01*
X154178000Y-105664000D01*
X154039523Y-105690056D01*
X153912340Y-105771896D01*
X153827017Y-105896770D01*
X153797000Y-106045000D01*
X134735356Y-106045000D01*
X137075287Y-103705070D01*
X162643938Y-103705070D01*
X162828009Y-103668456D01*
X162984056Y-103564188D01*
X166210379Y-100337865D01*
X189056882Y-100337865D01*
X189160339Y-100588252D01*
X189351741Y-100779987D01*
X189601946Y-100883882D01*
X189872865Y-100884118D01*
X190123252Y-100780661D01*
X190314987Y-100589259D01*
X190418882Y-100339054D01*
X190419118Y-100068135D01*
X190315661Y-99817748D01*
X190124259Y-99626013D01*
X189874054Y-99522118D01*
X189603135Y-99521882D01*
X189352748Y-99625339D01*
X189161013Y-99816741D01*
X189057118Y-100066946D01*
X189056882Y-100337865D01*
X166210379Y-100337865D01*
X168941354Y-97606890D01*
X184788524Y-97606890D01*
X184958355Y-98016924D01*
X185348642Y-98445183D01*
X185873108Y-98691486D01*
X186103000Y-98570819D01*
X186103000Y-97377000D01*
X186357000Y-97377000D01*
X186357000Y-98570819D01*
X186586892Y-98691486D01*
X187111358Y-98445183D01*
X187501645Y-98016924D01*
X187671476Y-97606890D01*
X187550155Y-97377000D01*
X186357000Y-97377000D01*
X186103000Y-97377000D01*
X184909845Y-97377000D01*
X184788524Y-97606890D01*
X168941354Y-97606890D01*
X168983129Y-97565116D01*
X169087397Y-97409068D01*
X169089315Y-97399426D01*
X169124011Y-97224997D01*
X169124011Y-96893110D01*
X184788524Y-96893110D01*
X184909845Y-97123000D01*
X186103000Y-97123000D01*
X186103000Y-97103000D01*
X186357000Y-97103000D01*
X186357000Y-97123000D01*
X187550155Y-97123000D01*
X187671476Y-96893110D01*
X187501645Y-96483076D01*
X187111358Y-96054817D01*
X186686053Y-95855083D01*
X186725200Y-95847296D01*
X187124565Y-95580448D01*
X187391413Y-95181083D01*
X187485117Y-94710000D01*
X187391413Y-94238917D01*
X187124565Y-93839552D01*
X186725200Y-93572704D01*
X186254117Y-93479000D01*
X186205883Y-93479000D01*
X185734800Y-93572704D01*
X185335435Y-93839552D01*
X185068587Y-94238917D01*
X184974883Y-94710000D01*
X185068587Y-95181083D01*
X185335435Y-95580448D01*
X185734800Y-95847296D01*
X185773947Y-95855083D01*
X185348642Y-96054817D01*
X184958355Y-96483076D01*
X184788524Y-96893110D01*
X169124011Y-96893110D01*
X169124011Y-96554197D01*
X169158741Y-96588987D01*
X169408946Y-96692882D01*
X169679865Y-96693118D01*
X169801161Y-96643000D01*
X170392981Y-96643000D01*
X170402546Y-96657865D01*
X170529866Y-96744859D01*
X170681000Y-96775464D01*
X171481000Y-96775464D01*
X171622190Y-96748897D01*
X171751865Y-96665454D01*
X171838859Y-96538134D01*
X171869464Y-96387000D01*
X171869464Y-95637000D01*
X171842897Y-95495810D01*
X171759454Y-95366135D01*
X171632134Y-95279141D01*
X171481000Y-95248536D01*
X170681000Y-95248536D01*
X170539810Y-95275103D01*
X170410135Y-95358546D01*
X170394793Y-95381000D01*
X170176000Y-95381000D01*
X170176000Y-94949142D01*
X170209190Y-94942897D01*
X170338865Y-94859454D01*
X170425859Y-94732134D01*
X170456464Y-94581000D01*
X170456464Y-94331000D01*
X170429897Y-94189810D01*
X170346454Y-94060135D01*
X170219134Y-93973141D01*
X170136928Y-93956494D01*
X170209190Y-93942897D01*
X170338865Y-93859454D01*
X170425859Y-93732134D01*
X170456464Y-93581000D01*
X170456464Y-93437000D01*
X178210720Y-93437000D01*
X178394791Y-93400386D01*
X178550838Y-93296118D01*
X179676956Y-92170000D01*
X184974883Y-92170000D01*
X185068587Y-92641083D01*
X185335435Y-93040448D01*
X185734800Y-93307296D01*
X186205883Y-93401000D01*
X186254117Y-93401000D01*
X186725200Y-93307296D01*
X187124565Y-93040448D01*
X187391413Y-92641083D01*
X187485117Y-92170000D01*
X187391413Y-91698917D01*
X187124565Y-91299552D01*
X186725200Y-91032704D01*
X186254117Y-90939000D01*
X186205883Y-90939000D01*
X185734800Y-91032704D01*
X185335435Y-91299552D01*
X185068587Y-91698917D01*
X184974883Y-92170000D01*
X179676956Y-92170000D01*
X182216956Y-89630000D01*
X184974883Y-89630000D01*
X185068587Y-90101083D01*
X185335435Y-90500448D01*
X185734800Y-90767296D01*
X186205883Y-90861000D01*
X186254117Y-90861000D01*
X186725200Y-90767296D01*
X187124565Y-90500448D01*
X187391413Y-90101083D01*
X187485117Y-89630000D01*
X187391413Y-89158917D01*
X187124565Y-88759552D01*
X186725200Y-88492704D01*
X186254117Y-88399000D01*
X186205883Y-88399000D01*
X185734800Y-88492704D01*
X185335435Y-88759552D01*
X185068587Y-89158917D01*
X184974883Y-89630000D01*
X182216956Y-89630000D01*
X183760681Y-88086276D01*
X183896309Y-88086394D01*
X184146696Y-87982937D01*
X184338431Y-87791535D01*
X184442326Y-87541330D01*
X184442562Y-87270411D01*
X184339105Y-87020024D01*
X184147703Y-86828289D01*
X183897498Y-86724394D01*
X183626579Y-86724158D01*
X183376192Y-86827615D01*
X183184457Y-87019017D01*
X183080562Y-87269222D01*
X183080443Y-87406040D01*
X178011484Y-92475000D01*
X174426222Y-92475000D01*
X174439987Y-92461259D01*
X174543882Y-92211054D01*
X174544118Y-91940135D01*
X174440661Y-91689748D01*
X174249259Y-91498013D01*
X173999054Y-91394118D01*
X173728135Y-91393882D01*
X173477748Y-91497339D01*
X173464021Y-91511042D01*
X173458897Y-91483810D01*
X173375454Y-91354135D01*
X173248134Y-91267141D01*
X173097000Y-91236536D01*
X172597000Y-91236536D01*
X172455810Y-91263103D01*
X172326135Y-91346546D01*
X172239141Y-91473866D01*
X172208536Y-91625000D01*
X172208536Y-92475000D01*
X171985464Y-92475000D01*
X171985464Y-91625000D01*
X171958897Y-91483810D01*
X171875454Y-91354135D01*
X171748134Y-91267141D01*
X171597000Y-91236536D01*
X171277999Y-91236536D01*
X171277999Y-91135464D01*
X171597000Y-91135464D01*
X171738190Y-91108897D01*
X171867865Y-91025454D01*
X171954859Y-90898134D01*
X171985464Y-90747000D01*
X171985464Y-89847000D01*
X172208536Y-89847000D01*
X172208536Y-90747000D01*
X172235103Y-90888190D01*
X172318546Y-91017865D01*
X172445866Y-91104859D01*
X172597000Y-91135464D01*
X173097000Y-91135464D01*
X173238190Y-91108897D01*
X173367865Y-91025454D01*
X173454859Y-90898134D01*
X173462614Y-90859836D01*
X173476741Y-90873987D01*
X173726946Y-90977882D01*
X173997865Y-90978118D01*
X174248252Y-90874661D01*
X174439987Y-90683259D01*
X174543882Y-90433054D01*
X174544118Y-90162135D01*
X174440661Y-89911748D01*
X174249259Y-89720013D01*
X173999054Y-89616118D01*
X173728135Y-89615882D01*
X173477748Y-89719339D01*
X173464021Y-89733042D01*
X173458897Y-89705810D01*
X173375454Y-89576135D01*
X173248134Y-89489141D01*
X173097000Y-89458536D01*
X172597000Y-89458536D01*
X172455810Y-89485103D01*
X172326135Y-89568546D01*
X172239141Y-89695866D01*
X172208536Y-89847000D01*
X171985464Y-89847000D01*
X171958897Y-89705810D01*
X171875454Y-89576135D01*
X171748134Y-89489141D01*
X171597000Y-89458536D01*
X171388772Y-89458536D01*
X171287700Y-89357464D01*
X171597000Y-89357464D01*
X171738190Y-89330897D01*
X171867865Y-89247454D01*
X171954859Y-89120134D01*
X171985464Y-88969000D01*
X171985464Y-88069000D01*
X172208536Y-88069000D01*
X172208536Y-88969000D01*
X172235103Y-89110190D01*
X172318546Y-89239865D01*
X172445866Y-89326859D01*
X172597000Y-89357464D01*
X173097000Y-89357464D01*
X173238190Y-89330897D01*
X173367865Y-89247454D01*
X173454859Y-89120134D01*
X173462614Y-89081836D01*
X173476741Y-89095987D01*
X173726946Y-89199882D01*
X173997865Y-89200118D01*
X174248252Y-89096661D01*
X174439987Y-88905259D01*
X174525028Y-88700458D01*
X178092174Y-88700458D01*
X178195631Y-88950845D01*
X178387033Y-89142580D01*
X178637238Y-89246475D01*
X178908157Y-89246711D01*
X179158544Y-89143254D01*
X179350279Y-88951852D01*
X179454174Y-88701647D01*
X179454410Y-88430728D01*
X179350953Y-88180341D01*
X179159551Y-87988606D01*
X178909346Y-87884711D01*
X178638427Y-87884475D01*
X178388040Y-87987932D01*
X178196305Y-88179334D01*
X178092410Y-88429539D01*
X178092174Y-88700458D01*
X174525028Y-88700458D01*
X174543882Y-88655054D01*
X174544118Y-88384135D01*
X174440661Y-88133748D01*
X174249259Y-87942013D01*
X173999054Y-87838118D01*
X173728135Y-87837882D01*
X173477748Y-87941339D01*
X173464021Y-87955042D01*
X173458897Y-87927810D01*
X173375454Y-87798135D01*
X173248134Y-87711141D01*
X173097000Y-87680536D01*
X172597000Y-87680536D01*
X172455810Y-87707103D01*
X172326135Y-87790546D01*
X172239141Y-87917866D01*
X172208536Y-88069000D01*
X171985464Y-88069000D01*
X171958897Y-87927810D01*
X171875454Y-87798135D01*
X171748134Y-87711141D01*
X171597000Y-87680536D01*
X171097000Y-87680536D01*
X170955810Y-87707103D01*
X170826135Y-87790546D01*
X170739141Y-87917866D01*
X170708536Y-88069000D01*
X170708536Y-88475000D01*
X170221855Y-88475000D01*
X170219134Y-88473141D01*
X170068000Y-88442536D01*
X168768000Y-88442536D01*
X168626810Y-88469103D01*
X168497135Y-88552546D01*
X168410141Y-88679866D01*
X168379536Y-88831000D01*
X168379536Y-89081000D01*
X168403920Y-89210588D01*
X168379536Y-89331000D01*
X168379536Y-89581000D01*
X168403920Y-89710588D01*
X168379536Y-89831000D01*
X168379536Y-90081000D01*
X168403920Y-90210588D01*
X168379536Y-90331000D01*
X168379536Y-90581000D01*
X168403920Y-90710588D01*
X168379536Y-90831000D01*
X168379536Y-91014549D01*
X168227882Y-91115882D01*
X167461881Y-91881883D01*
X167357613Y-92037930D01*
X167320999Y-92222001D01*
X167320999Y-94155001D01*
X167350737Y-94304504D01*
X167357613Y-94339072D01*
X167461881Y-94495119D01*
X167591761Y-94624999D01*
X164418001Y-94624999D01*
X164233930Y-94661613D01*
X164198931Y-94684999D01*
X164077883Y-94765880D01*
X163997280Y-94846484D01*
X163899840Y-94610660D01*
X163708438Y-94418925D01*
X163458233Y-94315030D01*
X163187314Y-94314794D01*
X162936927Y-94418251D01*
X162745192Y-94609653D01*
X162641297Y-94859858D01*
X162641105Y-95080235D01*
X162594134Y-95048141D01*
X162443000Y-95017536D01*
X162234203Y-95017536D01*
X162377154Y-94874833D01*
X162481049Y-94624628D01*
X162481285Y-94353709D01*
X162377828Y-94103322D01*
X162186426Y-93911587D01*
X161936221Y-93807692D01*
X161752048Y-93807532D01*
X161732080Y-93701412D01*
X161756464Y-93581000D01*
X161756464Y-93331000D01*
X161732080Y-93201412D01*
X161756464Y-93081000D01*
X161756464Y-92831000D01*
X161732080Y-92701412D01*
X161756464Y-92581000D01*
X161756464Y-92331000D01*
X161732080Y-92201412D01*
X161756464Y-92081000D01*
X161756464Y-91831000D01*
X161732080Y-91701412D01*
X161756464Y-91581000D01*
X161756464Y-91331000D01*
X161732080Y-91201412D01*
X161756464Y-91081000D01*
X161756464Y-90831000D01*
X161732080Y-90701412D01*
X161756464Y-90581000D01*
X161756464Y-90331000D01*
X161732080Y-90201412D01*
X161756464Y-90081000D01*
X161756464Y-89831000D01*
X161729897Y-89689810D01*
X161646454Y-89560135D01*
X161519134Y-89473141D01*
X161436928Y-89456494D01*
X161509190Y-89442897D01*
X161638865Y-89359454D01*
X161725859Y-89232134D01*
X161756464Y-89081000D01*
X161756464Y-88831000D01*
X161729897Y-88689810D01*
X161646454Y-88560135D01*
X161519134Y-88473141D01*
X161368000Y-88442536D01*
X161286000Y-88442536D01*
X161286000Y-87880000D01*
X161804536Y-87880000D01*
X161804536Y-88006000D01*
X161831103Y-88147190D01*
X161914546Y-88276865D01*
X162041866Y-88363859D01*
X162193000Y-88394464D01*
X162443000Y-88394464D01*
X162572588Y-88370080D01*
X162693000Y-88394464D01*
X162943000Y-88394464D01*
X163072588Y-88370080D01*
X163193000Y-88394464D01*
X163443000Y-88394464D01*
X163572588Y-88370080D01*
X163693000Y-88394464D01*
X163943000Y-88394464D01*
X164072588Y-88370080D01*
X164193000Y-88394464D01*
X164443000Y-88394464D01*
X164572588Y-88370080D01*
X164693000Y-88394464D01*
X164837000Y-88394464D01*
X164837000Y-88762921D01*
X164741013Y-88858741D01*
X164637118Y-89108946D01*
X164636882Y-89379865D01*
X164740339Y-89630252D01*
X164931741Y-89821987D01*
X165181946Y-89925882D01*
X165452865Y-89926118D01*
X165703252Y-89822661D01*
X165894987Y-89631259D01*
X165998882Y-89381054D01*
X165999118Y-89110135D01*
X165895661Y-88859748D01*
X165799000Y-88762919D01*
X165799000Y-88159855D01*
X165800859Y-88157134D01*
X165817506Y-88074928D01*
X165831103Y-88147190D01*
X165914546Y-88276865D01*
X166041866Y-88363859D01*
X166193000Y-88394464D01*
X166443000Y-88394464D01*
X166572588Y-88370080D01*
X166693000Y-88394464D01*
X166943000Y-88394464D01*
X167072588Y-88370080D01*
X167193000Y-88394464D01*
X167443000Y-88394464D01*
X167572588Y-88370080D01*
X167693000Y-88394464D01*
X167943000Y-88394464D01*
X168084190Y-88367897D01*
X168213865Y-88284454D01*
X168300859Y-88157134D01*
X168331464Y-88006000D01*
X168331464Y-87232387D01*
X170716324Y-87232387D01*
X170735103Y-87332190D01*
X170818546Y-87461865D01*
X170945866Y-87548859D01*
X171097000Y-87579464D01*
X171597000Y-87579464D01*
X171738190Y-87552897D01*
X171867865Y-87469454D01*
X171954859Y-87342134D01*
X171985464Y-87191000D01*
X171985464Y-86291000D01*
X172208536Y-86291000D01*
X172208536Y-87191000D01*
X172235103Y-87332190D01*
X172318546Y-87461865D01*
X172445866Y-87548859D01*
X172597000Y-87579464D01*
X173097000Y-87579464D01*
X173238190Y-87552897D01*
X173367865Y-87469454D01*
X173454859Y-87342134D01*
X173462614Y-87303836D01*
X173476741Y-87317987D01*
X173726946Y-87421882D01*
X173997865Y-87422118D01*
X174248252Y-87318661D01*
X174439987Y-87127259D01*
X174543882Y-86877054D01*
X174544118Y-86606135D01*
X174440661Y-86355748D01*
X174325115Y-86240000D01*
X184991536Y-86240000D01*
X184991536Y-87940000D01*
X185018103Y-88081190D01*
X185101546Y-88210865D01*
X185228866Y-88297859D01*
X185380000Y-88328464D01*
X187080000Y-88328464D01*
X187221190Y-88301897D01*
X187350865Y-88218454D01*
X187437859Y-88091134D01*
X187468464Y-87940000D01*
X187468464Y-86240000D01*
X187441897Y-86098810D01*
X187358454Y-85969135D01*
X187231134Y-85882141D01*
X187080000Y-85851536D01*
X185380000Y-85851536D01*
X185238810Y-85878103D01*
X185109135Y-85961546D01*
X185022141Y-86088866D01*
X184991536Y-86240000D01*
X174325115Y-86240000D01*
X174249259Y-86164013D01*
X173999054Y-86060118D01*
X173728135Y-86059882D01*
X173477748Y-86163339D01*
X173464021Y-86177042D01*
X173458897Y-86149810D01*
X173375454Y-86020135D01*
X173248134Y-85933141D01*
X173097000Y-85902536D01*
X172597000Y-85902536D01*
X172455810Y-85929103D01*
X172326135Y-86012546D01*
X172239141Y-86139866D01*
X172208536Y-86291000D01*
X171985464Y-86291000D01*
X171958897Y-86149810D01*
X171875454Y-86020135D01*
X171748134Y-85933141D01*
X171597000Y-85902536D01*
X171097000Y-85902536D01*
X170955810Y-85929103D01*
X170826135Y-86012546D01*
X170739141Y-86139866D01*
X170712710Y-86270387D01*
X168233849Y-86270387D01*
X169060237Y-85444000D01*
X170714369Y-85444000D01*
X170735103Y-85554190D01*
X170818546Y-85683865D01*
X170945866Y-85770859D01*
X171097000Y-85801464D01*
X171597000Y-85801464D01*
X171738190Y-85774897D01*
X171867865Y-85691454D01*
X171954859Y-85564134D01*
X171985464Y-85413000D01*
X171985464Y-84513000D01*
X172208536Y-84513000D01*
X172208536Y-85413000D01*
X172235103Y-85554190D01*
X172318546Y-85683865D01*
X172445866Y-85770859D01*
X172597000Y-85801464D01*
X173097000Y-85801464D01*
X173238190Y-85774897D01*
X173367865Y-85691454D01*
X173454859Y-85564134D01*
X173462614Y-85525836D01*
X173476741Y-85539987D01*
X173726946Y-85643882D01*
X173997865Y-85644118D01*
X174248252Y-85540661D01*
X174439987Y-85349259D01*
X174543882Y-85099054D01*
X174544118Y-84828135D01*
X174440661Y-84577748D01*
X174249259Y-84386013D01*
X173999054Y-84282118D01*
X173728135Y-84281882D01*
X173477748Y-84385339D01*
X173464021Y-84399042D01*
X173458897Y-84371810D01*
X173375454Y-84242135D01*
X173248134Y-84155141D01*
X173097000Y-84124536D01*
X172597000Y-84124536D01*
X172455810Y-84151103D01*
X172326135Y-84234546D01*
X172239141Y-84361866D01*
X172208536Y-84513000D01*
X171985464Y-84513000D01*
X171958897Y-84371810D01*
X171875454Y-84242135D01*
X171748134Y-84155141D01*
X171597000Y-84124536D01*
X171097000Y-84124536D01*
X170955810Y-84151103D01*
X170826135Y-84234546D01*
X170739141Y-84361866D01*
X170714814Y-84482000D01*
X168861000Y-84482000D01*
X168676930Y-84518613D01*
X168520882Y-84622881D01*
X168121000Y-85022763D01*
X168121000Y-82397079D01*
X168216987Y-82301259D01*
X168320882Y-82051054D01*
X168321118Y-81780135D01*
X168217661Y-81529748D01*
X168026259Y-81338013D01*
X167776054Y-81234118D01*
X167505135Y-81233882D01*
X167254748Y-81337339D01*
X167063013Y-81528741D01*
X166959118Y-81778946D01*
X166958882Y-82049865D01*
X167062339Y-82300252D01*
X167159000Y-82397081D01*
X167159000Y-85270765D01*
X167133464Y-85296301D01*
X167133464Y-84678000D01*
X167106897Y-84536810D01*
X167023454Y-84407135D01*
X166896134Y-84320141D01*
X166745000Y-84289536D01*
X165995000Y-84289536D01*
X165853810Y-84316103D01*
X165724135Y-84399546D01*
X165637141Y-84526866D01*
X165606536Y-84678000D01*
X165606536Y-85478000D01*
X165633103Y-85619190D01*
X165691567Y-85710047D01*
X165689118Y-85715946D01*
X165688963Y-85894137D01*
X165687001Y-85904000D01*
X165688946Y-85913777D01*
X165688882Y-85986865D01*
X165717038Y-86055007D01*
X165735032Y-86145473D01*
X165785828Y-86221495D01*
X165792339Y-86237252D01*
X165804491Y-86249425D01*
X165837000Y-86298078D01*
X165837000Y-86552145D01*
X165835141Y-86554866D01*
X165818494Y-86637072D01*
X165804897Y-86564810D01*
X165721454Y-86435135D01*
X165594134Y-86348141D01*
X165443000Y-86317536D01*
X165299000Y-86317536D01*
X165299000Y-85333344D01*
X165314859Y-85310134D01*
X165345464Y-85159000D01*
X165345464Y-84259000D01*
X165318897Y-84117810D01*
X165235454Y-83988135D01*
X165108134Y-83901141D01*
X164957000Y-83870536D01*
X164573211Y-83870536D01*
X164602865Y-83851454D01*
X164689859Y-83724134D01*
X164720464Y-83573000D01*
X164720464Y-82773000D01*
X164693897Y-82631810D01*
X164610454Y-82502135D01*
X164483134Y-82415141D01*
X164332000Y-82384536D01*
X163582000Y-82384536D01*
X163440810Y-82411103D01*
X163311135Y-82494546D01*
X163308464Y-82498455D01*
X163308464Y-82419000D01*
X163281897Y-82277810D01*
X163198454Y-82148135D01*
X163071134Y-82061141D01*
X162920000Y-82030536D01*
X161551774Y-82030536D01*
X161108464Y-81587226D01*
X161108464Y-80745000D01*
X163200481Y-80745000D01*
X163207103Y-80780190D01*
X163290546Y-80909865D01*
X163417866Y-80996859D01*
X163569000Y-81027464D01*
X164369000Y-81027464D01*
X164510190Y-81000897D01*
X164639865Y-80917454D01*
X164726859Y-80790134D01*
X164757464Y-80639000D01*
X164757464Y-79890000D01*
X177371536Y-79890000D01*
X177371536Y-81590000D01*
X177398103Y-81731190D01*
X177481546Y-81860865D01*
X177608866Y-81947859D01*
X177760000Y-81978464D01*
X179460000Y-81978464D01*
X179601190Y-81951897D01*
X179730865Y-81868454D01*
X179817859Y-81741134D01*
X179848464Y-81590000D01*
X179848464Y-80715883D01*
X179919000Y-80715883D01*
X179919000Y-80764117D01*
X180012704Y-81235200D01*
X180279552Y-81634565D01*
X180678917Y-81901413D01*
X181150000Y-81995117D01*
X181621083Y-81901413D01*
X182020448Y-81634565D01*
X182287296Y-81235200D01*
X182295083Y-81196053D01*
X182494817Y-81621358D01*
X182923076Y-82011645D01*
X183333110Y-82181476D01*
X183563000Y-82060155D01*
X183563000Y-80867000D01*
X183817000Y-80867000D01*
X183817000Y-82060155D01*
X184046890Y-82181476D01*
X184456924Y-82011645D01*
X184885183Y-81621358D01*
X185131486Y-81096892D01*
X185010819Y-80867000D01*
X183817000Y-80867000D01*
X183563000Y-80867000D01*
X183543000Y-80867000D01*
X183543000Y-80613000D01*
X183563000Y-80613000D01*
X183563000Y-79419845D01*
X183817000Y-79419845D01*
X183817000Y-80613000D01*
X185010819Y-80613000D01*
X185131486Y-80383108D01*
X184885183Y-79858642D01*
X184456924Y-79468355D01*
X184046890Y-79298524D01*
X183817000Y-79419845D01*
X183563000Y-79419845D01*
X183333110Y-79298524D01*
X182923076Y-79468355D01*
X182494817Y-79858642D01*
X182295083Y-80283947D01*
X182287296Y-80244800D01*
X182020448Y-79845435D01*
X181621083Y-79578587D01*
X181150000Y-79484883D01*
X180678917Y-79578587D01*
X180279552Y-79845435D01*
X180012704Y-80244800D01*
X179919000Y-80715883D01*
X179848464Y-80715883D01*
X179848464Y-79890000D01*
X179821897Y-79748810D01*
X179738454Y-79619135D01*
X179611134Y-79532141D01*
X179460000Y-79501536D01*
X177760000Y-79501536D01*
X177618810Y-79528103D01*
X177489135Y-79611546D01*
X177402141Y-79738866D01*
X177371536Y-79890000D01*
X164757464Y-79890000D01*
X164757464Y-79889000D01*
X164730897Y-79747810D01*
X164647454Y-79618135D01*
X164520134Y-79531141D01*
X164369000Y-79500536D01*
X163569000Y-79500536D01*
X163427810Y-79527103D01*
X163298135Y-79610546D01*
X163211141Y-79737866D01*
X163202001Y-79783000D01*
X160275000Y-79783000D01*
X160090929Y-79819614D01*
X159934881Y-79923882D01*
X159679882Y-80178882D01*
X159578549Y-80330536D01*
X159320000Y-80330536D01*
X159178810Y-80357103D01*
X159049135Y-80440546D01*
X158962141Y-80567866D01*
X158931536Y-80719000D01*
X158931536Y-81919000D01*
X158958103Y-82060190D01*
X159041546Y-82189865D01*
X159168866Y-82276859D01*
X159320000Y-82307464D01*
X160468230Y-82307464D01*
X160738999Y-82578233D01*
X160738999Y-83859001D01*
X160768530Y-84007464D01*
X160775613Y-84043072D01*
X160879881Y-84199119D01*
X162139717Y-85458956D01*
X160541193Y-85458956D01*
X160380464Y-85298227D01*
X160380464Y-84190000D01*
X160353897Y-84048810D01*
X160270454Y-83919135D01*
X160143134Y-83832141D01*
X159992000Y-83801536D01*
X158992000Y-83801536D01*
X158921050Y-83814886D01*
X158974859Y-83736134D01*
X159005464Y-83585000D01*
X159005464Y-82785000D01*
X158978897Y-82643810D01*
X158895454Y-82514135D01*
X158768134Y-82427141D01*
X158617000Y-82396536D01*
X157867000Y-82396536D01*
X157725810Y-82423103D01*
X157596135Y-82506546D01*
X157543315Y-82583851D01*
X157498454Y-82514135D01*
X157371134Y-82427141D01*
X157220000Y-82396536D01*
X156470000Y-82396536D01*
X156328810Y-82423103D01*
X156301464Y-82440700D01*
X156301464Y-80561000D01*
X156274897Y-80419810D01*
X156191454Y-80290135D01*
X156064134Y-80203141D01*
X155913000Y-80172536D01*
X153713000Y-80172536D01*
X153571810Y-80199103D01*
X153442135Y-80282546D01*
X153355141Y-80409866D01*
X153324536Y-80561000D01*
X153324536Y-82761000D01*
X153351103Y-82902190D01*
X153434546Y-83031865D01*
X153561866Y-83118859D01*
X153713000Y-83149464D01*
X155913000Y-83149464D01*
X156054190Y-83122897D01*
X156081536Y-83105300D01*
X156081536Y-83585000D01*
X156108103Y-83726190D01*
X156191546Y-83855865D01*
X156247865Y-83894346D01*
X156221135Y-83911546D01*
X156134141Y-84038866D01*
X156103536Y-84190000D01*
X156103536Y-85990000D01*
X156130103Y-86131190D01*
X156213546Y-86260865D01*
X156340866Y-86347859D01*
X156492000Y-86378464D01*
X157200227Y-86378464D01*
X157506235Y-86684472D01*
X157590836Y-86741000D01*
X157662282Y-86788739D01*
X157846353Y-86825353D01*
X158340387Y-86825353D01*
X158330536Y-86874000D01*
X158330536Y-87624000D01*
X158357103Y-87765190D01*
X158440546Y-87894865D01*
X158567866Y-87981859D01*
X158719000Y-88012464D01*
X159519000Y-88012464D01*
X159660190Y-87985897D01*
X159789865Y-87902454D01*
X159805207Y-87880000D01*
X160024000Y-87880000D01*
X160024000Y-88450815D01*
X159926810Y-88469103D01*
X159797135Y-88552546D01*
X159710141Y-88679866D01*
X159679536Y-88831000D01*
X159679536Y-89081000D01*
X159706103Y-89222190D01*
X159789546Y-89351865D01*
X159916866Y-89438859D01*
X159999072Y-89455506D01*
X159926810Y-89469103D01*
X159871036Y-89504993D01*
X159770404Y-89404186D01*
X159520199Y-89300291D01*
X159249280Y-89300055D01*
X158998893Y-89403512D01*
X158807158Y-89594914D01*
X158703263Y-89845119D01*
X158703027Y-90116038D01*
X158806484Y-90366425D01*
X158914870Y-90475000D01*
X152654688Y-90475000D01*
X150512553Y-88332865D01*
X154258882Y-88332865D01*
X154362339Y-88583252D01*
X154553741Y-88774987D01*
X154803946Y-88878882D01*
X155074865Y-88879118D01*
X155325252Y-88775661D01*
X155516987Y-88584259D01*
X155620882Y-88334054D01*
X155621118Y-88063135D01*
X155517661Y-87812748D01*
X155326259Y-87621013D01*
X155076054Y-87517118D01*
X154805135Y-87516882D01*
X154554748Y-87620339D01*
X154363013Y-87811741D01*
X154259118Y-88061946D01*
X154258882Y-88332865D01*
X150512553Y-88332865D01*
X150495533Y-88315845D01*
X150583000Y-87876117D01*
X150583000Y-87827883D01*
X150489296Y-87356800D01*
X150222448Y-86957435D01*
X149823083Y-86690587D01*
X149352000Y-86596883D01*
X148880917Y-86690587D01*
X148481552Y-86957435D01*
X148214704Y-87356800D01*
X148121000Y-87827883D01*
X148121000Y-87876117D01*
X148214704Y-88347200D01*
X148481552Y-88746565D01*
X148880917Y-89013413D01*
X149352000Y-89107117D01*
X149823083Y-89013413D01*
X149828805Y-89009589D01*
X152115334Y-91296118D01*
X152271381Y-91400386D01*
X152455452Y-91437000D01*
X159679536Y-91437000D01*
X159679536Y-91581000D01*
X159703920Y-91710588D01*
X159679536Y-91831000D01*
X159679536Y-92081000D01*
X159703920Y-92210588D01*
X159679536Y-92331000D01*
X159679536Y-92475000D01*
X134558000Y-92475000D01*
X134373929Y-92511614D01*
X134353896Y-92525000D01*
X134217882Y-92615881D01*
X133589983Y-93243781D01*
X133485134Y-93172141D01*
X133334000Y-93141536D01*
X132834000Y-93141536D01*
X132692810Y-93168103D01*
X132563135Y-93251546D01*
X132476141Y-93378866D01*
X132445536Y-93530000D01*
X132445536Y-94430000D01*
X132472103Y-94571190D01*
X132555546Y-94700865D01*
X132682866Y-94787859D01*
X132834000Y-94818464D01*
X133334000Y-94818464D01*
X133475190Y-94791897D01*
X133604865Y-94708454D01*
X133691859Y-94581134D01*
X133722464Y-94430000D01*
X133722464Y-94421451D01*
X133874118Y-94320118D01*
X134757237Y-93437000D01*
X136302763Y-93437000D01*
X133042228Y-96697536D01*
X132834000Y-96697536D01*
X132692810Y-96724103D01*
X132563135Y-96807546D01*
X132476141Y-96934866D01*
X132445536Y-97086000D01*
X132445536Y-97986000D01*
X132472103Y-98127190D01*
X132555546Y-98256865D01*
X132682866Y-98343859D01*
X132834000Y-98374464D01*
X133334000Y-98374464D01*
X133475190Y-98347897D01*
X133604865Y-98264454D01*
X133691859Y-98137134D01*
X133722464Y-97986000D01*
X133722464Y-97377772D01*
X133873236Y-97227000D01*
X137329536Y-97227000D01*
X137329536Y-97527000D01*
X137356103Y-97668190D01*
X137439546Y-97797865D01*
X137566866Y-97884859D01*
X137718000Y-97915464D01*
X137968000Y-97915464D01*
X138109190Y-97888897D01*
X138157206Y-97858000D01*
X138663581Y-97858000D01*
X138717546Y-97941865D01*
X138844866Y-98028859D01*
X138996000Y-98059464D01*
X139896000Y-98059464D01*
X140037190Y-98032897D01*
X140166865Y-97949454D01*
X140253859Y-97822134D01*
X140284464Y-97671000D01*
X140284464Y-97171000D01*
X140257897Y-97029810D01*
X140174454Y-96900135D01*
X140058444Y-96820869D01*
X140126882Y-96656054D01*
X140126883Y-96654865D01*
X140415882Y-96654865D01*
X140519339Y-96905252D01*
X140616000Y-97002081D01*
X140616000Y-97200018D01*
X140610536Y-97227000D01*
X140610536Y-97527000D01*
X140637103Y-97668190D01*
X140720546Y-97797865D01*
X140847866Y-97884859D01*
X140999000Y-97915464D01*
X141249000Y-97915464D01*
X141390190Y-97888897D01*
X141519865Y-97805454D01*
X141606859Y-97678134D01*
X141637464Y-97527000D01*
X141637464Y-97227000D01*
X141610897Y-97085810D01*
X141578000Y-97034686D01*
X141578000Y-97002079D01*
X141673987Y-96906259D01*
X141777882Y-96656054D01*
X141778118Y-96385135D01*
X141674661Y-96134748D01*
X141483259Y-95943013D01*
X141233054Y-95839118D01*
X140962135Y-95838882D01*
X140711748Y-95942339D01*
X140520013Y-96133741D01*
X140416118Y-96383946D01*
X140415882Y-96654865D01*
X140126883Y-96654865D01*
X140127118Y-96385135D01*
X140023661Y-96134748D01*
X139832259Y-95943013D01*
X139582054Y-95839118D01*
X139311135Y-95838882D01*
X139060748Y-95942339D01*
X138869013Y-96133741D01*
X138765118Y-96383946D01*
X138764882Y-96654865D01*
X138834114Y-96822420D01*
X138725135Y-96892546D01*
X138722775Y-96896000D01*
X138158443Y-96896000D01*
X138119134Y-96869141D01*
X137968000Y-96838536D01*
X137718000Y-96838536D01*
X137576810Y-96865103D01*
X137447135Y-96948546D01*
X137360141Y-97075866D01*
X137329536Y-97227000D01*
X133873236Y-97227000D01*
X137163237Y-93937000D01*
X159679536Y-93937000D01*
X159679536Y-94081000D01*
X159703920Y-94210588D01*
X159679536Y-94331000D01*
X159679536Y-94581000D01*
X159706103Y-94722190D01*
X159789546Y-94851865D01*
X159916866Y-94938859D01*
X160068000Y-94969464D01*
X161317978Y-94969464D01*
X161413908Y-95065561D01*
X161664113Y-95169456D01*
X161893363Y-95169656D01*
X161835141Y-95254866D01*
X161809599Y-95381000D01*
X160911182Y-95381000D01*
X160791054Y-95331118D01*
X160520135Y-95330882D01*
X160269748Y-95434339D01*
X160078013Y-95625741D01*
X159974118Y-95875946D01*
X159973882Y-96146865D01*
X160024000Y-96268161D01*
X160024000Y-96986981D01*
X160009135Y-96996546D01*
X159922141Y-97123866D01*
X159891536Y-97275000D01*
X159891536Y-98075000D01*
X159918103Y-98216190D01*
X160001546Y-98345865D01*
X160128866Y-98432859D01*
X160280000Y-98463464D01*
X161030000Y-98463464D01*
X161171190Y-98436897D01*
X161300865Y-98353454D01*
X161387859Y-98226134D01*
X161418464Y-98075000D01*
X161418464Y-97275000D01*
X161391897Y-97133810D01*
X161308454Y-97004135D01*
X161286000Y-96988793D01*
X161286000Y-96643000D01*
X161804536Y-96643000D01*
X161804536Y-96706000D01*
X161831103Y-96847190D01*
X161914546Y-96976865D01*
X162041866Y-97063859D01*
X162193000Y-97094464D01*
X162443000Y-97094464D01*
X162584190Y-97067897D01*
X162713865Y-96984454D01*
X162800859Y-96857134D01*
X162817506Y-96774928D01*
X162831103Y-96847190D01*
X162914546Y-96976865D01*
X163041866Y-97063859D01*
X163193000Y-97094464D01*
X163337000Y-97094464D01*
X163337000Y-99587973D01*
X161781946Y-101143027D01*
X136213295Y-101143027D01*
X136029224Y-101179641D01*
X135873176Y-101283909D01*
X133790087Y-103366999D01*
X122593999Y-103366999D01*
X122409928Y-103403613D01*
X122253880Y-103507881D01*
X121741881Y-104019881D01*
X121637613Y-104175928D01*
X121600999Y-104359999D01*
X103826814Y-104359999D01*
X103828059Y-104357003D01*
X103828295Y-104086084D01*
X103724838Y-103835697D01*
X103533436Y-103643962D01*
X103283231Y-103540067D01*
X103012312Y-103539831D01*
X102761925Y-103643288D01*
X102570190Y-103834690D01*
X102466295Y-104084895D01*
X102466059Y-104355814D01*
X95221000Y-104355814D01*
X95221000Y-103254743D01*
X103384599Y-103254743D01*
X103488056Y-103505130D01*
X103679458Y-103696865D01*
X103929663Y-103800760D01*
X104200582Y-103800996D01*
X104450969Y-103697539D01*
X104642704Y-103506137D01*
X104746599Y-103255932D01*
X104746835Y-102985013D01*
X104643378Y-102734626D01*
X104451976Y-102542891D01*
X104201771Y-102438996D01*
X103930852Y-102438760D01*
X103680465Y-102542217D01*
X103488730Y-102733619D01*
X103384835Y-102983824D01*
X103384599Y-103254743D01*
X95221000Y-103254743D01*
X95221000Y-102150814D01*
X104358433Y-102150814D01*
X104461890Y-102401201D01*
X104653292Y-102592936D01*
X104903497Y-102696831D01*
X105174416Y-102697067D01*
X105424803Y-102593610D01*
X105616538Y-102402208D01*
X105710191Y-102176666D01*
X121904445Y-102176666D01*
X122038287Y-102500588D01*
X122285900Y-102748633D01*
X122609587Y-102883040D01*
X122960071Y-102883346D01*
X123283993Y-102749504D01*
X123532038Y-102501891D01*
X123666445Y-102178204D01*
X123666751Y-101827720D01*
X123659019Y-101809008D01*
X126501027Y-98967000D01*
X127478777Y-98967000D01*
X127490103Y-99027190D01*
X127573546Y-99156865D01*
X127700866Y-99243859D01*
X127801000Y-99264136D01*
X127801000Y-100216777D01*
X127740810Y-100228103D01*
X127611135Y-100311546D01*
X127524141Y-100438866D01*
X127493536Y-100590000D01*
X127493536Y-101340000D01*
X127520103Y-101481190D01*
X127603546Y-101610865D01*
X127730866Y-101697859D01*
X127882000Y-101728464D01*
X128682000Y-101728464D01*
X128823190Y-101701897D01*
X128952865Y-101618454D01*
X129039859Y-101491134D01*
X129070464Y-101340000D01*
X129070464Y-100590000D01*
X129043897Y-100448810D01*
X128960454Y-100319135D01*
X128833134Y-100232141D01*
X128763000Y-100217939D01*
X128763000Y-99272394D01*
X128893190Y-99247897D01*
X129022865Y-99164454D01*
X129109859Y-99037134D01*
X129140464Y-98886000D01*
X129140464Y-98671000D01*
X138607536Y-98671000D01*
X138607536Y-99171000D01*
X138634103Y-99312190D01*
X138717546Y-99441865D01*
X138792476Y-99493062D01*
X138765118Y-99558946D01*
X138764882Y-99829865D01*
X138868339Y-100080252D01*
X139059741Y-100271987D01*
X139309946Y-100375882D01*
X139580865Y-100376118D01*
X139831252Y-100272661D01*
X140022987Y-100081259D01*
X140126882Y-99831054D01*
X140127118Y-99560135D01*
X140099339Y-99492905D01*
X140166865Y-99449454D01*
X140253859Y-99322134D01*
X140284464Y-99171000D01*
X140284464Y-98671000D01*
X140257897Y-98529810D01*
X140174454Y-98400135D01*
X140047134Y-98313141D01*
X139896000Y-98282536D01*
X138996000Y-98282536D01*
X138854810Y-98309103D01*
X138725135Y-98392546D01*
X138638141Y-98519866D01*
X138607536Y-98671000D01*
X129140464Y-98671000D01*
X129140464Y-98086000D01*
X129113897Y-97944810D01*
X129030454Y-97815135D01*
X128903134Y-97728141D01*
X128752000Y-97697536D01*
X127852000Y-97697536D01*
X127710810Y-97724103D01*
X127581135Y-97807546D01*
X127494141Y-97934866D01*
X127479939Y-98005000D01*
X126301791Y-98005000D01*
X126117720Y-98041614D01*
X125961673Y-98145882D01*
X122978991Y-101128564D01*
X122961609Y-101121346D01*
X122611125Y-101121040D01*
X122287203Y-101254882D01*
X122039158Y-101502495D01*
X121904751Y-101826182D01*
X121904445Y-102176666D01*
X105710191Y-102176666D01*
X105720433Y-102152003D01*
X105720669Y-101881084D01*
X105617212Y-101630697D01*
X105463410Y-101476628D01*
X105622481Y-101317833D01*
X105726376Y-101067628D01*
X105726612Y-100796709D01*
X105623155Y-100546322D01*
X105431753Y-100354587D01*
X105181548Y-100250692D01*
X104910629Y-100250456D01*
X104660242Y-100353913D01*
X104468507Y-100545315D01*
X104364612Y-100795520D01*
X104364376Y-101066439D01*
X104467833Y-101316826D01*
X104621635Y-101470895D01*
X104462564Y-101629690D01*
X104358669Y-101879895D01*
X104358433Y-102150814D01*
X95221000Y-102150814D01*
X95221000Y-98892182D01*
X121847421Y-98892182D01*
X121981263Y-99216104D01*
X122228876Y-99464149D01*
X122552563Y-99598556D01*
X122903047Y-99598862D01*
X123226969Y-99465020D01*
X123475014Y-99217407D01*
X123609421Y-98893720D01*
X123609727Y-98543236D01*
X123601995Y-98524524D01*
X124990519Y-97136000D01*
X129463536Y-97136000D01*
X129463536Y-97936000D01*
X129490103Y-98077190D01*
X129573546Y-98206865D01*
X129700866Y-98293859D01*
X129852000Y-98324464D01*
X130752000Y-98324464D01*
X130893190Y-98297897D01*
X131022865Y-98214454D01*
X131025641Y-98210391D01*
X131055546Y-98256865D01*
X131182866Y-98343859D01*
X131334000Y-98374464D01*
X131834000Y-98374464D01*
X131975190Y-98347897D01*
X132104865Y-98264454D01*
X132191859Y-98137134D01*
X132222464Y-97986000D01*
X132222464Y-97086000D01*
X132195897Y-96944810D01*
X132112454Y-96815135D01*
X131985134Y-96728141D01*
X131834000Y-96697536D01*
X131334000Y-96697536D01*
X131192810Y-96724103D01*
X131063135Y-96807546D01*
X131025908Y-96862029D01*
X130903134Y-96778141D01*
X130752000Y-96747536D01*
X129852000Y-96747536D01*
X129710810Y-96774103D01*
X129581135Y-96857546D01*
X129494141Y-96984866D01*
X129463536Y-97136000D01*
X124990519Y-97136000D01*
X126710520Y-95416000D01*
X127478777Y-95416000D01*
X127490103Y-95476190D01*
X127573546Y-95605865D01*
X127700866Y-95692859D01*
X127852000Y-95723464D01*
X128752000Y-95723464D01*
X128893190Y-95696897D01*
X129022865Y-95613454D01*
X129109859Y-95486134D01*
X129140464Y-95335000D01*
X129140464Y-94535000D01*
X129113897Y-94393810D01*
X129030454Y-94264135D01*
X128903134Y-94177141D01*
X128763000Y-94148764D01*
X128763000Y-93585000D01*
X129463536Y-93585000D01*
X129463536Y-94385000D01*
X129490103Y-94526190D01*
X129573546Y-94655865D01*
X129700866Y-94742859D01*
X129852000Y-94773464D01*
X130752000Y-94773464D01*
X130893190Y-94746897D01*
X131022865Y-94663454D01*
X131027298Y-94656966D01*
X131055546Y-94700865D01*
X131182866Y-94787859D01*
X131334000Y-94818464D01*
X131834000Y-94818464D01*
X131975190Y-94791897D01*
X132104865Y-94708454D01*
X132191859Y-94581134D01*
X132222464Y-94430000D01*
X132222464Y-93530000D01*
X132195897Y-93388810D01*
X132112454Y-93259135D01*
X131985134Y-93172141D01*
X131834000Y-93141536D01*
X131334000Y-93141536D01*
X131192810Y-93168103D01*
X131063135Y-93251546D01*
X131023579Y-93309438D01*
X130903134Y-93227141D01*
X130752000Y-93196536D01*
X129852000Y-93196536D01*
X129710810Y-93223103D01*
X129581135Y-93306546D01*
X129494141Y-93433866D01*
X129463536Y-93585000D01*
X128763000Y-93585000D01*
X128763000Y-93204223D01*
X128823190Y-93192897D01*
X128952865Y-93109454D01*
X129039859Y-92982134D01*
X129070464Y-92831000D01*
X129070464Y-92081000D01*
X129043897Y-91939810D01*
X128960454Y-91810135D01*
X128833134Y-91723141D01*
X128682000Y-91692536D01*
X127882000Y-91692536D01*
X127740810Y-91719103D01*
X127611135Y-91802546D01*
X127524141Y-91929866D01*
X127493536Y-92081000D01*
X127493536Y-92831000D01*
X127520103Y-92972190D01*
X127603546Y-93101865D01*
X127730866Y-93188859D01*
X127801000Y-93203061D01*
X127801000Y-94156132D01*
X127710810Y-94173103D01*
X127581135Y-94256546D01*
X127494141Y-94383866D01*
X127479939Y-94454000D01*
X126511283Y-94454000D01*
X126327212Y-94490614D01*
X126273969Y-94526190D01*
X126171165Y-94594881D01*
X122921967Y-97844080D01*
X122904585Y-97836862D01*
X122554101Y-97836556D01*
X122230179Y-97970398D01*
X121982134Y-98218011D01*
X121847727Y-98541698D01*
X121847421Y-98892182D01*
X95221000Y-98892182D01*
X95221000Y-92435039D01*
X101870096Y-92435039D01*
X101887633Y-92517819D01*
X102157500Y-93010896D01*
X102595517Y-93363166D01*
X103135000Y-93521000D01*
X104285000Y-93521000D01*
X104285000Y-92213000D01*
X101992085Y-92213000D01*
X101870096Y-92435039D01*
X95221000Y-92435039D01*
X95221000Y-87636000D01*
X101856883Y-87636000D01*
X101927751Y-87992278D01*
X102129567Y-88294316D01*
X102341611Y-88436000D01*
X102129567Y-88577684D01*
X101927751Y-88879722D01*
X101856883Y-89236000D01*
X101927751Y-89592278D01*
X102129567Y-89894316D01*
X102431605Y-90096132D01*
X102787883Y-90167000D01*
X102901764Y-90167000D01*
X103385764Y-90651000D01*
X103135000Y-90651000D01*
X102595517Y-90808834D01*
X102157500Y-91161104D01*
X101887633Y-91654181D01*
X101870096Y-91736961D01*
X101992085Y-91959000D01*
X104285000Y-91959000D01*
X104285000Y-91939000D01*
X104539000Y-91939000D01*
X104539000Y-91959000D01*
X104559000Y-91959000D01*
X104559000Y-92213000D01*
X104539000Y-92213000D01*
X104539000Y-93521000D01*
X105689000Y-93521000D01*
X106228483Y-93363166D01*
X106666500Y-93010896D01*
X106936367Y-92517819D01*
X106953904Y-92435039D01*
X106831916Y-92213002D01*
X106842685Y-92213002D01*
X106846866Y-92215859D01*
X106998000Y-92246464D01*
X107498000Y-92246464D01*
X107639190Y-92219897D01*
X107768865Y-92136454D01*
X107855859Y-92009134D01*
X107886464Y-91858000D01*
X107886464Y-90958000D01*
X108109536Y-90958000D01*
X108109536Y-91858000D01*
X108136103Y-91999190D01*
X108219546Y-92128865D01*
X108346866Y-92215859D01*
X108498000Y-92246464D01*
X108998000Y-92246464D01*
X109139190Y-92219897D01*
X109268865Y-92136454D01*
X109355859Y-92009134D01*
X109380186Y-91889000D01*
X110737866Y-91889000D01*
X110802241Y-91953487D01*
X111052446Y-92057382D01*
X111323365Y-92057618D01*
X111573752Y-91954161D01*
X111765487Y-91762759D01*
X111869382Y-91512554D01*
X111869618Y-91241635D01*
X111766161Y-90991248D01*
X111574759Y-90799513D01*
X111324554Y-90695618D01*
X111053635Y-90695382D01*
X110803248Y-90798839D01*
X110674864Y-90927000D01*
X109380631Y-90927000D01*
X109359897Y-90816810D01*
X109276454Y-90687135D01*
X109149134Y-90600141D01*
X108998000Y-90569536D01*
X108498000Y-90569536D01*
X108356810Y-90596103D01*
X108227135Y-90679546D01*
X108140141Y-90806866D01*
X108109536Y-90958000D01*
X107886464Y-90958000D01*
X107859897Y-90816810D01*
X107776454Y-90687135D01*
X107649134Y-90600141D01*
X107498000Y-90569536D01*
X106998000Y-90569536D01*
X106950464Y-90578481D01*
X106950464Y-90517000D01*
X112335073Y-90517000D01*
X112351103Y-90602190D01*
X112434546Y-90731865D01*
X112561866Y-90818859D01*
X112713000Y-90849464D01*
X113213000Y-90849464D01*
X113354190Y-90822897D01*
X113483865Y-90739454D01*
X113570859Y-90612134D01*
X113601464Y-90461000D01*
X113601464Y-89561000D01*
X113824536Y-89561000D01*
X113824536Y-90461000D01*
X113851103Y-90602190D01*
X113934546Y-90731865D01*
X114061866Y-90818859D01*
X114213000Y-90849464D01*
X114713000Y-90849464D01*
X114854190Y-90822897D01*
X114983865Y-90739454D01*
X115070859Y-90612134D01*
X115095186Y-90492000D01*
X115634529Y-90492000D01*
X115753203Y-90610880D01*
X116003408Y-90714775D01*
X116274327Y-90715011D01*
X116524714Y-90611554D01*
X116716449Y-90420152D01*
X116820344Y-90169947D01*
X116820580Y-89899028D01*
X116717123Y-89648641D01*
X116525721Y-89456906D01*
X116275516Y-89353011D01*
X116004597Y-89352775D01*
X115754210Y-89456232D01*
X115680314Y-89530000D01*
X115095631Y-89530000D01*
X115074897Y-89419810D01*
X114991454Y-89290135D01*
X114864134Y-89203141D01*
X114713000Y-89172536D01*
X114213000Y-89172536D01*
X114071810Y-89199103D01*
X113942135Y-89282546D01*
X113855141Y-89409866D01*
X113824536Y-89561000D01*
X113601464Y-89561000D01*
X113574897Y-89419810D01*
X113491454Y-89290135D01*
X113364134Y-89203141D01*
X113213000Y-89172536D01*
X112713000Y-89172536D01*
X112571810Y-89199103D01*
X112442135Y-89282546D01*
X112355141Y-89409866D01*
X112325751Y-89555000D01*
X106950464Y-89555000D01*
X106950464Y-89486000D01*
X106923897Y-89344810D01*
X106840454Y-89215135D01*
X106713134Y-89128141D01*
X106659934Y-89117368D01*
X106694433Y-89094316D01*
X106896249Y-88792278D01*
X106967117Y-88436000D01*
X106896249Y-88079722D01*
X106699275Y-87784931D01*
X106939724Y-87584118D01*
X107155398Y-87172146D01*
X107155803Y-87145744D01*
X107030361Y-86963000D01*
X105839000Y-86963000D01*
X105839000Y-86983000D01*
X105585000Y-86983000D01*
X105585000Y-86963000D01*
X104393639Y-86963000D01*
X104268197Y-87145744D01*
X104268602Y-87172146D01*
X104484276Y-87584118D01*
X104724725Y-87784931D01*
X104527751Y-88079722D01*
X104456883Y-88436000D01*
X104527751Y-88792278D01*
X104729567Y-89094316D01*
X104762427Y-89116272D01*
X104720810Y-89124103D01*
X104591135Y-89207546D01*
X104504141Y-89334866D01*
X104473536Y-89486000D01*
X104473536Y-90378300D01*
X104031562Y-89936326D01*
X104094433Y-89894316D01*
X104296249Y-89592278D01*
X104367117Y-89236000D01*
X104296249Y-88879722D01*
X104094433Y-88577684D01*
X103882389Y-88436000D01*
X104094433Y-88294316D01*
X104296249Y-87992278D01*
X104367117Y-87636000D01*
X104296249Y-87279722D01*
X104094433Y-86977684D01*
X103792395Y-86775868D01*
X103436117Y-86705000D01*
X102787883Y-86705000D01*
X102431605Y-86775868D01*
X102129567Y-86977684D01*
X101927751Y-87279722D01*
X101856883Y-87636000D01*
X95221000Y-87636000D01*
X95221000Y-86526256D01*
X104268197Y-86526256D01*
X104393639Y-86709000D01*
X105585000Y-86709000D01*
X105585000Y-86689000D01*
X105839000Y-86689000D01*
X105839000Y-86709000D01*
X107030361Y-86709000D01*
X107090173Y-86621865D01*
X136986882Y-86621865D01*
X137090339Y-86872252D01*
X137187000Y-86969081D01*
X137187000Y-87048372D01*
X137144641Y-87110366D01*
X137114036Y-87261500D01*
X137114036Y-87511500D01*
X137140603Y-87652690D01*
X137224046Y-87782365D01*
X137351366Y-87869359D01*
X137502500Y-87899964D01*
X137802500Y-87899964D01*
X137943690Y-87873397D01*
X138073365Y-87789954D01*
X138160359Y-87662634D01*
X138190964Y-87511500D01*
X138190964Y-87261500D01*
X138164397Y-87120310D01*
X138149000Y-87096382D01*
X138149000Y-87002000D01*
X145573536Y-87002000D01*
X145573536Y-88702000D01*
X145600103Y-88843190D01*
X145683546Y-88972865D01*
X145810866Y-89059859D01*
X145962000Y-89090464D01*
X147662000Y-89090464D01*
X147803190Y-89063897D01*
X147932865Y-88980454D01*
X148019859Y-88853134D01*
X148050464Y-88702000D01*
X148050464Y-87002000D01*
X148023897Y-86860810D01*
X147940454Y-86731135D01*
X147813134Y-86644141D01*
X147662000Y-86613536D01*
X145962000Y-86613536D01*
X145820810Y-86640103D01*
X145691135Y-86723546D01*
X145604141Y-86850866D01*
X145573536Y-87002000D01*
X138149000Y-87002000D01*
X138149000Y-86969079D01*
X138244987Y-86873259D01*
X138348882Y-86623054D01*
X138349118Y-86352135D01*
X138245661Y-86101748D01*
X138054259Y-85910013D01*
X137804054Y-85806118D01*
X137533135Y-85805882D01*
X137282748Y-85909339D01*
X137091013Y-86100741D01*
X136987118Y-86350946D01*
X136986882Y-86621865D01*
X107090173Y-86621865D01*
X107155803Y-86526256D01*
X107155398Y-86499854D01*
X106939724Y-86087882D01*
X106582813Y-85789804D01*
X106572425Y-85786555D01*
X106666500Y-85710896D01*
X106936367Y-85217819D01*
X106953904Y-85135039D01*
X106831915Y-84913000D01*
X104539000Y-84913000D01*
X104539000Y-86042179D01*
X104484276Y-86087882D01*
X104268602Y-86499854D01*
X104268197Y-86526256D01*
X95221000Y-86526256D01*
X95221000Y-83720653D01*
X95709994Y-84904109D01*
X96730519Y-85926417D01*
X98064581Y-86480368D01*
X99509082Y-86481628D01*
X100844109Y-85930006D01*
X101862890Y-84913002D01*
X101992084Y-84913002D01*
X101870096Y-85135039D01*
X101887633Y-85217819D01*
X102157500Y-85710896D01*
X102595517Y-86063166D01*
X103135000Y-86221000D01*
X104285000Y-86221000D01*
X104285000Y-84913000D01*
X104265000Y-84913000D01*
X104265000Y-84659000D01*
X104285000Y-84659000D01*
X104285000Y-83351000D01*
X104539000Y-83351000D01*
X104539000Y-84659000D01*
X106831915Y-84659000D01*
X106953904Y-84436961D01*
X106936367Y-84354181D01*
X106666500Y-83861104D01*
X106228483Y-83508834D01*
X105689000Y-83351000D01*
X104539000Y-83351000D01*
X104285000Y-83351000D01*
X103135000Y-83351000D01*
X102595517Y-83508834D01*
X102374062Y-83686937D01*
X102420368Y-83575419D01*
X102420716Y-83176000D01*
X130510036Y-83176000D01*
X130510036Y-83426000D01*
X130536603Y-83567190D01*
X130620046Y-83696865D01*
X130747366Y-83783859D01*
X130898500Y-83814464D01*
X131198500Y-83814464D01*
X131339690Y-83787897D01*
X131348854Y-83782000D01*
X131887016Y-83782000D01*
X131934546Y-83855865D01*
X131939730Y-83859407D01*
X131907118Y-83937946D01*
X131906882Y-84208865D01*
X132010339Y-84459252D01*
X132201741Y-84650987D01*
X132451946Y-84754882D01*
X132722865Y-84755118D01*
X132973252Y-84651661D01*
X133164987Y-84460259D01*
X133268882Y-84210054D01*
X133268883Y-84208865D01*
X134446882Y-84208865D01*
X134550339Y-84459252D01*
X134741741Y-84650987D01*
X134991946Y-84754882D01*
X135262865Y-84755118D01*
X135513252Y-84651661D01*
X135704987Y-84460259D01*
X135808882Y-84210054D01*
X135808883Y-84208865D01*
X136986882Y-84208865D01*
X137090339Y-84459252D01*
X137281741Y-84650987D01*
X137531946Y-84754882D01*
X137802865Y-84755118D01*
X138053252Y-84651661D01*
X138244987Y-84460259D01*
X138348882Y-84210054D01*
X138349118Y-83939135D01*
X138245661Y-83688748D01*
X138149000Y-83591919D01*
X138149000Y-83572758D01*
X138160359Y-83556134D01*
X138190964Y-83405000D01*
X138190964Y-83155000D01*
X138164397Y-83013810D01*
X138080954Y-82884135D01*
X137953634Y-82797141D01*
X137802500Y-82766536D01*
X137502500Y-82766536D01*
X137361310Y-82793103D01*
X137231635Y-82876546D01*
X137144641Y-83003866D01*
X137114036Y-83155000D01*
X137114036Y-83405000D01*
X137140603Y-83546190D01*
X137176667Y-83602236D01*
X137091013Y-83687741D01*
X136987118Y-83937946D01*
X136986882Y-84208865D01*
X135808883Y-84208865D01*
X135809118Y-83939135D01*
X135705661Y-83688748D01*
X135609746Y-83592666D01*
X135620359Y-83577134D01*
X135650964Y-83426000D01*
X135650964Y-83176000D01*
X135624397Y-83034810D01*
X135540954Y-82905135D01*
X135413634Y-82818141D01*
X135262500Y-82787536D01*
X134962500Y-82787536D01*
X134821310Y-82814103D01*
X134691635Y-82897546D01*
X134604641Y-83024866D01*
X134574036Y-83176000D01*
X134574036Y-83426000D01*
X134600603Y-83567190D01*
X134628439Y-83610449D01*
X134551013Y-83687741D01*
X134447118Y-83937946D01*
X134446882Y-84208865D01*
X133268883Y-84208865D01*
X133269118Y-83939135D01*
X133236347Y-83859822D01*
X133320859Y-83736134D01*
X133351464Y-83585000D01*
X133351464Y-82785000D01*
X133324897Y-82643810D01*
X133241454Y-82514135D01*
X133114134Y-82427141D01*
X132963000Y-82396536D01*
X132213000Y-82396536D01*
X132071810Y-82423103D01*
X131942135Y-82506546D01*
X131855141Y-82633866D01*
X131824536Y-82785000D01*
X131824536Y-82820000D01*
X131352355Y-82820000D01*
X131349634Y-82818141D01*
X131198500Y-82787536D01*
X130898500Y-82787536D01*
X130757310Y-82814103D01*
X130627635Y-82897546D01*
X130540641Y-83024866D01*
X130510036Y-83176000D01*
X102420716Y-83176000D01*
X102421628Y-82130918D01*
X102391137Y-82057122D01*
X142963825Y-82057122D01*
X143178466Y-82575332D01*
X143640608Y-83070012D01*
X144256877Y-83350183D01*
X144526000Y-83232604D01*
X144526000Y-81788000D01*
X144780000Y-81788000D01*
X144780000Y-83232604D01*
X145049123Y-83350183D01*
X145665392Y-83070012D01*
X146127534Y-82575332D01*
X146342175Y-82057122D01*
X146224125Y-81788000D01*
X144780000Y-81788000D01*
X144526000Y-81788000D01*
X143081875Y-81788000D01*
X142963825Y-82057122D01*
X102391137Y-82057122D01*
X102030548Y-81184433D01*
X102150772Y-81304867D01*
X102564842Y-81476804D01*
X103013191Y-81477195D01*
X103427560Y-81305981D01*
X103468734Y-81264878D01*
X142963825Y-81264878D01*
X143081875Y-81534000D01*
X144526000Y-81534000D01*
X144526000Y-80089396D01*
X144780000Y-80089396D01*
X144780000Y-81534000D01*
X146224125Y-81534000D01*
X146342175Y-81264878D01*
X146127534Y-80746668D01*
X145665392Y-80251988D01*
X145049123Y-79971817D01*
X144780000Y-80089396D01*
X144526000Y-80089396D01*
X144256877Y-79971817D01*
X143640608Y-80251988D01*
X143178466Y-80746668D01*
X142963825Y-81264878D01*
X103468734Y-81264878D01*
X103744867Y-80989228D01*
X103916804Y-80575158D01*
X103917195Y-80126809D01*
X103745981Y-79712440D01*
X103429228Y-79395133D01*
X103015158Y-79223196D01*
X102566809Y-79222805D01*
X102152440Y-79394019D01*
X101835133Y-79710772D01*
X101663196Y-80124842D01*
X101662805Y-80573191D01*
X101673477Y-80599018D01*
X100849481Y-79773583D01*
X99515419Y-79219632D01*
X98070918Y-79218372D01*
X97151088Y-79598438D01*
X97968526Y-78781000D01*
X191611474Y-78781000D01*
X192429783Y-79599309D01*
M02*
